G75*
%MOIN*%
%OFA0B0*%
%FSLAX25Y25*%
%IPPOS*%
%LPD*%
%AMOC8*
5,1,8,0,0,1.08239X$1,22.5*
%
%ADD10R,0.07874X0.04724*%
%ADD11R,0.05315X0.02362*%
%ADD12R,0.04331X0.03937*%
%ADD13R,0.03937X0.04331*%
%ADD14R,0.05500X0.02550*%
D10*
X0153865Y0263976D03*
X0153865Y0286024D03*
X0292802Y0286024D03*
X0292802Y0263976D03*
D11*
X0278333Y0269094D03*
X0278333Y0273031D03*
X0278333Y0276969D03*
X0278333Y0280906D03*
X0168333Y0280906D03*
X0168333Y0276969D03*
X0168333Y0273031D03*
X0168333Y0269094D03*
D12*
X0189987Y0260000D03*
X0196680Y0260000D03*
X0254987Y0255000D03*
X0261680Y0255000D03*
X0261680Y0265000D03*
X0254987Y0265000D03*
X0254987Y0275000D03*
X0261680Y0275000D03*
D13*
X0163333Y0296654D03*
X0163333Y0303346D03*
X0153333Y0303346D03*
X0153333Y0296654D03*
D14*
X0205026Y0257500D03*
X0205026Y0262500D03*
X0205026Y0267500D03*
X0205026Y0272500D03*
X0205026Y0277500D03*
X0205026Y0282500D03*
X0205026Y0287500D03*
X0205026Y0292500D03*
X0241640Y0292500D03*
X0241640Y0287500D03*
X0241640Y0282500D03*
X0241640Y0277500D03*
X0241640Y0272500D03*
X0241640Y0267500D03*
X0241640Y0262500D03*
X0241640Y0257500D03*
M02*
