G75*
%MOIN*%
%OFA0B0*%
%FSLAX25Y25*%
%IPPOS*%
%LPD*%
%AMOC8*
5,1,8,0,0,1.08239X$1,22.5*
%
%ADD10C,0.13800*%
%ADD11C,0.03300*%
%ADD12R,0.08674X0.05524*%
%ADD13R,0.06115X0.03162*%
%ADD14C,0.08200*%
%ADD15R,0.05131X0.04737*%
%ADD16R,0.04737X0.05131*%
%ADD17R,0.06300X0.03350*%
%ADD18C,0.09658*%
D10*
X0158333Y0210000D03*
X0288333Y0210000D03*
X0288333Y0340000D03*
X0158333Y0340000D03*
D11*
X0151333Y0332000D03*
X0279833Y0203500D03*
D12*
X0292802Y0263976D03*
X0292802Y0286024D03*
X0153865Y0286024D03*
X0153865Y0263976D03*
D13*
X0168333Y0269094D03*
X0168333Y0273031D03*
X0168333Y0276969D03*
X0168333Y0280906D03*
X0278333Y0280906D03*
X0278333Y0276969D03*
X0278333Y0273031D03*
X0278333Y0269094D03*
D14*
X0293333Y0255000D03*
X0293333Y0245000D03*
X0293333Y0235000D03*
X0293333Y0225000D03*
X0153333Y0255000D03*
D15*
X0189987Y0260000D03*
X0196680Y0260000D03*
X0254987Y0255000D03*
X0261680Y0255000D03*
X0261680Y0265000D03*
X0254987Y0265000D03*
X0254987Y0275000D03*
X0261680Y0275000D03*
D16*
X0163333Y0296654D03*
X0163333Y0303346D03*
X0153333Y0303346D03*
X0153333Y0296654D03*
D17*
X0205026Y0292500D03*
X0205026Y0287500D03*
X0205026Y0282500D03*
X0205026Y0277500D03*
X0205026Y0272500D03*
X0205026Y0267500D03*
X0205026Y0262500D03*
X0205026Y0257500D03*
X0241640Y0257500D03*
X0241640Y0262500D03*
X0241640Y0267500D03*
X0241640Y0272500D03*
X0241640Y0277500D03*
X0241640Y0282500D03*
X0241640Y0287500D03*
X0241640Y0292500D03*
D18*
X0233176Y0325000D03*
X0252861Y0325000D03*
X0213491Y0325000D03*
X0193806Y0325000D03*
X0193806Y0225000D03*
X0213491Y0225000D03*
X0233176Y0225000D03*
X0252861Y0225000D03*
M02*
