G75*
%MOIN*%
%OFA0B0*%
%FSLAX25Y25*%
%IPPOS*%
%LPD*%
%AMOC8*
5,1,8,0,0,1.08239X$1,22.5*
%
%ADD10C,0.07400*%
%ADD11R,0.02500X0.05000*%
%ADD12C,0.01000*%
%ADD13C,0.08858*%
%ADD14C,0.00600*%
%ADD15C,0.00800*%
%ADD16C,0.02900*%
D10*
X0293333Y0225000D03*
X0293333Y0235000D03*
X0293333Y0245000D03*
X0293333Y0255000D03*
X0153333Y0255000D03*
D11*
X0159333Y0315000D03*
X0163333Y0315000D03*
X0167333Y0315000D03*
X0256333Y0275000D03*
X0260333Y0275000D03*
X0260333Y0265000D03*
X0256333Y0265000D03*
X0256333Y0255000D03*
X0260333Y0255000D03*
D12*
X0256333Y0255000D01*
X0256333Y0265000D02*
X0260333Y0265000D01*
X0260333Y0275000D02*
X0256333Y0275000D01*
X0167333Y0315000D02*
X0163333Y0315000D01*
X0159333Y0315000D01*
D13*
X0193806Y0325000D03*
X0213491Y0325000D03*
X0233176Y0325000D03*
X0252861Y0325000D03*
X0252861Y0225000D03*
X0233176Y0225000D03*
X0213491Y0225000D03*
X0193806Y0225000D03*
D14*
X0258333Y0255000D02*
X0260333Y0255000D01*
D15*
X0165567Y0203930D02*
X0163267Y0202000D01*
X0283399Y0202000D01*
X0281099Y0203930D01*
X0281099Y0203930D01*
X0279459Y0206770D01*
X0279459Y0206770D01*
X0278890Y0210000D01*
X0278890Y0210000D01*
X0279459Y0213230D01*
X0279459Y0213230D01*
X0281099Y0216070D01*
X0281099Y0216070D01*
X0281099Y0216070D01*
X0283612Y0218178D01*
X0283612Y0218178D01*
X0286693Y0219300D01*
X0289973Y0219300D01*
X0293055Y0218178D01*
X0293055Y0218178D01*
X0295567Y0216070D01*
X0295567Y0216070D01*
X0296333Y0214744D01*
X0296333Y0220876D01*
X0296006Y0220638D01*
X0295291Y0220274D01*
X0294528Y0220026D01*
X0293735Y0219900D01*
X0293733Y0219900D01*
X0293733Y0224600D01*
X0292933Y0224600D01*
X0288233Y0224600D01*
X0288233Y0224599D01*
X0288359Y0223806D01*
X0288607Y0223042D01*
X0288971Y0222327D01*
X0289443Y0221678D01*
X0290011Y0221110D01*
X0290660Y0220638D01*
X0291376Y0220274D01*
X0292139Y0220026D01*
X0292932Y0219900D01*
X0292933Y0219900D01*
X0292933Y0224600D01*
X0292933Y0225400D01*
X0288233Y0225400D01*
X0288233Y0225401D01*
X0288359Y0226194D01*
X0288607Y0226958D01*
X0288971Y0227673D01*
X0289443Y0228322D01*
X0290011Y0228890D01*
X0290660Y0229362D01*
X0291376Y0229726D01*
X0291846Y0229879D01*
X0290331Y0230507D01*
X0288840Y0231998D01*
X0288033Y0233946D01*
X0288033Y0236054D01*
X0288840Y0238002D01*
X0290331Y0239493D01*
X0291555Y0240000D01*
X0290331Y0240507D01*
X0288840Y0241998D01*
X0288425Y0243000D01*
X0217884Y0243000D01*
X0216713Y0244172D01*
X0200245Y0260640D01*
X0199416Y0260640D01*
X0198295Y0261104D01*
X0197437Y0261962D01*
X0196973Y0263083D01*
X0196973Y0264296D01*
X0197019Y0264407D01*
X0196684Y0264407D01*
X0195563Y0264872D01*
X0194787Y0265648D01*
X0194561Y0265422D01*
X0193440Y0264957D01*
X0192612Y0264957D01*
X0180654Y0253000D01*
X0158242Y0253000D01*
X0157826Y0251998D01*
X0156336Y0250507D01*
X0154388Y0249700D01*
X0152279Y0249700D01*
X0150333Y0250506D01*
X0150333Y0214744D01*
X0151099Y0216070D01*
X0151099Y0216070D01*
X0151099Y0216070D01*
X0153612Y0218178D01*
X0153612Y0218178D01*
X0156693Y0219300D01*
X0159973Y0219300D01*
X0163055Y0218178D01*
X0163055Y0218178D01*
X0165567Y0216070D01*
X0165567Y0216070D01*
X0167207Y0213230D01*
X0167207Y0213230D01*
X0167777Y0210000D01*
X0167777Y0210000D01*
X0167207Y0206770D01*
X0167207Y0206770D01*
X0165567Y0203930D01*
X0165567Y0203930D01*
X0165567Y0203930D01*
X0165604Y0203993D02*
X0281063Y0203993D01*
X0280602Y0204791D02*
X0166065Y0204791D01*
X0166526Y0205590D02*
X0280141Y0205590D01*
X0279680Y0206388D02*
X0166987Y0206388D01*
X0167281Y0207187D02*
X0279386Y0207187D01*
X0279245Y0207985D02*
X0167421Y0207985D01*
X0167562Y0208784D02*
X0279104Y0208784D01*
X0278964Y0209582D02*
X0167703Y0209582D01*
X0167710Y0210381D02*
X0278957Y0210381D01*
X0279098Y0211179D02*
X0167569Y0211179D01*
X0167428Y0211978D02*
X0279239Y0211978D01*
X0279379Y0212776D02*
X0167287Y0212776D01*
X0167008Y0213575D02*
X0279658Y0213575D01*
X0280120Y0214373D02*
X0166547Y0214373D01*
X0166086Y0215172D02*
X0280581Y0215172D01*
X0281042Y0215970D02*
X0165625Y0215970D01*
X0164735Y0216769D02*
X0281932Y0216769D01*
X0282883Y0217567D02*
X0163783Y0217567D01*
X0162540Y0218366D02*
X0284127Y0218366D01*
X0286321Y0219164D02*
X0234842Y0219164D01*
X0234375Y0218971D02*
X0236591Y0219889D01*
X0238287Y0221585D01*
X0239205Y0223801D01*
X0239205Y0226199D01*
X0238287Y0228415D01*
X0236591Y0230111D01*
X0234375Y0231029D01*
X0231977Y0231029D01*
X0229761Y0230111D01*
X0228065Y0228415D01*
X0227147Y0226199D01*
X0227147Y0223801D01*
X0228065Y0221585D01*
X0229761Y0219889D01*
X0231977Y0218971D01*
X0234375Y0218971D01*
X0236665Y0219963D02*
X0249907Y0219963D01*
X0249806Y0220014D02*
X0250623Y0219598D01*
X0251496Y0219314D01*
X0252402Y0219171D01*
X0252461Y0219171D01*
X0252461Y0224600D01*
X0253261Y0224600D01*
X0253261Y0225400D01*
X0258690Y0225400D01*
X0258690Y0225459D01*
X0258546Y0226365D01*
X0258263Y0227238D01*
X0257846Y0228055D01*
X0257307Y0228797D01*
X0256658Y0229446D01*
X0255916Y0229986D01*
X0255098Y0230402D01*
X0254226Y0230686D01*
X0253320Y0230829D01*
X0253261Y0230829D01*
X0253261Y0225400D01*
X0252461Y0225400D01*
X0252461Y0230829D01*
X0252402Y0230829D01*
X0251496Y0230686D01*
X0250623Y0230402D01*
X0249806Y0229986D01*
X0249063Y0229446D01*
X0248415Y0228797D01*
X0247875Y0228055D01*
X0247459Y0227238D01*
X0247175Y0226365D01*
X0247032Y0225459D01*
X0247032Y0225400D01*
X0252461Y0225400D01*
X0252461Y0224600D01*
X0247032Y0224600D01*
X0247032Y0224541D01*
X0247175Y0223635D01*
X0247459Y0222762D01*
X0247875Y0221945D01*
X0248415Y0221203D01*
X0249063Y0220554D01*
X0249806Y0220014D01*
X0248856Y0220761D02*
X0237464Y0220761D01*
X0238262Y0221560D02*
X0248155Y0221560D01*
X0247665Y0222358D02*
X0238608Y0222358D01*
X0238938Y0223157D02*
X0247331Y0223157D01*
X0247125Y0223955D02*
X0239205Y0223955D01*
X0239205Y0224754D02*
X0252461Y0224754D01*
X0252461Y0225552D02*
X0253261Y0225552D01*
X0253261Y0224754D02*
X0292933Y0224754D01*
X0292933Y0223955D02*
X0293733Y0223955D01*
X0293733Y0223157D02*
X0292933Y0223157D01*
X0292933Y0222358D02*
X0293733Y0222358D01*
X0293733Y0221560D02*
X0292933Y0221560D01*
X0292933Y0220761D02*
X0293733Y0220761D01*
X0293733Y0219963D02*
X0292933Y0219963D01*
X0292536Y0219963D02*
X0255815Y0219963D01*
X0255916Y0220014D02*
X0256658Y0220554D01*
X0257307Y0221203D01*
X0257846Y0221945D01*
X0258263Y0222762D01*
X0258546Y0223635D01*
X0258690Y0224541D01*
X0258690Y0224600D01*
X0253261Y0224600D01*
X0253261Y0219171D01*
X0253320Y0219171D01*
X0254226Y0219314D01*
X0255098Y0219598D01*
X0255916Y0220014D01*
X0256866Y0220761D02*
X0290491Y0220761D01*
X0289561Y0221560D02*
X0257567Y0221560D01*
X0258057Y0222358D02*
X0288955Y0222358D01*
X0288570Y0223157D02*
X0258391Y0223157D01*
X0258597Y0223955D02*
X0288335Y0223955D01*
X0288257Y0225552D02*
X0258675Y0225552D01*
X0258549Y0226351D02*
X0288410Y0226351D01*
X0288705Y0227149D02*
X0258292Y0227149D01*
X0257901Y0227948D02*
X0289171Y0227948D01*
X0289867Y0228746D02*
X0257344Y0228746D01*
X0256522Y0229545D02*
X0291020Y0229545D01*
X0290726Y0230343D02*
X0255214Y0230343D01*
X0253261Y0230343D02*
X0252461Y0230343D01*
X0252461Y0229545D02*
X0253261Y0229545D01*
X0253261Y0228746D02*
X0252461Y0228746D01*
X0252461Y0227948D02*
X0253261Y0227948D01*
X0253261Y0227149D02*
X0252461Y0227149D01*
X0252461Y0226351D02*
X0253261Y0226351D01*
X0253261Y0223955D02*
X0252461Y0223955D01*
X0252461Y0223157D02*
X0253261Y0223157D01*
X0253261Y0222358D02*
X0252461Y0222358D01*
X0252461Y0221560D02*
X0253261Y0221560D01*
X0253261Y0220761D02*
X0252461Y0220761D01*
X0252461Y0219963D02*
X0253261Y0219963D01*
X0247047Y0225552D02*
X0239205Y0225552D01*
X0239142Y0226351D02*
X0247173Y0226351D01*
X0247430Y0227149D02*
X0238811Y0227149D01*
X0238481Y0227948D02*
X0247821Y0227948D01*
X0248378Y0228746D02*
X0237956Y0228746D01*
X0237157Y0229545D02*
X0249199Y0229545D01*
X0250508Y0230343D02*
X0236031Y0230343D01*
X0230321Y0230343D02*
X0216345Y0230343D01*
X0216906Y0230111D02*
X0214690Y0231029D01*
X0212292Y0231029D01*
X0210076Y0230111D01*
X0208380Y0228415D01*
X0207462Y0226199D01*
X0207462Y0223801D01*
X0208380Y0221585D01*
X0210076Y0219889D01*
X0212292Y0218971D01*
X0214690Y0218971D01*
X0216906Y0219889D01*
X0218602Y0221585D01*
X0219520Y0223801D01*
X0219520Y0226199D01*
X0218602Y0228415D01*
X0216906Y0230111D01*
X0217472Y0229545D02*
X0229194Y0229545D01*
X0228396Y0228746D02*
X0218271Y0228746D01*
X0218796Y0227948D02*
X0227871Y0227948D01*
X0227540Y0227149D02*
X0219126Y0227149D01*
X0219457Y0226351D02*
X0227210Y0226351D01*
X0227147Y0225552D02*
X0219520Y0225552D01*
X0219520Y0224754D02*
X0227147Y0224754D01*
X0227147Y0223955D02*
X0219520Y0223955D01*
X0219253Y0223157D02*
X0227413Y0223157D01*
X0227744Y0222358D02*
X0218922Y0222358D01*
X0218577Y0221560D02*
X0228090Y0221560D01*
X0228888Y0220761D02*
X0217779Y0220761D01*
X0216980Y0219963D02*
X0229687Y0219963D01*
X0231510Y0219164D02*
X0215157Y0219164D01*
X0211825Y0219164D02*
X0195472Y0219164D01*
X0195005Y0218971D02*
X0197221Y0219889D01*
X0198917Y0221585D01*
X0199835Y0223801D01*
X0199835Y0226199D01*
X0198917Y0228415D01*
X0197221Y0230111D01*
X0195005Y0231029D01*
X0192606Y0231029D01*
X0190391Y0230111D01*
X0188695Y0228415D01*
X0187777Y0226199D01*
X0187777Y0223801D01*
X0188695Y0221585D01*
X0190391Y0219889D01*
X0192606Y0218971D01*
X0195005Y0218971D01*
X0197295Y0219963D02*
X0210002Y0219963D01*
X0209203Y0220761D02*
X0198094Y0220761D01*
X0198892Y0221560D02*
X0208405Y0221560D01*
X0208059Y0222358D02*
X0199237Y0222358D01*
X0199568Y0223157D02*
X0207728Y0223157D01*
X0207462Y0223955D02*
X0199835Y0223955D01*
X0199835Y0224754D02*
X0207462Y0224754D01*
X0207462Y0225552D02*
X0199835Y0225552D01*
X0199772Y0226351D02*
X0207524Y0226351D01*
X0207855Y0227149D02*
X0199441Y0227149D01*
X0199111Y0227948D02*
X0208186Y0227948D01*
X0208711Y0228746D02*
X0198586Y0228746D01*
X0197787Y0229545D02*
X0209509Y0229545D01*
X0210636Y0230343D02*
X0196660Y0230343D01*
X0190951Y0230343D02*
X0150333Y0230343D01*
X0150333Y0229545D02*
X0189824Y0229545D01*
X0189026Y0228746D02*
X0150333Y0228746D01*
X0150333Y0227948D02*
X0188501Y0227948D01*
X0188170Y0227149D02*
X0150333Y0227149D01*
X0150333Y0226351D02*
X0187839Y0226351D01*
X0187777Y0225552D02*
X0150333Y0225552D01*
X0150333Y0224754D02*
X0187777Y0224754D01*
X0187777Y0223955D02*
X0150333Y0223955D01*
X0150333Y0223157D02*
X0188043Y0223157D01*
X0188374Y0222358D02*
X0150333Y0222358D01*
X0150333Y0221560D02*
X0188719Y0221560D01*
X0189518Y0220761D02*
X0150333Y0220761D01*
X0150333Y0219963D02*
X0190316Y0219963D01*
X0192140Y0219164D02*
X0160346Y0219164D01*
X0156321Y0219164D02*
X0150333Y0219164D01*
X0150333Y0218366D02*
X0154127Y0218366D01*
X0152883Y0217567D02*
X0150333Y0217567D01*
X0150333Y0216769D02*
X0151932Y0216769D01*
X0151042Y0215970D02*
X0150333Y0215970D01*
X0150333Y0215172D02*
X0150581Y0215172D01*
X0150333Y0231142D02*
X0289696Y0231142D01*
X0288898Y0231940D02*
X0150333Y0231940D01*
X0150333Y0232739D02*
X0288533Y0232739D01*
X0288202Y0233537D02*
X0150333Y0233537D01*
X0150333Y0234336D02*
X0288033Y0234336D01*
X0288033Y0235134D02*
X0150333Y0235134D01*
X0150333Y0235933D02*
X0288033Y0235933D01*
X0288314Y0236732D02*
X0150333Y0236732D01*
X0150333Y0237530D02*
X0288645Y0237530D01*
X0289167Y0238329D02*
X0150333Y0238329D01*
X0150333Y0239127D02*
X0289965Y0239127D01*
X0290114Y0240724D02*
X0150333Y0240724D01*
X0150333Y0239926D02*
X0291375Y0239926D01*
X0289315Y0241523D02*
X0150333Y0241523D01*
X0150333Y0242321D02*
X0288706Y0242321D01*
X0293333Y0245000D02*
X0218713Y0245000D01*
X0200023Y0263690D01*
X0200023Y0268690D01*
X0195713Y0273000D01*
X0173833Y0273000D01*
X0174791Y0270457D02*
X0173333Y0269000D01*
X0174791Y0270457D02*
X0195791Y0270457D01*
X0197291Y0268957D01*
X0197291Y0267457D01*
X0196027Y0264679D02*
X0192334Y0264679D01*
X0191535Y0263881D02*
X0196973Y0263881D01*
X0196973Y0263082D02*
X0190737Y0263082D01*
X0189938Y0262284D02*
X0197304Y0262284D01*
X0197914Y0261485D02*
X0189140Y0261485D01*
X0188341Y0260687D02*
X0199303Y0260687D01*
X0200996Y0259888D02*
X0187543Y0259888D01*
X0186744Y0259090D02*
X0201795Y0259090D01*
X0202593Y0258291D02*
X0185946Y0258291D01*
X0185147Y0257493D02*
X0203392Y0257493D01*
X0204190Y0256694D02*
X0184349Y0256694D01*
X0183550Y0255896D02*
X0204989Y0255896D01*
X0205787Y0255097D02*
X0182752Y0255097D01*
X0181953Y0254299D02*
X0206586Y0254299D01*
X0207384Y0253500D02*
X0181155Y0253500D01*
X0179826Y0255000D02*
X0192833Y0268007D01*
X0194617Y0265478D02*
X0194957Y0265478D01*
X0210333Y0265000D02*
X0225333Y0250000D01*
X0288333Y0250000D01*
X0293333Y0255000D01*
X0288448Y0252944D02*
X0287505Y0252000D01*
X0263183Y0252000D01*
X0263183Y0253500D01*
X0266662Y0253500D01*
X0268162Y0255000D01*
X0269333Y0256172D01*
X0269333Y0264328D01*
X0268662Y0265000D01*
X0269333Y0265672D01*
X0269333Y0267000D01*
X0270162Y0267000D01*
X0272833Y0269672D01*
X0272833Y0270687D01*
X0273419Y0271272D01*
X0273883Y0272393D01*
X0273883Y0273607D01*
X0273419Y0274728D01*
X0272561Y0275586D01*
X0271440Y0276050D01*
X0270227Y0276050D01*
X0269106Y0275586D01*
X0268248Y0274728D01*
X0268156Y0274506D01*
X0266833Y0275828D01*
X0265662Y0277000D01*
X0263183Y0277000D01*
X0263183Y0278163D01*
X0262333Y0279013D01*
X0262333Y0285828D01*
X0261162Y0287000D01*
X0261162Y0287000D01*
X0255333Y0292828D01*
X0255333Y0319498D01*
X0256276Y0319889D01*
X0257972Y0321585D01*
X0258890Y0323801D01*
X0258890Y0326199D01*
X0257972Y0328415D01*
X0256276Y0330111D01*
X0254060Y0331029D01*
X0251662Y0331029D01*
X0249446Y0330111D01*
X0247750Y0328415D01*
X0246832Y0326199D01*
X0246832Y0323801D01*
X0247750Y0321585D01*
X0249446Y0319889D01*
X0251333Y0319107D01*
X0251333Y0314000D01*
X0212505Y0314000D01*
X0211333Y0312828D01*
X0190505Y0292000D01*
X0179662Y0292000D01*
X0166701Y0304961D01*
X0166727Y0304950D01*
X0167940Y0304950D01*
X0169061Y0305414D01*
X0169919Y0306272D01*
X0170383Y0307393D01*
X0170383Y0308607D01*
X0169919Y0309728D01*
X0169333Y0310313D01*
X0169333Y0310987D01*
X0170183Y0311837D01*
X0170183Y0318163D01*
X0169246Y0319100D01*
X0165421Y0319100D01*
X0165333Y0319013D01*
X0165246Y0319100D01*
X0161421Y0319100D01*
X0161333Y0319013D01*
X0161246Y0319100D01*
X0157421Y0319100D01*
X0156483Y0318163D01*
X0156483Y0317000D01*
X0155005Y0317000D01*
X0153833Y0315828D01*
X0151333Y0313328D01*
X0151333Y0312313D01*
X0150748Y0311728D01*
X0150333Y0310727D01*
X0150333Y0335256D01*
X0151099Y0333930D01*
X0153612Y0331822D01*
X0156693Y0330700D01*
X0159973Y0330700D01*
X0163055Y0331822D01*
X0165567Y0333930D01*
X0167207Y0336770D01*
X0167207Y0336770D01*
X0167777Y0340000D01*
X0167207Y0343230D01*
X0165567Y0346070D01*
X0163267Y0348000D01*
X0283399Y0348000D01*
X0281099Y0346070D01*
X0279459Y0343230D01*
X0278890Y0340000D01*
X0279459Y0336770D01*
X0281099Y0333930D01*
X0283612Y0331822D01*
X0286693Y0330700D01*
X0289973Y0330700D01*
X0293055Y0331822D01*
X0295567Y0333930D01*
X0296333Y0335256D01*
X0296333Y0259494D01*
X0294388Y0260300D01*
X0292279Y0260300D01*
X0290331Y0259493D01*
X0288840Y0258002D01*
X0288033Y0256054D01*
X0288033Y0253946D01*
X0288448Y0252944D01*
X0288207Y0252702D02*
X0263183Y0252702D01*
X0266662Y0253500D02*
X0288218Y0253500D01*
X0288033Y0254299D02*
X0267461Y0254299D01*
X0268259Y0255097D02*
X0288033Y0255097D01*
X0288033Y0255896D02*
X0269058Y0255896D01*
X0269333Y0256694D02*
X0288298Y0256694D01*
X0288629Y0257493D02*
X0269333Y0257493D01*
X0269333Y0258291D02*
X0289129Y0258291D01*
X0289928Y0259090D02*
X0269333Y0259090D01*
X0269333Y0259888D02*
X0291285Y0259888D01*
X0295381Y0259888D02*
X0296333Y0259888D01*
X0296333Y0260687D02*
X0269333Y0260687D01*
X0269333Y0261485D02*
X0296333Y0261485D01*
X0296333Y0262284D02*
X0269333Y0262284D01*
X0269333Y0263082D02*
X0296333Y0263082D01*
X0296333Y0263881D02*
X0269333Y0263881D01*
X0268982Y0264679D02*
X0296333Y0264679D01*
X0296333Y0265478D02*
X0269140Y0265478D01*
X0269333Y0266276D02*
X0296333Y0266276D01*
X0296333Y0267075D02*
X0270237Y0267075D01*
X0271035Y0267873D02*
X0296333Y0267873D01*
X0296333Y0268672D02*
X0271834Y0268672D01*
X0272632Y0269470D02*
X0296333Y0269470D01*
X0296333Y0270269D02*
X0272833Y0270269D01*
X0273214Y0271068D02*
X0296333Y0271068D01*
X0296333Y0271866D02*
X0273665Y0271866D01*
X0273883Y0272665D02*
X0296333Y0272665D01*
X0296333Y0273463D02*
X0273883Y0273463D01*
X0273612Y0274262D02*
X0296333Y0274262D01*
X0296333Y0275060D02*
X0273087Y0275060D01*
X0271902Y0275859D02*
X0296333Y0275859D01*
X0296333Y0276657D02*
X0266005Y0276657D01*
X0266803Y0275859D02*
X0269765Y0275859D01*
X0268580Y0275060D02*
X0267602Y0275060D01*
X0267333Y0272500D02*
X0264833Y0275000D01*
X0260333Y0275000D01*
X0260333Y0285000D01*
X0253333Y0292000D01*
X0253333Y0312000D01*
X0213333Y0312000D01*
X0191333Y0290000D01*
X0178333Y0290000D01*
X0178333Y0290500D01*
X0163083Y0305750D01*
X0163083Y0314750D01*
X0163333Y0315000D01*
X0159333Y0315000D02*
X0155833Y0315000D01*
X0153333Y0312500D01*
X0153333Y0310000D01*
X0150443Y0310993D02*
X0150333Y0310993D01*
X0150333Y0311792D02*
X0150812Y0311792D01*
X0150333Y0312590D02*
X0151333Y0312590D01*
X0151394Y0313389D02*
X0150333Y0313389D01*
X0150333Y0314187D02*
X0152192Y0314187D01*
X0152991Y0314986D02*
X0150333Y0314986D01*
X0150333Y0315784D02*
X0153789Y0315784D01*
X0154588Y0316583D02*
X0150333Y0316583D01*
X0150333Y0317381D02*
X0156483Y0317381D01*
X0156500Y0318180D02*
X0150333Y0318180D01*
X0150333Y0318978D02*
X0157299Y0318978D01*
X0150333Y0319777D02*
X0191217Y0319777D01*
X0191568Y0319598D02*
X0192441Y0319314D01*
X0193347Y0319171D01*
X0193406Y0319171D01*
X0193406Y0324600D01*
X0194206Y0324600D01*
X0194206Y0325400D01*
X0199635Y0325400D01*
X0199635Y0325459D01*
X0199491Y0326365D01*
X0199208Y0327238D01*
X0198791Y0328055D01*
X0198252Y0328797D01*
X0197603Y0329446D01*
X0196861Y0329986D01*
X0196043Y0330402D01*
X0195171Y0330686D01*
X0194265Y0330829D01*
X0194206Y0330829D01*
X0194206Y0325400D01*
X0193406Y0325400D01*
X0193406Y0330829D01*
X0193347Y0330829D01*
X0192441Y0330686D01*
X0191568Y0330402D01*
X0190751Y0329986D01*
X0190008Y0329446D01*
X0189360Y0328797D01*
X0188820Y0328055D01*
X0188404Y0327238D01*
X0188120Y0326365D01*
X0187977Y0325459D01*
X0187977Y0325400D01*
X0193406Y0325400D01*
X0193406Y0324600D01*
X0187977Y0324600D01*
X0187977Y0324541D01*
X0188120Y0323635D01*
X0188404Y0322762D01*
X0188820Y0321945D01*
X0189360Y0321203D01*
X0190008Y0320554D01*
X0190751Y0320014D01*
X0191568Y0319598D01*
X0193406Y0319777D02*
X0194206Y0319777D01*
X0194206Y0319171D02*
X0194265Y0319171D01*
X0195171Y0319314D01*
X0196043Y0319598D01*
X0196861Y0320014D01*
X0197603Y0320554D01*
X0198252Y0321203D01*
X0198791Y0321945D01*
X0199208Y0322762D01*
X0199491Y0323635D01*
X0199635Y0324541D01*
X0199635Y0324600D01*
X0194206Y0324600D01*
X0194206Y0319171D01*
X0194206Y0320575D02*
X0193406Y0320575D01*
X0193406Y0321374D02*
X0194206Y0321374D01*
X0194206Y0322172D02*
X0193406Y0322172D01*
X0193406Y0322971D02*
X0194206Y0322971D01*
X0194206Y0323769D02*
X0193406Y0323769D01*
X0193406Y0324568D02*
X0194206Y0324568D01*
X0194206Y0325366D02*
X0207462Y0325366D01*
X0207462Y0324568D02*
X0199635Y0324568D01*
X0199513Y0323769D02*
X0207475Y0323769D01*
X0207462Y0323801D02*
X0208380Y0321585D01*
X0210076Y0319889D01*
X0212292Y0318971D01*
X0214690Y0318971D01*
X0216906Y0319889D01*
X0218602Y0321585D01*
X0219520Y0323801D01*
X0219520Y0326199D01*
X0218602Y0328415D01*
X0216906Y0330111D01*
X0214690Y0331029D01*
X0212292Y0331029D01*
X0210076Y0330111D01*
X0208380Y0328415D01*
X0207462Y0326199D01*
X0207462Y0323801D01*
X0207805Y0322971D02*
X0199276Y0322971D01*
X0198907Y0322172D02*
X0208136Y0322172D01*
X0208591Y0321374D02*
X0198376Y0321374D01*
X0197625Y0320575D02*
X0209389Y0320575D01*
X0210346Y0319777D02*
X0196394Y0319777D01*
X0193406Y0325366D02*
X0150333Y0325366D01*
X0150333Y0324568D02*
X0187977Y0324568D01*
X0188099Y0323769D02*
X0150333Y0323769D01*
X0150333Y0322971D02*
X0188336Y0322971D01*
X0188704Y0322172D02*
X0150333Y0322172D01*
X0150333Y0321374D02*
X0189235Y0321374D01*
X0189987Y0320575D02*
X0150333Y0320575D01*
X0150333Y0326165D02*
X0188088Y0326165D01*
X0188315Y0326963D02*
X0150333Y0326963D01*
X0150333Y0327762D02*
X0188671Y0327762D01*
X0189187Y0328560D02*
X0150333Y0328560D01*
X0150333Y0329359D02*
X0189921Y0329359D01*
X0191088Y0330157D02*
X0150333Y0330157D01*
X0150333Y0330956D02*
X0155991Y0330956D01*
X0153797Y0331754D02*
X0150333Y0331754D01*
X0150333Y0332553D02*
X0152740Y0332553D01*
X0153612Y0331822D02*
X0153612Y0331822D01*
X0151789Y0333351D02*
X0150333Y0333351D01*
X0150333Y0334150D02*
X0150972Y0334150D01*
X0151099Y0333930D02*
X0151099Y0333930D01*
X0150511Y0334948D02*
X0150333Y0334948D01*
X0160676Y0330956D02*
X0212115Y0330956D01*
X0210187Y0330157D02*
X0196524Y0330157D01*
X0197691Y0329359D02*
X0209323Y0329359D01*
X0208525Y0328560D02*
X0198424Y0328560D01*
X0198941Y0327762D02*
X0208109Y0327762D01*
X0207778Y0326963D02*
X0199297Y0326963D01*
X0199523Y0326165D02*
X0207462Y0326165D01*
X0212274Y0318978D02*
X0169368Y0318978D01*
X0170166Y0318180D02*
X0251333Y0318180D01*
X0251333Y0318978D02*
X0234393Y0318978D01*
X0234375Y0318971D02*
X0236591Y0319889D01*
X0238287Y0321585D01*
X0239205Y0323801D01*
X0239205Y0326199D01*
X0238287Y0328415D01*
X0236591Y0330111D01*
X0234375Y0331029D01*
X0231977Y0331029D01*
X0229761Y0330111D01*
X0228065Y0328415D01*
X0227147Y0326199D01*
X0227147Y0323801D01*
X0228065Y0321585D01*
X0229761Y0319889D01*
X0231977Y0318971D01*
X0234375Y0318971D01*
X0236321Y0319777D02*
X0249716Y0319777D01*
X0248759Y0320575D02*
X0237278Y0320575D01*
X0238076Y0321374D02*
X0247961Y0321374D01*
X0247506Y0322172D02*
X0238530Y0322172D01*
X0238861Y0322971D02*
X0247176Y0322971D01*
X0246845Y0323769D02*
X0239192Y0323769D01*
X0239205Y0324568D02*
X0246832Y0324568D01*
X0246832Y0325366D02*
X0239205Y0325366D01*
X0239205Y0326165D02*
X0246832Y0326165D01*
X0247148Y0326963D02*
X0238889Y0326963D01*
X0238558Y0327762D02*
X0247479Y0327762D01*
X0247895Y0328560D02*
X0238142Y0328560D01*
X0237343Y0329359D02*
X0248693Y0329359D01*
X0249557Y0330157D02*
X0236480Y0330157D01*
X0234552Y0330956D02*
X0251485Y0330956D01*
X0254237Y0330956D02*
X0285991Y0330956D01*
X0283797Y0331754D02*
X0162870Y0331754D01*
X0163055Y0331822D02*
X0163055Y0331822D01*
X0163926Y0332553D02*
X0282740Y0332553D01*
X0283612Y0331822D02*
X0283612Y0331822D01*
X0281789Y0333351D02*
X0164878Y0333351D01*
X0165567Y0333930D02*
X0165567Y0333930D01*
X0165567Y0333930D01*
X0165694Y0334150D02*
X0280972Y0334150D01*
X0281099Y0333930D02*
X0281099Y0333930D01*
X0280511Y0334948D02*
X0166155Y0334948D01*
X0166617Y0335747D02*
X0280050Y0335747D01*
X0279589Y0336545D02*
X0167078Y0336545D01*
X0167308Y0337344D02*
X0279358Y0337344D01*
X0279459Y0336770D02*
X0279459Y0336770D01*
X0279217Y0338142D02*
X0167449Y0338142D01*
X0167590Y0338941D02*
X0279077Y0338941D01*
X0278936Y0339739D02*
X0167731Y0339739D01*
X0167777Y0340000D02*
X0167777Y0340000D01*
X0167682Y0340538D02*
X0278985Y0340538D01*
X0278890Y0340000D02*
X0278890Y0340000D01*
X0279126Y0341337D02*
X0167541Y0341337D01*
X0167400Y0342135D02*
X0279266Y0342135D01*
X0279407Y0342934D02*
X0167260Y0342934D01*
X0167207Y0343230D02*
X0167207Y0343230D01*
X0166917Y0343732D02*
X0279749Y0343732D01*
X0279459Y0343230D02*
X0279459Y0343230D01*
X0280210Y0344531D02*
X0166456Y0344531D01*
X0165995Y0345329D02*
X0280671Y0345329D01*
X0281099Y0346070D02*
X0281099Y0346070D01*
X0281099Y0346070D01*
X0281168Y0346128D02*
X0165499Y0346128D01*
X0165567Y0346070D02*
X0165567Y0346070D01*
X0164547Y0346926D02*
X0282119Y0346926D01*
X0283071Y0347725D02*
X0163596Y0347725D01*
X0193406Y0330157D02*
X0194206Y0330157D01*
X0194206Y0329359D02*
X0193406Y0329359D01*
X0193406Y0328560D02*
X0194206Y0328560D01*
X0194206Y0327762D02*
X0193406Y0327762D01*
X0193406Y0326963D02*
X0194206Y0326963D01*
X0194206Y0326165D02*
X0193406Y0326165D01*
X0208699Y0310195D02*
X0169452Y0310195D01*
X0169339Y0310993D02*
X0209498Y0310993D01*
X0210296Y0311792D02*
X0170138Y0311792D01*
X0170183Y0312590D02*
X0211095Y0312590D01*
X0211894Y0313389D02*
X0170183Y0313389D01*
X0170183Y0314187D02*
X0251333Y0314187D01*
X0251333Y0314986D02*
X0170183Y0314986D01*
X0170183Y0315784D02*
X0251333Y0315784D01*
X0251333Y0316583D02*
X0170183Y0316583D01*
X0170183Y0317381D02*
X0251333Y0317381D01*
X0255333Y0317381D02*
X0296333Y0317381D01*
X0296333Y0316583D02*
X0255333Y0316583D01*
X0255333Y0315784D02*
X0296333Y0315784D01*
X0296333Y0314986D02*
X0255333Y0314986D01*
X0255333Y0314187D02*
X0296333Y0314187D01*
X0296333Y0313389D02*
X0255333Y0313389D01*
X0255333Y0312590D02*
X0296333Y0312590D01*
X0296333Y0311792D02*
X0255333Y0311792D01*
X0255333Y0310993D02*
X0296333Y0310993D01*
X0296333Y0310195D02*
X0255333Y0310195D01*
X0255333Y0309396D02*
X0296333Y0309396D01*
X0296333Y0308598D02*
X0255333Y0308598D01*
X0255333Y0307799D02*
X0296333Y0307799D01*
X0296333Y0307001D02*
X0255333Y0307001D01*
X0255333Y0306202D02*
X0296333Y0306202D01*
X0296333Y0305403D02*
X0255333Y0305403D01*
X0255333Y0304605D02*
X0296333Y0304605D01*
X0296333Y0303806D02*
X0255333Y0303806D01*
X0255333Y0303008D02*
X0296333Y0303008D01*
X0296333Y0302209D02*
X0255333Y0302209D01*
X0255333Y0301411D02*
X0296333Y0301411D01*
X0296333Y0300612D02*
X0255333Y0300612D01*
X0255333Y0299814D02*
X0296333Y0299814D01*
X0296333Y0299015D02*
X0255333Y0299015D01*
X0255333Y0298217D02*
X0296333Y0298217D01*
X0296333Y0297418D02*
X0255333Y0297418D01*
X0255333Y0296620D02*
X0296333Y0296620D01*
X0296333Y0295821D02*
X0255333Y0295821D01*
X0255333Y0295023D02*
X0296333Y0295023D01*
X0296333Y0294224D02*
X0255333Y0294224D01*
X0255333Y0293426D02*
X0296333Y0293426D01*
X0296333Y0292627D02*
X0255534Y0292627D01*
X0256333Y0291829D02*
X0296333Y0291829D01*
X0296333Y0291030D02*
X0257131Y0291030D01*
X0257930Y0290232D02*
X0296333Y0290232D01*
X0296333Y0289433D02*
X0258728Y0289433D01*
X0259527Y0288635D02*
X0296333Y0288635D01*
X0296333Y0287836D02*
X0260325Y0287836D01*
X0261124Y0287038D02*
X0296333Y0287038D01*
X0296333Y0286239D02*
X0261923Y0286239D01*
X0262333Y0285441D02*
X0296333Y0285441D01*
X0296333Y0284642D02*
X0262333Y0284642D01*
X0262333Y0283844D02*
X0296333Y0283844D01*
X0296333Y0283045D02*
X0262333Y0283045D01*
X0262333Y0282247D02*
X0296333Y0282247D01*
X0296333Y0281448D02*
X0262333Y0281448D01*
X0262333Y0280650D02*
X0296333Y0280650D01*
X0296333Y0279851D02*
X0262333Y0279851D01*
X0262333Y0279053D02*
X0296333Y0279053D01*
X0296333Y0278254D02*
X0263092Y0278254D01*
X0263183Y0277456D02*
X0296333Y0277456D01*
X0270833Y0273000D02*
X0270833Y0270500D01*
X0269333Y0269000D01*
X0267333Y0269000D01*
X0267333Y0272500D01*
X0267333Y0269000D02*
X0267333Y0266500D01*
X0265833Y0265000D01*
X0267333Y0263500D01*
X0267333Y0257000D01*
X0265833Y0255500D01*
X0260833Y0255500D01*
X0260333Y0255000D01*
X0256333Y0255000D02*
X0252833Y0258500D01*
X0251333Y0258500D01*
X0256333Y0265000D02*
X0253333Y0268000D01*
X0250833Y0268000D01*
X0256333Y0275000D02*
X0253333Y0278000D01*
X0250833Y0278000D01*
X0260333Y0265000D02*
X0265833Y0265000D01*
X0217765Y0243120D02*
X0150333Y0243120D01*
X0150333Y0243918D02*
X0216966Y0243918D01*
X0216168Y0244717D02*
X0150333Y0244717D01*
X0150333Y0245515D02*
X0215369Y0245515D01*
X0214571Y0246314D02*
X0150333Y0246314D01*
X0150333Y0247112D02*
X0213772Y0247112D01*
X0212974Y0247911D02*
X0150333Y0247911D01*
X0150333Y0248709D02*
X0212175Y0248709D01*
X0211377Y0249508D02*
X0150333Y0249508D01*
X0150333Y0250306D02*
X0150816Y0250306D01*
X0155851Y0250306D02*
X0210578Y0250306D01*
X0209780Y0251105D02*
X0156933Y0251105D01*
X0157732Y0251903D02*
X0208981Y0251903D01*
X0208183Y0252702D02*
X0158118Y0252702D01*
X0153333Y0255000D02*
X0179826Y0255000D01*
X0178333Y0280000D02*
X0178333Y0290000D01*
X0179034Y0292627D02*
X0191132Y0292627D01*
X0191931Y0293426D02*
X0178236Y0293426D01*
X0177437Y0294224D02*
X0192729Y0294224D01*
X0193528Y0295023D02*
X0176639Y0295023D01*
X0175840Y0295821D02*
X0194326Y0295821D01*
X0195125Y0296620D02*
X0175042Y0296620D01*
X0174243Y0297418D02*
X0195923Y0297418D01*
X0196722Y0298217D02*
X0173445Y0298217D01*
X0172646Y0299015D02*
X0197520Y0299015D01*
X0198319Y0299814D02*
X0171848Y0299814D01*
X0171049Y0300612D02*
X0199117Y0300612D01*
X0199916Y0301411D02*
X0170251Y0301411D01*
X0169452Y0302209D02*
X0200714Y0302209D01*
X0201513Y0303008D02*
X0168654Y0303008D01*
X0167855Y0303806D02*
X0202311Y0303806D01*
X0203110Y0304605D02*
X0167057Y0304605D01*
X0169035Y0305403D02*
X0203908Y0305403D01*
X0204707Y0306202D02*
X0169849Y0306202D01*
X0170221Y0307001D02*
X0205505Y0307001D01*
X0206304Y0307799D02*
X0170383Y0307799D01*
X0170383Y0308598D02*
X0207102Y0308598D01*
X0207901Y0309396D02*
X0170056Y0309396D01*
X0167333Y0308000D02*
X0167333Y0315000D01*
X0214708Y0318978D02*
X0231959Y0318978D01*
X0230031Y0319777D02*
X0216636Y0319777D01*
X0217592Y0320575D02*
X0229074Y0320575D01*
X0228276Y0321374D02*
X0218391Y0321374D01*
X0218845Y0322172D02*
X0227821Y0322172D01*
X0227491Y0322971D02*
X0219176Y0322971D01*
X0219507Y0323769D02*
X0227160Y0323769D01*
X0227147Y0324568D02*
X0219520Y0324568D01*
X0219520Y0325366D02*
X0227147Y0325366D01*
X0227147Y0326165D02*
X0219520Y0326165D01*
X0219203Y0326963D02*
X0227463Y0326963D01*
X0227794Y0327762D02*
X0218873Y0327762D01*
X0218457Y0328560D02*
X0228210Y0328560D01*
X0229008Y0329359D02*
X0217658Y0329359D01*
X0216795Y0330157D02*
X0229872Y0330157D01*
X0231800Y0330956D02*
X0214867Y0330956D01*
X0252861Y0325000D02*
X0253333Y0324528D01*
X0253333Y0312000D01*
X0255333Y0318180D02*
X0296333Y0318180D01*
X0296333Y0318978D02*
X0255333Y0318978D01*
X0256006Y0319777D02*
X0296333Y0319777D01*
X0296333Y0320575D02*
X0256963Y0320575D01*
X0257761Y0321374D02*
X0296333Y0321374D01*
X0296333Y0322172D02*
X0258215Y0322172D01*
X0258546Y0322971D02*
X0296333Y0322971D01*
X0296333Y0323769D02*
X0258877Y0323769D01*
X0258890Y0324568D02*
X0296333Y0324568D01*
X0296333Y0325366D02*
X0258890Y0325366D01*
X0258890Y0326165D02*
X0296333Y0326165D01*
X0296333Y0326963D02*
X0258574Y0326963D01*
X0258243Y0327762D02*
X0296333Y0327762D01*
X0296333Y0328560D02*
X0257827Y0328560D01*
X0257029Y0329359D02*
X0296333Y0329359D01*
X0296333Y0330157D02*
X0256165Y0330157D01*
X0290676Y0330956D02*
X0296333Y0330956D01*
X0296333Y0331754D02*
X0292870Y0331754D01*
X0293926Y0332553D02*
X0296333Y0332553D01*
X0296333Y0333351D02*
X0294878Y0333351D01*
X0295567Y0333930D02*
X0295567Y0333930D01*
X0295567Y0333930D01*
X0295694Y0334150D02*
X0296333Y0334150D01*
X0296333Y0334948D02*
X0296155Y0334948D01*
X0296176Y0220761D02*
X0296333Y0220761D01*
X0296333Y0219963D02*
X0294131Y0219963D01*
X0292540Y0218366D02*
X0296333Y0218366D01*
X0296333Y0219164D02*
X0290346Y0219164D01*
X0293783Y0217567D02*
X0296333Y0217567D01*
X0296333Y0216769D02*
X0294735Y0216769D01*
X0295625Y0215970D02*
X0296333Y0215970D01*
X0296333Y0215172D02*
X0296086Y0215172D01*
X0282928Y0202396D02*
X0163739Y0202396D01*
X0164691Y0203194D02*
X0281976Y0203194D01*
D16*
X0251333Y0258500D03*
X0250833Y0268000D03*
X0250833Y0278000D03*
X0270833Y0273000D03*
X0274833Y0264000D03*
X0210333Y0265000D03*
X0200023Y0263690D03*
X0197291Y0267457D03*
X0192833Y0268007D03*
X0178333Y0280000D03*
X0173833Y0273000D03*
X0173333Y0269000D03*
X0167333Y0308000D03*
X0153333Y0310000D03*
M02*
