%
M48
M72
T01C0.0150
T02C0.0400
T03C0.0591
T04C0.1300
%
T01
X25133Y25850
X25083Y26800
X25083Y27800
X27083Y27300
X27483Y26400
X21033Y26500
X20002Y26369
X19729Y26746
X19283Y26801
X17833Y28000
X17383Y27300
X17333Y26900
X16733Y30800
X15333Y31000
T02
X15333Y25500
X29333Y25500
X29333Y24500
X29333Y23500
X29333Y22500
T03
X25286Y22500
X23318Y22500
X21349Y22500
X19381Y22500
X19381Y32500
X21349Y32500
X23318Y32500
X25286Y32500
T04
X15833Y21000
X28833Y21000
X28833Y34000
X15833Y34000
M30
