G75*
%MOIN*%
%OFA0B0*%
%FSLAX25Y25*%
%IPPOS*%
%LPD*%
%AMOC8*
5,1,8,0,0,1.08239X$1,22.5*
%
%ADD10C,0.02500*%
%ADD11R,0.07874X0.04724*%
%ADD12R,0.05315X0.02362*%
%ADD13C,0.07400*%
%ADD14R,0.04331X0.03937*%
%ADD15R,0.03937X0.04331*%
%ADD16R,0.05500X0.02550*%
%ADD17C,0.08858*%
%ADD18C,0.00600*%
%ADD19C,0.00800*%
%ADD20C,0.02900*%
D10*
X0279833Y0203500D03*
X0151333Y0332000D03*
D11*
X0153865Y0286024D03*
X0153865Y0263976D03*
X0292802Y0263976D03*
X0292802Y0286024D03*
D12*
X0278333Y0280906D03*
X0278333Y0276969D03*
X0278333Y0273031D03*
X0278333Y0269094D03*
X0168333Y0269094D03*
X0168333Y0273031D03*
X0168333Y0276969D03*
X0168333Y0280906D03*
D13*
X0153333Y0255000D03*
X0293333Y0255000D03*
X0293333Y0245000D03*
X0293333Y0235000D03*
X0293333Y0225000D03*
D14*
X0261680Y0255000D03*
X0254987Y0255000D03*
X0254987Y0265000D03*
X0261680Y0265000D03*
X0261680Y0275000D03*
X0254987Y0275000D03*
X0196680Y0260000D03*
X0189987Y0260000D03*
D15*
X0163333Y0296654D03*
X0163333Y0303346D03*
X0153333Y0303346D03*
X0153333Y0296654D03*
D16*
X0205026Y0292500D03*
X0205026Y0287500D03*
X0205026Y0282500D03*
X0205026Y0277500D03*
X0205026Y0272500D03*
X0205026Y0267500D03*
X0205026Y0262500D03*
X0205026Y0257500D03*
X0241640Y0257500D03*
X0241640Y0262500D03*
X0241640Y0267500D03*
X0241640Y0272500D03*
X0241640Y0277500D03*
X0241640Y0282500D03*
X0241640Y0287500D03*
X0241640Y0292500D03*
D17*
X0233176Y0325000D03*
X0252861Y0325000D03*
X0213491Y0325000D03*
X0193806Y0325000D03*
X0193806Y0225000D03*
X0213491Y0225000D03*
X0233176Y0225000D03*
X0252861Y0225000D03*
D18*
X0197180Y0260500D02*
X0196680Y0260000D01*
D19*
X0165567Y0203930D02*
X0163267Y0202000D01*
X0277370Y0202000D01*
X0276983Y0202933D01*
X0276983Y0204067D01*
X0277417Y0205114D01*
X0278219Y0205916D01*
X0279266Y0206350D01*
X0279702Y0206350D01*
X0279459Y0206770D01*
X0279459Y0206770D01*
X0278890Y0210000D01*
X0278890Y0210000D01*
X0279459Y0213230D01*
X0279459Y0213230D01*
X0281099Y0216070D01*
X0281099Y0216070D01*
X0281099Y0216070D01*
X0283612Y0218178D01*
X0283612Y0218178D01*
X0286693Y0219300D01*
X0289973Y0219300D01*
X0293055Y0218178D01*
X0293055Y0218178D01*
X0295567Y0216070D01*
X0295567Y0216070D01*
X0296333Y0214744D01*
X0296333Y0220876D01*
X0296006Y0220638D01*
X0295291Y0220274D01*
X0294528Y0220026D01*
X0293735Y0219900D01*
X0293733Y0219900D01*
X0293733Y0224600D01*
X0292933Y0224600D01*
X0288233Y0224600D01*
X0288233Y0224599D01*
X0288359Y0223806D01*
X0288607Y0223042D01*
X0288971Y0222327D01*
X0289443Y0221678D01*
X0290011Y0221110D01*
X0290660Y0220638D01*
X0291376Y0220274D01*
X0292139Y0220026D01*
X0292932Y0219900D01*
X0292933Y0219900D01*
X0292933Y0224600D01*
X0292933Y0225400D01*
X0288233Y0225400D01*
X0288233Y0225401D01*
X0288359Y0226194D01*
X0288607Y0226958D01*
X0288971Y0227673D01*
X0289443Y0228322D01*
X0290011Y0228890D01*
X0290660Y0229362D01*
X0291376Y0229726D01*
X0291846Y0229879D01*
X0290331Y0230507D01*
X0288840Y0231998D01*
X0288425Y0233000D01*
X0276505Y0233000D01*
X0270005Y0239500D01*
X0268833Y0240672D01*
X0268833Y0270687D01*
X0268248Y0271272D01*
X0267783Y0272393D01*
X0267783Y0273607D01*
X0268248Y0274728D01*
X0269106Y0275586D01*
X0270227Y0276050D01*
X0271440Y0276050D01*
X0272561Y0275586D01*
X0273115Y0275031D01*
X0274169Y0275031D01*
X0274076Y0275125D01*
X0274076Y0278812D01*
X0274201Y0278937D01*
X0274076Y0279062D01*
X0274076Y0282749D01*
X0275013Y0283687D01*
X0281654Y0283687D01*
X0282435Y0282905D01*
X0284756Y0282905D01*
X0288162Y0279500D01*
X0289333Y0278328D01*
X0289333Y0267939D01*
X0296333Y0267939D01*
X0296333Y0282061D01*
X0288202Y0282061D01*
X0287265Y0282999D01*
X0287265Y0289049D01*
X0288202Y0289986D01*
X0296333Y0289986D01*
X0296333Y0335256D01*
X0295567Y0333930D01*
X0295567Y0333930D01*
X0295567Y0333930D01*
X0293055Y0331822D01*
X0293055Y0331822D01*
X0289973Y0330700D01*
X0286693Y0330700D01*
X0283612Y0331822D01*
X0283612Y0331822D01*
X0281099Y0333930D01*
X0281099Y0333930D01*
X0279459Y0336770D01*
X0279459Y0336770D01*
X0278890Y0340000D01*
X0278890Y0340000D01*
X0279459Y0343230D01*
X0281099Y0346070D01*
X0281099Y0346070D01*
X0283399Y0348000D01*
X0163267Y0348000D01*
X0165567Y0346070D01*
X0165567Y0346070D01*
X0167207Y0343230D01*
X0167207Y0343230D01*
X0167777Y0340000D01*
X0167207Y0336770D01*
X0167207Y0336770D01*
X0165567Y0333930D01*
X0165567Y0333930D01*
X0163055Y0331822D01*
X0163055Y0331822D01*
X0159973Y0330700D01*
X0156693Y0330700D01*
X0154183Y0331614D01*
X0154183Y0331433D01*
X0153749Y0330386D01*
X0152948Y0329584D01*
X0151900Y0329150D01*
X0150766Y0329150D01*
X0150333Y0329329D01*
X0150333Y0310727D01*
X0150748Y0311728D01*
X0151606Y0312586D01*
X0152727Y0313050D01*
X0153940Y0313050D01*
X0155061Y0312586D01*
X0155919Y0311728D01*
X0156383Y0310607D01*
X0156383Y0309393D01*
X0155919Y0308272D01*
X0155333Y0307687D01*
X0155333Y0307112D01*
X0155965Y0307112D01*
X0156902Y0306175D01*
X0156902Y0300518D01*
X0156383Y0300000D01*
X0156902Y0299482D01*
X0156902Y0293825D01*
X0156576Y0293500D01*
X0158162Y0293500D01*
X0159333Y0292328D01*
X0160162Y0291500D01*
X0160162Y0291500D01*
X0161333Y0290328D01*
X0161333Y0275328D01*
X0161333Y0275328D01*
X0161333Y0292888D01*
X0160702Y0292888D01*
X0159765Y0293825D01*
X0159765Y0299482D01*
X0160283Y0300000D01*
X0159765Y0300518D01*
X0159765Y0306175D01*
X0160702Y0307112D01*
X0163617Y0307112D01*
X0164283Y0307778D01*
X0164283Y0308607D01*
X0164748Y0309728D01*
X0165606Y0310586D01*
X0166727Y0311050D01*
X0167940Y0311050D01*
X0169061Y0310586D01*
X0169919Y0309728D01*
X0170383Y0308607D01*
X0170383Y0307393D01*
X0169919Y0306272D01*
X0169061Y0305414D01*
X0167940Y0304950D01*
X0167112Y0304950D01*
X0166902Y0304740D01*
X0166902Y0300518D01*
X0166383Y0300000D01*
X0166902Y0299482D01*
X0166902Y0293825D01*
X0165965Y0292888D01*
X0165333Y0292888D01*
X0165333Y0283444D01*
X0165492Y0283487D01*
X0168143Y0283487D01*
X0168143Y0281096D01*
X0168524Y0281096D01*
X0172391Y0281096D01*
X0172391Y0282271D01*
X0172295Y0282627D01*
X0172111Y0282946D01*
X0171850Y0283207D01*
X0171531Y0283391D01*
X0171175Y0283487D01*
X0168524Y0283487D01*
X0168524Y0281096D01*
X0168524Y0280715D01*
X0172391Y0280715D01*
X0172391Y0279540D01*
X0172295Y0279184D01*
X0172267Y0279136D01*
X0172435Y0278968D01*
X0175459Y0278968D01*
X0175283Y0279393D01*
X0175283Y0280607D01*
X0175748Y0281728D01*
X0176606Y0282586D01*
X0177727Y0283050D01*
X0178940Y0283050D01*
X0180061Y0282586D01*
X0180919Y0281728D01*
X0181383Y0280607D01*
X0181383Y0279393D01*
X0181012Y0278496D01*
X0181711Y0277797D01*
X0190109Y0269399D01*
X0190248Y0269735D01*
X0191106Y0270593D01*
X0192227Y0271057D01*
X0193055Y0271057D01*
X0196498Y0274500D01*
X0200738Y0274500D01*
X0201239Y0275000D01*
X0200676Y0275562D01*
X0200676Y0279438D01*
X0201239Y0280000D01*
X0200676Y0280562D01*
X0200676Y0284438D01*
X0201239Y0285000D01*
X0200676Y0285562D01*
X0200676Y0289438D01*
X0201239Y0290000D01*
X0200676Y0290562D01*
X0200676Y0294438D01*
X0201613Y0295375D01*
X0208439Y0295375D01*
X0209376Y0294438D01*
X0209376Y0290562D01*
X0208814Y0290000D01*
X0209376Y0289438D01*
X0209376Y0285562D01*
X0208814Y0285000D01*
X0209314Y0284500D01*
X0216662Y0284500D01*
X0217833Y0283328D01*
X0217833Y0283328D01*
X0234004Y0267157D01*
X0234004Y0267157D01*
X0235176Y0265986D01*
X0235176Y0230697D01*
X0236591Y0230111D01*
X0238287Y0228415D01*
X0239205Y0226199D01*
X0239205Y0223801D01*
X0238287Y0221585D01*
X0236591Y0219889D01*
X0234375Y0218971D01*
X0231977Y0218971D01*
X0229761Y0219889D01*
X0228065Y0221585D01*
X0227147Y0223801D01*
X0227147Y0226199D01*
X0228065Y0228415D01*
X0229761Y0230111D01*
X0231176Y0230697D01*
X0231176Y0264329D01*
X0215005Y0280500D01*
X0209314Y0280500D01*
X0208814Y0280000D01*
X0209314Y0279500D01*
X0210162Y0279500D01*
X0211333Y0278328D01*
X0215491Y0274171D01*
X0215491Y0230697D01*
X0216906Y0230111D01*
X0218602Y0228415D01*
X0219520Y0226199D01*
X0219520Y0223801D01*
X0218602Y0221585D01*
X0216906Y0219889D01*
X0214690Y0218971D01*
X0212292Y0218971D01*
X0210076Y0219889D01*
X0208380Y0221585D01*
X0207462Y0223801D01*
X0207462Y0226199D01*
X0208380Y0228415D01*
X0210076Y0230111D01*
X0211491Y0230697D01*
X0211491Y0262178D01*
X0210940Y0261950D01*
X0209727Y0261950D01*
X0209376Y0262095D01*
X0209376Y0260562D01*
X0208814Y0260000D01*
X0209376Y0259438D01*
X0209376Y0255562D01*
X0208439Y0254625D01*
X0201613Y0254625D01*
X0200739Y0255500D01*
X0200008Y0255500D01*
X0195806Y0251298D01*
X0195806Y0230697D01*
X0197221Y0230111D01*
X0198917Y0228415D01*
X0199835Y0226199D01*
X0199835Y0223801D01*
X0198917Y0221585D01*
X0197221Y0219889D01*
X0195005Y0218971D01*
X0192606Y0218971D01*
X0190391Y0219889D01*
X0188695Y0221585D01*
X0187777Y0223801D01*
X0187777Y0226199D01*
X0188695Y0228415D01*
X0190391Y0230111D01*
X0191806Y0230697D01*
X0191806Y0252954D01*
X0195283Y0256431D01*
X0193852Y0256431D01*
X0193192Y0257091D01*
X0193012Y0256911D01*
X0192693Y0256727D01*
X0192337Y0256631D01*
X0190387Y0256631D01*
X0190387Y0259600D01*
X0189587Y0259600D01*
X0189587Y0256631D01*
X0187637Y0256631D01*
X0187281Y0256727D01*
X0186962Y0256911D01*
X0186701Y0257172D01*
X0186517Y0257491D01*
X0186422Y0257847D01*
X0186422Y0259600D01*
X0189587Y0259600D01*
X0189587Y0260400D01*
X0189587Y0263368D01*
X0187637Y0263368D01*
X0187281Y0263273D01*
X0186962Y0263089D01*
X0186701Y0262828D01*
X0186517Y0262509D01*
X0186422Y0262153D01*
X0186422Y0260400D01*
X0189587Y0260400D01*
X0190387Y0260400D01*
X0190387Y0263368D01*
X0190483Y0263368D01*
X0178883Y0274969D01*
X0176178Y0274969D01*
X0176419Y0274728D01*
X0176883Y0273607D01*
X0176883Y0272393D01*
X0176419Y0271272D01*
X0175897Y0270750D01*
X0175919Y0270728D01*
X0176383Y0269607D01*
X0176383Y0268393D01*
X0175919Y0267272D01*
X0175061Y0266414D01*
X0173940Y0265950D01*
X0172727Y0265950D01*
X0171711Y0266371D01*
X0171654Y0266313D01*
X0165013Y0266313D01*
X0164232Y0267094D01*
X0163910Y0267094D01*
X0158505Y0272500D01*
X0157333Y0273672D01*
X0157333Y0282061D01*
X0150333Y0282061D01*
X0150333Y0267939D01*
X0158465Y0267939D01*
X0159402Y0267001D01*
X0159402Y0260951D01*
X0158465Y0260014D01*
X0155078Y0260014D01*
X0156336Y0259493D01*
X0157826Y0258002D01*
X0158633Y0256054D01*
X0158633Y0253946D01*
X0157826Y0251998D01*
X0156336Y0250507D01*
X0154388Y0249700D01*
X0152279Y0249700D01*
X0150333Y0250506D01*
X0150333Y0214744D01*
X0151099Y0216070D01*
X0151099Y0216070D01*
X0151099Y0216070D01*
X0153612Y0218178D01*
X0153612Y0218178D01*
X0156693Y0219300D01*
X0159973Y0219300D01*
X0163055Y0218178D01*
X0163055Y0218178D01*
X0165567Y0216070D01*
X0165567Y0216070D01*
X0167207Y0213230D01*
X0167207Y0213230D01*
X0167777Y0210000D01*
X0167777Y0210000D01*
X0167207Y0206770D01*
X0167207Y0206770D01*
X0165567Y0203930D01*
X0165567Y0203930D01*
X0165567Y0203930D01*
X0165604Y0203993D02*
X0276983Y0203993D01*
X0276983Y0203194D02*
X0164691Y0203194D01*
X0163739Y0202396D02*
X0277206Y0202396D01*
X0277283Y0204791D02*
X0166065Y0204791D01*
X0166526Y0205590D02*
X0277892Y0205590D01*
X0279680Y0206388D02*
X0166987Y0206388D01*
X0167281Y0207187D02*
X0279386Y0207187D01*
X0279245Y0207985D02*
X0167421Y0207985D01*
X0167562Y0208784D02*
X0279104Y0208784D01*
X0278964Y0209582D02*
X0167703Y0209582D01*
X0167710Y0210381D02*
X0278957Y0210381D01*
X0279098Y0211179D02*
X0167569Y0211179D01*
X0167428Y0211978D02*
X0279239Y0211978D01*
X0279379Y0212776D02*
X0167287Y0212776D01*
X0167008Y0213575D02*
X0279658Y0213575D01*
X0280120Y0214373D02*
X0166547Y0214373D01*
X0166086Y0215172D02*
X0280581Y0215172D01*
X0281042Y0215970D02*
X0165625Y0215970D01*
X0164735Y0216769D02*
X0281932Y0216769D01*
X0282883Y0217567D02*
X0163783Y0217567D01*
X0162540Y0218366D02*
X0284127Y0218366D01*
X0286321Y0219164D02*
X0234842Y0219164D01*
X0236665Y0219963D02*
X0249907Y0219963D01*
X0249806Y0220014D02*
X0250623Y0219598D01*
X0251496Y0219314D01*
X0252402Y0219171D01*
X0252461Y0219171D01*
X0252461Y0224600D01*
X0253261Y0224600D01*
X0253261Y0225400D01*
X0258690Y0225400D01*
X0258690Y0225459D01*
X0258546Y0226365D01*
X0258263Y0227238D01*
X0257846Y0228055D01*
X0257307Y0228797D01*
X0256658Y0229446D01*
X0255916Y0229986D01*
X0255098Y0230402D01*
X0254226Y0230686D01*
X0253320Y0230829D01*
X0253261Y0230829D01*
X0253261Y0225400D01*
X0252461Y0225400D01*
X0252461Y0230829D01*
X0252402Y0230829D01*
X0251496Y0230686D01*
X0250623Y0230402D01*
X0249806Y0229986D01*
X0249063Y0229446D01*
X0248415Y0228797D01*
X0247875Y0228055D01*
X0247459Y0227238D01*
X0247175Y0226365D01*
X0247032Y0225459D01*
X0247032Y0225400D01*
X0252461Y0225400D01*
X0252461Y0224600D01*
X0247032Y0224600D01*
X0247032Y0224541D01*
X0247175Y0223635D01*
X0247459Y0222762D01*
X0247875Y0221945D01*
X0248415Y0221203D01*
X0249063Y0220554D01*
X0249806Y0220014D01*
X0248856Y0220761D02*
X0237464Y0220761D01*
X0238262Y0221560D02*
X0248155Y0221560D01*
X0247665Y0222358D02*
X0238608Y0222358D01*
X0238938Y0223157D02*
X0247331Y0223157D01*
X0247125Y0223955D02*
X0239205Y0223955D01*
X0239205Y0224754D02*
X0252461Y0224754D01*
X0252461Y0225552D02*
X0253261Y0225552D01*
X0253261Y0224754D02*
X0292933Y0224754D01*
X0292933Y0223955D02*
X0293733Y0223955D01*
X0293733Y0223157D02*
X0292933Y0223157D01*
X0292933Y0222358D02*
X0293733Y0222358D01*
X0293733Y0221560D02*
X0292933Y0221560D01*
X0292933Y0220761D02*
X0293733Y0220761D01*
X0293733Y0219963D02*
X0292933Y0219963D01*
X0292536Y0219963D02*
X0255815Y0219963D01*
X0255916Y0220014D02*
X0256658Y0220554D01*
X0257307Y0221203D01*
X0257846Y0221945D01*
X0258263Y0222762D01*
X0258546Y0223635D01*
X0258690Y0224541D01*
X0258690Y0224600D01*
X0253261Y0224600D01*
X0253261Y0219171D01*
X0253320Y0219171D01*
X0254226Y0219314D01*
X0255098Y0219598D01*
X0255916Y0220014D01*
X0256866Y0220761D02*
X0290491Y0220761D01*
X0289561Y0221560D02*
X0257567Y0221560D01*
X0258057Y0222358D02*
X0288955Y0222358D01*
X0288570Y0223157D02*
X0258391Y0223157D01*
X0258597Y0223955D02*
X0288335Y0223955D01*
X0288257Y0225552D02*
X0258675Y0225552D01*
X0258549Y0226351D02*
X0288410Y0226351D01*
X0288705Y0227149D02*
X0258292Y0227149D01*
X0257901Y0227948D02*
X0289171Y0227948D01*
X0289867Y0228746D02*
X0257344Y0228746D01*
X0256522Y0229545D02*
X0291020Y0229545D01*
X0290726Y0230343D02*
X0255214Y0230343D01*
X0253261Y0230343D02*
X0252461Y0230343D01*
X0252461Y0229545D02*
X0253261Y0229545D01*
X0253261Y0228746D02*
X0252461Y0228746D01*
X0252461Y0227948D02*
X0253261Y0227948D01*
X0253261Y0227149D02*
X0252461Y0227149D01*
X0252461Y0226351D02*
X0253261Y0226351D01*
X0253261Y0223955D02*
X0252461Y0223955D01*
X0252461Y0223157D02*
X0253261Y0223157D01*
X0253261Y0222358D02*
X0252461Y0222358D01*
X0252461Y0221560D02*
X0253261Y0221560D01*
X0253261Y0220761D02*
X0252461Y0220761D01*
X0252461Y0219963D02*
X0253261Y0219963D01*
X0247047Y0225552D02*
X0239205Y0225552D01*
X0239142Y0226351D02*
X0247173Y0226351D01*
X0247430Y0227149D02*
X0238811Y0227149D01*
X0238481Y0227948D02*
X0247821Y0227948D01*
X0248378Y0228746D02*
X0237956Y0228746D01*
X0237157Y0229545D02*
X0249199Y0229545D01*
X0250508Y0230343D02*
X0236031Y0230343D01*
X0235176Y0231142D02*
X0289696Y0231142D01*
X0288898Y0231940D02*
X0235176Y0231940D01*
X0235176Y0232739D02*
X0288533Y0232739D01*
X0288425Y0237000D02*
X0278162Y0237000D01*
X0272833Y0242328D01*
X0272833Y0270687D01*
X0273178Y0271031D01*
X0274232Y0271031D01*
X0274399Y0270864D01*
X0274371Y0270816D01*
X0274276Y0270460D01*
X0274276Y0269285D01*
X0278143Y0269285D01*
X0278143Y0268904D01*
X0278524Y0268904D01*
X0278524Y0269285D01*
X0282391Y0269285D01*
X0282391Y0270460D01*
X0282295Y0270816D01*
X0282267Y0270864D01*
X0282591Y0271188D01*
X0282591Y0274414D01*
X0283333Y0273672D01*
X0283333Y0246172D01*
X0284505Y0245000D01*
X0285333Y0244172D01*
X0285333Y0244172D01*
X0286505Y0243000D01*
X0288425Y0243000D01*
X0288840Y0241998D01*
X0290331Y0240507D01*
X0291555Y0240000D01*
X0290331Y0239493D01*
X0288840Y0238002D01*
X0288425Y0237000D01*
X0288645Y0237530D02*
X0277632Y0237530D01*
X0276833Y0238329D02*
X0289167Y0238329D01*
X0289965Y0239127D02*
X0276035Y0239127D01*
X0275236Y0239926D02*
X0291375Y0239926D01*
X0290114Y0240724D02*
X0274438Y0240724D01*
X0273639Y0241523D02*
X0289315Y0241523D01*
X0288706Y0242321D02*
X0272841Y0242321D01*
X0272833Y0243120D02*
X0286385Y0243120D01*
X0285587Y0243918D02*
X0272833Y0243918D01*
X0272833Y0244717D02*
X0284788Y0244717D01*
X0284505Y0245000D02*
X0284505Y0245000D01*
X0283990Y0245515D02*
X0272833Y0245515D01*
X0272833Y0246314D02*
X0283333Y0246314D01*
X0283333Y0247112D02*
X0272833Y0247112D01*
X0272833Y0247911D02*
X0283333Y0247911D01*
X0283333Y0248709D02*
X0272833Y0248709D01*
X0272833Y0249508D02*
X0283333Y0249508D01*
X0283333Y0250306D02*
X0272833Y0250306D01*
X0272833Y0251105D02*
X0283333Y0251105D01*
X0283333Y0251903D02*
X0272833Y0251903D01*
X0272833Y0252702D02*
X0283333Y0252702D01*
X0283333Y0253500D02*
X0272833Y0253500D01*
X0272833Y0254299D02*
X0283333Y0254299D01*
X0283333Y0255097D02*
X0272833Y0255097D01*
X0272833Y0255896D02*
X0283333Y0255896D01*
X0283333Y0256694D02*
X0272833Y0256694D01*
X0272833Y0257493D02*
X0283333Y0257493D01*
X0283333Y0258291D02*
X0272833Y0258291D01*
X0272833Y0259090D02*
X0283333Y0259090D01*
X0283333Y0259888D02*
X0272833Y0259888D01*
X0272833Y0260687D02*
X0283333Y0260687D01*
X0283333Y0261485D02*
X0272833Y0261485D01*
X0272833Y0262284D02*
X0283333Y0262284D01*
X0283333Y0263082D02*
X0272833Y0263082D01*
X0272833Y0263881D02*
X0283333Y0263881D01*
X0283333Y0264679D02*
X0272833Y0264679D01*
X0272833Y0265478D02*
X0283333Y0265478D01*
X0283333Y0266276D02*
X0272833Y0266276D01*
X0272833Y0267075D02*
X0274543Y0267075D01*
X0274556Y0267054D02*
X0274816Y0266793D01*
X0275135Y0266609D01*
X0275492Y0266513D01*
X0278143Y0266513D01*
X0278143Y0268904D01*
X0274276Y0268904D01*
X0274276Y0267729D01*
X0274371Y0267373D01*
X0274556Y0267054D01*
X0274276Y0267873D02*
X0272833Y0267873D01*
X0272833Y0268672D02*
X0274276Y0268672D01*
X0274276Y0269470D02*
X0272833Y0269470D01*
X0272833Y0270269D02*
X0274276Y0270269D01*
X0278143Y0268672D02*
X0278524Y0268672D01*
X0278524Y0268904D02*
X0278524Y0266513D01*
X0281175Y0266513D01*
X0281531Y0266609D01*
X0281850Y0266793D01*
X0282111Y0267054D01*
X0282295Y0267373D01*
X0282391Y0267729D01*
X0282391Y0268904D01*
X0278524Y0268904D01*
X0278524Y0267873D02*
X0278143Y0267873D01*
X0278143Y0267075D02*
X0278524Y0267075D01*
X0282123Y0267075D02*
X0283333Y0267075D01*
X0283333Y0267873D02*
X0282391Y0267873D01*
X0282391Y0268672D02*
X0283333Y0268672D01*
X0283333Y0269470D02*
X0282391Y0269470D01*
X0282391Y0270269D02*
X0283333Y0270269D01*
X0283333Y0271068D02*
X0282471Y0271068D01*
X0282591Y0271866D02*
X0283333Y0271866D01*
X0283333Y0272665D02*
X0282591Y0272665D01*
X0282591Y0273463D02*
X0283333Y0273463D01*
X0282743Y0274262D02*
X0282591Y0274262D01*
X0282865Y0276969D02*
X0278333Y0276969D01*
X0278333Y0280906D02*
X0283928Y0280906D01*
X0287333Y0277500D01*
X0287333Y0256500D01*
X0288833Y0255000D01*
X0293333Y0255000D01*
X0285333Y0247000D02*
X0285333Y0274500D01*
X0282865Y0276969D01*
X0287012Y0280650D02*
X0296333Y0280650D01*
X0296333Y0281448D02*
X0286214Y0281448D01*
X0285415Y0282247D02*
X0288017Y0282247D01*
X0287265Y0283045D02*
X0282295Y0283045D01*
X0287265Y0283844D02*
X0245990Y0283844D01*
X0245990Y0284438D02*
X0245428Y0285000D01*
X0245990Y0285562D01*
X0245990Y0289438D01*
X0245287Y0290141D01*
X0245511Y0290365D01*
X0245695Y0290685D01*
X0245790Y0291041D01*
X0245790Y0292262D01*
X0241878Y0292262D01*
X0241878Y0292738D01*
X0241403Y0292738D01*
X0241403Y0295175D01*
X0238706Y0295175D01*
X0238350Y0295080D01*
X0238031Y0294895D01*
X0237770Y0294635D01*
X0237586Y0294315D01*
X0237490Y0293959D01*
X0237490Y0292738D01*
X0241403Y0292738D01*
X0241403Y0292262D01*
X0237490Y0292262D01*
X0237490Y0291041D01*
X0237586Y0290685D01*
X0237770Y0290365D01*
X0237994Y0290141D01*
X0237507Y0289655D01*
X0235176Y0291986D01*
X0235176Y0319303D01*
X0236591Y0319889D01*
X0238287Y0321585D01*
X0239205Y0323801D01*
X0239205Y0326199D01*
X0238287Y0328415D01*
X0236591Y0330111D01*
X0234375Y0331029D01*
X0231977Y0331029D01*
X0229761Y0330111D01*
X0228065Y0328415D01*
X0227147Y0326199D01*
X0227147Y0323801D01*
X0228065Y0321585D01*
X0229761Y0319889D01*
X0231176Y0319303D01*
X0231176Y0290329D01*
X0236005Y0285500D01*
X0237353Y0285500D01*
X0237853Y0285000D01*
X0237353Y0284500D01*
X0223162Y0284500D01*
X0215333Y0292328D01*
X0215333Y0319237D01*
X0216906Y0319889D01*
X0218602Y0321585D01*
X0219520Y0323801D01*
X0219520Y0326199D01*
X0218602Y0328415D01*
X0216906Y0330111D01*
X0214690Y0331029D01*
X0212292Y0331029D01*
X0210076Y0330111D01*
X0208380Y0328415D01*
X0207462Y0326199D01*
X0207462Y0323801D01*
X0208380Y0321585D01*
X0210076Y0319889D01*
X0211333Y0319368D01*
X0211333Y0290672D01*
X0212505Y0289500D01*
X0221505Y0280500D01*
X0237353Y0280500D01*
X0237853Y0280000D01*
X0237290Y0279438D01*
X0237290Y0275562D01*
X0237853Y0275000D01*
X0237290Y0274438D01*
X0237290Y0270562D01*
X0237853Y0270000D01*
X0237290Y0269438D01*
X0237290Y0265562D01*
X0237853Y0265000D01*
X0237290Y0264438D01*
X0237290Y0260562D01*
X0237853Y0260000D01*
X0237290Y0259438D01*
X0237290Y0255562D01*
X0238228Y0254625D01*
X0245053Y0254625D01*
X0245928Y0255500D01*
X0247005Y0255500D01*
X0248333Y0254172D01*
X0249505Y0253000D01*
X0251222Y0253000D01*
X0251222Y0252369D01*
X0252159Y0251431D01*
X0257815Y0251431D01*
X0258475Y0252091D01*
X0258655Y0251911D01*
X0258974Y0251727D01*
X0259330Y0251631D01*
X0261280Y0251631D01*
X0261280Y0254600D01*
X0262080Y0254600D01*
X0262080Y0255400D01*
X0265245Y0255400D01*
X0265245Y0257153D01*
X0265150Y0257509D01*
X0264965Y0257828D01*
X0264705Y0258089D01*
X0264386Y0258273D01*
X0264029Y0258368D01*
X0262080Y0258368D01*
X0262080Y0255400D01*
X0261280Y0255400D01*
X0261280Y0258368D01*
X0259330Y0258368D01*
X0258974Y0258273D01*
X0258655Y0258089D01*
X0258475Y0257909D01*
X0257815Y0258568D01*
X0254383Y0258568D01*
X0254383Y0259107D01*
X0253919Y0260228D01*
X0253061Y0261086D01*
X0252226Y0261431D01*
X0257815Y0261431D01*
X0258475Y0262091D01*
X0258655Y0261911D01*
X0258974Y0261727D01*
X0259330Y0261631D01*
X0261280Y0261631D01*
X0261280Y0264600D01*
X0262080Y0264600D01*
X0262080Y0265400D01*
X0265245Y0265400D01*
X0265245Y0267153D01*
X0265150Y0267509D01*
X0264965Y0267828D01*
X0264705Y0268089D01*
X0264386Y0268273D01*
X0264029Y0268368D01*
X0262080Y0268368D01*
X0262080Y0265400D01*
X0261280Y0265400D01*
X0261280Y0268368D01*
X0259330Y0268368D01*
X0258974Y0268273D01*
X0258655Y0268089D01*
X0258475Y0267909D01*
X0257815Y0268568D01*
X0253883Y0268568D01*
X0253883Y0268607D01*
X0253419Y0269728D01*
X0252561Y0270586D01*
X0251440Y0271050D01*
X0250333Y0271050D01*
X0250333Y0272672D01*
X0250662Y0273000D01*
X0251222Y0273000D01*
X0251222Y0272369D01*
X0252159Y0271431D01*
X0257815Y0271431D01*
X0258475Y0272091D01*
X0258655Y0271911D01*
X0258974Y0271727D01*
X0259330Y0271631D01*
X0261280Y0271631D01*
X0261280Y0274600D01*
X0262080Y0274600D01*
X0262080Y0275400D01*
X0265245Y0275400D01*
X0265245Y0277153D01*
X0265150Y0277509D01*
X0264965Y0277828D01*
X0264705Y0278089D01*
X0264386Y0278273D01*
X0264029Y0278368D01*
X0262080Y0278368D01*
X0262080Y0275400D01*
X0261280Y0275400D01*
X0261280Y0278368D01*
X0259330Y0278368D01*
X0258974Y0278273D01*
X0258655Y0278089D01*
X0258475Y0277909D01*
X0257815Y0278568D01*
X0253883Y0278568D01*
X0253883Y0278607D01*
X0253419Y0279728D01*
X0252561Y0280586D01*
X0251440Y0281050D01*
X0250227Y0281050D01*
X0249106Y0280586D01*
X0248248Y0279728D01*
X0247783Y0278607D01*
X0247783Y0277393D01*
X0248248Y0276272D01*
X0248262Y0276258D01*
X0247833Y0275828D01*
X0246333Y0274328D01*
X0246333Y0270828D01*
X0245467Y0269962D01*
X0245428Y0270000D01*
X0245990Y0270562D01*
X0245990Y0274438D01*
X0245428Y0275000D01*
X0245990Y0275562D01*
X0245990Y0279438D01*
X0245428Y0280000D01*
X0245990Y0280562D01*
X0245990Y0284438D01*
X0245786Y0284642D02*
X0287265Y0284642D01*
X0287265Y0285441D02*
X0245869Y0285441D01*
X0245990Y0286239D02*
X0287265Y0286239D01*
X0287265Y0287038D02*
X0245990Y0287038D01*
X0245990Y0287836D02*
X0287265Y0287836D01*
X0287265Y0288635D02*
X0245990Y0288635D01*
X0245990Y0289433D02*
X0287650Y0289433D01*
X0296333Y0290232D02*
X0245377Y0290232D01*
X0245788Y0291030D02*
X0296333Y0291030D01*
X0296333Y0291829D02*
X0245790Y0291829D01*
X0245790Y0292738D02*
X0245790Y0293959D01*
X0245695Y0294315D01*
X0245511Y0294635D01*
X0245250Y0294895D01*
X0244931Y0295080D01*
X0244575Y0295175D01*
X0241878Y0295175D01*
X0241878Y0292738D01*
X0245790Y0292738D01*
X0245790Y0293426D02*
X0296333Y0293426D01*
X0296333Y0294224D02*
X0245719Y0294224D01*
X0245029Y0295023D02*
X0296333Y0295023D01*
X0296333Y0295821D02*
X0235176Y0295821D01*
X0235176Y0295023D02*
X0238252Y0295023D01*
X0237561Y0294224D02*
X0235176Y0294224D01*
X0235176Y0293426D02*
X0237490Y0293426D01*
X0237490Y0291829D02*
X0235333Y0291829D01*
X0235176Y0292627D02*
X0241403Y0292627D01*
X0241878Y0292627D02*
X0296333Y0292627D01*
X0296333Y0296620D02*
X0235176Y0296620D01*
X0235176Y0297418D02*
X0296333Y0297418D01*
X0296333Y0298217D02*
X0235176Y0298217D01*
X0235176Y0299015D02*
X0296333Y0299015D01*
X0296333Y0299814D02*
X0235176Y0299814D01*
X0235176Y0300612D02*
X0296333Y0300612D01*
X0296333Y0301411D02*
X0235176Y0301411D01*
X0235176Y0302209D02*
X0296333Y0302209D01*
X0296333Y0303008D02*
X0235176Y0303008D01*
X0235176Y0303806D02*
X0296333Y0303806D01*
X0296333Y0304605D02*
X0235176Y0304605D01*
X0235176Y0305403D02*
X0296333Y0305403D01*
X0296333Y0306202D02*
X0235176Y0306202D01*
X0235176Y0307001D02*
X0296333Y0307001D01*
X0296333Y0307799D02*
X0235176Y0307799D01*
X0235176Y0308598D02*
X0296333Y0308598D01*
X0296333Y0309396D02*
X0235176Y0309396D01*
X0235176Y0310195D02*
X0296333Y0310195D01*
X0296333Y0310993D02*
X0235176Y0310993D01*
X0235176Y0311792D02*
X0296333Y0311792D01*
X0296333Y0312590D02*
X0235176Y0312590D01*
X0235176Y0313389D02*
X0296333Y0313389D01*
X0296333Y0314187D02*
X0235176Y0314187D01*
X0235176Y0314986D02*
X0296333Y0314986D01*
X0296333Y0315784D02*
X0235176Y0315784D01*
X0235176Y0316583D02*
X0296333Y0316583D01*
X0296333Y0317381D02*
X0235176Y0317381D01*
X0235176Y0318180D02*
X0296333Y0318180D01*
X0296333Y0318978D02*
X0254078Y0318978D01*
X0254060Y0318971D02*
X0256276Y0319889D01*
X0257972Y0321585D01*
X0258890Y0323801D01*
X0258890Y0326199D01*
X0257972Y0328415D01*
X0256276Y0330111D01*
X0254060Y0331029D01*
X0251662Y0331029D01*
X0249446Y0330111D01*
X0247750Y0328415D01*
X0246832Y0326199D01*
X0246832Y0323801D01*
X0247750Y0321585D01*
X0249446Y0319889D01*
X0251662Y0318971D01*
X0254060Y0318971D01*
X0256006Y0319777D02*
X0296333Y0319777D01*
X0296333Y0320575D02*
X0256963Y0320575D01*
X0257761Y0321374D02*
X0296333Y0321374D01*
X0296333Y0322172D02*
X0258215Y0322172D01*
X0258546Y0322971D02*
X0296333Y0322971D01*
X0296333Y0323769D02*
X0258877Y0323769D01*
X0258890Y0324568D02*
X0296333Y0324568D01*
X0296333Y0325366D02*
X0258890Y0325366D01*
X0258890Y0326165D02*
X0296333Y0326165D01*
X0296333Y0326963D02*
X0258574Y0326963D01*
X0258243Y0327762D02*
X0296333Y0327762D01*
X0296333Y0328560D02*
X0257827Y0328560D01*
X0257029Y0329359D02*
X0296333Y0329359D01*
X0296333Y0330157D02*
X0256165Y0330157D01*
X0254237Y0330956D02*
X0285991Y0330956D01*
X0283797Y0331754D02*
X0162870Y0331754D01*
X0163926Y0332553D02*
X0282740Y0332553D01*
X0281789Y0333351D02*
X0164878Y0333351D01*
X0165694Y0334150D02*
X0280972Y0334150D01*
X0280511Y0334948D02*
X0166155Y0334948D01*
X0166616Y0335747D02*
X0280050Y0335747D01*
X0279589Y0336545D02*
X0167078Y0336545D01*
X0167308Y0337344D02*
X0279358Y0337344D01*
X0279217Y0338142D02*
X0167449Y0338142D01*
X0167590Y0338941D02*
X0279077Y0338941D01*
X0278936Y0339739D02*
X0167731Y0339739D01*
X0167682Y0340538D02*
X0278985Y0340538D01*
X0279126Y0341337D02*
X0167541Y0341337D01*
X0167400Y0342135D02*
X0279266Y0342135D01*
X0279407Y0342934D02*
X0167260Y0342934D01*
X0166917Y0343732D02*
X0279749Y0343732D01*
X0280210Y0344531D02*
X0166456Y0344531D01*
X0165995Y0345329D02*
X0280671Y0345329D01*
X0281168Y0346128D02*
X0165499Y0346128D01*
X0164547Y0346926D02*
X0282119Y0346926D01*
X0283071Y0347725D02*
X0163596Y0347725D01*
X0160676Y0330956D02*
X0212115Y0330956D01*
X0210187Y0330157D02*
X0196524Y0330157D01*
X0196861Y0329986D02*
X0196043Y0330402D01*
X0195171Y0330686D01*
X0194265Y0330829D01*
X0194206Y0330829D01*
X0194206Y0325400D01*
X0199635Y0325400D01*
X0199635Y0325459D01*
X0199491Y0326365D01*
X0199208Y0327238D01*
X0198791Y0328055D01*
X0198252Y0328797D01*
X0197603Y0329446D01*
X0196861Y0329986D01*
X0197691Y0329359D02*
X0209323Y0329359D01*
X0208525Y0328560D02*
X0198424Y0328560D01*
X0198941Y0327762D02*
X0208109Y0327762D01*
X0207778Y0326963D02*
X0199297Y0326963D01*
X0199523Y0326165D02*
X0207462Y0326165D01*
X0207462Y0325366D02*
X0194206Y0325366D01*
X0194206Y0325400D02*
X0194206Y0324600D01*
X0199635Y0324600D01*
X0199635Y0324541D01*
X0199491Y0323635D01*
X0199208Y0322762D01*
X0198791Y0321945D01*
X0198252Y0321203D01*
X0197603Y0320554D01*
X0196861Y0320014D01*
X0196043Y0319598D01*
X0195171Y0319314D01*
X0194265Y0319171D01*
X0194206Y0319171D01*
X0194206Y0324600D01*
X0193406Y0324600D01*
X0193406Y0319171D01*
X0193347Y0319171D01*
X0192441Y0319314D01*
X0191568Y0319598D01*
X0190751Y0320014D01*
X0190008Y0320554D01*
X0189360Y0321203D01*
X0188820Y0321945D01*
X0188404Y0322762D01*
X0188120Y0323635D01*
X0187977Y0324541D01*
X0187977Y0324600D01*
X0193406Y0324600D01*
X0193406Y0325400D01*
X0193406Y0330829D01*
X0193347Y0330829D01*
X0192441Y0330686D01*
X0191568Y0330402D01*
X0190751Y0329986D01*
X0190008Y0329446D01*
X0189360Y0328797D01*
X0188820Y0328055D01*
X0188404Y0327238D01*
X0188120Y0326365D01*
X0187977Y0325459D01*
X0187977Y0325400D01*
X0193406Y0325400D01*
X0194206Y0325400D01*
X0194206Y0326165D02*
X0193406Y0326165D01*
X0193406Y0326963D02*
X0194206Y0326963D01*
X0194206Y0327762D02*
X0193406Y0327762D01*
X0193406Y0328560D02*
X0194206Y0328560D01*
X0194206Y0329359D02*
X0193406Y0329359D01*
X0193406Y0330157D02*
X0194206Y0330157D01*
X0191088Y0330157D02*
X0153521Y0330157D01*
X0153986Y0330956D02*
X0155991Y0330956D01*
X0152404Y0329359D02*
X0189921Y0329359D01*
X0189187Y0328560D02*
X0150333Y0328560D01*
X0150333Y0327762D02*
X0188671Y0327762D01*
X0188315Y0326963D02*
X0150333Y0326963D01*
X0150333Y0326165D02*
X0188088Y0326165D01*
X0187977Y0324568D02*
X0150333Y0324568D01*
X0150333Y0325366D02*
X0193406Y0325366D01*
X0193406Y0324568D02*
X0194206Y0324568D01*
X0194206Y0323769D02*
X0193406Y0323769D01*
X0193406Y0322971D02*
X0194206Y0322971D01*
X0194206Y0322172D02*
X0193406Y0322172D01*
X0193406Y0321374D02*
X0194206Y0321374D01*
X0194206Y0320575D02*
X0193406Y0320575D01*
X0193406Y0319777D02*
X0194206Y0319777D01*
X0196394Y0319777D02*
X0210346Y0319777D01*
X0209389Y0320575D02*
X0197625Y0320575D01*
X0198376Y0321374D02*
X0208591Y0321374D01*
X0208136Y0322172D02*
X0198907Y0322172D01*
X0199276Y0322971D02*
X0207805Y0322971D01*
X0207475Y0323769D02*
X0199513Y0323769D01*
X0199635Y0324568D02*
X0207462Y0324568D01*
X0213333Y0324843D02*
X0213491Y0325000D01*
X0213333Y0324843D02*
X0213333Y0291500D01*
X0222333Y0282500D01*
X0241640Y0282500D01*
X0245990Y0282247D02*
X0274076Y0282247D01*
X0274076Y0281448D02*
X0245990Y0281448D01*
X0245990Y0280650D02*
X0249260Y0280650D01*
X0248371Y0279851D02*
X0245577Y0279851D01*
X0245990Y0279053D02*
X0247968Y0279053D01*
X0247783Y0278254D02*
X0245990Y0278254D01*
X0245990Y0277456D02*
X0247783Y0277456D01*
X0248088Y0276657D02*
X0245990Y0276657D01*
X0245990Y0275859D02*
X0247863Y0275859D01*
X0247065Y0275060D02*
X0245488Y0275060D01*
X0245990Y0274262D02*
X0246333Y0274262D01*
X0246333Y0273463D02*
X0245990Y0273463D01*
X0245990Y0272665D02*
X0246333Y0272665D01*
X0246333Y0271866D02*
X0245990Y0271866D01*
X0245990Y0271068D02*
X0246333Y0271068D01*
X0245774Y0270269D02*
X0245697Y0270269D01*
X0248333Y0270000D02*
X0248333Y0273500D01*
X0249833Y0275000D01*
X0254987Y0275000D01*
X0253833Y0275000D01*
X0250833Y0278000D01*
X0253699Y0279053D02*
X0274085Y0279053D01*
X0274076Y0279851D02*
X0253296Y0279851D01*
X0252407Y0280650D02*
X0274076Y0280650D01*
X0274076Y0278254D02*
X0264418Y0278254D01*
X0265164Y0277456D02*
X0274076Y0277456D01*
X0274076Y0276657D02*
X0265245Y0276657D01*
X0265245Y0275859D02*
X0269765Y0275859D01*
X0268580Y0275060D02*
X0262080Y0275060D01*
X0262080Y0274600D02*
X0265245Y0274600D01*
X0265245Y0272847D01*
X0265150Y0272491D01*
X0264965Y0272172D01*
X0264705Y0271911D01*
X0264386Y0271727D01*
X0264029Y0271631D01*
X0262080Y0271631D01*
X0262080Y0274600D01*
X0262080Y0274262D02*
X0261280Y0274262D01*
X0261280Y0273463D02*
X0262080Y0273463D01*
X0262080Y0272665D02*
X0261280Y0272665D01*
X0261280Y0271866D02*
X0262080Y0271866D01*
X0264626Y0271866D02*
X0268002Y0271866D01*
X0267783Y0272665D02*
X0265196Y0272665D01*
X0265245Y0273463D02*
X0267783Y0273463D01*
X0268055Y0274262D02*
X0265245Y0274262D01*
X0262080Y0275859D02*
X0261280Y0275859D01*
X0261280Y0276657D02*
X0262080Y0276657D01*
X0262080Y0277456D02*
X0261280Y0277456D01*
X0261280Y0278254D02*
X0262080Y0278254D01*
X0258941Y0278254D02*
X0258129Y0278254D01*
X0258249Y0271866D02*
X0258733Y0271866D01*
X0261280Y0267873D02*
X0262080Y0267873D01*
X0262080Y0267075D02*
X0261280Y0267075D01*
X0261280Y0266276D02*
X0262080Y0266276D01*
X0262080Y0265478D02*
X0261280Y0265478D01*
X0262080Y0264679D02*
X0268833Y0264679D01*
X0268833Y0263881D02*
X0265245Y0263881D01*
X0265245Y0264600D02*
X0262080Y0264600D01*
X0262080Y0261631D01*
X0264029Y0261631D01*
X0264386Y0261727D01*
X0264705Y0261911D01*
X0264965Y0262172D01*
X0265150Y0262491D01*
X0265245Y0262847D01*
X0265245Y0264600D01*
X0265245Y0265478D02*
X0268833Y0265478D01*
X0268833Y0266276D02*
X0265245Y0266276D01*
X0265245Y0267075D02*
X0268833Y0267075D01*
X0268833Y0267873D02*
X0264920Y0267873D01*
X0268833Y0268672D02*
X0253856Y0268672D01*
X0253526Y0269470D02*
X0268833Y0269470D01*
X0268833Y0270269D02*
X0252878Y0270269D01*
X0251724Y0271866D02*
X0250333Y0271866D01*
X0250333Y0271068D02*
X0268452Y0271068D01*
X0270833Y0273000D02*
X0270833Y0241500D01*
X0277333Y0235000D01*
X0293333Y0235000D01*
X0293333Y0245000D02*
X0287333Y0245000D01*
X0285333Y0247000D01*
X0272773Y0236732D02*
X0235176Y0236732D01*
X0235176Y0237530D02*
X0271975Y0237530D01*
X0271176Y0238329D02*
X0235176Y0238329D01*
X0235176Y0239127D02*
X0270378Y0239127D01*
X0269579Y0239926D02*
X0235176Y0239926D01*
X0235176Y0240724D02*
X0268833Y0240724D01*
X0268833Y0241523D02*
X0235176Y0241523D01*
X0235176Y0242321D02*
X0268833Y0242321D01*
X0268833Y0243120D02*
X0235176Y0243120D01*
X0235176Y0243918D02*
X0268833Y0243918D01*
X0268833Y0244717D02*
X0235176Y0244717D01*
X0235176Y0245515D02*
X0268833Y0245515D01*
X0268833Y0246314D02*
X0235176Y0246314D01*
X0235176Y0247112D02*
X0268833Y0247112D01*
X0268833Y0247911D02*
X0235176Y0247911D01*
X0235176Y0248709D02*
X0268833Y0248709D01*
X0268833Y0249508D02*
X0235176Y0249508D01*
X0235176Y0250306D02*
X0268833Y0250306D01*
X0268833Y0251105D02*
X0235176Y0251105D01*
X0235176Y0251903D02*
X0251687Y0251903D01*
X0251222Y0252702D02*
X0235176Y0252702D01*
X0235176Y0253500D02*
X0249005Y0253500D01*
X0248206Y0254299D02*
X0235176Y0254299D01*
X0235176Y0255097D02*
X0237755Y0255097D01*
X0237290Y0255896D02*
X0235176Y0255896D01*
X0235176Y0256694D02*
X0237290Y0256694D01*
X0237290Y0257493D02*
X0235176Y0257493D01*
X0235176Y0258291D02*
X0237290Y0258291D01*
X0237290Y0259090D02*
X0235176Y0259090D01*
X0235176Y0259888D02*
X0237741Y0259888D01*
X0237290Y0260687D02*
X0235176Y0260687D01*
X0235176Y0261485D02*
X0237290Y0261485D01*
X0237290Y0262284D02*
X0235176Y0262284D01*
X0235176Y0263082D02*
X0237290Y0263082D01*
X0237290Y0263881D02*
X0235176Y0263881D01*
X0235176Y0264679D02*
X0237532Y0264679D01*
X0237375Y0265478D02*
X0235176Y0265478D01*
X0234885Y0266276D02*
X0237290Y0266276D01*
X0237290Y0267075D02*
X0234087Y0267075D01*
X0233288Y0267873D02*
X0237290Y0267873D01*
X0237290Y0268672D02*
X0232490Y0268672D01*
X0231691Y0269470D02*
X0237323Y0269470D01*
X0237584Y0270269D02*
X0230893Y0270269D01*
X0230094Y0271068D02*
X0237290Y0271068D01*
X0237290Y0271866D02*
X0229296Y0271866D01*
X0228497Y0272665D02*
X0237290Y0272665D01*
X0237290Y0273463D02*
X0227699Y0273463D01*
X0226900Y0274262D02*
X0237290Y0274262D01*
X0237793Y0275060D02*
X0226102Y0275060D01*
X0225303Y0275859D02*
X0237290Y0275859D01*
X0237290Y0276657D02*
X0224505Y0276657D01*
X0223706Y0277456D02*
X0237290Y0277456D01*
X0237290Y0278254D02*
X0222908Y0278254D01*
X0222109Y0279053D02*
X0237290Y0279053D01*
X0237704Y0279851D02*
X0221311Y0279851D01*
X0221355Y0280650D02*
X0220512Y0280650D01*
X0220557Y0281448D02*
X0219714Y0281448D01*
X0219758Y0282247D02*
X0218915Y0282247D01*
X0218960Y0283045D02*
X0218117Y0283045D01*
X0218161Y0283844D02*
X0217318Y0283844D01*
X0217363Y0284642D02*
X0209172Y0284642D01*
X0209255Y0285441D02*
X0216564Y0285441D01*
X0215766Y0286239D02*
X0209376Y0286239D01*
X0209376Y0287038D02*
X0214967Y0287038D01*
X0214169Y0287836D02*
X0209376Y0287836D01*
X0209376Y0288635D02*
X0213370Y0288635D01*
X0212572Y0289433D02*
X0209376Y0289433D01*
X0209046Y0290232D02*
X0211773Y0290232D01*
X0211333Y0291030D02*
X0209376Y0291030D01*
X0209376Y0291829D02*
X0211333Y0291829D01*
X0211333Y0292627D02*
X0209376Y0292627D01*
X0209376Y0293426D02*
X0211333Y0293426D01*
X0211333Y0294224D02*
X0209376Y0294224D01*
X0208791Y0295023D02*
X0211333Y0295023D01*
X0211333Y0295821D02*
X0166902Y0295821D01*
X0166902Y0295023D02*
X0201261Y0295023D01*
X0200676Y0294224D02*
X0166902Y0294224D01*
X0166502Y0293426D02*
X0200676Y0293426D01*
X0200676Y0292627D02*
X0165333Y0292627D01*
X0165333Y0291829D02*
X0200676Y0291829D01*
X0200676Y0291030D02*
X0165333Y0291030D01*
X0165333Y0290232D02*
X0201007Y0290232D01*
X0200676Y0289433D02*
X0165333Y0289433D01*
X0165333Y0288635D02*
X0200676Y0288635D01*
X0200676Y0287836D02*
X0165333Y0287836D01*
X0165333Y0287038D02*
X0200676Y0287038D01*
X0200676Y0286239D02*
X0165333Y0286239D01*
X0165333Y0285441D02*
X0200798Y0285441D01*
X0200881Y0284642D02*
X0165333Y0284642D01*
X0165333Y0283844D02*
X0200676Y0283844D01*
X0200676Y0283045D02*
X0178952Y0283045D01*
X0177715Y0283045D02*
X0172012Y0283045D01*
X0172391Y0282247D02*
X0176267Y0282247D01*
X0175632Y0281448D02*
X0172391Y0281448D01*
X0172391Y0280650D02*
X0175301Y0280650D01*
X0175283Y0279851D02*
X0172391Y0279851D01*
X0172351Y0279053D02*
X0175424Y0279053D01*
X0178333Y0280000D02*
X0178333Y0276969D01*
X0168333Y0276969D01*
X0168333Y0273031D02*
X0164802Y0273031D01*
X0163333Y0274500D01*
X0163333Y0296654D01*
X0159765Y0296620D02*
X0156902Y0296620D01*
X0156902Y0297418D02*
X0159765Y0297418D01*
X0159765Y0298217D02*
X0156902Y0298217D01*
X0156902Y0299015D02*
X0159765Y0299015D01*
X0160097Y0299814D02*
X0156570Y0299814D01*
X0156902Y0300612D02*
X0159765Y0300612D01*
X0159765Y0301411D02*
X0156902Y0301411D01*
X0156902Y0302209D02*
X0159765Y0302209D01*
X0159765Y0303008D02*
X0156902Y0303008D01*
X0156902Y0303806D02*
X0159765Y0303806D01*
X0159765Y0304605D02*
X0156902Y0304605D01*
X0156902Y0305403D02*
X0159765Y0305403D01*
X0159792Y0306202D02*
X0156874Y0306202D01*
X0156076Y0307001D02*
X0160591Y0307001D01*
X0164283Y0307799D02*
X0155446Y0307799D01*
X0156054Y0308598D02*
X0164283Y0308598D01*
X0164610Y0309396D02*
X0156383Y0309396D01*
X0156383Y0310195D02*
X0165215Y0310195D01*
X0166589Y0310993D02*
X0156223Y0310993D01*
X0155855Y0311792D02*
X0211333Y0311792D01*
X0211333Y0312590D02*
X0155050Y0312590D01*
X0153333Y0310000D02*
X0153333Y0303346D01*
X0153333Y0296654D02*
X0153333Y0293000D01*
X0154833Y0291500D01*
X0157333Y0291500D01*
X0159333Y0289500D01*
X0159333Y0274500D01*
X0164739Y0269094D01*
X0168333Y0269094D01*
X0168428Y0269000D01*
X0173333Y0269000D01*
X0176168Y0267873D02*
X0185978Y0267873D01*
X0186776Y0267075D02*
X0175722Y0267075D01*
X0174728Y0266276D02*
X0187575Y0266276D01*
X0188373Y0265478D02*
X0159402Y0265478D01*
X0159402Y0266276D02*
X0171939Y0266276D01*
X0176109Y0270269D02*
X0183582Y0270269D01*
X0182784Y0271068D02*
X0176214Y0271068D01*
X0176665Y0271866D02*
X0181985Y0271866D01*
X0181187Y0272665D02*
X0176883Y0272665D01*
X0176883Y0273463D02*
X0180388Y0273463D01*
X0179590Y0274262D02*
X0176612Y0274262D01*
X0173833Y0273000D02*
X0168365Y0273000D01*
X0168333Y0273031D01*
X0164252Y0267075D02*
X0159328Y0267075D01*
X0158530Y0267873D02*
X0163131Y0267873D01*
X0162333Y0268672D02*
X0150333Y0268672D01*
X0150333Y0269470D02*
X0161534Y0269470D01*
X0160736Y0270269D02*
X0150333Y0270269D01*
X0150333Y0271068D02*
X0159937Y0271068D01*
X0159139Y0271866D02*
X0150333Y0271866D01*
X0150333Y0272665D02*
X0158340Y0272665D01*
X0157542Y0273463D02*
X0150333Y0273463D01*
X0150333Y0274262D02*
X0157333Y0274262D01*
X0157333Y0275060D02*
X0150333Y0275060D01*
X0150333Y0275859D02*
X0157333Y0275859D01*
X0157333Y0276657D02*
X0150333Y0276657D01*
X0150333Y0277456D02*
X0157333Y0277456D01*
X0157333Y0278254D02*
X0150333Y0278254D01*
X0150333Y0279053D02*
X0157333Y0279053D01*
X0157333Y0279851D02*
X0150333Y0279851D01*
X0150333Y0280650D02*
X0157333Y0280650D01*
X0157333Y0281448D02*
X0150333Y0281448D01*
X0161333Y0281448D02*
X0161333Y0281448D01*
X0161333Y0280650D02*
X0161333Y0280650D01*
X0161333Y0279851D02*
X0161333Y0279851D01*
X0161333Y0279053D02*
X0161333Y0279053D01*
X0161333Y0278254D02*
X0161333Y0278254D01*
X0161333Y0277456D02*
X0161333Y0277456D01*
X0161333Y0276657D02*
X0161333Y0276657D01*
X0161333Y0275859D02*
X0161333Y0275859D01*
X0161333Y0282247D02*
X0161333Y0282247D01*
X0161333Y0283045D02*
X0161333Y0283045D01*
X0161333Y0283844D02*
X0161333Y0283844D01*
X0161333Y0284642D02*
X0161333Y0284642D01*
X0161333Y0285441D02*
X0161333Y0285441D01*
X0161333Y0286239D02*
X0161333Y0286239D01*
X0161333Y0287038D02*
X0161333Y0287038D01*
X0161333Y0287836D02*
X0161333Y0287836D01*
X0161333Y0288635D02*
X0161333Y0288635D01*
X0161333Y0289433D02*
X0161333Y0289433D01*
X0161333Y0290232D02*
X0161333Y0290232D01*
X0161333Y0291030D02*
X0160631Y0291030D01*
X0161333Y0291829D02*
X0159833Y0291829D01*
X0159034Y0292627D02*
X0161333Y0292627D01*
X0160164Y0293426D02*
X0158236Y0293426D01*
X0156902Y0294224D02*
X0159765Y0294224D01*
X0159765Y0295023D02*
X0156902Y0295023D01*
X0156902Y0295821D02*
X0159765Y0295821D01*
X0166902Y0296620D02*
X0211333Y0296620D01*
X0211333Y0297418D02*
X0166902Y0297418D01*
X0166902Y0298217D02*
X0211333Y0298217D01*
X0211333Y0299015D02*
X0166902Y0299015D01*
X0166570Y0299814D02*
X0211333Y0299814D01*
X0211333Y0300612D02*
X0166902Y0300612D01*
X0166902Y0301411D02*
X0211333Y0301411D01*
X0211333Y0302209D02*
X0166902Y0302209D01*
X0166902Y0303008D02*
X0211333Y0303008D01*
X0211333Y0303806D02*
X0166902Y0303806D01*
X0166902Y0304605D02*
X0211333Y0304605D01*
X0211333Y0305403D02*
X0169035Y0305403D01*
X0169849Y0306202D02*
X0211333Y0306202D01*
X0211333Y0307001D02*
X0170221Y0307001D01*
X0170383Y0307799D02*
X0211333Y0307799D01*
X0211333Y0308598D02*
X0170383Y0308598D01*
X0170056Y0309396D02*
X0211333Y0309396D01*
X0211333Y0310195D02*
X0169452Y0310195D01*
X0168077Y0310993D02*
X0211333Y0310993D01*
X0211333Y0313389D02*
X0150333Y0313389D01*
X0150333Y0314187D02*
X0211333Y0314187D01*
X0211333Y0314986D02*
X0150333Y0314986D01*
X0150333Y0315784D02*
X0211333Y0315784D01*
X0211333Y0316583D02*
X0150333Y0316583D01*
X0150333Y0317381D02*
X0211333Y0317381D01*
X0211333Y0318180D02*
X0150333Y0318180D01*
X0150333Y0318978D02*
X0211333Y0318978D01*
X0215333Y0318978D02*
X0231176Y0318978D01*
X0231176Y0318180D02*
X0215333Y0318180D01*
X0215333Y0317381D02*
X0231176Y0317381D01*
X0231176Y0316583D02*
X0215333Y0316583D01*
X0215333Y0315784D02*
X0231176Y0315784D01*
X0231176Y0314986D02*
X0215333Y0314986D01*
X0215333Y0314187D02*
X0231176Y0314187D01*
X0231176Y0313389D02*
X0215333Y0313389D01*
X0215333Y0312590D02*
X0231176Y0312590D01*
X0231176Y0311792D02*
X0215333Y0311792D01*
X0215333Y0310993D02*
X0231176Y0310993D01*
X0231176Y0310195D02*
X0215333Y0310195D01*
X0215333Y0309396D02*
X0231176Y0309396D01*
X0231176Y0308598D02*
X0215333Y0308598D01*
X0215333Y0307799D02*
X0231176Y0307799D01*
X0231176Y0307001D02*
X0215333Y0307001D01*
X0215333Y0306202D02*
X0231176Y0306202D01*
X0231176Y0305403D02*
X0215333Y0305403D01*
X0215333Y0304605D02*
X0231176Y0304605D01*
X0231176Y0303806D02*
X0215333Y0303806D01*
X0215333Y0303008D02*
X0231176Y0303008D01*
X0231176Y0302209D02*
X0215333Y0302209D01*
X0215333Y0301411D02*
X0231176Y0301411D01*
X0231176Y0300612D02*
X0215333Y0300612D01*
X0215333Y0299814D02*
X0231176Y0299814D01*
X0231176Y0299015D02*
X0215333Y0299015D01*
X0215333Y0298217D02*
X0231176Y0298217D01*
X0231176Y0297418D02*
X0215333Y0297418D01*
X0215333Y0296620D02*
X0231176Y0296620D01*
X0231176Y0295821D02*
X0215333Y0295821D01*
X0215333Y0295023D02*
X0231176Y0295023D01*
X0231176Y0294224D02*
X0215333Y0294224D01*
X0215333Y0293426D02*
X0231176Y0293426D01*
X0231176Y0292627D02*
X0215333Y0292627D01*
X0215833Y0291829D02*
X0231176Y0291829D01*
X0231176Y0291030D02*
X0216631Y0291030D01*
X0217430Y0290232D02*
X0231273Y0290232D01*
X0232072Y0289433D02*
X0218228Y0289433D01*
X0219027Y0288635D02*
X0232870Y0288635D01*
X0233669Y0287836D02*
X0219825Y0287836D01*
X0220624Y0287038D02*
X0234467Y0287038D01*
X0235266Y0286239D02*
X0221423Y0286239D01*
X0222221Y0285441D02*
X0237412Y0285441D01*
X0237495Y0284642D02*
X0223020Y0284642D01*
X0215833Y0282500D02*
X0233176Y0265157D01*
X0233176Y0225000D01*
X0228888Y0220761D02*
X0217779Y0220761D01*
X0218577Y0221560D02*
X0228090Y0221560D01*
X0227744Y0222358D02*
X0218922Y0222358D01*
X0219253Y0223157D02*
X0227413Y0223157D01*
X0227147Y0223955D02*
X0219520Y0223955D01*
X0219520Y0224754D02*
X0227147Y0224754D01*
X0227147Y0225552D02*
X0219520Y0225552D01*
X0219457Y0226351D02*
X0227210Y0226351D01*
X0227540Y0227149D02*
X0219126Y0227149D01*
X0218796Y0227948D02*
X0227871Y0227948D01*
X0228396Y0228746D02*
X0218271Y0228746D01*
X0217472Y0229545D02*
X0229194Y0229545D01*
X0230321Y0230343D02*
X0216345Y0230343D01*
X0215491Y0231142D02*
X0231176Y0231142D01*
X0231176Y0231940D02*
X0215491Y0231940D01*
X0215491Y0232739D02*
X0231176Y0232739D01*
X0231176Y0233537D02*
X0215491Y0233537D01*
X0215491Y0234336D02*
X0231176Y0234336D01*
X0231176Y0235134D02*
X0215491Y0235134D01*
X0215491Y0235933D02*
X0231176Y0235933D01*
X0231176Y0236732D02*
X0215491Y0236732D01*
X0215491Y0237530D02*
X0231176Y0237530D01*
X0231176Y0238329D02*
X0215491Y0238329D01*
X0215491Y0239127D02*
X0231176Y0239127D01*
X0231176Y0239926D02*
X0215491Y0239926D01*
X0215491Y0240724D02*
X0231176Y0240724D01*
X0231176Y0241523D02*
X0215491Y0241523D01*
X0215491Y0242321D02*
X0231176Y0242321D01*
X0231176Y0243120D02*
X0215491Y0243120D01*
X0215491Y0243918D02*
X0231176Y0243918D01*
X0231176Y0244717D02*
X0215491Y0244717D01*
X0215491Y0245515D02*
X0231176Y0245515D01*
X0231176Y0246314D02*
X0215491Y0246314D01*
X0215491Y0247112D02*
X0231176Y0247112D01*
X0231176Y0247911D02*
X0215491Y0247911D01*
X0215491Y0248709D02*
X0231176Y0248709D01*
X0231176Y0249508D02*
X0215491Y0249508D01*
X0215491Y0250306D02*
X0231176Y0250306D01*
X0231176Y0251105D02*
X0215491Y0251105D01*
X0215491Y0251903D02*
X0231176Y0251903D01*
X0231176Y0252702D02*
X0215491Y0252702D01*
X0215491Y0253500D02*
X0231176Y0253500D01*
X0231176Y0254299D02*
X0215491Y0254299D01*
X0215491Y0255097D02*
X0231176Y0255097D01*
X0231176Y0255896D02*
X0215491Y0255896D01*
X0215491Y0256694D02*
X0231176Y0256694D01*
X0231176Y0257493D02*
X0215491Y0257493D01*
X0215491Y0258291D02*
X0231176Y0258291D01*
X0231176Y0259090D02*
X0215491Y0259090D01*
X0215491Y0259888D02*
X0231176Y0259888D01*
X0231176Y0260687D02*
X0215491Y0260687D01*
X0215491Y0261485D02*
X0231176Y0261485D01*
X0231176Y0262284D02*
X0215491Y0262284D01*
X0215491Y0263082D02*
X0231176Y0263082D01*
X0231176Y0263881D02*
X0215491Y0263881D01*
X0215491Y0264679D02*
X0230825Y0264679D01*
X0230027Y0265478D02*
X0215491Y0265478D01*
X0215491Y0266276D02*
X0229228Y0266276D01*
X0228430Y0267075D02*
X0215491Y0267075D01*
X0215491Y0267873D02*
X0227631Y0267873D01*
X0226833Y0268672D02*
X0215491Y0268672D01*
X0215491Y0269470D02*
X0226034Y0269470D01*
X0225236Y0270269D02*
X0215491Y0270269D01*
X0215491Y0271068D02*
X0224437Y0271068D01*
X0223639Y0271866D02*
X0215491Y0271866D01*
X0215491Y0272665D02*
X0222840Y0272665D01*
X0222042Y0273463D02*
X0215491Y0273463D01*
X0215400Y0274262D02*
X0221243Y0274262D01*
X0220445Y0275060D02*
X0214602Y0275060D01*
X0213803Y0275859D02*
X0219646Y0275859D01*
X0218848Y0276657D02*
X0213005Y0276657D01*
X0212206Y0277456D02*
X0218049Y0277456D01*
X0217251Y0278254D02*
X0211408Y0278254D01*
X0210609Y0279053D02*
X0216452Y0279053D01*
X0215654Y0279851D02*
X0208963Y0279851D01*
X0209333Y0277500D02*
X0205026Y0277500D01*
X0209333Y0277500D02*
X0213491Y0273343D01*
X0213491Y0225000D01*
X0209203Y0220761D02*
X0198094Y0220761D01*
X0198892Y0221560D02*
X0208405Y0221560D01*
X0208059Y0222358D02*
X0199237Y0222358D01*
X0199568Y0223157D02*
X0207728Y0223157D01*
X0207462Y0223955D02*
X0199835Y0223955D01*
X0199835Y0224754D02*
X0207462Y0224754D01*
X0207462Y0225552D02*
X0199835Y0225552D01*
X0199772Y0226351D02*
X0207524Y0226351D01*
X0207855Y0227149D02*
X0199441Y0227149D01*
X0199111Y0227948D02*
X0208186Y0227948D01*
X0208711Y0228746D02*
X0198586Y0228746D01*
X0197787Y0229545D02*
X0209509Y0229545D01*
X0210636Y0230343D02*
X0196660Y0230343D01*
X0195806Y0231142D02*
X0211491Y0231142D01*
X0211491Y0231940D02*
X0195806Y0231940D01*
X0195806Y0232739D02*
X0211491Y0232739D01*
X0211491Y0233537D02*
X0195806Y0233537D01*
X0195806Y0234336D02*
X0211491Y0234336D01*
X0211491Y0235134D02*
X0195806Y0235134D01*
X0195806Y0235933D02*
X0211491Y0235933D01*
X0211491Y0236732D02*
X0195806Y0236732D01*
X0195806Y0237530D02*
X0211491Y0237530D01*
X0211491Y0238329D02*
X0195806Y0238329D01*
X0195806Y0239127D02*
X0211491Y0239127D01*
X0211491Y0239926D02*
X0195806Y0239926D01*
X0195806Y0240724D02*
X0211491Y0240724D01*
X0211491Y0241523D02*
X0195806Y0241523D01*
X0195806Y0242321D02*
X0211491Y0242321D01*
X0211491Y0243120D02*
X0195806Y0243120D01*
X0195806Y0243918D02*
X0211491Y0243918D01*
X0211491Y0244717D02*
X0195806Y0244717D01*
X0195806Y0245515D02*
X0211491Y0245515D01*
X0211491Y0246314D02*
X0195806Y0246314D01*
X0195806Y0247112D02*
X0211491Y0247112D01*
X0211491Y0247911D02*
X0195806Y0247911D01*
X0195806Y0248709D02*
X0211491Y0248709D01*
X0211491Y0249508D02*
X0195806Y0249508D01*
X0195806Y0250306D02*
X0211491Y0250306D01*
X0211491Y0251105D02*
X0195806Y0251105D01*
X0196411Y0251903D02*
X0211491Y0251903D01*
X0211491Y0252702D02*
X0197210Y0252702D01*
X0198008Y0253500D02*
X0211491Y0253500D01*
X0211491Y0254299D02*
X0198807Y0254299D01*
X0199605Y0255097D02*
X0201141Y0255097D01*
X0199180Y0257500D02*
X0193806Y0252126D01*
X0193806Y0225000D01*
X0189518Y0220761D02*
X0150333Y0220761D01*
X0150333Y0219963D02*
X0190316Y0219963D01*
X0192140Y0219164D02*
X0160346Y0219164D01*
X0156321Y0219164D02*
X0150333Y0219164D01*
X0150333Y0218366D02*
X0154127Y0218366D01*
X0152883Y0217567D02*
X0150333Y0217567D01*
X0150333Y0216769D02*
X0151932Y0216769D01*
X0151042Y0215970D02*
X0150333Y0215970D01*
X0150333Y0215172D02*
X0150581Y0215172D01*
X0150333Y0221560D02*
X0188719Y0221560D01*
X0188374Y0222358D02*
X0150333Y0222358D01*
X0150333Y0223157D02*
X0188043Y0223157D01*
X0187777Y0223955D02*
X0150333Y0223955D01*
X0150333Y0224754D02*
X0187777Y0224754D01*
X0187777Y0225552D02*
X0150333Y0225552D01*
X0150333Y0226351D02*
X0187839Y0226351D01*
X0188170Y0227149D02*
X0150333Y0227149D01*
X0150333Y0227948D02*
X0188501Y0227948D01*
X0189026Y0228746D02*
X0150333Y0228746D01*
X0150333Y0229545D02*
X0189824Y0229545D01*
X0190951Y0230343D02*
X0150333Y0230343D01*
X0150333Y0231142D02*
X0191806Y0231142D01*
X0191806Y0231940D02*
X0150333Y0231940D01*
X0150333Y0232739D02*
X0191806Y0232739D01*
X0191806Y0233537D02*
X0150333Y0233537D01*
X0150333Y0234336D02*
X0191806Y0234336D01*
X0191806Y0235134D02*
X0150333Y0235134D01*
X0150333Y0235933D02*
X0191806Y0235933D01*
X0191806Y0236732D02*
X0150333Y0236732D01*
X0150333Y0237530D02*
X0191806Y0237530D01*
X0191806Y0238329D02*
X0150333Y0238329D01*
X0150333Y0239127D02*
X0191806Y0239127D01*
X0191806Y0239926D02*
X0150333Y0239926D01*
X0150333Y0240724D02*
X0191806Y0240724D01*
X0191806Y0241523D02*
X0150333Y0241523D01*
X0150333Y0242321D02*
X0191806Y0242321D01*
X0191806Y0243120D02*
X0150333Y0243120D01*
X0150333Y0243918D02*
X0191806Y0243918D01*
X0191806Y0244717D02*
X0150333Y0244717D01*
X0150333Y0245515D02*
X0191806Y0245515D01*
X0191806Y0246314D02*
X0150333Y0246314D01*
X0150333Y0247112D02*
X0191806Y0247112D01*
X0191806Y0247911D02*
X0150333Y0247911D01*
X0150333Y0248709D02*
X0191806Y0248709D01*
X0191806Y0249508D02*
X0150333Y0249508D01*
X0150333Y0250306D02*
X0150816Y0250306D01*
X0155851Y0250306D02*
X0191806Y0250306D01*
X0191806Y0251105D02*
X0156933Y0251105D01*
X0157732Y0251903D02*
X0191806Y0251903D01*
X0191806Y0252702D02*
X0158118Y0252702D01*
X0158449Y0253500D02*
X0192352Y0253500D01*
X0193150Y0254299D02*
X0158633Y0254299D01*
X0158633Y0255097D02*
X0193949Y0255097D01*
X0194747Y0255896D02*
X0158633Y0255896D01*
X0158368Y0256694D02*
X0187403Y0256694D01*
X0186516Y0257493D02*
X0158037Y0257493D01*
X0157537Y0258291D02*
X0186422Y0258291D01*
X0186422Y0259090D02*
X0156739Y0259090D01*
X0155381Y0259888D02*
X0189587Y0259888D01*
X0189587Y0259090D02*
X0190387Y0259090D01*
X0190387Y0258291D02*
X0189587Y0258291D01*
X0189587Y0257493D02*
X0190387Y0257493D01*
X0190387Y0256694D02*
X0189587Y0256694D01*
X0192571Y0256694D02*
X0193589Y0256694D01*
X0196680Y0260000D02*
X0179711Y0276969D01*
X0178333Y0276969D01*
X0181254Y0278254D02*
X0200676Y0278254D01*
X0200676Y0277456D02*
X0182053Y0277456D01*
X0182851Y0276657D02*
X0200676Y0276657D01*
X0200676Y0275859D02*
X0183650Y0275859D01*
X0184448Y0275060D02*
X0201178Y0275060D01*
X0200676Y0279053D02*
X0181242Y0279053D01*
X0181383Y0279851D02*
X0201090Y0279851D01*
X0200676Y0280650D02*
X0181366Y0280650D01*
X0181035Y0281448D02*
X0200676Y0281448D01*
X0200676Y0282247D02*
X0180400Y0282247D01*
X0185247Y0274262D02*
X0196259Y0274262D01*
X0195461Y0273463D02*
X0186045Y0273463D01*
X0186844Y0272665D02*
X0194662Y0272665D01*
X0193864Y0271866D02*
X0187642Y0271866D01*
X0188441Y0271068D02*
X0193065Y0271068D01*
X0190782Y0270269D02*
X0189239Y0270269D01*
X0190038Y0269470D02*
X0190138Y0269470D01*
X0192833Y0268007D02*
X0197326Y0272500D01*
X0205026Y0272500D01*
X0205026Y0267500D02*
X0197333Y0267500D01*
X0197291Y0267457D01*
X0198608Y0266140D01*
X0201038Y0266140D01*
X0202178Y0265000D01*
X0210333Y0265000D01*
X0209376Y0261485D02*
X0211491Y0261485D01*
X0211491Y0260687D02*
X0209376Y0260687D01*
X0208926Y0259888D02*
X0211491Y0259888D01*
X0211491Y0259090D02*
X0209376Y0259090D01*
X0209376Y0258291D02*
X0211491Y0258291D01*
X0211491Y0257493D02*
X0209376Y0257493D01*
X0209376Y0256694D02*
X0211491Y0256694D01*
X0211491Y0255896D02*
X0209376Y0255896D01*
X0208911Y0255097D02*
X0211491Y0255097D01*
X0205026Y0257500D02*
X0199180Y0257500D01*
X0196680Y0260000D01*
X0200023Y0263690D02*
X0201213Y0262500D01*
X0205026Y0262500D01*
X0190387Y0262284D02*
X0189587Y0262284D01*
X0189587Y0263082D02*
X0190387Y0263082D01*
X0189970Y0263881D02*
X0159402Y0263881D01*
X0159402Y0264679D02*
X0189172Y0264679D01*
X0186956Y0263082D02*
X0159402Y0263082D01*
X0159402Y0262284D02*
X0186457Y0262284D01*
X0186422Y0261485D02*
X0159402Y0261485D01*
X0159137Y0260687D02*
X0186422Y0260687D01*
X0189587Y0260687D02*
X0190387Y0260687D01*
X0190387Y0261485D02*
X0189587Y0261485D01*
X0185179Y0268672D02*
X0176383Y0268672D01*
X0176383Y0269470D02*
X0184381Y0269470D01*
X0168524Y0281448D02*
X0168143Y0281448D01*
X0168143Y0282247D02*
X0168524Y0282247D01*
X0168524Y0283045D02*
X0168143Y0283045D01*
X0163333Y0303346D02*
X0163333Y0304000D01*
X0167333Y0308000D01*
X0151616Y0312590D02*
X0150333Y0312590D01*
X0150333Y0311792D02*
X0150812Y0311792D01*
X0150443Y0310993D02*
X0150333Y0310993D01*
X0150333Y0319777D02*
X0191217Y0319777D01*
X0189987Y0320575D02*
X0150333Y0320575D01*
X0150333Y0321374D02*
X0189235Y0321374D01*
X0188704Y0322172D02*
X0150333Y0322172D01*
X0150333Y0322971D02*
X0188336Y0322971D01*
X0188099Y0323769D02*
X0150333Y0323769D01*
X0205026Y0282500D02*
X0215833Y0282500D01*
X0233176Y0291157D02*
X0236833Y0287500D01*
X0241640Y0287500D01*
X0237904Y0290232D02*
X0236930Y0290232D01*
X0237493Y0291030D02*
X0236131Y0291030D01*
X0233176Y0291157D02*
X0233176Y0325000D01*
X0237343Y0329359D02*
X0248693Y0329359D01*
X0247895Y0328560D02*
X0238142Y0328560D01*
X0238558Y0327762D02*
X0247479Y0327762D01*
X0247148Y0326963D02*
X0238889Y0326963D01*
X0239205Y0326165D02*
X0246832Y0326165D01*
X0246832Y0325366D02*
X0239205Y0325366D01*
X0239205Y0324568D02*
X0246832Y0324568D01*
X0246845Y0323769D02*
X0239192Y0323769D01*
X0238861Y0322971D02*
X0247176Y0322971D01*
X0247506Y0322172D02*
X0238530Y0322172D01*
X0238076Y0321374D02*
X0247961Y0321374D01*
X0248759Y0320575D02*
X0237278Y0320575D01*
X0236321Y0319777D02*
X0249716Y0319777D01*
X0251644Y0318978D02*
X0235176Y0318978D01*
X0230031Y0319777D02*
X0216636Y0319777D01*
X0217592Y0320575D02*
X0229074Y0320575D01*
X0228276Y0321374D02*
X0218391Y0321374D01*
X0218845Y0322172D02*
X0227821Y0322172D01*
X0227491Y0322971D02*
X0219176Y0322971D01*
X0219507Y0323769D02*
X0227160Y0323769D01*
X0227147Y0324568D02*
X0219520Y0324568D01*
X0219520Y0325366D02*
X0227147Y0325366D01*
X0227147Y0326165D02*
X0219520Y0326165D01*
X0219203Y0326963D02*
X0227463Y0326963D01*
X0227794Y0327762D02*
X0218873Y0327762D01*
X0218457Y0328560D02*
X0228210Y0328560D01*
X0229008Y0329359D02*
X0217658Y0329359D01*
X0216795Y0330157D02*
X0229872Y0330157D01*
X0231800Y0330956D02*
X0214867Y0330956D01*
X0234552Y0330956D02*
X0251485Y0330956D01*
X0249557Y0330157D02*
X0236480Y0330157D01*
X0241403Y0295023D02*
X0241878Y0295023D01*
X0241878Y0294224D02*
X0241403Y0294224D01*
X0241403Y0293426D02*
X0241878Y0293426D01*
X0245990Y0283045D02*
X0274372Y0283045D01*
X0274076Y0275859D02*
X0271902Y0275859D01*
X0273087Y0275060D02*
X0274140Y0275060D01*
X0270865Y0273031D02*
X0270833Y0273000D01*
X0270865Y0273031D02*
X0278333Y0273031D01*
X0287811Y0279851D02*
X0296333Y0279851D01*
X0296333Y0279053D02*
X0288609Y0279053D01*
X0289333Y0278254D02*
X0296333Y0278254D01*
X0296333Y0277456D02*
X0289333Y0277456D01*
X0289333Y0276657D02*
X0296333Y0276657D01*
X0296333Y0275859D02*
X0289333Y0275859D01*
X0289333Y0275060D02*
X0296333Y0275060D01*
X0296333Y0274262D02*
X0289333Y0274262D01*
X0289333Y0273463D02*
X0296333Y0273463D01*
X0296333Y0272665D02*
X0289333Y0272665D01*
X0289333Y0271866D02*
X0296333Y0271866D01*
X0296333Y0271068D02*
X0289333Y0271068D01*
X0289333Y0270269D02*
X0296333Y0270269D01*
X0296333Y0269470D02*
X0289333Y0269470D01*
X0289333Y0268672D02*
X0296333Y0268672D01*
X0268833Y0263082D02*
X0265245Y0263082D01*
X0265030Y0262284D02*
X0268833Y0262284D01*
X0268833Y0261485D02*
X0257869Y0261485D01*
X0258092Y0258291D02*
X0259042Y0258291D01*
X0261280Y0258291D02*
X0262080Y0258291D01*
X0262080Y0257493D02*
X0261280Y0257493D01*
X0261280Y0256694D02*
X0262080Y0256694D01*
X0262080Y0255896D02*
X0261280Y0255896D01*
X0262080Y0255097D02*
X0268833Y0255097D01*
X0268833Y0254299D02*
X0265245Y0254299D01*
X0265245Y0254600D02*
X0262080Y0254600D01*
X0262080Y0251631D01*
X0264029Y0251631D01*
X0264386Y0251727D01*
X0264705Y0251911D01*
X0264965Y0252172D01*
X0265150Y0252491D01*
X0265245Y0252847D01*
X0265245Y0254600D01*
X0265245Y0253500D02*
X0268833Y0253500D01*
X0268833Y0252702D02*
X0265206Y0252702D01*
X0264691Y0251903D02*
X0268833Y0251903D01*
X0268833Y0255896D02*
X0265245Y0255896D01*
X0265245Y0256694D02*
X0268833Y0256694D01*
X0268833Y0257493D02*
X0265154Y0257493D01*
X0264317Y0258291D02*
X0268833Y0258291D01*
X0268833Y0259090D02*
X0254383Y0259090D01*
X0254060Y0259888D02*
X0268833Y0259888D01*
X0268833Y0260687D02*
X0253460Y0260687D01*
X0251487Y0258500D02*
X0251333Y0258500D01*
X0251487Y0258500D02*
X0254987Y0255000D01*
X0250333Y0255000D01*
X0247833Y0257500D01*
X0241640Y0257500D01*
X0245525Y0255097D02*
X0247408Y0255097D01*
X0247333Y0262500D02*
X0241640Y0262500D01*
X0241640Y0267500D02*
X0245833Y0267500D01*
X0248333Y0270000D01*
X0250833Y0268000D02*
X0253833Y0265000D01*
X0254987Y0265000D01*
X0249833Y0265000D01*
X0247333Y0262500D01*
X0250333Y0272665D02*
X0251222Y0272665D01*
X0261280Y0263881D02*
X0262080Y0263881D01*
X0262080Y0263082D02*
X0261280Y0263082D01*
X0261280Y0262284D02*
X0262080Y0262284D01*
X0262080Y0254299D02*
X0261280Y0254299D01*
X0261280Y0253500D02*
X0262080Y0253500D01*
X0262080Y0252702D02*
X0261280Y0252702D01*
X0261280Y0251903D02*
X0262080Y0251903D01*
X0258669Y0251903D02*
X0258287Y0251903D01*
X0273572Y0235933D02*
X0235176Y0235933D01*
X0235176Y0235134D02*
X0274370Y0235134D01*
X0275169Y0234336D02*
X0235176Y0234336D01*
X0235176Y0233537D02*
X0275967Y0233537D01*
X0290346Y0219164D02*
X0296333Y0219164D01*
X0296333Y0218366D02*
X0292540Y0218366D01*
X0293783Y0217567D02*
X0296333Y0217567D01*
X0296333Y0216769D02*
X0294735Y0216769D01*
X0295625Y0215970D02*
X0296333Y0215970D01*
X0296333Y0215172D02*
X0296086Y0215172D01*
X0296333Y0219963D02*
X0294131Y0219963D01*
X0296176Y0220761D02*
X0296333Y0220761D01*
X0231510Y0219164D02*
X0215157Y0219164D01*
X0216980Y0219963D02*
X0229687Y0219963D01*
X0211825Y0219164D02*
X0195472Y0219164D01*
X0197295Y0219963D02*
X0210002Y0219963D01*
X0290676Y0330956D02*
X0296333Y0330956D01*
X0296333Y0331754D02*
X0292870Y0331754D01*
X0293926Y0332553D02*
X0296333Y0332553D01*
X0296333Y0333351D02*
X0294878Y0333351D01*
X0295694Y0334150D02*
X0296333Y0334150D01*
X0296333Y0334948D02*
X0296155Y0334948D01*
D20*
X0250833Y0278000D03*
X0250833Y0268000D03*
X0251333Y0258500D03*
X0270833Y0273000D03*
X0274833Y0264000D03*
X0210333Y0265000D03*
X0200023Y0263690D03*
X0197291Y0267457D03*
X0192833Y0268007D03*
X0178333Y0280000D03*
X0173833Y0273000D03*
X0173333Y0269000D03*
X0167333Y0308000D03*
X0153333Y0310000D03*
M02*
