G75*
%MOIN*%
%OFA0B0*%
%FSLAX25Y25*%
%IPPOS*%
%LPD*%
%AMOC8*
5,1,8,0,0,1.08239X$1,22.5*
%
%ADD10C,0.00299*%
%ADD11C,0.00039*%
%ADD12C,0.00600*%
%ADD13C,0.00800*%
%ADD14R,0.08346X0.00157*%
%ADD15R,0.09291X0.00157*%
%ADD16R,0.09921X0.00157*%
%ADD17R,0.10551X0.00157*%
%ADD18R,0.10866X0.00157*%
%ADD19R,0.11181X0.00157*%
%ADD20R,0.11496X0.00157*%
%ADD21R,0.11811X0.00157*%
%ADD22R,0.04567X0.00157*%
%ADD23R,0.03150X0.00157*%
%ADD24R,0.02992X0.00157*%
%ADD25R,0.04409X0.00157*%
%ADD26R,0.02835X0.00157*%
%ADD27R,0.02520X0.00157*%
%ADD28R,0.02362X0.00157*%
%ADD29R,0.01890X0.00157*%
%ADD30R,0.03307X0.00157*%
%ADD31R,0.01732X0.00157*%
%ADD32R,0.01417X0.00157*%
%ADD33R,0.03465X0.00157*%
%ADD34R,0.01260X0.00157*%
%ADD35R,0.04252X0.00157*%
%ADD36R,0.00157X0.00157*%
%ADD37R,0.02047X0.00157*%
%ADD38R,0.04094X0.00157*%
%ADD39R,0.00315X0.00157*%
%ADD40R,0.00472X0.00157*%
%ADD41R,0.03937X0.00157*%
%ADD42R,0.00630X0.00157*%
%ADD43R,0.03780X0.00157*%
%ADD44R,0.01575X0.00157*%
%ADD45R,0.02205X0.00157*%
%ADD46R,0.01102X0.00276*%
%ADD47R,0.01654X0.00276*%
%ADD48R,0.01929X0.00276*%
%ADD49R,0.02480X0.00276*%
%ADD50R,0.00276X0.00276*%
%ADD51R,0.03031X0.00315*%
%ADD52R,0.01654X0.00315*%
%ADD53R,0.03583X0.00315*%
%ADD54R,0.03858X0.00315*%
%ADD55R,0.01378X0.00315*%
%ADD56R,0.03307X0.00315*%
%ADD57R,0.04134X0.00276*%
%ADD58R,0.04685X0.00276*%
%ADD59R,0.03858X0.00276*%
%ADD60R,0.04685X0.00236*%
%ADD61R,0.01654X0.00236*%
%ADD62R,0.04961X0.00236*%
%ADD63R,0.01929X0.00236*%
%ADD64R,0.05236X0.00315*%
%ADD65R,0.01929X0.00315*%
%ADD66R,0.05512X0.00315*%
%ADD67R,0.05787X0.00276*%
%ADD68R,0.00551X0.00276*%
%ADD69R,0.05512X0.00276*%
%ADD70R,0.06063X0.00276*%
%ADD71R,0.06339X0.00276*%
%ADD72R,0.02205X0.00236*%
%ADD73R,0.02480X0.00236*%
%ADD74R,0.01102X0.00236*%
%ADD75R,0.02205X0.00315*%
%ADD76R,0.01102X0.00315*%
%ADD77R,0.00276X0.00315*%
%ADD78R,0.02205X0.00276*%
%ADD79R,0.03307X0.00276*%
%ADD80R,0.02756X0.00276*%
%ADD81R,0.04409X0.00276*%
%ADD82R,0.01378X0.00276*%
%ADD83R,0.06614X0.00315*%
%ADD84R,0.00551X0.00315*%
%ADD85R,0.05236X0.00276*%
%ADD86R,0.04961X0.00276*%
%ADD87R,0.03031X0.00276*%
%ADD88R,0.07165X0.00276*%
%ADD89R,0.06890X0.00236*%
%ADD90R,0.04134X0.00236*%
%ADD91R,0.05236X0.00236*%
%ADD92R,0.06614X0.00276*%
%ADD93R,0.02756X0.00236*%
%ADD94R,0.01378X0.00236*%
%ADD95R,0.00827X0.00276*%
%ADD96R,0.10236X0.00157*%
%ADD97R,0.12126X0.00157*%
%ADD98R,0.12441X0.00157*%
%ADD99R,0.08189X0.00157*%
%ADD100R,0.02677X0.00157*%
%ADD101R,0.03622X0.00157*%
%ADD102R,0.00787X0.00157*%
%ADD103R,0.00945X0.00157*%
%ADD104R,0.01102X0.00157*%
%ADD105R,0.09606X0.00157*%
%ADD106R,0.11024X0.00157*%
%ADD107R,0.00157X0.20315*%
%ADD108R,0.00157X0.05827*%
%ADD109R,0.00157X0.07087*%
%ADD110R,0.00157X0.05354*%
%ADD111R,0.00157X0.01102*%
%ADD112R,0.00157X0.02362*%
%ADD113R,0.00157X0.05197*%
%ADD114R,0.00157X0.00787*%
%ADD115R,0.00157X0.05039*%
%ADD116R,0.00157X0.00630*%
%ADD117R,0.00157X0.02047*%
%ADD118R,0.00157X0.04882*%
%ADD119R,0.00157X0.00472*%
%ADD120R,0.00157X0.01890*%
%ADD121R,0.00157X0.00315*%
%ADD122R,0.00157X0.01732*%
%ADD123R,0.00157X0.04724*%
%ADD124R,0.00157X0.01575*%
%ADD125R,0.00157X0.01417*%
%ADD126R,0.00157X0.01260*%
%ADD127R,0.00157X0.00945*%
%ADD128R,0.00157X0.02205*%
%ADD129R,0.00157X0.06457*%
%ADD130R,0.00157X0.02992*%
%ADD131R,0.00157X0.02520*%
%ADD132R,0.00157X0.05512*%
%ADD133R,0.00157X0.20945*%
%ADD134R,0.00157X0.06142*%
%ADD135R,0.00157X0.13858*%
%ADD136R,0.00157X0.02835*%
%ADD137R,0.00157X0.04567*%
%ADD138R,0.00157X0.05669*%
%ADD139R,0.00157X0.05984*%
%ADD140R,0.00157X0.10079*%
%ADD141R,0.00157X0.09606*%
%ADD142R,0.00157X0.09449*%
%ADD143R,0.00157X0.09291*%
%ADD144R,0.00157X0.09134*%
%ADD145R,0.00157X0.08976*%
%ADD146R,0.00157X0.10709*%
%ADD147R,0.00157X0.09764*%
%ADD148R,0.00157X0.23780*%
%ADD149R,0.00157X0.11496*%
%ADD150R,0.00157X0.11654*%
%ADD151R,0.00157X0.11024*%
%ADD152R,0.00157X0.11181*%
%ADD153R,0.00157X0.10866*%
%ADD154R,0.00157X0.10551*%
%ADD155R,0.00157X0.10394*%
%ADD156R,0.00157X0.10236*%
%ADD157R,0.00157X0.11969*%
%ADD158R,0.00157X0.11811*%
%ADD159R,0.00157X0.11339*%
%ADD160R,0.00157X0.19685*%
%ADD161R,0.00157X0.09921*%
%ADD162R,0.00157X0.08819*%
%ADD163R,0.07205X0.00118*%
%ADD164R,0.07913X0.00118*%
%ADD165R,0.08386X0.00079*%
%ADD166R,0.08858X0.00157*%
%ADD167R,0.09094X0.00118*%
%ADD168R,0.09331X0.00118*%
%ADD169R,0.09567X0.00079*%
%ADD170R,0.03661X0.00118*%
%ADD171R,0.02126X0.00118*%
%ADD172R,0.02953X0.00118*%
%ADD173R,0.02244X0.00157*%
%ADD174R,0.00591X0.00157*%
%ADD175R,0.01535X0.00157*%
%ADD176R,0.02598X0.00157*%
%ADD177R,0.02244X0.00118*%
%ADD178R,0.00472X0.00118*%
%ADD179R,0.01181X0.00118*%
%ADD180R,0.02362X0.00118*%
%ADD181R,0.00945X0.00118*%
%ADD182R,0.00354X0.00118*%
%ADD183R,0.00827X0.00118*%
%ADD184R,0.02480X0.00157*%
%ADD185R,0.00354X0.00157*%
%ADD186R,0.00236X0.00157*%
%ADD187R,0.02480X0.00118*%
%ADD188R,0.02598X0.00118*%
%ADD189R,0.01063X0.00118*%
%ADD190R,0.02835X0.00118*%
%ADD191R,0.04370X0.00118*%
%ADD192R,0.00591X0.00118*%
%ADD193R,0.04488X0.00118*%
%ADD194R,0.00709X0.00157*%
%ADD195R,0.04488X0.00157*%
%ADD196R,0.00236X0.00118*%
%ADD197R,0.00118X0.00118*%
%ADD198R,0.00118X0.00157*%
%ADD199R,0.04370X0.00157*%
%ADD200R,0.04252X0.00118*%
%ADD201R,0.02717X0.00118*%
%ADD202R,0.03071X0.00157*%
%ADD203R,0.03425X0.00118*%
%ADD204R,0.09567X0.00118*%
%ADD205R,0.08858X0.00118*%
%ADD206R,0.08386X0.00118*%
%ADD207R,0.14331X0.00157*%
%ADD208R,0.14173X0.00157*%
%ADD209R,0.14016X0.00157*%
%ADD210R,0.13858X0.00157*%
%ADD211R,0.13701X0.00157*%
%ADD212R,0.13543X0.00157*%
%ADD213R,0.13386X0.00157*%
%ADD214R,0.13228X0.00157*%
%ADD215R,0.12913X0.00157*%
%ADD216R,0.14488X0.00157*%
%ADD217R,0.07087X0.00157*%
%ADD218R,0.04882X0.00157*%
%ADD219R,0.05039X0.00157*%
%ADD220R,0.05197X0.00157*%
%ADD221R,0.14646X0.00157*%
%ADD222R,0.14961X0.00157*%
%ADD223R,0.15118X0.00157*%
%ADD224R,0.15276X0.00157*%
%ADD225R,0.15433X0.00157*%
%ADD226R,0.11969X0.00157*%
D10*
X0205355Y0266092D02*
X0204449Y0266998D01*
X0205276Y0268100D01*
X0205236Y0268179D01*
X0207631Y0268179D01*
X0207741Y0268477D02*
X0205068Y0268477D01*
X0205079Y0268454D02*
X0205040Y0268533D01*
X0205040Y0268572D01*
X0204961Y0268730D01*
X0204961Y0268769D01*
X0204922Y0268848D01*
X0204922Y0268887D01*
X0204882Y0268966D01*
X0204882Y0269045D01*
X0204843Y0269084D01*
X0203465Y0269320D01*
X0203465Y0270580D01*
X0204882Y0270816D01*
X0204882Y0270974D01*
X0204922Y0271013D01*
X0204922Y0271092D01*
X0204961Y0271131D01*
X0205000Y0271210D01*
X0205000Y0271289D01*
X0205040Y0271328D01*
X0205040Y0271407D01*
X0205079Y0271446D01*
X0205118Y0271525D01*
X0205158Y0271564D01*
X0205158Y0271643D01*
X0205197Y0271683D01*
X0205236Y0271761D01*
X0205276Y0271801D01*
X0204449Y0272942D01*
X0212205Y0272942D01*
X0211418Y0271801D01*
X0211457Y0271761D01*
X0211457Y0271683D01*
X0211496Y0271643D01*
X0211536Y0271564D01*
X0211575Y0271525D01*
X0211575Y0271446D01*
X0211614Y0271407D01*
X0211654Y0271328D01*
X0211654Y0271289D01*
X0211733Y0271131D01*
X0211733Y0271092D01*
X0211772Y0271013D01*
X0211772Y0270974D01*
X0211811Y0270895D01*
X0211811Y0270816D01*
X0213189Y0270580D01*
X0213189Y0269320D01*
X0211811Y0269084D01*
X0211811Y0269045D01*
X0211772Y0268966D01*
X0211772Y0268887D01*
X0211733Y0268848D01*
X0211733Y0268769D01*
X0211693Y0268730D01*
X0211654Y0268651D01*
X0211654Y0268572D01*
X0211614Y0268533D01*
X0211614Y0268454D01*
X0211575Y0268415D01*
X0211536Y0268336D01*
X0211496Y0268297D01*
X0211457Y0268218D01*
X0211457Y0268179D01*
X0209023Y0268179D01*
X0208913Y0268477D02*
X0211614Y0268477D01*
X0211733Y0268774D02*
X0208947Y0268774D01*
X0208937Y0268769D02*
X0209095Y0268848D01*
X0209173Y0268927D01*
X0209252Y0268966D01*
X0209331Y0269045D01*
X0209370Y0269123D01*
X0209449Y0269202D01*
X0209528Y0269360D01*
X0209567Y0269478D01*
X0209646Y0269635D01*
X0209646Y0269753D01*
X0209685Y0269872D01*
X0209685Y0270108D01*
X0209528Y0270580D01*
X0209370Y0270816D01*
X0209292Y0270895D01*
X0209173Y0270974D01*
X0209095Y0271053D01*
X0208977Y0271131D01*
X0208859Y0271171D01*
X0208740Y0271249D01*
X0208622Y0271249D01*
X0208465Y0271289D01*
X0208189Y0271289D01*
X0208071Y0271249D01*
X0207953Y0271249D01*
X0207835Y0271171D01*
X0207717Y0271131D01*
X0207481Y0270974D01*
X0207323Y0270816D01*
X0207166Y0270580D01*
X0207126Y0270462D01*
X0207048Y0270344D01*
X0207048Y0270226D01*
X0207008Y0270108D01*
X0207008Y0269753D01*
X0207048Y0269635D01*
X0207048Y0269557D01*
X0207087Y0269478D01*
X0207126Y0269360D01*
X0207166Y0269281D01*
X0207244Y0269202D01*
X0207284Y0269123D01*
X0207441Y0268966D01*
X0207520Y0268927D01*
X0207599Y0268848D01*
X0207835Y0268730D01*
X0207048Y0266604D01*
X0207048Y0266643D01*
X0206969Y0266643D01*
X0206929Y0266683D01*
X0206890Y0266683D01*
X0206851Y0266722D01*
X0206811Y0266722D01*
X0206772Y0266761D01*
X0206693Y0266761D01*
X0206654Y0266801D01*
X0206614Y0266801D01*
X0206536Y0266879D01*
X0206496Y0266879D01*
X0205355Y0266092D01*
X0205352Y0266095D02*
X0205359Y0266095D01*
X0205054Y0266392D02*
X0205790Y0266392D01*
X0206222Y0266690D02*
X0204756Y0266690D01*
X0204459Y0266988D02*
X0207190Y0266988D01*
X0207300Y0267286D02*
X0204665Y0267286D01*
X0204888Y0267583D02*
X0207410Y0267583D01*
X0207521Y0267881D02*
X0205112Y0267881D01*
X0205236Y0268179D02*
X0205197Y0268218D01*
X0205158Y0268297D01*
X0205158Y0268336D01*
X0205118Y0268415D01*
X0205079Y0268454D01*
X0204958Y0268774D02*
X0207746Y0268774D01*
X0207335Y0269072D02*
X0204855Y0269072D01*
X0203465Y0269370D02*
X0207123Y0269370D01*
X0207037Y0269667D02*
X0203465Y0269667D01*
X0203465Y0269965D02*
X0207008Y0269965D01*
X0207048Y0270263D02*
X0203465Y0270263D01*
X0203465Y0270561D02*
X0207159Y0270561D01*
X0207365Y0270858D02*
X0204882Y0270858D01*
X0204973Y0271156D02*
X0207791Y0271156D01*
X0208903Y0271156D02*
X0211720Y0271156D01*
X0211811Y0270858D02*
X0209328Y0270858D01*
X0209534Y0270561D02*
X0213189Y0270561D01*
X0213189Y0270263D02*
X0209634Y0270263D01*
X0209685Y0269965D02*
X0213189Y0269965D01*
X0213189Y0269667D02*
X0209646Y0269667D01*
X0209531Y0269370D02*
X0213189Y0269370D01*
X0211811Y0269072D02*
X0209345Y0269072D01*
X0208937Y0268769D02*
X0208819Y0268730D01*
X0209607Y0266604D01*
X0209646Y0266643D01*
X0209725Y0266643D01*
X0209764Y0266683D01*
X0209803Y0266683D01*
X0209843Y0266722D01*
X0209882Y0266722D01*
X0209922Y0266761D01*
X0209961Y0266761D01*
X0210000Y0266801D01*
X0210040Y0266801D01*
X0210079Y0266840D01*
X0210118Y0266840D01*
X0210158Y0266879D01*
X0210197Y0266879D01*
X0211339Y0266092D01*
X0212205Y0266998D01*
X0211418Y0268100D01*
X0211457Y0268179D01*
X0211574Y0267881D02*
X0209134Y0267881D01*
X0209244Y0267583D02*
X0211787Y0267583D01*
X0211999Y0267286D02*
X0209354Y0267286D01*
X0209464Y0266988D02*
X0212196Y0266988D01*
X0211911Y0266690D02*
X0210472Y0266690D01*
X0210903Y0266392D02*
X0211626Y0266392D01*
X0211341Y0266095D02*
X0211335Y0266095D01*
X0209811Y0266690D02*
X0209575Y0266690D01*
X0207079Y0266690D02*
X0206882Y0266690D01*
X0205083Y0271454D02*
X0211575Y0271454D01*
X0211457Y0271751D02*
X0205232Y0271751D01*
X0205096Y0272049D02*
X0211589Y0272049D01*
X0211794Y0272347D02*
X0204880Y0272347D01*
X0204665Y0272645D02*
X0212000Y0272645D01*
X0212205Y0272942D02*
X0211339Y0273809D01*
X0210197Y0273021D01*
X0210118Y0273061D01*
X0210079Y0273100D01*
X0210000Y0273100D01*
X0209961Y0273139D01*
X0209882Y0273179D01*
X0209843Y0273218D01*
X0209764Y0273218D01*
X0209725Y0273257D01*
X0209646Y0273297D01*
X0209607Y0273297D01*
X0209528Y0273336D01*
X0209449Y0273336D01*
X0209410Y0273375D01*
X0209331Y0273375D01*
X0209252Y0273415D01*
X0209213Y0273415D01*
X0208977Y0274793D01*
X0207717Y0274793D01*
X0207481Y0273415D01*
X0207402Y0273415D01*
X0207323Y0273375D01*
X0207284Y0273375D01*
X0207205Y0273336D01*
X0207166Y0273336D01*
X0207087Y0273297D01*
X0207008Y0273297D01*
X0206969Y0273257D01*
X0206890Y0273218D01*
X0206851Y0273218D01*
X0206772Y0273179D01*
X0206733Y0273139D01*
X0206654Y0273100D01*
X0206614Y0273100D01*
X0206536Y0273061D01*
X0206496Y0273021D01*
X0205355Y0273809D01*
X0204449Y0272942D01*
X0204760Y0273240D02*
X0206179Y0273240D01*
X0205747Y0273538D02*
X0205072Y0273538D01*
X0206934Y0273240D02*
X0209742Y0273240D01*
X0209192Y0273538D02*
X0207502Y0273538D01*
X0207553Y0273836D02*
X0209141Y0273836D01*
X0209090Y0274133D02*
X0207604Y0274133D01*
X0207655Y0274431D02*
X0209039Y0274431D01*
X0208988Y0274729D02*
X0207706Y0274729D01*
X0210515Y0273240D02*
X0211907Y0273240D01*
X0211610Y0273538D02*
X0210946Y0273538D01*
D11*
X0214833Y0273528D02*
X0241833Y0273528D01*
X0241833Y0273566D02*
X0214833Y0273566D01*
X0214833Y0273604D02*
X0241833Y0273604D01*
X0241833Y0273641D02*
X0214833Y0273641D01*
X0214833Y0273679D02*
X0241833Y0273679D01*
X0241833Y0273717D02*
X0214833Y0273717D01*
X0214833Y0273737D02*
X0220865Y0273737D01*
X0241833Y0273737D01*
X0241833Y0266263D01*
X0221108Y0266263D01*
X0214833Y0266263D01*
X0214833Y0269636D01*
X0217098Y0269636D01*
X0216110Y0268188D01*
X0217047Y0268188D01*
X0217860Y0269430D01*
X0218678Y0268188D01*
X0219583Y0268188D01*
X0218589Y0269636D01*
X0220865Y0269636D01*
X0220865Y0266957D01*
X0221108Y0266957D01*
X0221108Y0266263D01*
X0221108Y0266957D01*
X0241139Y0266957D01*
X0241139Y0273043D01*
X0220865Y0273043D01*
X0220865Y0269636D01*
X0218589Y0269636D01*
X0218319Y0270030D01*
X0219529Y0271809D01*
X0218597Y0271809D01*
X0217836Y0270634D01*
X0217069Y0271809D01*
X0216164Y0271809D01*
X0217374Y0270041D01*
X0217098Y0269636D01*
X0214833Y0269636D01*
X0214833Y0273737D01*
X0214833Y0273490D02*
X0241833Y0273490D01*
X0241833Y0273452D02*
X0214833Y0273452D01*
X0214833Y0273414D02*
X0241833Y0273414D01*
X0241833Y0273376D02*
X0214833Y0273376D01*
X0214833Y0273338D02*
X0241833Y0273338D01*
X0241833Y0273301D02*
X0214833Y0273301D01*
X0214833Y0273263D02*
X0241833Y0273263D01*
X0241833Y0273225D02*
X0214833Y0273225D01*
X0214833Y0273187D02*
X0241833Y0273187D01*
X0241833Y0273149D02*
X0214833Y0273149D01*
X0214833Y0273111D02*
X0241833Y0273111D01*
X0241833Y0273073D02*
X0214833Y0273073D01*
X0214833Y0273035D02*
X0220865Y0273035D01*
X0220865Y0272997D02*
X0214833Y0272997D01*
X0214833Y0272960D02*
X0220865Y0272960D01*
X0220865Y0272922D02*
X0214833Y0272922D01*
X0214833Y0272884D02*
X0220865Y0272884D01*
X0220865Y0272846D02*
X0214833Y0272846D01*
X0214833Y0272808D02*
X0220865Y0272808D01*
X0220865Y0272770D02*
X0214833Y0272770D01*
X0214833Y0272732D02*
X0220865Y0272732D01*
X0220865Y0272694D02*
X0214833Y0272694D01*
X0214833Y0272657D02*
X0220865Y0272657D01*
X0220865Y0272619D02*
X0214833Y0272619D01*
X0214833Y0272581D02*
X0220865Y0272581D01*
X0220865Y0272543D02*
X0214833Y0272543D01*
X0214833Y0272505D02*
X0220865Y0272505D01*
X0220865Y0272467D02*
X0214833Y0272467D01*
X0214833Y0272429D02*
X0220865Y0272429D01*
X0220865Y0272391D02*
X0214833Y0272391D01*
X0214833Y0272353D02*
X0220865Y0272353D01*
X0220865Y0272316D02*
X0214833Y0272316D01*
X0214833Y0272278D02*
X0220865Y0272278D01*
X0220865Y0272240D02*
X0214833Y0272240D01*
X0214833Y0272202D02*
X0220865Y0272202D01*
X0220865Y0272164D02*
X0214833Y0272164D01*
X0214833Y0272126D02*
X0220865Y0272126D01*
X0220865Y0272088D02*
X0214833Y0272088D01*
X0214833Y0272050D02*
X0220865Y0272050D01*
X0220865Y0272013D02*
X0214833Y0272013D01*
X0214833Y0271975D02*
X0220865Y0271975D01*
X0220865Y0271937D02*
X0214833Y0271937D01*
X0214833Y0271899D02*
X0220865Y0271899D01*
X0220865Y0271861D02*
X0214833Y0271861D01*
X0214833Y0271823D02*
X0220865Y0271823D01*
X0220865Y0271785D02*
X0219512Y0271785D01*
X0219487Y0271747D02*
X0220865Y0271747D01*
X0220865Y0271709D02*
X0219461Y0271709D01*
X0219435Y0271672D02*
X0220865Y0271672D01*
X0220865Y0271634D02*
X0219409Y0271634D01*
X0219384Y0271596D02*
X0220865Y0271596D01*
X0220865Y0271558D02*
X0219358Y0271558D01*
X0219332Y0271520D02*
X0220865Y0271520D01*
X0220865Y0271482D02*
X0219306Y0271482D01*
X0219281Y0271444D02*
X0220865Y0271444D01*
X0220865Y0271406D02*
X0219255Y0271406D01*
X0219229Y0271369D02*
X0220865Y0271369D01*
X0220865Y0271331D02*
X0219203Y0271331D01*
X0219178Y0271293D02*
X0220865Y0271293D01*
X0220865Y0271255D02*
X0219152Y0271255D01*
X0219126Y0271217D02*
X0220865Y0271217D01*
X0220865Y0271179D02*
X0219100Y0271179D01*
X0219075Y0271141D02*
X0220865Y0271141D01*
X0220865Y0271103D02*
X0219049Y0271103D01*
X0219023Y0271066D02*
X0220865Y0271066D01*
X0220865Y0271028D02*
X0218997Y0271028D01*
X0218972Y0270990D02*
X0220865Y0270990D01*
X0220865Y0270952D02*
X0218946Y0270952D01*
X0218920Y0270914D02*
X0220865Y0270914D01*
X0220865Y0270876D02*
X0218894Y0270876D01*
X0218869Y0270838D02*
X0220865Y0270838D01*
X0220865Y0270800D02*
X0218843Y0270800D01*
X0218817Y0270762D02*
X0220865Y0270762D01*
X0220865Y0270725D02*
X0218791Y0270725D01*
X0218766Y0270687D02*
X0220865Y0270687D01*
X0220865Y0270649D02*
X0218740Y0270649D01*
X0218714Y0270611D02*
X0220865Y0270611D01*
X0220865Y0270573D02*
X0218688Y0270573D01*
X0218663Y0270535D02*
X0220865Y0270535D01*
X0220865Y0270497D02*
X0218637Y0270497D01*
X0218611Y0270459D02*
X0220865Y0270459D01*
X0220865Y0270422D02*
X0218585Y0270422D01*
X0218560Y0270384D02*
X0220865Y0270384D01*
X0220865Y0270346D02*
X0218534Y0270346D01*
X0218508Y0270308D02*
X0220865Y0270308D01*
X0220865Y0270270D02*
X0218482Y0270270D01*
X0218457Y0270232D02*
X0220865Y0270232D01*
X0220865Y0270194D02*
X0218431Y0270194D01*
X0218405Y0270156D02*
X0220865Y0270156D01*
X0220865Y0270118D02*
X0218379Y0270118D01*
X0218354Y0270081D02*
X0220865Y0270081D01*
X0220865Y0270043D02*
X0218328Y0270043D01*
X0218336Y0270005D02*
X0220865Y0270005D01*
X0220865Y0269967D02*
X0218362Y0269967D01*
X0218388Y0269929D02*
X0220865Y0269929D01*
X0220865Y0269891D02*
X0218414Y0269891D01*
X0218440Y0269853D02*
X0220865Y0269853D01*
X0220865Y0269815D02*
X0218466Y0269815D01*
X0218492Y0269778D02*
X0220865Y0269778D01*
X0220865Y0269740D02*
X0218518Y0269740D01*
X0218544Y0269702D02*
X0220865Y0269702D01*
X0220865Y0269664D02*
X0218570Y0269664D01*
X0218596Y0269626D02*
X0220865Y0269626D01*
X0220865Y0269588D02*
X0218622Y0269588D01*
X0218648Y0269550D02*
X0220865Y0269550D01*
X0220865Y0269512D02*
X0218674Y0269512D01*
X0218700Y0269474D02*
X0220865Y0269474D01*
X0220865Y0269437D02*
X0218726Y0269437D01*
X0218752Y0269399D02*
X0220865Y0269399D01*
X0220865Y0269361D02*
X0218778Y0269361D01*
X0218804Y0269323D02*
X0220865Y0269323D01*
X0220865Y0269285D02*
X0218830Y0269285D01*
X0218856Y0269247D02*
X0220865Y0269247D01*
X0220865Y0269209D02*
X0218882Y0269209D01*
X0218908Y0269171D02*
X0220865Y0269171D01*
X0220865Y0269134D02*
X0218934Y0269134D01*
X0218960Y0269096D02*
X0220865Y0269096D01*
X0220865Y0269058D02*
X0218986Y0269058D01*
X0219012Y0269020D02*
X0220865Y0269020D01*
X0220865Y0268982D02*
X0219038Y0268982D01*
X0219064Y0268944D02*
X0220865Y0268944D01*
X0220865Y0268906D02*
X0219090Y0268906D01*
X0219116Y0268868D02*
X0220865Y0268868D01*
X0220865Y0268830D02*
X0219142Y0268830D01*
X0219168Y0268793D02*
X0220865Y0268793D01*
X0220865Y0268755D02*
X0219194Y0268755D01*
X0219220Y0268717D02*
X0220865Y0268717D01*
X0220865Y0268679D02*
X0219246Y0268679D01*
X0219272Y0268641D02*
X0220865Y0268641D01*
X0220865Y0268603D02*
X0219298Y0268603D01*
X0219324Y0268565D02*
X0220865Y0268565D01*
X0220865Y0268527D02*
X0219350Y0268527D01*
X0219376Y0268490D02*
X0220865Y0268490D01*
X0220865Y0268452D02*
X0219402Y0268452D01*
X0219428Y0268414D02*
X0220865Y0268414D01*
X0220865Y0268376D02*
X0219454Y0268376D01*
X0219480Y0268338D02*
X0220865Y0268338D01*
X0220865Y0268300D02*
X0219506Y0268300D01*
X0219532Y0268262D02*
X0220865Y0268262D01*
X0220865Y0268224D02*
X0219558Y0268224D01*
X0218654Y0268224D02*
X0217071Y0268224D01*
X0217096Y0268262D02*
X0218629Y0268262D01*
X0218604Y0268300D02*
X0217121Y0268300D01*
X0217145Y0268338D02*
X0218579Y0268338D01*
X0218555Y0268376D02*
X0217170Y0268376D01*
X0217195Y0268414D02*
X0218530Y0268414D01*
X0218505Y0268452D02*
X0217220Y0268452D01*
X0217244Y0268490D02*
X0218480Y0268490D01*
X0218455Y0268527D02*
X0217269Y0268527D01*
X0217294Y0268565D02*
X0218430Y0268565D01*
X0218405Y0268603D02*
X0217319Y0268603D01*
X0217344Y0268641D02*
X0218380Y0268641D01*
X0218355Y0268679D02*
X0217368Y0268679D01*
X0217393Y0268717D02*
X0218330Y0268717D01*
X0218305Y0268755D02*
X0217418Y0268755D01*
X0217443Y0268793D02*
X0218280Y0268793D01*
X0218255Y0268830D02*
X0217468Y0268830D01*
X0217492Y0268868D02*
X0218230Y0268868D01*
X0218205Y0268906D02*
X0217517Y0268906D01*
X0217542Y0268944D02*
X0218180Y0268944D01*
X0218155Y0268982D02*
X0217567Y0268982D01*
X0217591Y0269020D02*
X0218130Y0269020D01*
X0218105Y0269058D02*
X0217616Y0269058D01*
X0217641Y0269096D02*
X0218080Y0269096D01*
X0218055Y0269134D02*
X0217666Y0269134D01*
X0217691Y0269171D02*
X0218031Y0269171D01*
X0218006Y0269209D02*
X0217715Y0269209D01*
X0217740Y0269247D02*
X0217981Y0269247D01*
X0217956Y0269285D02*
X0217765Y0269285D01*
X0217790Y0269323D02*
X0217931Y0269323D01*
X0217906Y0269361D02*
X0217815Y0269361D01*
X0217839Y0269399D02*
X0217881Y0269399D01*
X0217246Y0269853D02*
X0214833Y0269853D01*
X0214833Y0269815D02*
X0217220Y0269815D01*
X0217195Y0269778D02*
X0214833Y0269778D01*
X0214833Y0269740D02*
X0217169Y0269740D01*
X0217143Y0269702D02*
X0214833Y0269702D01*
X0214833Y0269664D02*
X0217117Y0269664D01*
X0217091Y0269626D02*
X0214833Y0269626D01*
X0214833Y0269588D02*
X0217065Y0269588D01*
X0217039Y0269550D02*
X0214833Y0269550D01*
X0214833Y0269512D02*
X0217014Y0269512D01*
X0216988Y0269474D02*
X0214833Y0269474D01*
X0214833Y0269437D02*
X0216962Y0269437D01*
X0216936Y0269399D02*
X0214833Y0269399D01*
X0214833Y0269361D02*
X0216910Y0269361D01*
X0216884Y0269323D02*
X0214833Y0269323D01*
X0214833Y0269285D02*
X0216859Y0269285D01*
X0216833Y0269247D02*
X0214833Y0269247D01*
X0214833Y0269209D02*
X0216807Y0269209D01*
X0216781Y0269171D02*
X0214833Y0269171D01*
X0214833Y0269134D02*
X0216755Y0269134D01*
X0216729Y0269096D02*
X0214833Y0269096D01*
X0214833Y0269058D02*
X0216704Y0269058D01*
X0216678Y0269020D02*
X0214833Y0269020D01*
X0214833Y0268982D02*
X0216652Y0268982D01*
X0216626Y0268944D02*
X0214833Y0268944D01*
X0214833Y0268906D02*
X0216600Y0268906D01*
X0216574Y0268868D02*
X0214833Y0268868D01*
X0214833Y0268830D02*
X0216549Y0268830D01*
X0216523Y0268793D02*
X0214833Y0268793D01*
X0214833Y0268755D02*
X0216497Y0268755D01*
X0216471Y0268717D02*
X0214833Y0268717D01*
X0214833Y0268679D02*
X0216445Y0268679D01*
X0216419Y0268641D02*
X0214833Y0268641D01*
X0214833Y0268603D02*
X0216393Y0268603D01*
X0216368Y0268565D02*
X0214833Y0268565D01*
X0214833Y0268527D02*
X0216342Y0268527D01*
X0216316Y0268490D02*
X0214833Y0268490D01*
X0214833Y0268452D02*
X0216290Y0268452D01*
X0216264Y0268414D02*
X0214833Y0268414D01*
X0214833Y0268376D02*
X0216238Y0268376D01*
X0216213Y0268338D02*
X0214833Y0268338D01*
X0214833Y0268300D02*
X0216187Y0268300D01*
X0216161Y0268262D02*
X0214833Y0268262D01*
X0214833Y0268224D02*
X0216135Y0268224D01*
X0214833Y0268187D02*
X0220865Y0268187D01*
X0220865Y0268149D02*
X0214833Y0268149D01*
X0214833Y0268111D02*
X0220865Y0268111D01*
X0220865Y0268073D02*
X0214833Y0268073D01*
X0214833Y0268035D02*
X0220865Y0268035D01*
X0220865Y0267997D02*
X0214833Y0267997D01*
X0214833Y0267959D02*
X0220865Y0267959D01*
X0220865Y0267921D02*
X0214833Y0267921D01*
X0214833Y0267883D02*
X0220865Y0267883D01*
X0220865Y0267846D02*
X0214833Y0267846D01*
X0214833Y0267808D02*
X0220865Y0267808D01*
X0220865Y0267770D02*
X0214833Y0267770D01*
X0214833Y0267732D02*
X0220865Y0267732D01*
X0220865Y0267694D02*
X0214833Y0267694D01*
X0214833Y0267656D02*
X0220865Y0267656D01*
X0220865Y0267618D02*
X0214833Y0267618D01*
X0214833Y0267580D02*
X0220865Y0267580D01*
X0220865Y0267543D02*
X0214833Y0267543D01*
X0214833Y0267505D02*
X0220865Y0267505D01*
X0220865Y0267467D02*
X0214833Y0267467D01*
X0214833Y0267429D02*
X0220865Y0267429D01*
X0220865Y0267391D02*
X0214833Y0267391D01*
X0214833Y0267353D02*
X0220865Y0267353D01*
X0220865Y0267315D02*
X0214833Y0267315D01*
X0214833Y0267277D02*
X0220865Y0267277D01*
X0220865Y0267239D02*
X0214833Y0267239D01*
X0214833Y0267202D02*
X0220865Y0267202D01*
X0220865Y0267164D02*
X0214833Y0267164D01*
X0214833Y0267126D02*
X0220865Y0267126D01*
X0220865Y0267088D02*
X0214833Y0267088D01*
X0214833Y0267050D02*
X0220865Y0267050D01*
X0220865Y0267012D02*
X0214833Y0267012D01*
X0214833Y0266974D02*
X0220865Y0266974D01*
X0221108Y0266936D02*
X0214833Y0266936D01*
X0214833Y0266899D02*
X0221108Y0266899D01*
X0241833Y0266899D01*
X0241833Y0266936D02*
X0221108Y0266936D01*
X0221108Y0266861D02*
X0214833Y0266861D01*
X0214833Y0266823D02*
X0221108Y0266823D01*
X0241833Y0266823D01*
X0241833Y0266861D02*
X0221108Y0266861D01*
X0221108Y0266785D02*
X0214833Y0266785D01*
X0214833Y0266747D02*
X0221108Y0266747D01*
X0241833Y0266747D01*
X0241833Y0266709D02*
X0221108Y0266709D01*
X0214833Y0266709D01*
X0214833Y0266671D02*
X0221108Y0266671D01*
X0241833Y0266671D01*
X0241833Y0266633D02*
X0221108Y0266633D01*
X0214833Y0266633D01*
X0214833Y0266595D02*
X0221108Y0266595D01*
X0241833Y0266595D01*
X0241833Y0266558D02*
X0221108Y0266558D01*
X0214833Y0266558D01*
X0214833Y0266520D02*
X0221108Y0266520D01*
X0241833Y0266520D01*
X0241833Y0266482D02*
X0221108Y0266482D01*
X0214833Y0266482D01*
X0214833Y0266444D02*
X0221108Y0266444D01*
X0241833Y0266444D01*
X0241833Y0266406D02*
X0221108Y0266406D01*
X0214833Y0266406D01*
X0214833Y0266368D02*
X0221108Y0266368D01*
X0241833Y0266368D01*
X0241833Y0266330D02*
X0221108Y0266330D01*
X0214833Y0266330D01*
X0214833Y0266292D02*
X0221108Y0266292D01*
X0241833Y0266292D01*
X0241833Y0266785D02*
X0221108Y0266785D01*
X0221880Y0268188D02*
X0223422Y0270273D01*
X0222832Y0270888D01*
X0223764Y0270888D01*
X0222909Y0271809D01*
X0221948Y0271809D01*
X0222832Y0270888D01*
X0223764Y0270888D01*
X0224378Y0270227D01*
X0224378Y0270888D01*
X0225174Y0270888D01*
X0225174Y0271809D01*
X0224378Y0271809D01*
X0224378Y0270888D01*
X0225174Y0270888D01*
X0225174Y0268188D01*
X0224378Y0268188D01*
X0224378Y0269295D01*
X0223959Y0269730D01*
X0222836Y0268188D01*
X0221880Y0268188D01*
X0221907Y0268224D02*
X0222862Y0268224D01*
X0222890Y0268262D02*
X0221935Y0268262D01*
X0221963Y0268300D02*
X0222918Y0268300D01*
X0222945Y0268338D02*
X0221991Y0268338D01*
X0222019Y0268376D02*
X0222973Y0268376D01*
X0223000Y0268414D02*
X0222047Y0268414D01*
X0222075Y0268452D02*
X0223028Y0268452D01*
X0223056Y0268490D02*
X0222103Y0268490D01*
X0222131Y0268527D02*
X0223083Y0268527D01*
X0223111Y0268565D02*
X0222159Y0268565D01*
X0222187Y0268603D02*
X0223138Y0268603D01*
X0223166Y0268641D02*
X0222215Y0268641D01*
X0222243Y0268679D02*
X0223194Y0268679D01*
X0223221Y0268717D02*
X0222271Y0268717D01*
X0222299Y0268755D02*
X0223249Y0268755D01*
X0223276Y0268793D02*
X0222327Y0268793D01*
X0222355Y0268830D02*
X0223304Y0268830D01*
X0223332Y0268868D02*
X0222383Y0268868D01*
X0222411Y0268906D02*
X0223359Y0268906D01*
X0223387Y0268944D02*
X0222439Y0268944D01*
X0222467Y0268982D02*
X0223414Y0268982D01*
X0223442Y0269020D02*
X0222495Y0269020D01*
X0222523Y0269058D02*
X0223470Y0269058D01*
X0223497Y0269096D02*
X0222551Y0269096D01*
X0222579Y0269134D02*
X0223525Y0269134D01*
X0223552Y0269171D02*
X0222607Y0269171D01*
X0222636Y0269209D02*
X0223580Y0269209D01*
X0223608Y0269247D02*
X0222664Y0269247D01*
X0222692Y0269285D02*
X0223635Y0269285D01*
X0223663Y0269323D02*
X0222720Y0269323D01*
X0222748Y0269361D02*
X0223690Y0269361D01*
X0223718Y0269399D02*
X0222776Y0269399D01*
X0222804Y0269437D02*
X0223746Y0269437D01*
X0223773Y0269474D02*
X0222832Y0269474D01*
X0222860Y0269512D02*
X0223801Y0269512D01*
X0223828Y0269550D02*
X0222888Y0269550D01*
X0222916Y0269588D02*
X0223856Y0269588D01*
X0223884Y0269626D02*
X0222944Y0269626D01*
X0222972Y0269664D02*
X0223911Y0269664D01*
X0223939Y0269702D02*
X0223000Y0269702D01*
X0223028Y0269740D02*
X0225174Y0269740D01*
X0225174Y0269778D02*
X0223056Y0269778D01*
X0223084Y0269815D02*
X0225174Y0269815D01*
X0225174Y0269853D02*
X0223112Y0269853D01*
X0223140Y0269891D02*
X0225174Y0269891D01*
X0225174Y0269929D02*
X0223168Y0269929D01*
X0223196Y0269967D02*
X0225174Y0269967D01*
X0225174Y0270005D02*
X0223224Y0270005D01*
X0223252Y0270043D02*
X0225174Y0270043D01*
X0225174Y0270081D02*
X0223280Y0270081D01*
X0223308Y0270118D02*
X0225174Y0270118D01*
X0225174Y0270156D02*
X0223336Y0270156D01*
X0223364Y0270194D02*
X0225174Y0270194D01*
X0225174Y0270232D02*
X0224378Y0270232D01*
X0224373Y0270232D02*
X0223392Y0270232D01*
X0223420Y0270270D02*
X0224338Y0270270D01*
X0224378Y0270270D02*
X0225174Y0270270D01*
X0225174Y0270308D02*
X0224378Y0270308D01*
X0224378Y0270346D02*
X0225174Y0270346D01*
X0225174Y0270384D02*
X0224378Y0270384D01*
X0224378Y0270422D02*
X0225174Y0270422D01*
X0225174Y0270459D02*
X0224378Y0270459D01*
X0224378Y0270497D02*
X0225174Y0270497D01*
X0225174Y0270535D02*
X0224378Y0270535D01*
X0224378Y0270573D02*
X0225174Y0270573D01*
X0225174Y0270611D02*
X0224378Y0270611D01*
X0224378Y0270649D02*
X0225174Y0270649D01*
X0225174Y0270687D02*
X0224378Y0270687D01*
X0224378Y0270725D02*
X0225174Y0270725D01*
X0225174Y0270762D02*
X0224378Y0270762D01*
X0224378Y0270800D02*
X0225174Y0270800D01*
X0225174Y0270838D02*
X0224378Y0270838D01*
X0224378Y0270876D02*
X0225174Y0270876D01*
X0225174Y0270914D02*
X0224378Y0270914D01*
X0224378Y0270952D02*
X0225174Y0270952D01*
X0225174Y0270990D02*
X0224378Y0270990D01*
X0224378Y0271028D02*
X0225174Y0271028D01*
X0225174Y0271066D02*
X0224378Y0271066D01*
X0224378Y0271103D02*
X0225174Y0271103D01*
X0225174Y0271141D02*
X0224378Y0271141D01*
X0224378Y0271179D02*
X0225174Y0271179D01*
X0225174Y0271217D02*
X0224378Y0271217D01*
X0224378Y0271255D02*
X0225174Y0271255D01*
X0225174Y0271293D02*
X0224378Y0271293D01*
X0224378Y0271331D02*
X0225174Y0271331D01*
X0225174Y0271369D02*
X0224378Y0271369D01*
X0224378Y0271406D02*
X0225174Y0271406D01*
X0225174Y0271444D02*
X0224378Y0271444D01*
X0224378Y0271482D02*
X0225174Y0271482D01*
X0225174Y0271520D02*
X0224378Y0271520D01*
X0224378Y0271558D02*
X0225174Y0271558D01*
X0225174Y0271596D02*
X0224378Y0271596D01*
X0224378Y0271634D02*
X0225174Y0271634D01*
X0225174Y0271672D02*
X0224378Y0271672D01*
X0224378Y0271709D02*
X0225174Y0271709D01*
X0225174Y0271747D02*
X0224378Y0271747D01*
X0224378Y0271785D02*
X0225174Y0271785D01*
X0226082Y0271293D02*
X0228917Y0271293D01*
X0228917Y0271331D02*
X0226107Y0271331D01*
X0226097Y0271319D02*
X0226254Y0271493D01*
X0226452Y0271631D01*
X0226686Y0271730D01*
X0226956Y0271789D01*
X0227261Y0271809D01*
X0228917Y0271809D01*
X0228917Y0270888D01*
X0228120Y0270888D01*
X0228120Y0271091D01*
X0227329Y0271091D01*
X0227066Y0271058D01*
X0226867Y0270961D01*
X0226811Y0270888D01*
X0225920Y0270888D01*
X0225985Y0271115D01*
X0226097Y0271319D01*
X0226141Y0271369D02*
X0228917Y0271369D01*
X0228917Y0271406D02*
X0226176Y0271406D01*
X0226210Y0271444D02*
X0228917Y0271444D01*
X0228917Y0271482D02*
X0226244Y0271482D01*
X0226293Y0271520D02*
X0228917Y0271520D01*
X0228917Y0271558D02*
X0226347Y0271558D01*
X0226401Y0271596D02*
X0228917Y0271596D01*
X0228917Y0271634D02*
X0226458Y0271634D01*
X0226548Y0271672D02*
X0228917Y0271672D01*
X0228917Y0271709D02*
X0226637Y0271709D01*
X0226765Y0271747D02*
X0228917Y0271747D01*
X0228917Y0271785D02*
X0226938Y0271785D01*
X0227123Y0271066D02*
X0225971Y0271066D01*
X0225981Y0271103D02*
X0228917Y0271103D01*
X0228917Y0271066D02*
X0228120Y0271066D01*
X0228120Y0271028D02*
X0228917Y0271028D01*
X0228917Y0270990D02*
X0228120Y0270990D01*
X0228120Y0270952D02*
X0228917Y0270952D01*
X0228917Y0270914D02*
X0228120Y0270914D01*
X0228120Y0270888D02*
X0228917Y0270888D01*
X0228917Y0268188D01*
X0228120Y0268188D01*
X0228120Y0269347D01*
X0227494Y0269347D01*
X0226719Y0268188D01*
X0225787Y0268188D01*
X0226673Y0269482D01*
X0226359Y0269648D01*
X0226111Y0269887D01*
X0225950Y0270204D01*
X0225895Y0270602D01*
X0225895Y0270613D01*
X0225917Y0270879D01*
X0225920Y0270888D01*
X0226811Y0270888D01*
X0226743Y0270799D01*
X0226703Y0270572D01*
X0226703Y0270564D01*
X0226741Y0270356D01*
X0226859Y0270192D01*
X0227051Y0270087D01*
X0227313Y0270051D01*
X0228120Y0270051D01*
X0228120Y0270888D01*
X0228120Y0270876D02*
X0228917Y0270876D01*
X0228917Y0270838D02*
X0228120Y0270838D01*
X0228120Y0270800D02*
X0228917Y0270800D01*
X0228917Y0270762D02*
X0228120Y0270762D01*
X0228120Y0270725D02*
X0228917Y0270725D01*
X0228917Y0270687D02*
X0228120Y0270687D01*
X0228120Y0270649D02*
X0228917Y0270649D01*
X0228917Y0270611D02*
X0228120Y0270611D01*
X0228120Y0270573D02*
X0228917Y0270573D01*
X0228917Y0270535D02*
X0228120Y0270535D01*
X0228120Y0270497D02*
X0228917Y0270497D01*
X0228917Y0270459D02*
X0228120Y0270459D01*
X0228120Y0270422D02*
X0228917Y0270422D01*
X0228917Y0270384D02*
X0228120Y0270384D01*
X0228120Y0270346D02*
X0228917Y0270346D01*
X0228917Y0270308D02*
X0228120Y0270308D01*
X0228120Y0270270D02*
X0228917Y0270270D01*
X0228917Y0270232D02*
X0228120Y0270232D01*
X0228120Y0270194D02*
X0228917Y0270194D01*
X0228917Y0270156D02*
X0228120Y0270156D01*
X0228120Y0270118D02*
X0228917Y0270118D01*
X0228917Y0270081D02*
X0228120Y0270081D01*
X0228120Y0269323D02*
X0228917Y0269323D01*
X0228917Y0269361D02*
X0226590Y0269361D01*
X0226616Y0269399D02*
X0228917Y0269399D01*
X0228917Y0269437D02*
X0226642Y0269437D01*
X0226668Y0269474D02*
X0228917Y0269474D01*
X0228917Y0269512D02*
X0226615Y0269512D01*
X0226543Y0269550D02*
X0228917Y0269550D01*
X0228917Y0269588D02*
X0226472Y0269588D01*
X0226400Y0269626D02*
X0228917Y0269626D01*
X0228917Y0269664D02*
X0226342Y0269664D01*
X0226303Y0269702D02*
X0228917Y0269702D01*
X0228917Y0269740D02*
X0226264Y0269740D01*
X0226224Y0269778D02*
X0228917Y0269778D01*
X0228917Y0269815D02*
X0226185Y0269815D01*
X0226146Y0269853D02*
X0228917Y0269853D01*
X0228917Y0269891D02*
X0226109Y0269891D01*
X0226090Y0269929D02*
X0228917Y0269929D01*
X0228917Y0269967D02*
X0226070Y0269967D01*
X0226051Y0270005D02*
X0228917Y0270005D01*
X0228917Y0270043D02*
X0226032Y0270043D01*
X0226012Y0270081D02*
X0227098Y0270081D01*
X0226994Y0270118D02*
X0225993Y0270118D01*
X0225974Y0270156D02*
X0226924Y0270156D01*
X0226857Y0270194D02*
X0225954Y0270194D01*
X0225946Y0270232D02*
X0226830Y0270232D01*
X0226803Y0270270D02*
X0225941Y0270270D01*
X0225935Y0270308D02*
X0226776Y0270308D01*
X0226748Y0270346D02*
X0225930Y0270346D01*
X0225925Y0270384D02*
X0226736Y0270384D01*
X0226729Y0270422D02*
X0225920Y0270422D01*
X0225915Y0270459D02*
X0226722Y0270459D01*
X0226715Y0270497D02*
X0225910Y0270497D01*
X0225904Y0270535D02*
X0226708Y0270535D01*
X0226703Y0270573D02*
X0225899Y0270573D01*
X0225895Y0270611D02*
X0226709Y0270611D01*
X0226716Y0270649D02*
X0225898Y0270649D01*
X0225901Y0270687D02*
X0226723Y0270687D01*
X0226730Y0270725D02*
X0225905Y0270725D01*
X0225908Y0270762D02*
X0226737Y0270762D01*
X0226744Y0270800D02*
X0225911Y0270800D01*
X0225914Y0270838D02*
X0226773Y0270838D01*
X0226802Y0270876D02*
X0225917Y0270876D01*
X0225928Y0270914D02*
X0226831Y0270914D01*
X0226860Y0270952D02*
X0225938Y0270952D01*
X0225949Y0270990D02*
X0226925Y0270990D01*
X0227003Y0271028D02*
X0225960Y0271028D01*
X0225999Y0271141D02*
X0228917Y0271141D01*
X0228917Y0271179D02*
X0226020Y0271179D01*
X0226041Y0271217D02*
X0228917Y0271217D01*
X0228917Y0271255D02*
X0226061Y0271255D01*
X0225174Y0269702D02*
X0223987Y0269702D01*
X0224023Y0269664D02*
X0225174Y0269664D01*
X0225174Y0269626D02*
X0224059Y0269626D01*
X0224096Y0269588D02*
X0225174Y0269588D01*
X0225174Y0269550D02*
X0224132Y0269550D01*
X0224169Y0269512D02*
X0225174Y0269512D01*
X0225174Y0269474D02*
X0224205Y0269474D01*
X0224242Y0269437D02*
X0225174Y0269437D01*
X0225174Y0269399D02*
X0224278Y0269399D01*
X0224315Y0269361D02*
X0225174Y0269361D01*
X0225174Y0269323D02*
X0224351Y0269323D01*
X0224378Y0269285D02*
X0225174Y0269285D01*
X0225174Y0269247D02*
X0224378Y0269247D01*
X0224378Y0269209D02*
X0225174Y0269209D01*
X0225174Y0269171D02*
X0224378Y0269171D01*
X0224378Y0269134D02*
X0225174Y0269134D01*
X0225174Y0269096D02*
X0224378Y0269096D01*
X0224378Y0269058D02*
X0225174Y0269058D01*
X0225174Y0269020D02*
X0224378Y0269020D01*
X0224378Y0268982D02*
X0225174Y0268982D01*
X0225174Y0268944D02*
X0224378Y0268944D01*
X0224378Y0268906D02*
X0225174Y0268906D01*
X0225174Y0268868D02*
X0224378Y0268868D01*
X0224378Y0268830D02*
X0225174Y0268830D01*
X0225174Y0268793D02*
X0224378Y0268793D01*
X0224378Y0268755D02*
X0225174Y0268755D01*
X0225174Y0268717D02*
X0224378Y0268717D01*
X0224378Y0268679D02*
X0225174Y0268679D01*
X0225174Y0268641D02*
X0224378Y0268641D01*
X0224378Y0268603D02*
X0225174Y0268603D01*
X0225174Y0268565D02*
X0224378Y0268565D01*
X0224378Y0268527D02*
X0225174Y0268527D01*
X0225174Y0268490D02*
X0224378Y0268490D01*
X0224378Y0268452D02*
X0225174Y0268452D01*
X0225174Y0268414D02*
X0224378Y0268414D01*
X0224378Y0268376D02*
X0225174Y0268376D01*
X0225174Y0268338D02*
X0224378Y0268338D01*
X0224378Y0268300D02*
X0225174Y0268300D01*
X0225174Y0268262D02*
X0224378Y0268262D01*
X0224378Y0268224D02*
X0225174Y0268224D01*
X0225812Y0268224D02*
X0226743Y0268224D01*
X0226768Y0268262D02*
X0225838Y0268262D01*
X0225864Y0268300D02*
X0226794Y0268300D01*
X0226819Y0268338D02*
X0225890Y0268338D01*
X0225916Y0268376D02*
X0226844Y0268376D01*
X0226870Y0268414D02*
X0225942Y0268414D01*
X0225968Y0268452D02*
X0226895Y0268452D01*
X0226920Y0268490D02*
X0225994Y0268490D01*
X0226019Y0268527D02*
X0226946Y0268527D01*
X0226971Y0268565D02*
X0226045Y0268565D01*
X0226071Y0268603D02*
X0226996Y0268603D01*
X0227022Y0268641D02*
X0226097Y0268641D01*
X0226123Y0268679D02*
X0227047Y0268679D01*
X0227072Y0268717D02*
X0226149Y0268717D01*
X0226175Y0268755D02*
X0227098Y0268755D01*
X0227123Y0268793D02*
X0226201Y0268793D01*
X0226227Y0268830D02*
X0227148Y0268830D01*
X0227174Y0268868D02*
X0226253Y0268868D01*
X0226279Y0268906D02*
X0227199Y0268906D01*
X0227224Y0268944D02*
X0226305Y0268944D01*
X0226331Y0268982D02*
X0227250Y0268982D01*
X0227275Y0269020D02*
X0226357Y0269020D01*
X0226383Y0269058D02*
X0227300Y0269058D01*
X0227326Y0269096D02*
X0226409Y0269096D01*
X0226434Y0269134D02*
X0227351Y0269134D01*
X0227376Y0269171D02*
X0226460Y0269171D01*
X0226486Y0269209D02*
X0227402Y0269209D01*
X0227427Y0269247D02*
X0226512Y0269247D01*
X0226538Y0269285D02*
X0227452Y0269285D01*
X0227478Y0269323D02*
X0226564Y0269323D01*
X0228120Y0269285D02*
X0228917Y0269285D01*
X0228917Y0269247D02*
X0228120Y0269247D01*
X0228120Y0269209D02*
X0228917Y0269209D01*
X0228917Y0269171D02*
X0228120Y0269171D01*
X0228120Y0269134D02*
X0228917Y0269134D01*
X0228917Y0269096D02*
X0228120Y0269096D01*
X0228120Y0269058D02*
X0228917Y0269058D01*
X0228917Y0269020D02*
X0228120Y0269020D01*
X0228120Y0268982D02*
X0228917Y0268982D01*
X0228917Y0268944D02*
X0228120Y0268944D01*
X0228120Y0268906D02*
X0228917Y0268906D01*
X0228917Y0268868D02*
X0228120Y0268868D01*
X0228120Y0268830D02*
X0228917Y0268830D01*
X0228917Y0268793D02*
X0228120Y0268793D01*
X0228120Y0268755D02*
X0228917Y0268755D01*
X0228917Y0268717D02*
X0228120Y0268717D01*
X0228120Y0268679D02*
X0228917Y0268679D01*
X0228917Y0268641D02*
X0228120Y0268641D01*
X0228120Y0268603D02*
X0228917Y0268603D01*
X0228917Y0268565D02*
X0228120Y0268565D01*
X0228120Y0268527D02*
X0228917Y0268527D01*
X0228917Y0268490D02*
X0228120Y0268490D01*
X0228120Y0268452D02*
X0228917Y0268452D01*
X0228917Y0268414D02*
X0228120Y0268414D01*
X0228120Y0268376D02*
X0228917Y0268376D01*
X0228917Y0268338D02*
X0228120Y0268338D01*
X0228120Y0268300D02*
X0228917Y0268300D01*
X0228917Y0268262D02*
X0228120Y0268262D01*
X0228120Y0268224D02*
X0228917Y0268224D01*
X0229475Y0268188D02*
X0230624Y0270888D01*
X0232166Y0270888D01*
X0231762Y0271836D01*
X0231028Y0271836D01*
X0230624Y0270888D01*
X0232166Y0270888D01*
X0233315Y0268188D01*
X0232502Y0268188D01*
X0231406Y0270877D01*
X0230310Y0268188D01*
X0229475Y0268188D01*
X0229491Y0268224D02*
X0230324Y0268224D01*
X0230340Y0268262D02*
X0229507Y0268262D01*
X0229523Y0268300D02*
X0230355Y0268300D01*
X0230371Y0268338D02*
X0229539Y0268338D01*
X0229555Y0268376D02*
X0230386Y0268376D01*
X0230402Y0268414D02*
X0229571Y0268414D01*
X0229588Y0268452D02*
X0230417Y0268452D01*
X0230433Y0268490D02*
X0229604Y0268490D01*
X0229620Y0268527D02*
X0230448Y0268527D01*
X0230463Y0268565D02*
X0229636Y0268565D01*
X0229652Y0268603D02*
X0230479Y0268603D01*
X0230494Y0268641D02*
X0229668Y0268641D01*
X0229684Y0268679D02*
X0230510Y0268679D01*
X0230525Y0268717D02*
X0229700Y0268717D01*
X0229717Y0268755D02*
X0230541Y0268755D01*
X0230556Y0268793D02*
X0229733Y0268793D01*
X0229749Y0268830D02*
X0230572Y0268830D01*
X0230587Y0268868D02*
X0229765Y0268868D01*
X0229781Y0268906D02*
X0230602Y0268906D01*
X0230618Y0268944D02*
X0229797Y0268944D01*
X0229813Y0268982D02*
X0230633Y0268982D01*
X0230649Y0269020D02*
X0229829Y0269020D01*
X0229846Y0269058D02*
X0230664Y0269058D01*
X0230680Y0269096D02*
X0229862Y0269096D01*
X0229878Y0269134D02*
X0230695Y0269134D01*
X0230710Y0269171D02*
X0229894Y0269171D01*
X0229910Y0269209D02*
X0230726Y0269209D01*
X0230741Y0269247D02*
X0229926Y0269247D01*
X0229942Y0269285D02*
X0230757Y0269285D01*
X0230772Y0269323D02*
X0229958Y0269323D01*
X0229975Y0269361D02*
X0230788Y0269361D01*
X0230803Y0269399D02*
X0229991Y0269399D01*
X0230007Y0269437D02*
X0230819Y0269437D01*
X0230834Y0269474D02*
X0230023Y0269474D01*
X0230039Y0269512D02*
X0230849Y0269512D01*
X0230865Y0269550D02*
X0230055Y0269550D01*
X0230071Y0269588D02*
X0230880Y0269588D01*
X0230896Y0269626D02*
X0230087Y0269626D01*
X0230104Y0269664D02*
X0230911Y0269664D01*
X0230927Y0269702D02*
X0230120Y0269702D01*
X0230136Y0269740D02*
X0230942Y0269740D01*
X0230958Y0269778D02*
X0230152Y0269778D01*
X0230168Y0269815D02*
X0230973Y0269815D01*
X0230988Y0269853D02*
X0230184Y0269853D01*
X0230200Y0269891D02*
X0231004Y0269891D01*
X0231019Y0269929D02*
X0230216Y0269929D01*
X0230233Y0269967D02*
X0231035Y0269967D01*
X0231050Y0270005D02*
X0230249Y0270005D01*
X0230265Y0270043D02*
X0231066Y0270043D01*
X0231081Y0270081D02*
X0230281Y0270081D01*
X0230297Y0270118D02*
X0231097Y0270118D01*
X0231112Y0270156D02*
X0230313Y0270156D01*
X0230329Y0270194D02*
X0231127Y0270194D01*
X0231143Y0270232D02*
X0230345Y0270232D01*
X0230362Y0270270D02*
X0231158Y0270270D01*
X0231174Y0270308D02*
X0230378Y0270308D01*
X0230394Y0270346D02*
X0231189Y0270346D01*
X0231205Y0270384D02*
X0230410Y0270384D01*
X0230426Y0270422D02*
X0231220Y0270422D01*
X0231236Y0270459D02*
X0230442Y0270459D01*
X0230458Y0270497D02*
X0231251Y0270497D01*
X0231266Y0270535D02*
X0230474Y0270535D01*
X0230490Y0270573D02*
X0231282Y0270573D01*
X0231297Y0270611D02*
X0230507Y0270611D01*
X0230523Y0270649D02*
X0231313Y0270649D01*
X0231328Y0270687D02*
X0230539Y0270687D01*
X0230555Y0270725D02*
X0231344Y0270725D01*
X0231359Y0270762D02*
X0230571Y0270762D01*
X0230587Y0270800D02*
X0231374Y0270800D01*
X0231390Y0270838D02*
X0230603Y0270838D01*
X0230619Y0270876D02*
X0231405Y0270876D01*
X0231407Y0270876D02*
X0232171Y0270876D01*
X0232187Y0270838D02*
X0231422Y0270838D01*
X0231437Y0270800D02*
X0232203Y0270800D01*
X0232219Y0270762D02*
X0231453Y0270762D01*
X0231468Y0270725D02*
X0232236Y0270725D01*
X0232252Y0270687D02*
X0231484Y0270687D01*
X0231499Y0270649D02*
X0232268Y0270649D01*
X0232284Y0270611D02*
X0231515Y0270611D01*
X0231530Y0270573D02*
X0232300Y0270573D01*
X0232316Y0270535D02*
X0231545Y0270535D01*
X0231561Y0270497D02*
X0232332Y0270497D01*
X0232348Y0270459D02*
X0231576Y0270459D01*
X0231592Y0270422D02*
X0232365Y0270422D01*
X0232381Y0270384D02*
X0231607Y0270384D01*
X0231623Y0270346D02*
X0232397Y0270346D01*
X0232413Y0270308D02*
X0231638Y0270308D01*
X0231654Y0270270D02*
X0232429Y0270270D01*
X0232445Y0270232D02*
X0231669Y0270232D01*
X0231684Y0270194D02*
X0232461Y0270194D01*
X0232477Y0270156D02*
X0231700Y0270156D01*
X0231715Y0270118D02*
X0232493Y0270118D01*
X0232510Y0270081D02*
X0231731Y0270081D01*
X0231746Y0270043D02*
X0232526Y0270043D01*
X0232542Y0270005D02*
X0231762Y0270005D01*
X0231777Y0269967D02*
X0232558Y0269967D01*
X0232574Y0269929D02*
X0231793Y0269929D01*
X0231808Y0269891D02*
X0232590Y0269891D01*
X0232606Y0269853D02*
X0231823Y0269853D01*
X0231839Y0269815D02*
X0232622Y0269815D01*
X0232639Y0269778D02*
X0231854Y0269778D01*
X0231870Y0269740D02*
X0232655Y0269740D01*
X0232671Y0269702D02*
X0231885Y0269702D01*
X0231901Y0269664D02*
X0232687Y0269664D01*
X0232703Y0269626D02*
X0231916Y0269626D01*
X0231932Y0269588D02*
X0232719Y0269588D01*
X0232735Y0269550D02*
X0231947Y0269550D01*
X0231962Y0269512D02*
X0232751Y0269512D01*
X0232767Y0269474D02*
X0231978Y0269474D01*
X0231993Y0269437D02*
X0232784Y0269437D01*
X0232800Y0269399D02*
X0232009Y0269399D01*
X0232024Y0269361D02*
X0232816Y0269361D01*
X0232832Y0269323D02*
X0232040Y0269323D01*
X0232055Y0269285D02*
X0232848Y0269285D01*
X0232864Y0269247D02*
X0232070Y0269247D01*
X0232086Y0269209D02*
X0232880Y0269209D01*
X0232896Y0269171D02*
X0232101Y0269171D01*
X0232117Y0269134D02*
X0232913Y0269134D01*
X0232929Y0269096D02*
X0232132Y0269096D01*
X0232148Y0269058D02*
X0232945Y0269058D01*
X0232961Y0269020D02*
X0232163Y0269020D01*
X0232179Y0268982D02*
X0232977Y0268982D01*
X0232993Y0268944D02*
X0232194Y0268944D01*
X0232209Y0268906D02*
X0233009Y0268906D01*
X0233025Y0268868D02*
X0232225Y0268868D01*
X0232240Y0268830D02*
X0233042Y0268830D01*
X0233058Y0268793D02*
X0232256Y0268793D01*
X0232271Y0268755D02*
X0233074Y0268755D01*
X0233090Y0268717D02*
X0232287Y0268717D01*
X0232302Y0268679D02*
X0233106Y0268679D01*
X0233122Y0268641D02*
X0232318Y0268641D01*
X0232333Y0268603D02*
X0233138Y0268603D01*
X0233154Y0268565D02*
X0232348Y0268565D01*
X0232364Y0268527D02*
X0233170Y0268527D01*
X0233187Y0268490D02*
X0232379Y0268490D01*
X0232395Y0268452D02*
X0233203Y0268452D01*
X0233219Y0268414D02*
X0232410Y0268414D01*
X0232426Y0268376D02*
X0233235Y0268376D01*
X0233251Y0268338D02*
X0232441Y0268338D01*
X0232457Y0268300D02*
X0233267Y0268300D01*
X0233283Y0268262D02*
X0232472Y0268262D01*
X0232487Y0268224D02*
X0233299Y0268224D01*
X0234158Y0269512D02*
X0236460Y0269512D01*
X0236460Y0269474D02*
X0234216Y0269474D01*
X0234237Y0269461D02*
X0234022Y0269600D01*
X0233844Y0269781D01*
X0233709Y0270000D01*
X0233624Y0270257D01*
X0233596Y0270553D01*
X0233593Y0270548D01*
X0233593Y0270559D01*
X0233617Y0270826D01*
X0233635Y0270888D01*
X0234526Y0270888D01*
X0234573Y0270950D01*
X0234777Y0271056D01*
X0235046Y0271091D01*
X0235661Y0271091D01*
X0235661Y0270888D01*
X0236460Y0270888D01*
X0236460Y0271814D01*
X0234981Y0271814D01*
X0234671Y0271791D01*
X0234398Y0271723D01*
X0234161Y0271613D01*
X0233963Y0271466D01*
X0233804Y0271284D01*
X0233687Y0271069D01*
X0233635Y0270888D01*
X0234526Y0270888D01*
X0234443Y0270779D01*
X0234400Y0270543D01*
X0234400Y0270532D01*
X0234441Y0270318D01*
X0234565Y0270140D01*
X0234764Y0270023D01*
X0235029Y0269984D01*
X0235661Y0269984D01*
X0235661Y0270888D01*
X0236460Y0270888D01*
X0236460Y0268194D01*
X0235664Y0268194D01*
X0235664Y0269279D01*
X0235059Y0269279D01*
X0234764Y0269299D01*
X0234487Y0269360D01*
X0234237Y0269461D01*
X0234297Y0269437D02*
X0236460Y0269437D01*
X0236460Y0269399D02*
X0234391Y0269399D01*
X0234485Y0269361D02*
X0236460Y0269361D01*
X0236460Y0269323D02*
X0234657Y0269323D01*
X0234973Y0269285D02*
X0236460Y0269285D01*
X0236460Y0269247D02*
X0235664Y0269247D01*
X0235664Y0269209D02*
X0236460Y0269209D01*
X0236460Y0269171D02*
X0235664Y0269171D01*
X0235664Y0269134D02*
X0236460Y0269134D01*
X0236460Y0269096D02*
X0235664Y0269096D01*
X0235664Y0269058D02*
X0236460Y0269058D01*
X0236460Y0269020D02*
X0235664Y0269020D01*
X0235664Y0268982D02*
X0236460Y0268982D01*
X0236460Y0268944D02*
X0235664Y0268944D01*
X0235664Y0268906D02*
X0236460Y0268906D01*
X0236460Y0268868D02*
X0235664Y0268868D01*
X0235664Y0268830D02*
X0236460Y0268830D01*
X0236460Y0268793D02*
X0235664Y0268793D01*
X0235664Y0268755D02*
X0236460Y0268755D01*
X0236460Y0268717D02*
X0235664Y0268717D01*
X0235664Y0268679D02*
X0236460Y0268679D01*
X0236460Y0268641D02*
X0235664Y0268641D01*
X0235664Y0268603D02*
X0236460Y0268603D01*
X0236460Y0268565D02*
X0235664Y0268565D01*
X0235664Y0268527D02*
X0236460Y0268527D01*
X0236460Y0268490D02*
X0235664Y0268490D01*
X0235664Y0268452D02*
X0236460Y0268452D01*
X0236460Y0268414D02*
X0235664Y0268414D01*
X0235664Y0268376D02*
X0236460Y0268376D01*
X0236460Y0268338D02*
X0235664Y0268338D01*
X0235664Y0268300D02*
X0236460Y0268300D01*
X0236460Y0268262D02*
X0235664Y0268262D01*
X0235664Y0268224D02*
X0236460Y0268224D01*
X0237282Y0268717D02*
X0240007Y0268717D01*
X0240014Y0268709D02*
X0239670Y0268452D01*
X0239290Y0268272D01*
X0238888Y0268165D01*
X0238477Y0268129D01*
X0238196Y0268148D01*
X0237940Y0268205D01*
X0237715Y0268296D01*
X0237521Y0268420D01*
X0237366Y0268580D01*
X0237249Y0268772D01*
X0237176Y0268996D01*
X0237152Y0269249D01*
X0237152Y0269271D01*
X0237170Y0269492D01*
X0237227Y0269679D01*
X0237321Y0269838D01*
X0237451Y0269976D01*
X0237813Y0270192D01*
X0238304Y0270354D01*
X0238691Y0270462D01*
X0238931Y0270559D01*
X0239052Y0270675D01*
X0239085Y0270829D01*
X0239085Y0270840D01*
X0239074Y0270888D01*
X0239862Y0270888D01*
X0239873Y0270767D01*
X0239873Y0270756D01*
X0239851Y0270509D01*
X0239787Y0270305D01*
X0239684Y0270139D01*
X0239546Y0270003D01*
X0239168Y0269798D01*
X0238669Y0269646D01*
X0238299Y0269538D01*
X0238075Y0269436D01*
X0237967Y0269325D01*
X0237937Y0269187D01*
X0237937Y0269177D01*
X0237972Y0269033D01*
X0238075Y0268925D01*
X0238240Y0268857D01*
X0238461Y0268834D01*
X0238760Y0268864D01*
X0239033Y0268952D01*
X0239292Y0269092D01*
X0239544Y0269274D01*
X0240014Y0268709D01*
X0239973Y0268679D02*
X0237305Y0268679D01*
X0237328Y0268641D02*
X0239922Y0268641D01*
X0239872Y0268603D02*
X0237351Y0268603D01*
X0237380Y0268565D02*
X0239821Y0268565D01*
X0239770Y0268527D02*
X0237417Y0268527D01*
X0237454Y0268490D02*
X0239720Y0268490D01*
X0239669Y0268452D02*
X0237491Y0268452D01*
X0237532Y0268414D02*
X0239589Y0268414D01*
X0239509Y0268376D02*
X0237591Y0268376D01*
X0237650Y0268338D02*
X0239429Y0268338D01*
X0239349Y0268300D02*
X0237709Y0268300D01*
X0237798Y0268262D02*
X0239253Y0268262D01*
X0239111Y0268224D02*
X0237891Y0268224D01*
X0238021Y0268187D02*
X0238969Y0268187D01*
X0238702Y0268149D02*
X0238190Y0268149D01*
X0238213Y0268868D02*
X0237217Y0268868D01*
X0237230Y0268830D02*
X0239913Y0268830D01*
X0239944Y0268793D02*
X0237242Y0268793D01*
X0237259Y0268755D02*
X0239976Y0268755D01*
X0239881Y0268868D02*
X0238774Y0268868D01*
X0238891Y0268906D02*
X0239850Y0268906D01*
X0239818Y0268944D02*
X0239008Y0268944D01*
X0239088Y0268982D02*
X0239787Y0268982D01*
X0239755Y0269020D02*
X0239158Y0269020D01*
X0239229Y0269058D02*
X0239723Y0269058D01*
X0239692Y0269096D02*
X0239297Y0269096D01*
X0239349Y0269134D02*
X0239660Y0269134D01*
X0239629Y0269171D02*
X0239402Y0269171D01*
X0239454Y0269209D02*
X0239597Y0269209D01*
X0239566Y0269247D02*
X0239507Y0269247D01*
X0239201Y0269815D02*
X0237308Y0269815D01*
X0237285Y0269778D02*
X0239102Y0269778D01*
X0238977Y0269740D02*
X0237263Y0269740D01*
X0237241Y0269702D02*
X0238852Y0269702D01*
X0238727Y0269664D02*
X0237223Y0269664D01*
X0237211Y0269626D02*
X0238599Y0269626D01*
X0238470Y0269588D02*
X0237199Y0269588D01*
X0237188Y0269550D02*
X0238340Y0269550D01*
X0238242Y0269512D02*
X0237176Y0269512D01*
X0237169Y0269474D02*
X0238160Y0269474D01*
X0238077Y0269437D02*
X0237165Y0269437D01*
X0237162Y0269399D02*
X0238039Y0269399D01*
X0238002Y0269361D02*
X0237159Y0269361D01*
X0237156Y0269323D02*
X0237966Y0269323D01*
X0237958Y0269285D02*
X0237153Y0269285D01*
X0237152Y0269247D02*
X0237950Y0269247D01*
X0237942Y0269209D02*
X0237155Y0269209D01*
X0237159Y0269171D02*
X0237938Y0269171D01*
X0237948Y0269134D02*
X0237163Y0269134D01*
X0237166Y0269096D02*
X0237957Y0269096D01*
X0237966Y0269058D02*
X0237170Y0269058D01*
X0237174Y0269020D02*
X0237984Y0269020D01*
X0238021Y0268982D02*
X0237180Y0268982D01*
X0237193Y0268944D02*
X0238057Y0268944D01*
X0238121Y0268906D02*
X0237205Y0268906D01*
X0237335Y0269853D02*
X0239271Y0269853D01*
X0239341Y0269891D02*
X0237371Y0269891D01*
X0237407Y0269929D02*
X0239411Y0269929D01*
X0239481Y0269967D02*
X0237443Y0269967D01*
X0237500Y0270005D02*
X0239549Y0270005D01*
X0239587Y0270043D02*
X0237563Y0270043D01*
X0237627Y0270081D02*
X0239625Y0270081D01*
X0239663Y0270118D02*
X0237690Y0270118D01*
X0237754Y0270156D02*
X0239695Y0270156D01*
X0239718Y0270194D02*
X0237821Y0270194D01*
X0237936Y0270232D02*
X0239742Y0270232D01*
X0239765Y0270270D02*
X0238051Y0270270D01*
X0238165Y0270308D02*
X0239788Y0270308D01*
X0239800Y0270346D02*
X0238280Y0270346D01*
X0238411Y0270384D02*
X0239812Y0270384D01*
X0239823Y0270422D02*
X0238547Y0270422D01*
X0238682Y0270459D02*
X0239835Y0270459D01*
X0239847Y0270497D02*
X0238778Y0270497D01*
X0238872Y0270535D02*
X0239854Y0270535D01*
X0239857Y0270573D02*
X0238946Y0270573D01*
X0238985Y0270611D02*
X0239860Y0270611D01*
X0239864Y0270649D02*
X0239025Y0270649D01*
X0239055Y0270687D02*
X0239867Y0270687D01*
X0239870Y0270725D02*
X0239063Y0270725D01*
X0239071Y0270762D02*
X0239873Y0270762D01*
X0239870Y0270800D02*
X0239079Y0270800D01*
X0239085Y0270838D02*
X0239866Y0270838D01*
X0239863Y0270876D02*
X0239076Y0270876D01*
X0239074Y0270888D02*
X0239056Y0270963D01*
X0238969Y0271064D01*
X0238823Y0271132D01*
X0238620Y0271156D01*
X0238388Y0271132D01*
X0238156Y0271061D01*
X0237841Y0270888D01*
X0237681Y0270799D01*
X0237620Y0270888D01*
X0237841Y0270888D01*
X0237620Y0270888D01*
X0237268Y0271399D01*
X0237561Y0271595D01*
X0237881Y0271739D01*
X0238230Y0271828D01*
X0238612Y0271858D01*
X0238880Y0271838D01*
X0239123Y0271779D01*
X0239339Y0271685D01*
X0239522Y0271558D01*
X0237506Y0271558D01*
X0237563Y0271596D02*
X0239467Y0271596D01*
X0239412Y0271634D02*
X0237647Y0271634D01*
X0237731Y0271672D02*
X0239358Y0271672D01*
X0239282Y0271709D02*
X0237815Y0271709D01*
X0237914Y0271747D02*
X0239196Y0271747D01*
X0239098Y0271785D02*
X0238063Y0271785D01*
X0238212Y0271823D02*
X0238940Y0271823D01*
X0239522Y0271558D02*
X0239670Y0271399D01*
X0239781Y0271215D01*
X0239851Y0271004D01*
X0239862Y0270888D01*
X0239074Y0270888D01*
X0239067Y0270914D02*
X0239859Y0270914D01*
X0239856Y0270952D02*
X0239059Y0270952D01*
X0239033Y0270990D02*
X0239852Y0270990D01*
X0239843Y0271028D02*
X0239000Y0271028D01*
X0238965Y0271066D02*
X0239830Y0271066D01*
X0239818Y0271103D02*
X0238884Y0271103D01*
X0238743Y0271141D02*
X0239806Y0271141D01*
X0239793Y0271179D02*
X0237419Y0271179D01*
X0237445Y0271141D02*
X0238482Y0271141D01*
X0238295Y0271103D02*
X0237471Y0271103D01*
X0237497Y0271066D02*
X0238170Y0271066D01*
X0238095Y0271028D02*
X0237523Y0271028D01*
X0237549Y0270990D02*
X0238026Y0270990D01*
X0237958Y0270952D02*
X0237576Y0270952D01*
X0237602Y0270914D02*
X0237889Y0270914D01*
X0237820Y0270876D02*
X0237628Y0270876D01*
X0237654Y0270838D02*
X0237751Y0270838D01*
X0237683Y0270800D02*
X0237680Y0270800D01*
X0237393Y0271217D02*
X0239780Y0271217D01*
X0239757Y0271255D02*
X0237367Y0271255D01*
X0237341Y0271293D02*
X0239734Y0271293D01*
X0239712Y0271331D02*
X0237314Y0271331D01*
X0237288Y0271369D02*
X0239689Y0271369D01*
X0239664Y0271406D02*
X0237279Y0271406D01*
X0237336Y0271444D02*
X0239628Y0271444D01*
X0239593Y0271482D02*
X0237392Y0271482D01*
X0237449Y0271520D02*
X0239557Y0271520D01*
X0241139Y0271520D02*
X0241833Y0271520D01*
X0241833Y0271482D02*
X0241139Y0271482D01*
X0241139Y0271444D02*
X0241833Y0271444D01*
X0241833Y0271406D02*
X0241139Y0271406D01*
X0241139Y0271369D02*
X0241833Y0271369D01*
X0241833Y0271331D02*
X0241139Y0271331D01*
X0241139Y0271293D02*
X0241833Y0271293D01*
X0241833Y0271255D02*
X0241139Y0271255D01*
X0241139Y0271217D02*
X0241833Y0271217D01*
X0241833Y0271179D02*
X0241139Y0271179D01*
X0241139Y0271141D02*
X0241833Y0271141D01*
X0241833Y0271103D02*
X0241139Y0271103D01*
X0241139Y0271066D02*
X0241833Y0271066D01*
X0241833Y0271028D02*
X0241139Y0271028D01*
X0241139Y0270990D02*
X0241833Y0270990D01*
X0241833Y0270952D02*
X0241139Y0270952D01*
X0241139Y0270914D02*
X0241833Y0270914D01*
X0241833Y0270876D02*
X0241139Y0270876D01*
X0241139Y0270838D02*
X0241833Y0270838D01*
X0241833Y0270800D02*
X0241139Y0270800D01*
X0241139Y0270762D02*
X0241833Y0270762D01*
X0241833Y0270725D02*
X0241139Y0270725D01*
X0241139Y0270687D02*
X0241833Y0270687D01*
X0241833Y0270649D02*
X0241139Y0270649D01*
X0241139Y0270611D02*
X0241833Y0270611D01*
X0241833Y0270573D02*
X0241139Y0270573D01*
X0241139Y0270535D02*
X0241833Y0270535D01*
X0241833Y0270497D02*
X0241139Y0270497D01*
X0241139Y0270459D02*
X0241833Y0270459D01*
X0241833Y0270422D02*
X0241139Y0270422D01*
X0241139Y0270384D02*
X0241833Y0270384D01*
X0241833Y0270346D02*
X0241139Y0270346D01*
X0241139Y0270308D02*
X0241833Y0270308D01*
X0241833Y0270270D02*
X0241139Y0270270D01*
X0241139Y0270232D02*
X0241833Y0270232D01*
X0241833Y0270194D02*
X0241139Y0270194D01*
X0241139Y0270156D02*
X0241833Y0270156D01*
X0241833Y0270118D02*
X0241139Y0270118D01*
X0241139Y0270081D02*
X0241833Y0270081D01*
X0241833Y0270043D02*
X0241139Y0270043D01*
X0241139Y0270005D02*
X0241833Y0270005D01*
X0241833Y0269967D02*
X0241139Y0269967D01*
X0241139Y0269929D02*
X0241833Y0269929D01*
X0241833Y0269891D02*
X0241139Y0269891D01*
X0241139Y0269853D02*
X0241833Y0269853D01*
X0241833Y0269815D02*
X0241139Y0269815D01*
X0241139Y0269778D02*
X0241833Y0269778D01*
X0241833Y0269740D02*
X0241139Y0269740D01*
X0241139Y0269702D02*
X0241833Y0269702D01*
X0241833Y0269664D02*
X0241139Y0269664D01*
X0241139Y0269626D02*
X0241833Y0269626D01*
X0241833Y0269588D02*
X0241139Y0269588D01*
X0241139Y0269550D02*
X0241833Y0269550D01*
X0241833Y0269512D02*
X0241139Y0269512D01*
X0241139Y0269474D02*
X0241833Y0269474D01*
X0241833Y0269437D02*
X0241139Y0269437D01*
X0241139Y0269399D02*
X0241833Y0269399D01*
X0241833Y0269361D02*
X0241139Y0269361D01*
X0241139Y0269323D02*
X0241833Y0269323D01*
X0241833Y0269285D02*
X0241139Y0269285D01*
X0241139Y0269247D02*
X0241833Y0269247D01*
X0241833Y0269209D02*
X0241139Y0269209D01*
X0241139Y0269171D02*
X0241833Y0269171D01*
X0241833Y0269134D02*
X0241139Y0269134D01*
X0241139Y0269096D02*
X0241833Y0269096D01*
X0241833Y0269058D02*
X0241139Y0269058D01*
X0241139Y0269020D02*
X0241833Y0269020D01*
X0241833Y0268982D02*
X0241139Y0268982D01*
X0241139Y0268944D02*
X0241833Y0268944D01*
X0241833Y0268906D02*
X0241139Y0268906D01*
X0241139Y0268868D02*
X0241833Y0268868D01*
X0241833Y0268830D02*
X0241139Y0268830D01*
X0241139Y0268793D02*
X0241833Y0268793D01*
X0241833Y0268755D02*
X0241139Y0268755D01*
X0241139Y0268717D02*
X0241833Y0268717D01*
X0241833Y0268679D02*
X0241139Y0268679D01*
X0241139Y0268641D02*
X0241833Y0268641D01*
X0241833Y0268603D02*
X0241139Y0268603D01*
X0241139Y0268565D02*
X0241833Y0268565D01*
X0241833Y0268527D02*
X0241139Y0268527D01*
X0241139Y0268490D02*
X0241833Y0268490D01*
X0241833Y0268452D02*
X0241139Y0268452D01*
X0241139Y0268414D02*
X0241833Y0268414D01*
X0241833Y0268376D02*
X0241139Y0268376D01*
X0241139Y0268338D02*
X0241833Y0268338D01*
X0241833Y0268300D02*
X0241139Y0268300D01*
X0241139Y0268262D02*
X0241833Y0268262D01*
X0241833Y0268224D02*
X0241139Y0268224D01*
X0241139Y0268187D02*
X0241833Y0268187D01*
X0241833Y0268149D02*
X0241139Y0268149D01*
X0241139Y0268111D02*
X0241833Y0268111D01*
X0241833Y0268073D02*
X0241139Y0268073D01*
X0241139Y0268035D02*
X0241833Y0268035D01*
X0241833Y0267997D02*
X0241139Y0267997D01*
X0241139Y0267959D02*
X0241833Y0267959D01*
X0241833Y0267921D02*
X0241139Y0267921D01*
X0241139Y0267883D02*
X0241833Y0267883D01*
X0241833Y0267846D02*
X0241139Y0267846D01*
X0241139Y0267808D02*
X0241833Y0267808D01*
X0241833Y0267770D02*
X0241139Y0267770D01*
X0241139Y0267732D02*
X0241833Y0267732D01*
X0241833Y0267694D02*
X0241139Y0267694D01*
X0241139Y0267656D02*
X0241833Y0267656D01*
X0241833Y0267618D02*
X0241139Y0267618D01*
X0241139Y0267580D02*
X0241833Y0267580D01*
X0241833Y0267543D02*
X0241139Y0267543D01*
X0241139Y0267505D02*
X0241833Y0267505D01*
X0241833Y0267467D02*
X0241139Y0267467D01*
X0241139Y0267429D02*
X0241833Y0267429D01*
X0241833Y0267391D02*
X0241139Y0267391D01*
X0241139Y0267353D02*
X0241833Y0267353D01*
X0241833Y0267315D02*
X0241139Y0267315D01*
X0241139Y0267277D02*
X0241833Y0267277D01*
X0241833Y0267239D02*
X0241139Y0267239D01*
X0241139Y0267202D02*
X0241833Y0267202D01*
X0241833Y0267164D02*
X0241139Y0267164D01*
X0241139Y0267126D02*
X0241833Y0267126D01*
X0241833Y0267088D02*
X0241139Y0267088D01*
X0241139Y0267050D02*
X0241833Y0267050D01*
X0241833Y0267012D02*
X0241139Y0267012D01*
X0241139Y0266974D02*
X0241833Y0266974D01*
X0241833Y0271558D02*
X0241139Y0271558D01*
X0241139Y0271596D02*
X0241833Y0271596D01*
X0241833Y0271634D02*
X0241139Y0271634D01*
X0241139Y0271672D02*
X0241833Y0271672D01*
X0241833Y0271709D02*
X0241139Y0271709D01*
X0241139Y0271747D02*
X0241833Y0271747D01*
X0241833Y0271785D02*
X0241139Y0271785D01*
X0241139Y0271823D02*
X0241833Y0271823D01*
X0241833Y0271861D02*
X0241139Y0271861D01*
X0241139Y0271899D02*
X0241833Y0271899D01*
X0241833Y0271937D02*
X0241139Y0271937D01*
X0241139Y0271975D02*
X0241833Y0271975D01*
X0241833Y0272013D02*
X0241139Y0272013D01*
X0241139Y0272050D02*
X0241833Y0272050D01*
X0241833Y0272088D02*
X0241139Y0272088D01*
X0241139Y0272126D02*
X0241833Y0272126D01*
X0241833Y0272164D02*
X0241139Y0272164D01*
X0241139Y0272202D02*
X0241833Y0272202D01*
X0241833Y0272240D02*
X0241139Y0272240D01*
X0241139Y0272278D02*
X0241833Y0272278D01*
X0241833Y0272316D02*
X0241139Y0272316D01*
X0241139Y0272353D02*
X0241833Y0272353D01*
X0241833Y0272391D02*
X0241139Y0272391D01*
X0241139Y0272429D02*
X0241833Y0272429D01*
X0241833Y0272467D02*
X0241139Y0272467D01*
X0241139Y0272505D02*
X0241833Y0272505D01*
X0241833Y0272543D02*
X0241139Y0272543D01*
X0241139Y0272581D02*
X0241833Y0272581D01*
X0241833Y0272619D02*
X0241139Y0272619D01*
X0241139Y0272657D02*
X0241833Y0272657D01*
X0241833Y0272694D02*
X0241139Y0272694D01*
X0241139Y0272732D02*
X0241833Y0272732D01*
X0241833Y0272770D02*
X0241139Y0272770D01*
X0241139Y0272808D02*
X0241833Y0272808D01*
X0241833Y0272846D02*
X0241139Y0272846D01*
X0241139Y0272884D02*
X0241833Y0272884D01*
X0241833Y0272922D02*
X0241139Y0272922D01*
X0241139Y0272960D02*
X0241833Y0272960D01*
X0241833Y0272997D02*
X0241139Y0272997D01*
X0241139Y0273035D02*
X0241833Y0273035D01*
X0236460Y0271785D02*
X0234649Y0271785D01*
X0234497Y0271747D02*
X0236460Y0271747D01*
X0236460Y0271709D02*
X0234369Y0271709D01*
X0234288Y0271672D02*
X0236460Y0271672D01*
X0236460Y0271634D02*
X0234206Y0271634D01*
X0234138Y0271596D02*
X0236460Y0271596D01*
X0236460Y0271558D02*
X0234087Y0271558D01*
X0234036Y0271520D02*
X0236460Y0271520D01*
X0236460Y0271482D02*
X0233985Y0271482D01*
X0233944Y0271444D02*
X0236460Y0271444D01*
X0236460Y0271406D02*
X0233911Y0271406D01*
X0233878Y0271369D02*
X0236460Y0271369D01*
X0236460Y0271331D02*
X0233845Y0271331D01*
X0233812Y0271293D02*
X0236460Y0271293D01*
X0236460Y0271255D02*
X0233788Y0271255D01*
X0233768Y0271217D02*
X0236460Y0271217D01*
X0236460Y0271179D02*
X0233747Y0271179D01*
X0233727Y0271141D02*
X0236460Y0271141D01*
X0236460Y0271103D02*
X0233706Y0271103D01*
X0233686Y0271066D02*
X0234850Y0271066D01*
X0234722Y0271028D02*
X0233675Y0271028D01*
X0233664Y0270990D02*
X0234649Y0270990D01*
X0234576Y0270952D02*
X0233653Y0270952D01*
X0233642Y0270914D02*
X0234545Y0270914D01*
X0234517Y0270876D02*
X0233631Y0270876D01*
X0233620Y0270838D02*
X0234488Y0270838D01*
X0234459Y0270800D02*
X0233615Y0270800D01*
X0233611Y0270762D02*
X0234440Y0270762D01*
X0234433Y0270725D02*
X0233608Y0270725D01*
X0233604Y0270687D02*
X0234426Y0270687D01*
X0234420Y0270649D02*
X0233601Y0270649D01*
X0233598Y0270611D02*
X0234413Y0270611D01*
X0234406Y0270573D02*
X0233594Y0270573D01*
X0233597Y0270535D02*
X0234400Y0270535D01*
X0234407Y0270497D02*
X0233601Y0270497D01*
X0233605Y0270459D02*
X0234414Y0270459D01*
X0234421Y0270422D02*
X0233608Y0270422D01*
X0233612Y0270384D02*
X0234429Y0270384D01*
X0234436Y0270346D02*
X0233616Y0270346D01*
X0233619Y0270308D02*
X0234448Y0270308D01*
X0234475Y0270270D02*
X0233623Y0270270D01*
X0233632Y0270232D02*
X0234501Y0270232D01*
X0234527Y0270194D02*
X0233645Y0270194D01*
X0233657Y0270156D02*
X0234554Y0270156D01*
X0234602Y0270118D02*
X0233670Y0270118D01*
X0233682Y0270081D02*
X0234666Y0270081D01*
X0234730Y0270043D02*
X0233695Y0270043D01*
X0233707Y0270005D02*
X0234885Y0270005D01*
X0235661Y0270005D02*
X0236460Y0270005D01*
X0236460Y0270043D02*
X0235661Y0270043D01*
X0235661Y0270081D02*
X0236460Y0270081D01*
X0236460Y0270118D02*
X0235661Y0270118D01*
X0235661Y0270156D02*
X0236460Y0270156D01*
X0236460Y0270194D02*
X0235661Y0270194D01*
X0235661Y0270232D02*
X0236460Y0270232D01*
X0236460Y0270270D02*
X0235661Y0270270D01*
X0235661Y0270308D02*
X0236460Y0270308D01*
X0236460Y0270346D02*
X0235661Y0270346D01*
X0235661Y0270384D02*
X0236460Y0270384D01*
X0236460Y0270422D02*
X0235661Y0270422D01*
X0235661Y0270459D02*
X0236460Y0270459D01*
X0236460Y0270497D02*
X0235661Y0270497D01*
X0235661Y0270535D02*
X0236460Y0270535D01*
X0236460Y0270573D02*
X0235661Y0270573D01*
X0235661Y0270611D02*
X0236460Y0270611D01*
X0236460Y0270649D02*
X0235661Y0270649D01*
X0235661Y0270687D02*
X0236460Y0270687D01*
X0236460Y0270725D02*
X0235661Y0270725D01*
X0235661Y0270762D02*
X0236460Y0270762D01*
X0236460Y0270800D02*
X0235661Y0270800D01*
X0235661Y0270838D02*
X0236460Y0270838D01*
X0236460Y0270876D02*
X0235661Y0270876D01*
X0235661Y0270914D02*
X0236460Y0270914D01*
X0236460Y0270952D02*
X0235661Y0270952D01*
X0235661Y0270990D02*
X0236460Y0270990D01*
X0236460Y0271028D02*
X0235661Y0271028D01*
X0235661Y0271066D02*
X0236460Y0271066D01*
X0236460Y0269967D02*
X0233729Y0269967D01*
X0233753Y0269929D02*
X0236460Y0269929D01*
X0236460Y0269891D02*
X0233776Y0269891D01*
X0233800Y0269853D02*
X0236460Y0269853D01*
X0236460Y0269815D02*
X0233823Y0269815D01*
X0233848Y0269778D02*
X0236460Y0269778D01*
X0236460Y0269740D02*
X0233885Y0269740D01*
X0233922Y0269702D02*
X0236460Y0269702D01*
X0236460Y0269664D02*
X0233960Y0269664D01*
X0233997Y0269626D02*
X0236460Y0269626D01*
X0236460Y0269588D02*
X0234041Y0269588D01*
X0234100Y0269550D02*
X0236460Y0269550D01*
X0232155Y0270914D02*
X0230636Y0270914D01*
X0230652Y0270952D02*
X0232139Y0270952D01*
X0232123Y0270990D02*
X0230668Y0270990D01*
X0230684Y0271028D02*
X0232107Y0271028D01*
X0232090Y0271066D02*
X0230700Y0271066D01*
X0230716Y0271103D02*
X0232074Y0271103D01*
X0232058Y0271141D02*
X0230732Y0271141D01*
X0230748Y0271179D02*
X0232042Y0271179D01*
X0232026Y0271217D02*
X0230765Y0271217D01*
X0230781Y0271255D02*
X0232010Y0271255D01*
X0231994Y0271293D02*
X0230797Y0271293D01*
X0230813Y0271331D02*
X0231977Y0271331D01*
X0231961Y0271369D02*
X0230829Y0271369D01*
X0230845Y0271406D02*
X0231945Y0271406D01*
X0231929Y0271444D02*
X0230861Y0271444D01*
X0230877Y0271482D02*
X0231913Y0271482D01*
X0231897Y0271520D02*
X0230894Y0271520D01*
X0230910Y0271558D02*
X0231881Y0271558D01*
X0231865Y0271596D02*
X0230926Y0271596D01*
X0230942Y0271634D02*
X0231848Y0271634D01*
X0231832Y0271672D02*
X0230958Y0271672D01*
X0230974Y0271709D02*
X0231816Y0271709D01*
X0231800Y0271747D02*
X0230990Y0271747D01*
X0231006Y0271785D02*
X0231784Y0271785D01*
X0231768Y0271823D02*
X0231022Y0271823D01*
X0224303Y0270308D02*
X0223388Y0270308D01*
X0223352Y0270346D02*
X0224267Y0270346D01*
X0224232Y0270384D02*
X0223316Y0270384D01*
X0223279Y0270422D02*
X0224197Y0270422D01*
X0224162Y0270459D02*
X0223243Y0270459D01*
X0223207Y0270497D02*
X0224127Y0270497D01*
X0224092Y0270535D02*
X0223170Y0270535D01*
X0223134Y0270573D02*
X0224056Y0270573D01*
X0224021Y0270611D02*
X0223098Y0270611D01*
X0223061Y0270649D02*
X0223986Y0270649D01*
X0223951Y0270687D02*
X0223025Y0270687D01*
X0222988Y0270725D02*
X0223916Y0270725D01*
X0223881Y0270762D02*
X0222952Y0270762D01*
X0222916Y0270800D02*
X0223845Y0270800D01*
X0223810Y0270838D02*
X0222879Y0270838D01*
X0222843Y0270876D02*
X0223775Y0270876D01*
X0223740Y0270914D02*
X0222807Y0270914D01*
X0222770Y0270952D02*
X0223705Y0270952D01*
X0223670Y0270990D02*
X0222734Y0270990D01*
X0222698Y0271028D02*
X0223634Y0271028D01*
X0223599Y0271066D02*
X0222661Y0271066D01*
X0222625Y0271103D02*
X0223564Y0271103D01*
X0223529Y0271141D02*
X0222589Y0271141D01*
X0222552Y0271179D02*
X0223494Y0271179D01*
X0223459Y0271217D02*
X0222516Y0271217D01*
X0222480Y0271255D02*
X0223423Y0271255D01*
X0223388Y0271293D02*
X0222443Y0271293D01*
X0222407Y0271331D02*
X0223353Y0271331D01*
X0223318Y0271369D02*
X0222370Y0271369D01*
X0222334Y0271406D02*
X0223283Y0271406D01*
X0223248Y0271444D02*
X0222298Y0271444D01*
X0222261Y0271482D02*
X0223212Y0271482D01*
X0223177Y0271520D02*
X0222225Y0271520D01*
X0222189Y0271558D02*
X0223142Y0271558D01*
X0223107Y0271596D02*
X0222152Y0271596D01*
X0222116Y0271634D02*
X0223072Y0271634D01*
X0223037Y0271672D02*
X0222080Y0271672D01*
X0222043Y0271709D02*
X0223001Y0271709D01*
X0222966Y0271747D02*
X0222007Y0271747D01*
X0221971Y0271785D02*
X0222931Y0271785D01*
X0218582Y0271785D02*
X0217084Y0271785D01*
X0217109Y0271747D02*
X0218557Y0271747D01*
X0218533Y0271709D02*
X0217134Y0271709D01*
X0217159Y0271672D02*
X0218508Y0271672D01*
X0218484Y0271634D02*
X0217183Y0271634D01*
X0217208Y0271596D02*
X0218459Y0271596D01*
X0218434Y0271558D02*
X0217233Y0271558D01*
X0217258Y0271520D02*
X0218410Y0271520D01*
X0218385Y0271482D02*
X0217282Y0271482D01*
X0217307Y0271444D02*
X0218361Y0271444D01*
X0218336Y0271406D02*
X0217332Y0271406D01*
X0217356Y0271369D02*
X0218312Y0271369D01*
X0218287Y0271331D02*
X0217381Y0271331D01*
X0217406Y0271293D02*
X0218262Y0271293D01*
X0218238Y0271255D02*
X0217431Y0271255D01*
X0217455Y0271217D02*
X0218213Y0271217D01*
X0218189Y0271179D02*
X0217480Y0271179D01*
X0217505Y0271141D02*
X0218164Y0271141D01*
X0218140Y0271103D02*
X0217530Y0271103D01*
X0217554Y0271066D02*
X0218115Y0271066D01*
X0218091Y0271028D02*
X0217579Y0271028D01*
X0217604Y0270990D02*
X0218066Y0270990D01*
X0218041Y0270952D02*
X0217629Y0270952D01*
X0217653Y0270914D02*
X0218017Y0270914D01*
X0217992Y0270876D02*
X0217678Y0270876D01*
X0217703Y0270838D02*
X0217968Y0270838D01*
X0217943Y0270800D02*
X0217727Y0270800D01*
X0217752Y0270762D02*
X0217919Y0270762D01*
X0217894Y0270725D02*
X0217777Y0270725D01*
X0217802Y0270687D02*
X0217870Y0270687D01*
X0217845Y0270649D02*
X0217826Y0270649D01*
X0217243Y0270232D02*
X0214833Y0270232D01*
X0214833Y0270194D02*
X0217269Y0270194D01*
X0217295Y0270156D02*
X0214833Y0270156D01*
X0214833Y0270118D02*
X0217321Y0270118D01*
X0217347Y0270081D02*
X0214833Y0270081D01*
X0214833Y0270043D02*
X0217373Y0270043D01*
X0217350Y0270005D02*
X0214833Y0270005D01*
X0214833Y0269967D02*
X0217324Y0269967D01*
X0217298Y0269929D02*
X0214833Y0269929D01*
X0214833Y0269891D02*
X0217272Y0269891D01*
X0217217Y0270270D02*
X0214833Y0270270D01*
X0214833Y0270308D02*
X0217191Y0270308D01*
X0217165Y0270346D02*
X0214833Y0270346D01*
X0214833Y0270384D02*
X0217139Y0270384D01*
X0217113Y0270422D02*
X0214833Y0270422D01*
X0214833Y0270459D02*
X0217088Y0270459D01*
X0217062Y0270497D02*
X0214833Y0270497D01*
X0214833Y0270535D02*
X0217036Y0270535D01*
X0217010Y0270573D02*
X0214833Y0270573D01*
X0214833Y0270611D02*
X0216984Y0270611D01*
X0216958Y0270649D02*
X0214833Y0270649D01*
X0214833Y0270687D02*
X0216932Y0270687D01*
X0216906Y0270725D02*
X0214833Y0270725D01*
X0214833Y0270762D02*
X0216880Y0270762D01*
X0216854Y0270800D02*
X0214833Y0270800D01*
X0214833Y0270838D02*
X0216828Y0270838D01*
X0216803Y0270876D02*
X0214833Y0270876D01*
X0214833Y0270914D02*
X0216777Y0270914D01*
X0216751Y0270952D02*
X0214833Y0270952D01*
X0214833Y0270990D02*
X0216725Y0270990D01*
X0216699Y0271028D02*
X0214833Y0271028D01*
X0214833Y0271066D02*
X0216673Y0271066D01*
X0216647Y0271103D02*
X0214833Y0271103D01*
X0214833Y0271141D02*
X0216621Y0271141D01*
X0216595Y0271179D02*
X0214833Y0271179D01*
X0214833Y0271217D02*
X0216569Y0271217D01*
X0216543Y0271255D02*
X0214833Y0271255D01*
X0214833Y0271293D02*
X0216517Y0271293D01*
X0216492Y0271331D02*
X0214833Y0271331D01*
X0214833Y0271369D02*
X0216466Y0271369D01*
X0216440Y0271406D02*
X0214833Y0271406D01*
X0214833Y0271444D02*
X0216414Y0271444D01*
X0216388Y0271482D02*
X0214833Y0271482D01*
X0214833Y0271520D02*
X0216362Y0271520D01*
X0216336Y0271558D02*
X0214833Y0271558D01*
X0214833Y0271596D02*
X0216310Y0271596D01*
X0216284Y0271634D02*
X0214833Y0271634D01*
X0214833Y0271672D02*
X0216258Y0271672D01*
X0216232Y0271709D02*
X0214833Y0271709D01*
X0214833Y0271747D02*
X0216207Y0271747D01*
X0216181Y0271785D02*
X0214833Y0271785D01*
D12*
X0253533Y0272800D02*
X0253533Y0277200D01*
X0253535Y0277283D01*
X0253541Y0277366D01*
X0253550Y0277449D01*
X0253564Y0277531D01*
X0253581Y0277612D01*
X0253602Y0277693D01*
X0253626Y0277772D01*
X0253655Y0277850D01*
X0253686Y0277927D01*
X0253722Y0278002D01*
X0253760Y0278076D01*
X0253803Y0278148D01*
X0253848Y0278217D01*
X0253897Y0278285D01*
X0253948Y0278350D01*
X0254003Y0278413D01*
X0254060Y0278473D01*
X0254120Y0278530D01*
X0254183Y0278585D01*
X0254248Y0278636D01*
X0254316Y0278685D01*
X0254385Y0278730D01*
X0254457Y0278773D01*
X0254531Y0278811D01*
X0254606Y0278847D01*
X0254683Y0278878D01*
X0254761Y0278907D01*
X0254840Y0278931D01*
X0254921Y0278952D01*
X0255002Y0278969D01*
X0255084Y0278983D01*
X0255167Y0278992D01*
X0255250Y0278998D01*
X0255333Y0279000D01*
X0261333Y0279000D01*
X0261416Y0278998D01*
X0261499Y0278992D01*
X0261582Y0278983D01*
X0261664Y0278969D01*
X0261745Y0278952D01*
X0261826Y0278931D01*
X0261905Y0278907D01*
X0261983Y0278878D01*
X0262060Y0278847D01*
X0262135Y0278811D01*
X0262209Y0278773D01*
X0262281Y0278730D01*
X0262350Y0278685D01*
X0262418Y0278636D01*
X0262483Y0278585D01*
X0262546Y0278530D01*
X0262606Y0278473D01*
X0262663Y0278413D01*
X0262718Y0278350D01*
X0262769Y0278285D01*
X0262818Y0278217D01*
X0262863Y0278148D01*
X0262906Y0278076D01*
X0262944Y0278002D01*
X0262980Y0277927D01*
X0263011Y0277850D01*
X0263040Y0277772D01*
X0263064Y0277693D01*
X0263085Y0277612D01*
X0263102Y0277531D01*
X0263116Y0277449D01*
X0263125Y0277366D01*
X0263131Y0277283D01*
X0263133Y0277200D01*
X0263133Y0272800D01*
X0263131Y0272717D01*
X0263125Y0272634D01*
X0263116Y0272551D01*
X0263102Y0272469D01*
X0263085Y0272388D01*
X0263064Y0272307D01*
X0263040Y0272228D01*
X0263011Y0272150D01*
X0262980Y0272073D01*
X0262944Y0271998D01*
X0262906Y0271924D01*
X0262863Y0271852D01*
X0262818Y0271783D01*
X0262769Y0271715D01*
X0262718Y0271650D01*
X0262663Y0271587D01*
X0262606Y0271527D01*
X0262546Y0271470D01*
X0262483Y0271415D01*
X0262418Y0271364D01*
X0262350Y0271315D01*
X0262281Y0271270D01*
X0262209Y0271227D01*
X0262135Y0271189D01*
X0262060Y0271153D01*
X0261983Y0271122D01*
X0261905Y0271093D01*
X0261826Y0271069D01*
X0261745Y0271048D01*
X0261664Y0271031D01*
X0261582Y0271017D01*
X0261499Y0271008D01*
X0261416Y0271002D01*
X0261333Y0271000D01*
X0255333Y0271000D01*
X0255250Y0271002D01*
X0255167Y0271008D01*
X0255084Y0271017D01*
X0255002Y0271031D01*
X0254921Y0271048D01*
X0254840Y0271069D01*
X0254761Y0271093D01*
X0254683Y0271122D01*
X0254606Y0271153D01*
X0254531Y0271189D01*
X0254457Y0271227D01*
X0254385Y0271270D01*
X0254316Y0271315D01*
X0254248Y0271364D01*
X0254183Y0271415D01*
X0254120Y0271470D01*
X0254060Y0271527D01*
X0254003Y0271587D01*
X0253948Y0271650D01*
X0253897Y0271715D01*
X0253848Y0271783D01*
X0253803Y0271852D01*
X0253760Y0271924D01*
X0253722Y0271998D01*
X0253686Y0272073D01*
X0253655Y0272150D01*
X0253626Y0272228D01*
X0253602Y0272307D01*
X0253581Y0272388D01*
X0253564Y0272469D01*
X0253550Y0272551D01*
X0253541Y0272634D01*
X0253535Y0272717D01*
X0253533Y0272800D01*
X0255333Y0269000D02*
X0261333Y0269000D01*
X0261416Y0268998D01*
X0261499Y0268992D01*
X0261582Y0268983D01*
X0261664Y0268969D01*
X0261745Y0268952D01*
X0261826Y0268931D01*
X0261905Y0268907D01*
X0261983Y0268878D01*
X0262060Y0268847D01*
X0262135Y0268811D01*
X0262209Y0268773D01*
X0262281Y0268730D01*
X0262350Y0268685D01*
X0262418Y0268636D01*
X0262483Y0268585D01*
X0262546Y0268530D01*
X0262606Y0268473D01*
X0262663Y0268413D01*
X0262718Y0268350D01*
X0262769Y0268285D01*
X0262818Y0268217D01*
X0262863Y0268148D01*
X0262906Y0268076D01*
X0262944Y0268002D01*
X0262980Y0267927D01*
X0263011Y0267850D01*
X0263040Y0267772D01*
X0263064Y0267693D01*
X0263085Y0267612D01*
X0263102Y0267531D01*
X0263116Y0267449D01*
X0263125Y0267366D01*
X0263131Y0267283D01*
X0263133Y0267200D01*
X0263133Y0262800D01*
X0263131Y0262717D01*
X0263125Y0262634D01*
X0263116Y0262551D01*
X0263102Y0262469D01*
X0263085Y0262388D01*
X0263064Y0262307D01*
X0263040Y0262228D01*
X0263011Y0262150D01*
X0262980Y0262073D01*
X0262944Y0261998D01*
X0262906Y0261924D01*
X0262863Y0261852D01*
X0262818Y0261783D01*
X0262769Y0261715D01*
X0262718Y0261650D01*
X0262663Y0261587D01*
X0262606Y0261527D01*
X0262546Y0261470D01*
X0262483Y0261415D01*
X0262418Y0261364D01*
X0262350Y0261315D01*
X0262281Y0261270D01*
X0262209Y0261227D01*
X0262135Y0261189D01*
X0262060Y0261153D01*
X0261983Y0261122D01*
X0261905Y0261093D01*
X0261826Y0261069D01*
X0261745Y0261048D01*
X0261664Y0261031D01*
X0261582Y0261017D01*
X0261499Y0261008D01*
X0261416Y0261002D01*
X0261333Y0261000D01*
X0255333Y0261000D01*
X0255250Y0261002D01*
X0255167Y0261008D01*
X0255084Y0261017D01*
X0255002Y0261031D01*
X0254921Y0261048D01*
X0254840Y0261069D01*
X0254761Y0261093D01*
X0254683Y0261122D01*
X0254606Y0261153D01*
X0254531Y0261189D01*
X0254457Y0261227D01*
X0254385Y0261270D01*
X0254316Y0261315D01*
X0254248Y0261364D01*
X0254183Y0261415D01*
X0254120Y0261470D01*
X0254060Y0261527D01*
X0254003Y0261587D01*
X0253948Y0261650D01*
X0253897Y0261715D01*
X0253848Y0261783D01*
X0253803Y0261852D01*
X0253760Y0261924D01*
X0253722Y0261998D01*
X0253686Y0262073D01*
X0253655Y0262150D01*
X0253626Y0262228D01*
X0253602Y0262307D01*
X0253581Y0262388D01*
X0253564Y0262469D01*
X0253550Y0262551D01*
X0253541Y0262634D01*
X0253535Y0262717D01*
X0253533Y0262800D01*
X0253533Y0267200D01*
X0253535Y0267283D01*
X0253541Y0267366D01*
X0253550Y0267449D01*
X0253564Y0267531D01*
X0253581Y0267612D01*
X0253602Y0267693D01*
X0253626Y0267772D01*
X0253655Y0267850D01*
X0253686Y0267927D01*
X0253722Y0268002D01*
X0253760Y0268076D01*
X0253803Y0268148D01*
X0253848Y0268217D01*
X0253897Y0268285D01*
X0253948Y0268350D01*
X0254003Y0268413D01*
X0254060Y0268473D01*
X0254120Y0268530D01*
X0254183Y0268585D01*
X0254248Y0268636D01*
X0254316Y0268685D01*
X0254385Y0268730D01*
X0254457Y0268773D01*
X0254531Y0268811D01*
X0254606Y0268847D01*
X0254683Y0268878D01*
X0254761Y0268907D01*
X0254840Y0268931D01*
X0254921Y0268952D01*
X0255002Y0268969D01*
X0255084Y0268983D01*
X0255167Y0268992D01*
X0255250Y0268998D01*
X0255333Y0269000D01*
X0255333Y0259000D02*
X0261333Y0259000D01*
X0261416Y0258998D01*
X0261499Y0258992D01*
X0261582Y0258983D01*
X0261664Y0258969D01*
X0261745Y0258952D01*
X0261826Y0258931D01*
X0261905Y0258907D01*
X0261983Y0258878D01*
X0262060Y0258847D01*
X0262135Y0258811D01*
X0262209Y0258773D01*
X0262281Y0258730D01*
X0262350Y0258685D01*
X0262418Y0258636D01*
X0262483Y0258585D01*
X0262546Y0258530D01*
X0262606Y0258473D01*
X0262663Y0258413D01*
X0262718Y0258350D01*
X0262769Y0258285D01*
X0262818Y0258217D01*
X0262863Y0258148D01*
X0262906Y0258076D01*
X0262944Y0258002D01*
X0262980Y0257927D01*
X0263011Y0257850D01*
X0263040Y0257772D01*
X0263064Y0257693D01*
X0263085Y0257612D01*
X0263102Y0257531D01*
X0263116Y0257449D01*
X0263125Y0257366D01*
X0263131Y0257283D01*
X0263133Y0257200D01*
X0263133Y0252800D01*
X0263131Y0252717D01*
X0263125Y0252634D01*
X0263116Y0252551D01*
X0263102Y0252469D01*
X0263085Y0252388D01*
X0263064Y0252307D01*
X0263040Y0252228D01*
X0263011Y0252150D01*
X0262980Y0252073D01*
X0262944Y0251998D01*
X0262906Y0251924D01*
X0262863Y0251852D01*
X0262818Y0251783D01*
X0262769Y0251715D01*
X0262718Y0251650D01*
X0262663Y0251587D01*
X0262606Y0251527D01*
X0262546Y0251470D01*
X0262483Y0251415D01*
X0262418Y0251364D01*
X0262350Y0251315D01*
X0262281Y0251270D01*
X0262209Y0251227D01*
X0262135Y0251189D01*
X0262060Y0251153D01*
X0261983Y0251122D01*
X0261905Y0251093D01*
X0261826Y0251069D01*
X0261745Y0251048D01*
X0261664Y0251031D01*
X0261582Y0251017D01*
X0261499Y0251008D01*
X0261416Y0251002D01*
X0261333Y0251000D01*
X0255333Y0251000D01*
X0255250Y0251002D01*
X0255167Y0251008D01*
X0255084Y0251017D01*
X0255002Y0251031D01*
X0254921Y0251048D01*
X0254840Y0251069D01*
X0254761Y0251093D01*
X0254683Y0251122D01*
X0254606Y0251153D01*
X0254531Y0251189D01*
X0254457Y0251227D01*
X0254385Y0251270D01*
X0254316Y0251315D01*
X0254248Y0251364D01*
X0254183Y0251415D01*
X0254120Y0251470D01*
X0254060Y0251527D01*
X0254003Y0251587D01*
X0253948Y0251650D01*
X0253897Y0251715D01*
X0253848Y0251783D01*
X0253803Y0251852D01*
X0253760Y0251924D01*
X0253722Y0251998D01*
X0253686Y0252073D01*
X0253655Y0252150D01*
X0253626Y0252228D01*
X0253602Y0252307D01*
X0253581Y0252388D01*
X0253564Y0252469D01*
X0253550Y0252551D01*
X0253541Y0252634D01*
X0253535Y0252717D01*
X0253533Y0252800D01*
X0253533Y0257200D01*
X0253535Y0257283D01*
X0253541Y0257366D01*
X0253550Y0257449D01*
X0253564Y0257531D01*
X0253581Y0257612D01*
X0253602Y0257693D01*
X0253626Y0257772D01*
X0253655Y0257850D01*
X0253686Y0257927D01*
X0253722Y0258002D01*
X0253760Y0258076D01*
X0253803Y0258148D01*
X0253848Y0258217D01*
X0253897Y0258285D01*
X0253948Y0258350D01*
X0254003Y0258413D01*
X0254060Y0258473D01*
X0254120Y0258530D01*
X0254183Y0258585D01*
X0254248Y0258636D01*
X0254316Y0258685D01*
X0254385Y0258730D01*
X0254457Y0258773D01*
X0254531Y0258811D01*
X0254606Y0258847D01*
X0254683Y0258878D01*
X0254761Y0258907D01*
X0254840Y0258931D01*
X0254921Y0258952D01*
X0255002Y0258969D01*
X0255084Y0258983D01*
X0255167Y0258992D01*
X0255250Y0258998D01*
X0255333Y0259000D01*
D13*
X0170133Y0312800D02*
X0170133Y0317200D01*
X0170131Y0317283D01*
X0170125Y0317366D01*
X0170116Y0317449D01*
X0170102Y0317531D01*
X0170085Y0317612D01*
X0170064Y0317693D01*
X0170040Y0317772D01*
X0170011Y0317850D01*
X0169980Y0317927D01*
X0169944Y0318002D01*
X0169906Y0318076D01*
X0169863Y0318148D01*
X0169818Y0318217D01*
X0169769Y0318285D01*
X0169718Y0318350D01*
X0169663Y0318413D01*
X0169606Y0318473D01*
X0169546Y0318530D01*
X0169483Y0318585D01*
X0169418Y0318636D01*
X0169350Y0318685D01*
X0169281Y0318730D01*
X0169209Y0318773D01*
X0169135Y0318811D01*
X0169060Y0318847D01*
X0168983Y0318878D01*
X0168905Y0318907D01*
X0168826Y0318931D01*
X0168745Y0318952D01*
X0168664Y0318969D01*
X0168582Y0318983D01*
X0168499Y0318992D01*
X0168416Y0318998D01*
X0168333Y0319000D01*
X0158333Y0319000D01*
X0158250Y0318998D01*
X0158167Y0318992D01*
X0158084Y0318983D01*
X0158002Y0318969D01*
X0157921Y0318952D01*
X0157840Y0318931D01*
X0157761Y0318907D01*
X0157683Y0318878D01*
X0157606Y0318847D01*
X0157531Y0318811D01*
X0157457Y0318773D01*
X0157385Y0318730D01*
X0157316Y0318685D01*
X0157248Y0318636D01*
X0157183Y0318585D01*
X0157120Y0318530D01*
X0157060Y0318473D01*
X0157003Y0318413D01*
X0156948Y0318350D01*
X0156897Y0318285D01*
X0156848Y0318217D01*
X0156803Y0318148D01*
X0156760Y0318076D01*
X0156722Y0318002D01*
X0156686Y0317927D01*
X0156655Y0317850D01*
X0156626Y0317772D01*
X0156602Y0317693D01*
X0156581Y0317612D01*
X0156564Y0317531D01*
X0156550Y0317449D01*
X0156541Y0317366D01*
X0156535Y0317283D01*
X0156533Y0317200D01*
X0156533Y0312800D01*
X0156535Y0312717D01*
X0156541Y0312634D01*
X0156550Y0312551D01*
X0156564Y0312469D01*
X0156581Y0312388D01*
X0156602Y0312307D01*
X0156626Y0312228D01*
X0156655Y0312150D01*
X0156686Y0312073D01*
X0156722Y0311998D01*
X0156760Y0311924D01*
X0156803Y0311852D01*
X0156848Y0311783D01*
X0156897Y0311715D01*
X0156948Y0311650D01*
X0157003Y0311587D01*
X0157060Y0311527D01*
X0157120Y0311470D01*
X0157183Y0311415D01*
X0157248Y0311364D01*
X0157316Y0311315D01*
X0157385Y0311270D01*
X0157457Y0311227D01*
X0157531Y0311189D01*
X0157606Y0311153D01*
X0157683Y0311122D01*
X0157761Y0311093D01*
X0157840Y0311069D01*
X0157921Y0311048D01*
X0158002Y0311031D01*
X0158084Y0311017D01*
X0158167Y0311008D01*
X0158250Y0311002D01*
X0158333Y0311000D01*
X0168333Y0311000D01*
X0168416Y0311002D01*
X0168499Y0311008D01*
X0168582Y0311017D01*
X0168664Y0311031D01*
X0168745Y0311048D01*
X0168826Y0311069D01*
X0168905Y0311093D01*
X0168983Y0311122D01*
X0169060Y0311153D01*
X0169135Y0311189D01*
X0169209Y0311227D01*
X0169281Y0311270D01*
X0169350Y0311315D01*
X0169418Y0311364D01*
X0169483Y0311415D01*
X0169546Y0311470D01*
X0169606Y0311527D01*
X0169663Y0311587D01*
X0169718Y0311650D01*
X0169769Y0311715D01*
X0169818Y0311783D01*
X0169863Y0311852D01*
X0169906Y0311924D01*
X0169944Y0311998D01*
X0169980Y0312073D01*
X0170011Y0312150D01*
X0170040Y0312228D01*
X0170064Y0312307D01*
X0170085Y0312388D01*
X0170102Y0312469D01*
X0170116Y0312551D01*
X0170125Y0312634D01*
X0170131Y0312717D01*
X0170133Y0312800D01*
D14*
X0271483Y0268150D03*
X0271483Y0261850D03*
D15*
X0271483Y0262008D03*
X0270853Y0258150D03*
X0270853Y0251850D03*
X0271483Y0267992D03*
D16*
X0271483Y0267835D03*
X0271483Y0262165D03*
D17*
X0271483Y0262323D03*
X0271483Y0267677D03*
X0270853Y0272008D03*
X0270853Y0277992D03*
D18*
X0270853Y0272165D03*
X0271483Y0267520D03*
X0271483Y0262480D03*
X0270853Y0257835D03*
X0270853Y0252165D03*
D19*
X0271483Y0262638D03*
X0271483Y0267362D03*
D20*
X0271483Y0267205D03*
X0271483Y0262795D03*
X0270853Y0257677D03*
X0270853Y0252323D03*
X0270853Y0272323D03*
X0270853Y0277677D03*
D21*
X0270853Y0277520D03*
X0270853Y0272480D03*
X0271483Y0267047D03*
X0270853Y0257520D03*
X0270853Y0252480D03*
D22*
X0276479Y0246890D03*
X0276322Y0246575D03*
X0276164Y0246417D03*
X0276164Y0246260D03*
X0276007Y0245945D03*
X0276007Y0245787D03*
X0275735Y0265787D03*
X0275577Y0266102D03*
X0275577Y0266260D03*
X0275420Y0266575D03*
X0275262Y0266890D03*
X0275420Y0276417D03*
D23*
X0276129Y0273583D03*
X0270774Y0266890D03*
X0266837Y0266575D03*
X0266837Y0266417D03*
X0266837Y0263583D03*
X0266837Y0263425D03*
X0276129Y0263583D03*
X0265577Y0254055D03*
X0280967Y0246890D03*
X0288869Y0222953D03*
X0265577Y0273740D03*
X0158105Y0256102D03*
X0158105Y0255945D03*
X0158105Y0255787D03*
X0158105Y0255630D03*
X0158105Y0255472D03*
X0158105Y0255315D03*
X0158105Y0255157D03*
X0158105Y0255000D03*
X0158105Y0254843D03*
X0158105Y0254685D03*
X0158105Y0254528D03*
X0158105Y0254370D03*
X0158105Y0254213D03*
X0158105Y0254055D03*
X0158105Y0253898D03*
X0158105Y0253740D03*
X0158105Y0253583D03*
X0158105Y0253425D03*
X0158105Y0253268D03*
X0158105Y0253110D03*
D24*
X0265499Y0273583D03*
X0266916Y0266890D03*
X0266916Y0266732D03*
X0266916Y0263268D03*
X0266916Y0263110D03*
X0267073Y0262953D03*
X0275892Y0262953D03*
X0276050Y0263110D03*
X0276207Y0263425D03*
X0276050Y0253583D03*
X0276050Y0253425D03*
X0276979Y0253425D03*
X0276979Y0253583D03*
X0275534Y0243425D03*
X0275849Y0242953D03*
X0279944Y0234528D03*
X0280888Y0232953D03*
X0284353Y0232953D03*
X0286113Y0225630D03*
X0286113Y0225472D03*
X0288948Y0226890D03*
X0276664Y0226890D03*
X0276050Y0273425D03*
D25*
X0275656Y0275787D03*
X0275656Y0275945D03*
X0275499Y0276102D03*
X0275499Y0276260D03*
X0275341Y0276575D03*
X0275184Y0276732D03*
X0275184Y0276890D03*
X0266207Y0273898D03*
X0266050Y0274055D03*
X0275341Y0266732D03*
X0275499Y0266417D03*
X0275656Y0265945D03*
X0275814Y0265630D03*
X0275814Y0265472D03*
X0275184Y0256890D03*
X0275184Y0256732D03*
X0275341Y0256575D03*
X0275341Y0256417D03*
X0275499Y0256260D03*
X0275499Y0256102D03*
X0275656Y0255787D03*
X0276400Y0246732D03*
X0276085Y0246102D03*
X0275928Y0245630D03*
X0275928Y0245472D03*
D26*
X0275613Y0243268D03*
X0275613Y0243110D03*
X0276873Y0237047D03*
X0288369Y0237047D03*
X0288369Y0235472D03*
X0288369Y0235315D03*
X0288369Y0235157D03*
X0288369Y0235000D03*
X0288369Y0234843D03*
X0288369Y0234685D03*
X0286034Y0225787D03*
X0289026Y0223110D03*
X0276585Y0223110D03*
X0288526Y0244685D03*
X0288526Y0247047D03*
X0282885Y0254370D03*
X0282885Y0254528D03*
X0282885Y0254685D03*
X0282885Y0254843D03*
X0282885Y0255000D03*
X0282885Y0255157D03*
X0282885Y0255315D03*
X0282885Y0255472D03*
X0277215Y0252953D03*
X0277058Y0253110D03*
X0277058Y0253268D03*
X0275971Y0253110D03*
X0275814Y0252953D03*
X0276129Y0263268D03*
X0270774Y0266732D03*
X0275814Y0272953D03*
X0275971Y0273110D03*
X0265735Y0273110D03*
X0265577Y0273425D03*
X0289026Y0257047D03*
D27*
X0289184Y0252953D03*
X0285247Y0252953D03*
X0288684Y0246890D03*
X0288526Y0232953D03*
X0284274Y0233110D03*
X0280967Y0233110D03*
X0276715Y0232953D03*
X0276428Y0226575D03*
X0276428Y0223268D03*
X0289184Y0223268D03*
X0289184Y0226575D03*
X0270932Y0256732D03*
X0270774Y0266575D03*
X0269987Y0274843D03*
X0270932Y0276732D03*
D28*
X0272585Y0272953D03*
X0270853Y0266417D03*
X0272585Y0262953D03*
X0272585Y0252953D03*
X0279156Y0242953D03*
X0276636Y0236890D03*
X0280259Y0234685D03*
X0282621Y0236732D03*
X0282621Y0236890D03*
X0288605Y0236890D03*
X0288762Y0243110D03*
X0288762Y0244843D03*
X0285928Y0245787D03*
X0289262Y0253110D03*
X0289262Y0254843D03*
X0289262Y0256890D03*
X0286428Y0255787D03*
X0285168Y0256890D03*
X0276349Y0226417D03*
X0276349Y0223425D03*
X0289262Y0223425D03*
X0168577Y0252953D03*
D29*
X0168499Y0253268D03*
X0168499Y0256732D03*
X0164247Y0256890D03*
X0161570Y0256102D03*
X0161570Y0255945D03*
X0161570Y0255787D03*
X0161570Y0255630D03*
X0161570Y0255472D03*
X0161570Y0255315D03*
X0161570Y0255157D03*
X0161570Y0255000D03*
X0161570Y0254843D03*
X0161570Y0254685D03*
X0161570Y0254528D03*
X0161570Y0254370D03*
X0161570Y0254213D03*
X0161570Y0254055D03*
X0161570Y0253898D03*
X0161570Y0253740D03*
X0161570Y0253583D03*
X0161570Y0253425D03*
X0161570Y0253268D03*
X0161570Y0253110D03*
X0164247Y0252953D03*
X0270302Y0264685D03*
X0270302Y0264843D03*
X0270932Y0266260D03*
X0272664Y0263425D03*
X0270932Y0256260D03*
X0270932Y0256102D03*
X0272507Y0253425D03*
X0279077Y0243425D03*
X0285692Y0245472D03*
X0288999Y0245472D03*
X0288999Y0245630D03*
X0288999Y0245787D03*
X0288999Y0245945D03*
X0288999Y0246102D03*
X0288999Y0246260D03*
X0288999Y0244055D03*
X0288999Y0243898D03*
X0288999Y0243740D03*
X0288999Y0243583D03*
X0288841Y0236417D03*
X0288841Y0236260D03*
X0288841Y0236102D03*
X0288841Y0235945D03*
X0288841Y0235787D03*
X0288841Y0234370D03*
X0288841Y0233425D03*
X0282542Y0236260D03*
X0280022Y0235472D03*
X0276400Y0235472D03*
X0276400Y0235315D03*
X0276400Y0234843D03*
X0276400Y0234685D03*
X0276400Y0233425D03*
X0276400Y0236260D03*
X0276400Y0236417D03*
X0276113Y0225945D03*
X0276113Y0225787D03*
X0276113Y0224213D03*
X0276113Y0224055D03*
X0282727Y0222953D03*
X0282727Y0226890D03*
X0289499Y0225945D03*
X0289499Y0225787D03*
X0289499Y0225630D03*
X0289499Y0224370D03*
X0289499Y0224213D03*
X0289499Y0224055D03*
X0285247Y0253110D03*
X0286192Y0255472D03*
X0289499Y0255472D03*
X0289499Y0255315D03*
X0289499Y0255630D03*
X0289499Y0255787D03*
X0289499Y0255945D03*
X0289499Y0256102D03*
X0289499Y0256260D03*
X0289499Y0254055D03*
X0289499Y0253898D03*
X0289499Y0253583D03*
X0289499Y0253425D03*
X0272507Y0273425D03*
D30*
X0276050Y0273740D03*
X0276050Y0273898D03*
X0266759Y0266260D03*
X0266759Y0266102D03*
X0266759Y0265945D03*
X0266759Y0264055D03*
X0266759Y0263898D03*
X0266759Y0263740D03*
X0265814Y0256417D03*
X0265656Y0256260D03*
X0265656Y0256102D03*
X0265656Y0255945D03*
X0265499Y0255787D03*
X0265499Y0255630D03*
X0265499Y0255472D03*
X0265499Y0255315D03*
X0265499Y0255157D03*
X0265499Y0255000D03*
X0265499Y0254843D03*
X0265499Y0254685D03*
X0265499Y0254528D03*
X0265499Y0254370D03*
X0265499Y0254213D03*
X0265656Y0253898D03*
X0265656Y0253740D03*
X0265814Y0253583D03*
X0265814Y0253425D03*
X0265971Y0253268D03*
X0276050Y0253740D03*
X0276050Y0253898D03*
X0285168Y0257047D03*
X0288790Y0254528D03*
X0288290Y0244528D03*
X0275534Y0243740D03*
X0275534Y0243583D03*
X0276207Y0263740D03*
X0265499Y0275472D03*
X0265499Y0275630D03*
X0265656Y0276102D03*
X0288790Y0227047D03*
X0276822Y0222953D03*
X0158184Y0252953D03*
D31*
X0157396Y0256260D03*
X0157396Y0256890D03*
X0168420Y0256575D03*
X0168420Y0253425D03*
X0270223Y0264370D03*
X0270223Y0264528D03*
X0271010Y0266102D03*
X0272585Y0263583D03*
X0272585Y0273583D03*
X0270223Y0274528D03*
X0271010Y0276102D03*
X0271010Y0276260D03*
X0285168Y0256732D03*
X0289577Y0253740D03*
X0282936Y0245157D03*
X0282936Y0245000D03*
X0282936Y0244843D03*
X0281833Y0242953D03*
X0279156Y0243583D03*
X0280731Y0246260D03*
X0282621Y0236102D03*
X0284196Y0233740D03*
X0284196Y0233583D03*
X0281046Y0233583D03*
X0281046Y0233740D03*
X0276322Y0233740D03*
X0276322Y0233583D03*
X0276322Y0233898D03*
X0276322Y0234055D03*
X0276322Y0234213D03*
X0276322Y0234370D03*
X0276322Y0234528D03*
X0276322Y0235630D03*
X0276322Y0235787D03*
X0276322Y0235945D03*
X0276322Y0236102D03*
X0276034Y0225630D03*
X0276034Y0225472D03*
X0276034Y0225315D03*
X0276034Y0225157D03*
X0276034Y0225000D03*
X0276034Y0224843D03*
X0276034Y0224685D03*
X0276034Y0224528D03*
X0276034Y0224370D03*
X0282806Y0223110D03*
X0289577Y0224528D03*
X0289577Y0224685D03*
X0289577Y0224843D03*
X0289577Y0225000D03*
X0289577Y0225157D03*
X0289577Y0225315D03*
X0289577Y0225472D03*
X0288920Y0233583D03*
X0288920Y0233740D03*
X0288920Y0233898D03*
X0288920Y0234055D03*
X0288920Y0234213D03*
X0272585Y0253583D03*
D32*
X0270853Y0255472D03*
X0270853Y0255630D03*
X0270066Y0252953D03*
X0270066Y0263740D03*
X0270066Y0263898D03*
X0270853Y0265315D03*
X0271010Y0265630D03*
X0271010Y0265787D03*
X0271010Y0265945D03*
X0270223Y0274370D03*
X0271010Y0275787D03*
X0283278Y0254055D03*
X0283093Y0245630D03*
X0283093Y0244213D03*
X0285298Y0242953D03*
X0282621Y0235787D03*
X0284510Y0234685D03*
X0284353Y0234370D03*
X0284353Y0234213D03*
X0280888Y0234213D03*
X0282648Y0226575D03*
X0282648Y0226417D03*
X0282806Y0223268D03*
X0286743Y0224213D03*
X0278711Y0224370D03*
X0278711Y0224528D03*
X0278711Y0225472D03*
X0168262Y0253740D03*
X0168262Y0256260D03*
X0164168Y0256575D03*
X0164325Y0253425D03*
X0164325Y0253268D03*
D33*
X0265892Y0256575D03*
X0266050Y0256732D03*
X0266050Y0253110D03*
X0266207Y0252953D03*
X0275971Y0254055D03*
X0275613Y0243898D03*
X0288054Y0234528D03*
X0276129Y0263898D03*
X0276129Y0264055D03*
X0266680Y0264213D03*
X0266680Y0264370D03*
X0266680Y0264528D03*
X0266680Y0264685D03*
X0266680Y0264843D03*
X0266680Y0265000D03*
X0266680Y0265157D03*
X0266680Y0265315D03*
X0266680Y0265472D03*
X0266680Y0265630D03*
X0266680Y0265787D03*
X0265577Y0275000D03*
X0265577Y0275157D03*
X0265577Y0275315D03*
X0265577Y0275787D03*
X0265577Y0275945D03*
X0265735Y0276260D03*
X0265735Y0276417D03*
X0265892Y0276575D03*
X0266050Y0276732D03*
D34*
X0270774Y0275157D03*
X0270932Y0275472D03*
X0270932Y0275630D03*
X0270932Y0265472D03*
X0269987Y0263583D03*
X0269987Y0263425D03*
X0269987Y0263268D03*
X0269987Y0263110D03*
X0281940Y0252953D03*
X0285247Y0256575D03*
X0287294Y0254213D03*
X0285377Y0245315D03*
X0286794Y0244213D03*
X0283172Y0244055D03*
X0283172Y0245787D03*
X0280652Y0245787D03*
X0280652Y0245630D03*
X0280337Y0235630D03*
X0278762Y0234370D03*
X0282542Y0235630D03*
X0284432Y0234528D03*
X0284589Y0234843D03*
X0284747Y0235157D03*
X0286636Y0234370D03*
X0285089Y0226890D03*
X0282570Y0226260D03*
X0282885Y0223583D03*
X0282885Y0223425D03*
X0285089Y0222953D03*
X0286664Y0224055D03*
X0278790Y0224213D03*
X0278790Y0225630D03*
X0168184Y0253898D03*
X0168184Y0256102D03*
X0164089Y0256260D03*
X0164089Y0256417D03*
X0164404Y0253583D03*
D35*
X0159975Y0323972D03*
X0275735Y0275630D03*
X0275735Y0275472D03*
X0275892Y0265315D03*
X0275892Y0265157D03*
X0275577Y0255945D03*
X0275735Y0255630D03*
X0275735Y0255472D03*
X0275849Y0245315D03*
X0275849Y0245157D03*
D36*
X0272585Y0255157D03*
X0272585Y0265157D03*
X0269436Y0265315D03*
X0270381Y0273268D03*
X0270381Y0273425D03*
X0272585Y0275157D03*
X0282621Y0234528D03*
X0282621Y0234370D03*
X0283436Y0225000D03*
X0282018Y0224843D03*
X0253176Y0211807D03*
X0253333Y0210390D03*
X0193361Y0210547D03*
X0193203Y0210547D03*
X0164955Y0255000D03*
X0163538Y0254843D03*
X0193833Y0338390D03*
X0193676Y0339807D03*
X0252203Y0339547D03*
X0252361Y0339547D03*
D37*
X0271010Y0276417D03*
X0270066Y0274685D03*
X0272585Y0273268D03*
X0270381Y0265157D03*
X0270381Y0265000D03*
X0272585Y0263268D03*
X0272585Y0253268D03*
X0280731Y0246417D03*
X0279156Y0243268D03*
X0276479Y0236575D03*
X0276479Y0235157D03*
X0276479Y0233268D03*
X0280101Y0235157D03*
X0280101Y0235315D03*
X0281046Y0233425D03*
X0284196Y0233425D03*
X0282621Y0236417D03*
X0282621Y0236575D03*
X0288762Y0236575D03*
X0288762Y0233268D03*
X0289420Y0226102D03*
X0289420Y0223898D03*
X0289420Y0223740D03*
X0276192Y0223740D03*
X0276192Y0223898D03*
X0276192Y0226102D03*
X0288920Y0243268D03*
X0288920Y0243425D03*
X0288920Y0244213D03*
X0288920Y0245157D03*
X0288920Y0245315D03*
X0288920Y0246417D03*
X0288920Y0246575D03*
X0289420Y0253268D03*
X0289420Y0254213D03*
X0289420Y0255157D03*
X0289420Y0256417D03*
X0289420Y0256575D03*
D38*
X0275814Y0255315D03*
X0275814Y0255157D03*
X0275971Y0264843D03*
X0275971Y0265000D03*
X0275814Y0275157D03*
X0275814Y0275315D03*
X0265892Y0274213D03*
X0275770Y0245000D03*
X0275770Y0244843D03*
D39*
X0279077Y0245000D03*
X0279077Y0245157D03*
X0284904Y0244213D03*
X0286479Y0236102D03*
X0278605Y0236102D03*
X0282097Y0225000D03*
X0283357Y0224843D03*
X0283357Y0224685D03*
X0281625Y0253425D03*
X0281625Y0253583D03*
X0281625Y0256260D03*
X0281625Y0256417D03*
X0285562Y0254685D03*
X0272664Y0265000D03*
X0270459Y0273583D03*
X0164877Y0254843D03*
X0163617Y0255000D03*
X0163617Y0255157D03*
D40*
X0163696Y0255315D03*
X0164798Y0254685D03*
X0164798Y0254528D03*
X0166215Y0254528D03*
X0166215Y0254685D03*
X0166215Y0254843D03*
X0166215Y0255000D03*
X0166215Y0255157D03*
X0166215Y0255315D03*
X0166215Y0255472D03*
X0166215Y0255630D03*
X0166215Y0255787D03*
X0166215Y0255945D03*
X0166215Y0256102D03*
X0166215Y0256260D03*
X0166215Y0256417D03*
X0166215Y0256575D03*
X0166215Y0254370D03*
X0166215Y0254213D03*
X0166215Y0254055D03*
X0166215Y0253898D03*
X0166215Y0253740D03*
X0166215Y0253583D03*
X0166215Y0253425D03*
X0166215Y0253268D03*
X0162278Y0256417D03*
X0162278Y0256575D03*
X0162278Y0256732D03*
X0162278Y0256890D03*
X0165054Y0323500D03*
X0165054Y0323972D03*
X0164345Y0323972D03*
X0163164Y0323972D03*
X0270381Y0273740D03*
X0270381Y0273110D03*
X0272585Y0274843D03*
X0272585Y0275000D03*
X0272585Y0264843D03*
X0272585Y0255000D03*
X0272585Y0254843D03*
X0281703Y0253898D03*
X0281703Y0253740D03*
X0281703Y0253268D03*
X0281703Y0256102D03*
X0281703Y0256575D03*
X0285640Y0255000D03*
X0285640Y0254843D03*
X0285483Y0254528D03*
X0285483Y0254370D03*
X0285483Y0254213D03*
X0284983Y0244843D03*
X0284983Y0244685D03*
X0284983Y0244528D03*
X0284983Y0244370D03*
X0284983Y0244055D03*
X0284983Y0243898D03*
X0284983Y0243740D03*
X0284983Y0243583D03*
X0281203Y0243898D03*
X0281046Y0244055D03*
X0281046Y0244213D03*
X0280888Y0244528D03*
X0279156Y0244843D03*
X0280259Y0236417D03*
X0282621Y0234843D03*
X0282621Y0234685D03*
X0284825Y0236102D03*
X0284983Y0236417D03*
X0280759Y0226732D03*
X0280759Y0226575D03*
X0280759Y0226417D03*
X0280759Y0226260D03*
X0280759Y0226102D03*
X0280759Y0225945D03*
X0280759Y0225787D03*
X0280759Y0225630D03*
X0280759Y0225472D03*
X0280759Y0225315D03*
X0280759Y0225157D03*
X0280759Y0225000D03*
X0280759Y0224843D03*
X0280759Y0224685D03*
X0280759Y0224528D03*
X0280759Y0224370D03*
X0280759Y0224213D03*
X0280759Y0224055D03*
X0280759Y0223898D03*
X0280759Y0223740D03*
X0280759Y0223583D03*
X0280759Y0223425D03*
X0280759Y0223268D03*
X0282176Y0225157D03*
X0282176Y0225315D03*
X0283278Y0224528D03*
X0284853Y0224528D03*
X0284853Y0224685D03*
X0284853Y0224843D03*
X0284853Y0225000D03*
X0284853Y0225157D03*
X0284853Y0224370D03*
X0284853Y0224213D03*
X0284853Y0224055D03*
X0284853Y0223898D03*
X0284853Y0223740D03*
X0284853Y0223583D03*
X0284853Y0223425D03*
D41*
X0275692Y0244528D03*
X0275692Y0244685D03*
X0275892Y0254843D03*
X0275892Y0255000D03*
X0276050Y0264528D03*
X0276050Y0264685D03*
X0275892Y0274843D03*
X0275892Y0275000D03*
X0266444Y0277047D03*
X0265814Y0274370D03*
D42*
X0268727Y0275945D03*
X0270459Y0273898D03*
X0272664Y0264685D03*
X0281782Y0256732D03*
X0281782Y0255945D03*
X0281782Y0254055D03*
X0285404Y0254055D03*
X0285404Y0253898D03*
X0287136Y0256102D03*
X0285062Y0246575D03*
X0285062Y0246417D03*
X0285062Y0246260D03*
X0285062Y0245000D03*
X0285062Y0243425D03*
X0283329Y0243898D03*
X0281440Y0243583D03*
X0281440Y0243425D03*
X0281282Y0243740D03*
X0280967Y0244370D03*
X0280810Y0244685D03*
X0280810Y0244843D03*
X0279077Y0244685D03*
X0286636Y0246102D03*
X0285062Y0236575D03*
X0284904Y0236260D03*
X0284747Y0235945D03*
X0284747Y0235787D03*
X0280337Y0236102D03*
X0280337Y0236260D03*
X0280180Y0236575D03*
X0280680Y0226890D03*
X0282255Y0225472D03*
X0283199Y0224370D03*
X0284932Y0225315D03*
X0284932Y0226102D03*
X0284932Y0226260D03*
X0284932Y0226417D03*
X0284932Y0226575D03*
X0284932Y0223268D03*
X0280680Y0223110D03*
X0279105Y0223898D03*
X0270144Y0253268D03*
X0270144Y0253425D03*
X0270302Y0253583D03*
X0270302Y0253740D03*
X0270459Y0253898D03*
X0270459Y0254055D03*
X0268727Y0253898D03*
X0167869Y0254685D03*
X0167869Y0254843D03*
X0167869Y0255000D03*
X0167869Y0255157D03*
X0167869Y0255315D03*
X0166294Y0256732D03*
X0166294Y0256890D03*
X0163774Y0255472D03*
X0164719Y0254370D03*
X0166294Y0253110D03*
X0166294Y0252953D03*
X0162199Y0256260D03*
D43*
X0266365Y0257047D03*
X0275971Y0254685D03*
X0275971Y0254528D03*
X0275971Y0254370D03*
X0276129Y0264213D03*
X0276129Y0264370D03*
X0275971Y0274370D03*
X0275971Y0274528D03*
X0275971Y0274685D03*
X0265735Y0274528D03*
X0275613Y0244370D03*
X0275613Y0244213D03*
X0288054Y0244370D03*
D44*
X0283014Y0244370D03*
X0283014Y0244528D03*
X0283014Y0244685D03*
X0283014Y0245315D03*
X0283014Y0245472D03*
X0280652Y0245945D03*
X0280652Y0246102D03*
X0279077Y0243740D03*
X0285247Y0253268D03*
X0283199Y0255787D03*
X0272507Y0253740D03*
X0270932Y0255787D03*
X0270932Y0255945D03*
X0269987Y0262953D03*
X0270144Y0264055D03*
X0270144Y0264213D03*
X0272664Y0263740D03*
X0272507Y0273740D03*
X0270932Y0275945D03*
X0282542Y0235945D03*
X0280810Y0234370D03*
X0280967Y0234055D03*
X0280967Y0233898D03*
X0284274Y0233898D03*
X0284274Y0234055D03*
X0284747Y0235000D03*
X0282727Y0226732D03*
X0278633Y0225315D03*
X0278633Y0225157D03*
X0278633Y0225000D03*
X0278633Y0224843D03*
X0278633Y0224685D03*
X0286822Y0224528D03*
X0286822Y0224370D03*
X0168341Y0253583D03*
X0168341Y0256417D03*
X0164247Y0256732D03*
X0164247Y0253110D03*
X0157318Y0256417D03*
X0157318Y0256575D03*
X0157318Y0256732D03*
D45*
X0161570Y0252953D03*
X0168499Y0253110D03*
X0168499Y0256890D03*
X0270932Y0256575D03*
X0270932Y0256417D03*
X0272507Y0253110D03*
X0280810Y0246575D03*
X0279077Y0243110D03*
X0276558Y0236732D03*
X0276558Y0235000D03*
X0276558Y0233110D03*
X0280180Y0234843D03*
X0280180Y0235000D03*
X0280967Y0233268D03*
X0284274Y0233268D03*
X0288684Y0233110D03*
X0288684Y0235630D03*
X0288684Y0236732D03*
X0288841Y0245000D03*
X0288841Y0246732D03*
X0285849Y0245630D03*
X0289341Y0255000D03*
X0289341Y0256732D03*
X0286349Y0255630D03*
X0272664Y0263110D03*
X0272507Y0273110D03*
X0270932Y0276575D03*
X0276270Y0226260D03*
X0276270Y0223583D03*
X0289341Y0223583D03*
X0289341Y0226260D03*
X0289341Y0226417D03*
D46*
X0230184Y0283878D03*
X0227703Y0283878D03*
X0199042Y0276122D03*
D47*
X0199042Y0283602D03*
X0227703Y0283602D03*
X0227703Y0283012D03*
X0227703Y0281083D03*
X0227703Y0280807D03*
X0227703Y0280531D03*
X0227703Y0280256D03*
X0227703Y0279980D03*
X0227703Y0279705D03*
X0227703Y0279154D03*
X0227703Y0278878D03*
X0227703Y0278602D03*
X0227703Y0278327D03*
X0227703Y0278051D03*
X0227703Y0277776D03*
X0227703Y0277500D03*
X0227703Y0276949D03*
X0227703Y0276673D03*
X0230184Y0276673D03*
X0230184Y0276949D03*
X0230184Y0277500D03*
X0230184Y0277776D03*
X0230184Y0278051D03*
X0230184Y0278327D03*
X0230184Y0278602D03*
X0230184Y0278878D03*
X0230184Y0279154D03*
X0230184Y0279705D03*
X0230184Y0279980D03*
X0230184Y0280256D03*
X0230184Y0280531D03*
X0230184Y0280807D03*
X0230184Y0281083D03*
X0230184Y0283012D03*
X0230184Y0283602D03*
X0232664Y0281083D03*
X0235420Y0281083D03*
X0238451Y0281083D03*
X0240656Y0280256D03*
X0240105Y0276673D03*
X0234042Y0276673D03*
X0234042Y0276949D03*
X0243412Y0283602D03*
D48*
X0245755Y0281083D03*
X0246030Y0280807D03*
X0246030Y0280531D03*
X0246030Y0280256D03*
X0246030Y0279980D03*
X0246030Y0279705D03*
X0246030Y0279154D03*
X0245755Y0278602D03*
X0240794Y0278878D03*
X0240794Y0279154D03*
X0240518Y0279705D03*
X0240518Y0279980D03*
X0240794Y0280531D03*
X0240794Y0280807D03*
X0238314Y0280807D03*
X0238314Y0280531D03*
X0238314Y0280256D03*
X0238038Y0279980D03*
X0238038Y0279705D03*
X0235558Y0280531D03*
X0235558Y0280807D03*
X0232802Y0280256D03*
X0232802Y0279980D03*
X0232526Y0280807D03*
X0236936Y0276949D03*
X0225361Y0278602D03*
X0225361Y0278878D03*
X0225361Y0279154D03*
X0217644Y0279154D03*
X0217369Y0278878D03*
X0217644Y0279705D03*
X0217644Y0279980D03*
X0217644Y0280256D03*
X0217644Y0280531D03*
X0217644Y0280807D03*
X0217369Y0281083D03*
X0214888Y0283602D03*
X0210479Y0281083D03*
X0210479Y0280807D03*
X0210479Y0280531D03*
X0210479Y0280256D03*
X0210479Y0278051D03*
X0210479Y0277776D03*
X0210479Y0277500D03*
X0210479Y0276949D03*
X0210479Y0276673D03*
X0212959Y0278327D03*
X0212959Y0278602D03*
X0212959Y0278878D03*
X0206621Y0280531D03*
X0206621Y0280807D03*
X0206621Y0281083D03*
X0204140Y0281083D03*
X0204140Y0280807D03*
X0204140Y0280531D03*
X0204140Y0280256D03*
X0204140Y0279980D03*
X0204140Y0279705D03*
X0204140Y0279154D03*
X0204140Y0278878D03*
X0204140Y0278602D03*
X0204140Y0278327D03*
X0204140Y0278051D03*
X0204140Y0277776D03*
X0204140Y0277500D03*
X0204140Y0276949D03*
X0204140Y0276673D03*
X0201660Y0278878D03*
X0201660Y0279154D03*
X0201660Y0279705D03*
X0201660Y0279980D03*
X0201660Y0280256D03*
X0201660Y0280531D03*
X0201660Y0280807D03*
X0204140Y0281909D03*
X0204140Y0282185D03*
X0204140Y0283012D03*
X0196424Y0280807D03*
X0196424Y0280531D03*
X0196424Y0280256D03*
X0196424Y0279980D03*
X0196424Y0279705D03*
X0196424Y0279154D03*
X0196424Y0278878D03*
X0196699Y0278602D03*
D49*
X0209377Y0283602D03*
X0217093Y0278327D03*
X0235558Y0279980D03*
X0236936Y0278051D03*
X0236936Y0277776D03*
X0245203Y0278051D03*
D50*
X0204140Y0283602D03*
D51*
X0243274Y0283307D03*
D52*
X0240656Y0279449D03*
X0230184Y0279449D03*
X0227703Y0279449D03*
X0227703Y0282480D03*
X0227703Y0283307D03*
X0230184Y0283307D03*
X0230184Y0282480D03*
D53*
X0214888Y0283307D03*
D54*
X0209239Y0283307D03*
D55*
X0204140Y0283307D03*
X0227841Y0281378D03*
X0230322Y0281378D03*
X0238314Y0281378D03*
D56*
X0213648Y0279449D03*
X0199042Y0283307D03*
D57*
X0214888Y0283012D03*
X0223707Y0280531D03*
X0223707Y0280256D03*
X0223707Y0277500D03*
X0243274Y0283012D03*
D58*
X0234455Y0279705D03*
X0209101Y0283012D03*
D59*
X0209514Y0278327D03*
X0214751Y0276673D03*
X0223570Y0276949D03*
X0223570Y0280807D03*
X0243412Y0276673D03*
X0199042Y0276673D03*
X0199042Y0283012D03*
D60*
X0243274Y0282756D03*
D61*
X0230184Y0282756D03*
X0227703Y0282756D03*
X0227703Y0277244D03*
X0230184Y0277244D03*
D62*
X0214751Y0282756D03*
X0208963Y0282756D03*
X0199042Y0282756D03*
X0199042Y0277244D03*
D63*
X0204140Y0277244D03*
X0204140Y0281654D03*
X0204140Y0282756D03*
X0210479Y0281654D03*
X0210479Y0277244D03*
X0236936Y0277244D03*
D64*
X0243274Y0282480D03*
X0214888Y0282480D03*
X0208825Y0282480D03*
D65*
X0210479Y0281378D03*
X0206621Y0281378D03*
X0204140Y0281378D03*
X0204140Y0282480D03*
X0204140Y0279449D03*
X0201660Y0279449D03*
X0196424Y0279449D03*
X0217644Y0279449D03*
X0246030Y0279449D03*
D66*
X0208688Y0279449D03*
X0199042Y0282480D03*
D67*
X0214888Y0277500D03*
X0235558Y0278327D03*
X0243274Y0282185D03*
D68*
X0230184Y0282185D03*
X0227703Y0282185D03*
X0222467Y0278327D03*
X0214751Y0276122D03*
D69*
X0215302Y0281909D03*
X0215026Y0282185D03*
X0208688Y0282185D03*
X0208688Y0281909D03*
X0208688Y0279980D03*
X0208688Y0279705D03*
X0199042Y0277500D03*
D70*
X0199042Y0277776D03*
X0199042Y0281909D03*
X0199042Y0282185D03*
X0215026Y0277776D03*
X0235420Y0278602D03*
X0235420Y0278878D03*
D71*
X0235558Y0279154D03*
X0243274Y0281909D03*
D72*
X0245341Y0281654D03*
X0234042Y0277244D03*
X0223570Y0276417D03*
X0206759Y0281654D03*
D73*
X0201109Y0281654D03*
X0196975Y0281654D03*
X0217093Y0281654D03*
X0241345Y0281654D03*
D74*
X0240105Y0276417D03*
X0236798Y0276417D03*
X0234042Y0276417D03*
X0213373Y0281654D03*
D75*
X0217231Y0281378D03*
X0223570Y0281378D03*
X0225223Y0279449D03*
X0240932Y0281378D03*
X0245617Y0281378D03*
X0201247Y0281378D03*
X0196837Y0281378D03*
D76*
X0232664Y0281378D03*
X0235420Y0281378D03*
D77*
X0213235Y0281378D03*
D78*
X0213097Y0278051D03*
X0217231Y0278602D03*
X0224948Y0278051D03*
X0225223Y0278327D03*
X0224948Y0279705D03*
X0232664Y0280531D03*
X0235420Y0280256D03*
X0234042Y0277776D03*
X0234042Y0277500D03*
X0236798Y0277500D03*
X0240932Y0278602D03*
X0241207Y0278327D03*
X0240932Y0281083D03*
X0245892Y0278878D03*
X0245617Y0278327D03*
X0206759Y0280256D03*
X0201522Y0281083D03*
X0201522Y0278602D03*
X0201247Y0278327D03*
X0196837Y0278327D03*
X0196562Y0281083D03*
D79*
X0213648Y0280256D03*
X0213648Y0279980D03*
X0213648Y0279705D03*
X0223570Y0281083D03*
D80*
X0216680Y0278051D03*
X0213373Y0279154D03*
X0213648Y0280531D03*
X0200971Y0278051D03*
X0197113Y0278051D03*
X0234042Y0278051D03*
D81*
X0223845Y0277776D03*
X0223845Y0279980D03*
X0209239Y0278602D03*
X0199042Y0276949D03*
D82*
X0222605Y0278051D03*
X0222605Y0279705D03*
X0236936Y0276673D03*
D83*
X0235420Y0279449D03*
D84*
X0222467Y0279449D03*
D85*
X0208825Y0279154D03*
D86*
X0208963Y0278878D03*
X0214751Y0276949D03*
D87*
X0223432Y0276673D03*
X0241345Y0278051D03*
D88*
X0242585Y0277500D03*
X0242861Y0277776D03*
D89*
X0242448Y0277244D03*
D90*
X0223707Y0277244D03*
D91*
X0214888Y0277244D03*
D92*
X0242310Y0276949D03*
D93*
X0243412Y0276417D03*
X0214751Y0276417D03*
X0199042Y0276417D03*
D94*
X0204140Y0276417D03*
X0210479Y0276417D03*
X0227841Y0276417D03*
X0230322Y0276417D03*
D95*
X0243274Y0276122D03*
D96*
X0270853Y0257992D03*
X0270853Y0252008D03*
D97*
X0270853Y0252638D03*
X0270853Y0257362D03*
X0270853Y0272638D03*
X0270853Y0277362D03*
D98*
X0270853Y0277205D03*
X0270853Y0272795D03*
X0270853Y0257205D03*
X0270853Y0252795D03*
D99*
X0273136Y0257047D03*
X0273136Y0277047D03*
D100*
X0270853Y0276890D03*
X0269908Y0275000D03*
X0265814Y0272953D03*
X0265656Y0273268D03*
X0276050Y0273268D03*
X0270853Y0256890D03*
X0276050Y0253268D03*
X0282806Y0254213D03*
X0282806Y0255630D03*
X0289105Y0254685D03*
X0280888Y0246732D03*
X0288605Y0242953D03*
X0289105Y0226732D03*
X0276507Y0226732D03*
D101*
X0275534Y0244055D03*
X0276050Y0254213D03*
X0266129Y0256890D03*
X0265656Y0274685D03*
X0265656Y0274843D03*
X0266129Y0276890D03*
X0276050Y0274213D03*
X0276050Y0274055D03*
X0288633Y0254370D03*
D102*
X0285798Y0255157D03*
X0285325Y0253740D03*
X0285325Y0253583D03*
X0283278Y0253898D03*
X0281861Y0255787D03*
X0272585Y0254685D03*
X0270696Y0254685D03*
X0270696Y0254528D03*
X0270538Y0254370D03*
X0270538Y0254213D03*
X0268648Y0254055D03*
X0268648Y0255945D03*
X0280731Y0245157D03*
X0280731Y0245000D03*
X0285140Y0245157D03*
X0285140Y0246102D03*
X0285140Y0246732D03*
X0285140Y0243268D03*
X0285140Y0236732D03*
X0284668Y0235630D03*
X0286558Y0235945D03*
X0286558Y0233898D03*
X0282621Y0235000D03*
X0282621Y0235157D03*
X0280416Y0235787D03*
X0280416Y0235945D03*
X0280101Y0236732D03*
X0278684Y0235945D03*
X0278684Y0233898D03*
X0282333Y0225630D03*
X0283121Y0224213D03*
X0283121Y0224055D03*
X0280759Y0222953D03*
X0285010Y0225945D03*
X0285010Y0226732D03*
X0286585Y0223898D03*
X0270381Y0272953D03*
X0270381Y0274055D03*
X0272585Y0274685D03*
X0167948Y0255630D03*
X0167948Y0255472D03*
X0167948Y0254528D03*
X0167948Y0254370D03*
X0164640Y0254213D03*
X0163853Y0255630D03*
X0163853Y0255787D03*
D103*
X0163932Y0255945D03*
X0164562Y0254055D03*
X0164562Y0253898D03*
X0168026Y0254213D03*
X0168026Y0255787D03*
X0268727Y0255787D03*
X0268727Y0254213D03*
X0270144Y0253110D03*
X0270774Y0254843D03*
X0270774Y0255000D03*
X0281782Y0253110D03*
X0285562Y0256102D03*
X0287136Y0255945D03*
X0287136Y0253898D03*
X0286636Y0245945D03*
X0285219Y0245945D03*
X0283329Y0245945D03*
X0280652Y0245472D03*
X0280652Y0245315D03*
X0281597Y0243268D03*
X0285219Y0243110D03*
X0286636Y0243898D03*
X0284747Y0235472D03*
X0282412Y0225945D03*
X0282412Y0225787D03*
X0283042Y0223898D03*
X0284932Y0223110D03*
X0287294Y0224685D03*
X0287294Y0224843D03*
X0287294Y0225000D03*
X0287294Y0225157D03*
X0278948Y0225945D03*
X0268885Y0275157D03*
X0268727Y0275472D03*
X0268727Y0275630D03*
X0268727Y0275787D03*
D104*
X0268806Y0275315D03*
X0270381Y0274213D03*
X0270853Y0275315D03*
X0268648Y0255630D03*
X0268648Y0255472D03*
X0268648Y0255315D03*
X0268648Y0255157D03*
X0268648Y0255000D03*
X0268648Y0254843D03*
X0268648Y0254685D03*
X0268648Y0254528D03*
X0268648Y0254370D03*
X0270853Y0255157D03*
X0270853Y0255315D03*
X0281861Y0256890D03*
X0283278Y0255945D03*
X0285325Y0256417D03*
X0285483Y0256260D03*
X0285640Y0255945D03*
X0285955Y0255315D03*
X0287215Y0254055D03*
X0285325Y0253425D03*
X0285298Y0246890D03*
X0286715Y0244055D03*
X0281676Y0243110D03*
X0280101Y0236890D03*
X0278841Y0235630D03*
X0278684Y0235787D03*
X0278684Y0234213D03*
X0278684Y0234055D03*
X0282621Y0235315D03*
X0282621Y0235472D03*
X0284668Y0235315D03*
X0285140Y0236890D03*
X0286558Y0235787D03*
X0286715Y0235630D03*
X0286558Y0234213D03*
X0286558Y0234055D03*
X0286585Y0225945D03*
X0287215Y0225315D03*
X0282963Y0223740D03*
X0282491Y0226102D03*
X0278869Y0225787D03*
X0278869Y0224055D03*
X0168105Y0254055D03*
X0168105Y0255945D03*
X0164010Y0256102D03*
X0164483Y0253740D03*
D105*
X0270853Y0271850D03*
X0270853Y0278150D03*
D106*
X0270932Y0277835D03*
X0280680Y0227047D03*
D107*
X0196983Y0210547D03*
X0196825Y0210547D03*
X0196668Y0210547D03*
X0196510Y0210547D03*
X0196353Y0210547D03*
X0196196Y0210547D03*
X0196038Y0210547D03*
X0191629Y0210547D03*
X0191471Y0210547D03*
X0191314Y0210547D03*
X0191156Y0210547D03*
X0190999Y0210547D03*
X0190841Y0210547D03*
X0190684Y0210547D03*
X0249684Y0339547D03*
X0249841Y0339547D03*
X0249999Y0339547D03*
X0250156Y0339547D03*
X0250314Y0339547D03*
X0250471Y0339547D03*
X0250629Y0339547D03*
X0255038Y0339547D03*
X0255196Y0339547D03*
X0255353Y0339547D03*
X0255510Y0339547D03*
X0255668Y0339547D03*
X0255825Y0339547D03*
X0255983Y0339547D03*
D108*
X0254881Y0332303D03*
X0253306Y0332303D03*
X0253148Y0332303D03*
X0252991Y0332303D03*
X0252833Y0332303D03*
X0252676Y0332303D03*
X0252518Y0332303D03*
X0254881Y0346791D03*
X0195723Y0346579D03*
X0195723Y0331461D03*
X0255223Y0218579D03*
X0255223Y0203461D03*
X0195881Y0203303D03*
X0194306Y0203303D03*
X0194148Y0203303D03*
X0193991Y0203303D03*
X0193833Y0203303D03*
X0193676Y0203303D03*
X0193518Y0203303D03*
X0195881Y0217791D03*
D109*
X0195881Y0210547D03*
X0254881Y0339547D03*
D110*
X0254723Y0332067D03*
X0254723Y0347028D03*
X0195408Y0346815D03*
X0192101Y0346815D03*
X0192101Y0331224D03*
X0195408Y0331224D03*
X0195723Y0218028D03*
X0195723Y0203067D03*
X0251601Y0203224D03*
X0254908Y0203224D03*
X0254908Y0218815D03*
X0251601Y0218815D03*
D111*
X0252388Y0214957D03*
X0254121Y0214957D03*
X0254436Y0211335D03*
X0252073Y0210862D03*
X0254278Y0207240D03*
X0253648Y0206610D03*
X0233963Y0209937D03*
X0214121Y0210650D03*
X0213963Y0210492D03*
X0212546Y0210650D03*
X0212388Y0210650D03*
X0195723Y0213067D03*
X0194463Y0214327D03*
X0194621Y0214484D03*
X0193046Y0214484D03*
X0192888Y0214484D03*
X0194148Y0210547D03*
X0194306Y0210547D03*
X0194148Y0208500D03*
X0195723Y0208028D03*
X0194621Y0206610D03*
X0194463Y0206453D03*
X0193046Y0206610D03*
X0192888Y0206610D03*
X0194148Y0334610D03*
X0194778Y0335240D03*
X0194936Y0339335D03*
X0192573Y0338862D03*
X0192888Y0342957D03*
X0194621Y0342957D03*
X0212546Y0339937D03*
X0212703Y0339937D03*
X0212861Y0339937D03*
X0213018Y0339937D03*
X0213176Y0339937D03*
X0213333Y0339937D03*
X0213491Y0339937D03*
X0213648Y0339937D03*
X0213806Y0339937D03*
X0213963Y0339937D03*
X0251888Y0343484D03*
X0252046Y0343484D03*
X0253463Y0343327D03*
X0253621Y0343484D03*
X0254723Y0342067D03*
X0253306Y0339547D03*
X0253148Y0339547D03*
X0253148Y0337500D03*
X0254723Y0337028D03*
X0253621Y0335610D03*
X0253463Y0335453D03*
X0252046Y0335610D03*
X0251888Y0335610D03*
D112*
X0254566Y0339547D03*
X0254723Y0339547D03*
X0252518Y0341909D03*
X0193518Y0212909D03*
X0195566Y0210547D03*
X0195723Y0210547D03*
D113*
X0191944Y0202988D03*
X0194463Y0202988D03*
X0195566Y0202988D03*
X0195566Y0218106D03*
X0193833Y0218106D03*
X0191944Y0218106D03*
X0251759Y0218894D03*
X0254751Y0218894D03*
X0251759Y0203146D03*
X0250944Y0331988D03*
X0253463Y0331988D03*
X0254566Y0331988D03*
X0254566Y0347106D03*
X0252833Y0347106D03*
X0250944Y0347106D03*
X0195251Y0346894D03*
X0192259Y0346894D03*
X0192259Y0331146D03*
D114*
X0192731Y0335240D03*
X0194778Y0336815D03*
X0195566Y0336815D03*
X0194463Y0339492D03*
X0193046Y0338705D03*
X0192888Y0338705D03*
X0191786Y0341067D03*
X0212388Y0339937D03*
X0214121Y0339937D03*
X0214278Y0339937D03*
X0251731Y0343484D03*
X0253778Y0343484D03*
X0254566Y0342067D03*
X0253778Y0341752D03*
X0253621Y0341752D03*
X0252991Y0339547D03*
X0252833Y0339547D03*
X0253463Y0337500D03*
X0254566Y0337028D03*
X0253778Y0335610D03*
X0251731Y0335610D03*
X0194778Y0214484D03*
X0195566Y0213067D03*
X0194778Y0212752D03*
X0194621Y0212752D03*
X0193991Y0210547D03*
X0193833Y0210547D03*
X0194463Y0208500D03*
X0195566Y0208028D03*
X0194778Y0206610D03*
X0192731Y0206610D03*
X0192731Y0214484D03*
X0212231Y0210650D03*
X0214278Y0210650D03*
X0234278Y0209937D03*
X0251286Y0213067D03*
X0252388Y0210705D03*
X0252546Y0210705D03*
X0253963Y0211492D03*
X0254278Y0208815D03*
X0255066Y0208815D03*
X0252231Y0207240D03*
D115*
X0251916Y0203067D03*
X0254593Y0203067D03*
X0254751Y0203067D03*
X0254593Y0218972D03*
X0251916Y0218972D03*
X0195408Y0218185D03*
X0193991Y0218185D03*
X0192101Y0218185D03*
X0192101Y0202909D03*
X0195408Y0202909D03*
X0195251Y0331067D03*
X0195093Y0331067D03*
X0192416Y0331067D03*
X0192416Y0346972D03*
X0195093Y0346972D03*
X0251101Y0347185D03*
X0252991Y0347185D03*
X0254408Y0347185D03*
X0254408Y0331909D03*
X0251101Y0331909D03*
D116*
X0253621Y0337421D03*
X0253778Y0337421D03*
X0254093Y0337264D03*
X0254408Y0337106D03*
X0254093Y0341831D03*
X0253936Y0341831D03*
X0254408Y0341988D03*
X0195723Y0341146D03*
X0194306Y0339571D03*
X0193203Y0338626D03*
X0194148Y0336894D03*
X0194936Y0336894D03*
X0195093Y0336894D03*
X0195251Y0336894D03*
X0195408Y0336894D03*
X0192101Y0336894D03*
X0191944Y0341146D03*
X0192731Y0342720D03*
X0252231Y0214720D03*
X0251444Y0213146D03*
X0252703Y0210626D03*
X0253806Y0211571D03*
X0255223Y0213146D03*
X0254908Y0208894D03*
X0254751Y0208894D03*
X0254593Y0208894D03*
X0254436Y0208894D03*
X0253648Y0208894D03*
X0251601Y0208894D03*
X0195408Y0208106D03*
X0195093Y0208264D03*
X0194778Y0208421D03*
X0194621Y0208421D03*
X0194936Y0212831D03*
X0195093Y0212831D03*
X0195408Y0212988D03*
D117*
X0194148Y0213067D03*
X0193991Y0213067D03*
X0192259Y0212122D03*
X0192259Y0208972D03*
X0195251Y0210547D03*
X0195408Y0210547D03*
X0251259Y0337972D03*
X0251259Y0341122D03*
X0252991Y0342067D03*
X0253148Y0342067D03*
X0254251Y0339547D03*
X0254408Y0339547D03*
D118*
X0254251Y0331831D03*
X0254093Y0331831D03*
X0253936Y0331831D03*
X0253778Y0331831D03*
X0253621Y0331831D03*
X0252203Y0331831D03*
X0251259Y0331831D03*
X0251259Y0347264D03*
X0252518Y0347264D03*
X0252676Y0347264D03*
X0253148Y0347264D03*
X0253306Y0347264D03*
X0254093Y0347264D03*
X0254251Y0347264D03*
X0194936Y0347051D03*
X0192731Y0347051D03*
X0192573Y0347051D03*
X0192573Y0330988D03*
X0192731Y0330988D03*
X0194936Y0330988D03*
X0195093Y0218264D03*
X0195251Y0218264D03*
X0194306Y0218264D03*
X0194148Y0218264D03*
X0193676Y0218264D03*
X0193518Y0218264D03*
X0192259Y0218264D03*
X0192259Y0202831D03*
X0193203Y0202831D03*
X0194621Y0202831D03*
X0194778Y0202831D03*
X0194936Y0202831D03*
X0195093Y0202831D03*
X0195251Y0202831D03*
X0252073Y0202988D03*
X0252231Y0202988D03*
X0254436Y0202988D03*
X0254436Y0219051D03*
X0252231Y0219051D03*
X0252073Y0219051D03*
D119*
X0252073Y0213067D03*
X0251916Y0213067D03*
X0251759Y0213067D03*
X0251601Y0213067D03*
X0252231Y0213067D03*
X0252388Y0213067D03*
X0252546Y0213067D03*
X0252703Y0213067D03*
X0252861Y0213067D03*
X0253018Y0213067D03*
X0253176Y0213067D03*
X0253333Y0213067D03*
X0253491Y0213067D03*
X0253648Y0213067D03*
X0253806Y0213067D03*
X0253963Y0213067D03*
X0254121Y0213067D03*
X0254278Y0213067D03*
X0254436Y0213067D03*
X0254593Y0213067D03*
X0254751Y0213067D03*
X0254908Y0213067D03*
X0255066Y0213067D03*
X0253648Y0211650D03*
X0253491Y0211650D03*
X0252861Y0210547D03*
X0252861Y0208972D03*
X0253018Y0208972D03*
X0253176Y0208972D03*
X0253333Y0208972D03*
X0253491Y0208972D03*
X0252703Y0208972D03*
X0252546Y0208972D03*
X0252388Y0208972D03*
X0252231Y0208972D03*
X0252073Y0208972D03*
X0251916Y0208972D03*
X0251759Y0208972D03*
X0195251Y0208185D03*
X0194936Y0208343D03*
X0193676Y0210547D03*
X0193518Y0210547D03*
X0195251Y0212909D03*
X0193991Y0336972D03*
X0193833Y0336972D03*
X0193676Y0336972D03*
X0193518Y0336972D03*
X0193361Y0336972D03*
X0193203Y0336972D03*
X0193046Y0336972D03*
X0192888Y0336972D03*
X0192731Y0336972D03*
X0192573Y0336972D03*
X0192416Y0336972D03*
X0192259Y0336972D03*
X0193361Y0338547D03*
X0193991Y0339650D03*
X0194148Y0339650D03*
X0194148Y0341067D03*
X0193991Y0341067D03*
X0193833Y0341067D03*
X0193676Y0341067D03*
X0193518Y0341067D03*
X0193361Y0341067D03*
X0193203Y0341067D03*
X0193046Y0341067D03*
X0192888Y0341067D03*
X0192731Y0341067D03*
X0192573Y0341067D03*
X0192416Y0341067D03*
X0192259Y0341067D03*
X0192101Y0341067D03*
X0194306Y0341067D03*
X0194463Y0341067D03*
X0194621Y0341067D03*
X0194778Y0341067D03*
X0194936Y0341067D03*
X0195093Y0341067D03*
X0195251Y0341067D03*
X0195408Y0341067D03*
X0195566Y0341067D03*
X0212231Y0339937D03*
X0252518Y0339547D03*
X0252676Y0339547D03*
X0253936Y0337343D03*
X0254251Y0337185D03*
X0254251Y0341909D03*
D120*
X0253306Y0342146D03*
X0254093Y0339626D03*
X0195723Y0339098D03*
X0191786Y0339098D03*
X0194306Y0213146D03*
X0195093Y0210626D03*
X0251286Y0211098D03*
X0255223Y0211098D03*
D121*
X0253333Y0211728D03*
X0253176Y0210469D03*
X0253018Y0210469D03*
X0214436Y0210728D03*
X0194936Y0214563D03*
X0194936Y0206689D03*
X0253936Y0335689D03*
X0253936Y0343563D03*
X0193833Y0339728D03*
X0193676Y0338469D03*
X0193518Y0338469D03*
D122*
X0191944Y0339020D03*
X0251416Y0337972D03*
X0251573Y0337972D03*
X0253936Y0339547D03*
X0251573Y0341122D03*
X0251416Y0341122D03*
X0251444Y0211020D03*
X0194936Y0210547D03*
X0192573Y0208972D03*
X0192416Y0208972D03*
X0192416Y0212122D03*
X0192573Y0212122D03*
D123*
X0192573Y0218343D03*
X0192416Y0218343D03*
X0192731Y0218343D03*
X0192888Y0218343D03*
X0193046Y0218343D03*
X0193203Y0218343D03*
X0193361Y0218343D03*
X0194463Y0218343D03*
X0194621Y0218343D03*
X0194778Y0218343D03*
X0194936Y0218343D03*
X0193046Y0202752D03*
X0192888Y0202752D03*
X0192731Y0202752D03*
X0192573Y0202752D03*
X0192416Y0202752D03*
X0252388Y0202909D03*
X0252546Y0202909D03*
X0252703Y0202909D03*
X0253963Y0202909D03*
X0254121Y0202909D03*
X0254278Y0202909D03*
X0254278Y0219130D03*
X0254121Y0219130D03*
X0252546Y0219130D03*
X0252388Y0219130D03*
X0252046Y0331752D03*
X0251888Y0331752D03*
X0251731Y0331752D03*
X0251573Y0331752D03*
X0251416Y0331752D03*
X0251416Y0347343D03*
X0251573Y0347343D03*
X0251731Y0347343D03*
X0251888Y0347343D03*
X0252046Y0347343D03*
X0252203Y0347343D03*
X0252361Y0347343D03*
X0253463Y0347343D03*
X0253621Y0347343D03*
X0253778Y0347343D03*
X0253936Y0347343D03*
X0194778Y0347130D03*
X0194621Y0347130D03*
X0193046Y0347130D03*
X0192888Y0347130D03*
X0192888Y0330909D03*
X0193046Y0330909D03*
X0193203Y0330909D03*
X0194463Y0330909D03*
X0194621Y0330909D03*
X0194778Y0330909D03*
D124*
X0193361Y0335004D03*
X0193203Y0335004D03*
X0195566Y0339098D03*
X0194148Y0343193D03*
X0193991Y0343193D03*
X0193833Y0343193D03*
X0193676Y0343193D03*
X0193518Y0343193D03*
X0251731Y0341201D03*
X0251888Y0341201D03*
X0252203Y0341358D03*
X0253778Y0339626D03*
X0252833Y0337421D03*
X0251888Y0337894D03*
X0251731Y0337894D03*
X0253018Y0215193D03*
X0253176Y0215193D03*
X0253333Y0215193D03*
X0253491Y0215193D03*
X0253648Y0215193D03*
X0255066Y0211098D03*
X0252861Y0207004D03*
X0252703Y0207004D03*
X0194778Y0210626D03*
X0193203Y0212358D03*
X0192888Y0212201D03*
X0192731Y0212201D03*
X0192731Y0208894D03*
X0192888Y0208894D03*
X0193833Y0208421D03*
D125*
X0193518Y0208657D03*
X0193203Y0208815D03*
X0193046Y0208815D03*
X0194621Y0210547D03*
X0193046Y0212280D03*
X0251601Y0211020D03*
X0254751Y0211177D03*
X0254908Y0211177D03*
X0253806Y0215114D03*
X0252861Y0215114D03*
X0252703Y0215114D03*
X0252546Y0207083D03*
X0252518Y0337657D03*
X0252203Y0337815D03*
X0252046Y0337815D03*
X0253621Y0339547D03*
X0252046Y0341280D03*
X0195408Y0339177D03*
X0195251Y0339177D03*
X0192101Y0339020D03*
X0193046Y0335083D03*
X0193203Y0343114D03*
X0193361Y0343114D03*
X0194306Y0343114D03*
D126*
X0194463Y0343035D03*
X0193046Y0343035D03*
X0192416Y0338941D03*
X0192259Y0338941D03*
X0191786Y0336736D03*
X0192888Y0335161D03*
X0195723Y0336736D03*
X0195093Y0339256D03*
X0252203Y0335531D03*
X0252991Y0337421D03*
X0252676Y0337579D03*
X0252361Y0337736D03*
X0253463Y0339626D03*
X0253463Y0341831D03*
X0252203Y0343406D03*
X0252546Y0215035D03*
X0253963Y0215035D03*
X0254593Y0211256D03*
X0255223Y0208736D03*
X0252388Y0207161D03*
X0251286Y0208736D03*
X0251759Y0210941D03*
X0251916Y0210941D03*
X0212703Y0210571D03*
X0194463Y0210626D03*
X0193361Y0208736D03*
X0193676Y0208579D03*
X0193991Y0208421D03*
X0193203Y0206531D03*
X0194463Y0212831D03*
X0193203Y0214406D03*
D127*
X0194306Y0208421D03*
X0233491Y0209701D03*
X0233648Y0209858D03*
X0233806Y0209858D03*
X0234121Y0209858D03*
X0251444Y0208894D03*
X0252231Y0210783D03*
X0254121Y0211413D03*
X0254278Y0211413D03*
X0254278Y0214878D03*
X0253491Y0206531D03*
X0253333Y0206531D03*
X0253176Y0206531D03*
X0253018Y0206531D03*
X0253306Y0337421D03*
X0194778Y0339413D03*
X0194621Y0339413D03*
X0192731Y0338783D03*
X0191944Y0336894D03*
X0193518Y0334531D03*
X0193676Y0334531D03*
X0193833Y0334531D03*
X0193991Y0334531D03*
X0194778Y0342878D03*
D128*
X0251101Y0341201D03*
X0252676Y0341988D03*
X0252833Y0341988D03*
X0251101Y0337894D03*
X0193833Y0212988D03*
X0193676Y0212988D03*
X0192101Y0212201D03*
X0192101Y0208894D03*
D129*
X0193361Y0203618D03*
X0252361Y0332618D03*
D130*
X0250786Y0337815D03*
X0250786Y0341280D03*
X0252361Y0342224D03*
X0194463Y0335713D03*
X0194306Y0335713D03*
X0193361Y0213224D03*
X0191786Y0212280D03*
X0191786Y0208815D03*
X0253806Y0207713D03*
X0253963Y0207713D03*
D131*
X0191944Y0208894D03*
X0191944Y0212201D03*
X0250944Y0337894D03*
X0250944Y0341201D03*
D132*
X0250786Y0346949D03*
X0250786Y0332146D03*
X0195566Y0331303D03*
X0195566Y0346736D03*
X0191786Y0217949D03*
X0191786Y0203146D03*
X0255066Y0203303D03*
X0255066Y0218736D03*
D133*
X0255538Y0211020D03*
X0255696Y0211020D03*
X0255853Y0211020D03*
X0256010Y0211020D03*
X0256168Y0211020D03*
X0256325Y0211020D03*
X0256483Y0211020D03*
X0251129Y0211020D03*
X0250971Y0211020D03*
X0250814Y0211020D03*
X0250656Y0211020D03*
X0250499Y0211020D03*
X0250341Y0211020D03*
X0250184Y0211020D03*
X0216483Y0210650D03*
X0216325Y0210650D03*
X0216168Y0210650D03*
X0216010Y0210650D03*
X0215853Y0210650D03*
X0215696Y0210650D03*
X0215538Y0210650D03*
X0211129Y0210650D03*
X0210971Y0210650D03*
X0210814Y0210650D03*
X0210656Y0210650D03*
X0210499Y0210650D03*
X0210341Y0210650D03*
X0210184Y0210650D03*
X0196983Y0339020D03*
X0196825Y0339020D03*
X0196668Y0339020D03*
X0196510Y0339020D03*
X0196353Y0339020D03*
X0196196Y0339020D03*
X0196038Y0339020D03*
X0191629Y0339020D03*
X0191471Y0339020D03*
X0191314Y0339020D03*
X0191156Y0339020D03*
X0190999Y0339020D03*
X0190841Y0339020D03*
X0190684Y0339020D03*
D134*
X0191786Y0346421D03*
X0195881Y0331618D03*
X0251286Y0218421D03*
X0255381Y0203618D03*
D135*
X0255381Y0214563D03*
X0195881Y0342563D03*
D136*
X0194621Y0335791D03*
X0254121Y0207791D03*
D137*
X0253806Y0202831D03*
X0253648Y0202831D03*
X0253491Y0202831D03*
X0253333Y0202831D03*
X0253176Y0202831D03*
X0253018Y0202831D03*
X0252861Y0202831D03*
X0252861Y0219209D03*
X0253018Y0219209D03*
X0253176Y0219209D03*
X0253333Y0219209D03*
X0253491Y0219209D03*
X0253648Y0219209D03*
X0253806Y0219209D03*
X0253963Y0219209D03*
X0252703Y0219209D03*
X0194306Y0330831D03*
X0194148Y0330831D03*
X0193991Y0330831D03*
X0193833Y0330831D03*
X0193676Y0330831D03*
X0193518Y0330831D03*
X0193361Y0330831D03*
X0193361Y0347209D03*
X0193518Y0347209D03*
X0193676Y0347209D03*
X0193833Y0347209D03*
X0193991Y0347209D03*
X0194148Y0347209D03*
X0194306Y0347209D03*
X0194463Y0347209D03*
X0193203Y0347209D03*
D138*
X0191944Y0346657D03*
X0191944Y0331382D03*
X0251444Y0218657D03*
X0251444Y0203382D03*
D139*
X0251286Y0203539D03*
X0191786Y0331539D03*
D140*
X0215381Y0216083D03*
X0215381Y0205217D03*
X0213806Y0205217D03*
X0213648Y0205217D03*
X0213491Y0205217D03*
X0213333Y0205217D03*
X0213176Y0205217D03*
X0213018Y0205217D03*
D141*
X0215223Y0204980D03*
X0215223Y0216319D03*
X0234908Y0334350D03*
D142*
X0234751Y0334272D03*
X0215066Y0216398D03*
X0213333Y0216398D03*
X0211444Y0216398D03*
X0211444Y0204902D03*
X0213963Y0204902D03*
X0215066Y0204902D03*
D143*
X0214908Y0204823D03*
X0211601Y0204823D03*
X0211601Y0216476D03*
X0213491Y0216476D03*
X0214908Y0216476D03*
X0234593Y0334193D03*
D144*
X0234436Y0334114D03*
X0214751Y0216555D03*
X0214593Y0216555D03*
X0213806Y0216555D03*
X0213648Y0216555D03*
X0213176Y0216555D03*
X0213018Y0216555D03*
X0211759Y0216555D03*
X0211759Y0204744D03*
X0212703Y0204744D03*
X0214121Y0204744D03*
X0214278Y0204744D03*
X0214436Y0204744D03*
X0214593Y0204744D03*
X0214751Y0204744D03*
D145*
X0212546Y0204665D03*
X0212388Y0204665D03*
X0212231Y0204665D03*
X0212073Y0204665D03*
X0211916Y0204665D03*
X0211916Y0216634D03*
X0212073Y0216634D03*
X0212231Y0216634D03*
X0212388Y0216634D03*
X0212546Y0216634D03*
X0212703Y0216634D03*
X0212861Y0216634D03*
X0213963Y0216634D03*
X0214121Y0216634D03*
X0214278Y0216634D03*
X0214436Y0216634D03*
X0233648Y0334035D03*
X0234278Y0334035D03*
X0234278Y0344744D03*
X0234121Y0344744D03*
X0233963Y0344744D03*
X0233806Y0344744D03*
X0233648Y0344744D03*
X0233491Y0344744D03*
X0233333Y0344744D03*
X0233176Y0344744D03*
X0233018Y0344744D03*
X0232861Y0344744D03*
X0232703Y0344744D03*
X0232546Y0344744D03*
X0232388Y0344744D03*
X0232231Y0344744D03*
X0232073Y0344744D03*
X0231916Y0344744D03*
X0231759Y0344744D03*
X0231601Y0344744D03*
X0231444Y0344744D03*
X0231286Y0344744D03*
X0234436Y0344744D03*
X0234593Y0344744D03*
X0234751Y0344744D03*
X0234908Y0344744D03*
X0235066Y0344744D03*
X0235223Y0344744D03*
D146*
X0214908Y0346472D03*
X0214751Y0346472D03*
X0211759Y0346472D03*
X0211759Y0333402D03*
X0214751Y0333402D03*
X0214908Y0333402D03*
X0233018Y0216472D03*
X0234751Y0216472D03*
X0234908Y0203402D03*
X0232388Y0203402D03*
X0212861Y0205531D03*
D147*
X0211286Y0205059D03*
X0211286Y0216240D03*
X0231444Y0334429D03*
X0231601Y0334429D03*
X0231759Y0334429D03*
X0231916Y0334429D03*
X0232073Y0334429D03*
X0232231Y0334429D03*
X0232388Y0334429D03*
X0232546Y0334429D03*
X0232703Y0334429D03*
X0232861Y0334429D03*
X0233018Y0334429D03*
X0233176Y0334429D03*
X0233333Y0334429D03*
X0233491Y0334429D03*
X0235066Y0334429D03*
D148*
X0216483Y0339937D03*
X0216325Y0339937D03*
X0216168Y0339937D03*
X0216010Y0339937D03*
X0215853Y0339937D03*
X0215696Y0339937D03*
X0215538Y0339937D03*
X0211129Y0339937D03*
X0210971Y0339937D03*
X0210814Y0339937D03*
X0210656Y0339937D03*
X0210499Y0339937D03*
X0210341Y0339937D03*
X0210184Y0339937D03*
X0230184Y0209937D03*
X0230341Y0209937D03*
X0230499Y0209937D03*
X0230656Y0209937D03*
X0230814Y0209937D03*
X0230971Y0209937D03*
X0231129Y0209937D03*
X0235538Y0209937D03*
X0235696Y0209937D03*
X0235853Y0209937D03*
X0236010Y0209937D03*
X0236168Y0209937D03*
X0236325Y0209937D03*
X0236483Y0209937D03*
D149*
X0235381Y0203795D03*
X0233018Y0203795D03*
X0232388Y0216079D03*
X0215381Y0333795D03*
X0215381Y0346079D03*
D150*
X0232231Y0216000D03*
X0235381Y0216000D03*
D151*
X0235066Y0216315D03*
X0232703Y0216315D03*
X0232703Y0203559D03*
X0235223Y0203559D03*
X0211444Y0333559D03*
X0211444Y0346315D03*
D152*
X0211286Y0346236D03*
X0215223Y0346236D03*
X0215223Y0333638D03*
X0211286Y0333638D03*
X0232546Y0216236D03*
X0235223Y0216236D03*
D153*
X0234908Y0216394D03*
X0232861Y0216394D03*
X0232546Y0203480D03*
X0235066Y0203480D03*
X0215066Y0333480D03*
X0211601Y0333480D03*
X0211601Y0346394D03*
X0215066Y0346394D03*
D154*
X0214593Y0346551D03*
X0214436Y0346551D03*
X0214278Y0346551D03*
X0212231Y0346551D03*
X0212073Y0346551D03*
X0211916Y0346551D03*
X0211916Y0333323D03*
X0212073Y0333323D03*
X0214436Y0333323D03*
X0214593Y0333323D03*
X0233176Y0216551D03*
X0233333Y0216551D03*
X0233491Y0216551D03*
X0234278Y0216551D03*
X0234436Y0216551D03*
X0234593Y0216551D03*
X0234593Y0203323D03*
X0234751Y0203323D03*
X0232231Y0203323D03*
X0231286Y0203323D03*
D155*
X0231444Y0203244D03*
X0231601Y0203244D03*
X0231916Y0203244D03*
X0232073Y0203244D03*
X0233491Y0203244D03*
X0233648Y0203244D03*
X0233806Y0203244D03*
X0234121Y0203244D03*
X0234278Y0203244D03*
X0234436Y0203244D03*
X0234121Y0216630D03*
X0233963Y0216630D03*
X0233806Y0216630D03*
X0233648Y0216630D03*
X0232073Y0216630D03*
X0231286Y0216630D03*
X0214278Y0333244D03*
X0214121Y0333244D03*
X0213963Y0333244D03*
X0213806Y0333244D03*
X0213648Y0333244D03*
X0213491Y0333244D03*
X0213018Y0333244D03*
X0212861Y0333244D03*
X0212703Y0333244D03*
X0212546Y0333244D03*
X0212388Y0333244D03*
X0212231Y0333244D03*
X0212388Y0346630D03*
X0212546Y0346630D03*
X0212703Y0346630D03*
X0212861Y0346630D03*
X0213018Y0346630D03*
X0213176Y0346630D03*
X0213333Y0346630D03*
X0213491Y0346630D03*
X0213648Y0346630D03*
X0213806Y0346630D03*
X0213963Y0346630D03*
X0214121Y0346630D03*
D156*
X0213333Y0333165D03*
X0213176Y0333165D03*
X0231444Y0216709D03*
X0231601Y0216709D03*
X0231759Y0216709D03*
X0231916Y0216709D03*
X0231759Y0203165D03*
X0233963Y0203165D03*
D157*
X0233333Y0204031D03*
D158*
X0233176Y0203953D03*
D159*
X0232861Y0203717D03*
D160*
X0231129Y0339390D03*
X0230971Y0339390D03*
X0230814Y0339390D03*
X0230656Y0339390D03*
X0230499Y0339390D03*
X0230341Y0339390D03*
X0230184Y0339390D03*
X0235381Y0339390D03*
X0235538Y0339390D03*
X0235696Y0339390D03*
X0235853Y0339390D03*
X0236010Y0339390D03*
X0236168Y0339390D03*
X0236325Y0339390D03*
X0236483Y0339390D03*
D161*
X0235223Y0334508D03*
X0231286Y0334508D03*
D162*
X0233806Y0333957D03*
X0233963Y0333957D03*
X0234121Y0333957D03*
D163*
X0163223Y0325843D03*
X0163223Y0321157D03*
D164*
X0163223Y0321276D03*
X0163223Y0325724D03*
D165*
X0163223Y0325626D03*
D166*
X0163223Y0325508D03*
D167*
X0163223Y0325370D03*
X0163223Y0321591D03*
D168*
X0163223Y0321709D03*
X0163223Y0325252D03*
D169*
X0163223Y0325154D03*
D170*
X0166294Y0325055D03*
D171*
X0162692Y0325055D03*
D172*
X0159798Y0325055D03*
D173*
X0167121Y0324917D03*
X0167121Y0322083D03*
D174*
X0164995Y0324917D03*
X0162987Y0324445D03*
D175*
X0162869Y0324917D03*
D176*
X0159503Y0324917D03*
X0167298Y0323972D03*
X0167298Y0323500D03*
X0167298Y0323028D03*
D177*
X0167121Y0322220D03*
X0167003Y0321945D03*
X0167121Y0324780D03*
X0159325Y0322220D03*
D178*
X0163282Y0323717D03*
X0163046Y0324307D03*
X0164109Y0324307D03*
X0164109Y0324228D03*
X0165054Y0324701D03*
X0165054Y0324780D03*
X0165054Y0322890D03*
D179*
X0162928Y0324780D03*
D180*
X0164109Y0322772D03*
X0167180Y0322417D03*
X0167180Y0322339D03*
X0167180Y0324583D03*
X0167180Y0324701D03*
X0159385Y0324780D03*
X0159266Y0324701D03*
X0159266Y0324583D03*
X0159266Y0322417D03*
X0159266Y0322339D03*
D181*
X0162928Y0324701D03*
D182*
X0163105Y0324228D03*
X0163105Y0324110D03*
X0163223Y0323835D03*
X0163105Y0322890D03*
X0164168Y0324110D03*
X0165113Y0324110D03*
X0165113Y0324228D03*
X0165113Y0324307D03*
X0165113Y0324583D03*
X0165113Y0323362D03*
X0165113Y0323283D03*
X0165113Y0323165D03*
D183*
X0164877Y0323717D03*
X0162987Y0324583D03*
X0161451Y0324228D03*
D184*
X0159207Y0324445D03*
X0159207Y0322555D03*
X0159444Y0322083D03*
X0164050Y0322555D03*
X0167239Y0322555D03*
X0167239Y0324445D03*
D185*
X0165113Y0324445D03*
X0165113Y0323028D03*
D186*
X0164109Y0324445D03*
D187*
X0164050Y0322693D03*
X0167239Y0322693D03*
X0167239Y0322772D03*
X0167239Y0324228D03*
X0167239Y0324307D03*
X0159207Y0324307D03*
D188*
X0159266Y0324228D03*
X0159266Y0322693D03*
X0159621Y0321945D03*
X0163991Y0322417D03*
X0167298Y0322890D03*
X0167298Y0323165D03*
X0167298Y0323283D03*
X0167298Y0323362D03*
X0167298Y0323638D03*
X0167298Y0323717D03*
X0167298Y0323835D03*
X0167298Y0324110D03*
D189*
X0164759Y0323835D03*
X0161451Y0324110D03*
X0161451Y0322772D03*
D190*
X0163873Y0322220D03*
X0159266Y0324110D03*
D191*
X0160034Y0323835D03*
X0160034Y0323717D03*
X0160034Y0323165D03*
D192*
X0161451Y0322693D03*
X0163341Y0323638D03*
X0164995Y0323638D03*
D193*
X0160093Y0323638D03*
X0160093Y0323362D03*
X0160093Y0323283D03*
D194*
X0163400Y0323500D03*
D195*
X0160093Y0323500D03*
D196*
X0163164Y0323362D03*
D197*
X0163105Y0323283D03*
X0163105Y0323165D03*
D198*
X0163105Y0323028D03*
D199*
X0160034Y0323028D03*
D200*
X0159975Y0322890D03*
D201*
X0159325Y0322772D03*
X0163932Y0322339D03*
D202*
X0163755Y0322083D03*
D203*
X0163696Y0321945D03*
D204*
X0163223Y0321827D03*
D205*
X0163223Y0321512D03*
D206*
X0163223Y0321394D03*
D207*
X0163696Y0258150D03*
X0163696Y0251850D03*
X0283278Y0252638D03*
X0283278Y0257362D03*
X0282621Y0238150D03*
X0282621Y0237992D03*
X0282621Y0237835D03*
X0282621Y0237677D03*
X0282621Y0237520D03*
X0282621Y0237362D03*
X0282621Y0237205D03*
X0282621Y0232795D03*
X0282621Y0232638D03*
X0282621Y0232480D03*
X0282621Y0232323D03*
X0282621Y0232165D03*
X0282621Y0232008D03*
X0282621Y0231850D03*
D208*
X0283357Y0252480D03*
X0283357Y0257520D03*
X0163617Y0257992D03*
X0163617Y0252008D03*
D209*
X0163538Y0252165D03*
X0163538Y0257835D03*
X0282936Y0248150D03*
X0283436Y0252323D03*
X0283436Y0257677D03*
X0282936Y0241850D03*
D210*
X0163459Y0252323D03*
X0163459Y0257677D03*
D211*
X0163381Y0257520D03*
X0163381Y0252480D03*
X0283593Y0252165D03*
X0283593Y0257835D03*
D212*
X0163302Y0257362D03*
X0163302Y0252638D03*
D213*
X0163223Y0252795D03*
X0163223Y0257205D03*
X0283751Y0257992D03*
X0283751Y0252008D03*
D214*
X0163144Y0257047D03*
D215*
X0283987Y0258150D03*
X0283987Y0251850D03*
D216*
X0283199Y0252795D03*
X0283199Y0257205D03*
X0282699Y0247992D03*
X0282699Y0242008D03*
D217*
X0282621Y0237047D03*
X0279341Y0257047D03*
D218*
X0278081Y0256890D03*
X0278081Y0256732D03*
X0277924Y0256575D03*
X0277924Y0256417D03*
D219*
X0277845Y0256260D03*
X0277845Y0256102D03*
X0277845Y0255945D03*
X0277845Y0254055D03*
X0277845Y0253898D03*
X0277845Y0253740D03*
D220*
X0277766Y0254213D03*
X0277766Y0254370D03*
X0277766Y0254528D03*
X0277766Y0254685D03*
X0277766Y0254843D03*
X0277766Y0255000D03*
X0277766Y0255157D03*
X0277766Y0255315D03*
X0277766Y0255472D03*
X0277766Y0255630D03*
X0277766Y0255787D03*
D221*
X0282621Y0247835D03*
X0282621Y0242165D03*
D222*
X0282463Y0242323D03*
X0282463Y0247677D03*
D223*
X0282385Y0247520D03*
X0282385Y0242480D03*
D224*
X0282306Y0242638D03*
X0282306Y0247362D03*
X0282806Y0228150D03*
X0282806Y0227992D03*
X0282806Y0227835D03*
X0282806Y0227677D03*
X0282806Y0227520D03*
X0282806Y0227362D03*
X0282806Y0227205D03*
X0282806Y0222795D03*
X0282806Y0222638D03*
X0282806Y0222480D03*
X0282806Y0222323D03*
X0282806Y0222165D03*
X0282806Y0222008D03*
X0282806Y0221850D03*
D225*
X0282227Y0242795D03*
X0282227Y0247205D03*
D226*
X0280337Y0247047D03*
M02*
