G75*
%MOIN*%
%OFA0B0*%
%FSLAX25Y25*%
%IPPOS*%
%LPD*%
%AMOC8*
5,1,8,0,0,1.08239X$1,22.5*
%
%ADD10C,0.01000*%
%ADD11C,0.01575*%
%ADD12C,0.00039*%
%ADD13C,0.00800*%
%ADD14C,0.00600*%
%ADD15R,0.14331X0.00157*%
%ADD16R,0.02835X0.00157*%
%ADD17R,0.07087X0.00157*%
%ADD18R,0.02362X0.00157*%
%ADD19R,0.01102X0.00157*%
%ADD20R,0.02205X0.00157*%
%ADD21R,0.00787X0.00157*%
%ADD22R,0.02047X0.00157*%
%ADD23R,0.00630X0.00157*%
%ADD24R,0.01890X0.00157*%
%ADD25R,0.00472X0.00157*%
%ADD26R,0.00315X0.00157*%
%ADD27R,0.01732X0.00157*%
%ADD28R,0.01575X0.00157*%
%ADD29R,0.01417X0.00157*%
%ADD30R,0.01260X0.00157*%
%ADD31R,0.00945X0.00157*%
%ADD32R,0.03465X0.00157*%
%ADD33R,0.00157X0.00157*%
%ADD34R,0.02992X0.00157*%
%ADD35R,0.02520X0.00157*%
%ADD36R,0.15276X0.00157*%
%ADD37R,0.03307X0.00157*%
%ADD38R,0.11024X0.00157*%
%ADD39R,0.02677X0.00157*%
%ADD40R,0.03150X0.00157*%
%ADD41R,0.12913X0.00157*%
%ADD42R,0.13386X0.00157*%
%ADD43R,0.13701X0.00157*%
%ADD44R,0.14016X0.00157*%
%ADD45R,0.14173X0.00157*%
%ADD46R,0.14488X0.00157*%
%ADD47R,0.03780X0.00157*%
%ADD48R,0.06142X0.00157*%
%ADD49R,0.03622X0.00157*%
%ADD50R,0.03937X0.00157*%
%ADD51R,0.04252X0.00157*%
%ADD52R,0.04882X0.00157*%
%ADD53R,0.05197X0.00157*%
%ADD54R,0.13858X0.00157*%
%ADD55R,0.14646X0.00157*%
%ADD56R,0.14961X0.00157*%
%ADD57R,0.15118X0.00157*%
%ADD58R,0.15433X0.00157*%
%ADD59R,0.04409X0.00157*%
%ADD60R,0.05354X0.00157*%
%ADD61R,0.13543X0.00157*%
%ADD62R,0.13228X0.00157*%
%ADD63C,0.00050*%
D10*
X0160459Y0263189D02*
X0166955Y0263189D01*
X0166955Y0266142D01*
X0150223Y0269094D02*
X0150223Y0280906D01*
X0160459Y0286811D02*
X0166955Y0286811D01*
X0166955Y0283858D01*
X0279711Y0283858D02*
X0279711Y0286811D01*
X0286207Y0286811D01*
X0296444Y0280906D02*
X0296444Y0269094D01*
X0286207Y0263189D02*
X0279711Y0263189D01*
X0279711Y0266142D01*
D11*
X0276595Y0265157D02*
X0276597Y0265204D01*
X0276603Y0265250D01*
X0276612Y0265296D01*
X0276626Y0265340D01*
X0276643Y0265384D01*
X0276664Y0265425D01*
X0276688Y0265465D01*
X0276715Y0265503D01*
X0276746Y0265538D01*
X0276779Y0265571D01*
X0276815Y0265601D01*
X0276854Y0265627D01*
X0276894Y0265651D01*
X0276936Y0265670D01*
X0276980Y0265687D01*
X0277025Y0265699D01*
X0277071Y0265708D01*
X0277117Y0265713D01*
X0277164Y0265714D01*
X0277210Y0265711D01*
X0277256Y0265704D01*
X0277302Y0265693D01*
X0277346Y0265679D01*
X0277389Y0265661D01*
X0277430Y0265639D01*
X0277470Y0265614D01*
X0277507Y0265586D01*
X0277542Y0265555D01*
X0277574Y0265521D01*
X0277603Y0265484D01*
X0277628Y0265446D01*
X0277651Y0265405D01*
X0277670Y0265362D01*
X0277685Y0265318D01*
X0277697Y0265273D01*
X0277705Y0265227D01*
X0277709Y0265180D01*
X0277709Y0265134D01*
X0277705Y0265087D01*
X0277697Y0265041D01*
X0277685Y0264996D01*
X0277670Y0264952D01*
X0277651Y0264909D01*
X0277628Y0264868D01*
X0277603Y0264830D01*
X0277574Y0264793D01*
X0277542Y0264759D01*
X0277507Y0264728D01*
X0277470Y0264700D01*
X0277431Y0264675D01*
X0277389Y0264653D01*
X0277346Y0264635D01*
X0277302Y0264621D01*
X0277256Y0264610D01*
X0277210Y0264603D01*
X0277164Y0264600D01*
X0277117Y0264601D01*
X0277071Y0264606D01*
X0277025Y0264615D01*
X0276980Y0264627D01*
X0276936Y0264644D01*
X0276894Y0264663D01*
X0276854Y0264687D01*
X0276815Y0264713D01*
X0276779Y0264743D01*
X0276746Y0264776D01*
X0276715Y0264811D01*
X0276688Y0264849D01*
X0276664Y0264889D01*
X0276643Y0264930D01*
X0276626Y0264974D01*
X0276612Y0265018D01*
X0276603Y0265064D01*
X0276597Y0265110D01*
X0276595Y0265157D01*
X0168957Y0284843D02*
X0168959Y0284890D01*
X0168965Y0284936D01*
X0168974Y0284982D01*
X0168988Y0285026D01*
X0169005Y0285070D01*
X0169026Y0285111D01*
X0169050Y0285151D01*
X0169077Y0285189D01*
X0169108Y0285224D01*
X0169141Y0285257D01*
X0169177Y0285287D01*
X0169216Y0285313D01*
X0169256Y0285337D01*
X0169298Y0285356D01*
X0169342Y0285373D01*
X0169387Y0285385D01*
X0169433Y0285394D01*
X0169479Y0285399D01*
X0169526Y0285400D01*
X0169572Y0285397D01*
X0169618Y0285390D01*
X0169664Y0285379D01*
X0169708Y0285365D01*
X0169751Y0285347D01*
X0169792Y0285325D01*
X0169832Y0285300D01*
X0169869Y0285272D01*
X0169904Y0285241D01*
X0169936Y0285207D01*
X0169965Y0285170D01*
X0169990Y0285132D01*
X0170013Y0285091D01*
X0170032Y0285048D01*
X0170047Y0285004D01*
X0170059Y0284959D01*
X0170067Y0284913D01*
X0170071Y0284866D01*
X0170071Y0284820D01*
X0170067Y0284773D01*
X0170059Y0284727D01*
X0170047Y0284682D01*
X0170032Y0284638D01*
X0170013Y0284595D01*
X0169990Y0284554D01*
X0169965Y0284516D01*
X0169936Y0284479D01*
X0169904Y0284445D01*
X0169869Y0284414D01*
X0169832Y0284386D01*
X0169793Y0284361D01*
X0169751Y0284339D01*
X0169708Y0284321D01*
X0169664Y0284307D01*
X0169618Y0284296D01*
X0169572Y0284289D01*
X0169526Y0284286D01*
X0169479Y0284287D01*
X0169433Y0284292D01*
X0169387Y0284301D01*
X0169342Y0284313D01*
X0169298Y0284330D01*
X0169256Y0284349D01*
X0169216Y0284373D01*
X0169177Y0284399D01*
X0169141Y0284429D01*
X0169108Y0284462D01*
X0169077Y0284497D01*
X0169050Y0284535D01*
X0169026Y0284575D01*
X0169005Y0284616D01*
X0168988Y0284660D01*
X0168974Y0284704D01*
X0168965Y0284750D01*
X0168959Y0284796D01*
X0168957Y0284843D01*
D12*
X0171097Y0316500D02*
X0171097Y0337468D01*
X0171097Y0343500D01*
X0175197Y0343500D01*
X0178570Y0343500D01*
X0178570Y0337225D01*
X0177876Y0337225D01*
X0177876Y0337468D01*
X0175197Y0337468D01*
X0175197Y0339744D01*
X0176645Y0338751D01*
X0176645Y0339655D01*
X0175403Y0340473D01*
X0176645Y0341286D01*
X0176645Y0342223D01*
X0175197Y0341235D01*
X0175197Y0343500D01*
X0175197Y0341235D01*
X0174793Y0340959D01*
X0173024Y0342169D01*
X0171097Y0342169D01*
X0171097Y0342207D02*
X0175197Y0342207D01*
X0176621Y0342207D01*
X0176645Y0342207D02*
X0178570Y0342207D01*
X0178570Y0342245D02*
X0175197Y0342245D01*
X0171097Y0342245D01*
X0171097Y0342283D02*
X0175197Y0342283D01*
X0178570Y0342283D01*
X0178570Y0342320D02*
X0175197Y0342320D01*
X0171097Y0342320D01*
X0171097Y0342358D02*
X0175197Y0342358D01*
X0178570Y0342358D01*
X0178570Y0342396D02*
X0175197Y0342396D01*
X0171097Y0342396D01*
X0171097Y0342434D02*
X0175197Y0342434D01*
X0178570Y0342434D01*
X0178570Y0342472D02*
X0175197Y0342472D01*
X0171097Y0342472D01*
X0171097Y0342510D02*
X0175197Y0342510D01*
X0178570Y0342510D01*
X0178570Y0342548D02*
X0175197Y0342548D01*
X0171097Y0342548D01*
X0171097Y0342586D02*
X0175197Y0342586D01*
X0178570Y0342586D01*
X0178570Y0342623D02*
X0175197Y0342623D01*
X0171097Y0342623D01*
X0171097Y0342661D02*
X0175197Y0342661D01*
X0178570Y0342661D01*
X0178570Y0342699D02*
X0175197Y0342699D01*
X0171097Y0342699D01*
X0171097Y0342737D02*
X0175197Y0342737D01*
X0178570Y0342737D01*
X0178570Y0342775D02*
X0175197Y0342775D01*
X0171097Y0342775D01*
X0171097Y0342813D02*
X0175197Y0342813D01*
X0178570Y0342813D01*
X0178570Y0342851D02*
X0175197Y0342851D01*
X0171097Y0342851D01*
X0171097Y0342889D02*
X0175197Y0342889D01*
X0178570Y0342889D01*
X0178570Y0342927D02*
X0175197Y0342927D01*
X0171097Y0342927D01*
X0171097Y0342964D02*
X0175197Y0342964D01*
X0178570Y0342964D01*
X0178570Y0343002D02*
X0175197Y0343002D01*
X0171097Y0343002D01*
X0171097Y0343040D02*
X0175197Y0343040D01*
X0178570Y0343040D01*
X0178570Y0343078D02*
X0175197Y0343078D01*
X0171097Y0343078D01*
X0171097Y0343116D02*
X0175197Y0343116D01*
X0178570Y0343116D01*
X0178570Y0343154D02*
X0175197Y0343154D01*
X0171097Y0343154D01*
X0171097Y0343192D02*
X0175197Y0343192D01*
X0178570Y0343192D01*
X0178570Y0343230D02*
X0175197Y0343230D01*
X0171097Y0343230D01*
X0171097Y0343267D02*
X0175197Y0343267D01*
X0178570Y0343267D01*
X0178570Y0343305D02*
X0175197Y0343305D01*
X0171097Y0343305D01*
X0171097Y0343343D02*
X0175197Y0343343D01*
X0178570Y0343343D01*
X0178570Y0343381D02*
X0175197Y0343381D01*
X0171097Y0343381D01*
X0171097Y0343419D02*
X0175197Y0343419D01*
X0178570Y0343419D01*
X0178570Y0343457D02*
X0175197Y0343457D01*
X0171097Y0343457D01*
X0171097Y0343495D02*
X0175197Y0343495D01*
X0178570Y0343495D01*
X0178570Y0342169D02*
X0176645Y0342169D01*
X0176645Y0342131D02*
X0178570Y0342131D01*
X0178570Y0342093D02*
X0176645Y0342093D01*
X0176645Y0342055D02*
X0178570Y0342055D01*
X0178570Y0342017D02*
X0176645Y0342017D01*
X0176645Y0341979D02*
X0178570Y0341979D01*
X0178570Y0341942D02*
X0176645Y0341942D01*
X0176645Y0341904D02*
X0178570Y0341904D01*
X0178570Y0341866D02*
X0176645Y0341866D01*
X0176645Y0341828D02*
X0178570Y0341828D01*
X0178570Y0341790D02*
X0176645Y0341790D01*
X0176645Y0341752D02*
X0178570Y0341752D01*
X0178570Y0341714D02*
X0176645Y0341714D01*
X0176645Y0341676D02*
X0178570Y0341676D01*
X0178570Y0341639D02*
X0176645Y0341639D01*
X0176645Y0341601D02*
X0178570Y0341601D01*
X0178570Y0341563D02*
X0176645Y0341563D01*
X0176645Y0341525D02*
X0178570Y0341525D01*
X0178570Y0341487D02*
X0176645Y0341487D01*
X0176645Y0341449D02*
X0178570Y0341449D01*
X0178570Y0341411D02*
X0176645Y0341411D01*
X0176645Y0341373D02*
X0178570Y0341373D01*
X0178570Y0341335D02*
X0176645Y0341335D01*
X0176645Y0341298D02*
X0178570Y0341298D01*
X0178570Y0341260D02*
X0176605Y0341260D01*
X0176547Y0341222D02*
X0178570Y0341222D01*
X0178570Y0341184D02*
X0176489Y0341184D01*
X0176431Y0341146D02*
X0178570Y0341146D01*
X0178570Y0341108D02*
X0176373Y0341108D01*
X0176315Y0341070D02*
X0178570Y0341070D01*
X0178570Y0341032D02*
X0176258Y0341032D01*
X0176200Y0340995D02*
X0178570Y0340995D01*
X0178570Y0340957D02*
X0176142Y0340957D01*
X0176084Y0340919D02*
X0178570Y0340919D01*
X0178570Y0340881D02*
X0176026Y0340881D01*
X0175968Y0340843D02*
X0178570Y0340843D01*
X0178570Y0340805D02*
X0175910Y0340805D01*
X0175852Y0340767D02*
X0178570Y0340767D01*
X0178570Y0340729D02*
X0175794Y0340729D01*
X0175737Y0340692D02*
X0178570Y0340692D01*
X0178570Y0340654D02*
X0175679Y0340654D01*
X0175621Y0340616D02*
X0178570Y0340616D01*
X0178570Y0340578D02*
X0175563Y0340578D01*
X0175505Y0340540D02*
X0178570Y0340540D01*
X0178570Y0340502D02*
X0175447Y0340502D01*
X0175417Y0340464D02*
X0178570Y0340464D01*
X0178570Y0340426D02*
X0175474Y0340426D01*
X0175532Y0340388D02*
X0178570Y0340388D01*
X0178570Y0340351D02*
X0175589Y0340351D01*
X0175647Y0340313D02*
X0178570Y0340313D01*
X0178570Y0340275D02*
X0175704Y0340275D01*
X0175762Y0340237D02*
X0178570Y0340237D01*
X0178570Y0340199D02*
X0175819Y0340199D01*
X0175877Y0340161D02*
X0178570Y0340161D01*
X0178570Y0340123D02*
X0175934Y0340123D01*
X0175992Y0340085D02*
X0178570Y0340085D01*
X0178570Y0340048D02*
X0176049Y0340048D01*
X0176107Y0340010D02*
X0178570Y0340010D01*
X0178570Y0339972D02*
X0176164Y0339972D01*
X0176222Y0339934D02*
X0178570Y0339934D01*
X0178570Y0339896D02*
X0176279Y0339896D01*
X0176337Y0339858D02*
X0178570Y0339858D01*
X0178570Y0339820D02*
X0176394Y0339820D01*
X0176452Y0339782D02*
X0178570Y0339782D01*
X0178570Y0339744D02*
X0176509Y0339744D01*
X0176567Y0339707D02*
X0178570Y0339707D01*
X0178570Y0339669D02*
X0176625Y0339669D01*
X0176645Y0339631D02*
X0178570Y0339631D01*
X0178570Y0339593D02*
X0176645Y0339593D01*
X0176645Y0339555D02*
X0178570Y0339555D01*
X0178570Y0339517D02*
X0176645Y0339517D01*
X0176645Y0339479D02*
X0178570Y0339479D01*
X0178570Y0339441D02*
X0176645Y0339441D01*
X0176645Y0339404D02*
X0178570Y0339404D01*
X0178570Y0339366D02*
X0176645Y0339366D01*
X0176645Y0339328D02*
X0178570Y0339328D01*
X0178570Y0339290D02*
X0176645Y0339290D01*
X0176645Y0339252D02*
X0178570Y0339252D01*
X0178570Y0339214D02*
X0176645Y0339214D01*
X0176645Y0339176D02*
X0178570Y0339176D01*
X0178570Y0339138D02*
X0176645Y0339138D01*
X0176645Y0339100D02*
X0178570Y0339100D01*
X0178570Y0339063D02*
X0176645Y0339063D01*
X0176645Y0339025D02*
X0178570Y0339025D01*
X0178570Y0338987D02*
X0176645Y0338987D01*
X0176645Y0338949D02*
X0178570Y0338949D01*
X0178570Y0338911D02*
X0176645Y0338911D01*
X0176645Y0338873D02*
X0178570Y0338873D01*
X0178570Y0338835D02*
X0176645Y0338835D01*
X0176645Y0338797D02*
X0178570Y0338797D01*
X0178570Y0338760D02*
X0176645Y0338760D01*
X0176632Y0338760D02*
X0175197Y0338760D01*
X0171097Y0338760D01*
X0171097Y0338797D02*
X0175197Y0338797D01*
X0176577Y0338797D01*
X0176522Y0338835D02*
X0175197Y0338835D01*
X0173069Y0338835D01*
X0173024Y0338835D02*
X0171097Y0338835D01*
X0171097Y0338873D02*
X0173024Y0338873D01*
X0173024Y0338911D02*
X0171097Y0338911D01*
X0171097Y0338949D02*
X0173024Y0338949D01*
X0173024Y0338987D02*
X0171097Y0338987D01*
X0171097Y0339025D02*
X0173024Y0339025D01*
X0173024Y0339063D02*
X0171097Y0339063D01*
X0171097Y0339100D02*
X0173024Y0339100D01*
X0173024Y0339138D02*
X0171097Y0339138D01*
X0171097Y0339176D02*
X0173024Y0339176D01*
X0173024Y0339214D02*
X0171097Y0339214D01*
X0171097Y0339252D02*
X0173024Y0339252D01*
X0173024Y0339290D02*
X0171097Y0339290D01*
X0171097Y0339328D02*
X0173024Y0339328D01*
X0173024Y0339366D02*
X0171097Y0339366D01*
X0171097Y0339404D02*
X0173024Y0339404D01*
X0173024Y0339441D02*
X0171097Y0339441D01*
X0171097Y0339479D02*
X0173024Y0339479D01*
X0173024Y0339517D02*
X0171097Y0339517D01*
X0171097Y0339555D02*
X0173024Y0339555D01*
X0173024Y0339593D02*
X0171097Y0339593D01*
X0171097Y0339631D02*
X0173024Y0339631D01*
X0173024Y0339669D02*
X0171097Y0339669D01*
X0171097Y0339707D02*
X0173024Y0339707D01*
X0173024Y0339736D02*
X0174199Y0340498D01*
X0173024Y0341264D01*
X0173024Y0342169D01*
X0175197Y0342169D01*
X0176566Y0342169D01*
X0176510Y0342131D02*
X0175197Y0342131D01*
X0173080Y0342131D01*
X0173024Y0342131D02*
X0171097Y0342131D01*
X0171097Y0342093D02*
X0173024Y0342093D01*
X0173024Y0342055D02*
X0171097Y0342055D01*
X0171097Y0342017D02*
X0173024Y0342017D01*
X0173024Y0341979D02*
X0171097Y0341979D01*
X0171097Y0341942D02*
X0173024Y0341942D01*
X0173024Y0341904D02*
X0171097Y0341904D01*
X0171097Y0341866D02*
X0173024Y0341866D01*
X0173024Y0341828D02*
X0171097Y0341828D01*
X0171097Y0341790D02*
X0173024Y0341790D01*
X0173024Y0341752D02*
X0171097Y0341752D01*
X0171097Y0341714D02*
X0173024Y0341714D01*
X0173024Y0341676D02*
X0171097Y0341676D01*
X0171097Y0341639D02*
X0173024Y0341639D01*
X0173024Y0341601D02*
X0171097Y0341601D01*
X0171097Y0341563D02*
X0173024Y0341563D01*
X0173024Y0341525D02*
X0171097Y0341525D01*
X0171097Y0341487D02*
X0173024Y0341487D01*
X0173024Y0341449D02*
X0171097Y0341449D01*
X0171097Y0341411D02*
X0173024Y0341411D01*
X0173024Y0341373D02*
X0171097Y0341373D01*
X0171097Y0341335D02*
X0173024Y0341335D01*
X0173024Y0341298D02*
X0171097Y0341298D01*
X0171097Y0341260D02*
X0173031Y0341260D01*
X0173089Y0341222D02*
X0171097Y0341222D01*
X0171097Y0341184D02*
X0173148Y0341184D01*
X0173206Y0341146D02*
X0171097Y0341146D01*
X0171097Y0341108D02*
X0173264Y0341108D01*
X0173322Y0341070D02*
X0171097Y0341070D01*
X0171097Y0341032D02*
X0173380Y0341032D01*
X0173438Y0340995D02*
X0171097Y0340995D01*
X0171097Y0340957D02*
X0173496Y0340957D01*
X0173554Y0340919D02*
X0171097Y0340919D01*
X0171097Y0340881D02*
X0173612Y0340881D01*
X0173670Y0340843D02*
X0171097Y0340843D01*
X0171097Y0340805D02*
X0173728Y0340805D01*
X0173786Y0340767D02*
X0171097Y0340767D01*
X0171097Y0340729D02*
X0173844Y0340729D01*
X0173902Y0340692D02*
X0171097Y0340692D01*
X0171097Y0340654D02*
X0173960Y0340654D01*
X0174018Y0340616D02*
X0171097Y0340616D01*
X0171097Y0340578D02*
X0174076Y0340578D01*
X0174134Y0340540D02*
X0171097Y0340540D01*
X0171097Y0340502D02*
X0174192Y0340502D01*
X0174147Y0340464D02*
X0171097Y0340464D01*
X0171097Y0340426D02*
X0174089Y0340426D01*
X0174030Y0340388D02*
X0171097Y0340388D01*
X0171097Y0340351D02*
X0173972Y0340351D01*
X0173914Y0340313D02*
X0171097Y0340313D01*
X0171097Y0340275D02*
X0173855Y0340275D01*
X0173797Y0340237D02*
X0171097Y0340237D01*
X0171097Y0340199D02*
X0173738Y0340199D01*
X0173680Y0340161D02*
X0171097Y0340161D01*
X0171097Y0340123D02*
X0173621Y0340123D01*
X0173563Y0340085D02*
X0171097Y0340085D01*
X0171097Y0340048D02*
X0173505Y0340048D01*
X0173446Y0340010D02*
X0171097Y0340010D01*
X0171097Y0339972D02*
X0173388Y0339972D01*
X0173329Y0339934D02*
X0171097Y0339934D01*
X0171097Y0339896D02*
X0173271Y0339896D01*
X0173212Y0339858D02*
X0171097Y0339858D01*
X0171097Y0339820D02*
X0173154Y0339820D01*
X0173096Y0339782D02*
X0171097Y0339782D01*
X0171097Y0339744D02*
X0173037Y0339744D01*
X0173024Y0339736D02*
X0173024Y0338805D01*
X0174804Y0340014D01*
X0175197Y0339744D01*
X0175197Y0337468D01*
X0171790Y0337468D01*
X0171790Y0317194D01*
X0177876Y0317194D01*
X0177876Y0337225D01*
X0178570Y0337225D01*
X0178570Y0316500D01*
X0171097Y0316500D01*
X0171097Y0316523D02*
X0178570Y0316523D01*
X0178570Y0316561D02*
X0171097Y0316561D01*
X0171097Y0316599D02*
X0178570Y0316599D01*
X0178570Y0316637D02*
X0171097Y0316637D01*
X0171097Y0316675D02*
X0178570Y0316675D01*
X0178570Y0316713D02*
X0171097Y0316713D01*
X0171097Y0316750D02*
X0178570Y0316750D01*
X0178570Y0316788D02*
X0171097Y0316788D01*
X0171097Y0316826D02*
X0178570Y0316826D01*
X0178570Y0316864D02*
X0171097Y0316864D01*
X0171097Y0316902D02*
X0178570Y0316902D01*
X0178570Y0316940D02*
X0171097Y0316940D01*
X0171097Y0316978D02*
X0178570Y0316978D01*
X0178570Y0317016D02*
X0171097Y0317016D01*
X0171097Y0317054D02*
X0178570Y0317054D01*
X0178570Y0317091D02*
X0171097Y0317091D01*
X0171097Y0317129D02*
X0178570Y0317129D01*
X0178570Y0317167D02*
X0171097Y0317167D01*
X0171097Y0317205D02*
X0171790Y0317205D01*
X0171790Y0317243D02*
X0171097Y0317243D01*
X0171097Y0317281D02*
X0171790Y0317281D01*
X0171790Y0317319D02*
X0171097Y0317319D01*
X0171097Y0317357D02*
X0171790Y0317357D01*
X0171790Y0317394D02*
X0171097Y0317394D01*
X0171097Y0317432D02*
X0171790Y0317432D01*
X0171790Y0317470D02*
X0171097Y0317470D01*
X0171097Y0317508D02*
X0171790Y0317508D01*
X0171790Y0317546D02*
X0171097Y0317546D01*
X0171097Y0317584D02*
X0171790Y0317584D01*
X0171790Y0317622D02*
X0171097Y0317622D01*
X0171097Y0317660D02*
X0171790Y0317660D01*
X0171790Y0317698D02*
X0171097Y0317698D01*
X0171097Y0317735D02*
X0171790Y0317735D01*
X0171790Y0317773D02*
X0171097Y0317773D01*
X0171097Y0317811D02*
X0171790Y0317811D01*
X0171790Y0317849D02*
X0171097Y0317849D01*
X0171097Y0317887D02*
X0171790Y0317887D01*
X0171790Y0317925D02*
X0171097Y0317925D01*
X0171097Y0317963D02*
X0171790Y0317963D01*
X0171790Y0318001D02*
X0171097Y0318001D01*
X0171097Y0318038D02*
X0171790Y0318038D01*
X0171790Y0318076D02*
X0171097Y0318076D01*
X0171097Y0318114D02*
X0171790Y0318114D01*
X0171790Y0318152D02*
X0171097Y0318152D01*
X0171097Y0318190D02*
X0171790Y0318190D01*
X0171790Y0318228D02*
X0171097Y0318228D01*
X0171097Y0318266D02*
X0171790Y0318266D01*
X0171790Y0318304D02*
X0171097Y0318304D01*
X0171097Y0318341D02*
X0171790Y0318341D01*
X0171790Y0318379D02*
X0171097Y0318379D01*
X0171097Y0318417D02*
X0171790Y0318417D01*
X0171790Y0318455D02*
X0171097Y0318455D01*
X0171097Y0318493D02*
X0171790Y0318493D01*
X0171790Y0318531D02*
X0171097Y0318531D01*
X0171097Y0318569D02*
X0171790Y0318569D01*
X0171790Y0318607D02*
X0171097Y0318607D01*
X0171097Y0318645D02*
X0171790Y0318645D01*
X0171790Y0318682D02*
X0171097Y0318682D01*
X0171097Y0318720D02*
X0171790Y0318720D01*
X0171790Y0318758D02*
X0171097Y0318758D01*
X0171097Y0318796D02*
X0171790Y0318796D01*
X0171790Y0318834D02*
X0171097Y0318834D01*
X0171097Y0318872D02*
X0171790Y0318872D01*
X0171790Y0318910D02*
X0171097Y0318910D01*
X0171097Y0318948D02*
X0171790Y0318948D01*
X0171790Y0318985D02*
X0171097Y0318985D01*
X0171097Y0319023D02*
X0171790Y0319023D01*
X0171790Y0319061D02*
X0171097Y0319061D01*
X0171097Y0319099D02*
X0171790Y0319099D01*
X0171790Y0319137D02*
X0171097Y0319137D01*
X0171097Y0319175D02*
X0171790Y0319175D01*
X0171790Y0319213D02*
X0171097Y0319213D01*
X0171097Y0319251D02*
X0171790Y0319251D01*
X0171790Y0319289D02*
X0171097Y0319289D01*
X0171097Y0319326D02*
X0171790Y0319326D01*
X0171790Y0319364D02*
X0171097Y0319364D01*
X0171097Y0319402D02*
X0171790Y0319402D01*
X0171790Y0319440D02*
X0171097Y0319440D01*
X0171097Y0319478D02*
X0171790Y0319478D01*
X0171790Y0319516D02*
X0171097Y0319516D01*
X0171097Y0319554D02*
X0171790Y0319554D01*
X0171790Y0319592D02*
X0171097Y0319592D01*
X0171097Y0319629D02*
X0171790Y0319629D01*
X0171790Y0319667D02*
X0171097Y0319667D01*
X0171097Y0319705D02*
X0171790Y0319705D01*
X0171790Y0319743D02*
X0171097Y0319743D01*
X0171097Y0319781D02*
X0171790Y0319781D01*
X0171790Y0319819D02*
X0171097Y0319819D01*
X0171097Y0319857D02*
X0171790Y0319857D01*
X0171790Y0319895D02*
X0171097Y0319895D01*
X0171097Y0319933D02*
X0171790Y0319933D01*
X0171790Y0319970D02*
X0171097Y0319970D01*
X0171097Y0320008D02*
X0171790Y0320008D01*
X0171790Y0320046D02*
X0171097Y0320046D01*
X0171097Y0320084D02*
X0171790Y0320084D01*
X0171790Y0320122D02*
X0171097Y0320122D01*
X0171097Y0320160D02*
X0171790Y0320160D01*
X0171790Y0320198D02*
X0171097Y0320198D01*
X0171097Y0320236D02*
X0171790Y0320236D01*
X0171790Y0320273D02*
X0171097Y0320273D01*
X0171097Y0320311D02*
X0171790Y0320311D01*
X0171790Y0320349D02*
X0171097Y0320349D01*
X0171097Y0320387D02*
X0171790Y0320387D01*
X0171790Y0320425D02*
X0171097Y0320425D01*
X0171097Y0320463D02*
X0171790Y0320463D01*
X0171790Y0320501D02*
X0171097Y0320501D01*
X0171097Y0320539D02*
X0171790Y0320539D01*
X0171790Y0320576D02*
X0171097Y0320576D01*
X0171097Y0320614D02*
X0171790Y0320614D01*
X0171790Y0320652D02*
X0171097Y0320652D01*
X0171097Y0320690D02*
X0171790Y0320690D01*
X0171790Y0320728D02*
X0171097Y0320728D01*
X0171097Y0320766D02*
X0171790Y0320766D01*
X0171790Y0320804D02*
X0171097Y0320804D01*
X0171097Y0320842D02*
X0171790Y0320842D01*
X0171790Y0320880D02*
X0171097Y0320880D01*
X0171097Y0320917D02*
X0171790Y0320917D01*
X0171790Y0320955D02*
X0171097Y0320955D01*
X0171097Y0320993D02*
X0171790Y0320993D01*
X0171790Y0321031D02*
X0171097Y0321031D01*
X0171097Y0321069D02*
X0171790Y0321069D01*
X0171790Y0321107D02*
X0171097Y0321107D01*
X0171097Y0321145D02*
X0171790Y0321145D01*
X0171790Y0321183D02*
X0171097Y0321183D01*
X0171097Y0321220D02*
X0171790Y0321220D01*
X0171790Y0321258D02*
X0171097Y0321258D01*
X0171097Y0321296D02*
X0171790Y0321296D01*
X0171790Y0321334D02*
X0171097Y0321334D01*
X0171097Y0321372D02*
X0171790Y0321372D01*
X0171790Y0321410D02*
X0171097Y0321410D01*
X0171097Y0321448D02*
X0171790Y0321448D01*
X0171790Y0321486D02*
X0171097Y0321486D01*
X0171097Y0321524D02*
X0171790Y0321524D01*
X0171790Y0321561D02*
X0171097Y0321561D01*
X0171097Y0321599D02*
X0171790Y0321599D01*
X0171790Y0321637D02*
X0171097Y0321637D01*
X0171097Y0321675D02*
X0171790Y0321675D01*
X0171790Y0321713D02*
X0171097Y0321713D01*
X0171097Y0321751D02*
X0171790Y0321751D01*
X0171790Y0321789D02*
X0171097Y0321789D01*
X0171097Y0321827D02*
X0171790Y0321827D01*
X0171790Y0321864D02*
X0171097Y0321864D01*
X0171097Y0321902D02*
X0171790Y0321902D01*
X0171790Y0321940D02*
X0171097Y0321940D01*
X0171097Y0321978D02*
X0171790Y0321978D01*
X0171790Y0322016D02*
X0171097Y0322016D01*
X0171097Y0322054D02*
X0171790Y0322054D01*
X0171790Y0322092D02*
X0171097Y0322092D01*
X0171097Y0322130D02*
X0171790Y0322130D01*
X0171790Y0322168D02*
X0171097Y0322168D01*
X0171097Y0322205D02*
X0171790Y0322205D01*
X0171790Y0322243D02*
X0171097Y0322243D01*
X0171097Y0322281D02*
X0171790Y0322281D01*
X0171790Y0322319D02*
X0171097Y0322319D01*
X0171097Y0322357D02*
X0171790Y0322357D01*
X0171790Y0322395D02*
X0171097Y0322395D01*
X0171097Y0322433D02*
X0171790Y0322433D01*
X0171790Y0322471D02*
X0171097Y0322471D01*
X0171097Y0322508D02*
X0171790Y0322508D01*
X0171790Y0322546D02*
X0171097Y0322546D01*
X0171097Y0322584D02*
X0171790Y0322584D01*
X0171790Y0322622D02*
X0171097Y0322622D01*
X0171097Y0322660D02*
X0171790Y0322660D01*
X0171790Y0322698D02*
X0171097Y0322698D01*
X0171097Y0322736D02*
X0171790Y0322736D01*
X0171790Y0322774D02*
X0171097Y0322774D01*
X0171097Y0322811D02*
X0171790Y0322811D01*
X0171790Y0322849D02*
X0171097Y0322849D01*
X0171097Y0322887D02*
X0171790Y0322887D01*
X0171790Y0322925D02*
X0171097Y0322925D01*
X0171097Y0322963D02*
X0171790Y0322963D01*
X0171790Y0323001D02*
X0171097Y0323001D01*
X0171097Y0323039D02*
X0171790Y0323039D01*
X0171790Y0323077D02*
X0171097Y0323077D01*
X0171097Y0323115D02*
X0171790Y0323115D01*
X0171790Y0323152D02*
X0171097Y0323152D01*
X0171097Y0323190D02*
X0171790Y0323190D01*
X0171790Y0323228D02*
X0171097Y0323228D01*
X0171097Y0323266D02*
X0171790Y0323266D01*
X0171790Y0323304D02*
X0171097Y0323304D01*
X0171097Y0323342D02*
X0171790Y0323342D01*
X0171790Y0323380D02*
X0171097Y0323380D01*
X0171097Y0323418D02*
X0171790Y0323418D01*
X0171790Y0323455D02*
X0171097Y0323455D01*
X0171097Y0323493D02*
X0171790Y0323493D01*
X0171790Y0323531D02*
X0171097Y0323531D01*
X0171097Y0323569D02*
X0171790Y0323569D01*
X0171790Y0323607D02*
X0171097Y0323607D01*
X0171097Y0323645D02*
X0171790Y0323645D01*
X0171790Y0323683D02*
X0171097Y0323683D01*
X0171097Y0323721D02*
X0171790Y0323721D01*
X0171790Y0323759D02*
X0171097Y0323759D01*
X0171097Y0323796D02*
X0171790Y0323796D01*
X0171790Y0323834D02*
X0171097Y0323834D01*
X0171097Y0323872D02*
X0171790Y0323872D01*
X0171790Y0323910D02*
X0171097Y0323910D01*
X0171097Y0323948D02*
X0171790Y0323948D01*
X0171790Y0323986D02*
X0171097Y0323986D01*
X0171097Y0324024D02*
X0171790Y0324024D01*
X0171790Y0324062D02*
X0171097Y0324062D01*
X0171097Y0324099D02*
X0171790Y0324099D01*
X0171790Y0324137D02*
X0171097Y0324137D01*
X0171097Y0324175D02*
X0171790Y0324175D01*
X0171790Y0324213D02*
X0171097Y0324213D01*
X0171097Y0324251D02*
X0171790Y0324251D01*
X0171790Y0324289D02*
X0171097Y0324289D01*
X0171097Y0324327D02*
X0171790Y0324327D01*
X0171790Y0324365D02*
X0171097Y0324365D01*
X0171097Y0324403D02*
X0171790Y0324403D01*
X0171790Y0324440D02*
X0171097Y0324440D01*
X0171097Y0324478D02*
X0171790Y0324478D01*
X0171790Y0324516D02*
X0171097Y0324516D01*
X0171097Y0324554D02*
X0171790Y0324554D01*
X0171790Y0324592D02*
X0171097Y0324592D01*
X0171097Y0324630D02*
X0171790Y0324630D01*
X0171790Y0324668D02*
X0171097Y0324668D01*
X0171097Y0324706D02*
X0171790Y0324706D01*
X0171790Y0324743D02*
X0171097Y0324743D01*
X0171097Y0324781D02*
X0171790Y0324781D01*
X0171790Y0324819D02*
X0171097Y0324819D01*
X0171097Y0324857D02*
X0171790Y0324857D01*
X0171790Y0324895D02*
X0171097Y0324895D01*
X0171097Y0324933D02*
X0171790Y0324933D01*
X0171790Y0324971D02*
X0171097Y0324971D01*
X0171097Y0325009D02*
X0171790Y0325009D01*
X0171790Y0325046D02*
X0171097Y0325046D01*
X0171097Y0325084D02*
X0171790Y0325084D01*
X0171790Y0325122D02*
X0171097Y0325122D01*
X0171097Y0325160D02*
X0171790Y0325160D01*
X0171790Y0325198D02*
X0171097Y0325198D01*
X0171097Y0325236D02*
X0171790Y0325236D01*
X0171790Y0325274D02*
X0171097Y0325274D01*
X0171097Y0325312D02*
X0171790Y0325312D01*
X0171790Y0325350D02*
X0171097Y0325350D01*
X0171097Y0325387D02*
X0171790Y0325387D01*
X0171790Y0325425D02*
X0171097Y0325425D01*
X0171097Y0325463D02*
X0171790Y0325463D01*
X0171790Y0325501D02*
X0171097Y0325501D01*
X0171097Y0325539D02*
X0171790Y0325539D01*
X0171790Y0325577D02*
X0171097Y0325577D01*
X0171097Y0325615D02*
X0171790Y0325615D01*
X0171790Y0325653D02*
X0171097Y0325653D01*
X0171097Y0325690D02*
X0171790Y0325690D01*
X0171790Y0325728D02*
X0171097Y0325728D01*
X0171097Y0325766D02*
X0171790Y0325766D01*
X0171790Y0325804D02*
X0171097Y0325804D01*
X0171097Y0325842D02*
X0171790Y0325842D01*
X0171790Y0325880D02*
X0171097Y0325880D01*
X0171097Y0325918D02*
X0171790Y0325918D01*
X0171790Y0325956D02*
X0171097Y0325956D01*
X0171097Y0325994D02*
X0171790Y0325994D01*
X0171790Y0326031D02*
X0171097Y0326031D01*
X0171097Y0326069D02*
X0171790Y0326069D01*
X0171790Y0326107D02*
X0171097Y0326107D01*
X0171097Y0326145D02*
X0171790Y0326145D01*
X0171790Y0326183D02*
X0171097Y0326183D01*
X0171097Y0326221D02*
X0171790Y0326221D01*
X0171790Y0326259D02*
X0171097Y0326259D01*
X0171097Y0326297D02*
X0171790Y0326297D01*
X0171790Y0326334D02*
X0171097Y0326334D01*
X0171097Y0326372D02*
X0171790Y0326372D01*
X0171790Y0326410D02*
X0171097Y0326410D01*
X0171097Y0326448D02*
X0171790Y0326448D01*
X0171790Y0326486D02*
X0171097Y0326486D01*
X0171097Y0326524D02*
X0171790Y0326524D01*
X0171790Y0326562D02*
X0171097Y0326562D01*
X0171097Y0326600D02*
X0171790Y0326600D01*
X0171790Y0326638D02*
X0171097Y0326638D01*
X0171097Y0326675D02*
X0171790Y0326675D01*
X0171790Y0326713D02*
X0171097Y0326713D01*
X0171097Y0326751D02*
X0171790Y0326751D01*
X0171790Y0326789D02*
X0171097Y0326789D01*
X0171097Y0326827D02*
X0171790Y0326827D01*
X0171790Y0326865D02*
X0171097Y0326865D01*
X0171097Y0326903D02*
X0171790Y0326903D01*
X0171790Y0326941D02*
X0171097Y0326941D01*
X0171097Y0326978D02*
X0171790Y0326978D01*
X0171790Y0327016D02*
X0171097Y0327016D01*
X0171097Y0327054D02*
X0171790Y0327054D01*
X0171790Y0327092D02*
X0171097Y0327092D01*
X0171097Y0327130D02*
X0171790Y0327130D01*
X0171790Y0327168D02*
X0171097Y0327168D01*
X0171097Y0327206D02*
X0171790Y0327206D01*
X0171790Y0327244D02*
X0171097Y0327244D01*
X0171097Y0327281D02*
X0171790Y0327281D01*
X0171790Y0327319D02*
X0171097Y0327319D01*
X0171097Y0327357D02*
X0171790Y0327357D01*
X0171790Y0327395D02*
X0171097Y0327395D01*
X0171097Y0327433D02*
X0171790Y0327433D01*
X0171790Y0327471D02*
X0171097Y0327471D01*
X0171097Y0327509D02*
X0171790Y0327509D01*
X0171790Y0327547D02*
X0171097Y0327547D01*
X0171097Y0327585D02*
X0171790Y0327585D01*
X0171790Y0327622D02*
X0171097Y0327622D01*
X0171097Y0327660D02*
X0171790Y0327660D01*
X0171790Y0327698D02*
X0171097Y0327698D01*
X0171097Y0327736D02*
X0171790Y0327736D01*
X0171790Y0327774D02*
X0171097Y0327774D01*
X0171097Y0327812D02*
X0171790Y0327812D01*
X0171790Y0327850D02*
X0171097Y0327850D01*
X0171097Y0327888D02*
X0171790Y0327888D01*
X0171790Y0327925D02*
X0171097Y0327925D01*
X0171097Y0327963D02*
X0171790Y0327963D01*
X0171790Y0328001D02*
X0171097Y0328001D01*
X0171097Y0328039D02*
X0171790Y0328039D01*
X0171790Y0328077D02*
X0171097Y0328077D01*
X0171097Y0328115D02*
X0171790Y0328115D01*
X0171790Y0328153D02*
X0171097Y0328153D01*
X0171097Y0328191D02*
X0171790Y0328191D01*
X0171790Y0328229D02*
X0171097Y0328229D01*
X0171097Y0328266D02*
X0171790Y0328266D01*
X0171790Y0328304D02*
X0171097Y0328304D01*
X0171097Y0328342D02*
X0171790Y0328342D01*
X0171790Y0328380D02*
X0171097Y0328380D01*
X0171097Y0328418D02*
X0171790Y0328418D01*
X0171790Y0328456D02*
X0171097Y0328456D01*
X0171097Y0328494D02*
X0171790Y0328494D01*
X0171790Y0328532D02*
X0171097Y0328532D01*
X0171097Y0328569D02*
X0171790Y0328569D01*
X0171790Y0328607D02*
X0171097Y0328607D01*
X0171097Y0328645D02*
X0171790Y0328645D01*
X0171790Y0328683D02*
X0171097Y0328683D01*
X0171097Y0328721D02*
X0171790Y0328721D01*
X0171790Y0328759D02*
X0171097Y0328759D01*
X0171097Y0328797D02*
X0171790Y0328797D01*
X0171790Y0328835D02*
X0171097Y0328835D01*
X0171097Y0328873D02*
X0171790Y0328873D01*
X0171790Y0328910D02*
X0171097Y0328910D01*
X0171097Y0328948D02*
X0171790Y0328948D01*
X0171790Y0328986D02*
X0171097Y0328986D01*
X0171097Y0329024D02*
X0171790Y0329024D01*
X0171790Y0329062D02*
X0171097Y0329062D01*
X0171097Y0329100D02*
X0171790Y0329100D01*
X0171790Y0329138D02*
X0171097Y0329138D01*
X0171097Y0329176D02*
X0171790Y0329176D01*
X0171790Y0329213D02*
X0171097Y0329213D01*
X0171097Y0329251D02*
X0171790Y0329251D01*
X0171790Y0329289D02*
X0171097Y0329289D01*
X0171097Y0329327D02*
X0171790Y0329327D01*
X0171790Y0329365D02*
X0171097Y0329365D01*
X0171097Y0329403D02*
X0171790Y0329403D01*
X0171790Y0329441D02*
X0171097Y0329441D01*
X0171097Y0329479D02*
X0171790Y0329479D01*
X0171790Y0329516D02*
X0171097Y0329516D01*
X0171097Y0329554D02*
X0171790Y0329554D01*
X0171790Y0329592D02*
X0171097Y0329592D01*
X0171097Y0329630D02*
X0171790Y0329630D01*
X0171790Y0329668D02*
X0171097Y0329668D01*
X0171097Y0329706D02*
X0171790Y0329706D01*
X0171790Y0329744D02*
X0171097Y0329744D01*
X0171097Y0329782D02*
X0171790Y0329782D01*
X0171790Y0329820D02*
X0171097Y0329820D01*
X0171097Y0329857D02*
X0171790Y0329857D01*
X0171790Y0329895D02*
X0171097Y0329895D01*
X0171097Y0329933D02*
X0171790Y0329933D01*
X0171790Y0329971D02*
X0171097Y0329971D01*
X0171097Y0330009D02*
X0171790Y0330009D01*
X0171790Y0330047D02*
X0171097Y0330047D01*
X0171097Y0330085D02*
X0171790Y0330085D01*
X0171790Y0330123D02*
X0171097Y0330123D01*
X0171097Y0330160D02*
X0171790Y0330160D01*
X0171790Y0330198D02*
X0171097Y0330198D01*
X0171097Y0330236D02*
X0171790Y0330236D01*
X0171790Y0330274D02*
X0171097Y0330274D01*
X0171097Y0330312D02*
X0171790Y0330312D01*
X0171790Y0330350D02*
X0171097Y0330350D01*
X0171097Y0330388D02*
X0171790Y0330388D01*
X0171790Y0330426D02*
X0171097Y0330426D01*
X0171097Y0330464D02*
X0171790Y0330464D01*
X0171790Y0330501D02*
X0171097Y0330501D01*
X0171097Y0330539D02*
X0171790Y0330539D01*
X0171790Y0330577D02*
X0171097Y0330577D01*
X0171097Y0330615D02*
X0171790Y0330615D01*
X0171790Y0330653D02*
X0171097Y0330653D01*
X0171097Y0330691D02*
X0171790Y0330691D01*
X0171790Y0330729D02*
X0171097Y0330729D01*
X0171097Y0330767D02*
X0171790Y0330767D01*
X0171790Y0330804D02*
X0171097Y0330804D01*
X0171097Y0330842D02*
X0171790Y0330842D01*
X0171790Y0330880D02*
X0171097Y0330880D01*
X0171097Y0330918D02*
X0171790Y0330918D01*
X0171790Y0330956D02*
X0171097Y0330956D01*
X0171097Y0330994D02*
X0171790Y0330994D01*
X0171790Y0331032D02*
X0171097Y0331032D01*
X0171097Y0331070D02*
X0171790Y0331070D01*
X0171790Y0331108D02*
X0171097Y0331108D01*
X0171097Y0331145D02*
X0171790Y0331145D01*
X0171790Y0331183D02*
X0171097Y0331183D01*
X0171097Y0331221D02*
X0171790Y0331221D01*
X0171790Y0331259D02*
X0171097Y0331259D01*
X0171097Y0331297D02*
X0171790Y0331297D01*
X0171790Y0331335D02*
X0171097Y0331335D01*
X0171097Y0331373D02*
X0171790Y0331373D01*
X0171790Y0331411D02*
X0171097Y0331411D01*
X0171097Y0331448D02*
X0171790Y0331448D01*
X0171790Y0331486D02*
X0171097Y0331486D01*
X0171097Y0331524D02*
X0171790Y0331524D01*
X0171790Y0331562D02*
X0171097Y0331562D01*
X0171097Y0331600D02*
X0171790Y0331600D01*
X0171790Y0331638D02*
X0171097Y0331638D01*
X0171097Y0331676D02*
X0171790Y0331676D01*
X0171790Y0331714D02*
X0171097Y0331714D01*
X0171097Y0331752D02*
X0171790Y0331752D01*
X0171790Y0331789D02*
X0171097Y0331789D01*
X0171097Y0331827D02*
X0171790Y0331827D01*
X0171790Y0331865D02*
X0171097Y0331865D01*
X0171097Y0331903D02*
X0171790Y0331903D01*
X0171790Y0331941D02*
X0171097Y0331941D01*
X0171097Y0331979D02*
X0171790Y0331979D01*
X0171790Y0332017D02*
X0171097Y0332017D01*
X0171097Y0332055D02*
X0171790Y0332055D01*
X0171790Y0332092D02*
X0171097Y0332092D01*
X0171097Y0332130D02*
X0171790Y0332130D01*
X0171790Y0332168D02*
X0171097Y0332168D01*
X0171097Y0332206D02*
X0171790Y0332206D01*
X0171790Y0332244D02*
X0171097Y0332244D01*
X0171097Y0332282D02*
X0171790Y0332282D01*
X0171790Y0332320D02*
X0171097Y0332320D01*
X0171097Y0332358D02*
X0171790Y0332358D01*
X0171790Y0332395D02*
X0171097Y0332395D01*
X0171097Y0332433D02*
X0171790Y0332433D01*
X0171790Y0332471D02*
X0171097Y0332471D01*
X0171097Y0332509D02*
X0171790Y0332509D01*
X0171790Y0332547D02*
X0171097Y0332547D01*
X0171097Y0332585D02*
X0171790Y0332585D01*
X0171790Y0332623D02*
X0171097Y0332623D01*
X0171097Y0332661D02*
X0171790Y0332661D01*
X0171790Y0332699D02*
X0171097Y0332699D01*
X0171097Y0332736D02*
X0171790Y0332736D01*
X0171790Y0332774D02*
X0171097Y0332774D01*
X0171097Y0332812D02*
X0171790Y0332812D01*
X0171790Y0332850D02*
X0171097Y0332850D01*
X0171097Y0332888D02*
X0171790Y0332888D01*
X0171790Y0332926D02*
X0171097Y0332926D01*
X0171097Y0332964D02*
X0171790Y0332964D01*
X0171790Y0333002D02*
X0171097Y0333002D01*
X0171097Y0333039D02*
X0171790Y0333039D01*
X0171790Y0333077D02*
X0171097Y0333077D01*
X0171097Y0333115D02*
X0171790Y0333115D01*
X0171790Y0333153D02*
X0171097Y0333153D01*
X0171097Y0333191D02*
X0171790Y0333191D01*
X0171790Y0333229D02*
X0171097Y0333229D01*
X0171097Y0333267D02*
X0171790Y0333267D01*
X0171790Y0333305D02*
X0171097Y0333305D01*
X0171097Y0333343D02*
X0171790Y0333343D01*
X0171790Y0333380D02*
X0171097Y0333380D01*
X0171097Y0333418D02*
X0171790Y0333418D01*
X0171790Y0333456D02*
X0171097Y0333456D01*
X0171097Y0333494D02*
X0171790Y0333494D01*
X0171790Y0333532D02*
X0171097Y0333532D01*
X0171097Y0333570D02*
X0171790Y0333570D01*
X0171790Y0333608D02*
X0171097Y0333608D01*
X0171097Y0333646D02*
X0171790Y0333646D01*
X0171790Y0333683D02*
X0171097Y0333683D01*
X0171097Y0333721D02*
X0171790Y0333721D01*
X0171790Y0333759D02*
X0171097Y0333759D01*
X0171097Y0333797D02*
X0171790Y0333797D01*
X0171790Y0333835D02*
X0171097Y0333835D01*
X0171097Y0333873D02*
X0171790Y0333873D01*
X0171790Y0333911D02*
X0171097Y0333911D01*
X0171097Y0333949D02*
X0171790Y0333949D01*
X0171790Y0333987D02*
X0171097Y0333987D01*
X0171097Y0334024D02*
X0171790Y0334024D01*
X0171790Y0334062D02*
X0171097Y0334062D01*
X0171097Y0334100D02*
X0171790Y0334100D01*
X0171790Y0334138D02*
X0171097Y0334138D01*
X0171097Y0334176D02*
X0171790Y0334176D01*
X0171790Y0334214D02*
X0171097Y0334214D01*
X0171097Y0334252D02*
X0171790Y0334252D01*
X0171790Y0334290D02*
X0171097Y0334290D01*
X0171097Y0334327D02*
X0171790Y0334327D01*
X0171790Y0334365D02*
X0171097Y0334365D01*
X0171097Y0334403D02*
X0171790Y0334403D01*
X0171790Y0334441D02*
X0171097Y0334441D01*
X0171097Y0334479D02*
X0171790Y0334479D01*
X0171790Y0334517D02*
X0171097Y0334517D01*
X0171097Y0334555D02*
X0171790Y0334555D01*
X0171790Y0334593D02*
X0171097Y0334593D01*
X0171097Y0334630D02*
X0171790Y0334630D01*
X0171790Y0334668D02*
X0171097Y0334668D01*
X0171097Y0334706D02*
X0171790Y0334706D01*
X0171790Y0334744D02*
X0171097Y0334744D01*
X0171097Y0334782D02*
X0171790Y0334782D01*
X0171790Y0334820D02*
X0171097Y0334820D01*
X0171097Y0334858D02*
X0171790Y0334858D01*
X0171790Y0334896D02*
X0171097Y0334896D01*
X0171097Y0334934D02*
X0171790Y0334934D01*
X0171790Y0334971D02*
X0171097Y0334971D01*
X0171097Y0335009D02*
X0171790Y0335009D01*
X0171790Y0335047D02*
X0171097Y0335047D01*
X0171097Y0335085D02*
X0171790Y0335085D01*
X0171790Y0335123D02*
X0171097Y0335123D01*
X0171097Y0335161D02*
X0171790Y0335161D01*
X0171790Y0335199D02*
X0171097Y0335199D01*
X0171097Y0335237D02*
X0171790Y0335237D01*
X0171790Y0335274D02*
X0171097Y0335274D01*
X0171097Y0335312D02*
X0171790Y0335312D01*
X0171790Y0335350D02*
X0171097Y0335350D01*
X0171097Y0335388D02*
X0171790Y0335388D01*
X0171790Y0335426D02*
X0171097Y0335426D01*
X0171097Y0335464D02*
X0171790Y0335464D01*
X0171790Y0335502D02*
X0171097Y0335502D01*
X0171097Y0335540D02*
X0171790Y0335540D01*
X0171790Y0335578D02*
X0171097Y0335578D01*
X0171097Y0335615D02*
X0171790Y0335615D01*
X0171790Y0335653D02*
X0171097Y0335653D01*
X0171097Y0335691D02*
X0171790Y0335691D01*
X0171790Y0335729D02*
X0171097Y0335729D01*
X0171097Y0335767D02*
X0171790Y0335767D01*
X0171790Y0335805D02*
X0171097Y0335805D01*
X0171097Y0335843D02*
X0171790Y0335843D01*
X0171790Y0335881D02*
X0171097Y0335881D01*
X0171097Y0335918D02*
X0171790Y0335918D01*
X0171790Y0335956D02*
X0171097Y0335956D01*
X0171097Y0335994D02*
X0171790Y0335994D01*
X0171790Y0336032D02*
X0171097Y0336032D01*
X0171097Y0336070D02*
X0171790Y0336070D01*
X0171790Y0336108D02*
X0171097Y0336108D01*
X0171097Y0336146D02*
X0171790Y0336146D01*
X0171790Y0336184D02*
X0171097Y0336184D01*
X0171097Y0336222D02*
X0171790Y0336222D01*
X0171790Y0336259D02*
X0171097Y0336259D01*
X0171097Y0336297D02*
X0171790Y0336297D01*
X0171790Y0336335D02*
X0171097Y0336335D01*
X0171097Y0336373D02*
X0171790Y0336373D01*
X0171790Y0336411D02*
X0171097Y0336411D01*
X0171097Y0336449D02*
X0171790Y0336449D01*
X0171790Y0336487D02*
X0171097Y0336487D01*
X0171097Y0336525D02*
X0171790Y0336525D01*
X0171790Y0336562D02*
X0171097Y0336562D01*
X0171097Y0336600D02*
X0171790Y0336600D01*
X0171790Y0336638D02*
X0171097Y0336638D01*
X0171097Y0336676D02*
X0171790Y0336676D01*
X0171790Y0336714D02*
X0171097Y0336714D01*
X0171097Y0336752D02*
X0171790Y0336752D01*
X0171790Y0336790D02*
X0171097Y0336790D01*
X0171097Y0336828D02*
X0171790Y0336828D01*
X0171790Y0336865D02*
X0171097Y0336865D01*
X0171097Y0336903D02*
X0171790Y0336903D01*
X0171790Y0336941D02*
X0171097Y0336941D01*
X0171097Y0336979D02*
X0171790Y0336979D01*
X0171790Y0337017D02*
X0171097Y0337017D01*
X0171097Y0337055D02*
X0171790Y0337055D01*
X0171790Y0337093D02*
X0171097Y0337093D01*
X0171097Y0337131D02*
X0171790Y0337131D01*
X0171790Y0337169D02*
X0171097Y0337169D01*
X0171097Y0337206D02*
X0171790Y0337206D01*
X0171790Y0337244D02*
X0171097Y0337244D01*
X0171097Y0337282D02*
X0171790Y0337282D01*
X0171790Y0337320D02*
X0171097Y0337320D01*
X0171097Y0337358D02*
X0171790Y0337358D01*
X0171790Y0337396D02*
X0171097Y0337396D01*
X0171097Y0337434D02*
X0171790Y0337434D01*
X0171097Y0337472D02*
X0175197Y0337472D01*
X0178570Y0337472D01*
X0178570Y0337509D02*
X0175197Y0337509D01*
X0171097Y0337509D01*
X0171097Y0337547D02*
X0175197Y0337547D01*
X0178570Y0337547D01*
X0178570Y0337585D02*
X0175197Y0337585D01*
X0171097Y0337585D01*
X0171097Y0337623D02*
X0175197Y0337623D01*
X0178570Y0337623D01*
X0178570Y0337661D02*
X0175197Y0337661D01*
X0171097Y0337661D01*
X0171097Y0337699D02*
X0175197Y0337699D01*
X0178570Y0337699D01*
X0178570Y0337737D02*
X0175197Y0337737D01*
X0171097Y0337737D01*
X0171097Y0337775D02*
X0175197Y0337775D01*
X0178570Y0337775D01*
X0178570Y0337813D02*
X0175197Y0337813D01*
X0171097Y0337813D01*
X0171097Y0337850D02*
X0175197Y0337850D01*
X0178570Y0337850D01*
X0178570Y0337888D02*
X0175197Y0337888D01*
X0171097Y0337888D01*
X0171097Y0337926D02*
X0175197Y0337926D01*
X0178570Y0337926D01*
X0178570Y0337964D02*
X0175197Y0337964D01*
X0171097Y0337964D01*
X0171097Y0338002D02*
X0175197Y0338002D01*
X0178570Y0338002D01*
X0178570Y0338040D02*
X0175197Y0338040D01*
X0171097Y0338040D01*
X0171097Y0338078D02*
X0175197Y0338078D01*
X0178570Y0338078D01*
X0178570Y0338116D02*
X0175197Y0338116D01*
X0171097Y0338116D01*
X0171097Y0338153D02*
X0175197Y0338153D01*
X0178570Y0338153D01*
X0178570Y0338191D02*
X0175197Y0338191D01*
X0171097Y0338191D01*
X0171097Y0338229D02*
X0175197Y0338229D01*
X0178570Y0338229D01*
X0178570Y0338267D02*
X0175197Y0338267D01*
X0171097Y0338267D01*
X0171097Y0338305D02*
X0175197Y0338305D01*
X0178570Y0338305D01*
X0178570Y0338343D02*
X0175197Y0338343D01*
X0171097Y0338343D01*
X0171097Y0338381D02*
X0175197Y0338381D01*
X0178570Y0338381D01*
X0178570Y0338419D02*
X0175197Y0338419D01*
X0171097Y0338419D01*
X0171097Y0338457D02*
X0175197Y0338457D01*
X0178570Y0338457D01*
X0178570Y0338494D02*
X0175197Y0338494D01*
X0171097Y0338494D01*
X0171097Y0338532D02*
X0175197Y0338532D01*
X0178570Y0338532D01*
X0178570Y0338570D02*
X0175197Y0338570D01*
X0171097Y0338570D01*
X0171097Y0338608D02*
X0175197Y0338608D01*
X0178570Y0338608D01*
X0178570Y0338646D02*
X0175197Y0338646D01*
X0171097Y0338646D01*
X0171097Y0338684D02*
X0175197Y0338684D01*
X0178570Y0338684D01*
X0178570Y0338722D02*
X0175197Y0338722D01*
X0171097Y0338722D01*
X0173125Y0338873D02*
X0175197Y0338873D01*
X0176467Y0338873D01*
X0176411Y0338911D02*
X0175197Y0338911D01*
X0173181Y0338911D01*
X0173237Y0338949D02*
X0175197Y0338949D01*
X0176356Y0338949D01*
X0176301Y0338987D02*
X0175197Y0338987D01*
X0173292Y0338987D01*
X0173348Y0339025D02*
X0175197Y0339025D01*
X0176246Y0339025D01*
X0176191Y0339063D02*
X0175197Y0339063D01*
X0173404Y0339063D01*
X0173459Y0339100D02*
X0175197Y0339100D01*
X0176135Y0339100D01*
X0176080Y0339138D02*
X0175197Y0339138D01*
X0173515Y0339138D01*
X0173571Y0339176D02*
X0175197Y0339176D01*
X0176025Y0339176D01*
X0175970Y0339214D02*
X0175197Y0339214D01*
X0173627Y0339214D01*
X0173682Y0339252D02*
X0175197Y0339252D01*
X0175915Y0339252D01*
X0175859Y0339290D02*
X0175197Y0339290D01*
X0173738Y0339290D01*
X0173794Y0339328D02*
X0175197Y0339328D01*
X0175804Y0339328D01*
X0175749Y0339366D02*
X0175197Y0339366D01*
X0173849Y0339366D01*
X0173905Y0339404D02*
X0175197Y0339404D01*
X0175694Y0339404D01*
X0175639Y0339441D02*
X0175197Y0339441D01*
X0173961Y0339441D01*
X0174017Y0339479D02*
X0175197Y0339479D01*
X0175583Y0339479D01*
X0175528Y0339517D02*
X0175197Y0339517D01*
X0174072Y0339517D01*
X0174128Y0339555D02*
X0175197Y0339555D01*
X0175473Y0339555D01*
X0175418Y0339593D02*
X0175197Y0339593D01*
X0174184Y0339593D01*
X0174240Y0339631D02*
X0175197Y0339631D01*
X0175363Y0339631D01*
X0175307Y0339669D02*
X0175197Y0339669D01*
X0174295Y0339669D01*
X0174351Y0339707D02*
X0175197Y0339707D01*
X0175252Y0339707D01*
X0175197Y0339744D02*
X0174407Y0339744D01*
X0174462Y0339782D02*
X0175142Y0339782D01*
X0175087Y0339820D02*
X0174518Y0339820D01*
X0174574Y0339858D02*
X0175031Y0339858D01*
X0174976Y0339896D02*
X0174630Y0339896D01*
X0174685Y0339934D02*
X0174921Y0339934D01*
X0174866Y0339972D02*
X0174741Y0339972D01*
X0174797Y0340010D02*
X0174810Y0340010D01*
X0174844Y0340995D02*
X0174741Y0340995D01*
X0174686Y0341032D02*
X0174900Y0341032D01*
X0174955Y0341070D02*
X0174630Y0341070D01*
X0174575Y0341108D02*
X0175011Y0341108D01*
X0175067Y0341146D02*
X0174520Y0341146D01*
X0174464Y0341184D02*
X0175122Y0341184D01*
X0175178Y0341222D02*
X0174409Y0341222D01*
X0174354Y0341260D02*
X0175197Y0341260D01*
X0175233Y0341260D01*
X0175197Y0341298D02*
X0175289Y0341298D01*
X0175344Y0341335D02*
X0175197Y0341335D01*
X0174243Y0341335D01*
X0174298Y0341298D02*
X0175197Y0341298D01*
X0175197Y0341373D02*
X0175400Y0341373D01*
X0175455Y0341411D02*
X0175197Y0341411D01*
X0174132Y0341411D01*
X0174187Y0341373D02*
X0175197Y0341373D01*
X0175197Y0341449D02*
X0175511Y0341449D01*
X0175566Y0341487D02*
X0175197Y0341487D01*
X0174021Y0341487D01*
X0173966Y0341525D02*
X0175197Y0341525D01*
X0175622Y0341525D01*
X0175677Y0341563D02*
X0175197Y0341563D01*
X0173910Y0341563D01*
X0173855Y0341601D02*
X0175197Y0341601D01*
X0175733Y0341601D01*
X0175788Y0341639D02*
X0175197Y0341639D01*
X0173800Y0341639D01*
X0173744Y0341676D02*
X0175197Y0341676D01*
X0175844Y0341676D01*
X0175899Y0341714D02*
X0175197Y0341714D01*
X0173689Y0341714D01*
X0173634Y0341752D02*
X0175197Y0341752D01*
X0175955Y0341752D01*
X0176011Y0341790D02*
X0175197Y0341790D01*
X0173578Y0341790D01*
X0173523Y0341828D02*
X0175197Y0341828D01*
X0176066Y0341828D01*
X0176122Y0341866D02*
X0175197Y0341866D01*
X0173467Y0341866D01*
X0173412Y0341904D02*
X0175197Y0341904D01*
X0176177Y0341904D01*
X0176233Y0341942D02*
X0175197Y0341942D01*
X0173357Y0341942D01*
X0173301Y0341979D02*
X0175197Y0341979D01*
X0176288Y0341979D01*
X0176344Y0342017D02*
X0175197Y0342017D01*
X0173246Y0342017D01*
X0173190Y0342055D02*
X0175197Y0342055D01*
X0176399Y0342055D01*
X0176455Y0342093D02*
X0175197Y0342093D01*
X0173135Y0342093D01*
X0174077Y0341449D02*
X0175197Y0341449D01*
X0177876Y0337434D02*
X0178570Y0337434D01*
X0178570Y0337396D02*
X0177876Y0337396D01*
X0177876Y0337358D02*
X0178570Y0337358D01*
X0178570Y0337320D02*
X0177876Y0337320D01*
X0177876Y0337282D02*
X0178570Y0337282D01*
X0178570Y0337244D02*
X0177876Y0337244D01*
X0177876Y0337206D02*
X0178570Y0337206D01*
X0178570Y0337169D02*
X0177876Y0337169D01*
X0177876Y0337131D02*
X0178570Y0337131D01*
X0178570Y0337093D02*
X0177876Y0337093D01*
X0177876Y0337055D02*
X0178570Y0337055D01*
X0178570Y0337017D02*
X0177876Y0337017D01*
X0177876Y0336979D02*
X0178570Y0336979D01*
X0178570Y0336941D02*
X0177876Y0336941D01*
X0177876Y0336903D02*
X0178570Y0336903D01*
X0178570Y0336865D02*
X0177876Y0336865D01*
X0177876Y0336828D02*
X0178570Y0336828D01*
X0178570Y0336790D02*
X0177876Y0336790D01*
X0177876Y0336752D02*
X0178570Y0336752D01*
X0178570Y0336714D02*
X0177876Y0336714D01*
X0177876Y0336676D02*
X0178570Y0336676D01*
X0178570Y0336638D02*
X0177876Y0336638D01*
X0177876Y0336600D02*
X0178570Y0336600D01*
X0178570Y0336562D02*
X0177876Y0336562D01*
X0177876Y0336525D02*
X0178570Y0336525D01*
X0178570Y0336487D02*
X0177876Y0336487D01*
X0177876Y0336449D02*
X0178570Y0336449D01*
X0178570Y0336411D02*
X0177876Y0336411D01*
X0177876Y0336373D02*
X0178570Y0336373D01*
X0178570Y0336335D02*
X0177876Y0336335D01*
X0177876Y0336297D02*
X0178570Y0336297D01*
X0178570Y0336259D02*
X0177876Y0336259D01*
X0177876Y0336222D02*
X0178570Y0336222D01*
X0178570Y0336184D02*
X0177876Y0336184D01*
X0177876Y0336146D02*
X0178570Y0336146D01*
X0178570Y0336108D02*
X0177876Y0336108D01*
X0177876Y0336070D02*
X0178570Y0336070D01*
X0178570Y0336032D02*
X0177876Y0336032D01*
X0177876Y0335994D02*
X0178570Y0335994D01*
X0178570Y0335956D02*
X0177876Y0335956D01*
X0177876Y0335918D02*
X0178570Y0335918D01*
X0178570Y0335881D02*
X0177876Y0335881D01*
X0177876Y0335843D02*
X0178570Y0335843D01*
X0178570Y0335805D02*
X0177876Y0335805D01*
X0177876Y0335767D02*
X0178570Y0335767D01*
X0178570Y0335729D02*
X0177876Y0335729D01*
X0177876Y0335691D02*
X0178570Y0335691D01*
X0178570Y0335653D02*
X0177876Y0335653D01*
X0177876Y0335615D02*
X0178570Y0335615D01*
X0178570Y0335578D02*
X0177876Y0335578D01*
X0177876Y0335540D02*
X0178570Y0335540D01*
X0178570Y0335502D02*
X0177876Y0335502D01*
X0177876Y0335464D02*
X0178570Y0335464D01*
X0178570Y0335426D02*
X0177876Y0335426D01*
X0177876Y0335388D02*
X0178570Y0335388D01*
X0178570Y0335350D02*
X0177876Y0335350D01*
X0177876Y0335312D02*
X0178570Y0335312D01*
X0178570Y0335274D02*
X0177876Y0335274D01*
X0177876Y0335237D02*
X0178570Y0335237D01*
X0178570Y0335199D02*
X0177876Y0335199D01*
X0177876Y0335161D02*
X0178570Y0335161D01*
X0178570Y0335123D02*
X0177876Y0335123D01*
X0177876Y0335085D02*
X0178570Y0335085D01*
X0178570Y0335047D02*
X0177876Y0335047D01*
X0177876Y0335009D02*
X0178570Y0335009D01*
X0178570Y0334971D02*
X0177876Y0334971D01*
X0177876Y0334934D02*
X0178570Y0334934D01*
X0178570Y0334896D02*
X0177876Y0334896D01*
X0177876Y0334858D02*
X0178570Y0334858D01*
X0178570Y0334820D02*
X0177876Y0334820D01*
X0177876Y0334782D02*
X0178570Y0334782D01*
X0178570Y0334744D02*
X0177876Y0334744D01*
X0177876Y0334706D02*
X0178570Y0334706D01*
X0178570Y0334668D02*
X0177876Y0334668D01*
X0177876Y0334630D02*
X0178570Y0334630D01*
X0178570Y0334593D02*
X0177876Y0334593D01*
X0177876Y0334555D02*
X0178570Y0334555D01*
X0178570Y0334517D02*
X0177876Y0334517D01*
X0177876Y0334479D02*
X0178570Y0334479D01*
X0178570Y0334441D02*
X0177876Y0334441D01*
X0177876Y0334403D02*
X0178570Y0334403D01*
X0178570Y0334365D02*
X0177876Y0334365D01*
X0177876Y0334327D02*
X0178570Y0334327D01*
X0178570Y0334290D02*
X0177876Y0334290D01*
X0177876Y0334252D02*
X0178570Y0334252D01*
X0178570Y0334214D02*
X0177876Y0334214D01*
X0177876Y0334176D02*
X0178570Y0334176D01*
X0178570Y0334138D02*
X0177876Y0334138D01*
X0177876Y0334100D02*
X0178570Y0334100D01*
X0178570Y0334062D02*
X0177876Y0334062D01*
X0177876Y0334024D02*
X0178570Y0334024D01*
X0178570Y0333987D02*
X0177876Y0333987D01*
X0177876Y0333949D02*
X0178570Y0333949D01*
X0178570Y0333911D02*
X0177876Y0333911D01*
X0177876Y0333873D02*
X0178570Y0333873D01*
X0178570Y0333835D02*
X0177876Y0333835D01*
X0177876Y0333797D02*
X0178570Y0333797D01*
X0178570Y0333759D02*
X0177876Y0333759D01*
X0177876Y0333721D02*
X0178570Y0333721D01*
X0178570Y0333683D02*
X0177876Y0333683D01*
X0177876Y0333646D02*
X0178570Y0333646D01*
X0178570Y0333608D02*
X0177876Y0333608D01*
X0177876Y0333570D02*
X0178570Y0333570D01*
X0178570Y0333532D02*
X0177876Y0333532D01*
X0177876Y0333494D02*
X0178570Y0333494D01*
X0178570Y0333456D02*
X0177876Y0333456D01*
X0177876Y0333418D02*
X0178570Y0333418D01*
X0178570Y0333380D02*
X0177876Y0333380D01*
X0177876Y0333343D02*
X0178570Y0333343D01*
X0178570Y0333305D02*
X0177876Y0333305D01*
X0177876Y0333267D02*
X0178570Y0333267D01*
X0178570Y0333229D02*
X0177876Y0333229D01*
X0177876Y0333191D02*
X0178570Y0333191D01*
X0178570Y0333153D02*
X0177876Y0333153D01*
X0177876Y0333115D02*
X0178570Y0333115D01*
X0178570Y0333077D02*
X0177876Y0333077D01*
X0177876Y0333039D02*
X0178570Y0333039D01*
X0178570Y0333002D02*
X0177876Y0333002D01*
X0177876Y0332964D02*
X0178570Y0332964D01*
X0178570Y0332926D02*
X0177876Y0332926D01*
X0177876Y0332888D02*
X0178570Y0332888D01*
X0178570Y0332850D02*
X0177876Y0332850D01*
X0177876Y0332812D02*
X0178570Y0332812D01*
X0178570Y0332774D02*
X0177876Y0332774D01*
X0177876Y0332736D02*
X0178570Y0332736D01*
X0178570Y0332699D02*
X0177876Y0332699D01*
X0177876Y0332661D02*
X0178570Y0332661D01*
X0178570Y0332623D02*
X0177876Y0332623D01*
X0177876Y0332585D02*
X0178570Y0332585D01*
X0178570Y0332547D02*
X0177876Y0332547D01*
X0177876Y0332509D02*
X0178570Y0332509D01*
X0178570Y0332471D02*
X0177876Y0332471D01*
X0177876Y0332433D02*
X0178570Y0332433D01*
X0178570Y0332395D02*
X0177876Y0332395D01*
X0177876Y0332358D02*
X0178570Y0332358D01*
X0178570Y0332320D02*
X0177876Y0332320D01*
X0177876Y0332282D02*
X0178570Y0332282D01*
X0178570Y0332244D02*
X0177876Y0332244D01*
X0177876Y0332206D02*
X0178570Y0332206D01*
X0178570Y0332168D02*
X0177876Y0332168D01*
X0177876Y0332130D02*
X0178570Y0332130D01*
X0178570Y0332092D02*
X0177876Y0332092D01*
X0177876Y0332055D02*
X0178570Y0332055D01*
X0178570Y0332017D02*
X0177876Y0332017D01*
X0177876Y0331979D02*
X0178570Y0331979D01*
X0178570Y0331941D02*
X0177876Y0331941D01*
X0177876Y0331903D02*
X0178570Y0331903D01*
X0178570Y0331865D02*
X0177876Y0331865D01*
X0177876Y0331827D02*
X0178570Y0331827D01*
X0178570Y0331789D02*
X0177876Y0331789D01*
X0177876Y0331752D02*
X0178570Y0331752D01*
X0178570Y0331714D02*
X0177876Y0331714D01*
X0177876Y0331676D02*
X0178570Y0331676D01*
X0178570Y0331638D02*
X0177876Y0331638D01*
X0177876Y0331600D02*
X0178570Y0331600D01*
X0178570Y0331562D02*
X0177876Y0331562D01*
X0177876Y0331524D02*
X0178570Y0331524D01*
X0178570Y0331486D02*
X0177876Y0331486D01*
X0177876Y0331448D02*
X0178570Y0331448D01*
X0178570Y0331411D02*
X0177876Y0331411D01*
X0177876Y0331373D02*
X0178570Y0331373D01*
X0178570Y0331335D02*
X0177876Y0331335D01*
X0177876Y0331297D02*
X0178570Y0331297D01*
X0178570Y0331259D02*
X0177876Y0331259D01*
X0177876Y0331221D02*
X0178570Y0331221D01*
X0178570Y0331183D02*
X0177876Y0331183D01*
X0177876Y0331145D02*
X0178570Y0331145D01*
X0178570Y0331108D02*
X0177876Y0331108D01*
X0177876Y0331070D02*
X0178570Y0331070D01*
X0178570Y0331032D02*
X0177876Y0331032D01*
X0177876Y0330994D02*
X0178570Y0330994D01*
X0178570Y0330956D02*
X0177876Y0330956D01*
X0177876Y0330918D02*
X0178570Y0330918D01*
X0178570Y0330880D02*
X0177876Y0330880D01*
X0177876Y0330842D02*
X0178570Y0330842D01*
X0178570Y0330804D02*
X0177876Y0330804D01*
X0177876Y0330767D02*
X0178570Y0330767D01*
X0178570Y0330729D02*
X0177876Y0330729D01*
X0177876Y0330691D02*
X0178570Y0330691D01*
X0178570Y0330653D02*
X0177876Y0330653D01*
X0177876Y0330615D02*
X0178570Y0330615D01*
X0178570Y0330577D02*
X0177876Y0330577D01*
X0177876Y0330539D02*
X0178570Y0330539D01*
X0178570Y0330501D02*
X0177876Y0330501D01*
X0177876Y0330464D02*
X0178570Y0330464D01*
X0178570Y0330426D02*
X0177876Y0330426D01*
X0177876Y0330388D02*
X0178570Y0330388D01*
X0178570Y0330350D02*
X0177876Y0330350D01*
X0177876Y0330312D02*
X0178570Y0330312D01*
X0178570Y0330274D02*
X0177876Y0330274D01*
X0177876Y0330236D02*
X0178570Y0330236D01*
X0178570Y0330198D02*
X0177876Y0330198D01*
X0177876Y0330160D02*
X0178570Y0330160D01*
X0178570Y0330123D02*
X0177876Y0330123D01*
X0177876Y0330085D02*
X0178570Y0330085D01*
X0178570Y0330047D02*
X0177876Y0330047D01*
X0177876Y0330009D02*
X0178570Y0330009D01*
X0178570Y0329971D02*
X0177876Y0329971D01*
X0177876Y0329933D02*
X0178570Y0329933D01*
X0178570Y0329895D02*
X0177876Y0329895D01*
X0177876Y0329857D02*
X0178570Y0329857D01*
X0178570Y0329820D02*
X0177876Y0329820D01*
X0177876Y0329782D02*
X0178570Y0329782D01*
X0178570Y0329744D02*
X0177876Y0329744D01*
X0177876Y0329706D02*
X0178570Y0329706D01*
X0178570Y0329668D02*
X0177876Y0329668D01*
X0177876Y0329630D02*
X0178570Y0329630D01*
X0178570Y0329592D02*
X0177876Y0329592D01*
X0177876Y0329554D02*
X0178570Y0329554D01*
X0178570Y0329516D02*
X0177876Y0329516D01*
X0177876Y0329479D02*
X0178570Y0329479D01*
X0178570Y0329441D02*
X0177876Y0329441D01*
X0177876Y0329403D02*
X0178570Y0329403D01*
X0178570Y0329365D02*
X0177876Y0329365D01*
X0177876Y0329327D02*
X0178570Y0329327D01*
X0178570Y0329289D02*
X0177876Y0329289D01*
X0177876Y0329251D02*
X0178570Y0329251D01*
X0178570Y0329213D02*
X0177876Y0329213D01*
X0177876Y0329176D02*
X0178570Y0329176D01*
X0178570Y0329138D02*
X0177876Y0329138D01*
X0177876Y0329100D02*
X0178570Y0329100D01*
X0178570Y0329062D02*
X0177876Y0329062D01*
X0177876Y0329024D02*
X0178570Y0329024D01*
X0178570Y0328986D02*
X0177876Y0328986D01*
X0177876Y0328948D02*
X0178570Y0328948D01*
X0178570Y0328910D02*
X0177876Y0328910D01*
X0177876Y0328873D02*
X0178570Y0328873D01*
X0178570Y0328835D02*
X0177876Y0328835D01*
X0177876Y0328797D02*
X0178570Y0328797D01*
X0178570Y0328759D02*
X0177876Y0328759D01*
X0177876Y0328721D02*
X0178570Y0328721D01*
X0178570Y0328683D02*
X0177876Y0328683D01*
X0177876Y0328645D02*
X0178570Y0328645D01*
X0178570Y0328607D02*
X0177876Y0328607D01*
X0177876Y0328569D02*
X0178570Y0328569D01*
X0178570Y0328532D02*
X0177876Y0328532D01*
X0177876Y0328494D02*
X0178570Y0328494D01*
X0178570Y0328456D02*
X0177876Y0328456D01*
X0177876Y0328418D02*
X0178570Y0328418D01*
X0178570Y0328380D02*
X0177876Y0328380D01*
X0177876Y0328342D02*
X0178570Y0328342D01*
X0178570Y0328304D02*
X0177876Y0328304D01*
X0177876Y0328266D02*
X0178570Y0328266D01*
X0178570Y0328229D02*
X0177876Y0328229D01*
X0177876Y0328191D02*
X0178570Y0328191D01*
X0178570Y0328153D02*
X0177876Y0328153D01*
X0177876Y0328115D02*
X0178570Y0328115D01*
X0178570Y0328077D02*
X0177876Y0328077D01*
X0177876Y0328039D02*
X0178570Y0328039D01*
X0178570Y0328001D02*
X0177876Y0328001D01*
X0177876Y0327963D02*
X0178570Y0327963D01*
X0178570Y0327925D02*
X0177876Y0327925D01*
X0177876Y0327888D02*
X0178570Y0327888D01*
X0178570Y0327850D02*
X0177876Y0327850D01*
X0177876Y0327812D02*
X0178570Y0327812D01*
X0178570Y0327774D02*
X0177876Y0327774D01*
X0177876Y0327736D02*
X0178570Y0327736D01*
X0178570Y0327698D02*
X0177876Y0327698D01*
X0177876Y0327660D02*
X0178570Y0327660D01*
X0178570Y0327622D02*
X0177876Y0327622D01*
X0177876Y0327585D02*
X0178570Y0327585D01*
X0178570Y0327547D02*
X0177876Y0327547D01*
X0177876Y0327509D02*
X0178570Y0327509D01*
X0178570Y0327471D02*
X0177876Y0327471D01*
X0177876Y0327433D02*
X0178570Y0327433D01*
X0178570Y0327395D02*
X0177876Y0327395D01*
X0177876Y0327357D02*
X0178570Y0327357D01*
X0178570Y0327319D02*
X0177876Y0327319D01*
X0177876Y0327281D02*
X0178570Y0327281D01*
X0178570Y0327244D02*
X0177876Y0327244D01*
X0177876Y0327206D02*
X0178570Y0327206D01*
X0178570Y0327168D02*
X0177876Y0327168D01*
X0177876Y0327130D02*
X0178570Y0327130D01*
X0178570Y0327092D02*
X0177876Y0327092D01*
X0177876Y0327054D02*
X0178570Y0327054D01*
X0178570Y0327016D02*
X0177876Y0327016D01*
X0177876Y0326978D02*
X0178570Y0326978D01*
X0178570Y0326941D02*
X0177876Y0326941D01*
X0177876Y0326903D02*
X0178570Y0326903D01*
X0178570Y0326865D02*
X0177876Y0326865D01*
X0177876Y0326827D02*
X0178570Y0326827D01*
X0178570Y0326789D02*
X0177876Y0326789D01*
X0177876Y0326751D02*
X0178570Y0326751D01*
X0178570Y0326713D02*
X0177876Y0326713D01*
X0177876Y0326675D02*
X0178570Y0326675D01*
X0178570Y0326638D02*
X0177876Y0326638D01*
X0177876Y0326600D02*
X0178570Y0326600D01*
X0178570Y0326562D02*
X0177876Y0326562D01*
X0177876Y0326524D02*
X0178570Y0326524D01*
X0178570Y0326486D02*
X0177876Y0326486D01*
X0177876Y0326448D02*
X0178570Y0326448D01*
X0178570Y0326410D02*
X0177876Y0326410D01*
X0177876Y0326372D02*
X0178570Y0326372D01*
X0178570Y0326334D02*
X0177876Y0326334D01*
X0177876Y0326297D02*
X0178570Y0326297D01*
X0178570Y0326259D02*
X0177876Y0326259D01*
X0177876Y0326221D02*
X0178570Y0326221D01*
X0178570Y0326183D02*
X0177876Y0326183D01*
X0177876Y0326145D02*
X0178570Y0326145D01*
X0178570Y0326107D02*
X0177876Y0326107D01*
X0177876Y0326069D02*
X0178570Y0326069D01*
X0178570Y0326031D02*
X0177876Y0326031D01*
X0177876Y0325994D02*
X0178570Y0325994D01*
X0178570Y0325956D02*
X0177876Y0325956D01*
X0177876Y0325918D02*
X0178570Y0325918D01*
X0178570Y0325880D02*
X0177876Y0325880D01*
X0177876Y0325842D02*
X0178570Y0325842D01*
X0178570Y0325804D02*
X0177876Y0325804D01*
X0177876Y0325766D02*
X0178570Y0325766D01*
X0178570Y0325728D02*
X0177876Y0325728D01*
X0177876Y0325690D02*
X0178570Y0325690D01*
X0178570Y0325653D02*
X0177876Y0325653D01*
X0177876Y0325615D02*
X0178570Y0325615D01*
X0178570Y0325577D02*
X0177876Y0325577D01*
X0177876Y0325539D02*
X0178570Y0325539D01*
X0178570Y0325501D02*
X0177876Y0325501D01*
X0177876Y0325463D02*
X0178570Y0325463D01*
X0178570Y0325425D02*
X0177876Y0325425D01*
X0177876Y0325387D02*
X0178570Y0325387D01*
X0178570Y0325350D02*
X0177876Y0325350D01*
X0177876Y0325312D02*
X0178570Y0325312D01*
X0178570Y0325274D02*
X0177876Y0325274D01*
X0177876Y0325236D02*
X0178570Y0325236D01*
X0178570Y0325198D02*
X0177876Y0325198D01*
X0177876Y0325160D02*
X0178570Y0325160D01*
X0178570Y0325122D02*
X0177876Y0325122D01*
X0177876Y0325084D02*
X0178570Y0325084D01*
X0178570Y0325046D02*
X0177876Y0325046D01*
X0177876Y0325009D02*
X0178570Y0325009D01*
X0178570Y0324971D02*
X0177876Y0324971D01*
X0177876Y0324933D02*
X0178570Y0324933D01*
X0178570Y0324895D02*
X0177876Y0324895D01*
X0177876Y0324857D02*
X0178570Y0324857D01*
X0178570Y0324819D02*
X0177876Y0324819D01*
X0177876Y0324781D02*
X0178570Y0324781D01*
X0178570Y0324743D02*
X0177876Y0324743D01*
X0177876Y0324706D02*
X0178570Y0324706D01*
X0178570Y0324668D02*
X0177876Y0324668D01*
X0177876Y0324630D02*
X0178570Y0324630D01*
X0178570Y0324592D02*
X0177876Y0324592D01*
X0177876Y0324554D02*
X0178570Y0324554D01*
X0178570Y0324516D02*
X0177876Y0324516D01*
X0177876Y0324478D02*
X0178570Y0324478D01*
X0178570Y0324440D02*
X0177876Y0324440D01*
X0177876Y0324403D02*
X0178570Y0324403D01*
X0178570Y0324365D02*
X0177876Y0324365D01*
X0177876Y0324327D02*
X0178570Y0324327D01*
X0178570Y0324289D02*
X0177876Y0324289D01*
X0177876Y0324251D02*
X0178570Y0324251D01*
X0178570Y0324213D02*
X0177876Y0324213D01*
X0177876Y0324175D02*
X0178570Y0324175D01*
X0178570Y0324137D02*
X0177876Y0324137D01*
X0177876Y0324099D02*
X0178570Y0324099D01*
X0178570Y0324062D02*
X0177876Y0324062D01*
X0177876Y0324024D02*
X0178570Y0324024D01*
X0178570Y0323986D02*
X0177876Y0323986D01*
X0177876Y0323948D02*
X0178570Y0323948D01*
X0178570Y0323910D02*
X0177876Y0323910D01*
X0177876Y0323872D02*
X0178570Y0323872D01*
X0178570Y0323834D02*
X0177876Y0323834D01*
X0177876Y0323796D02*
X0178570Y0323796D01*
X0178570Y0323759D02*
X0177876Y0323759D01*
X0177876Y0323721D02*
X0178570Y0323721D01*
X0178570Y0323683D02*
X0177876Y0323683D01*
X0177876Y0323645D02*
X0178570Y0323645D01*
X0178570Y0323607D02*
X0177876Y0323607D01*
X0177876Y0323569D02*
X0178570Y0323569D01*
X0178570Y0323531D02*
X0177876Y0323531D01*
X0177876Y0323493D02*
X0178570Y0323493D01*
X0178570Y0323455D02*
X0177876Y0323455D01*
X0177876Y0323418D02*
X0178570Y0323418D01*
X0178570Y0323380D02*
X0177876Y0323380D01*
X0177876Y0323342D02*
X0178570Y0323342D01*
X0178570Y0323304D02*
X0177876Y0323304D01*
X0177876Y0323266D02*
X0178570Y0323266D01*
X0178570Y0323228D02*
X0177876Y0323228D01*
X0177876Y0323190D02*
X0178570Y0323190D01*
X0178570Y0323152D02*
X0177876Y0323152D01*
X0177876Y0323115D02*
X0178570Y0323115D01*
X0178570Y0323077D02*
X0177876Y0323077D01*
X0177876Y0323039D02*
X0178570Y0323039D01*
X0178570Y0323001D02*
X0177876Y0323001D01*
X0177876Y0322963D02*
X0178570Y0322963D01*
X0178570Y0322925D02*
X0177876Y0322925D01*
X0177876Y0322887D02*
X0178570Y0322887D01*
X0178570Y0322849D02*
X0177876Y0322849D01*
X0177876Y0322811D02*
X0178570Y0322811D01*
X0178570Y0322774D02*
X0177876Y0322774D01*
X0177876Y0322736D02*
X0178570Y0322736D01*
X0178570Y0322698D02*
X0177876Y0322698D01*
X0177876Y0322660D02*
X0178570Y0322660D01*
X0178570Y0322622D02*
X0177876Y0322622D01*
X0177876Y0322584D02*
X0178570Y0322584D01*
X0178570Y0322546D02*
X0177876Y0322546D01*
X0177876Y0322508D02*
X0178570Y0322508D01*
X0178570Y0322471D02*
X0177876Y0322471D01*
X0177876Y0322433D02*
X0178570Y0322433D01*
X0178570Y0322395D02*
X0177876Y0322395D01*
X0177876Y0322357D02*
X0178570Y0322357D01*
X0178570Y0322319D02*
X0177876Y0322319D01*
X0177876Y0322281D02*
X0178570Y0322281D01*
X0178570Y0322243D02*
X0177876Y0322243D01*
X0177876Y0322205D02*
X0178570Y0322205D01*
X0178570Y0322168D02*
X0177876Y0322168D01*
X0177876Y0322130D02*
X0178570Y0322130D01*
X0178570Y0322092D02*
X0177876Y0322092D01*
X0177876Y0322054D02*
X0178570Y0322054D01*
X0178570Y0322016D02*
X0177876Y0322016D01*
X0177876Y0321978D02*
X0178570Y0321978D01*
X0178570Y0321940D02*
X0177876Y0321940D01*
X0177876Y0321902D02*
X0178570Y0321902D01*
X0178570Y0321864D02*
X0177876Y0321864D01*
X0177876Y0321827D02*
X0178570Y0321827D01*
X0178570Y0321789D02*
X0177876Y0321789D01*
X0177876Y0321751D02*
X0178570Y0321751D01*
X0178570Y0321713D02*
X0177876Y0321713D01*
X0177876Y0321675D02*
X0178570Y0321675D01*
X0178570Y0321637D02*
X0177876Y0321637D01*
X0177876Y0321599D02*
X0178570Y0321599D01*
X0178570Y0321561D02*
X0177876Y0321561D01*
X0177876Y0321524D02*
X0178570Y0321524D01*
X0178570Y0321486D02*
X0177876Y0321486D01*
X0177876Y0321448D02*
X0178570Y0321448D01*
X0178570Y0321410D02*
X0177876Y0321410D01*
X0177876Y0321372D02*
X0178570Y0321372D01*
X0178570Y0321334D02*
X0177876Y0321334D01*
X0177876Y0321296D02*
X0178570Y0321296D01*
X0178570Y0321258D02*
X0177876Y0321258D01*
X0177876Y0321220D02*
X0178570Y0321220D01*
X0178570Y0321183D02*
X0177876Y0321183D01*
X0177876Y0321145D02*
X0178570Y0321145D01*
X0178570Y0321107D02*
X0177876Y0321107D01*
X0177876Y0321069D02*
X0178570Y0321069D01*
X0178570Y0321031D02*
X0177876Y0321031D01*
X0177876Y0320993D02*
X0178570Y0320993D01*
X0178570Y0320955D02*
X0177876Y0320955D01*
X0177876Y0320917D02*
X0178570Y0320917D01*
X0178570Y0320880D02*
X0177876Y0320880D01*
X0177876Y0320842D02*
X0178570Y0320842D01*
X0178570Y0320804D02*
X0177876Y0320804D01*
X0177876Y0320766D02*
X0178570Y0320766D01*
X0178570Y0320728D02*
X0177876Y0320728D01*
X0177876Y0320690D02*
X0178570Y0320690D01*
X0178570Y0320652D02*
X0177876Y0320652D01*
X0177876Y0320614D02*
X0178570Y0320614D01*
X0178570Y0320576D02*
X0177876Y0320576D01*
X0177876Y0320539D02*
X0178570Y0320539D01*
X0178570Y0320501D02*
X0177876Y0320501D01*
X0177876Y0320463D02*
X0178570Y0320463D01*
X0178570Y0320425D02*
X0177876Y0320425D01*
X0177876Y0320387D02*
X0178570Y0320387D01*
X0178570Y0320349D02*
X0177876Y0320349D01*
X0177876Y0320311D02*
X0178570Y0320311D01*
X0178570Y0320273D02*
X0177876Y0320273D01*
X0177876Y0320236D02*
X0178570Y0320236D01*
X0178570Y0320198D02*
X0177876Y0320198D01*
X0177876Y0320160D02*
X0178570Y0320160D01*
X0178570Y0320122D02*
X0177876Y0320122D01*
X0177876Y0320084D02*
X0178570Y0320084D01*
X0178570Y0320046D02*
X0177876Y0320046D01*
X0177876Y0320008D02*
X0178570Y0320008D01*
X0178570Y0319970D02*
X0177876Y0319970D01*
X0177876Y0319933D02*
X0178570Y0319933D01*
X0178570Y0319895D02*
X0177876Y0319895D01*
X0177876Y0319857D02*
X0178570Y0319857D01*
X0178570Y0319819D02*
X0177876Y0319819D01*
X0177876Y0319781D02*
X0178570Y0319781D01*
X0178570Y0319743D02*
X0177876Y0319743D01*
X0177876Y0319705D02*
X0178570Y0319705D01*
X0178570Y0319667D02*
X0177876Y0319667D01*
X0177876Y0319629D02*
X0178570Y0319629D01*
X0178570Y0319592D02*
X0177876Y0319592D01*
X0177876Y0319554D02*
X0178570Y0319554D01*
X0178570Y0319516D02*
X0177876Y0319516D01*
X0177876Y0319478D02*
X0178570Y0319478D01*
X0178570Y0319440D02*
X0177876Y0319440D01*
X0177876Y0319402D02*
X0178570Y0319402D01*
X0178570Y0319364D02*
X0177876Y0319364D01*
X0177876Y0319326D02*
X0178570Y0319326D01*
X0178570Y0319289D02*
X0177876Y0319289D01*
X0177876Y0319251D02*
X0178570Y0319251D01*
X0178570Y0319213D02*
X0177876Y0319213D01*
X0177876Y0319175D02*
X0178570Y0319175D01*
X0178570Y0319137D02*
X0177876Y0319137D01*
X0177876Y0319099D02*
X0178570Y0319099D01*
X0178570Y0319061D02*
X0177876Y0319061D01*
X0177876Y0319023D02*
X0178570Y0319023D01*
X0178570Y0318985D02*
X0177876Y0318985D01*
X0177876Y0318948D02*
X0178570Y0318948D01*
X0178570Y0318910D02*
X0177876Y0318910D01*
X0177876Y0318872D02*
X0178570Y0318872D01*
X0178570Y0318834D02*
X0177876Y0318834D01*
X0177876Y0318796D02*
X0178570Y0318796D01*
X0178570Y0318758D02*
X0177876Y0318758D01*
X0177876Y0318720D02*
X0178570Y0318720D01*
X0178570Y0318682D02*
X0177876Y0318682D01*
X0177876Y0318645D02*
X0178570Y0318645D01*
X0178570Y0318607D02*
X0177876Y0318607D01*
X0177876Y0318569D02*
X0178570Y0318569D01*
X0178570Y0318531D02*
X0177876Y0318531D01*
X0177876Y0318493D02*
X0178570Y0318493D01*
X0178570Y0318455D02*
X0177876Y0318455D01*
X0177876Y0318417D02*
X0178570Y0318417D01*
X0178570Y0318379D02*
X0177876Y0318379D01*
X0177876Y0318341D02*
X0178570Y0318341D01*
X0178570Y0318304D02*
X0177876Y0318304D01*
X0177876Y0318266D02*
X0178570Y0318266D01*
X0178570Y0318228D02*
X0177876Y0318228D01*
X0177876Y0318190D02*
X0178570Y0318190D01*
X0178570Y0318152D02*
X0177876Y0318152D01*
X0177876Y0318114D02*
X0178570Y0318114D01*
X0178570Y0318076D02*
X0177876Y0318076D01*
X0177876Y0318038D02*
X0178570Y0318038D01*
X0178570Y0318001D02*
X0177876Y0318001D01*
X0177876Y0317963D02*
X0178570Y0317963D01*
X0178570Y0317925D02*
X0177876Y0317925D01*
X0177876Y0317887D02*
X0178570Y0317887D01*
X0178570Y0317849D02*
X0177876Y0317849D01*
X0177876Y0317811D02*
X0178570Y0317811D01*
X0178570Y0317773D02*
X0177876Y0317773D01*
X0177876Y0317735D02*
X0178570Y0317735D01*
X0178570Y0317698D02*
X0177876Y0317698D01*
X0177876Y0317660D02*
X0178570Y0317660D01*
X0178570Y0317622D02*
X0177876Y0317622D01*
X0177876Y0317584D02*
X0178570Y0317584D01*
X0178570Y0317546D02*
X0177876Y0317546D01*
X0177876Y0317508D02*
X0178570Y0317508D01*
X0178570Y0317470D02*
X0177876Y0317470D01*
X0177876Y0317432D02*
X0178570Y0317432D01*
X0178570Y0317394D02*
X0177876Y0317394D01*
X0177876Y0317357D02*
X0178570Y0317357D01*
X0178570Y0317319D02*
X0177876Y0317319D01*
X0177876Y0317281D02*
X0178570Y0317281D01*
X0178570Y0317243D02*
X0177876Y0317243D01*
X0177876Y0317205D02*
X0178570Y0317205D01*
X0176381Y0318663D02*
X0176561Y0319043D01*
X0176668Y0319446D01*
X0176704Y0319856D01*
X0176686Y0320138D01*
X0176629Y0320393D01*
X0176537Y0320619D01*
X0176413Y0320812D01*
X0176254Y0320968D01*
X0176062Y0321085D01*
X0175837Y0321158D01*
X0175584Y0321182D01*
X0175562Y0321182D01*
X0175341Y0321163D01*
X0175155Y0321106D01*
X0174995Y0321012D01*
X0174858Y0320882D01*
X0174642Y0320520D01*
X0174480Y0320029D01*
X0174372Y0319643D01*
X0174274Y0319402D01*
X0175108Y0319402D01*
X0175096Y0319364D02*
X0174238Y0319364D01*
X0174202Y0319326D02*
X0175085Y0319326D01*
X0175073Y0319289D02*
X0174166Y0319289D01*
X0174158Y0319281D02*
X0174004Y0319249D01*
X0173994Y0319249D01*
X0173946Y0319260D01*
X0173946Y0318472D01*
X0174067Y0318460D01*
X0174077Y0318460D01*
X0174324Y0318482D01*
X0174528Y0318547D01*
X0174695Y0318649D01*
X0174831Y0318787D01*
X0175036Y0319165D01*
X0175187Y0319664D01*
X0175295Y0320034D01*
X0175398Y0320258D01*
X0175508Y0320366D01*
X0175646Y0320396D01*
X0175657Y0320396D01*
X0175801Y0320362D01*
X0175908Y0320258D01*
X0175976Y0320094D01*
X0176000Y0319872D01*
X0175970Y0319574D01*
X0175881Y0319300D01*
X0175741Y0319042D01*
X0175560Y0318790D01*
X0176124Y0318320D01*
X0176381Y0318663D01*
X0176390Y0318682D02*
X0175688Y0318682D01*
X0175643Y0318720D02*
X0176408Y0318720D01*
X0176426Y0318758D02*
X0175597Y0318758D01*
X0175564Y0318796D02*
X0176444Y0318796D01*
X0176462Y0318834D02*
X0175592Y0318834D01*
X0175619Y0318872D02*
X0176480Y0318872D01*
X0176498Y0318910D02*
X0175646Y0318910D01*
X0175674Y0318948D02*
X0176516Y0318948D01*
X0176534Y0318985D02*
X0175701Y0318985D01*
X0175728Y0319023D02*
X0176552Y0319023D01*
X0176566Y0319061D02*
X0175752Y0319061D01*
X0175772Y0319099D02*
X0176576Y0319099D01*
X0176586Y0319137D02*
X0175793Y0319137D01*
X0175813Y0319175D02*
X0176596Y0319175D01*
X0176606Y0319213D02*
X0175834Y0319213D01*
X0175854Y0319251D02*
X0176616Y0319251D01*
X0176627Y0319289D02*
X0175875Y0319289D01*
X0175890Y0319326D02*
X0176637Y0319326D01*
X0176647Y0319364D02*
X0175902Y0319364D01*
X0175914Y0319402D02*
X0176657Y0319402D01*
X0176667Y0319440D02*
X0175926Y0319440D01*
X0175939Y0319478D02*
X0176671Y0319478D01*
X0176675Y0319516D02*
X0175951Y0319516D01*
X0175963Y0319554D02*
X0176678Y0319554D01*
X0176681Y0319592D02*
X0175972Y0319592D01*
X0175975Y0319629D02*
X0176685Y0319629D01*
X0176688Y0319667D02*
X0175979Y0319667D01*
X0175983Y0319705D02*
X0176691Y0319705D01*
X0176695Y0319743D02*
X0175987Y0319743D01*
X0175991Y0319781D02*
X0176698Y0319781D01*
X0176701Y0319819D02*
X0175994Y0319819D01*
X0175998Y0319857D02*
X0176704Y0319857D01*
X0176702Y0319895D02*
X0175997Y0319895D01*
X0175993Y0319933D02*
X0176699Y0319933D01*
X0176697Y0319970D02*
X0175989Y0319970D01*
X0175985Y0320008D02*
X0176694Y0320008D01*
X0176692Y0320046D02*
X0175981Y0320046D01*
X0175977Y0320084D02*
X0176689Y0320084D01*
X0176687Y0320122D02*
X0175964Y0320122D01*
X0175949Y0320160D02*
X0176681Y0320160D01*
X0176672Y0320198D02*
X0175933Y0320198D01*
X0175917Y0320236D02*
X0176664Y0320236D01*
X0176656Y0320273D02*
X0175892Y0320273D01*
X0175853Y0320311D02*
X0176647Y0320311D01*
X0176639Y0320349D02*
X0175813Y0320349D01*
X0175694Y0320387D02*
X0176630Y0320387D01*
X0176616Y0320425D02*
X0174610Y0320425D01*
X0174598Y0320387D02*
X0175604Y0320387D01*
X0175491Y0320349D02*
X0174585Y0320349D01*
X0174573Y0320311D02*
X0175452Y0320311D01*
X0175413Y0320273D02*
X0174560Y0320273D01*
X0174548Y0320236D02*
X0175387Y0320236D01*
X0175370Y0320198D02*
X0174535Y0320198D01*
X0174523Y0320160D02*
X0175352Y0320160D01*
X0175335Y0320122D02*
X0174510Y0320122D01*
X0174498Y0320084D02*
X0175318Y0320084D01*
X0175300Y0320046D02*
X0174485Y0320046D01*
X0174474Y0320008D02*
X0175287Y0320008D01*
X0175276Y0319970D02*
X0174463Y0319970D01*
X0174453Y0319933D02*
X0175265Y0319933D01*
X0175254Y0319895D02*
X0174442Y0319895D01*
X0174431Y0319857D02*
X0175243Y0319857D01*
X0175232Y0319819D02*
X0174421Y0319819D01*
X0174410Y0319781D02*
X0175221Y0319781D01*
X0175210Y0319743D02*
X0174400Y0319743D01*
X0174389Y0319705D02*
X0175199Y0319705D01*
X0175188Y0319667D02*
X0174378Y0319667D01*
X0174366Y0319629D02*
X0175176Y0319629D01*
X0175165Y0319592D02*
X0174351Y0319592D01*
X0174336Y0319554D02*
X0175154Y0319554D01*
X0175142Y0319516D02*
X0174320Y0319516D01*
X0174305Y0319478D02*
X0175131Y0319478D01*
X0175119Y0319440D02*
X0174290Y0319440D01*
X0174274Y0319402D02*
X0174158Y0319281D01*
X0174014Y0319251D02*
X0175062Y0319251D01*
X0175050Y0319213D02*
X0173946Y0319213D01*
X0173054Y0319213D01*
X0173054Y0319211D02*
X0173149Y0318995D01*
X0173275Y0318811D01*
X0173434Y0318663D01*
X0173618Y0318552D01*
X0173829Y0318483D01*
X0173946Y0318472D01*
X0173946Y0319260D01*
X0173870Y0319277D01*
X0173770Y0319365D01*
X0173701Y0319510D01*
X0173678Y0319713D01*
X0173702Y0319945D01*
X0173772Y0320177D01*
X0173946Y0320492D01*
X0174034Y0320653D01*
X0173946Y0320713D01*
X0173946Y0320492D01*
X0173946Y0320713D01*
X0173435Y0321066D01*
X0173238Y0320772D01*
X0173095Y0320453D01*
X0173006Y0320103D01*
X0172976Y0319721D01*
X0172996Y0319454D01*
X0173054Y0319211D01*
X0173070Y0319175D02*
X0173946Y0319175D01*
X0175039Y0319175D01*
X0175021Y0319137D02*
X0173946Y0319137D01*
X0173086Y0319137D01*
X0173103Y0319099D02*
X0173946Y0319099D01*
X0175000Y0319099D01*
X0174980Y0319061D02*
X0173946Y0319061D01*
X0173119Y0319061D01*
X0173136Y0319023D02*
X0173946Y0319023D01*
X0174959Y0319023D01*
X0174938Y0318985D02*
X0173946Y0318985D01*
X0173155Y0318985D01*
X0173181Y0318948D02*
X0173946Y0318948D01*
X0174918Y0318948D01*
X0174897Y0318910D02*
X0173946Y0318910D01*
X0173207Y0318910D01*
X0173234Y0318872D02*
X0173946Y0318872D01*
X0174877Y0318872D01*
X0174856Y0318834D02*
X0173946Y0318834D01*
X0173260Y0318834D01*
X0173292Y0318796D02*
X0173946Y0318796D01*
X0174836Y0318796D01*
X0174802Y0318758D02*
X0173946Y0318758D01*
X0173332Y0318758D01*
X0173373Y0318720D02*
X0173946Y0318720D01*
X0174765Y0318720D01*
X0174727Y0318682D02*
X0173946Y0318682D01*
X0173413Y0318682D01*
X0173465Y0318645D02*
X0173946Y0318645D01*
X0174687Y0318645D01*
X0174625Y0318607D02*
X0173946Y0318607D01*
X0173528Y0318607D01*
X0173591Y0318569D02*
X0173946Y0318569D01*
X0174564Y0318569D01*
X0174478Y0318531D02*
X0173946Y0318531D01*
X0173683Y0318531D01*
X0173798Y0318493D02*
X0173946Y0318493D01*
X0174358Y0318493D01*
X0173985Y0319251D02*
X0173946Y0319251D01*
X0173044Y0319251D01*
X0173035Y0319289D02*
X0173857Y0319289D01*
X0173814Y0319326D02*
X0173026Y0319326D01*
X0173017Y0319364D02*
X0173770Y0319364D01*
X0173752Y0319402D02*
X0173008Y0319402D01*
X0172999Y0319440D02*
X0173734Y0319440D01*
X0173717Y0319478D02*
X0172994Y0319478D01*
X0172991Y0319516D02*
X0173701Y0319516D01*
X0173696Y0319554D02*
X0172988Y0319554D01*
X0172985Y0319592D02*
X0173692Y0319592D01*
X0173688Y0319629D02*
X0172983Y0319629D01*
X0172980Y0319667D02*
X0173683Y0319667D01*
X0173679Y0319705D02*
X0172977Y0319705D01*
X0172977Y0319743D02*
X0173681Y0319743D01*
X0173685Y0319781D02*
X0172980Y0319781D01*
X0172983Y0319819D02*
X0173689Y0319819D01*
X0173693Y0319857D02*
X0172986Y0319857D01*
X0172989Y0319895D02*
X0173697Y0319895D01*
X0173700Y0319933D02*
X0172992Y0319933D01*
X0172995Y0319970D02*
X0173709Y0319970D01*
X0173721Y0320008D02*
X0172998Y0320008D01*
X0173001Y0320046D02*
X0173732Y0320046D01*
X0173744Y0320084D02*
X0173004Y0320084D01*
X0173010Y0320122D02*
X0173755Y0320122D01*
X0173767Y0320160D02*
X0173020Y0320160D01*
X0173030Y0320198D02*
X0173783Y0320198D01*
X0173804Y0320236D02*
X0173039Y0320236D01*
X0173049Y0320273D02*
X0173825Y0320273D01*
X0173846Y0320311D02*
X0173059Y0320311D01*
X0173068Y0320349D02*
X0173867Y0320349D01*
X0173888Y0320387D02*
X0173078Y0320387D01*
X0173087Y0320425D02*
X0173909Y0320425D01*
X0173930Y0320463D02*
X0173099Y0320463D01*
X0173116Y0320501D02*
X0173946Y0320501D01*
X0173950Y0320501D01*
X0173946Y0320539D02*
X0173971Y0320539D01*
X0173946Y0320539D02*
X0173133Y0320539D01*
X0173150Y0320576D02*
X0173946Y0320576D01*
X0173992Y0320576D01*
X0174013Y0320614D02*
X0173946Y0320614D01*
X0173167Y0320614D01*
X0173184Y0320652D02*
X0173946Y0320652D01*
X0174034Y0320652D01*
X0173980Y0320690D02*
X0173946Y0320690D01*
X0173201Y0320690D01*
X0173218Y0320728D02*
X0173925Y0320728D01*
X0173870Y0320766D02*
X0173235Y0320766D01*
X0173259Y0320804D02*
X0173815Y0320804D01*
X0173760Y0320842D02*
X0173285Y0320842D01*
X0173310Y0320880D02*
X0173705Y0320880D01*
X0173650Y0320917D02*
X0173335Y0320917D01*
X0173361Y0320955D02*
X0173595Y0320955D01*
X0173540Y0320993D02*
X0173386Y0320993D01*
X0173412Y0321031D02*
X0173485Y0321031D01*
X0173946Y0321873D02*
X0173946Y0322672D01*
X0173743Y0322672D01*
X0173743Y0323288D01*
X0173777Y0323556D01*
X0173883Y0323760D01*
X0173946Y0323808D01*
X0173946Y0324699D01*
X0173764Y0324646D01*
X0173550Y0324530D01*
X0173367Y0324370D01*
X0173221Y0324173D01*
X0173111Y0323936D01*
X0173043Y0323663D01*
X0173019Y0323353D01*
X0173019Y0321873D01*
X0173946Y0321873D01*
X0176640Y0321873D01*
X0176640Y0322670D01*
X0175554Y0322670D01*
X0175554Y0323274D01*
X0175534Y0323570D01*
X0175473Y0323847D01*
X0175372Y0324096D01*
X0175233Y0324311D01*
X0175052Y0324489D01*
X0174833Y0324624D01*
X0174576Y0324709D01*
X0174280Y0324738D01*
X0174285Y0324740D01*
X0174274Y0324740D01*
X0174007Y0324716D01*
X0173946Y0324699D01*
X0173946Y0323808D01*
X0174055Y0323890D01*
X0174291Y0323933D01*
X0174301Y0323933D01*
X0174515Y0323892D01*
X0174693Y0323768D01*
X0174811Y0323570D01*
X0174850Y0323304D01*
X0175552Y0323304D01*
X0175550Y0323342D02*
X0174844Y0323342D01*
X0174838Y0323380D02*
X0175547Y0323380D01*
X0175544Y0323418D02*
X0174833Y0323418D01*
X0174827Y0323455D02*
X0175542Y0323455D01*
X0175539Y0323493D02*
X0174822Y0323493D01*
X0174816Y0323531D02*
X0175536Y0323531D01*
X0175534Y0323569D02*
X0174811Y0323569D01*
X0174789Y0323607D02*
X0175526Y0323607D01*
X0175517Y0323645D02*
X0174766Y0323645D01*
X0174744Y0323683D02*
X0175509Y0323683D01*
X0175501Y0323721D02*
X0174721Y0323721D01*
X0174699Y0323759D02*
X0175493Y0323759D01*
X0175484Y0323796D02*
X0174653Y0323796D01*
X0174598Y0323834D02*
X0175476Y0323834D01*
X0175463Y0323872D02*
X0174544Y0323872D01*
X0174422Y0323910D02*
X0175448Y0323910D01*
X0175432Y0323948D02*
X0173946Y0323948D01*
X0173116Y0323948D01*
X0173104Y0323910D02*
X0173946Y0323910D01*
X0174164Y0323910D01*
X0174031Y0323872D02*
X0173946Y0323872D01*
X0173095Y0323872D01*
X0173085Y0323834D02*
X0173946Y0323834D01*
X0173981Y0323834D01*
X0173931Y0323796D02*
X0173076Y0323796D01*
X0173067Y0323759D02*
X0173882Y0323759D01*
X0173862Y0323721D02*
X0173057Y0323721D01*
X0173048Y0323683D02*
X0173843Y0323683D01*
X0173823Y0323645D02*
X0173041Y0323645D01*
X0173038Y0323607D02*
X0173804Y0323607D01*
X0173784Y0323569D02*
X0173035Y0323569D01*
X0173033Y0323531D02*
X0173774Y0323531D01*
X0173769Y0323493D02*
X0173030Y0323493D01*
X0173027Y0323455D02*
X0173764Y0323455D01*
X0173759Y0323418D02*
X0173024Y0323418D01*
X0173021Y0323380D02*
X0173754Y0323380D01*
X0173750Y0323342D02*
X0173019Y0323342D01*
X0173019Y0323304D02*
X0173745Y0323304D01*
X0173743Y0323266D02*
X0173019Y0323266D01*
X0173019Y0323228D02*
X0173743Y0323228D01*
X0173743Y0323190D02*
X0173019Y0323190D01*
X0173019Y0323152D02*
X0173743Y0323152D01*
X0173743Y0323115D02*
X0173019Y0323115D01*
X0173019Y0323077D02*
X0173743Y0323077D01*
X0173743Y0323039D02*
X0173019Y0323039D01*
X0173019Y0323001D02*
X0173743Y0323001D01*
X0173743Y0322963D02*
X0173019Y0322963D01*
X0173019Y0322925D02*
X0173743Y0322925D01*
X0173743Y0322887D02*
X0173019Y0322887D01*
X0173019Y0322849D02*
X0173743Y0322849D01*
X0173743Y0322811D02*
X0173019Y0322811D01*
X0173019Y0322774D02*
X0173743Y0322774D01*
X0173743Y0322736D02*
X0173019Y0322736D01*
X0173019Y0322698D02*
X0173743Y0322698D01*
X0173946Y0322672D02*
X0173946Y0321873D01*
X0173946Y0321902D02*
X0173019Y0321902D01*
X0173019Y0321940D02*
X0173946Y0321940D01*
X0176640Y0321940D01*
X0176640Y0321902D02*
X0173946Y0321902D01*
X0173946Y0321978D02*
X0173019Y0321978D01*
X0173019Y0322016D02*
X0173946Y0322016D01*
X0176640Y0322016D01*
X0176640Y0322054D02*
X0173946Y0322054D01*
X0173019Y0322054D01*
X0173019Y0322092D02*
X0173946Y0322092D01*
X0176640Y0322092D01*
X0176640Y0322130D02*
X0173946Y0322130D01*
X0173019Y0322130D01*
X0173019Y0322168D02*
X0173946Y0322168D01*
X0176640Y0322168D01*
X0176640Y0322205D02*
X0173946Y0322205D01*
X0173019Y0322205D01*
X0173019Y0322243D02*
X0173946Y0322243D01*
X0176640Y0322243D01*
X0176640Y0322281D02*
X0173946Y0322281D01*
X0173019Y0322281D01*
X0173019Y0322319D02*
X0173946Y0322319D01*
X0176640Y0322319D01*
X0176640Y0322357D02*
X0173946Y0322357D01*
X0173019Y0322357D01*
X0173019Y0322395D02*
X0173946Y0322395D01*
X0176640Y0322395D01*
X0176640Y0322433D02*
X0173946Y0322433D01*
X0173019Y0322433D01*
X0173019Y0322471D02*
X0173946Y0322471D01*
X0176640Y0322471D01*
X0176640Y0322508D02*
X0173946Y0322508D01*
X0173019Y0322508D01*
X0173019Y0322546D02*
X0173946Y0322546D01*
X0176640Y0322546D01*
X0176640Y0322584D02*
X0173946Y0322584D01*
X0173019Y0322584D01*
X0173019Y0322622D02*
X0173946Y0322622D01*
X0176640Y0322622D01*
X0176640Y0322660D02*
X0173946Y0322660D01*
X0173019Y0322660D01*
X0173946Y0322672D02*
X0174850Y0322672D01*
X0174850Y0323304D01*
X0174850Y0323266D02*
X0175554Y0323266D01*
X0175554Y0323228D02*
X0174850Y0323228D01*
X0174850Y0323190D02*
X0175554Y0323190D01*
X0175554Y0323152D02*
X0174850Y0323152D01*
X0174850Y0323115D02*
X0175554Y0323115D01*
X0175554Y0323077D02*
X0174850Y0323077D01*
X0174850Y0323039D02*
X0175554Y0323039D01*
X0175554Y0323001D02*
X0174850Y0323001D01*
X0174850Y0322963D02*
X0175554Y0322963D01*
X0175554Y0322925D02*
X0174850Y0322925D01*
X0174850Y0322887D02*
X0175554Y0322887D01*
X0175554Y0322849D02*
X0174850Y0322849D01*
X0174850Y0322811D02*
X0175554Y0322811D01*
X0175554Y0322774D02*
X0174850Y0322774D01*
X0174850Y0322736D02*
X0175554Y0322736D01*
X0175554Y0322698D02*
X0174850Y0322698D01*
X0173946Y0321978D02*
X0176640Y0321978D01*
X0176087Y0321069D02*
X0175091Y0321069D01*
X0175027Y0321031D02*
X0176150Y0321031D01*
X0176212Y0320993D02*
X0174975Y0320993D01*
X0174935Y0320955D02*
X0176266Y0320955D01*
X0176305Y0320917D02*
X0174895Y0320917D01*
X0174856Y0320880D02*
X0176344Y0320880D01*
X0176382Y0320842D02*
X0174833Y0320842D01*
X0174811Y0320804D02*
X0176418Y0320804D01*
X0176442Y0320766D02*
X0174788Y0320766D01*
X0174766Y0320728D02*
X0176467Y0320728D01*
X0176491Y0320690D02*
X0174743Y0320690D01*
X0174720Y0320652D02*
X0176515Y0320652D01*
X0176539Y0320614D02*
X0174698Y0320614D01*
X0174675Y0320576D02*
X0176554Y0320576D01*
X0176570Y0320539D02*
X0174653Y0320539D01*
X0174635Y0320501D02*
X0176585Y0320501D01*
X0176601Y0320463D02*
X0174623Y0320463D01*
X0175157Y0321107D02*
X0175993Y0321107D01*
X0175877Y0321145D02*
X0175281Y0321145D01*
X0175734Y0318645D02*
X0176367Y0318645D01*
X0176339Y0318607D02*
X0175779Y0318607D01*
X0175825Y0318569D02*
X0176310Y0318569D01*
X0176282Y0318531D02*
X0175870Y0318531D01*
X0175916Y0318493D02*
X0176254Y0318493D01*
X0176225Y0318455D02*
X0175961Y0318455D01*
X0176007Y0318417D02*
X0176197Y0318417D01*
X0176169Y0318379D02*
X0176052Y0318379D01*
X0176098Y0318341D02*
X0176140Y0318341D01*
X0175417Y0323986D02*
X0173946Y0323986D01*
X0173134Y0323986D01*
X0173152Y0324024D02*
X0173946Y0324024D01*
X0175402Y0324024D01*
X0175386Y0324062D02*
X0173946Y0324062D01*
X0173169Y0324062D01*
X0173187Y0324099D02*
X0173946Y0324099D01*
X0175370Y0324099D01*
X0175346Y0324137D02*
X0173946Y0324137D01*
X0173204Y0324137D01*
X0173223Y0324175D02*
X0173946Y0324175D01*
X0175321Y0324175D01*
X0175296Y0324213D02*
X0173946Y0324213D01*
X0173251Y0324213D01*
X0173279Y0324251D02*
X0173946Y0324251D01*
X0175272Y0324251D01*
X0175247Y0324289D02*
X0173946Y0324289D01*
X0173307Y0324289D01*
X0173335Y0324327D02*
X0173946Y0324327D01*
X0175217Y0324327D01*
X0175179Y0324365D02*
X0173946Y0324365D01*
X0173363Y0324365D01*
X0173404Y0324403D02*
X0173946Y0324403D01*
X0175140Y0324403D01*
X0175102Y0324440D02*
X0173946Y0324440D01*
X0173447Y0324440D01*
X0173491Y0324478D02*
X0173946Y0324478D01*
X0175063Y0324478D01*
X0175008Y0324516D02*
X0173946Y0324516D01*
X0173534Y0324516D01*
X0173595Y0324554D02*
X0173946Y0324554D01*
X0174947Y0324554D01*
X0174886Y0324592D02*
X0173946Y0324592D01*
X0173665Y0324592D01*
X0173734Y0324630D02*
X0173946Y0324630D01*
X0174817Y0324630D01*
X0174702Y0324668D02*
X0173946Y0324668D01*
X0173839Y0324668D01*
X0173969Y0324706D02*
X0174587Y0324706D01*
X0174977Y0325728D02*
X0176645Y0325728D01*
X0176645Y0325690D02*
X0175066Y0325690D01*
X0175155Y0325653D02*
X0176645Y0325653D01*
X0176645Y0325615D02*
X0175244Y0325615D01*
X0175333Y0325577D02*
X0176645Y0325577D01*
X0176645Y0325539D02*
X0175422Y0325539D01*
X0175511Y0325501D02*
X0176645Y0325501D01*
X0176645Y0325463D02*
X0175600Y0325463D01*
X0175689Y0325425D02*
X0176645Y0325425D01*
X0176645Y0325387D02*
X0175778Y0325387D01*
X0175867Y0325350D02*
X0176645Y0325350D01*
X0176645Y0325312D02*
X0175956Y0325312D01*
X0176045Y0325274D02*
X0176645Y0325274D01*
X0176645Y0325236D02*
X0176134Y0325236D01*
X0176223Y0325198D02*
X0176645Y0325198D01*
X0176645Y0325160D02*
X0176312Y0325160D01*
X0176401Y0325122D02*
X0176645Y0325122D01*
X0176645Y0325084D02*
X0176490Y0325084D01*
X0176579Y0325046D02*
X0176645Y0325046D01*
X0176645Y0325019D02*
X0176645Y0325831D01*
X0173956Y0326927D01*
X0176645Y0328024D01*
X0176645Y0328858D01*
X0173946Y0327709D01*
X0173946Y0326167D01*
X0172997Y0326571D01*
X0172997Y0327305D01*
X0173946Y0327709D01*
X0173946Y0326167D01*
X0176645Y0325019D01*
X0176645Y0325766D02*
X0174888Y0325766D01*
X0174799Y0325804D02*
X0176645Y0325804D01*
X0176619Y0325842D02*
X0174710Y0325842D01*
X0174621Y0325880D02*
X0176526Y0325880D01*
X0176433Y0325918D02*
X0174532Y0325918D01*
X0174443Y0325956D02*
X0176340Y0325956D01*
X0176247Y0325994D02*
X0174354Y0325994D01*
X0174265Y0326031D02*
X0176154Y0326031D01*
X0176061Y0326069D02*
X0174176Y0326069D01*
X0174087Y0326107D02*
X0175968Y0326107D01*
X0175875Y0326145D02*
X0173998Y0326145D01*
X0173946Y0326183D02*
X0173909Y0326183D01*
X0173946Y0326183D02*
X0175782Y0326183D01*
X0175689Y0326221D02*
X0173946Y0326221D01*
X0173820Y0326221D01*
X0173731Y0326259D02*
X0173946Y0326259D01*
X0175596Y0326259D01*
X0175503Y0326297D02*
X0173946Y0326297D01*
X0173642Y0326297D01*
X0173553Y0326334D02*
X0173946Y0326334D01*
X0175410Y0326334D01*
X0175318Y0326372D02*
X0173946Y0326372D01*
X0173464Y0326372D01*
X0173375Y0326410D02*
X0173946Y0326410D01*
X0175225Y0326410D01*
X0175132Y0326448D02*
X0173946Y0326448D01*
X0173286Y0326448D01*
X0173197Y0326486D02*
X0173946Y0326486D01*
X0175039Y0326486D01*
X0174946Y0326524D02*
X0173946Y0326524D01*
X0173108Y0326524D01*
X0173019Y0326562D02*
X0173946Y0326562D01*
X0174853Y0326562D01*
X0174760Y0326600D02*
X0173946Y0326600D01*
X0172997Y0326600D01*
X0172997Y0326638D02*
X0173946Y0326638D01*
X0174667Y0326638D01*
X0174574Y0326675D02*
X0173946Y0326675D01*
X0172997Y0326675D01*
X0172997Y0326713D02*
X0173946Y0326713D01*
X0174481Y0326713D01*
X0174388Y0326751D02*
X0173946Y0326751D01*
X0172997Y0326751D01*
X0172997Y0326789D02*
X0173946Y0326789D01*
X0174295Y0326789D01*
X0174202Y0326827D02*
X0173946Y0326827D01*
X0172997Y0326827D01*
X0172997Y0326865D02*
X0173946Y0326865D01*
X0174109Y0326865D01*
X0174016Y0326903D02*
X0173946Y0326903D01*
X0172997Y0326903D01*
X0172997Y0326941D02*
X0173946Y0326941D01*
X0173988Y0326941D01*
X0173946Y0326978D02*
X0172997Y0326978D01*
X0172997Y0327016D02*
X0173946Y0327016D01*
X0174174Y0327016D01*
X0174081Y0326978D02*
X0173946Y0326978D01*
X0173946Y0327054D02*
X0172997Y0327054D01*
X0172997Y0327092D02*
X0173946Y0327092D01*
X0174360Y0327092D01*
X0174453Y0327130D02*
X0173946Y0327130D01*
X0172997Y0327130D01*
X0172997Y0327168D02*
X0173946Y0327168D01*
X0174546Y0327168D01*
X0174639Y0327206D02*
X0173946Y0327206D01*
X0172997Y0327206D01*
X0172997Y0327244D02*
X0173946Y0327244D01*
X0174732Y0327244D01*
X0174824Y0327281D02*
X0173946Y0327281D01*
X0172997Y0327281D01*
X0173030Y0327319D02*
X0173946Y0327319D01*
X0174917Y0327319D01*
X0175010Y0327357D02*
X0173946Y0327357D01*
X0173119Y0327357D01*
X0173208Y0327395D02*
X0173946Y0327395D01*
X0175103Y0327395D01*
X0175196Y0327433D02*
X0173946Y0327433D01*
X0173297Y0327433D01*
X0173386Y0327471D02*
X0173946Y0327471D01*
X0175289Y0327471D01*
X0175382Y0327509D02*
X0173946Y0327509D01*
X0173475Y0327509D01*
X0173564Y0327547D02*
X0173946Y0327547D01*
X0175475Y0327547D01*
X0175568Y0327585D02*
X0173946Y0327585D01*
X0173653Y0327585D01*
X0173742Y0327622D02*
X0173946Y0327622D01*
X0175661Y0327622D01*
X0175754Y0327660D02*
X0173946Y0327660D01*
X0173831Y0327660D01*
X0173920Y0327698D02*
X0173946Y0327698D01*
X0175847Y0327698D01*
X0175940Y0327736D02*
X0174009Y0327736D01*
X0174098Y0327774D02*
X0176033Y0327774D01*
X0176126Y0327812D02*
X0174187Y0327812D01*
X0174276Y0327850D02*
X0176218Y0327850D01*
X0176311Y0327888D02*
X0174365Y0327888D01*
X0174454Y0327925D02*
X0176404Y0327925D01*
X0176497Y0327963D02*
X0174543Y0327963D01*
X0174632Y0328001D02*
X0176590Y0328001D01*
X0176645Y0328039D02*
X0174721Y0328039D01*
X0174810Y0328077D02*
X0176645Y0328077D01*
X0176645Y0328115D02*
X0174899Y0328115D01*
X0174988Y0328153D02*
X0176645Y0328153D01*
X0176645Y0328191D02*
X0175077Y0328191D01*
X0175166Y0328229D02*
X0176645Y0328229D01*
X0176645Y0328266D02*
X0175255Y0328266D01*
X0175344Y0328304D02*
X0176645Y0328304D01*
X0176645Y0328342D02*
X0175433Y0328342D01*
X0175522Y0328380D02*
X0176645Y0328380D01*
X0176645Y0328418D02*
X0175611Y0328418D01*
X0175700Y0328456D02*
X0176645Y0328456D01*
X0176645Y0328494D02*
X0175789Y0328494D01*
X0175878Y0328532D02*
X0176645Y0328532D01*
X0176645Y0328569D02*
X0175967Y0328569D01*
X0176056Y0328607D02*
X0176645Y0328607D01*
X0176645Y0328645D02*
X0176145Y0328645D01*
X0176234Y0328683D02*
X0176645Y0328683D01*
X0176645Y0328721D02*
X0176323Y0328721D01*
X0176412Y0328759D02*
X0176645Y0328759D01*
X0176645Y0328797D02*
X0176501Y0328797D01*
X0176590Y0328835D02*
X0176645Y0328835D01*
X0176645Y0329417D02*
X0176645Y0330213D01*
X0175487Y0330213D01*
X0175487Y0330840D01*
X0176645Y0331615D01*
X0176645Y0332546D01*
X0175352Y0331660D01*
X0175186Y0331975D01*
X0174947Y0332222D01*
X0174630Y0332384D01*
X0174231Y0332438D01*
X0174220Y0332438D01*
X0173954Y0332416D01*
X0173946Y0332413D01*
X0173946Y0331522D01*
X0173872Y0331466D01*
X0173775Y0331268D01*
X0173743Y0331004D01*
X0173743Y0330213D01*
X0173946Y0330213D01*
X0173946Y0329417D01*
X0173024Y0329417D01*
X0173024Y0331072D01*
X0173044Y0331378D01*
X0173103Y0331647D01*
X0173202Y0331881D01*
X0173340Y0332079D01*
X0173514Y0332237D01*
X0173719Y0332349D01*
X0173946Y0332413D01*
X0173946Y0331522D01*
X0174034Y0331590D01*
X0174261Y0331631D01*
X0174269Y0331631D01*
X0174478Y0331592D01*
X0174642Y0331474D01*
X0174746Y0331282D01*
X0174782Y0331021D01*
X0174782Y0330213D01*
X0173946Y0330213D01*
X0173946Y0329417D01*
X0176645Y0329417D01*
X0176645Y0329441D02*
X0173946Y0329441D01*
X0173024Y0329441D01*
X0173024Y0329479D02*
X0173946Y0329479D01*
X0176645Y0329479D01*
X0176645Y0329516D02*
X0173946Y0329516D01*
X0173024Y0329516D01*
X0173024Y0329554D02*
X0173946Y0329554D01*
X0176645Y0329554D01*
X0176645Y0329592D02*
X0173946Y0329592D01*
X0173024Y0329592D01*
X0173024Y0329630D02*
X0173946Y0329630D01*
X0176645Y0329630D01*
X0176645Y0329668D02*
X0173946Y0329668D01*
X0173024Y0329668D01*
X0173024Y0329706D02*
X0173946Y0329706D01*
X0176645Y0329706D01*
X0176645Y0329744D02*
X0173946Y0329744D01*
X0173024Y0329744D01*
X0173024Y0329782D02*
X0173946Y0329782D01*
X0176645Y0329782D01*
X0176645Y0329820D02*
X0173946Y0329820D01*
X0173024Y0329820D01*
X0173024Y0329857D02*
X0173946Y0329857D01*
X0176645Y0329857D01*
X0176645Y0329895D02*
X0173946Y0329895D01*
X0173024Y0329895D01*
X0173024Y0329933D02*
X0173946Y0329933D01*
X0176645Y0329933D01*
X0176645Y0329971D02*
X0173946Y0329971D01*
X0173024Y0329971D01*
X0173024Y0330009D02*
X0173946Y0330009D01*
X0176645Y0330009D01*
X0176645Y0330047D02*
X0173946Y0330047D01*
X0173024Y0330047D01*
X0173024Y0330085D02*
X0173946Y0330085D01*
X0176645Y0330085D01*
X0176645Y0330123D02*
X0173946Y0330123D01*
X0173024Y0330123D01*
X0173024Y0330160D02*
X0173946Y0330160D01*
X0176645Y0330160D01*
X0176645Y0330198D02*
X0173946Y0330198D01*
X0173024Y0330198D01*
X0173024Y0330236D02*
X0173743Y0330236D01*
X0173743Y0330274D02*
X0173024Y0330274D01*
X0173024Y0330312D02*
X0173743Y0330312D01*
X0173743Y0330350D02*
X0173024Y0330350D01*
X0173024Y0330388D02*
X0173743Y0330388D01*
X0173743Y0330426D02*
X0173024Y0330426D01*
X0173024Y0330464D02*
X0173743Y0330464D01*
X0173743Y0330501D02*
X0173024Y0330501D01*
X0173024Y0330539D02*
X0173743Y0330539D01*
X0173743Y0330577D02*
X0173024Y0330577D01*
X0173024Y0330615D02*
X0173743Y0330615D01*
X0173743Y0330653D02*
X0173024Y0330653D01*
X0173024Y0330691D02*
X0173743Y0330691D01*
X0173743Y0330729D02*
X0173024Y0330729D01*
X0173024Y0330767D02*
X0173743Y0330767D01*
X0173743Y0330804D02*
X0173024Y0330804D01*
X0173024Y0330842D02*
X0173743Y0330842D01*
X0173743Y0330880D02*
X0173024Y0330880D01*
X0173024Y0330918D02*
X0173743Y0330918D01*
X0173743Y0330956D02*
X0173024Y0330956D01*
X0173024Y0330994D02*
X0173743Y0330994D01*
X0173746Y0331032D02*
X0173024Y0331032D01*
X0173024Y0331070D02*
X0173751Y0331070D01*
X0173755Y0331108D02*
X0173027Y0331108D01*
X0173029Y0331145D02*
X0173760Y0331145D01*
X0173765Y0331183D02*
X0173032Y0331183D01*
X0173034Y0331221D02*
X0173769Y0331221D01*
X0173774Y0331259D02*
X0173036Y0331259D01*
X0173039Y0331297D02*
X0173789Y0331297D01*
X0173808Y0331335D02*
X0173041Y0331335D01*
X0173044Y0331373D02*
X0173826Y0331373D01*
X0173845Y0331411D02*
X0173051Y0331411D01*
X0173060Y0331448D02*
X0173863Y0331448D01*
X0173899Y0331486D02*
X0173068Y0331486D01*
X0173076Y0331524D02*
X0173946Y0331524D01*
X0173948Y0331524D01*
X0173946Y0331562D02*
X0173085Y0331562D01*
X0173093Y0331600D02*
X0173946Y0331600D01*
X0174090Y0331600D01*
X0173998Y0331562D02*
X0173946Y0331562D01*
X0173946Y0331638D02*
X0173101Y0331638D01*
X0173115Y0331676D02*
X0173946Y0331676D01*
X0175344Y0331676D01*
X0175374Y0331676D02*
X0176645Y0331676D01*
X0176645Y0331714D02*
X0175429Y0331714D01*
X0175485Y0331752D02*
X0176645Y0331752D01*
X0176645Y0331789D02*
X0175540Y0331789D01*
X0175595Y0331827D02*
X0176645Y0331827D01*
X0176645Y0331865D02*
X0175651Y0331865D01*
X0175706Y0331903D02*
X0176645Y0331903D01*
X0176645Y0331941D02*
X0175761Y0331941D01*
X0175817Y0331979D02*
X0176645Y0331979D01*
X0176645Y0332017D02*
X0175872Y0332017D01*
X0175927Y0332055D02*
X0176645Y0332055D01*
X0176645Y0332092D02*
X0175983Y0332092D01*
X0176038Y0332130D02*
X0176645Y0332130D01*
X0176645Y0332168D02*
X0176093Y0332168D01*
X0176148Y0332206D02*
X0176645Y0332206D01*
X0176645Y0332244D02*
X0176204Y0332244D01*
X0176259Y0332282D02*
X0176645Y0332282D01*
X0176645Y0332320D02*
X0176314Y0332320D01*
X0176370Y0332358D02*
X0176645Y0332358D01*
X0176645Y0332395D02*
X0176425Y0332395D01*
X0176480Y0332433D02*
X0176645Y0332433D01*
X0176645Y0332471D02*
X0176536Y0332471D01*
X0176591Y0332509D02*
X0176645Y0332509D01*
X0176645Y0333159D02*
X0176645Y0333955D01*
X0175538Y0333955D01*
X0175103Y0334374D01*
X0176645Y0335497D01*
X0176645Y0336453D01*
X0174561Y0334911D01*
X0173946Y0335501D01*
X0173946Y0334569D01*
X0173024Y0335424D01*
X0173024Y0336385D01*
X0173946Y0335501D01*
X0173946Y0334569D01*
X0174607Y0333955D01*
X0173946Y0333955D01*
X0173946Y0333159D01*
X0173024Y0333159D01*
X0173024Y0333955D01*
X0173946Y0333955D01*
X0173946Y0333159D01*
X0176645Y0333159D01*
X0176645Y0333191D02*
X0173946Y0333191D01*
X0173024Y0333191D01*
X0173024Y0333229D02*
X0173946Y0333229D01*
X0176645Y0333229D01*
X0176645Y0333267D02*
X0173946Y0333267D01*
X0173024Y0333267D01*
X0173024Y0333305D02*
X0173946Y0333305D01*
X0176645Y0333305D01*
X0176645Y0333343D02*
X0173946Y0333343D01*
X0173024Y0333343D01*
X0173024Y0333380D02*
X0173946Y0333380D01*
X0176645Y0333380D01*
X0176645Y0333418D02*
X0173946Y0333418D01*
X0173024Y0333418D01*
X0173024Y0333456D02*
X0173946Y0333456D01*
X0176645Y0333456D01*
X0176645Y0333494D02*
X0173946Y0333494D01*
X0173024Y0333494D01*
X0173024Y0333532D02*
X0173946Y0333532D01*
X0176645Y0333532D01*
X0176645Y0333570D02*
X0173946Y0333570D01*
X0173024Y0333570D01*
X0173024Y0333608D02*
X0173946Y0333608D01*
X0176645Y0333608D01*
X0176645Y0333646D02*
X0173946Y0333646D01*
X0173024Y0333646D01*
X0173024Y0333683D02*
X0173946Y0333683D01*
X0176645Y0333683D01*
X0176645Y0333721D02*
X0173946Y0333721D01*
X0173024Y0333721D01*
X0173024Y0333759D02*
X0173946Y0333759D01*
X0176645Y0333759D01*
X0176645Y0333797D02*
X0173946Y0333797D01*
X0173024Y0333797D01*
X0173024Y0333835D02*
X0173946Y0333835D01*
X0176645Y0333835D01*
X0176645Y0333873D02*
X0173946Y0333873D01*
X0173024Y0333873D01*
X0173024Y0333911D02*
X0173946Y0333911D01*
X0176645Y0333911D01*
X0176645Y0333949D02*
X0173946Y0333949D01*
X0173024Y0333949D01*
X0173757Y0334744D02*
X0173946Y0334744D01*
X0175611Y0334744D01*
X0175559Y0334706D02*
X0173946Y0334706D01*
X0173798Y0334706D01*
X0173839Y0334668D02*
X0173946Y0334668D01*
X0175507Y0334668D01*
X0175455Y0334630D02*
X0173946Y0334630D01*
X0173879Y0334630D01*
X0173920Y0334593D02*
X0173946Y0334593D01*
X0175403Y0334593D01*
X0175351Y0334555D02*
X0173961Y0334555D01*
X0174002Y0334517D02*
X0175299Y0334517D01*
X0175247Y0334479D02*
X0174043Y0334479D01*
X0174083Y0334441D02*
X0175195Y0334441D01*
X0175143Y0334403D02*
X0174124Y0334403D01*
X0174165Y0334365D02*
X0175112Y0334365D01*
X0175152Y0334327D02*
X0174206Y0334327D01*
X0174247Y0334290D02*
X0175191Y0334290D01*
X0175230Y0334252D02*
X0174287Y0334252D01*
X0174328Y0334214D02*
X0175270Y0334214D01*
X0175309Y0334176D02*
X0174369Y0334176D01*
X0174410Y0334138D02*
X0175348Y0334138D01*
X0175388Y0334100D02*
X0174451Y0334100D01*
X0174492Y0334062D02*
X0175427Y0334062D01*
X0175466Y0334024D02*
X0174532Y0334024D01*
X0174573Y0333987D02*
X0175506Y0333987D01*
X0175663Y0334782D02*
X0173946Y0334782D01*
X0173716Y0334782D01*
X0173675Y0334820D02*
X0173946Y0334820D01*
X0175715Y0334820D01*
X0175767Y0334858D02*
X0173946Y0334858D01*
X0173635Y0334858D01*
X0173594Y0334896D02*
X0173946Y0334896D01*
X0175819Y0334896D01*
X0175871Y0334934D02*
X0174591Y0334934D01*
X0174537Y0334934D02*
X0173946Y0334934D01*
X0173553Y0334934D01*
X0173512Y0334971D02*
X0173946Y0334971D01*
X0174498Y0334971D01*
X0174459Y0335009D02*
X0173946Y0335009D01*
X0173471Y0335009D01*
X0173431Y0335047D02*
X0173946Y0335047D01*
X0174419Y0335047D01*
X0174380Y0335085D02*
X0173946Y0335085D01*
X0173390Y0335085D01*
X0173349Y0335123D02*
X0173946Y0335123D01*
X0174340Y0335123D01*
X0174301Y0335161D02*
X0173946Y0335161D01*
X0173308Y0335161D01*
X0173267Y0335199D02*
X0173946Y0335199D01*
X0174261Y0335199D01*
X0174222Y0335237D02*
X0173946Y0335237D01*
X0173227Y0335237D01*
X0173186Y0335274D02*
X0173946Y0335274D01*
X0174182Y0335274D01*
X0174143Y0335312D02*
X0173946Y0335312D01*
X0173145Y0335312D01*
X0173104Y0335350D02*
X0173946Y0335350D01*
X0174103Y0335350D01*
X0174064Y0335388D02*
X0173946Y0335388D01*
X0173063Y0335388D01*
X0173024Y0335426D02*
X0173946Y0335426D01*
X0174024Y0335426D01*
X0173985Y0335464D02*
X0173946Y0335464D01*
X0173024Y0335464D01*
X0173024Y0335502D02*
X0173945Y0335502D01*
X0173906Y0335540D02*
X0173024Y0335540D01*
X0173024Y0335578D02*
X0173866Y0335578D01*
X0173827Y0335615D02*
X0173024Y0335615D01*
X0173024Y0335653D02*
X0173787Y0335653D01*
X0173748Y0335691D02*
X0173024Y0335691D01*
X0173024Y0335729D02*
X0173708Y0335729D01*
X0173669Y0335767D02*
X0173024Y0335767D01*
X0173024Y0335805D02*
X0173629Y0335805D01*
X0173590Y0335843D02*
X0173024Y0335843D01*
X0173024Y0335881D02*
X0173551Y0335881D01*
X0173511Y0335918D02*
X0173024Y0335918D01*
X0173024Y0335956D02*
X0173472Y0335956D01*
X0173432Y0335994D02*
X0173024Y0335994D01*
X0173024Y0336032D02*
X0173393Y0336032D01*
X0173353Y0336070D02*
X0173024Y0336070D01*
X0173024Y0336108D02*
X0173314Y0336108D01*
X0173274Y0336146D02*
X0173024Y0336146D01*
X0173024Y0336184D02*
X0173235Y0336184D01*
X0173195Y0336222D02*
X0173024Y0336222D01*
X0173024Y0336259D02*
X0173156Y0336259D01*
X0173116Y0336297D02*
X0173024Y0336297D01*
X0173024Y0336335D02*
X0173077Y0336335D01*
X0173037Y0336373D02*
X0173024Y0336373D01*
X0174642Y0334971D02*
X0175923Y0334971D01*
X0175975Y0335009D02*
X0174693Y0335009D01*
X0174744Y0335047D02*
X0176027Y0335047D01*
X0176079Y0335085D02*
X0174796Y0335085D01*
X0174847Y0335123D02*
X0176131Y0335123D01*
X0176183Y0335161D02*
X0174898Y0335161D01*
X0174949Y0335199D02*
X0176235Y0335199D01*
X0176287Y0335237D02*
X0175000Y0335237D01*
X0175052Y0335274D02*
X0176339Y0335274D01*
X0176391Y0335312D02*
X0175103Y0335312D01*
X0175154Y0335350D02*
X0176443Y0335350D01*
X0176495Y0335388D02*
X0175205Y0335388D01*
X0175257Y0335426D02*
X0176547Y0335426D01*
X0176599Y0335464D02*
X0175308Y0335464D01*
X0175359Y0335502D02*
X0176645Y0335502D01*
X0176645Y0335540D02*
X0175410Y0335540D01*
X0175461Y0335578D02*
X0176645Y0335578D01*
X0176645Y0335615D02*
X0175513Y0335615D01*
X0175564Y0335653D02*
X0176645Y0335653D01*
X0176645Y0335691D02*
X0175615Y0335691D01*
X0175666Y0335729D02*
X0176645Y0335729D01*
X0176645Y0335767D02*
X0175717Y0335767D01*
X0175769Y0335805D02*
X0176645Y0335805D01*
X0176645Y0335843D02*
X0175820Y0335843D01*
X0175871Y0335881D02*
X0176645Y0335881D01*
X0176645Y0335918D02*
X0175922Y0335918D01*
X0175974Y0335956D02*
X0176645Y0335956D01*
X0176645Y0335994D02*
X0176025Y0335994D01*
X0176076Y0336032D02*
X0176645Y0336032D01*
X0176645Y0336070D02*
X0176127Y0336070D01*
X0176178Y0336108D02*
X0176645Y0336108D01*
X0176645Y0336146D02*
X0176230Y0336146D01*
X0176281Y0336184D02*
X0176645Y0336184D01*
X0176645Y0336222D02*
X0176332Y0336222D01*
X0176383Y0336259D02*
X0176645Y0336259D01*
X0176645Y0336297D02*
X0176434Y0336297D01*
X0176486Y0336335D02*
X0176645Y0336335D01*
X0176645Y0336373D02*
X0176537Y0336373D01*
X0176588Y0336411D02*
X0176645Y0336411D01*
X0176639Y0336449D02*
X0176645Y0336449D01*
X0174681Y0332358D02*
X0173946Y0332358D01*
X0173750Y0332358D01*
X0173666Y0332320D02*
X0173946Y0332320D01*
X0174755Y0332320D01*
X0174830Y0332282D02*
X0173946Y0332282D01*
X0173597Y0332282D01*
X0173528Y0332244D02*
X0173946Y0332244D01*
X0174904Y0332244D01*
X0174962Y0332206D02*
X0173946Y0332206D01*
X0173480Y0332206D01*
X0173439Y0332168D02*
X0173946Y0332168D01*
X0174999Y0332168D01*
X0175035Y0332130D02*
X0173946Y0332130D01*
X0173397Y0332130D01*
X0173355Y0332092D02*
X0173946Y0332092D01*
X0175072Y0332092D01*
X0175108Y0332055D02*
X0173946Y0332055D01*
X0173323Y0332055D01*
X0173297Y0332017D02*
X0173946Y0332017D01*
X0175145Y0332017D01*
X0175181Y0331979D02*
X0173946Y0331979D01*
X0173270Y0331979D01*
X0173244Y0331941D02*
X0173946Y0331941D01*
X0175203Y0331941D01*
X0175223Y0331903D02*
X0173946Y0331903D01*
X0173217Y0331903D01*
X0173195Y0331865D02*
X0173946Y0331865D01*
X0175243Y0331865D01*
X0175263Y0331827D02*
X0173946Y0331827D01*
X0173179Y0331827D01*
X0173163Y0331789D02*
X0173946Y0331789D01*
X0175284Y0331789D01*
X0175304Y0331752D02*
X0173946Y0331752D01*
X0173147Y0331752D01*
X0173131Y0331714D02*
X0173946Y0331714D01*
X0175324Y0331714D01*
X0174697Y0331373D02*
X0176283Y0331373D01*
X0176227Y0331335D02*
X0174718Y0331335D01*
X0174738Y0331297D02*
X0176170Y0331297D01*
X0176114Y0331259D02*
X0174749Y0331259D01*
X0174755Y0331221D02*
X0176057Y0331221D01*
X0176000Y0331183D02*
X0174760Y0331183D01*
X0174765Y0331145D02*
X0175944Y0331145D01*
X0175887Y0331108D02*
X0174770Y0331108D01*
X0174775Y0331070D02*
X0175830Y0331070D01*
X0175774Y0331032D02*
X0174780Y0331032D01*
X0174782Y0330994D02*
X0175717Y0330994D01*
X0175661Y0330956D02*
X0174782Y0330956D01*
X0174782Y0330918D02*
X0175604Y0330918D01*
X0175547Y0330880D02*
X0174782Y0330880D01*
X0174782Y0330842D02*
X0175491Y0330842D01*
X0175487Y0330804D02*
X0174782Y0330804D01*
X0174782Y0330767D02*
X0175487Y0330767D01*
X0175487Y0330729D02*
X0174782Y0330729D01*
X0174782Y0330691D02*
X0175487Y0330691D01*
X0175487Y0330653D02*
X0174782Y0330653D01*
X0174782Y0330615D02*
X0175487Y0330615D01*
X0175487Y0330577D02*
X0174782Y0330577D01*
X0174782Y0330539D02*
X0175487Y0330539D01*
X0175487Y0330501D02*
X0174782Y0330501D01*
X0174782Y0330464D02*
X0175487Y0330464D01*
X0175487Y0330426D02*
X0174782Y0330426D01*
X0174782Y0330388D02*
X0175487Y0330388D01*
X0175487Y0330350D02*
X0174782Y0330350D01*
X0174782Y0330312D02*
X0175487Y0330312D01*
X0175487Y0330274D02*
X0174782Y0330274D01*
X0174782Y0330236D02*
X0175487Y0330236D01*
X0174676Y0331411D02*
X0176340Y0331411D01*
X0176397Y0331448D02*
X0174656Y0331448D01*
X0174625Y0331486D02*
X0176453Y0331486D01*
X0176510Y0331524D02*
X0174572Y0331524D01*
X0174519Y0331562D02*
X0176567Y0331562D01*
X0176623Y0331600D02*
X0174435Y0331600D01*
X0173946Y0331638D02*
X0176645Y0331638D01*
X0174544Y0332395D02*
X0173946Y0332395D01*
X0173883Y0332395D01*
X0174164Y0332433D02*
X0174266Y0332433D01*
X0174267Y0327054D02*
X0173946Y0327054D01*
D13*
X0208570Y0295669D02*
X0208570Y0254331D01*
X0238097Y0254331D01*
X0238097Y0295669D01*
X0208570Y0295669D01*
X0239833Y0252500D02*
X0239835Y0252563D01*
X0239841Y0252625D01*
X0239851Y0252687D01*
X0239864Y0252749D01*
X0239882Y0252809D01*
X0239903Y0252868D01*
X0239928Y0252926D01*
X0239957Y0252982D01*
X0239989Y0253036D01*
X0240024Y0253088D01*
X0240062Y0253137D01*
X0240104Y0253185D01*
X0240148Y0253229D01*
X0240196Y0253271D01*
X0240245Y0253309D01*
X0240297Y0253344D01*
X0240351Y0253376D01*
X0240407Y0253405D01*
X0240465Y0253430D01*
X0240524Y0253451D01*
X0240584Y0253469D01*
X0240646Y0253482D01*
X0240708Y0253492D01*
X0240770Y0253498D01*
X0240833Y0253500D01*
X0240896Y0253498D01*
X0240958Y0253492D01*
X0241020Y0253482D01*
X0241082Y0253469D01*
X0241142Y0253451D01*
X0241201Y0253430D01*
X0241259Y0253405D01*
X0241315Y0253376D01*
X0241369Y0253344D01*
X0241421Y0253309D01*
X0241470Y0253271D01*
X0241518Y0253229D01*
X0241562Y0253185D01*
X0241604Y0253137D01*
X0241642Y0253088D01*
X0241677Y0253036D01*
X0241709Y0252982D01*
X0241738Y0252926D01*
X0241763Y0252868D01*
X0241784Y0252809D01*
X0241802Y0252749D01*
X0241815Y0252687D01*
X0241825Y0252625D01*
X0241831Y0252563D01*
X0241833Y0252500D01*
X0241831Y0252437D01*
X0241825Y0252375D01*
X0241815Y0252313D01*
X0241802Y0252251D01*
X0241784Y0252191D01*
X0241763Y0252132D01*
X0241738Y0252074D01*
X0241709Y0252018D01*
X0241677Y0251964D01*
X0241642Y0251912D01*
X0241604Y0251863D01*
X0241562Y0251815D01*
X0241518Y0251771D01*
X0241470Y0251729D01*
X0241421Y0251691D01*
X0241369Y0251656D01*
X0241315Y0251624D01*
X0241259Y0251595D01*
X0241201Y0251570D01*
X0241142Y0251549D01*
X0241082Y0251531D01*
X0241020Y0251518D01*
X0240958Y0251508D01*
X0240896Y0251502D01*
X0240833Y0251500D01*
X0240770Y0251502D01*
X0240708Y0251508D01*
X0240646Y0251518D01*
X0240584Y0251531D01*
X0240524Y0251549D01*
X0240465Y0251570D01*
X0240407Y0251595D01*
X0240351Y0251624D01*
X0240297Y0251656D01*
X0240245Y0251691D01*
X0240196Y0251729D01*
X0240148Y0251771D01*
X0240104Y0251815D01*
X0240062Y0251863D01*
X0240024Y0251912D01*
X0239989Y0251964D01*
X0239957Y0252018D01*
X0239928Y0252074D01*
X0239903Y0252132D01*
X0239882Y0252191D01*
X0239864Y0252251D01*
X0239851Y0252313D01*
X0239841Y0252375D01*
X0239835Y0252437D01*
X0239833Y0252500D01*
D14*
X0183570Y0249803D02*
X0183570Y0200197D01*
X0263097Y0200197D01*
X0263097Y0249803D01*
X0183570Y0249803D01*
X0183570Y0300197D02*
X0183570Y0349803D01*
X0263097Y0349803D01*
X0263097Y0300197D01*
X0183570Y0300197D01*
D15*
X0164046Y0258150D03*
X0164046Y0251850D03*
X0282759Y0252638D03*
X0282703Y0247992D03*
X0282703Y0242008D03*
X0282546Y0238150D03*
X0282546Y0237992D03*
X0282546Y0237835D03*
X0282546Y0237677D03*
X0282546Y0237520D03*
X0282546Y0237362D03*
X0282546Y0237205D03*
X0282546Y0232795D03*
X0282546Y0232638D03*
X0282546Y0232480D03*
X0282546Y0232323D03*
X0282546Y0232165D03*
X0282546Y0232008D03*
X0282546Y0231850D03*
X0282759Y0257362D03*
D16*
X0283782Y0255472D03*
X0283782Y0255315D03*
X0283782Y0255157D03*
X0283782Y0255000D03*
X0283782Y0254843D03*
X0283782Y0254685D03*
X0283782Y0254528D03*
X0283782Y0254370D03*
X0288451Y0245630D03*
X0288451Y0245472D03*
X0288294Y0237047D03*
X0276798Y0237047D03*
X0276798Y0235472D03*
X0276798Y0235315D03*
X0276798Y0235157D03*
X0276798Y0235000D03*
X0276798Y0234843D03*
X0276798Y0234685D03*
X0279633Y0225787D03*
X0276640Y0223110D03*
X0289081Y0223110D03*
X0167904Y0253740D03*
D17*
X0282546Y0237047D03*
D18*
X0282546Y0236890D03*
X0282546Y0236732D03*
X0284908Y0234685D03*
X0288530Y0236890D03*
X0286010Y0242953D03*
X0288688Y0244528D03*
X0288688Y0244685D03*
X0279239Y0245787D03*
X0276562Y0236890D03*
X0289318Y0226417D03*
X0289318Y0223425D03*
X0276404Y0223425D03*
X0280239Y0255787D03*
X0281499Y0256890D03*
X0167668Y0255787D03*
X0167668Y0254213D03*
D19*
X0162156Y0256102D03*
X0161684Y0253740D03*
X0278451Y0244055D03*
X0279869Y0246890D03*
X0283491Y0243110D03*
X0285066Y0236890D03*
X0286325Y0235630D03*
X0286483Y0235787D03*
X0286483Y0234213D03*
X0286483Y0234055D03*
X0282546Y0235315D03*
X0282546Y0235472D03*
X0280499Y0235315D03*
X0280026Y0236890D03*
X0278609Y0235787D03*
X0278451Y0235630D03*
X0278609Y0234213D03*
X0278609Y0234055D03*
X0279081Y0225945D03*
X0278451Y0225315D03*
X0282703Y0223740D03*
X0283176Y0226102D03*
X0286798Y0225787D03*
X0286798Y0224055D03*
X0281341Y0253425D03*
X0279451Y0254055D03*
X0280711Y0255315D03*
X0281026Y0255945D03*
X0281184Y0256260D03*
X0281341Y0256417D03*
X0283388Y0255945D03*
X0284806Y0256890D03*
D20*
X0280318Y0255630D03*
X0284357Y0246575D03*
X0286089Y0243110D03*
X0288766Y0244213D03*
X0288766Y0244370D03*
X0288609Y0236732D03*
X0288609Y0235000D03*
X0288609Y0233110D03*
X0284987Y0234843D03*
X0284987Y0235000D03*
X0284199Y0233268D03*
X0280892Y0233268D03*
X0276483Y0233110D03*
X0276483Y0235630D03*
X0276483Y0236732D03*
X0279318Y0245630D03*
X0276325Y0226417D03*
X0276325Y0226260D03*
X0276325Y0223583D03*
X0289396Y0223583D03*
X0289396Y0226260D03*
X0167589Y0254370D03*
X0167589Y0255630D03*
X0164597Y0252953D03*
D21*
X0161526Y0254213D03*
X0162314Y0255630D03*
X0162314Y0255787D03*
X0278609Y0235945D03*
X0280026Y0236732D03*
X0280499Y0235630D03*
X0282546Y0235157D03*
X0282546Y0235000D03*
X0284751Y0235787D03*
X0284751Y0235945D03*
X0285066Y0236732D03*
X0286483Y0235945D03*
X0286483Y0233898D03*
X0278609Y0233898D03*
X0280656Y0226732D03*
X0280656Y0225945D03*
X0282546Y0224213D03*
X0282546Y0224055D03*
X0283333Y0225630D03*
X0284908Y0222953D03*
X0279081Y0223898D03*
X0280026Y0243268D03*
X0280026Y0245157D03*
X0280026Y0246102D03*
X0280026Y0246732D03*
X0284436Y0245157D03*
X0284436Y0245000D03*
X0283388Y0253898D03*
X0281341Y0253740D03*
X0281341Y0253583D03*
X0280869Y0255157D03*
X0284806Y0255787D03*
D22*
X0284436Y0246417D03*
X0286010Y0243268D03*
X0288845Y0242953D03*
X0288845Y0243898D03*
X0288845Y0244055D03*
X0288688Y0236575D03*
X0288688Y0235157D03*
X0288688Y0233268D03*
X0285066Y0235157D03*
X0285066Y0235315D03*
X0284121Y0233425D03*
X0280971Y0233425D03*
X0282546Y0236417D03*
X0282546Y0236575D03*
X0276404Y0236575D03*
X0276404Y0233268D03*
X0276247Y0226102D03*
X0276247Y0223898D03*
X0276247Y0223740D03*
X0289475Y0223740D03*
X0289475Y0223898D03*
X0289475Y0226102D03*
X0168928Y0256890D03*
X0167510Y0255472D03*
X0167510Y0255315D03*
X0167510Y0255157D03*
X0167510Y0255000D03*
X0167510Y0254843D03*
X0167510Y0254685D03*
X0167510Y0254528D03*
D23*
X0163967Y0256260D03*
X0162392Y0255472D03*
X0161448Y0254370D03*
X0159873Y0253110D03*
X0159873Y0252953D03*
X0159873Y0256732D03*
X0159873Y0256890D03*
X0278530Y0246102D03*
X0280105Y0246260D03*
X0280105Y0246417D03*
X0280105Y0246575D03*
X0280105Y0245000D03*
X0280105Y0243425D03*
X0281837Y0243898D03*
X0283727Y0243583D03*
X0283727Y0243425D03*
X0283885Y0243740D03*
X0284199Y0244370D03*
X0284357Y0244685D03*
X0284357Y0244843D03*
X0286089Y0244685D03*
X0284987Y0236575D03*
X0284829Y0236260D03*
X0284829Y0236102D03*
X0280420Y0235945D03*
X0280420Y0235787D03*
X0280262Y0236260D03*
X0280105Y0236575D03*
X0280735Y0226575D03*
X0280735Y0226417D03*
X0280735Y0226260D03*
X0280735Y0226102D03*
X0280735Y0225315D03*
X0282467Y0224370D03*
X0283412Y0225472D03*
X0284987Y0226890D03*
X0286562Y0223898D03*
X0284987Y0223110D03*
X0280735Y0223268D03*
X0281262Y0253898D03*
X0281262Y0254055D03*
X0279530Y0256102D03*
X0284885Y0255945D03*
X0284885Y0256732D03*
X0284885Y0254055D03*
D24*
X0281420Y0253110D03*
X0280475Y0255472D03*
X0288979Y0252953D03*
X0288924Y0243740D03*
X0288924Y0243583D03*
X0286089Y0243425D03*
X0279475Y0245472D03*
X0276325Y0236417D03*
X0276325Y0236260D03*
X0276325Y0236102D03*
X0276325Y0235945D03*
X0276325Y0235787D03*
X0276325Y0234370D03*
X0276325Y0233425D03*
X0282625Y0236260D03*
X0285144Y0235472D03*
X0288766Y0235472D03*
X0288766Y0235315D03*
X0288766Y0234843D03*
X0288766Y0234685D03*
X0288766Y0233425D03*
X0288766Y0236260D03*
X0288766Y0236417D03*
X0289554Y0225945D03*
X0289554Y0225787D03*
X0289554Y0224213D03*
X0289554Y0224055D03*
X0282940Y0222953D03*
X0282940Y0226890D03*
X0276168Y0225945D03*
X0276168Y0225787D03*
X0276168Y0225630D03*
X0276168Y0224370D03*
X0276168Y0224213D03*
X0276168Y0224055D03*
X0164597Y0253110D03*
X0164597Y0253268D03*
X0164597Y0253425D03*
X0164597Y0253583D03*
X0164597Y0253740D03*
X0164597Y0253898D03*
X0164597Y0254055D03*
X0164597Y0254213D03*
X0164597Y0254370D03*
X0164597Y0254528D03*
X0164597Y0254685D03*
X0164597Y0254843D03*
X0164597Y0255000D03*
X0164597Y0255157D03*
X0164597Y0255315D03*
X0164597Y0255472D03*
X0164597Y0255630D03*
X0164597Y0255787D03*
X0164597Y0255945D03*
X0164597Y0256102D03*
X0161920Y0256890D03*
X0161920Y0252953D03*
X0157825Y0252953D03*
X0157825Y0253110D03*
X0157825Y0256890D03*
D25*
X0159951Y0256575D03*
X0159951Y0256417D03*
X0159951Y0256260D03*
X0159951Y0256102D03*
X0159951Y0255945D03*
X0159951Y0255787D03*
X0159951Y0255630D03*
X0159951Y0255472D03*
X0159951Y0255315D03*
X0159951Y0255157D03*
X0159951Y0255000D03*
X0159951Y0254843D03*
X0159951Y0254685D03*
X0159951Y0254528D03*
X0159951Y0254370D03*
X0159951Y0254213D03*
X0159951Y0254055D03*
X0159951Y0253898D03*
X0159951Y0253740D03*
X0159951Y0253583D03*
X0159951Y0253425D03*
X0159951Y0253268D03*
X0161369Y0254528D03*
X0161369Y0254685D03*
X0162471Y0255315D03*
X0163888Y0256417D03*
X0163888Y0256575D03*
X0163888Y0256732D03*
X0163888Y0256890D03*
X0280184Y0244843D03*
X0280184Y0244685D03*
X0280184Y0244528D03*
X0280184Y0244370D03*
X0280184Y0244055D03*
X0280184Y0243898D03*
X0280184Y0243740D03*
X0280184Y0243583D03*
X0283963Y0243898D03*
X0284121Y0244055D03*
X0284121Y0244213D03*
X0284278Y0244528D03*
X0286010Y0244843D03*
X0284963Y0253268D03*
X0284963Y0253740D03*
X0284963Y0253898D03*
X0284963Y0256102D03*
X0284963Y0256575D03*
X0281026Y0255000D03*
X0281026Y0254843D03*
X0281184Y0254528D03*
X0281184Y0254370D03*
X0281184Y0254213D03*
X0280184Y0236417D03*
X0280341Y0236102D03*
X0282546Y0234843D03*
X0282546Y0234685D03*
X0284908Y0236417D03*
X0284908Y0226732D03*
X0284908Y0226575D03*
X0284908Y0226417D03*
X0284908Y0226260D03*
X0284908Y0226102D03*
X0284908Y0225945D03*
X0284908Y0225787D03*
X0284908Y0225630D03*
X0284908Y0225472D03*
X0284908Y0225315D03*
X0284908Y0225157D03*
X0284908Y0225000D03*
X0284908Y0224843D03*
X0284908Y0224685D03*
X0284908Y0224528D03*
X0284908Y0224370D03*
X0284908Y0224213D03*
X0284908Y0224055D03*
X0284908Y0223898D03*
X0284908Y0223740D03*
X0284908Y0223583D03*
X0284908Y0223425D03*
X0284908Y0223268D03*
X0283491Y0225157D03*
X0283491Y0225315D03*
X0282388Y0224528D03*
X0280814Y0224528D03*
X0280814Y0224685D03*
X0280814Y0224843D03*
X0280814Y0225000D03*
X0280814Y0225157D03*
X0280814Y0224370D03*
X0280814Y0224213D03*
X0280814Y0224055D03*
X0280814Y0223898D03*
X0280814Y0223740D03*
X0280814Y0223583D03*
X0280814Y0223425D03*
D26*
X0282310Y0224685D03*
X0282310Y0224843D03*
X0283570Y0225000D03*
X0286562Y0236102D03*
X0278688Y0236102D03*
X0280262Y0244213D03*
X0286089Y0245000D03*
X0286089Y0245157D03*
X0285042Y0253425D03*
X0285042Y0253583D03*
X0285042Y0256260D03*
X0285042Y0256417D03*
X0281105Y0254685D03*
X0162550Y0255000D03*
X0162550Y0255157D03*
X0161290Y0254843D03*
D27*
X0157747Y0254843D03*
X0157747Y0255000D03*
X0157747Y0255157D03*
X0157747Y0255315D03*
X0157747Y0255472D03*
X0157747Y0255630D03*
X0157747Y0255787D03*
X0157747Y0255945D03*
X0157747Y0256102D03*
X0157747Y0256260D03*
X0157747Y0256417D03*
X0157747Y0256575D03*
X0157747Y0256732D03*
X0157747Y0254685D03*
X0157747Y0254528D03*
X0157747Y0254370D03*
X0157747Y0254213D03*
X0157747Y0254055D03*
X0157747Y0253898D03*
X0157747Y0253740D03*
X0157747Y0253583D03*
X0157747Y0253425D03*
X0157747Y0253268D03*
X0168928Y0256732D03*
X0276247Y0234213D03*
X0276247Y0234055D03*
X0276247Y0233898D03*
X0276247Y0233740D03*
X0276247Y0233583D03*
X0280971Y0233583D03*
X0280971Y0233740D03*
X0282546Y0236102D03*
X0284121Y0233740D03*
X0284121Y0233583D03*
X0288845Y0233583D03*
X0288845Y0233740D03*
X0288845Y0233898D03*
X0288845Y0234055D03*
X0288845Y0234213D03*
X0288845Y0234370D03*
X0288845Y0234528D03*
X0288845Y0235630D03*
X0288845Y0235787D03*
X0288845Y0235945D03*
X0288845Y0236102D03*
X0289003Y0243110D03*
X0289003Y0243268D03*
X0289003Y0243425D03*
X0286010Y0243583D03*
X0283333Y0242953D03*
X0282231Y0244843D03*
X0282231Y0245000D03*
X0282231Y0245157D03*
X0284436Y0246260D03*
X0289058Y0253110D03*
X0289058Y0253268D03*
X0289058Y0253425D03*
X0289058Y0253583D03*
X0281499Y0256732D03*
X0276089Y0225472D03*
X0276089Y0225315D03*
X0276089Y0225157D03*
X0276089Y0225000D03*
X0276089Y0224843D03*
X0276089Y0224685D03*
X0276089Y0224528D03*
X0282861Y0223110D03*
X0289633Y0224370D03*
X0289633Y0224528D03*
X0289633Y0224685D03*
X0289633Y0224843D03*
X0289633Y0225000D03*
X0289633Y0225157D03*
X0289633Y0225315D03*
X0289633Y0225472D03*
X0289633Y0225630D03*
D28*
X0287034Y0225315D03*
X0287034Y0225157D03*
X0287034Y0225000D03*
X0287034Y0224843D03*
X0287034Y0224685D03*
X0282940Y0226732D03*
X0278845Y0224528D03*
X0278845Y0224370D03*
X0280892Y0233898D03*
X0280892Y0234055D03*
X0280420Y0235000D03*
X0282625Y0235945D03*
X0284357Y0234370D03*
X0284199Y0234055D03*
X0284199Y0233898D03*
X0286089Y0243740D03*
X0284514Y0245945D03*
X0284514Y0246102D03*
X0282152Y0245472D03*
X0282152Y0245315D03*
X0282152Y0244685D03*
X0282152Y0244528D03*
X0282152Y0244370D03*
X0281420Y0253268D03*
X0283467Y0255787D03*
X0168849Y0256575D03*
X0161920Y0256732D03*
X0161920Y0253110D03*
D29*
X0161841Y0253268D03*
X0161841Y0253425D03*
X0161999Y0256575D03*
X0168613Y0256260D03*
X0168770Y0256417D03*
X0278924Y0224213D03*
X0282861Y0223268D03*
X0283018Y0226417D03*
X0283018Y0226575D03*
X0286955Y0225472D03*
X0286955Y0224528D03*
X0286955Y0224370D03*
X0284278Y0234213D03*
X0282546Y0235787D03*
X0280656Y0234685D03*
X0280814Y0234370D03*
X0280814Y0234213D03*
X0279869Y0242953D03*
X0282073Y0244213D03*
X0282073Y0245630D03*
X0283388Y0254055D03*
D30*
X0284727Y0252953D03*
X0281420Y0256575D03*
X0279373Y0254213D03*
X0281995Y0245787D03*
X0281995Y0244055D03*
X0279790Y0245315D03*
X0278373Y0244213D03*
X0284514Y0245630D03*
X0284514Y0245787D03*
X0284829Y0235630D03*
X0286404Y0234370D03*
X0282625Y0235630D03*
X0280735Y0234528D03*
X0280577Y0234843D03*
X0280420Y0235157D03*
X0278530Y0234370D03*
X0280577Y0226890D03*
X0283097Y0226260D03*
X0282782Y0223583D03*
X0282782Y0223425D03*
X0280577Y0222953D03*
X0279003Y0224055D03*
X0286877Y0224213D03*
X0286877Y0225630D03*
X0161762Y0253583D03*
X0162077Y0256260D03*
X0162077Y0256417D03*
D31*
X0162235Y0255945D03*
X0161605Y0254055D03*
X0161605Y0253898D03*
X0278530Y0245945D03*
X0279948Y0245945D03*
X0281837Y0245945D03*
X0284514Y0245472D03*
X0284514Y0245315D03*
X0283570Y0243268D03*
X0279948Y0243110D03*
X0278530Y0243898D03*
X0279530Y0253898D03*
X0279530Y0255945D03*
X0281105Y0256102D03*
X0284885Y0253110D03*
X0280420Y0235472D03*
X0283255Y0225945D03*
X0283255Y0225787D03*
X0282625Y0223898D03*
X0280735Y0223110D03*
X0278373Y0224685D03*
X0278373Y0224843D03*
X0278373Y0225000D03*
X0278373Y0225157D03*
X0286719Y0225945D03*
D32*
X0277113Y0234528D03*
X0275853Y0243110D03*
X0275381Y0245472D03*
X0275381Y0245630D03*
X0275381Y0245787D03*
X0277010Y0252953D03*
X0276853Y0253110D03*
X0276381Y0255315D03*
X0276381Y0255472D03*
X0276381Y0255630D03*
X0276381Y0255787D03*
X0276853Y0256890D03*
X0288136Y0246890D03*
X0168219Y0253110D03*
D33*
X0162629Y0254843D03*
X0161211Y0255000D03*
X0282546Y0234528D03*
X0282546Y0234370D03*
X0282231Y0225000D03*
X0283648Y0224843D03*
D34*
X0279554Y0225472D03*
X0279554Y0225630D03*
X0276719Y0226890D03*
X0280814Y0232953D03*
X0284278Y0232953D03*
X0285223Y0234528D03*
X0289003Y0226890D03*
X0288373Y0245787D03*
X0288373Y0245945D03*
X0288373Y0246102D03*
X0167983Y0253583D03*
D35*
X0167747Y0254055D03*
X0167747Y0255945D03*
X0276640Y0232953D03*
X0280892Y0233110D03*
X0284199Y0233110D03*
X0288451Y0232953D03*
X0289239Y0226575D03*
X0289239Y0223268D03*
X0276483Y0223268D03*
X0276483Y0226575D03*
X0288609Y0244843D03*
X0288609Y0245000D03*
X0281420Y0252953D03*
D36*
X0282231Y0247362D03*
X0282231Y0242638D03*
X0282861Y0228150D03*
X0282861Y0227992D03*
X0282861Y0227835D03*
X0282861Y0227677D03*
X0282861Y0227520D03*
X0282861Y0227362D03*
X0282861Y0227205D03*
X0282861Y0222795D03*
X0282861Y0222638D03*
X0282861Y0222480D03*
X0282861Y0222323D03*
X0282861Y0222165D03*
X0282861Y0222008D03*
X0282861Y0221850D03*
D37*
X0276877Y0227047D03*
X0288845Y0222953D03*
X0288215Y0246575D03*
X0288215Y0246732D03*
X0281499Y0257047D03*
X0276774Y0256732D03*
X0276617Y0256575D03*
X0276617Y0256417D03*
X0276459Y0256260D03*
X0276459Y0256102D03*
X0276459Y0255945D03*
X0276459Y0254055D03*
X0276459Y0253898D03*
X0275774Y0246732D03*
X0275617Y0246575D03*
X0275617Y0246417D03*
X0275459Y0246260D03*
X0275459Y0246102D03*
X0275459Y0245945D03*
X0275459Y0244055D03*
X0275459Y0243898D03*
X0275459Y0243740D03*
X0275617Y0243425D03*
X0168140Y0253268D03*
D38*
X0284357Y0247047D03*
X0284987Y0227047D03*
D39*
X0289160Y0226732D03*
X0276562Y0226732D03*
X0284278Y0246732D03*
X0288530Y0245315D03*
X0288530Y0245157D03*
X0283861Y0254213D03*
X0283861Y0255630D03*
X0167825Y0256102D03*
X0167825Y0253898D03*
D40*
X0168062Y0253425D03*
X0275538Y0243583D03*
X0275696Y0243268D03*
X0284199Y0246890D03*
X0288294Y0246417D03*
X0288294Y0246260D03*
X0276696Y0253268D03*
X0276538Y0253425D03*
X0276538Y0253583D03*
X0276381Y0253740D03*
X0276798Y0222953D03*
D41*
X0283467Y0251850D03*
X0283467Y0258150D03*
D42*
X0283231Y0257992D03*
X0283231Y0252008D03*
X0163573Y0252795D03*
X0163573Y0257205D03*
D43*
X0163731Y0257520D03*
X0163731Y0252480D03*
X0283073Y0252165D03*
X0283073Y0257835D03*
D44*
X0282916Y0257677D03*
X0282916Y0252323D03*
X0163888Y0252165D03*
X0163888Y0257835D03*
D45*
X0163967Y0257992D03*
X0163967Y0252008D03*
X0282837Y0252480D03*
X0282837Y0257520D03*
D46*
X0282680Y0257205D03*
X0282680Y0252795D03*
D47*
X0276538Y0255000D03*
X0277168Y0257047D03*
X0276168Y0247047D03*
X0275538Y0245000D03*
X0288034Y0256732D03*
X0288034Y0256890D03*
X0168219Y0252953D03*
D48*
X0286853Y0257047D03*
D49*
X0288113Y0256575D03*
X0288113Y0256417D03*
X0288113Y0256260D03*
X0288113Y0256102D03*
X0288113Y0255945D03*
X0288113Y0255787D03*
X0288113Y0255630D03*
X0288113Y0255472D03*
X0288113Y0255315D03*
X0288113Y0255157D03*
X0288113Y0255000D03*
X0288113Y0254843D03*
X0288113Y0254685D03*
X0288113Y0254528D03*
X0288113Y0254370D03*
X0288113Y0254213D03*
X0288113Y0254055D03*
X0288113Y0253898D03*
X0288113Y0253740D03*
X0276459Y0254213D03*
X0276459Y0255157D03*
X0275932Y0246890D03*
X0275459Y0245315D03*
X0275459Y0245157D03*
X0275459Y0244213D03*
X0276089Y0242953D03*
D50*
X0275617Y0244843D03*
X0276617Y0254843D03*
D51*
X0276774Y0254685D03*
D52*
X0277089Y0254528D03*
X0276089Y0244528D03*
D53*
X0277247Y0254370D03*
D54*
X0282940Y0248150D03*
X0282940Y0241850D03*
X0163810Y0252323D03*
X0163810Y0257677D03*
D55*
X0282546Y0247835D03*
X0282546Y0242165D03*
D56*
X0282388Y0242323D03*
X0282388Y0247677D03*
D57*
X0282310Y0247520D03*
X0282310Y0242480D03*
D58*
X0282152Y0242795D03*
X0282152Y0247205D03*
D59*
X0275853Y0244685D03*
D60*
X0276325Y0244370D03*
D61*
X0163652Y0252638D03*
X0163652Y0257362D03*
D62*
X0163495Y0257047D03*
D63*
X0271664Y0293638D02*
X0271751Y0293425D01*
X0271849Y0293248D01*
X0271955Y0293051D01*
X0271999Y0292972D01*
X0271995Y0292969D01*
X0273302Y0293783D01*
X0273251Y0293898D01*
X0273192Y0294031D01*
X0273148Y0294157D01*
X0273105Y0294350D01*
X0273066Y0294524D01*
X0273046Y0294650D01*
X0273030Y0294906D01*
X0273026Y0295008D01*
X0273030Y0295138D01*
X0271396Y0295067D01*
X0271400Y0294898D01*
X0271420Y0294697D01*
X0271440Y0294512D01*
X0271455Y0294358D01*
X0271483Y0294228D01*
X0271554Y0293969D01*
X0271664Y0293638D01*
X0271668Y0293627D02*
X0273051Y0293627D01*
X0273076Y0293627D02*
X0273396Y0293627D01*
X0273366Y0293675D02*
X0273155Y0293675D01*
X0273128Y0293675D02*
X0271652Y0293675D01*
X0271635Y0293724D02*
X0273206Y0293724D01*
X0273233Y0293724D02*
X0273337Y0293724D01*
X0273357Y0293689D02*
X0273451Y0293539D01*
X0273522Y0293445D01*
X0273609Y0293346D01*
X0273715Y0293236D01*
X0273833Y0293134D01*
X0273951Y0293055D01*
X0274089Y0292969D01*
X0274215Y0292906D01*
X0274333Y0292862D01*
X0273699Y0291524D01*
X0273546Y0291610D01*
X0273412Y0291681D01*
X0273251Y0291768D01*
X0273070Y0291878D01*
X0272979Y0291945D01*
X0272522Y0292319D01*
X0272278Y0292610D01*
X0272144Y0292772D01*
X0272003Y0292961D01*
X0273310Y0293772D01*
X0273357Y0293689D01*
X0273284Y0293772D02*
X0271619Y0293772D01*
X0271603Y0293821D02*
X0273285Y0293821D01*
X0273263Y0293869D02*
X0271587Y0293869D01*
X0271571Y0293918D02*
X0273242Y0293918D01*
X0273220Y0293966D02*
X0271554Y0293966D01*
X0271541Y0294015D02*
X0273199Y0294015D01*
X0273181Y0294063D02*
X0271528Y0294063D01*
X0271515Y0294112D02*
X0273164Y0294112D01*
X0273148Y0294160D02*
X0271501Y0294160D01*
X0271488Y0294209D02*
X0273137Y0294209D01*
X0273126Y0294257D02*
X0271477Y0294257D01*
X0271466Y0294306D02*
X0273115Y0294306D01*
X0273104Y0294355D02*
X0271456Y0294355D01*
X0271451Y0294403D02*
X0273093Y0294403D01*
X0273082Y0294452D02*
X0271446Y0294452D01*
X0271441Y0294500D02*
X0273071Y0294500D01*
X0273062Y0294549D02*
X0271436Y0294549D01*
X0271431Y0294597D02*
X0273054Y0294597D01*
X0273047Y0294646D02*
X0271425Y0294646D01*
X0271420Y0294694D02*
X0273043Y0294694D01*
X0273040Y0294743D02*
X0271415Y0294743D01*
X0271411Y0294791D02*
X0273037Y0294791D01*
X0273034Y0294840D02*
X0271406Y0294840D01*
X0271401Y0294888D02*
X0273031Y0294888D01*
X0273029Y0294937D02*
X0271399Y0294937D01*
X0271398Y0294985D02*
X0273027Y0294985D01*
X0273027Y0295034D02*
X0271397Y0295034D01*
X0271392Y0295079D02*
X0273034Y0295161D01*
X0273058Y0295433D01*
X0273073Y0295547D01*
X0273101Y0295673D01*
X0273133Y0295803D01*
X0273184Y0295965D01*
X0273235Y0296087D01*
X0273302Y0296228D01*
X0273377Y0296366D01*
X0273436Y0296453D01*
X0273526Y0296571D01*
X0273652Y0296713D01*
X0273861Y0296882D01*
X0273971Y0296961D01*
X0274113Y0297039D01*
X0273121Y0298224D01*
X0272983Y0298130D01*
X0272790Y0297972D01*
X0272680Y0297878D01*
X0272585Y0297795D01*
X0272514Y0297732D01*
X0272416Y0297622D01*
X0272278Y0297457D01*
X0272152Y0297303D01*
X0272066Y0297189D01*
X0271991Y0297083D01*
X0271920Y0296961D01*
X0271857Y0296846D01*
X0271699Y0296539D01*
X0271589Y0296228D01*
X0271562Y0296134D01*
X0271562Y0296138D01*
X0271455Y0295744D01*
X0271432Y0295504D01*
X0271404Y0295236D01*
X0271392Y0295079D01*
X0271393Y0295082D02*
X0271461Y0295082D01*
X0271396Y0295131D02*
X0272424Y0295131D01*
X0272867Y0295131D02*
X0273030Y0295131D01*
X0273036Y0295179D02*
X0271400Y0295179D01*
X0271404Y0295228D02*
X0273040Y0295228D01*
X0273044Y0295276D02*
X0271408Y0295276D01*
X0271413Y0295325D02*
X0273048Y0295325D01*
X0273053Y0295373D02*
X0271418Y0295373D01*
X0271423Y0295422D02*
X0273057Y0295422D01*
X0273063Y0295470D02*
X0271428Y0295470D01*
X0271433Y0295519D02*
X0273070Y0295519D01*
X0273078Y0295567D02*
X0271438Y0295567D01*
X0271443Y0295616D02*
X0273088Y0295616D01*
X0273099Y0295664D02*
X0271448Y0295664D01*
X0271452Y0295713D02*
X0273111Y0295713D01*
X0273122Y0295761D02*
X0271460Y0295761D01*
X0271473Y0295810D02*
X0273135Y0295810D01*
X0273150Y0295858D02*
X0271486Y0295858D01*
X0271499Y0295907D02*
X0273165Y0295907D01*
X0273181Y0295955D02*
X0271512Y0295955D01*
X0271526Y0296004D02*
X0273200Y0296004D01*
X0273221Y0296052D02*
X0271539Y0296052D01*
X0271552Y0296101D02*
X0273242Y0296101D01*
X0273265Y0296149D02*
X0271566Y0296149D01*
X0271580Y0296198D02*
X0273287Y0296198D01*
X0273312Y0296246D02*
X0271596Y0296246D01*
X0271613Y0296295D02*
X0273338Y0296295D01*
X0273364Y0296343D02*
X0271630Y0296343D01*
X0271647Y0296392D02*
X0273394Y0296392D01*
X0273427Y0296441D02*
X0271664Y0296441D01*
X0271682Y0296489D02*
X0273463Y0296489D01*
X0273501Y0296538D02*
X0271699Y0296538D01*
X0271723Y0296586D02*
X0273540Y0296586D01*
X0273583Y0296635D02*
X0271748Y0296635D01*
X0271773Y0296683D02*
X0273626Y0296683D01*
X0273676Y0296732D02*
X0271798Y0296732D01*
X0271823Y0296780D02*
X0273735Y0296780D01*
X0273795Y0296829D02*
X0271848Y0296829D01*
X0271874Y0296877D02*
X0273855Y0296877D01*
X0273922Y0296926D02*
X0271901Y0296926D01*
X0271928Y0296974D02*
X0273995Y0296974D01*
X0274083Y0297023D02*
X0271956Y0297023D01*
X0271984Y0297071D02*
X0274086Y0297071D01*
X0274098Y0297071D02*
X0274182Y0297071D01*
X0274243Y0297098D02*
X0274381Y0297154D01*
X0274542Y0297193D01*
X0274739Y0297228D01*
X0274904Y0297244D01*
X0275089Y0297252D01*
X0275156Y0297252D01*
X0275278Y0297240D01*
X0275361Y0297232D01*
X0275479Y0297209D01*
X0275530Y0297197D01*
X0275625Y0297173D01*
X0275711Y0297138D01*
X0275825Y0297091D01*
X0275936Y0297031D01*
X0276038Y0296969D01*
X0276156Y0296878D01*
X0276255Y0296787D01*
X0276353Y0296689D01*
X0276385Y0296654D01*
X0276385Y0298854D01*
X0275310Y0298854D01*
X0274664Y0298803D01*
X0274400Y0298760D01*
X0273908Y0298614D01*
X0273640Y0298512D01*
X0273400Y0298382D01*
X0273140Y0298236D01*
X0273133Y0298232D01*
X0274121Y0297043D01*
X0274243Y0297098D01*
X0274296Y0297120D02*
X0274057Y0297120D01*
X0274046Y0297120D02*
X0272017Y0297120D01*
X0272051Y0297168D02*
X0274005Y0297168D01*
X0274017Y0297168D02*
X0274441Y0297168D01*
X0274674Y0297217D02*
X0273977Y0297217D01*
X0273964Y0297217D02*
X0272087Y0297217D01*
X0272123Y0297265D02*
X0273924Y0297265D01*
X0273936Y0297265D02*
X0276385Y0297265D01*
X0276396Y0297265D02*
X0279538Y0297265D01*
X0279550Y0297265D02*
X0285853Y0297265D01*
X0285861Y0297265D02*
X0289203Y0297265D01*
X0289215Y0297265D02*
X0292018Y0297265D01*
X0292018Y0297256D02*
X0292018Y0298756D01*
X0291176Y0298854D01*
X0289219Y0298854D01*
X0289215Y0298854D01*
X0289215Y0297201D01*
X0291412Y0297201D01*
X0291774Y0297256D01*
X0292018Y0297256D01*
X0292030Y0297248D02*
X0294270Y0297248D01*
X0293971Y0297618D01*
X0293822Y0297776D01*
X0293664Y0297906D01*
X0293491Y0298047D01*
X0293361Y0298157D01*
X0293192Y0298260D01*
X0292861Y0298441D01*
X0292605Y0298571D01*
X0292396Y0298638D01*
X0292030Y0298752D01*
X0292030Y0297248D01*
X0292034Y0297244D02*
X0292038Y0297240D01*
X0294274Y0297240D01*
X0294369Y0297114D01*
X0294491Y0296894D01*
X0294644Y0296610D01*
X0294723Y0296417D01*
X0294833Y0296071D01*
X0292034Y0296067D01*
X0292034Y0297244D01*
X0292030Y0297265D02*
X0294256Y0297265D01*
X0294292Y0297217D02*
X0292034Y0297217D01*
X0292034Y0297168D02*
X0294328Y0297168D01*
X0294365Y0297120D02*
X0292034Y0297120D01*
X0292034Y0297071D02*
X0294393Y0297071D01*
X0294419Y0297023D02*
X0292034Y0297023D01*
X0292034Y0296974D02*
X0294446Y0296974D01*
X0294473Y0296926D02*
X0292034Y0296926D01*
X0292034Y0296877D02*
X0294500Y0296877D01*
X0294526Y0296829D02*
X0292034Y0296829D01*
X0292034Y0296780D02*
X0294552Y0296780D01*
X0294579Y0296732D02*
X0292034Y0296732D01*
X0292034Y0296683D02*
X0294605Y0296683D01*
X0294631Y0296635D02*
X0292034Y0296635D01*
X0292034Y0296586D02*
X0294654Y0296586D01*
X0294674Y0296538D02*
X0292034Y0296538D01*
X0292034Y0296489D02*
X0294694Y0296489D01*
X0294714Y0296441D02*
X0292034Y0296441D01*
X0292034Y0296392D02*
X0294731Y0296392D01*
X0294747Y0296343D02*
X0292034Y0296343D01*
X0292034Y0296295D02*
X0294762Y0296295D01*
X0294777Y0296246D02*
X0292034Y0296246D01*
X0292034Y0296198D02*
X0294793Y0296198D01*
X0294808Y0296149D02*
X0292034Y0296149D01*
X0292034Y0296101D02*
X0294824Y0296101D01*
X0294837Y0296059D02*
X0292034Y0296059D01*
X0292030Y0296055D01*
X0292030Y0293929D01*
X0294810Y0293933D01*
X0294888Y0294185D01*
X0294924Y0294370D01*
X0294987Y0294980D01*
X0294963Y0295323D01*
X0294920Y0295720D01*
X0294900Y0295846D01*
X0294853Y0296000D01*
X0294837Y0296059D01*
X0294839Y0296052D02*
X0292030Y0296052D01*
X0292022Y0296051D02*
X0292018Y0296051D01*
X0291782Y0296035D01*
X0291562Y0295992D01*
X0291444Y0295953D01*
X0291302Y0295854D01*
X0291152Y0295720D01*
X0291062Y0295543D01*
X0290979Y0295343D01*
X0290944Y0295047D01*
X0290944Y0294890D01*
X0291007Y0294531D01*
X0291109Y0294335D01*
X0291215Y0294177D01*
X0291369Y0294059D01*
X0291573Y0293972D01*
X0291759Y0293937D01*
X0292022Y0293937D01*
X0292022Y0296051D01*
X0292022Y0296004D02*
X0291622Y0296004D01*
X0291451Y0295955D02*
X0292022Y0295955D01*
X0292030Y0295955D02*
X0294867Y0295955D01*
X0294882Y0295907D02*
X0292030Y0295907D01*
X0292022Y0295907D02*
X0291377Y0295907D01*
X0291308Y0295858D02*
X0292022Y0295858D01*
X0292030Y0295858D02*
X0294897Y0295858D01*
X0294906Y0295810D02*
X0292030Y0295810D01*
X0292022Y0295810D02*
X0291252Y0295810D01*
X0291198Y0295761D02*
X0292022Y0295761D01*
X0292030Y0295761D02*
X0294914Y0295761D01*
X0294921Y0295713D02*
X0292030Y0295713D01*
X0292022Y0295713D02*
X0291148Y0295713D01*
X0291124Y0295664D02*
X0292022Y0295664D01*
X0292030Y0295664D02*
X0294926Y0295664D01*
X0294931Y0295616D02*
X0292030Y0295616D01*
X0292022Y0295616D02*
X0291099Y0295616D01*
X0291074Y0295567D02*
X0292022Y0295567D01*
X0292030Y0295567D02*
X0294937Y0295567D01*
X0294942Y0295519D02*
X0292030Y0295519D01*
X0292022Y0295519D02*
X0291052Y0295519D01*
X0291032Y0295470D02*
X0292022Y0295470D01*
X0292030Y0295470D02*
X0294947Y0295470D01*
X0294952Y0295422D02*
X0292030Y0295422D01*
X0292022Y0295422D02*
X0291012Y0295422D01*
X0290992Y0295373D02*
X0292022Y0295373D01*
X0292030Y0295373D02*
X0294958Y0295373D01*
X0294963Y0295325D02*
X0292030Y0295325D01*
X0292022Y0295325D02*
X0290977Y0295325D01*
X0290971Y0295276D02*
X0292022Y0295276D01*
X0292030Y0295276D02*
X0294966Y0295276D01*
X0294970Y0295228D02*
X0292030Y0295228D01*
X0292022Y0295228D02*
X0290965Y0295228D01*
X0290959Y0295179D02*
X0292022Y0295179D01*
X0292030Y0295179D02*
X0294973Y0295179D01*
X0294977Y0295131D02*
X0292030Y0295131D01*
X0292022Y0295131D02*
X0290954Y0295131D01*
X0290948Y0295082D02*
X0292022Y0295082D01*
X0292030Y0295082D02*
X0294980Y0295082D01*
X0294983Y0295034D02*
X0292030Y0295034D01*
X0292022Y0295034D02*
X0290944Y0295034D01*
X0290944Y0294985D02*
X0292022Y0294985D01*
X0292030Y0294985D02*
X0294987Y0294985D01*
X0294982Y0294937D02*
X0292030Y0294937D01*
X0292022Y0294937D02*
X0290944Y0294937D01*
X0290944Y0294888D02*
X0292022Y0294888D01*
X0292030Y0294888D02*
X0294977Y0294888D01*
X0294972Y0294840D02*
X0292030Y0294840D01*
X0292022Y0294840D02*
X0290952Y0294840D01*
X0290961Y0294791D02*
X0292022Y0294791D01*
X0292030Y0294791D02*
X0294967Y0294791D01*
X0294962Y0294743D02*
X0292030Y0294743D01*
X0292022Y0294743D02*
X0290969Y0294743D01*
X0290978Y0294694D02*
X0292022Y0294694D01*
X0292030Y0294694D02*
X0294957Y0294694D01*
X0294952Y0294646D02*
X0292030Y0294646D01*
X0292022Y0294646D02*
X0290987Y0294646D01*
X0290995Y0294597D02*
X0292022Y0294597D01*
X0292030Y0294597D02*
X0294947Y0294597D01*
X0294942Y0294549D02*
X0292030Y0294549D01*
X0292022Y0294549D02*
X0291004Y0294549D01*
X0291023Y0294500D02*
X0292022Y0294500D01*
X0292030Y0294500D02*
X0294937Y0294500D01*
X0294932Y0294452D02*
X0292030Y0294452D01*
X0292022Y0294452D02*
X0291048Y0294452D01*
X0291073Y0294403D02*
X0292022Y0294403D01*
X0292030Y0294403D02*
X0294927Y0294403D01*
X0294921Y0294355D02*
X0292030Y0294355D01*
X0292022Y0294355D02*
X0291099Y0294355D01*
X0291128Y0294306D02*
X0292022Y0294306D01*
X0292030Y0294306D02*
X0294912Y0294306D01*
X0294902Y0294257D02*
X0292030Y0294257D01*
X0292022Y0294257D02*
X0291161Y0294257D01*
X0291194Y0294209D02*
X0292022Y0294209D01*
X0292030Y0294209D02*
X0294893Y0294209D01*
X0294881Y0294160D02*
X0292030Y0294160D01*
X0292022Y0294160D02*
X0291237Y0294160D01*
X0291300Y0294112D02*
X0292022Y0294112D01*
X0292030Y0294112D02*
X0294866Y0294112D01*
X0294850Y0294063D02*
X0292030Y0294063D01*
X0292022Y0294063D02*
X0291363Y0294063D01*
X0291473Y0294015D02*
X0292022Y0294015D01*
X0292030Y0294015D02*
X0294835Y0294015D01*
X0294820Y0293966D02*
X0292030Y0293966D01*
X0292022Y0293966D02*
X0291605Y0293966D01*
X0292034Y0293925D02*
X0292038Y0293929D01*
X0294810Y0293929D01*
X0294739Y0293701D01*
X0294692Y0293567D01*
X0294538Y0293272D01*
X0294302Y0292858D01*
X0294215Y0292744D01*
X0292034Y0292744D01*
X0292034Y0293925D01*
X0292034Y0293918D02*
X0294806Y0293918D01*
X0294791Y0293869D02*
X0292034Y0293869D01*
X0292034Y0293821D02*
X0294776Y0293821D01*
X0294761Y0293772D02*
X0292034Y0293772D01*
X0292034Y0293724D02*
X0294746Y0293724D01*
X0294730Y0293675D02*
X0292034Y0293675D01*
X0292034Y0293627D02*
X0294713Y0293627D01*
X0294696Y0293578D02*
X0292034Y0293578D01*
X0292034Y0293530D02*
X0294672Y0293530D01*
X0294647Y0293481D02*
X0292034Y0293481D01*
X0292034Y0293433D02*
X0294622Y0293433D01*
X0294597Y0293384D02*
X0292034Y0293384D01*
X0292034Y0293336D02*
X0294571Y0293336D01*
X0294546Y0293287D02*
X0292034Y0293287D01*
X0292034Y0293239D02*
X0294519Y0293239D01*
X0294492Y0293190D02*
X0292034Y0293190D01*
X0292034Y0293142D02*
X0294464Y0293142D01*
X0294436Y0293093D02*
X0292034Y0293093D01*
X0292034Y0293045D02*
X0294408Y0293045D01*
X0294381Y0292996D02*
X0292034Y0292996D01*
X0292034Y0292948D02*
X0294353Y0292948D01*
X0294325Y0292899D02*
X0292034Y0292899D01*
X0292034Y0292851D02*
X0294296Y0292851D01*
X0294259Y0292802D02*
X0292034Y0292802D01*
X0292034Y0292754D02*
X0294222Y0292754D01*
X0294199Y0292728D02*
X0293963Y0292445D01*
X0293794Y0292272D01*
X0293499Y0292024D01*
X0293255Y0291839D01*
X0292995Y0291697D01*
X0292770Y0291579D01*
X0292526Y0291472D01*
X0292251Y0291390D01*
X0292007Y0291319D01*
X0291936Y0291295D01*
X0291475Y0291252D01*
X0291475Y0292776D01*
X0291483Y0292776D01*
X0291617Y0292752D01*
X0291786Y0292736D01*
X0291979Y0292728D01*
X0294199Y0292728D01*
X0294180Y0292705D02*
X0291475Y0292705D01*
X0291467Y0292705D02*
X0287144Y0292705D01*
X0287125Y0292705D02*
X0283629Y0292705D01*
X0283617Y0292705D02*
X0280688Y0292705D01*
X0280676Y0292705D02*
X0277852Y0292705D01*
X0277852Y0292657D02*
X0280676Y0292657D01*
X0280688Y0292657D02*
X0283617Y0292657D01*
X0283629Y0292657D02*
X0287125Y0292657D01*
X0287144Y0292657D02*
X0291467Y0292657D01*
X0291475Y0292657D02*
X0294140Y0292657D01*
X0294099Y0292608D02*
X0291475Y0292608D01*
X0291467Y0292608D02*
X0287144Y0292608D01*
X0287125Y0292608D02*
X0283629Y0292608D01*
X0283617Y0292608D02*
X0280688Y0292608D01*
X0280676Y0292608D02*
X0277852Y0292608D01*
X0277852Y0292560D02*
X0280676Y0292560D01*
X0280688Y0292560D02*
X0283617Y0292560D01*
X0283629Y0292560D02*
X0287125Y0292560D01*
X0287144Y0292560D02*
X0291467Y0292560D01*
X0291475Y0292560D02*
X0294059Y0292560D01*
X0294018Y0292511D02*
X0291475Y0292511D01*
X0291467Y0292511D02*
X0287144Y0292511D01*
X0287125Y0292511D02*
X0283629Y0292511D01*
X0283617Y0292511D02*
X0280688Y0292511D01*
X0280676Y0292511D02*
X0277852Y0292511D01*
X0277852Y0292463D02*
X0280676Y0292463D01*
X0280688Y0292463D02*
X0283618Y0292463D01*
X0283629Y0292463D02*
X0287125Y0292463D01*
X0287144Y0292463D02*
X0291467Y0292463D01*
X0291475Y0292463D02*
X0293978Y0292463D01*
X0293933Y0292414D02*
X0291475Y0292414D01*
X0291467Y0292414D02*
X0287143Y0292414D01*
X0287125Y0292414D02*
X0283629Y0292414D01*
X0283618Y0292414D02*
X0280688Y0292414D01*
X0280676Y0292414D02*
X0277852Y0292414D01*
X0277852Y0292366D02*
X0280676Y0292366D01*
X0280688Y0292366D02*
X0283618Y0292366D01*
X0283629Y0292366D02*
X0287125Y0292366D01*
X0287143Y0292366D02*
X0291467Y0292366D01*
X0291475Y0292366D02*
X0293886Y0292366D01*
X0293838Y0292317D02*
X0291475Y0292317D01*
X0291467Y0292317D02*
X0287143Y0292317D01*
X0287125Y0292317D02*
X0283629Y0292317D01*
X0283618Y0292317D02*
X0280688Y0292317D01*
X0280676Y0292317D02*
X0277852Y0292317D01*
X0277852Y0292269D02*
X0280676Y0292269D01*
X0280688Y0292269D02*
X0283618Y0292269D01*
X0283629Y0292269D02*
X0287125Y0292269D01*
X0287143Y0292269D02*
X0291467Y0292269D01*
X0291475Y0292269D02*
X0293790Y0292269D01*
X0293732Y0292220D02*
X0291475Y0292220D01*
X0291467Y0292220D02*
X0287143Y0292220D01*
X0287125Y0292220D02*
X0283629Y0292220D01*
X0283618Y0292220D02*
X0280688Y0292220D01*
X0280676Y0292220D02*
X0277852Y0292220D01*
X0277852Y0292172D02*
X0280676Y0292172D01*
X0280688Y0292172D02*
X0283618Y0292172D01*
X0283629Y0292172D02*
X0287125Y0292172D01*
X0287143Y0292172D02*
X0291467Y0292172D01*
X0291475Y0292172D02*
X0293675Y0292172D01*
X0293617Y0292123D02*
X0291475Y0292123D01*
X0291467Y0292123D02*
X0287143Y0292123D01*
X0287125Y0292123D02*
X0283629Y0292123D01*
X0283618Y0292123D02*
X0280688Y0292123D01*
X0280676Y0292123D02*
X0277852Y0292123D01*
X0277852Y0292074D02*
X0280676Y0292074D01*
X0280688Y0292074D02*
X0283619Y0292074D01*
X0283629Y0292074D02*
X0287125Y0292074D01*
X0287143Y0292074D02*
X0291467Y0292074D01*
X0291475Y0292074D02*
X0293559Y0292074D01*
X0293501Y0292026D02*
X0291475Y0292026D01*
X0291467Y0292026D02*
X0287142Y0292026D01*
X0287125Y0292026D02*
X0283629Y0292026D01*
X0283619Y0292026D02*
X0280688Y0292026D01*
X0280676Y0292026D02*
X0277852Y0292026D01*
X0277853Y0291977D02*
X0280676Y0291977D01*
X0280688Y0291977D02*
X0283619Y0291977D01*
X0283629Y0291977D02*
X0287125Y0291977D01*
X0287142Y0291977D02*
X0291467Y0291977D01*
X0291475Y0291977D02*
X0293438Y0291977D01*
X0293374Y0291929D02*
X0291475Y0291929D01*
X0291467Y0291929D02*
X0287142Y0291929D01*
X0287125Y0291929D02*
X0283629Y0291929D01*
X0283619Y0291929D02*
X0280688Y0291929D01*
X0280676Y0291929D02*
X0277853Y0291929D01*
X0277853Y0291880D02*
X0280676Y0291880D01*
X0280688Y0291880D02*
X0283619Y0291880D01*
X0283629Y0291880D02*
X0287125Y0291880D01*
X0287142Y0291880D02*
X0291467Y0291880D01*
X0291475Y0291880D02*
X0293310Y0291880D01*
X0293242Y0291832D02*
X0291475Y0291832D01*
X0291467Y0291832D02*
X0287142Y0291832D01*
X0287125Y0291832D02*
X0283629Y0291832D01*
X0283619Y0291832D02*
X0280688Y0291832D01*
X0280676Y0291832D02*
X0277853Y0291832D01*
X0277853Y0291783D02*
X0280676Y0291783D01*
X0280688Y0291783D02*
X0283619Y0291783D01*
X0283629Y0291783D02*
X0287125Y0291783D01*
X0287142Y0291783D02*
X0291467Y0291783D01*
X0291475Y0291783D02*
X0293153Y0291783D01*
X0293065Y0291735D02*
X0291475Y0291735D01*
X0291467Y0291735D02*
X0287142Y0291735D01*
X0287125Y0291735D02*
X0283629Y0291735D01*
X0283619Y0291735D02*
X0280688Y0291735D01*
X0280676Y0291735D02*
X0277853Y0291735D01*
X0277853Y0291686D02*
X0280676Y0291686D01*
X0280688Y0291686D02*
X0283620Y0291686D01*
X0283629Y0291686D02*
X0287125Y0291686D01*
X0287142Y0291686D02*
X0291467Y0291686D01*
X0291475Y0291686D02*
X0292975Y0291686D01*
X0292883Y0291638D02*
X0291475Y0291638D01*
X0291467Y0291638D02*
X0287141Y0291638D01*
X0287125Y0291638D02*
X0283629Y0291638D01*
X0283620Y0291638D02*
X0280688Y0291638D01*
X0280676Y0291638D02*
X0277853Y0291638D01*
X0277853Y0291589D02*
X0280676Y0291589D01*
X0280688Y0291589D02*
X0283620Y0291589D01*
X0283629Y0291589D02*
X0287125Y0291589D01*
X0287141Y0291589D02*
X0291467Y0291589D01*
X0291475Y0291589D02*
X0292791Y0291589D01*
X0292683Y0291541D02*
X0291475Y0291541D01*
X0291467Y0291541D02*
X0287141Y0291541D01*
X0287125Y0291541D02*
X0283629Y0291541D01*
X0283620Y0291541D02*
X0280688Y0291541D01*
X0280676Y0291541D02*
X0277853Y0291541D01*
X0277853Y0291492D02*
X0280676Y0291492D01*
X0280688Y0291492D02*
X0283620Y0291492D01*
X0283629Y0291492D02*
X0287125Y0291492D01*
X0287141Y0291492D02*
X0291467Y0291492D01*
X0291475Y0291492D02*
X0292572Y0291492D01*
X0292431Y0291444D02*
X0291475Y0291444D01*
X0291467Y0291444D02*
X0287141Y0291444D01*
X0287125Y0291444D02*
X0283629Y0291444D01*
X0283620Y0291444D02*
X0280688Y0291444D01*
X0280676Y0291444D02*
X0277853Y0291444D01*
X0277853Y0291395D02*
X0280676Y0291395D01*
X0280688Y0291395D02*
X0283620Y0291395D01*
X0283629Y0291395D02*
X0287125Y0291395D01*
X0287141Y0291395D02*
X0291467Y0291395D01*
X0291475Y0291395D02*
X0292269Y0291395D01*
X0292103Y0291347D02*
X0291475Y0291347D01*
X0291467Y0291347D02*
X0287141Y0291347D01*
X0287125Y0291347D02*
X0283629Y0291347D01*
X0283620Y0291347D02*
X0280688Y0291347D01*
X0280676Y0291347D02*
X0277853Y0291347D01*
X0277853Y0291298D02*
X0280676Y0291298D01*
X0280688Y0291298D02*
X0283621Y0291298D01*
X0283629Y0291298D02*
X0287125Y0291298D01*
X0287141Y0291298D02*
X0291467Y0291298D01*
X0291475Y0291298D02*
X0291945Y0291298D01*
X0291467Y0291250D02*
X0287140Y0291250D01*
X0287125Y0291250D02*
X0283629Y0291250D01*
X0283621Y0291250D02*
X0280688Y0291250D01*
X0280676Y0291250D02*
X0277853Y0291250D01*
X0277853Y0291228D02*
X0280676Y0291228D01*
X0280676Y0292780D01*
X0279688Y0292780D01*
X0278070Y0297205D01*
X0277849Y0297205D01*
X0277849Y0297201D01*
X0277853Y0291228D01*
X0276381Y0291217D02*
X0275176Y0291217D01*
X0274503Y0291283D01*
X0273715Y0291516D01*
X0274341Y0292858D01*
X0274585Y0292783D01*
X0274825Y0292744D01*
X0274967Y0292732D01*
X0275085Y0292728D01*
X0275203Y0292728D01*
X0275345Y0292744D01*
X0275471Y0292764D01*
X0275585Y0292791D01*
X0275731Y0292839D01*
X0275841Y0292886D01*
X0275959Y0292953D01*
X0276046Y0293007D01*
X0276121Y0293067D01*
X0276211Y0293142D01*
X0276381Y0293142D01*
X0276381Y0293190D02*
X0276257Y0293190D01*
X0276286Y0293220D02*
X0276325Y0293276D01*
X0276349Y0293315D01*
X0276377Y0293362D01*
X0276381Y0293358D01*
X0276381Y0291217D01*
X0276381Y0291250D02*
X0274841Y0291250D01*
X0274452Y0291298D02*
X0276381Y0291298D01*
X0276381Y0291347D02*
X0274288Y0291347D01*
X0274123Y0291395D02*
X0276381Y0291395D01*
X0276381Y0291444D02*
X0273959Y0291444D01*
X0273795Y0291492D02*
X0276381Y0291492D01*
X0276381Y0291541D02*
X0273727Y0291541D01*
X0273708Y0291541D02*
X0273669Y0291541D01*
X0273731Y0291589D02*
X0273583Y0291589D01*
X0273494Y0291638D02*
X0273754Y0291638D01*
X0273772Y0291638D02*
X0276381Y0291638D01*
X0276381Y0291686D02*
X0273795Y0291686D01*
X0273777Y0291686D02*
X0273402Y0291686D01*
X0273312Y0291735D02*
X0273800Y0291735D01*
X0273817Y0291735D02*
X0276381Y0291735D01*
X0276381Y0291783D02*
X0273840Y0291783D01*
X0273823Y0291783D02*
X0273225Y0291783D01*
X0273145Y0291832D02*
X0273845Y0291832D01*
X0273863Y0291832D02*
X0276381Y0291832D01*
X0276381Y0291880D02*
X0273885Y0291880D01*
X0273868Y0291880D02*
X0273066Y0291880D01*
X0273001Y0291929D02*
X0273891Y0291929D01*
X0273908Y0291929D02*
X0276381Y0291929D01*
X0276381Y0291977D02*
X0273930Y0291977D01*
X0273914Y0291977D02*
X0272939Y0291977D01*
X0272880Y0292026D02*
X0273937Y0292026D01*
X0273953Y0292026D02*
X0276381Y0292026D01*
X0276381Y0292074D02*
X0273976Y0292074D01*
X0273960Y0292074D02*
X0272821Y0292074D01*
X0272762Y0292123D02*
X0273983Y0292123D01*
X0273998Y0292123D02*
X0276381Y0292123D01*
X0276381Y0292172D02*
X0274021Y0292172D01*
X0274006Y0292172D02*
X0272702Y0292172D01*
X0272643Y0292220D02*
X0274029Y0292220D01*
X0274044Y0292220D02*
X0276381Y0292220D01*
X0276381Y0292269D02*
X0274066Y0292269D01*
X0274052Y0292269D02*
X0272584Y0292269D01*
X0272525Y0292317D02*
X0274075Y0292317D01*
X0274089Y0292317D02*
X0276381Y0292317D01*
X0276381Y0292366D02*
X0274111Y0292366D01*
X0274098Y0292366D02*
X0272483Y0292366D01*
X0272443Y0292414D02*
X0274121Y0292414D01*
X0274134Y0292414D02*
X0276381Y0292414D01*
X0276381Y0292463D02*
X0274157Y0292463D01*
X0274144Y0292463D02*
X0272402Y0292463D01*
X0272361Y0292511D02*
X0274167Y0292511D01*
X0274179Y0292511D02*
X0276381Y0292511D01*
X0276381Y0292560D02*
X0274202Y0292560D01*
X0274190Y0292560D02*
X0272321Y0292560D01*
X0272280Y0292608D02*
X0274213Y0292608D01*
X0274225Y0292608D02*
X0276381Y0292608D01*
X0276381Y0292657D02*
X0274247Y0292657D01*
X0274236Y0292657D02*
X0272240Y0292657D01*
X0272200Y0292705D02*
X0274259Y0292705D01*
X0274270Y0292705D02*
X0276381Y0292705D01*
X0276381Y0292754D02*
X0275406Y0292754D01*
X0275619Y0292802D02*
X0276381Y0292802D01*
X0276381Y0292851D02*
X0275759Y0292851D01*
X0275865Y0292899D02*
X0276381Y0292899D01*
X0276381Y0292948D02*
X0275950Y0292948D01*
X0276028Y0292996D02*
X0276381Y0292996D01*
X0276381Y0293045D02*
X0276093Y0293045D01*
X0276153Y0293093D02*
X0276381Y0293093D01*
X0276381Y0293239D02*
X0276299Y0293239D01*
X0276286Y0293220D02*
X0276211Y0293142D01*
X0276332Y0293287D02*
X0276381Y0293287D01*
X0276381Y0293336D02*
X0276361Y0293336D01*
X0275849Y0293976D02*
X0276022Y0294106D01*
X0276152Y0294248D01*
X0276266Y0294437D01*
X0276329Y0294626D01*
X0276365Y0294839D01*
X0276373Y0295059D01*
X0276341Y0295276D01*
X0274540Y0295276D01*
X0274531Y0295228D02*
X0276348Y0295228D01*
X0276341Y0295276D02*
X0276302Y0295445D01*
X0276219Y0295594D01*
X0276077Y0295803D01*
X0275916Y0295925D01*
X0275723Y0296012D01*
X0275530Y0296051D01*
X0275329Y0296051D01*
X0275125Y0296004D01*
X0274940Y0295906D01*
X0274774Y0295780D01*
X0274774Y0295772D01*
X0274566Y0295425D01*
X0274495Y0295016D01*
X0274550Y0294606D01*
X0274633Y0294398D01*
X0274747Y0294213D01*
X0275034Y0293961D01*
X0275448Y0293878D01*
X0275849Y0293976D01*
X0275808Y0293966D02*
X0275027Y0293966D01*
X0274972Y0294015D02*
X0275900Y0294015D01*
X0275965Y0294063D02*
X0274917Y0294063D01*
X0274862Y0294112D02*
X0276027Y0294112D01*
X0276072Y0294160D02*
X0274806Y0294160D01*
X0274751Y0294209D02*
X0276116Y0294209D01*
X0276158Y0294257D02*
X0274719Y0294257D01*
X0274689Y0294306D02*
X0276187Y0294306D01*
X0276217Y0294355D02*
X0274659Y0294355D01*
X0274630Y0294403D02*
X0276246Y0294403D01*
X0276271Y0294452D02*
X0274611Y0294452D01*
X0274592Y0294500D02*
X0276287Y0294500D01*
X0276304Y0294549D02*
X0274573Y0294549D01*
X0274554Y0294597D02*
X0276320Y0294597D01*
X0276333Y0294646D02*
X0274545Y0294646D01*
X0274538Y0294694D02*
X0276341Y0294694D01*
X0276349Y0294743D02*
X0274532Y0294743D01*
X0274525Y0294791D02*
X0276357Y0294791D01*
X0276365Y0294840D02*
X0274518Y0294840D01*
X0274512Y0294888D02*
X0276367Y0294888D01*
X0276368Y0294937D02*
X0274505Y0294937D01*
X0274499Y0294985D02*
X0276370Y0294985D01*
X0276372Y0295034D02*
X0274498Y0295034D01*
X0274506Y0295082D02*
X0276369Y0295082D01*
X0276362Y0295131D02*
X0274515Y0295131D01*
X0274523Y0295179D02*
X0276355Y0295179D01*
X0276330Y0295325D02*
X0274548Y0295325D01*
X0274557Y0295373D02*
X0276318Y0295373D01*
X0276307Y0295422D02*
X0274565Y0295422D01*
X0274593Y0295470D02*
X0276288Y0295470D01*
X0276261Y0295519D02*
X0274622Y0295519D01*
X0274651Y0295567D02*
X0276234Y0295567D01*
X0276205Y0295616D02*
X0274680Y0295616D01*
X0274710Y0295664D02*
X0276172Y0295664D01*
X0276139Y0295713D02*
X0274739Y0295713D01*
X0274768Y0295761D02*
X0276106Y0295761D01*
X0276069Y0295810D02*
X0274814Y0295810D01*
X0274878Y0295858D02*
X0276004Y0295858D01*
X0275940Y0295907D02*
X0274942Y0295907D01*
X0275033Y0295955D02*
X0275849Y0295955D01*
X0275741Y0296004D02*
X0275125Y0296004D01*
X0275439Y0297217D02*
X0276385Y0297217D01*
X0276396Y0297217D02*
X0279538Y0297217D01*
X0279538Y0297209D02*
X0276396Y0297209D01*
X0276396Y0298854D01*
X0276388Y0298854D01*
X0279538Y0298854D01*
X0279538Y0297209D01*
X0279550Y0297209D02*
X0285853Y0297205D01*
X0285853Y0298854D01*
X0279554Y0298854D01*
X0279550Y0298854D01*
X0279550Y0297209D01*
X0279550Y0297217D02*
X0285853Y0297217D01*
X0285861Y0297217D02*
X0289203Y0297217D01*
X0289215Y0297217D02*
X0291517Y0297217D01*
X0291396Y0297189D02*
X0289211Y0297189D01*
X0289203Y0297193D01*
X0289203Y0292780D01*
X0291444Y0292780D01*
X0290794Y0292898D01*
X0290081Y0293346D01*
X0289629Y0294043D01*
X0289475Y0294862D01*
X0289475Y0295079D01*
X0289613Y0295890D01*
X0290109Y0296638D01*
X0290759Y0297063D01*
X0291396Y0297189D01*
X0291291Y0297168D02*
X0289203Y0297168D01*
X0289203Y0297201D02*
X0289199Y0298854D01*
X0285857Y0298850D01*
X0285861Y0298854D01*
X0285861Y0297201D01*
X0289203Y0297201D01*
X0289203Y0297120D02*
X0291045Y0297120D01*
X0290800Y0297071D02*
X0289203Y0297071D01*
X0289203Y0297023D02*
X0290697Y0297023D01*
X0290623Y0296974D02*
X0289203Y0296974D01*
X0289203Y0296926D02*
X0290549Y0296926D01*
X0290475Y0296877D02*
X0289203Y0296877D01*
X0289203Y0296829D02*
X0290400Y0296829D01*
X0290326Y0296780D02*
X0289203Y0296780D01*
X0289203Y0296732D02*
X0290252Y0296732D01*
X0290178Y0296683D02*
X0289203Y0296683D01*
X0289203Y0296635D02*
X0290107Y0296635D01*
X0290075Y0296586D02*
X0289203Y0296586D01*
X0289203Y0296538D02*
X0290042Y0296538D01*
X0290010Y0296489D02*
X0289203Y0296489D01*
X0289203Y0296441D02*
X0289978Y0296441D01*
X0289946Y0296392D02*
X0289203Y0296392D01*
X0289203Y0296343D02*
X0289914Y0296343D01*
X0289882Y0296295D02*
X0289203Y0296295D01*
X0289203Y0296246D02*
X0289849Y0296246D01*
X0289817Y0296198D02*
X0289203Y0296198D01*
X0289203Y0296149D02*
X0289785Y0296149D01*
X0289753Y0296101D02*
X0289203Y0296101D01*
X0289203Y0296052D02*
X0289721Y0296052D01*
X0289689Y0296004D02*
X0289203Y0296004D01*
X0289203Y0295955D02*
X0289656Y0295955D01*
X0289624Y0295907D02*
X0289203Y0295907D01*
X0289203Y0295858D02*
X0289608Y0295858D01*
X0289599Y0295810D02*
X0289203Y0295810D01*
X0289203Y0295761D02*
X0289591Y0295761D01*
X0289583Y0295713D02*
X0289203Y0295713D01*
X0289203Y0295664D02*
X0289575Y0295664D01*
X0289566Y0295616D02*
X0289203Y0295616D01*
X0289203Y0295567D02*
X0289558Y0295567D01*
X0289550Y0295519D02*
X0289203Y0295519D01*
X0289203Y0295470D02*
X0289542Y0295470D01*
X0289533Y0295422D02*
X0289203Y0295422D01*
X0289203Y0295373D02*
X0289525Y0295373D01*
X0289517Y0295325D02*
X0289203Y0295325D01*
X0289203Y0295276D02*
X0289509Y0295276D01*
X0289500Y0295228D02*
X0289203Y0295228D01*
X0289203Y0295179D02*
X0289492Y0295179D01*
X0289484Y0295131D02*
X0289203Y0295131D01*
X0289203Y0295082D02*
X0289476Y0295082D01*
X0289475Y0295034D02*
X0289203Y0295034D01*
X0289203Y0294985D02*
X0289475Y0294985D01*
X0289475Y0294937D02*
X0289203Y0294937D01*
X0289203Y0294888D02*
X0289475Y0294888D01*
X0289479Y0294840D02*
X0289203Y0294840D01*
X0289203Y0294791D02*
X0289488Y0294791D01*
X0289497Y0294743D02*
X0289203Y0294743D01*
X0289203Y0294694D02*
X0289507Y0294694D01*
X0289516Y0294646D02*
X0289203Y0294646D01*
X0289203Y0294597D02*
X0289525Y0294597D01*
X0289534Y0294549D02*
X0289203Y0294549D01*
X0289203Y0294500D02*
X0289543Y0294500D01*
X0289552Y0294452D02*
X0289203Y0294452D01*
X0289203Y0294403D02*
X0289561Y0294403D01*
X0289570Y0294355D02*
X0289203Y0294355D01*
X0289203Y0294306D02*
X0289579Y0294306D01*
X0289588Y0294257D02*
X0289203Y0294257D01*
X0289203Y0294209D02*
X0289598Y0294209D01*
X0289607Y0294160D02*
X0289203Y0294160D01*
X0289203Y0294112D02*
X0289616Y0294112D01*
X0289625Y0294063D02*
X0289203Y0294063D01*
X0289203Y0294015D02*
X0289647Y0294015D01*
X0289679Y0293966D02*
X0289203Y0293966D01*
X0289203Y0293918D02*
X0289710Y0293918D01*
X0289742Y0293869D02*
X0289203Y0293869D01*
X0289203Y0293821D02*
X0289773Y0293821D01*
X0289805Y0293772D02*
X0289203Y0293772D01*
X0289203Y0293724D02*
X0289836Y0293724D01*
X0289868Y0293675D02*
X0289203Y0293675D01*
X0289203Y0293627D02*
X0289899Y0293627D01*
X0289931Y0293578D02*
X0289203Y0293578D01*
X0289203Y0293530D02*
X0289962Y0293530D01*
X0289994Y0293481D02*
X0289203Y0293481D01*
X0289203Y0293433D02*
X0290025Y0293433D01*
X0290057Y0293384D02*
X0289203Y0293384D01*
X0289203Y0293336D02*
X0290098Y0293336D01*
X0290175Y0293287D02*
X0289203Y0293287D01*
X0289203Y0293239D02*
X0290252Y0293239D01*
X0290329Y0293190D02*
X0289203Y0293190D01*
X0289203Y0293142D02*
X0290406Y0293142D01*
X0290483Y0293093D02*
X0289203Y0293093D01*
X0289203Y0293045D02*
X0290560Y0293045D01*
X0290637Y0292996D02*
X0289203Y0292996D01*
X0289203Y0292948D02*
X0290715Y0292948D01*
X0290792Y0292899D02*
X0289203Y0292899D01*
X0289203Y0292851D02*
X0291052Y0292851D01*
X0291319Y0292802D02*
X0289203Y0292802D01*
X0287751Y0292802D02*
X0287467Y0292802D01*
X0287467Y0292791D02*
X0287751Y0292791D01*
X0287751Y0297197D01*
X0287471Y0297197D01*
X0287467Y0297197D01*
X0287467Y0292791D01*
X0287467Y0292851D02*
X0287751Y0292851D01*
X0287751Y0292899D02*
X0287467Y0292899D01*
X0287467Y0292948D02*
X0287751Y0292948D01*
X0287751Y0292996D02*
X0287467Y0292996D01*
X0287467Y0293045D02*
X0287751Y0293045D01*
X0287751Y0293093D02*
X0287467Y0293093D01*
X0287467Y0293142D02*
X0287751Y0293142D01*
X0287751Y0293190D02*
X0287467Y0293190D01*
X0287467Y0293239D02*
X0287751Y0293239D01*
X0287751Y0293287D02*
X0287467Y0293287D01*
X0287467Y0293336D02*
X0287751Y0293336D01*
X0287751Y0293384D02*
X0287467Y0293384D01*
X0287467Y0293433D02*
X0287751Y0293433D01*
X0287751Y0293481D02*
X0287467Y0293481D01*
X0287467Y0293530D02*
X0287751Y0293530D01*
X0287751Y0293578D02*
X0287467Y0293578D01*
X0287467Y0293627D02*
X0287751Y0293627D01*
X0287751Y0293675D02*
X0287467Y0293675D01*
X0287467Y0293724D02*
X0287751Y0293724D01*
X0287751Y0293772D02*
X0287467Y0293772D01*
X0287467Y0293821D02*
X0287751Y0293821D01*
X0287751Y0293869D02*
X0287467Y0293869D01*
X0287467Y0293918D02*
X0287751Y0293918D01*
X0287751Y0293966D02*
X0287467Y0293966D01*
X0287467Y0294015D02*
X0287751Y0294015D01*
X0287751Y0294063D02*
X0287467Y0294063D01*
X0287467Y0294112D02*
X0287751Y0294112D01*
X0287751Y0294160D02*
X0287467Y0294160D01*
X0287467Y0294209D02*
X0287751Y0294209D01*
X0287751Y0294257D02*
X0287467Y0294257D01*
X0287467Y0294306D02*
X0287751Y0294306D01*
X0287751Y0294355D02*
X0287467Y0294355D01*
X0287467Y0294403D02*
X0287751Y0294403D01*
X0287751Y0294452D02*
X0287467Y0294452D01*
X0287467Y0294500D02*
X0287751Y0294500D01*
X0287751Y0294549D02*
X0287467Y0294549D01*
X0287467Y0294597D02*
X0287751Y0294597D01*
X0287751Y0294646D02*
X0287467Y0294646D01*
X0287467Y0294694D02*
X0287751Y0294694D01*
X0287751Y0294743D02*
X0287467Y0294743D01*
X0287467Y0294791D02*
X0287751Y0294791D01*
X0287751Y0294840D02*
X0287467Y0294840D01*
X0287467Y0294888D02*
X0287751Y0294888D01*
X0287751Y0294937D02*
X0287467Y0294937D01*
X0287467Y0294985D02*
X0287751Y0294985D01*
X0287751Y0295034D02*
X0287467Y0295034D01*
X0287467Y0295082D02*
X0287751Y0295082D01*
X0287751Y0295131D02*
X0287467Y0295131D01*
X0287467Y0295179D02*
X0287751Y0295179D01*
X0287751Y0295228D02*
X0287467Y0295228D01*
X0287467Y0295276D02*
X0287751Y0295276D01*
X0287751Y0295325D02*
X0287467Y0295325D01*
X0287467Y0295373D02*
X0287751Y0295373D01*
X0287751Y0295422D02*
X0287467Y0295422D01*
X0287467Y0295470D02*
X0287751Y0295470D01*
X0287751Y0295519D02*
X0287467Y0295519D01*
X0287467Y0295567D02*
X0287751Y0295567D01*
X0287751Y0295616D02*
X0287467Y0295616D01*
X0287467Y0295664D02*
X0287751Y0295664D01*
X0287751Y0295713D02*
X0287467Y0295713D01*
X0287467Y0295761D02*
X0287751Y0295761D01*
X0287751Y0295810D02*
X0287467Y0295810D01*
X0287467Y0295858D02*
X0287751Y0295858D01*
X0287751Y0295907D02*
X0287467Y0295907D01*
X0287467Y0295955D02*
X0287751Y0295955D01*
X0287751Y0296004D02*
X0287467Y0296004D01*
X0287467Y0296052D02*
X0287751Y0296052D01*
X0287751Y0296101D02*
X0287467Y0296101D01*
X0287467Y0296149D02*
X0287751Y0296149D01*
X0287751Y0296198D02*
X0287467Y0296198D01*
X0287467Y0296246D02*
X0287751Y0296246D01*
X0287751Y0296295D02*
X0287467Y0296295D01*
X0287467Y0296343D02*
X0287751Y0296343D01*
X0287751Y0296392D02*
X0287467Y0296392D01*
X0287467Y0296441D02*
X0287751Y0296441D01*
X0287751Y0296489D02*
X0287467Y0296489D01*
X0287467Y0296538D02*
X0287751Y0296538D01*
X0287751Y0296586D02*
X0287467Y0296586D01*
X0287467Y0296635D02*
X0287751Y0296635D01*
X0287751Y0296683D02*
X0287467Y0296683D01*
X0287467Y0296732D02*
X0287751Y0296732D01*
X0287751Y0296780D02*
X0287467Y0296780D01*
X0287467Y0296829D02*
X0287751Y0296829D01*
X0287751Y0296877D02*
X0287467Y0296877D01*
X0287467Y0296926D02*
X0287751Y0296926D01*
X0287751Y0296974D02*
X0287467Y0296974D01*
X0287467Y0297023D02*
X0287751Y0297023D01*
X0287751Y0297071D02*
X0287467Y0297071D01*
X0287467Y0297120D02*
X0287751Y0297120D01*
X0287751Y0297168D02*
X0287467Y0297168D01*
X0286010Y0297168D02*
X0285848Y0297168D01*
X0285857Y0297193D02*
X0285861Y0297193D01*
X0286010Y0297193D01*
X0286010Y0292783D01*
X0284239Y0292783D01*
X0285857Y0297193D01*
X0285830Y0297120D02*
X0286010Y0297120D01*
X0286010Y0297071D02*
X0285812Y0297071D01*
X0285794Y0297023D02*
X0286010Y0297023D01*
X0286010Y0296974D02*
X0285777Y0296974D01*
X0285759Y0296926D02*
X0286010Y0296926D01*
X0286010Y0296877D02*
X0285741Y0296877D01*
X0285723Y0296829D02*
X0286010Y0296829D01*
X0286010Y0296780D02*
X0285705Y0296780D01*
X0285688Y0296732D02*
X0286010Y0296732D01*
X0286010Y0296683D02*
X0285670Y0296683D01*
X0285652Y0296635D02*
X0286010Y0296635D01*
X0286010Y0296586D02*
X0285634Y0296586D01*
X0285616Y0296538D02*
X0286010Y0296538D01*
X0286010Y0296489D02*
X0285599Y0296489D01*
X0285581Y0296441D02*
X0286010Y0296441D01*
X0286010Y0296392D02*
X0285563Y0296392D01*
X0285545Y0296343D02*
X0286010Y0296343D01*
X0286010Y0296295D02*
X0285527Y0296295D01*
X0285510Y0296246D02*
X0286010Y0296246D01*
X0286010Y0296198D02*
X0285492Y0296198D01*
X0285474Y0296149D02*
X0286010Y0296149D01*
X0286010Y0296101D02*
X0285456Y0296101D01*
X0285438Y0296052D02*
X0286010Y0296052D01*
X0286010Y0296004D02*
X0285421Y0296004D01*
X0285403Y0295955D02*
X0286010Y0295955D01*
X0286010Y0295907D02*
X0285385Y0295907D01*
X0285367Y0295858D02*
X0286010Y0295858D01*
X0286010Y0295810D02*
X0285349Y0295810D01*
X0285332Y0295761D02*
X0286010Y0295761D01*
X0286010Y0295713D02*
X0285314Y0295713D01*
X0285296Y0295664D02*
X0286010Y0295664D01*
X0286010Y0295616D02*
X0285278Y0295616D01*
X0285260Y0295567D02*
X0286010Y0295567D01*
X0286010Y0295519D02*
X0285243Y0295519D01*
X0285225Y0295470D02*
X0286010Y0295470D01*
X0286010Y0295422D02*
X0285207Y0295422D01*
X0285189Y0295373D02*
X0286010Y0295373D01*
X0286010Y0295325D02*
X0285171Y0295325D01*
X0285154Y0295276D02*
X0286010Y0295276D01*
X0286010Y0295228D02*
X0285136Y0295228D01*
X0285118Y0295179D02*
X0286010Y0295179D01*
X0286010Y0295131D02*
X0285100Y0295131D01*
X0285082Y0295082D02*
X0286010Y0295082D01*
X0286010Y0295034D02*
X0285065Y0295034D01*
X0285047Y0294985D02*
X0286010Y0294985D01*
X0286010Y0294937D02*
X0285029Y0294937D01*
X0285011Y0294888D02*
X0286010Y0294888D01*
X0286010Y0294840D02*
X0284993Y0294840D01*
X0284976Y0294791D02*
X0286010Y0294791D01*
X0286010Y0294743D02*
X0284958Y0294743D01*
X0284940Y0294694D02*
X0286010Y0294694D01*
X0286010Y0294646D02*
X0284922Y0294646D01*
X0284904Y0294597D02*
X0286010Y0294597D01*
X0286010Y0294549D02*
X0284887Y0294549D01*
X0284869Y0294500D02*
X0286010Y0294500D01*
X0286010Y0294452D02*
X0284851Y0294452D01*
X0284833Y0294403D02*
X0286010Y0294403D01*
X0286010Y0294355D02*
X0284815Y0294355D01*
X0284798Y0294306D02*
X0286010Y0294306D01*
X0286010Y0294257D02*
X0284780Y0294257D01*
X0284762Y0294209D02*
X0286010Y0294209D01*
X0286010Y0294160D02*
X0284744Y0294160D01*
X0284726Y0294112D02*
X0286010Y0294112D01*
X0286010Y0294063D02*
X0284709Y0294063D01*
X0284691Y0294015D02*
X0286010Y0294015D01*
X0286010Y0293966D02*
X0284673Y0293966D01*
X0284655Y0293918D02*
X0286010Y0293918D01*
X0286010Y0293869D02*
X0284637Y0293869D01*
X0284620Y0293821D02*
X0286010Y0293821D01*
X0286010Y0293772D02*
X0284602Y0293772D01*
X0284584Y0293724D02*
X0286010Y0293724D01*
X0286010Y0293675D02*
X0284566Y0293675D01*
X0284548Y0293627D02*
X0286010Y0293627D01*
X0286010Y0293578D02*
X0284531Y0293578D01*
X0284513Y0293530D02*
X0286010Y0293530D01*
X0286010Y0293481D02*
X0284495Y0293481D01*
X0284477Y0293433D02*
X0286010Y0293433D01*
X0286010Y0293384D02*
X0284459Y0293384D01*
X0284442Y0293336D02*
X0286010Y0293336D01*
X0286010Y0293287D02*
X0284424Y0293287D01*
X0284406Y0293239D02*
X0286010Y0293239D01*
X0286010Y0293190D02*
X0284388Y0293190D01*
X0284370Y0293142D02*
X0286010Y0293142D01*
X0286010Y0293093D02*
X0284353Y0293093D01*
X0284335Y0293045D02*
X0286010Y0293045D01*
X0286010Y0292996D02*
X0284317Y0292996D01*
X0284299Y0292948D02*
X0286010Y0292948D01*
X0286010Y0292899D02*
X0284281Y0292899D01*
X0284264Y0292851D02*
X0286010Y0292851D01*
X0286010Y0292802D02*
X0284246Y0292802D01*
X0283633Y0292780D02*
X0287125Y0292780D01*
X0287125Y0291228D01*
X0283629Y0291228D01*
X0283629Y0292780D01*
X0283633Y0292780D01*
X0283617Y0292780D02*
X0280696Y0292780D01*
X0280688Y0292780D01*
X0280688Y0291228D01*
X0283621Y0291232D01*
X0283617Y0292780D01*
X0283617Y0292754D02*
X0280688Y0292754D01*
X0280676Y0292754D02*
X0277852Y0292754D01*
X0277852Y0292802D02*
X0279679Y0292802D01*
X0279662Y0292851D02*
X0277852Y0292851D01*
X0277852Y0292899D02*
X0279644Y0292899D01*
X0279626Y0292948D02*
X0277852Y0292948D01*
X0277852Y0292996D02*
X0279608Y0292996D01*
X0279591Y0293045D02*
X0277852Y0293045D01*
X0277852Y0293093D02*
X0279573Y0293093D01*
X0279555Y0293142D02*
X0277852Y0293142D01*
X0277852Y0293190D02*
X0279537Y0293190D01*
X0279520Y0293239D02*
X0277852Y0293239D01*
X0277852Y0293287D02*
X0279502Y0293287D01*
X0279484Y0293336D02*
X0277852Y0293336D01*
X0277852Y0293384D02*
X0279467Y0293384D01*
X0279449Y0293433D02*
X0277852Y0293433D01*
X0277852Y0293481D02*
X0279431Y0293481D01*
X0279413Y0293530D02*
X0277851Y0293530D01*
X0277851Y0293578D02*
X0279396Y0293578D01*
X0279378Y0293627D02*
X0277851Y0293627D01*
X0277851Y0293675D02*
X0279360Y0293675D01*
X0279342Y0293724D02*
X0277851Y0293724D01*
X0277851Y0293772D02*
X0279325Y0293772D01*
X0279307Y0293821D02*
X0277851Y0293821D01*
X0277851Y0293869D02*
X0279289Y0293869D01*
X0279271Y0293918D02*
X0277851Y0293918D01*
X0277851Y0293966D02*
X0279254Y0293966D01*
X0279236Y0294015D02*
X0277851Y0294015D01*
X0277851Y0294063D02*
X0279218Y0294063D01*
X0279200Y0294112D02*
X0277851Y0294112D01*
X0277851Y0294160D02*
X0279183Y0294160D01*
X0279165Y0294209D02*
X0277851Y0294209D01*
X0277851Y0294257D02*
X0279147Y0294257D01*
X0279130Y0294306D02*
X0277851Y0294306D01*
X0277851Y0294355D02*
X0279112Y0294355D01*
X0279094Y0294403D02*
X0277851Y0294403D01*
X0277851Y0294452D02*
X0279076Y0294452D01*
X0279059Y0294500D02*
X0277851Y0294500D01*
X0277851Y0294549D02*
X0279041Y0294549D01*
X0279023Y0294597D02*
X0277851Y0294597D01*
X0277851Y0294646D02*
X0279005Y0294646D01*
X0278988Y0294694D02*
X0277851Y0294694D01*
X0277851Y0294743D02*
X0278970Y0294743D01*
X0278952Y0294791D02*
X0277851Y0294791D01*
X0277851Y0294840D02*
X0278934Y0294840D01*
X0278917Y0294888D02*
X0277851Y0294888D01*
X0277851Y0294937D02*
X0278899Y0294937D01*
X0278881Y0294985D02*
X0277851Y0294985D01*
X0277851Y0295034D02*
X0278863Y0295034D01*
X0278846Y0295082D02*
X0277850Y0295082D01*
X0277850Y0295131D02*
X0278828Y0295131D01*
X0278810Y0295179D02*
X0277850Y0295179D01*
X0277850Y0295228D02*
X0278792Y0295228D01*
X0278775Y0295276D02*
X0277850Y0295276D01*
X0277850Y0295325D02*
X0278757Y0295325D01*
X0278739Y0295373D02*
X0277850Y0295373D01*
X0277850Y0295422D02*
X0278722Y0295422D01*
X0278704Y0295470D02*
X0277850Y0295470D01*
X0277850Y0295519D02*
X0278686Y0295519D01*
X0278668Y0295567D02*
X0277850Y0295567D01*
X0277850Y0295616D02*
X0278651Y0295616D01*
X0278633Y0295664D02*
X0277850Y0295664D01*
X0277850Y0295713D02*
X0278615Y0295713D01*
X0278597Y0295761D02*
X0277850Y0295761D01*
X0277850Y0295810D02*
X0278580Y0295810D01*
X0278562Y0295858D02*
X0277850Y0295858D01*
X0277850Y0295907D02*
X0278544Y0295907D01*
X0278526Y0295955D02*
X0277850Y0295955D01*
X0277850Y0296004D02*
X0278509Y0296004D01*
X0278491Y0296052D02*
X0277850Y0296052D01*
X0277850Y0296101D02*
X0278473Y0296101D01*
X0278455Y0296149D02*
X0277850Y0296149D01*
X0277850Y0296198D02*
X0278438Y0296198D01*
X0278420Y0296246D02*
X0277850Y0296246D01*
X0277850Y0296295D02*
X0278402Y0296295D01*
X0278384Y0296343D02*
X0277850Y0296343D01*
X0277850Y0296392D02*
X0278367Y0296392D01*
X0278349Y0296441D02*
X0277850Y0296441D01*
X0277850Y0296489D02*
X0278331Y0296489D01*
X0278314Y0296538D02*
X0277850Y0296538D01*
X0277849Y0296586D02*
X0278296Y0296586D01*
X0278278Y0296635D02*
X0277849Y0296635D01*
X0277849Y0296683D02*
X0278260Y0296683D01*
X0278243Y0296732D02*
X0277849Y0296732D01*
X0277849Y0296780D02*
X0278225Y0296780D01*
X0278207Y0296829D02*
X0277849Y0296829D01*
X0277849Y0296877D02*
X0278189Y0296877D01*
X0278172Y0296926D02*
X0277849Y0296926D01*
X0277849Y0296974D02*
X0278154Y0296974D01*
X0278136Y0297023D02*
X0277849Y0297023D01*
X0277849Y0297071D02*
X0278118Y0297071D01*
X0278101Y0297120D02*
X0277849Y0297120D01*
X0277849Y0297168D02*
X0278083Y0297168D01*
X0279538Y0297314D02*
X0276396Y0297314D01*
X0276385Y0297314D02*
X0273896Y0297314D01*
X0273883Y0297314D02*
X0272161Y0297314D01*
X0272201Y0297362D02*
X0273843Y0297362D01*
X0273856Y0297362D02*
X0276385Y0297362D01*
X0276396Y0297362D02*
X0279538Y0297362D01*
X0279550Y0297362D02*
X0285853Y0297362D01*
X0285861Y0297362D02*
X0289203Y0297362D01*
X0289215Y0297362D02*
X0292018Y0297362D01*
X0292030Y0297362D02*
X0294178Y0297362D01*
X0294217Y0297314D02*
X0292030Y0297314D01*
X0292018Y0297314D02*
X0289215Y0297314D01*
X0289203Y0297314D02*
X0285861Y0297314D01*
X0285853Y0297314D02*
X0279550Y0297314D01*
X0279550Y0297411D02*
X0285853Y0297411D01*
X0285861Y0297411D02*
X0289203Y0297411D01*
X0289215Y0297411D02*
X0292018Y0297411D01*
X0292030Y0297411D02*
X0294139Y0297411D01*
X0294100Y0297459D02*
X0292030Y0297459D01*
X0292018Y0297459D02*
X0289215Y0297459D01*
X0289203Y0297459D02*
X0285861Y0297459D01*
X0285853Y0297459D02*
X0279550Y0297459D01*
X0279538Y0297459D02*
X0276396Y0297459D01*
X0276385Y0297459D02*
X0273775Y0297459D01*
X0273761Y0297459D02*
X0272280Y0297459D01*
X0272241Y0297411D02*
X0273802Y0297411D01*
X0273815Y0297411D02*
X0276385Y0297411D01*
X0276396Y0297411D02*
X0279538Y0297411D01*
X0279538Y0297508D02*
X0276396Y0297508D01*
X0276385Y0297508D02*
X0273735Y0297508D01*
X0273721Y0297508D02*
X0272321Y0297508D01*
X0272361Y0297556D02*
X0273680Y0297556D01*
X0273694Y0297556D02*
X0276385Y0297556D01*
X0276396Y0297556D02*
X0279538Y0297556D01*
X0279550Y0297556D02*
X0285853Y0297556D01*
X0285861Y0297556D02*
X0289203Y0297556D01*
X0289215Y0297556D02*
X0292018Y0297556D01*
X0292030Y0297556D02*
X0294021Y0297556D01*
X0294060Y0297508D02*
X0292030Y0297508D01*
X0292018Y0297508D02*
X0289215Y0297508D01*
X0289203Y0297508D02*
X0285861Y0297508D01*
X0285853Y0297508D02*
X0279550Y0297508D01*
X0279550Y0297605D02*
X0285853Y0297605D01*
X0285861Y0297605D02*
X0289202Y0297605D01*
X0289215Y0297605D02*
X0292018Y0297605D01*
X0292030Y0297605D02*
X0293982Y0297605D01*
X0293938Y0297653D02*
X0292030Y0297653D01*
X0292018Y0297653D02*
X0289215Y0297653D01*
X0289202Y0297653D02*
X0285861Y0297653D01*
X0285853Y0297653D02*
X0279550Y0297653D01*
X0279538Y0297653D02*
X0276396Y0297653D01*
X0276385Y0297653D02*
X0273614Y0297653D01*
X0273599Y0297653D02*
X0272444Y0297653D01*
X0272402Y0297605D02*
X0273640Y0297605D01*
X0273654Y0297605D02*
X0276385Y0297605D01*
X0276396Y0297605D02*
X0279538Y0297605D01*
X0279538Y0297702D02*
X0276396Y0297702D01*
X0276385Y0297702D02*
X0273573Y0297702D01*
X0273558Y0297702D02*
X0272487Y0297702D01*
X0272535Y0297750D02*
X0273518Y0297750D01*
X0273533Y0297750D02*
X0276385Y0297750D01*
X0276396Y0297750D02*
X0279538Y0297750D01*
X0279550Y0297750D02*
X0285853Y0297750D01*
X0285861Y0297750D02*
X0289202Y0297750D01*
X0289215Y0297750D02*
X0292018Y0297750D01*
X0292030Y0297750D02*
X0293846Y0297750D01*
X0293892Y0297702D02*
X0292030Y0297702D01*
X0292018Y0297702D02*
X0289215Y0297702D01*
X0289202Y0297702D02*
X0285861Y0297702D01*
X0285853Y0297702D02*
X0279550Y0297702D01*
X0279550Y0297799D02*
X0285853Y0297799D01*
X0285861Y0297799D02*
X0289202Y0297799D01*
X0289215Y0297799D02*
X0292018Y0297799D01*
X0292030Y0297799D02*
X0293793Y0297799D01*
X0293735Y0297847D02*
X0292030Y0297847D01*
X0292018Y0297847D02*
X0289215Y0297847D01*
X0289202Y0297847D02*
X0285861Y0297847D01*
X0285853Y0297847D02*
X0279550Y0297847D01*
X0279538Y0297847D02*
X0276396Y0297847D01*
X0276385Y0297847D02*
X0273452Y0297847D01*
X0273436Y0297847D02*
X0272645Y0297847D01*
X0272589Y0297799D02*
X0273477Y0297799D01*
X0273493Y0297799D02*
X0276385Y0297799D01*
X0276396Y0297799D02*
X0279538Y0297799D01*
X0279538Y0297896D02*
X0276396Y0297896D01*
X0276385Y0297896D02*
X0273412Y0297896D01*
X0273396Y0297896D02*
X0272701Y0297896D01*
X0272757Y0297944D02*
X0273355Y0297944D01*
X0273372Y0297944D02*
X0276385Y0297944D01*
X0276396Y0297944D02*
X0279538Y0297944D01*
X0279550Y0297944D02*
X0285853Y0297944D01*
X0285861Y0297944D02*
X0289202Y0297944D01*
X0289215Y0297944D02*
X0292018Y0297944D01*
X0292030Y0297944D02*
X0293617Y0297944D01*
X0293676Y0297896D02*
X0292030Y0297896D01*
X0292018Y0297896D02*
X0289215Y0297896D01*
X0289202Y0297896D02*
X0285861Y0297896D01*
X0285853Y0297896D02*
X0279550Y0297896D01*
X0279550Y0297993D02*
X0285853Y0297993D01*
X0285861Y0297993D02*
X0289202Y0297993D01*
X0289215Y0297993D02*
X0292018Y0297993D01*
X0292030Y0297993D02*
X0293557Y0297993D01*
X0293498Y0298041D02*
X0292030Y0298041D01*
X0292018Y0298041D02*
X0289215Y0298041D01*
X0289201Y0298041D02*
X0285861Y0298041D01*
X0285853Y0298041D02*
X0279550Y0298041D01*
X0279538Y0298041D02*
X0276396Y0298041D01*
X0276385Y0298041D02*
X0273291Y0298041D01*
X0273274Y0298041D02*
X0272874Y0298041D01*
X0272815Y0297993D02*
X0273315Y0297993D01*
X0273332Y0297993D02*
X0276385Y0297993D01*
X0276396Y0297993D02*
X0279538Y0297993D01*
X0279538Y0298090D02*
X0276396Y0298090D01*
X0276385Y0298090D02*
X0273251Y0298090D01*
X0273233Y0298090D02*
X0272934Y0298090D01*
X0272995Y0298138D02*
X0273193Y0298138D01*
X0273211Y0298138D02*
X0276385Y0298138D01*
X0276396Y0298138D02*
X0279538Y0298138D01*
X0279550Y0298138D02*
X0285853Y0298138D01*
X0285861Y0298138D02*
X0289201Y0298138D01*
X0289215Y0298138D02*
X0292018Y0298138D01*
X0292030Y0298138D02*
X0293383Y0298138D01*
X0293441Y0298090D02*
X0292030Y0298090D01*
X0292018Y0298090D02*
X0289215Y0298090D01*
X0289201Y0298090D02*
X0285861Y0298090D01*
X0285853Y0298090D02*
X0279550Y0298090D01*
X0279550Y0298187D02*
X0285853Y0298187D01*
X0285861Y0298187D02*
X0289201Y0298187D01*
X0289215Y0298187D02*
X0292018Y0298187D01*
X0292030Y0298187D02*
X0293312Y0298187D01*
X0293232Y0298235D02*
X0292030Y0298235D01*
X0292018Y0298235D02*
X0289215Y0298235D01*
X0289201Y0298235D02*
X0285861Y0298235D01*
X0285853Y0298235D02*
X0279550Y0298235D01*
X0279538Y0298235D02*
X0276396Y0298235D01*
X0276385Y0298235D02*
X0273139Y0298235D01*
X0273152Y0298187D02*
X0273066Y0298187D01*
X0273170Y0298187D02*
X0276385Y0298187D01*
X0276396Y0298187D02*
X0279538Y0298187D01*
X0279538Y0298284D02*
X0276396Y0298284D01*
X0276385Y0298284D02*
X0273226Y0298284D01*
X0273312Y0298332D02*
X0276385Y0298332D01*
X0276396Y0298332D02*
X0279538Y0298332D01*
X0279550Y0298332D02*
X0285853Y0298332D01*
X0285861Y0298332D02*
X0289201Y0298332D01*
X0289215Y0298332D02*
X0292018Y0298332D01*
X0292030Y0298332D02*
X0293059Y0298332D01*
X0293148Y0298284D02*
X0292030Y0298284D01*
X0292018Y0298284D02*
X0289215Y0298284D01*
X0289201Y0298284D02*
X0285861Y0298284D01*
X0285853Y0298284D02*
X0279550Y0298284D01*
X0279550Y0298381D02*
X0285853Y0298381D01*
X0285861Y0298381D02*
X0289201Y0298381D01*
X0289215Y0298381D02*
X0292018Y0298381D01*
X0292030Y0298381D02*
X0292970Y0298381D01*
X0292882Y0298429D02*
X0292030Y0298429D01*
X0292018Y0298429D02*
X0289215Y0298429D01*
X0289200Y0298429D02*
X0285861Y0298429D01*
X0285853Y0298429D02*
X0279550Y0298429D01*
X0279538Y0298429D02*
X0276396Y0298429D01*
X0276385Y0298429D02*
X0273488Y0298429D01*
X0273399Y0298381D02*
X0276385Y0298381D01*
X0276396Y0298381D02*
X0279538Y0298381D01*
X0279538Y0298478D02*
X0276396Y0298478D01*
X0276385Y0298478D02*
X0273578Y0298478D01*
X0273679Y0298526D02*
X0276385Y0298526D01*
X0276396Y0298526D02*
X0279538Y0298526D01*
X0279550Y0298526D02*
X0285853Y0298526D01*
X0285861Y0298526D02*
X0289200Y0298526D01*
X0289215Y0298526D02*
X0292018Y0298526D01*
X0292030Y0298526D02*
X0292692Y0298526D01*
X0292788Y0298478D02*
X0292030Y0298478D01*
X0292018Y0298478D02*
X0289215Y0298478D01*
X0289200Y0298478D02*
X0285861Y0298478D01*
X0285853Y0298478D02*
X0279550Y0298478D01*
X0279550Y0298575D02*
X0285853Y0298575D01*
X0285861Y0298575D02*
X0289200Y0298575D01*
X0289215Y0298575D02*
X0292018Y0298575D01*
X0292030Y0298575D02*
X0292592Y0298575D01*
X0292441Y0298624D02*
X0292030Y0298624D01*
X0292018Y0298624D02*
X0289215Y0298624D01*
X0289200Y0298624D02*
X0285861Y0298624D01*
X0285853Y0298624D02*
X0279550Y0298624D01*
X0279538Y0298624D02*
X0276396Y0298624D01*
X0276385Y0298624D02*
X0273940Y0298624D01*
X0273806Y0298575D02*
X0276385Y0298575D01*
X0276396Y0298575D02*
X0279538Y0298575D01*
X0279538Y0298672D02*
X0276396Y0298672D01*
X0276385Y0298672D02*
X0274104Y0298672D01*
X0274267Y0298721D02*
X0276385Y0298721D01*
X0276396Y0298721D02*
X0279538Y0298721D01*
X0279550Y0298721D02*
X0285853Y0298721D01*
X0285861Y0298721D02*
X0289200Y0298721D01*
X0289215Y0298721D02*
X0292018Y0298721D01*
X0292030Y0298721D02*
X0292131Y0298721D01*
X0292030Y0298672D02*
X0292287Y0298672D01*
X0292018Y0298672D02*
X0289215Y0298672D01*
X0289200Y0298672D02*
X0285861Y0298672D01*
X0285853Y0298672D02*
X0279550Y0298672D01*
X0279550Y0298769D02*
X0285853Y0298769D01*
X0285861Y0298769D02*
X0289200Y0298769D01*
X0289215Y0298769D02*
X0291906Y0298769D01*
X0291491Y0298818D02*
X0289215Y0298818D01*
X0289200Y0298818D02*
X0285861Y0298818D01*
X0285853Y0298818D02*
X0279550Y0298818D01*
X0279538Y0298818D02*
X0276396Y0298818D01*
X0276385Y0298818D02*
X0274846Y0298818D01*
X0274456Y0298769D02*
X0276385Y0298769D01*
X0276396Y0298769D02*
X0279538Y0298769D01*
X0279562Y0297193D02*
X0279554Y0297193D01*
X0280424Y0294220D01*
X0281294Y0297197D01*
X0279562Y0297193D01*
X0279561Y0297168D02*
X0281286Y0297168D01*
X0281271Y0297120D02*
X0279575Y0297120D01*
X0279589Y0297071D02*
X0281257Y0297071D01*
X0281243Y0297023D02*
X0279604Y0297023D01*
X0279618Y0296974D02*
X0281229Y0296974D01*
X0281215Y0296926D02*
X0279632Y0296926D01*
X0279646Y0296877D02*
X0281200Y0296877D01*
X0281186Y0296829D02*
X0279660Y0296829D01*
X0279675Y0296780D02*
X0281172Y0296780D01*
X0281158Y0296732D02*
X0279689Y0296732D01*
X0279703Y0296683D02*
X0281144Y0296683D01*
X0281130Y0296635D02*
X0279717Y0296635D01*
X0279731Y0296586D02*
X0281115Y0296586D01*
X0281101Y0296538D02*
X0279746Y0296538D01*
X0279760Y0296489D02*
X0281087Y0296489D01*
X0281073Y0296441D02*
X0279774Y0296441D01*
X0279788Y0296392D02*
X0281059Y0296392D01*
X0281044Y0296343D02*
X0279802Y0296343D01*
X0279817Y0296295D02*
X0281030Y0296295D01*
X0281016Y0296246D02*
X0279831Y0296246D01*
X0279845Y0296198D02*
X0281002Y0296198D01*
X0280988Y0296149D02*
X0279859Y0296149D01*
X0279873Y0296101D02*
X0280974Y0296101D01*
X0280959Y0296052D02*
X0279888Y0296052D01*
X0279902Y0296004D02*
X0280945Y0296004D01*
X0280931Y0295955D02*
X0279916Y0295955D01*
X0279930Y0295907D02*
X0280917Y0295907D01*
X0280903Y0295858D02*
X0279944Y0295858D01*
X0279959Y0295810D02*
X0280888Y0295810D01*
X0280874Y0295761D02*
X0279973Y0295761D01*
X0279987Y0295713D02*
X0280860Y0295713D01*
X0280846Y0295664D02*
X0280001Y0295664D01*
X0280015Y0295616D02*
X0280832Y0295616D01*
X0280818Y0295567D02*
X0280030Y0295567D01*
X0280044Y0295519D02*
X0280803Y0295519D01*
X0280789Y0295470D02*
X0280058Y0295470D01*
X0280072Y0295422D02*
X0280775Y0295422D01*
X0280761Y0295373D02*
X0280086Y0295373D01*
X0280101Y0295325D02*
X0280747Y0295325D01*
X0280733Y0295276D02*
X0280115Y0295276D01*
X0280129Y0295228D02*
X0280718Y0295228D01*
X0280704Y0295179D02*
X0280143Y0295179D01*
X0280157Y0295131D02*
X0280690Y0295131D01*
X0280676Y0295082D02*
X0280172Y0295082D01*
X0280186Y0295034D02*
X0280662Y0295034D01*
X0280647Y0294985D02*
X0280200Y0294985D01*
X0280214Y0294937D02*
X0280633Y0294937D01*
X0280619Y0294888D02*
X0280228Y0294888D01*
X0280243Y0294840D02*
X0280605Y0294840D01*
X0280591Y0294791D02*
X0280257Y0294791D01*
X0280271Y0294743D02*
X0280577Y0294743D01*
X0280562Y0294694D02*
X0280285Y0294694D01*
X0280299Y0294646D02*
X0280548Y0294646D01*
X0280534Y0294597D02*
X0280314Y0294597D01*
X0280328Y0294549D02*
X0280520Y0294549D01*
X0280506Y0294500D02*
X0280342Y0294500D01*
X0280356Y0294452D02*
X0280491Y0294452D01*
X0280477Y0294403D02*
X0280370Y0294403D01*
X0280385Y0294355D02*
X0280463Y0294355D01*
X0280449Y0294306D02*
X0280399Y0294306D01*
X0280413Y0294257D02*
X0280435Y0294257D01*
X0281490Y0293918D02*
X0282450Y0293918D01*
X0282435Y0293966D02*
X0281505Y0293966D01*
X0281519Y0294015D02*
X0282420Y0294015D01*
X0282405Y0294063D02*
X0281534Y0294063D01*
X0281549Y0294112D02*
X0282390Y0294112D01*
X0282375Y0294160D02*
X0281564Y0294160D01*
X0281578Y0294209D02*
X0282360Y0294209D01*
X0282345Y0294257D02*
X0281593Y0294257D01*
X0281608Y0294306D02*
X0282330Y0294306D01*
X0282315Y0294355D02*
X0281623Y0294355D01*
X0281638Y0294403D02*
X0282300Y0294403D01*
X0282285Y0294452D02*
X0281652Y0294452D01*
X0281667Y0294500D02*
X0282270Y0294500D01*
X0282255Y0294549D02*
X0281682Y0294549D01*
X0281697Y0294597D02*
X0282240Y0294597D01*
X0282225Y0294646D02*
X0281711Y0294646D01*
X0281726Y0294694D02*
X0282210Y0294694D01*
X0282195Y0294743D02*
X0281741Y0294743D01*
X0281756Y0294791D02*
X0282180Y0294791D01*
X0282165Y0294840D02*
X0281771Y0294840D01*
X0281785Y0294888D02*
X0282150Y0294888D01*
X0282134Y0294937D02*
X0281800Y0294937D01*
X0281815Y0294985D02*
X0282119Y0294985D01*
X0282104Y0295034D02*
X0281830Y0295034D01*
X0281844Y0295082D02*
X0282089Y0295082D01*
X0282074Y0295131D02*
X0281859Y0295131D01*
X0281874Y0295179D02*
X0282059Y0295179D01*
X0282044Y0295228D02*
X0281889Y0295228D01*
X0281904Y0295276D02*
X0282029Y0295276D01*
X0282014Y0295325D02*
X0281918Y0295325D01*
X0281933Y0295373D02*
X0281999Y0295373D01*
X0281984Y0295422D02*
X0281948Y0295422D01*
X0281963Y0295470D02*
X0281969Y0295470D01*
X0281967Y0295476D02*
X0281963Y0295472D01*
X0281144Y0292783D01*
X0282802Y0292783D01*
X0281967Y0295476D01*
X0283088Y0295810D02*
X0284018Y0295810D01*
X0284033Y0295858D02*
X0283074Y0295858D01*
X0283060Y0295907D02*
X0284047Y0295907D01*
X0284061Y0295955D02*
X0283046Y0295955D01*
X0283032Y0296004D02*
X0284076Y0296004D01*
X0284090Y0296052D02*
X0283018Y0296052D01*
X0283003Y0296101D02*
X0284104Y0296101D01*
X0284119Y0296149D02*
X0282989Y0296149D01*
X0282975Y0296198D02*
X0284133Y0296198D01*
X0284148Y0296246D02*
X0282961Y0296246D01*
X0282947Y0296295D02*
X0284162Y0296295D01*
X0284176Y0296343D02*
X0282933Y0296343D01*
X0282919Y0296392D02*
X0284191Y0296392D01*
X0284205Y0296441D02*
X0282904Y0296441D01*
X0282890Y0296489D02*
X0284219Y0296489D01*
X0284234Y0296538D02*
X0282876Y0296538D01*
X0282862Y0296586D02*
X0284248Y0296586D01*
X0284262Y0296635D02*
X0282848Y0296635D01*
X0282834Y0296683D02*
X0284277Y0296683D01*
X0284291Y0296732D02*
X0282819Y0296732D01*
X0282805Y0296780D02*
X0284306Y0296780D01*
X0284320Y0296829D02*
X0282791Y0296829D01*
X0282777Y0296877D02*
X0284334Y0296877D01*
X0284349Y0296926D02*
X0282763Y0296926D01*
X0282749Y0296974D02*
X0284363Y0296974D01*
X0284377Y0297023D02*
X0282735Y0297023D01*
X0282720Y0297071D02*
X0284392Y0297071D01*
X0284406Y0297120D02*
X0282706Y0297120D01*
X0282692Y0297168D02*
X0284420Y0297168D01*
X0284428Y0297193D02*
X0282692Y0297193D01*
X0282684Y0297197D01*
X0283550Y0294228D01*
X0284428Y0297193D01*
X0284004Y0295761D02*
X0283103Y0295761D01*
X0283117Y0295713D02*
X0283989Y0295713D01*
X0283975Y0295664D02*
X0283131Y0295664D01*
X0283145Y0295616D02*
X0283961Y0295616D01*
X0283946Y0295567D02*
X0283159Y0295567D01*
X0283173Y0295519D02*
X0283932Y0295519D01*
X0283918Y0295470D02*
X0283187Y0295470D01*
X0283202Y0295422D02*
X0283903Y0295422D01*
X0283889Y0295373D02*
X0283216Y0295373D01*
X0283230Y0295325D02*
X0283875Y0295325D01*
X0283860Y0295276D02*
X0283244Y0295276D01*
X0283258Y0295228D02*
X0283846Y0295228D01*
X0283831Y0295179D02*
X0283272Y0295179D01*
X0283287Y0295131D02*
X0283817Y0295131D01*
X0283803Y0295082D02*
X0283301Y0295082D01*
X0283315Y0295034D02*
X0283788Y0295034D01*
X0283774Y0294985D02*
X0283329Y0294985D01*
X0283343Y0294937D02*
X0283760Y0294937D01*
X0283745Y0294888D02*
X0283357Y0294888D01*
X0283372Y0294840D02*
X0283731Y0294840D01*
X0283717Y0294791D02*
X0283386Y0294791D01*
X0283400Y0294743D02*
X0283702Y0294743D01*
X0283688Y0294694D02*
X0283414Y0294694D01*
X0283428Y0294646D02*
X0283673Y0294646D01*
X0283659Y0294597D02*
X0283442Y0294597D01*
X0283456Y0294549D02*
X0283645Y0294549D01*
X0283630Y0294500D02*
X0283471Y0294500D01*
X0283485Y0294452D02*
X0283616Y0294452D01*
X0283602Y0294403D02*
X0283499Y0294403D01*
X0283513Y0294355D02*
X0283587Y0294355D01*
X0283573Y0294306D02*
X0283527Y0294306D01*
X0283541Y0294257D02*
X0283558Y0294257D01*
X0282465Y0293869D02*
X0281475Y0293869D01*
X0281460Y0293821D02*
X0282480Y0293821D01*
X0282495Y0293772D02*
X0281446Y0293772D01*
X0281431Y0293724D02*
X0282510Y0293724D01*
X0282525Y0293675D02*
X0281416Y0293675D01*
X0281401Y0293627D02*
X0282540Y0293627D01*
X0282555Y0293578D02*
X0281386Y0293578D01*
X0281372Y0293530D02*
X0282571Y0293530D01*
X0282586Y0293481D02*
X0281357Y0293481D01*
X0281342Y0293433D02*
X0282601Y0293433D01*
X0282616Y0293384D02*
X0281327Y0293384D01*
X0281313Y0293336D02*
X0282631Y0293336D01*
X0282646Y0293287D02*
X0281298Y0293287D01*
X0281283Y0293239D02*
X0282661Y0293239D01*
X0282676Y0293190D02*
X0281268Y0293190D01*
X0281253Y0293142D02*
X0282691Y0293142D01*
X0282706Y0293093D02*
X0281239Y0293093D01*
X0281224Y0293045D02*
X0282721Y0293045D01*
X0282736Y0292996D02*
X0281209Y0292996D01*
X0281194Y0292948D02*
X0282751Y0292948D01*
X0282766Y0292899D02*
X0281180Y0292899D01*
X0281165Y0292851D02*
X0282781Y0292851D01*
X0282796Y0292802D02*
X0281150Y0292802D01*
X0283629Y0292754D02*
X0287125Y0292754D01*
X0287144Y0292754D02*
X0291467Y0292754D01*
X0291475Y0292754D02*
X0291607Y0292754D01*
X0291467Y0292780D02*
X0291467Y0291248D01*
X0291113Y0291228D01*
X0287140Y0291228D01*
X0287144Y0292768D01*
X0287136Y0292780D01*
X0291467Y0292780D01*
X0292030Y0296004D02*
X0294852Y0296004D01*
X0276385Y0296683D02*
X0276358Y0296683D01*
X0276385Y0296732D02*
X0276310Y0296732D01*
X0276262Y0296780D02*
X0276385Y0296780D01*
X0276385Y0296829D02*
X0276210Y0296829D01*
X0276157Y0296877D02*
X0276385Y0296877D01*
X0276385Y0296926D02*
X0276094Y0296926D01*
X0276029Y0296974D02*
X0276385Y0296974D01*
X0276385Y0297023D02*
X0275950Y0297023D01*
X0275862Y0297071D02*
X0276385Y0297071D01*
X0276385Y0297120D02*
X0275755Y0297120D01*
X0275637Y0297168D02*
X0276385Y0297168D01*
X0275611Y0293918D02*
X0275248Y0293918D01*
X0274767Y0292754D02*
X0274292Y0292754D01*
X0274282Y0292754D02*
X0272159Y0292754D01*
X0272121Y0292802D02*
X0274305Y0292802D01*
X0274315Y0292802D02*
X0274524Y0292802D01*
X0274366Y0292851D02*
X0274338Y0292851D01*
X0274328Y0292851D02*
X0272085Y0292851D01*
X0272049Y0292899D02*
X0274232Y0292899D01*
X0274131Y0292948D02*
X0272012Y0292948D01*
X0271986Y0292996D02*
X0272039Y0292996D01*
X0272060Y0292996D02*
X0274045Y0292996D01*
X0273968Y0293045D02*
X0272138Y0293045D01*
X0272117Y0293045D02*
X0271959Y0293045D01*
X0271933Y0293093D02*
X0272195Y0293093D01*
X0272216Y0293093D02*
X0273894Y0293093D01*
X0273824Y0293142D02*
X0272294Y0293142D01*
X0272273Y0293142D02*
X0271906Y0293142D01*
X0271880Y0293190D02*
X0272350Y0293190D01*
X0272373Y0293190D02*
X0273768Y0293190D01*
X0273713Y0293239D02*
X0272451Y0293239D01*
X0272428Y0293239D02*
X0271854Y0293239D01*
X0271827Y0293287D02*
X0272506Y0293287D01*
X0272529Y0293287D02*
X0273666Y0293287D01*
X0273619Y0293336D02*
X0272607Y0293336D01*
X0272584Y0293336D02*
X0271800Y0293336D01*
X0271773Y0293384D02*
X0272662Y0293384D01*
X0272685Y0293384D02*
X0273576Y0293384D01*
X0273533Y0293433D02*
X0272764Y0293433D01*
X0272739Y0293433D02*
X0271748Y0293433D01*
X0271728Y0293481D02*
X0272817Y0293481D01*
X0272842Y0293481D02*
X0273495Y0293481D01*
X0273459Y0293530D02*
X0272920Y0293530D01*
X0272895Y0293530D02*
X0271708Y0293530D01*
X0271688Y0293578D02*
X0272973Y0293578D01*
X0272998Y0293578D02*
X0273427Y0293578D01*
X0273028Y0295082D02*
X0271748Y0295082D01*
X0273750Y0291589D02*
X0276381Y0291589D01*
M02*
