G75*
%MOIN*%
%OFA0B0*%
%FSLAX25Y25*%
%IPPOS*%
%LPD*%
%AMOC8*
5,1,8,0,0,1.08239X$1,22.5*
%
%ADD10C,0.13800*%
%ADD11C,0.08200*%
%ADD12R,0.03300X0.05800*%
%ADD13C,0.00500*%
%ADD14C,0.09658*%
D10*
X0158333Y0210000D03*
X0288333Y0210000D03*
X0288333Y0340000D03*
X0158333Y0340000D03*
D11*
X0153333Y0255000D03*
X0293333Y0255000D03*
X0293333Y0245000D03*
X0293333Y0235000D03*
X0293333Y0225000D03*
D12*
X0260333Y0255000D03*
X0256333Y0255000D03*
X0256333Y0265000D03*
X0260333Y0265000D03*
X0260333Y0275000D03*
X0256333Y0275000D03*
X0167333Y0315000D03*
X0163333Y0315000D03*
X0159333Y0315000D03*
D13*
X0160583Y0315156D02*
X0162083Y0315156D01*
X0162083Y0315500D02*
X0162083Y0314500D01*
X0160583Y0314500D01*
X0160583Y0315500D01*
X0162083Y0315500D01*
X0162083Y0314658D02*
X0160583Y0314658D01*
X0164583Y0314658D02*
X0166083Y0314658D01*
X0166083Y0314500D02*
X0166083Y0315500D01*
X0164583Y0315500D01*
X0164583Y0314500D01*
X0166083Y0314500D01*
X0166083Y0315156D02*
X0164583Y0315156D01*
X0257583Y0275500D02*
X0257583Y0274500D01*
X0259083Y0274500D01*
X0259083Y0275500D01*
X0257583Y0275500D01*
X0257583Y0275275D02*
X0259083Y0275275D01*
X0259083Y0274777D02*
X0257583Y0274777D01*
X0257583Y0265500D02*
X0257583Y0264500D01*
X0259083Y0264500D01*
X0259083Y0265500D01*
X0257583Y0265500D01*
X0257583Y0265305D02*
X0259083Y0265305D01*
X0259083Y0264806D02*
X0257583Y0264806D01*
X0257583Y0255500D02*
X0257583Y0254500D01*
X0259083Y0254500D01*
X0259083Y0255500D01*
X0257583Y0255500D01*
X0257583Y0255335D02*
X0259083Y0255335D01*
X0259083Y0254836D02*
X0257583Y0254836D01*
D14*
X0252861Y0225000D03*
X0233176Y0225000D03*
X0213491Y0225000D03*
X0193806Y0225000D03*
X0193806Y0325000D03*
X0213491Y0325000D03*
X0233176Y0325000D03*
X0252861Y0325000D03*
M02*
