G04 EAGLE Gerber RS-274X export*
G75*
%MOMM*%
%FSLAX34Y34*%
%LPD*%
%INSoldermask Bottom*%
%IPPOS*%
%AMOC8*
5,1,8,0,0,1.08239X$1,22.5*%
G01*
%ADD10C,3.505200*%
%ADD11C,2.082800*%
%ADD12R,0.838200X1.473200*%
%ADD13C,1.203200*%
%ADD14C,2.453200*%

G36*
X103570Y252107D02*
X103570Y252107D01*
X103636Y252109D01*
X103679Y252127D01*
X103726Y252135D01*
X103783Y252169D01*
X103843Y252194D01*
X103878Y252225D01*
X103919Y252250D01*
X103961Y252301D01*
X104009Y252345D01*
X104031Y252387D01*
X104060Y252424D01*
X104081Y252486D01*
X104112Y252545D01*
X104120Y252599D01*
X104132Y252636D01*
X104131Y252676D01*
X104139Y252730D01*
X104139Y255270D01*
X104128Y255335D01*
X104126Y255401D01*
X104108Y255444D01*
X104100Y255491D01*
X104066Y255548D01*
X104041Y255608D01*
X104010Y255643D01*
X103985Y255684D01*
X103934Y255726D01*
X103890Y255774D01*
X103848Y255796D01*
X103811Y255825D01*
X103749Y255846D01*
X103690Y255877D01*
X103636Y255885D01*
X103599Y255897D01*
X103559Y255896D01*
X103505Y255904D01*
X99695Y255904D01*
X99630Y255893D01*
X99564Y255891D01*
X99521Y255873D01*
X99474Y255865D01*
X99417Y255831D01*
X99357Y255806D01*
X99322Y255775D01*
X99281Y255750D01*
X99240Y255699D01*
X99191Y255655D01*
X99169Y255613D01*
X99140Y255576D01*
X99119Y255514D01*
X99088Y255455D01*
X99080Y255401D01*
X99068Y255364D01*
X99068Y255361D01*
X99069Y255324D01*
X99061Y255270D01*
X99061Y252730D01*
X99072Y252665D01*
X99074Y252599D01*
X99092Y252556D01*
X99100Y252509D01*
X99134Y252452D01*
X99159Y252392D01*
X99190Y252357D01*
X99215Y252316D01*
X99266Y252275D01*
X99310Y252226D01*
X99352Y252204D01*
X99389Y252175D01*
X99451Y252154D01*
X99510Y252123D01*
X99564Y252115D01*
X99601Y252103D01*
X99641Y252104D01*
X99695Y252096D01*
X103505Y252096D01*
X103570Y252107D01*
G37*
G36*
X875730Y252107D02*
X875730Y252107D01*
X875796Y252109D01*
X875839Y252127D01*
X875886Y252135D01*
X875943Y252169D01*
X876003Y252194D01*
X876038Y252225D01*
X876079Y252250D01*
X876121Y252301D01*
X876169Y252345D01*
X876191Y252387D01*
X876220Y252424D01*
X876241Y252486D01*
X876272Y252545D01*
X876280Y252599D01*
X876292Y252636D01*
X876291Y252676D01*
X876299Y252730D01*
X876299Y255270D01*
X876288Y255335D01*
X876286Y255401D01*
X876268Y255444D01*
X876260Y255491D01*
X876226Y255548D01*
X876201Y255608D01*
X876170Y255643D01*
X876145Y255684D01*
X876094Y255726D01*
X876050Y255774D01*
X876008Y255796D01*
X875971Y255825D01*
X875909Y255846D01*
X875850Y255877D01*
X875796Y255885D01*
X875759Y255897D01*
X875719Y255896D01*
X875665Y255904D01*
X871855Y255904D01*
X871790Y255893D01*
X871724Y255891D01*
X871681Y255873D01*
X871634Y255865D01*
X871577Y255831D01*
X871517Y255806D01*
X871482Y255775D01*
X871441Y255750D01*
X871400Y255699D01*
X871351Y255655D01*
X871329Y255613D01*
X871300Y255576D01*
X871279Y255514D01*
X871248Y255455D01*
X871240Y255401D01*
X871228Y255364D01*
X871228Y255361D01*
X871229Y255324D01*
X871221Y255270D01*
X871221Y252730D01*
X871232Y252665D01*
X871234Y252599D01*
X871252Y252556D01*
X871260Y252509D01*
X871294Y252452D01*
X871319Y252392D01*
X871350Y252357D01*
X871375Y252316D01*
X871426Y252275D01*
X871470Y252226D01*
X871512Y252204D01*
X871549Y252175D01*
X871611Y252154D01*
X871670Y252123D01*
X871724Y252115D01*
X871761Y252103D01*
X871801Y252104D01*
X871855Y252096D01*
X875665Y252096D01*
X875730Y252107D01*
G37*
G36*
X489650Y252107D02*
X489650Y252107D01*
X489716Y252109D01*
X489759Y252127D01*
X489806Y252135D01*
X489863Y252169D01*
X489923Y252194D01*
X489958Y252225D01*
X489999Y252250D01*
X490041Y252301D01*
X490089Y252345D01*
X490111Y252387D01*
X490140Y252424D01*
X490161Y252486D01*
X490192Y252545D01*
X490200Y252599D01*
X490212Y252636D01*
X490211Y252676D01*
X490219Y252730D01*
X490219Y255270D01*
X490208Y255335D01*
X490206Y255401D01*
X490188Y255444D01*
X490180Y255491D01*
X490146Y255548D01*
X490121Y255608D01*
X490090Y255643D01*
X490065Y255684D01*
X490014Y255726D01*
X489970Y255774D01*
X489928Y255796D01*
X489891Y255825D01*
X489829Y255846D01*
X489770Y255877D01*
X489716Y255885D01*
X489679Y255897D01*
X489639Y255896D01*
X489585Y255904D01*
X485775Y255904D01*
X485710Y255893D01*
X485644Y255891D01*
X485601Y255873D01*
X485554Y255865D01*
X485497Y255831D01*
X485437Y255806D01*
X485402Y255775D01*
X485361Y255750D01*
X485320Y255699D01*
X485271Y255655D01*
X485249Y255613D01*
X485220Y255576D01*
X485199Y255514D01*
X485168Y255455D01*
X485160Y255401D01*
X485148Y255364D01*
X485148Y255361D01*
X485149Y255324D01*
X485141Y255270D01*
X485141Y252730D01*
X485152Y252665D01*
X485154Y252599D01*
X485172Y252556D01*
X485180Y252509D01*
X485214Y252452D01*
X485239Y252392D01*
X485270Y252357D01*
X485295Y252316D01*
X485346Y252275D01*
X485390Y252226D01*
X485432Y252204D01*
X485469Y252175D01*
X485531Y252154D01*
X485590Y252123D01*
X485644Y252115D01*
X485681Y252103D01*
X485721Y252104D01*
X485775Y252096D01*
X489585Y252096D01*
X489650Y252107D01*
G37*
G36*
X1261810Y252107D02*
X1261810Y252107D01*
X1261876Y252109D01*
X1261919Y252127D01*
X1261966Y252135D01*
X1262023Y252169D01*
X1262083Y252194D01*
X1262118Y252225D01*
X1262159Y252250D01*
X1262201Y252301D01*
X1262249Y252345D01*
X1262271Y252387D01*
X1262300Y252424D01*
X1262321Y252486D01*
X1262352Y252545D01*
X1262360Y252599D01*
X1262372Y252636D01*
X1262371Y252676D01*
X1262379Y252730D01*
X1262379Y255270D01*
X1262368Y255335D01*
X1262366Y255401D01*
X1262348Y255444D01*
X1262340Y255491D01*
X1262306Y255548D01*
X1262281Y255608D01*
X1262250Y255643D01*
X1262225Y255684D01*
X1262174Y255726D01*
X1262130Y255774D01*
X1262088Y255796D01*
X1262051Y255825D01*
X1261989Y255846D01*
X1261930Y255877D01*
X1261876Y255885D01*
X1261839Y255897D01*
X1261799Y255896D01*
X1261745Y255904D01*
X1257935Y255904D01*
X1257870Y255893D01*
X1257804Y255891D01*
X1257761Y255873D01*
X1257714Y255865D01*
X1257657Y255831D01*
X1257597Y255806D01*
X1257562Y255775D01*
X1257521Y255750D01*
X1257480Y255699D01*
X1257431Y255655D01*
X1257409Y255613D01*
X1257380Y255576D01*
X1257359Y255514D01*
X1257328Y255455D01*
X1257320Y255401D01*
X1257308Y255364D01*
X1257308Y255361D01*
X1257309Y255324D01*
X1257301Y255270D01*
X1257301Y252730D01*
X1257312Y252665D01*
X1257314Y252599D01*
X1257332Y252556D01*
X1257340Y252509D01*
X1257374Y252452D01*
X1257399Y252392D01*
X1257430Y252357D01*
X1257455Y252316D01*
X1257506Y252275D01*
X1257550Y252226D01*
X1257592Y252204D01*
X1257629Y252175D01*
X1257691Y252154D01*
X1257750Y252123D01*
X1257804Y252115D01*
X1257841Y252103D01*
X1257881Y252104D01*
X1257935Y252096D01*
X1261745Y252096D01*
X1261810Y252107D01*
G37*
G36*
X817310Y1448447D02*
X817310Y1448447D01*
X817376Y1448449D01*
X817419Y1448467D01*
X817466Y1448475D01*
X817523Y1448509D01*
X817583Y1448534D01*
X817618Y1448565D01*
X817659Y1448590D01*
X817701Y1448641D01*
X817749Y1448685D01*
X817771Y1448727D01*
X817800Y1448764D01*
X817821Y1448826D01*
X817852Y1448885D01*
X817860Y1448939D01*
X817872Y1448976D01*
X817871Y1449016D01*
X817879Y1449070D01*
X817879Y1451610D01*
X817868Y1451675D01*
X817866Y1451741D01*
X817848Y1451784D01*
X817840Y1451831D01*
X817806Y1451888D01*
X817781Y1451948D01*
X817750Y1451983D01*
X817725Y1452024D01*
X817674Y1452066D01*
X817630Y1452114D01*
X817588Y1452136D01*
X817551Y1452165D01*
X817489Y1452186D01*
X817430Y1452217D01*
X817376Y1452225D01*
X817339Y1452237D01*
X817299Y1452236D01*
X817245Y1452244D01*
X813435Y1452244D01*
X813370Y1452233D01*
X813304Y1452231D01*
X813261Y1452213D01*
X813214Y1452205D01*
X813157Y1452171D01*
X813097Y1452146D01*
X813062Y1452115D01*
X813021Y1452090D01*
X812980Y1452039D01*
X812931Y1451995D01*
X812909Y1451953D01*
X812880Y1451916D01*
X812859Y1451854D01*
X812828Y1451795D01*
X812820Y1451741D01*
X812808Y1451704D01*
X812808Y1451701D01*
X812809Y1451664D01*
X812801Y1451610D01*
X812801Y1449070D01*
X812812Y1449005D01*
X812814Y1448939D01*
X812832Y1448896D01*
X812840Y1448849D01*
X812874Y1448792D01*
X812899Y1448732D01*
X812930Y1448697D01*
X812955Y1448656D01*
X813006Y1448615D01*
X813050Y1448566D01*
X813092Y1448544D01*
X813129Y1448515D01*
X813191Y1448494D01*
X813250Y1448463D01*
X813304Y1448455D01*
X813341Y1448443D01*
X813381Y1448444D01*
X813435Y1448436D01*
X817245Y1448436D01*
X817310Y1448447D01*
G37*
G36*
X807150Y1448447D02*
X807150Y1448447D01*
X807216Y1448449D01*
X807259Y1448467D01*
X807306Y1448475D01*
X807363Y1448509D01*
X807423Y1448534D01*
X807458Y1448565D01*
X807499Y1448590D01*
X807541Y1448641D01*
X807589Y1448685D01*
X807611Y1448727D01*
X807640Y1448764D01*
X807661Y1448826D01*
X807692Y1448885D01*
X807700Y1448939D01*
X807712Y1448976D01*
X807711Y1449016D01*
X807719Y1449070D01*
X807719Y1451610D01*
X807708Y1451675D01*
X807706Y1451741D01*
X807688Y1451784D01*
X807680Y1451831D01*
X807646Y1451888D01*
X807621Y1451948D01*
X807590Y1451983D01*
X807565Y1452024D01*
X807514Y1452066D01*
X807470Y1452114D01*
X807428Y1452136D01*
X807391Y1452165D01*
X807329Y1452186D01*
X807270Y1452217D01*
X807216Y1452225D01*
X807179Y1452237D01*
X807139Y1452236D01*
X807085Y1452244D01*
X803275Y1452244D01*
X803210Y1452233D01*
X803144Y1452231D01*
X803101Y1452213D01*
X803054Y1452205D01*
X802997Y1452171D01*
X802937Y1452146D01*
X802902Y1452115D01*
X802861Y1452090D01*
X802820Y1452039D01*
X802771Y1451995D01*
X802749Y1451953D01*
X802720Y1451916D01*
X802699Y1451854D01*
X802668Y1451795D01*
X802660Y1451741D01*
X802648Y1451704D01*
X802648Y1451701D01*
X802649Y1451664D01*
X802641Y1451610D01*
X802641Y1449070D01*
X802652Y1449005D01*
X802654Y1448939D01*
X802672Y1448896D01*
X802680Y1448849D01*
X802714Y1448792D01*
X802739Y1448732D01*
X802770Y1448697D01*
X802795Y1448656D01*
X802846Y1448615D01*
X802890Y1448566D01*
X802932Y1448544D01*
X802969Y1448515D01*
X803031Y1448494D01*
X803090Y1448463D01*
X803144Y1448455D01*
X803181Y1448443D01*
X803221Y1448444D01*
X803275Y1448436D01*
X807085Y1448436D01*
X807150Y1448447D01*
G37*
G36*
X1203390Y1448447D02*
X1203390Y1448447D01*
X1203456Y1448449D01*
X1203499Y1448467D01*
X1203546Y1448475D01*
X1203603Y1448509D01*
X1203663Y1448534D01*
X1203698Y1448565D01*
X1203739Y1448590D01*
X1203781Y1448641D01*
X1203829Y1448685D01*
X1203851Y1448727D01*
X1203880Y1448764D01*
X1203901Y1448826D01*
X1203932Y1448885D01*
X1203940Y1448939D01*
X1203952Y1448976D01*
X1203951Y1449016D01*
X1203959Y1449070D01*
X1203959Y1451610D01*
X1203948Y1451675D01*
X1203946Y1451741D01*
X1203928Y1451784D01*
X1203920Y1451831D01*
X1203886Y1451888D01*
X1203861Y1451948D01*
X1203830Y1451983D01*
X1203805Y1452024D01*
X1203754Y1452066D01*
X1203710Y1452114D01*
X1203668Y1452136D01*
X1203631Y1452165D01*
X1203569Y1452186D01*
X1203510Y1452217D01*
X1203456Y1452225D01*
X1203419Y1452237D01*
X1203379Y1452236D01*
X1203325Y1452244D01*
X1199515Y1452244D01*
X1199450Y1452233D01*
X1199384Y1452231D01*
X1199341Y1452213D01*
X1199294Y1452205D01*
X1199237Y1452171D01*
X1199177Y1452146D01*
X1199142Y1452115D01*
X1199101Y1452090D01*
X1199060Y1452039D01*
X1199011Y1451995D01*
X1198989Y1451953D01*
X1198960Y1451916D01*
X1198939Y1451854D01*
X1198908Y1451795D01*
X1198900Y1451741D01*
X1198888Y1451704D01*
X1198888Y1451701D01*
X1198889Y1451664D01*
X1198881Y1451610D01*
X1198881Y1449070D01*
X1198892Y1449005D01*
X1198894Y1448939D01*
X1198912Y1448896D01*
X1198920Y1448849D01*
X1198954Y1448792D01*
X1198979Y1448732D01*
X1199010Y1448697D01*
X1199035Y1448656D01*
X1199086Y1448615D01*
X1199130Y1448566D01*
X1199172Y1448544D01*
X1199209Y1448515D01*
X1199271Y1448494D01*
X1199330Y1448463D01*
X1199384Y1448455D01*
X1199421Y1448443D01*
X1199461Y1448444D01*
X1199515Y1448436D01*
X1203325Y1448436D01*
X1203390Y1448447D01*
G37*
G36*
X1193230Y1448447D02*
X1193230Y1448447D01*
X1193296Y1448449D01*
X1193339Y1448467D01*
X1193386Y1448475D01*
X1193443Y1448509D01*
X1193503Y1448534D01*
X1193538Y1448565D01*
X1193579Y1448590D01*
X1193621Y1448641D01*
X1193669Y1448685D01*
X1193691Y1448727D01*
X1193720Y1448764D01*
X1193741Y1448826D01*
X1193772Y1448885D01*
X1193780Y1448939D01*
X1193792Y1448976D01*
X1193791Y1449016D01*
X1193799Y1449070D01*
X1193799Y1451610D01*
X1193788Y1451675D01*
X1193786Y1451741D01*
X1193768Y1451784D01*
X1193760Y1451831D01*
X1193726Y1451888D01*
X1193701Y1451948D01*
X1193670Y1451983D01*
X1193645Y1452024D01*
X1193594Y1452066D01*
X1193550Y1452114D01*
X1193508Y1452136D01*
X1193471Y1452165D01*
X1193409Y1452186D01*
X1193350Y1452217D01*
X1193296Y1452225D01*
X1193259Y1452237D01*
X1193219Y1452236D01*
X1193165Y1452244D01*
X1189355Y1452244D01*
X1189290Y1452233D01*
X1189224Y1452231D01*
X1189181Y1452213D01*
X1189134Y1452205D01*
X1189077Y1452171D01*
X1189017Y1452146D01*
X1188982Y1452115D01*
X1188941Y1452090D01*
X1188900Y1452039D01*
X1188851Y1451995D01*
X1188829Y1451953D01*
X1188800Y1451916D01*
X1188779Y1451854D01*
X1188748Y1451795D01*
X1188740Y1451741D01*
X1188728Y1451704D01*
X1188728Y1451701D01*
X1188729Y1451664D01*
X1188721Y1451610D01*
X1188721Y1449070D01*
X1188732Y1449005D01*
X1188734Y1448939D01*
X1188752Y1448896D01*
X1188760Y1448849D01*
X1188794Y1448792D01*
X1188819Y1448732D01*
X1188850Y1448697D01*
X1188875Y1448656D01*
X1188926Y1448615D01*
X1188970Y1448566D01*
X1189012Y1448544D01*
X1189049Y1448515D01*
X1189111Y1448494D01*
X1189170Y1448463D01*
X1189224Y1448455D01*
X1189261Y1448443D01*
X1189301Y1448444D01*
X1189355Y1448436D01*
X1193165Y1448436D01*
X1193230Y1448447D01*
G37*
G36*
X489650Y1410347D02*
X489650Y1410347D01*
X489716Y1410349D01*
X489759Y1410367D01*
X489806Y1410375D01*
X489863Y1410409D01*
X489923Y1410434D01*
X489958Y1410465D01*
X489999Y1410490D01*
X490041Y1410541D01*
X490089Y1410585D01*
X490111Y1410627D01*
X490140Y1410664D01*
X490161Y1410726D01*
X490192Y1410785D01*
X490200Y1410839D01*
X490212Y1410876D01*
X490211Y1410916D01*
X490219Y1410970D01*
X490219Y1413510D01*
X490208Y1413575D01*
X490206Y1413641D01*
X490188Y1413684D01*
X490180Y1413731D01*
X490146Y1413788D01*
X490121Y1413848D01*
X490090Y1413883D01*
X490065Y1413924D01*
X490014Y1413966D01*
X489970Y1414014D01*
X489928Y1414036D01*
X489891Y1414065D01*
X489829Y1414086D01*
X489770Y1414117D01*
X489716Y1414125D01*
X489679Y1414137D01*
X489639Y1414136D01*
X489585Y1414144D01*
X485775Y1414144D01*
X485710Y1414133D01*
X485644Y1414131D01*
X485601Y1414113D01*
X485554Y1414105D01*
X485497Y1414071D01*
X485437Y1414046D01*
X485402Y1414015D01*
X485361Y1413990D01*
X485320Y1413939D01*
X485271Y1413895D01*
X485249Y1413853D01*
X485220Y1413816D01*
X485199Y1413754D01*
X485168Y1413695D01*
X485160Y1413641D01*
X485148Y1413604D01*
X485148Y1413601D01*
X485149Y1413564D01*
X485141Y1413510D01*
X485141Y1410970D01*
X485152Y1410905D01*
X485154Y1410839D01*
X485172Y1410796D01*
X485180Y1410749D01*
X485214Y1410692D01*
X485239Y1410632D01*
X485270Y1410597D01*
X485295Y1410556D01*
X485346Y1410515D01*
X485390Y1410466D01*
X485432Y1410444D01*
X485469Y1410415D01*
X485531Y1410394D01*
X485590Y1410363D01*
X485644Y1410355D01*
X485681Y1410343D01*
X485721Y1410344D01*
X485775Y1410336D01*
X489585Y1410336D01*
X489650Y1410347D01*
G37*
G36*
X103570Y1410347D02*
X103570Y1410347D01*
X103636Y1410349D01*
X103679Y1410367D01*
X103726Y1410375D01*
X103783Y1410409D01*
X103843Y1410434D01*
X103878Y1410465D01*
X103919Y1410490D01*
X103961Y1410541D01*
X104009Y1410585D01*
X104031Y1410627D01*
X104060Y1410664D01*
X104081Y1410726D01*
X104112Y1410785D01*
X104120Y1410839D01*
X104132Y1410876D01*
X104131Y1410916D01*
X104139Y1410970D01*
X104139Y1413510D01*
X104128Y1413575D01*
X104126Y1413641D01*
X104108Y1413684D01*
X104100Y1413731D01*
X104066Y1413788D01*
X104041Y1413848D01*
X104010Y1413883D01*
X103985Y1413924D01*
X103934Y1413966D01*
X103890Y1414014D01*
X103848Y1414036D01*
X103811Y1414065D01*
X103749Y1414086D01*
X103690Y1414117D01*
X103636Y1414125D01*
X103599Y1414137D01*
X103559Y1414136D01*
X103505Y1414144D01*
X99695Y1414144D01*
X99630Y1414133D01*
X99564Y1414131D01*
X99521Y1414113D01*
X99474Y1414105D01*
X99417Y1414071D01*
X99357Y1414046D01*
X99322Y1414015D01*
X99281Y1413990D01*
X99240Y1413939D01*
X99191Y1413895D01*
X99169Y1413853D01*
X99140Y1413816D01*
X99119Y1413754D01*
X99088Y1413695D01*
X99080Y1413641D01*
X99068Y1413604D01*
X99068Y1413601D01*
X99069Y1413564D01*
X99061Y1413510D01*
X99061Y1410970D01*
X99072Y1410905D01*
X99074Y1410839D01*
X99092Y1410796D01*
X99100Y1410749D01*
X99134Y1410692D01*
X99159Y1410632D01*
X99190Y1410597D01*
X99215Y1410556D01*
X99266Y1410515D01*
X99310Y1410466D01*
X99352Y1410444D01*
X99389Y1410415D01*
X99451Y1410394D01*
X99510Y1410363D01*
X99564Y1410355D01*
X99601Y1410343D01*
X99641Y1410344D01*
X99695Y1410336D01*
X103505Y1410336D01*
X103570Y1410347D01*
G37*
G36*
X1261810Y1410347D02*
X1261810Y1410347D01*
X1261876Y1410349D01*
X1261919Y1410367D01*
X1261966Y1410375D01*
X1262023Y1410409D01*
X1262083Y1410434D01*
X1262118Y1410465D01*
X1262159Y1410490D01*
X1262201Y1410541D01*
X1262249Y1410585D01*
X1262271Y1410627D01*
X1262300Y1410664D01*
X1262321Y1410726D01*
X1262352Y1410785D01*
X1262360Y1410839D01*
X1262372Y1410876D01*
X1262371Y1410916D01*
X1262379Y1410970D01*
X1262379Y1413510D01*
X1262368Y1413575D01*
X1262366Y1413641D01*
X1262348Y1413684D01*
X1262340Y1413731D01*
X1262306Y1413788D01*
X1262281Y1413848D01*
X1262250Y1413883D01*
X1262225Y1413924D01*
X1262174Y1413966D01*
X1262130Y1414014D01*
X1262088Y1414036D01*
X1262051Y1414065D01*
X1261989Y1414086D01*
X1261930Y1414117D01*
X1261876Y1414125D01*
X1261839Y1414137D01*
X1261799Y1414136D01*
X1261745Y1414144D01*
X1257935Y1414144D01*
X1257870Y1414133D01*
X1257804Y1414131D01*
X1257761Y1414113D01*
X1257714Y1414105D01*
X1257657Y1414071D01*
X1257597Y1414046D01*
X1257562Y1414015D01*
X1257521Y1413990D01*
X1257480Y1413939D01*
X1257431Y1413895D01*
X1257409Y1413853D01*
X1257380Y1413816D01*
X1257359Y1413754D01*
X1257328Y1413695D01*
X1257320Y1413641D01*
X1257308Y1413604D01*
X1257308Y1413601D01*
X1257309Y1413564D01*
X1257301Y1413510D01*
X1257301Y1410970D01*
X1257312Y1410905D01*
X1257314Y1410839D01*
X1257332Y1410796D01*
X1257340Y1410749D01*
X1257374Y1410692D01*
X1257399Y1410632D01*
X1257430Y1410597D01*
X1257455Y1410556D01*
X1257506Y1410515D01*
X1257550Y1410466D01*
X1257592Y1410444D01*
X1257629Y1410415D01*
X1257691Y1410394D01*
X1257750Y1410363D01*
X1257804Y1410355D01*
X1257841Y1410343D01*
X1257881Y1410344D01*
X1257935Y1410336D01*
X1261745Y1410336D01*
X1261810Y1410347D01*
G37*
G36*
X875730Y1410347D02*
X875730Y1410347D01*
X875796Y1410349D01*
X875839Y1410367D01*
X875886Y1410375D01*
X875943Y1410409D01*
X876003Y1410434D01*
X876038Y1410465D01*
X876079Y1410490D01*
X876121Y1410541D01*
X876169Y1410585D01*
X876191Y1410627D01*
X876220Y1410664D01*
X876241Y1410726D01*
X876272Y1410785D01*
X876280Y1410839D01*
X876292Y1410876D01*
X876291Y1410916D01*
X876299Y1410970D01*
X876299Y1413510D01*
X876288Y1413575D01*
X876286Y1413641D01*
X876268Y1413684D01*
X876260Y1413731D01*
X876226Y1413788D01*
X876201Y1413848D01*
X876170Y1413883D01*
X876145Y1413924D01*
X876094Y1413966D01*
X876050Y1414014D01*
X876008Y1414036D01*
X875971Y1414065D01*
X875909Y1414086D01*
X875850Y1414117D01*
X875796Y1414125D01*
X875759Y1414137D01*
X875719Y1414136D01*
X875665Y1414144D01*
X871855Y1414144D01*
X871790Y1414133D01*
X871724Y1414131D01*
X871681Y1414113D01*
X871634Y1414105D01*
X871577Y1414071D01*
X871517Y1414046D01*
X871482Y1414015D01*
X871441Y1413990D01*
X871400Y1413939D01*
X871351Y1413895D01*
X871329Y1413853D01*
X871300Y1413816D01*
X871279Y1413754D01*
X871248Y1413695D01*
X871240Y1413641D01*
X871228Y1413604D01*
X871228Y1413601D01*
X871229Y1413564D01*
X871221Y1413510D01*
X871221Y1410970D01*
X871232Y1410905D01*
X871234Y1410839D01*
X871252Y1410796D01*
X871260Y1410749D01*
X871294Y1410692D01*
X871319Y1410632D01*
X871350Y1410597D01*
X871375Y1410556D01*
X871426Y1410515D01*
X871470Y1410466D01*
X871512Y1410444D01*
X871549Y1410415D01*
X871611Y1410394D01*
X871670Y1410363D01*
X871724Y1410355D01*
X871761Y1410343D01*
X871801Y1410344D01*
X871855Y1410336D01*
X875665Y1410336D01*
X875730Y1410347D01*
G37*
G36*
X1439610Y1372247D02*
X1439610Y1372247D01*
X1439676Y1372249D01*
X1439719Y1372267D01*
X1439766Y1372275D01*
X1439823Y1372309D01*
X1439883Y1372334D01*
X1439918Y1372365D01*
X1439959Y1372390D01*
X1440001Y1372441D01*
X1440049Y1372485D01*
X1440071Y1372527D01*
X1440100Y1372564D01*
X1440121Y1372626D01*
X1440152Y1372685D01*
X1440160Y1372739D01*
X1440172Y1372776D01*
X1440171Y1372816D01*
X1440179Y1372870D01*
X1440179Y1375410D01*
X1440168Y1375475D01*
X1440166Y1375541D01*
X1440148Y1375584D01*
X1440140Y1375631D01*
X1440106Y1375688D01*
X1440081Y1375748D01*
X1440050Y1375783D01*
X1440025Y1375824D01*
X1439974Y1375866D01*
X1439930Y1375914D01*
X1439888Y1375936D01*
X1439851Y1375965D01*
X1439789Y1375986D01*
X1439730Y1376017D01*
X1439676Y1376025D01*
X1439639Y1376037D01*
X1439599Y1376036D01*
X1439545Y1376044D01*
X1435735Y1376044D01*
X1435670Y1376033D01*
X1435604Y1376031D01*
X1435561Y1376013D01*
X1435514Y1376005D01*
X1435457Y1375971D01*
X1435397Y1375946D01*
X1435362Y1375915D01*
X1435321Y1375890D01*
X1435280Y1375839D01*
X1435231Y1375795D01*
X1435209Y1375753D01*
X1435180Y1375716D01*
X1435159Y1375654D01*
X1435128Y1375595D01*
X1435120Y1375541D01*
X1435108Y1375504D01*
X1435108Y1375501D01*
X1435109Y1375464D01*
X1435101Y1375410D01*
X1435101Y1372870D01*
X1435112Y1372805D01*
X1435114Y1372739D01*
X1435132Y1372696D01*
X1435140Y1372649D01*
X1435174Y1372592D01*
X1435199Y1372532D01*
X1435230Y1372497D01*
X1435255Y1372456D01*
X1435306Y1372415D01*
X1435350Y1372366D01*
X1435392Y1372344D01*
X1435429Y1372315D01*
X1435491Y1372294D01*
X1435550Y1372263D01*
X1435604Y1372255D01*
X1435641Y1372243D01*
X1435681Y1372244D01*
X1435735Y1372236D01*
X1439545Y1372236D01*
X1439610Y1372247D01*
G37*
G36*
X1053530Y1372247D02*
X1053530Y1372247D01*
X1053596Y1372249D01*
X1053639Y1372267D01*
X1053686Y1372275D01*
X1053743Y1372309D01*
X1053803Y1372334D01*
X1053838Y1372365D01*
X1053879Y1372390D01*
X1053921Y1372441D01*
X1053969Y1372485D01*
X1053991Y1372527D01*
X1054020Y1372564D01*
X1054041Y1372626D01*
X1054072Y1372685D01*
X1054080Y1372739D01*
X1054092Y1372776D01*
X1054091Y1372816D01*
X1054099Y1372870D01*
X1054099Y1375410D01*
X1054088Y1375475D01*
X1054086Y1375541D01*
X1054068Y1375584D01*
X1054060Y1375631D01*
X1054026Y1375688D01*
X1054001Y1375748D01*
X1053970Y1375783D01*
X1053945Y1375824D01*
X1053894Y1375866D01*
X1053850Y1375914D01*
X1053808Y1375936D01*
X1053771Y1375965D01*
X1053709Y1375986D01*
X1053650Y1376017D01*
X1053596Y1376025D01*
X1053559Y1376037D01*
X1053519Y1376036D01*
X1053465Y1376044D01*
X1049655Y1376044D01*
X1049590Y1376033D01*
X1049524Y1376031D01*
X1049481Y1376013D01*
X1049434Y1376005D01*
X1049377Y1375971D01*
X1049317Y1375946D01*
X1049282Y1375915D01*
X1049241Y1375890D01*
X1049200Y1375839D01*
X1049151Y1375795D01*
X1049129Y1375753D01*
X1049100Y1375716D01*
X1049079Y1375654D01*
X1049048Y1375595D01*
X1049040Y1375541D01*
X1049028Y1375504D01*
X1049028Y1375501D01*
X1049029Y1375464D01*
X1049021Y1375410D01*
X1049021Y1372870D01*
X1049032Y1372805D01*
X1049034Y1372739D01*
X1049052Y1372696D01*
X1049060Y1372649D01*
X1049094Y1372592D01*
X1049119Y1372532D01*
X1049150Y1372497D01*
X1049175Y1372456D01*
X1049226Y1372415D01*
X1049270Y1372366D01*
X1049312Y1372344D01*
X1049349Y1372315D01*
X1049411Y1372294D01*
X1049470Y1372263D01*
X1049524Y1372255D01*
X1049561Y1372243D01*
X1049601Y1372244D01*
X1049655Y1372236D01*
X1053465Y1372236D01*
X1053530Y1372247D01*
G37*
G36*
X281370Y1372247D02*
X281370Y1372247D01*
X281436Y1372249D01*
X281479Y1372267D01*
X281526Y1372275D01*
X281583Y1372309D01*
X281643Y1372334D01*
X281678Y1372365D01*
X281719Y1372390D01*
X281761Y1372441D01*
X281809Y1372485D01*
X281831Y1372527D01*
X281860Y1372564D01*
X281881Y1372626D01*
X281912Y1372685D01*
X281920Y1372739D01*
X281932Y1372776D01*
X281931Y1372816D01*
X281939Y1372870D01*
X281939Y1375410D01*
X281928Y1375475D01*
X281926Y1375541D01*
X281908Y1375584D01*
X281900Y1375631D01*
X281866Y1375688D01*
X281841Y1375748D01*
X281810Y1375783D01*
X281785Y1375824D01*
X281734Y1375866D01*
X281690Y1375914D01*
X281648Y1375936D01*
X281611Y1375965D01*
X281549Y1375986D01*
X281490Y1376017D01*
X281436Y1376025D01*
X281399Y1376037D01*
X281359Y1376036D01*
X281305Y1376044D01*
X277495Y1376044D01*
X277430Y1376033D01*
X277364Y1376031D01*
X277321Y1376013D01*
X277274Y1376005D01*
X277217Y1375971D01*
X277157Y1375946D01*
X277122Y1375915D01*
X277081Y1375890D01*
X277040Y1375839D01*
X276991Y1375795D01*
X276969Y1375753D01*
X276940Y1375716D01*
X276919Y1375654D01*
X276888Y1375595D01*
X276880Y1375541D01*
X276868Y1375504D01*
X276868Y1375501D01*
X276869Y1375464D01*
X276861Y1375410D01*
X276861Y1372870D01*
X276872Y1372805D01*
X276874Y1372739D01*
X276892Y1372696D01*
X276900Y1372649D01*
X276934Y1372592D01*
X276959Y1372532D01*
X276990Y1372497D01*
X277015Y1372456D01*
X277066Y1372415D01*
X277110Y1372366D01*
X277152Y1372344D01*
X277189Y1372315D01*
X277251Y1372294D01*
X277310Y1372263D01*
X277364Y1372255D01*
X277401Y1372243D01*
X277441Y1372244D01*
X277495Y1372236D01*
X281305Y1372236D01*
X281370Y1372247D01*
G37*
G36*
X667450Y1372247D02*
X667450Y1372247D01*
X667516Y1372249D01*
X667559Y1372267D01*
X667606Y1372275D01*
X667663Y1372309D01*
X667723Y1372334D01*
X667758Y1372365D01*
X667799Y1372390D01*
X667841Y1372441D01*
X667889Y1372485D01*
X667911Y1372527D01*
X667940Y1372564D01*
X667961Y1372626D01*
X667992Y1372685D01*
X668000Y1372739D01*
X668012Y1372776D01*
X668011Y1372816D01*
X668019Y1372870D01*
X668019Y1375410D01*
X668008Y1375475D01*
X668006Y1375541D01*
X667988Y1375584D01*
X667980Y1375631D01*
X667946Y1375688D01*
X667921Y1375748D01*
X667890Y1375783D01*
X667865Y1375824D01*
X667814Y1375866D01*
X667770Y1375914D01*
X667728Y1375936D01*
X667691Y1375965D01*
X667629Y1375986D01*
X667570Y1376017D01*
X667516Y1376025D01*
X667479Y1376037D01*
X667439Y1376036D01*
X667385Y1376044D01*
X663575Y1376044D01*
X663510Y1376033D01*
X663444Y1376031D01*
X663401Y1376013D01*
X663354Y1376005D01*
X663297Y1375971D01*
X663237Y1375946D01*
X663202Y1375915D01*
X663161Y1375890D01*
X663120Y1375839D01*
X663071Y1375795D01*
X663049Y1375753D01*
X663020Y1375716D01*
X662999Y1375654D01*
X662968Y1375595D01*
X662960Y1375541D01*
X662948Y1375504D01*
X662948Y1375501D01*
X662949Y1375464D01*
X662941Y1375410D01*
X662941Y1372870D01*
X662952Y1372805D01*
X662954Y1372739D01*
X662972Y1372696D01*
X662980Y1372649D01*
X663014Y1372592D01*
X663039Y1372532D01*
X663070Y1372497D01*
X663095Y1372456D01*
X663146Y1372415D01*
X663190Y1372366D01*
X663232Y1372344D01*
X663269Y1372315D01*
X663331Y1372294D01*
X663390Y1372263D01*
X663444Y1372255D01*
X663481Y1372243D01*
X663521Y1372244D01*
X663575Y1372236D01*
X667385Y1372236D01*
X667450Y1372247D01*
G37*
G36*
X281370Y1346847D02*
X281370Y1346847D01*
X281436Y1346849D01*
X281479Y1346867D01*
X281526Y1346875D01*
X281583Y1346909D01*
X281643Y1346934D01*
X281678Y1346965D01*
X281719Y1346990D01*
X281761Y1347041D01*
X281809Y1347085D01*
X281831Y1347127D01*
X281860Y1347164D01*
X281881Y1347226D01*
X281912Y1347285D01*
X281920Y1347339D01*
X281932Y1347376D01*
X281931Y1347416D01*
X281939Y1347470D01*
X281939Y1350010D01*
X281928Y1350075D01*
X281926Y1350141D01*
X281908Y1350184D01*
X281900Y1350231D01*
X281866Y1350288D01*
X281841Y1350348D01*
X281810Y1350383D01*
X281785Y1350424D01*
X281734Y1350466D01*
X281690Y1350514D01*
X281648Y1350536D01*
X281611Y1350565D01*
X281549Y1350586D01*
X281490Y1350617D01*
X281436Y1350625D01*
X281399Y1350637D01*
X281359Y1350636D01*
X281305Y1350644D01*
X277495Y1350644D01*
X277430Y1350633D01*
X277364Y1350631D01*
X277321Y1350613D01*
X277274Y1350605D01*
X277217Y1350571D01*
X277157Y1350546D01*
X277122Y1350515D01*
X277081Y1350490D01*
X277040Y1350439D01*
X276991Y1350395D01*
X276969Y1350353D01*
X276940Y1350316D01*
X276919Y1350254D01*
X276888Y1350195D01*
X276880Y1350141D01*
X276868Y1350104D01*
X276868Y1350101D01*
X276869Y1350064D01*
X276861Y1350010D01*
X276861Y1347470D01*
X276872Y1347405D01*
X276874Y1347339D01*
X276892Y1347296D01*
X276900Y1347249D01*
X276934Y1347192D01*
X276959Y1347132D01*
X276990Y1347097D01*
X277015Y1347056D01*
X277066Y1347015D01*
X277110Y1346966D01*
X277152Y1346944D01*
X277189Y1346915D01*
X277251Y1346894D01*
X277310Y1346863D01*
X277364Y1346855D01*
X277401Y1346843D01*
X277441Y1346844D01*
X277495Y1346836D01*
X281305Y1346836D01*
X281370Y1346847D01*
G37*
G36*
X667450Y1346847D02*
X667450Y1346847D01*
X667516Y1346849D01*
X667559Y1346867D01*
X667606Y1346875D01*
X667663Y1346909D01*
X667723Y1346934D01*
X667758Y1346965D01*
X667799Y1346990D01*
X667841Y1347041D01*
X667889Y1347085D01*
X667911Y1347127D01*
X667940Y1347164D01*
X667961Y1347226D01*
X667992Y1347285D01*
X668000Y1347339D01*
X668012Y1347376D01*
X668011Y1347416D01*
X668019Y1347470D01*
X668019Y1350010D01*
X668008Y1350075D01*
X668006Y1350141D01*
X667988Y1350184D01*
X667980Y1350231D01*
X667946Y1350288D01*
X667921Y1350348D01*
X667890Y1350383D01*
X667865Y1350424D01*
X667814Y1350466D01*
X667770Y1350514D01*
X667728Y1350536D01*
X667691Y1350565D01*
X667629Y1350586D01*
X667570Y1350617D01*
X667516Y1350625D01*
X667479Y1350637D01*
X667439Y1350636D01*
X667385Y1350644D01*
X663575Y1350644D01*
X663510Y1350633D01*
X663444Y1350631D01*
X663401Y1350613D01*
X663354Y1350605D01*
X663297Y1350571D01*
X663237Y1350546D01*
X663202Y1350515D01*
X663161Y1350490D01*
X663120Y1350439D01*
X663071Y1350395D01*
X663049Y1350353D01*
X663020Y1350316D01*
X662999Y1350254D01*
X662968Y1350195D01*
X662960Y1350141D01*
X662948Y1350104D01*
X662948Y1350101D01*
X662949Y1350064D01*
X662941Y1350010D01*
X662941Y1347470D01*
X662952Y1347405D01*
X662954Y1347339D01*
X662972Y1347296D01*
X662980Y1347249D01*
X663014Y1347192D01*
X663039Y1347132D01*
X663070Y1347097D01*
X663095Y1347056D01*
X663146Y1347015D01*
X663190Y1346966D01*
X663232Y1346944D01*
X663269Y1346915D01*
X663331Y1346894D01*
X663390Y1346863D01*
X663444Y1346855D01*
X663481Y1346843D01*
X663521Y1346844D01*
X663575Y1346836D01*
X667385Y1346836D01*
X667450Y1346847D01*
G37*
G36*
X1439610Y1346847D02*
X1439610Y1346847D01*
X1439676Y1346849D01*
X1439719Y1346867D01*
X1439766Y1346875D01*
X1439823Y1346909D01*
X1439883Y1346934D01*
X1439918Y1346965D01*
X1439959Y1346990D01*
X1440001Y1347041D01*
X1440049Y1347085D01*
X1440071Y1347127D01*
X1440100Y1347164D01*
X1440121Y1347226D01*
X1440152Y1347285D01*
X1440160Y1347339D01*
X1440172Y1347376D01*
X1440171Y1347416D01*
X1440179Y1347470D01*
X1440179Y1350010D01*
X1440168Y1350075D01*
X1440166Y1350141D01*
X1440148Y1350184D01*
X1440140Y1350231D01*
X1440106Y1350288D01*
X1440081Y1350348D01*
X1440050Y1350383D01*
X1440025Y1350424D01*
X1439974Y1350466D01*
X1439930Y1350514D01*
X1439888Y1350536D01*
X1439851Y1350565D01*
X1439789Y1350586D01*
X1439730Y1350617D01*
X1439676Y1350625D01*
X1439639Y1350637D01*
X1439599Y1350636D01*
X1439545Y1350644D01*
X1435735Y1350644D01*
X1435670Y1350633D01*
X1435604Y1350631D01*
X1435561Y1350613D01*
X1435514Y1350605D01*
X1435457Y1350571D01*
X1435397Y1350546D01*
X1435362Y1350515D01*
X1435321Y1350490D01*
X1435280Y1350439D01*
X1435231Y1350395D01*
X1435209Y1350353D01*
X1435180Y1350316D01*
X1435159Y1350254D01*
X1435128Y1350195D01*
X1435120Y1350141D01*
X1435108Y1350104D01*
X1435108Y1350101D01*
X1435109Y1350064D01*
X1435101Y1350010D01*
X1435101Y1347470D01*
X1435112Y1347405D01*
X1435114Y1347339D01*
X1435132Y1347296D01*
X1435140Y1347249D01*
X1435174Y1347192D01*
X1435199Y1347132D01*
X1435230Y1347097D01*
X1435255Y1347056D01*
X1435306Y1347015D01*
X1435350Y1346966D01*
X1435392Y1346944D01*
X1435429Y1346915D01*
X1435491Y1346894D01*
X1435550Y1346863D01*
X1435604Y1346855D01*
X1435641Y1346843D01*
X1435681Y1346844D01*
X1435735Y1346836D01*
X1439545Y1346836D01*
X1439610Y1346847D01*
G37*
G36*
X1053530Y1346847D02*
X1053530Y1346847D01*
X1053596Y1346849D01*
X1053639Y1346867D01*
X1053686Y1346875D01*
X1053743Y1346909D01*
X1053803Y1346934D01*
X1053838Y1346965D01*
X1053879Y1346990D01*
X1053921Y1347041D01*
X1053969Y1347085D01*
X1053991Y1347127D01*
X1054020Y1347164D01*
X1054041Y1347226D01*
X1054072Y1347285D01*
X1054080Y1347339D01*
X1054092Y1347376D01*
X1054091Y1347416D01*
X1054099Y1347470D01*
X1054099Y1350010D01*
X1054088Y1350075D01*
X1054086Y1350141D01*
X1054068Y1350184D01*
X1054060Y1350231D01*
X1054026Y1350288D01*
X1054001Y1350348D01*
X1053970Y1350383D01*
X1053945Y1350424D01*
X1053894Y1350466D01*
X1053850Y1350514D01*
X1053808Y1350536D01*
X1053771Y1350565D01*
X1053709Y1350586D01*
X1053650Y1350617D01*
X1053596Y1350625D01*
X1053559Y1350637D01*
X1053519Y1350636D01*
X1053465Y1350644D01*
X1049655Y1350644D01*
X1049590Y1350633D01*
X1049524Y1350631D01*
X1049481Y1350613D01*
X1049434Y1350605D01*
X1049377Y1350571D01*
X1049317Y1350546D01*
X1049282Y1350515D01*
X1049241Y1350490D01*
X1049200Y1350439D01*
X1049151Y1350395D01*
X1049129Y1350353D01*
X1049100Y1350316D01*
X1049079Y1350254D01*
X1049048Y1350195D01*
X1049040Y1350141D01*
X1049028Y1350104D01*
X1049028Y1350101D01*
X1049029Y1350064D01*
X1049021Y1350010D01*
X1049021Y1347470D01*
X1049032Y1347405D01*
X1049034Y1347339D01*
X1049052Y1347296D01*
X1049060Y1347249D01*
X1049094Y1347192D01*
X1049119Y1347132D01*
X1049150Y1347097D01*
X1049175Y1347056D01*
X1049226Y1347015D01*
X1049270Y1346966D01*
X1049312Y1346944D01*
X1049349Y1346915D01*
X1049411Y1346894D01*
X1049470Y1346863D01*
X1049524Y1346855D01*
X1049561Y1346843D01*
X1049601Y1346844D01*
X1049655Y1346836D01*
X1053465Y1346836D01*
X1053530Y1346847D01*
G37*
G36*
X281370Y1321447D02*
X281370Y1321447D01*
X281436Y1321449D01*
X281479Y1321467D01*
X281526Y1321475D01*
X281583Y1321509D01*
X281643Y1321534D01*
X281678Y1321565D01*
X281719Y1321590D01*
X281761Y1321641D01*
X281809Y1321685D01*
X281831Y1321727D01*
X281860Y1321764D01*
X281881Y1321826D01*
X281912Y1321885D01*
X281920Y1321939D01*
X281932Y1321976D01*
X281931Y1322016D01*
X281939Y1322070D01*
X281939Y1324610D01*
X281928Y1324675D01*
X281926Y1324741D01*
X281908Y1324784D01*
X281900Y1324831D01*
X281866Y1324888D01*
X281841Y1324948D01*
X281810Y1324983D01*
X281785Y1325024D01*
X281734Y1325066D01*
X281690Y1325114D01*
X281648Y1325136D01*
X281611Y1325165D01*
X281549Y1325186D01*
X281490Y1325217D01*
X281436Y1325225D01*
X281399Y1325237D01*
X281359Y1325236D01*
X281305Y1325244D01*
X277495Y1325244D01*
X277430Y1325233D01*
X277364Y1325231D01*
X277321Y1325213D01*
X277274Y1325205D01*
X277217Y1325171D01*
X277157Y1325146D01*
X277122Y1325115D01*
X277081Y1325090D01*
X277040Y1325039D01*
X276991Y1324995D01*
X276969Y1324953D01*
X276940Y1324916D01*
X276919Y1324854D01*
X276888Y1324795D01*
X276880Y1324741D01*
X276868Y1324704D01*
X276868Y1324701D01*
X276869Y1324664D01*
X276861Y1324610D01*
X276861Y1322070D01*
X276872Y1322005D01*
X276874Y1321939D01*
X276892Y1321896D01*
X276900Y1321849D01*
X276934Y1321792D01*
X276959Y1321732D01*
X276990Y1321697D01*
X277015Y1321656D01*
X277066Y1321615D01*
X277110Y1321566D01*
X277152Y1321544D01*
X277189Y1321515D01*
X277251Y1321494D01*
X277310Y1321463D01*
X277364Y1321455D01*
X277401Y1321443D01*
X277441Y1321444D01*
X277495Y1321436D01*
X281305Y1321436D01*
X281370Y1321447D01*
G37*
G36*
X1053530Y1321447D02*
X1053530Y1321447D01*
X1053596Y1321449D01*
X1053639Y1321467D01*
X1053686Y1321475D01*
X1053743Y1321509D01*
X1053803Y1321534D01*
X1053838Y1321565D01*
X1053879Y1321590D01*
X1053921Y1321641D01*
X1053969Y1321685D01*
X1053991Y1321727D01*
X1054020Y1321764D01*
X1054041Y1321826D01*
X1054072Y1321885D01*
X1054080Y1321939D01*
X1054092Y1321976D01*
X1054091Y1322016D01*
X1054099Y1322070D01*
X1054099Y1324610D01*
X1054088Y1324675D01*
X1054086Y1324741D01*
X1054068Y1324784D01*
X1054060Y1324831D01*
X1054026Y1324888D01*
X1054001Y1324948D01*
X1053970Y1324983D01*
X1053945Y1325024D01*
X1053894Y1325066D01*
X1053850Y1325114D01*
X1053808Y1325136D01*
X1053771Y1325165D01*
X1053709Y1325186D01*
X1053650Y1325217D01*
X1053596Y1325225D01*
X1053559Y1325237D01*
X1053519Y1325236D01*
X1053465Y1325244D01*
X1049655Y1325244D01*
X1049590Y1325233D01*
X1049524Y1325231D01*
X1049481Y1325213D01*
X1049434Y1325205D01*
X1049377Y1325171D01*
X1049317Y1325146D01*
X1049282Y1325115D01*
X1049241Y1325090D01*
X1049200Y1325039D01*
X1049151Y1324995D01*
X1049129Y1324953D01*
X1049100Y1324916D01*
X1049079Y1324854D01*
X1049048Y1324795D01*
X1049040Y1324741D01*
X1049028Y1324704D01*
X1049028Y1324701D01*
X1049029Y1324664D01*
X1049021Y1324610D01*
X1049021Y1322070D01*
X1049032Y1322005D01*
X1049034Y1321939D01*
X1049052Y1321896D01*
X1049060Y1321849D01*
X1049094Y1321792D01*
X1049119Y1321732D01*
X1049150Y1321697D01*
X1049175Y1321656D01*
X1049226Y1321615D01*
X1049270Y1321566D01*
X1049312Y1321544D01*
X1049349Y1321515D01*
X1049411Y1321494D01*
X1049470Y1321463D01*
X1049524Y1321455D01*
X1049561Y1321443D01*
X1049601Y1321444D01*
X1049655Y1321436D01*
X1053465Y1321436D01*
X1053530Y1321447D01*
G37*
G36*
X667450Y1321447D02*
X667450Y1321447D01*
X667516Y1321449D01*
X667559Y1321467D01*
X667606Y1321475D01*
X667663Y1321509D01*
X667723Y1321534D01*
X667758Y1321565D01*
X667799Y1321590D01*
X667841Y1321641D01*
X667889Y1321685D01*
X667911Y1321727D01*
X667940Y1321764D01*
X667961Y1321826D01*
X667992Y1321885D01*
X668000Y1321939D01*
X668012Y1321976D01*
X668011Y1322016D01*
X668019Y1322070D01*
X668019Y1324610D01*
X668008Y1324675D01*
X668006Y1324741D01*
X667988Y1324784D01*
X667980Y1324831D01*
X667946Y1324888D01*
X667921Y1324948D01*
X667890Y1324983D01*
X667865Y1325024D01*
X667814Y1325066D01*
X667770Y1325114D01*
X667728Y1325136D01*
X667691Y1325165D01*
X667629Y1325186D01*
X667570Y1325217D01*
X667516Y1325225D01*
X667479Y1325237D01*
X667439Y1325236D01*
X667385Y1325244D01*
X663575Y1325244D01*
X663510Y1325233D01*
X663444Y1325231D01*
X663401Y1325213D01*
X663354Y1325205D01*
X663297Y1325171D01*
X663237Y1325146D01*
X663202Y1325115D01*
X663161Y1325090D01*
X663120Y1325039D01*
X663071Y1324995D01*
X663049Y1324953D01*
X663020Y1324916D01*
X662999Y1324854D01*
X662968Y1324795D01*
X662960Y1324741D01*
X662948Y1324704D01*
X662948Y1324701D01*
X662949Y1324664D01*
X662941Y1324610D01*
X662941Y1322070D01*
X662952Y1322005D01*
X662954Y1321939D01*
X662972Y1321896D01*
X662980Y1321849D01*
X663014Y1321792D01*
X663039Y1321732D01*
X663070Y1321697D01*
X663095Y1321656D01*
X663146Y1321615D01*
X663190Y1321566D01*
X663232Y1321544D01*
X663269Y1321515D01*
X663331Y1321494D01*
X663390Y1321463D01*
X663444Y1321455D01*
X663481Y1321443D01*
X663521Y1321444D01*
X663575Y1321436D01*
X667385Y1321436D01*
X667450Y1321447D01*
G37*
G36*
X1439610Y1321447D02*
X1439610Y1321447D01*
X1439676Y1321449D01*
X1439719Y1321467D01*
X1439766Y1321475D01*
X1439823Y1321509D01*
X1439883Y1321534D01*
X1439918Y1321565D01*
X1439959Y1321590D01*
X1440001Y1321641D01*
X1440049Y1321685D01*
X1440071Y1321727D01*
X1440100Y1321764D01*
X1440121Y1321826D01*
X1440152Y1321885D01*
X1440160Y1321939D01*
X1440172Y1321976D01*
X1440171Y1322016D01*
X1440179Y1322070D01*
X1440179Y1324610D01*
X1440168Y1324675D01*
X1440166Y1324741D01*
X1440148Y1324784D01*
X1440140Y1324831D01*
X1440106Y1324888D01*
X1440081Y1324948D01*
X1440050Y1324983D01*
X1440025Y1325024D01*
X1439974Y1325066D01*
X1439930Y1325114D01*
X1439888Y1325136D01*
X1439851Y1325165D01*
X1439789Y1325186D01*
X1439730Y1325217D01*
X1439676Y1325225D01*
X1439639Y1325237D01*
X1439599Y1325236D01*
X1439545Y1325244D01*
X1435735Y1325244D01*
X1435670Y1325233D01*
X1435604Y1325231D01*
X1435561Y1325213D01*
X1435514Y1325205D01*
X1435457Y1325171D01*
X1435397Y1325146D01*
X1435362Y1325115D01*
X1435321Y1325090D01*
X1435280Y1325039D01*
X1435231Y1324995D01*
X1435209Y1324953D01*
X1435180Y1324916D01*
X1435159Y1324854D01*
X1435128Y1324795D01*
X1435120Y1324741D01*
X1435108Y1324704D01*
X1435108Y1324701D01*
X1435109Y1324664D01*
X1435101Y1324610D01*
X1435101Y1322070D01*
X1435112Y1322005D01*
X1435114Y1321939D01*
X1435132Y1321896D01*
X1435140Y1321849D01*
X1435174Y1321792D01*
X1435199Y1321732D01*
X1435230Y1321697D01*
X1435255Y1321656D01*
X1435306Y1321615D01*
X1435350Y1321566D01*
X1435392Y1321544D01*
X1435429Y1321515D01*
X1435491Y1321494D01*
X1435550Y1321463D01*
X1435604Y1321455D01*
X1435641Y1321443D01*
X1435681Y1321444D01*
X1435735Y1321436D01*
X1439545Y1321436D01*
X1439610Y1321447D01*
G37*
G36*
X438850Y1232547D02*
X438850Y1232547D01*
X438916Y1232549D01*
X438959Y1232567D01*
X439006Y1232575D01*
X439063Y1232609D01*
X439123Y1232634D01*
X439158Y1232665D01*
X439199Y1232690D01*
X439241Y1232741D01*
X439289Y1232785D01*
X439311Y1232827D01*
X439340Y1232864D01*
X439361Y1232926D01*
X439392Y1232985D01*
X439400Y1233039D01*
X439412Y1233076D01*
X439411Y1233116D01*
X439419Y1233170D01*
X439419Y1235710D01*
X439408Y1235775D01*
X439406Y1235841D01*
X439388Y1235884D01*
X439380Y1235931D01*
X439346Y1235988D01*
X439321Y1236048D01*
X439290Y1236083D01*
X439265Y1236124D01*
X439214Y1236166D01*
X439170Y1236214D01*
X439128Y1236236D01*
X439091Y1236265D01*
X439029Y1236286D01*
X438970Y1236317D01*
X438916Y1236325D01*
X438879Y1236337D01*
X438839Y1236336D01*
X438785Y1236344D01*
X434975Y1236344D01*
X434910Y1236333D01*
X434844Y1236331D01*
X434801Y1236313D01*
X434754Y1236305D01*
X434697Y1236271D01*
X434637Y1236246D01*
X434602Y1236215D01*
X434561Y1236190D01*
X434520Y1236139D01*
X434471Y1236095D01*
X434449Y1236053D01*
X434420Y1236016D01*
X434399Y1235954D01*
X434368Y1235895D01*
X434360Y1235841D01*
X434348Y1235804D01*
X434348Y1235801D01*
X434349Y1235764D01*
X434341Y1235710D01*
X434341Y1233170D01*
X434352Y1233105D01*
X434354Y1233039D01*
X434372Y1232996D01*
X434380Y1232949D01*
X434414Y1232892D01*
X434439Y1232832D01*
X434470Y1232797D01*
X434495Y1232756D01*
X434546Y1232715D01*
X434590Y1232666D01*
X434632Y1232644D01*
X434669Y1232615D01*
X434731Y1232594D01*
X434790Y1232563D01*
X434844Y1232555D01*
X434881Y1232543D01*
X434921Y1232544D01*
X434975Y1232536D01*
X438785Y1232536D01*
X438850Y1232547D01*
G37*
G36*
X52770Y1232547D02*
X52770Y1232547D01*
X52836Y1232549D01*
X52879Y1232567D01*
X52926Y1232575D01*
X52983Y1232609D01*
X53043Y1232634D01*
X53078Y1232665D01*
X53119Y1232690D01*
X53161Y1232741D01*
X53209Y1232785D01*
X53231Y1232827D01*
X53260Y1232864D01*
X53281Y1232926D01*
X53312Y1232985D01*
X53320Y1233039D01*
X53332Y1233076D01*
X53331Y1233116D01*
X53339Y1233170D01*
X53339Y1235710D01*
X53328Y1235775D01*
X53326Y1235841D01*
X53308Y1235884D01*
X53300Y1235931D01*
X53266Y1235988D01*
X53241Y1236048D01*
X53210Y1236083D01*
X53185Y1236124D01*
X53134Y1236166D01*
X53090Y1236214D01*
X53048Y1236236D01*
X53011Y1236265D01*
X52949Y1236286D01*
X52890Y1236317D01*
X52836Y1236325D01*
X52799Y1236337D01*
X52759Y1236336D01*
X52705Y1236344D01*
X48895Y1236344D01*
X48830Y1236333D01*
X48764Y1236331D01*
X48721Y1236313D01*
X48674Y1236305D01*
X48617Y1236271D01*
X48557Y1236246D01*
X48522Y1236215D01*
X48481Y1236190D01*
X48440Y1236139D01*
X48391Y1236095D01*
X48369Y1236053D01*
X48340Y1236016D01*
X48319Y1235954D01*
X48288Y1235895D01*
X48280Y1235841D01*
X48268Y1235804D01*
X48268Y1235801D01*
X48269Y1235764D01*
X48261Y1235710D01*
X48261Y1233170D01*
X48272Y1233105D01*
X48274Y1233039D01*
X48292Y1232996D01*
X48300Y1232949D01*
X48334Y1232892D01*
X48359Y1232832D01*
X48390Y1232797D01*
X48415Y1232756D01*
X48466Y1232715D01*
X48510Y1232666D01*
X48552Y1232644D01*
X48589Y1232615D01*
X48651Y1232594D01*
X48710Y1232563D01*
X48764Y1232555D01*
X48801Y1232543D01*
X48841Y1232544D01*
X48895Y1232536D01*
X52705Y1232536D01*
X52770Y1232547D01*
G37*
G36*
X824930Y1232547D02*
X824930Y1232547D01*
X824996Y1232549D01*
X825039Y1232567D01*
X825086Y1232575D01*
X825143Y1232609D01*
X825203Y1232634D01*
X825238Y1232665D01*
X825279Y1232690D01*
X825321Y1232741D01*
X825369Y1232785D01*
X825391Y1232827D01*
X825420Y1232864D01*
X825441Y1232926D01*
X825472Y1232985D01*
X825480Y1233039D01*
X825492Y1233076D01*
X825491Y1233116D01*
X825499Y1233170D01*
X825499Y1235710D01*
X825488Y1235775D01*
X825486Y1235841D01*
X825468Y1235884D01*
X825460Y1235931D01*
X825426Y1235988D01*
X825401Y1236048D01*
X825370Y1236083D01*
X825345Y1236124D01*
X825294Y1236166D01*
X825250Y1236214D01*
X825208Y1236236D01*
X825171Y1236265D01*
X825109Y1236286D01*
X825050Y1236317D01*
X824996Y1236325D01*
X824959Y1236337D01*
X824919Y1236336D01*
X824865Y1236344D01*
X821055Y1236344D01*
X820990Y1236333D01*
X820924Y1236331D01*
X820881Y1236313D01*
X820834Y1236305D01*
X820777Y1236271D01*
X820717Y1236246D01*
X820682Y1236215D01*
X820641Y1236190D01*
X820600Y1236139D01*
X820551Y1236095D01*
X820529Y1236053D01*
X820500Y1236016D01*
X820479Y1235954D01*
X820448Y1235895D01*
X820440Y1235841D01*
X820428Y1235804D01*
X820428Y1235801D01*
X820429Y1235764D01*
X820421Y1235710D01*
X820421Y1233170D01*
X820432Y1233105D01*
X820434Y1233039D01*
X820452Y1232996D01*
X820460Y1232949D01*
X820494Y1232892D01*
X820519Y1232832D01*
X820550Y1232797D01*
X820575Y1232756D01*
X820626Y1232715D01*
X820670Y1232666D01*
X820712Y1232644D01*
X820749Y1232615D01*
X820811Y1232594D01*
X820870Y1232563D01*
X820924Y1232555D01*
X820961Y1232543D01*
X821001Y1232544D01*
X821055Y1232536D01*
X824865Y1232536D01*
X824930Y1232547D01*
G37*
G36*
X1211010Y1232547D02*
X1211010Y1232547D01*
X1211076Y1232549D01*
X1211119Y1232567D01*
X1211166Y1232575D01*
X1211223Y1232609D01*
X1211283Y1232634D01*
X1211318Y1232665D01*
X1211359Y1232690D01*
X1211401Y1232741D01*
X1211449Y1232785D01*
X1211471Y1232827D01*
X1211500Y1232864D01*
X1211521Y1232926D01*
X1211552Y1232985D01*
X1211560Y1233039D01*
X1211572Y1233076D01*
X1211571Y1233116D01*
X1211579Y1233170D01*
X1211579Y1235710D01*
X1211568Y1235775D01*
X1211566Y1235841D01*
X1211548Y1235884D01*
X1211540Y1235931D01*
X1211506Y1235988D01*
X1211481Y1236048D01*
X1211450Y1236083D01*
X1211425Y1236124D01*
X1211374Y1236166D01*
X1211330Y1236214D01*
X1211288Y1236236D01*
X1211251Y1236265D01*
X1211189Y1236286D01*
X1211130Y1236317D01*
X1211076Y1236325D01*
X1211039Y1236337D01*
X1210999Y1236336D01*
X1210945Y1236344D01*
X1207135Y1236344D01*
X1207070Y1236333D01*
X1207004Y1236331D01*
X1206961Y1236313D01*
X1206914Y1236305D01*
X1206857Y1236271D01*
X1206797Y1236246D01*
X1206762Y1236215D01*
X1206721Y1236190D01*
X1206680Y1236139D01*
X1206631Y1236095D01*
X1206609Y1236053D01*
X1206580Y1236016D01*
X1206559Y1235954D01*
X1206528Y1235895D01*
X1206520Y1235841D01*
X1206508Y1235804D01*
X1206508Y1235801D01*
X1206509Y1235764D01*
X1206501Y1235710D01*
X1206501Y1233170D01*
X1206512Y1233105D01*
X1206514Y1233039D01*
X1206532Y1232996D01*
X1206540Y1232949D01*
X1206574Y1232892D01*
X1206599Y1232832D01*
X1206630Y1232797D01*
X1206655Y1232756D01*
X1206706Y1232715D01*
X1206750Y1232666D01*
X1206792Y1232644D01*
X1206829Y1232615D01*
X1206891Y1232594D01*
X1206950Y1232563D01*
X1207004Y1232555D01*
X1207041Y1232543D01*
X1207081Y1232544D01*
X1207135Y1232536D01*
X1210945Y1232536D01*
X1211010Y1232547D01*
G37*
G36*
X34990Y1062367D02*
X34990Y1062367D01*
X35056Y1062369D01*
X35099Y1062387D01*
X35146Y1062395D01*
X35203Y1062429D01*
X35263Y1062454D01*
X35298Y1062485D01*
X35339Y1062510D01*
X35381Y1062561D01*
X35429Y1062605D01*
X35451Y1062647D01*
X35480Y1062684D01*
X35501Y1062746D01*
X35532Y1062805D01*
X35540Y1062859D01*
X35552Y1062896D01*
X35551Y1062936D01*
X35559Y1062990D01*
X35559Y1065530D01*
X35548Y1065595D01*
X35546Y1065661D01*
X35528Y1065704D01*
X35520Y1065751D01*
X35486Y1065808D01*
X35461Y1065868D01*
X35430Y1065903D01*
X35405Y1065944D01*
X35354Y1065986D01*
X35310Y1066034D01*
X35268Y1066056D01*
X35231Y1066085D01*
X35169Y1066106D01*
X35110Y1066137D01*
X35056Y1066145D01*
X35019Y1066157D01*
X34979Y1066156D01*
X34925Y1066164D01*
X31115Y1066164D01*
X31050Y1066153D01*
X30984Y1066151D01*
X30941Y1066133D01*
X30894Y1066125D01*
X30837Y1066091D01*
X30777Y1066066D01*
X30742Y1066035D01*
X30701Y1066010D01*
X30660Y1065959D01*
X30611Y1065915D01*
X30589Y1065873D01*
X30560Y1065836D01*
X30539Y1065774D01*
X30508Y1065715D01*
X30500Y1065661D01*
X30488Y1065624D01*
X30488Y1065621D01*
X30489Y1065584D01*
X30481Y1065530D01*
X30481Y1062990D01*
X30492Y1062925D01*
X30494Y1062859D01*
X30512Y1062816D01*
X30520Y1062769D01*
X30554Y1062712D01*
X30579Y1062652D01*
X30610Y1062617D01*
X30635Y1062576D01*
X30686Y1062535D01*
X30730Y1062486D01*
X30772Y1062464D01*
X30809Y1062435D01*
X30871Y1062414D01*
X30930Y1062383D01*
X30984Y1062375D01*
X31021Y1062363D01*
X31061Y1062364D01*
X31115Y1062356D01*
X34925Y1062356D01*
X34990Y1062367D01*
G37*
G36*
X807150Y1062367D02*
X807150Y1062367D01*
X807216Y1062369D01*
X807259Y1062387D01*
X807306Y1062395D01*
X807363Y1062429D01*
X807423Y1062454D01*
X807458Y1062485D01*
X807499Y1062510D01*
X807541Y1062561D01*
X807589Y1062605D01*
X807611Y1062647D01*
X807640Y1062684D01*
X807661Y1062746D01*
X807692Y1062805D01*
X807700Y1062859D01*
X807712Y1062896D01*
X807711Y1062936D01*
X807719Y1062990D01*
X807719Y1065530D01*
X807708Y1065595D01*
X807706Y1065661D01*
X807688Y1065704D01*
X807680Y1065751D01*
X807646Y1065808D01*
X807621Y1065868D01*
X807590Y1065903D01*
X807565Y1065944D01*
X807514Y1065986D01*
X807470Y1066034D01*
X807428Y1066056D01*
X807391Y1066085D01*
X807329Y1066106D01*
X807270Y1066137D01*
X807216Y1066145D01*
X807179Y1066157D01*
X807139Y1066156D01*
X807085Y1066164D01*
X803275Y1066164D01*
X803210Y1066153D01*
X803144Y1066151D01*
X803101Y1066133D01*
X803054Y1066125D01*
X802997Y1066091D01*
X802937Y1066066D01*
X802902Y1066035D01*
X802861Y1066010D01*
X802820Y1065959D01*
X802771Y1065915D01*
X802749Y1065873D01*
X802720Y1065836D01*
X802699Y1065774D01*
X802668Y1065715D01*
X802660Y1065661D01*
X802648Y1065624D01*
X802648Y1065621D01*
X802649Y1065584D01*
X802641Y1065530D01*
X802641Y1062990D01*
X802652Y1062925D01*
X802654Y1062859D01*
X802672Y1062816D01*
X802680Y1062769D01*
X802714Y1062712D01*
X802739Y1062652D01*
X802770Y1062617D01*
X802795Y1062576D01*
X802846Y1062535D01*
X802890Y1062486D01*
X802932Y1062464D01*
X802969Y1062435D01*
X803031Y1062414D01*
X803090Y1062383D01*
X803144Y1062375D01*
X803181Y1062363D01*
X803221Y1062364D01*
X803275Y1062356D01*
X807085Y1062356D01*
X807150Y1062367D01*
G37*
G36*
X431230Y1062367D02*
X431230Y1062367D01*
X431296Y1062369D01*
X431339Y1062387D01*
X431386Y1062395D01*
X431443Y1062429D01*
X431503Y1062454D01*
X431538Y1062485D01*
X431579Y1062510D01*
X431621Y1062561D01*
X431669Y1062605D01*
X431691Y1062647D01*
X431720Y1062684D01*
X431741Y1062746D01*
X431772Y1062805D01*
X431780Y1062859D01*
X431792Y1062896D01*
X431791Y1062936D01*
X431799Y1062990D01*
X431799Y1065530D01*
X431788Y1065595D01*
X431786Y1065661D01*
X431768Y1065704D01*
X431760Y1065751D01*
X431726Y1065808D01*
X431701Y1065868D01*
X431670Y1065903D01*
X431645Y1065944D01*
X431594Y1065986D01*
X431550Y1066034D01*
X431508Y1066056D01*
X431471Y1066085D01*
X431409Y1066106D01*
X431350Y1066137D01*
X431296Y1066145D01*
X431259Y1066157D01*
X431219Y1066156D01*
X431165Y1066164D01*
X427355Y1066164D01*
X427290Y1066153D01*
X427224Y1066151D01*
X427181Y1066133D01*
X427134Y1066125D01*
X427077Y1066091D01*
X427017Y1066066D01*
X426982Y1066035D01*
X426941Y1066010D01*
X426900Y1065959D01*
X426851Y1065915D01*
X426829Y1065873D01*
X426800Y1065836D01*
X426779Y1065774D01*
X426748Y1065715D01*
X426740Y1065661D01*
X426728Y1065624D01*
X426728Y1065621D01*
X426729Y1065584D01*
X426721Y1065530D01*
X426721Y1062990D01*
X426732Y1062925D01*
X426734Y1062859D01*
X426752Y1062816D01*
X426760Y1062769D01*
X426794Y1062712D01*
X426819Y1062652D01*
X426850Y1062617D01*
X426875Y1062576D01*
X426926Y1062535D01*
X426970Y1062486D01*
X427012Y1062464D01*
X427049Y1062435D01*
X427111Y1062414D01*
X427170Y1062383D01*
X427224Y1062375D01*
X427261Y1062363D01*
X427301Y1062364D01*
X427355Y1062356D01*
X431165Y1062356D01*
X431230Y1062367D01*
G37*
G36*
X1193230Y1062367D02*
X1193230Y1062367D01*
X1193296Y1062369D01*
X1193339Y1062387D01*
X1193386Y1062395D01*
X1193443Y1062429D01*
X1193503Y1062454D01*
X1193538Y1062485D01*
X1193579Y1062510D01*
X1193621Y1062561D01*
X1193669Y1062605D01*
X1193691Y1062647D01*
X1193720Y1062684D01*
X1193741Y1062746D01*
X1193772Y1062805D01*
X1193780Y1062859D01*
X1193792Y1062896D01*
X1193791Y1062936D01*
X1193799Y1062990D01*
X1193799Y1065530D01*
X1193788Y1065595D01*
X1193786Y1065661D01*
X1193768Y1065704D01*
X1193760Y1065751D01*
X1193726Y1065808D01*
X1193701Y1065868D01*
X1193670Y1065903D01*
X1193645Y1065944D01*
X1193594Y1065986D01*
X1193550Y1066034D01*
X1193508Y1066056D01*
X1193471Y1066085D01*
X1193409Y1066106D01*
X1193350Y1066137D01*
X1193296Y1066145D01*
X1193259Y1066157D01*
X1193219Y1066156D01*
X1193165Y1066164D01*
X1189355Y1066164D01*
X1189290Y1066153D01*
X1189224Y1066151D01*
X1189181Y1066133D01*
X1189134Y1066125D01*
X1189077Y1066091D01*
X1189017Y1066066D01*
X1188982Y1066035D01*
X1188941Y1066010D01*
X1188900Y1065959D01*
X1188851Y1065915D01*
X1188829Y1065873D01*
X1188800Y1065836D01*
X1188779Y1065774D01*
X1188748Y1065715D01*
X1188740Y1065661D01*
X1188728Y1065624D01*
X1188728Y1065621D01*
X1188729Y1065584D01*
X1188721Y1065530D01*
X1188721Y1062990D01*
X1188732Y1062925D01*
X1188734Y1062859D01*
X1188752Y1062816D01*
X1188760Y1062769D01*
X1188794Y1062712D01*
X1188819Y1062652D01*
X1188850Y1062617D01*
X1188875Y1062576D01*
X1188926Y1062535D01*
X1188970Y1062486D01*
X1189012Y1062464D01*
X1189049Y1062435D01*
X1189111Y1062414D01*
X1189170Y1062383D01*
X1189224Y1062375D01*
X1189261Y1062363D01*
X1189301Y1062364D01*
X1189355Y1062356D01*
X1193165Y1062356D01*
X1193230Y1062367D01*
G37*
G36*
X421070Y1062367D02*
X421070Y1062367D01*
X421136Y1062369D01*
X421179Y1062387D01*
X421226Y1062395D01*
X421283Y1062429D01*
X421343Y1062454D01*
X421378Y1062485D01*
X421419Y1062510D01*
X421461Y1062561D01*
X421509Y1062605D01*
X421531Y1062647D01*
X421560Y1062684D01*
X421581Y1062746D01*
X421612Y1062805D01*
X421620Y1062859D01*
X421632Y1062896D01*
X421631Y1062936D01*
X421639Y1062990D01*
X421639Y1065530D01*
X421628Y1065595D01*
X421626Y1065661D01*
X421608Y1065704D01*
X421600Y1065751D01*
X421566Y1065808D01*
X421541Y1065868D01*
X421510Y1065903D01*
X421485Y1065944D01*
X421434Y1065986D01*
X421390Y1066034D01*
X421348Y1066056D01*
X421311Y1066085D01*
X421249Y1066106D01*
X421190Y1066137D01*
X421136Y1066145D01*
X421099Y1066157D01*
X421059Y1066156D01*
X421005Y1066164D01*
X417195Y1066164D01*
X417130Y1066153D01*
X417064Y1066151D01*
X417021Y1066133D01*
X416974Y1066125D01*
X416917Y1066091D01*
X416857Y1066066D01*
X416822Y1066035D01*
X416781Y1066010D01*
X416740Y1065959D01*
X416691Y1065915D01*
X416669Y1065873D01*
X416640Y1065836D01*
X416619Y1065774D01*
X416588Y1065715D01*
X416580Y1065661D01*
X416568Y1065624D01*
X416568Y1065621D01*
X416569Y1065584D01*
X416561Y1065530D01*
X416561Y1062990D01*
X416572Y1062925D01*
X416574Y1062859D01*
X416592Y1062816D01*
X416600Y1062769D01*
X416634Y1062712D01*
X416659Y1062652D01*
X416690Y1062617D01*
X416715Y1062576D01*
X416766Y1062535D01*
X416810Y1062486D01*
X416852Y1062464D01*
X416889Y1062435D01*
X416951Y1062414D01*
X417010Y1062383D01*
X417064Y1062375D01*
X417101Y1062363D01*
X417141Y1062364D01*
X417195Y1062356D01*
X421005Y1062356D01*
X421070Y1062367D01*
G37*
G36*
X817310Y1062367D02*
X817310Y1062367D01*
X817376Y1062369D01*
X817419Y1062387D01*
X817466Y1062395D01*
X817523Y1062429D01*
X817583Y1062454D01*
X817618Y1062485D01*
X817659Y1062510D01*
X817701Y1062561D01*
X817749Y1062605D01*
X817771Y1062647D01*
X817800Y1062684D01*
X817821Y1062746D01*
X817852Y1062805D01*
X817860Y1062859D01*
X817872Y1062896D01*
X817871Y1062936D01*
X817879Y1062990D01*
X817879Y1065530D01*
X817868Y1065595D01*
X817866Y1065661D01*
X817848Y1065704D01*
X817840Y1065751D01*
X817806Y1065808D01*
X817781Y1065868D01*
X817750Y1065903D01*
X817725Y1065944D01*
X817674Y1065986D01*
X817630Y1066034D01*
X817588Y1066056D01*
X817551Y1066085D01*
X817489Y1066106D01*
X817430Y1066137D01*
X817376Y1066145D01*
X817339Y1066157D01*
X817299Y1066156D01*
X817245Y1066164D01*
X813435Y1066164D01*
X813370Y1066153D01*
X813304Y1066151D01*
X813261Y1066133D01*
X813214Y1066125D01*
X813157Y1066091D01*
X813097Y1066066D01*
X813062Y1066035D01*
X813021Y1066010D01*
X812980Y1065959D01*
X812931Y1065915D01*
X812909Y1065873D01*
X812880Y1065836D01*
X812859Y1065774D01*
X812828Y1065715D01*
X812820Y1065661D01*
X812808Y1065624D01*
X812808Y1065621D01*
X812809Y1065584D01*
X812801Y1065530D01*
X812801Y1062990D01*
X812812Y1062925D01*
X812814Y1062859D01*
X812832Y1062816D01*
X812840Y1062769D01*
X812874Y1062712D01*
X812899Y1062652D01*
X812930Y1062617D01*
X812955Y1062576D01*
X813006Y1062535D01*
X813050Y1062486D01*
X813092Y1062464D01*
X813129Y1062435D01*
X813191Y1062414D01*
X813250Y1062383D01*
X813304Y1062375D01*
X813341Y1062363D01*
X813381Y1062364D01*
X813435Y1062356D01*
X817245Y1062356D01*
X817310Y1062367D01*
G37*
G36*
X1203390Y1062367D02*
X1203390Y1062367D01*
X1203456Y1062369D01*
X1203499Y1062387D01*
X1203546Y1062395D01*
X1203603Y1062429D01*
X1203663Y1062454D01*
X1203698Y1062485D01*
X1203739Y1062510D01*
X1203781Y1062561D01*
X1203829Y1062605D01*
X1203851Y1062647D01*
X1203880Y1062684D01*
X1203901Y1062746D01*
X1203932Y1062805D01*
X1203940Y1062859D01*
X1203952Y1062896D01*
X1203951Y1062936D01*
X1203959Y1062990D01*
X1203959Y1065530D01*
X1203948Y1065595D01*
X1203946Y1065661D01*
X1203928Y1065704D01*
X1203920Y1065751D01*
X1203886Y1065808D01*
X1203861Y1065868D01*
X1203830Y1065903D01*
X1203805Y1065944D01*
X1203754Y1065986D01*
X1203710Y1066034D01*
X1203668Y1066056D01*
X1203631Y1066085D01*
X1203569Y1066106D01*
X1203510Y1066137D01*
X1203456Y1066145D01*
X1203419Y1066157D01*
X1203379Y1066156D01*
X1203325Y1066164D01*
X1199515Y1066164D01*
X1199450Y1066153D01*
X1199384Y1066151D01*
X1199341Y1066133D01*
X1199294Y1066125D01*
X1199237Y1066091D01*
X1199177Y1066066D01*
X1199142Y1066035D01*
X1199101Y1066010D01*
X1199060Y1065959D01*
X1199011Y1065915D01*
X1198989Y1065873D01*
X1198960Y1065836D01*
X1198939Y1065774D01*
X1198908Y1065715D01*
X1198900Y1065661D01*
X1198888Y1065624D01*
X1198888Y1065621D01*
X1198889Y1065584D01*
X1198881Y1065530D01*
X1198881Y1062990D01*
X1198892Y1062925D01*
X1198894Y1062859D01*
X1198912Y1062816D01*
X1198920Y1062769D01*
X1198954Y1062712D01*
X1198979Y1062652D01*
X1199010Y1062617D01*
X1199035Y1062576D01*
X1199086Y1062535D01*
X1199130Y1062486D01*
X1199172Y1062464D01*
X1199209Y1062435D01*
X1199271Y1062414D01*
X1199330Y1062383D01*
X1199384Y1062375D01*
X1199421Y1062363D01*
X1199461Y1062364D01*
X1199515Y1062356D01*
X1203325Y1062356D01*
X1203390Y1062367D01*
G37*
G36*
X45150Y1062367D02*
X45150Y1062367D01*
X45216Y1062369D01*
X45259Y1062387D01*
X45306Y1062395D01*
X45363Y1062429D01*
X45423Y1062454D01*
X45458Y1062485D01*
X45499Y1062510D01*
X45541Y1062561D01*
X45589Y1062605D01*
X45611Y1062647D01*
X45640Y1062684D01*
X45661Y1062746D01*
X45692Y1062805D01*
X45700Y1062859D01*
X45712Y1062896D01*
X45711Y1062936D01*
X45719Y1062990D01*
X45719Y1065530D01*
X45708Y1065595D01*
X45706Y1065661D01*
X45688Y1065704D01*
X45680Y1065751D01*
X45646Y1065808D01*
X45621Y1065868D01*
X45590Y1065903D01*
X45565Y1065944D01*
X45514Y1065986D01*
X45470Y1066034D01*
X45428Y1066056D01*
X45391Y1066085D01*
X45329Y1066106D01*
X45270Y1066137D01*
X45216Y1066145D01*
X45179Y1066157D01*
X45139Y1066156D01*
X45085Y1066164D01*
X41275Y1066164D01*
X41210Y1066153D01*
X41144Y1066151D01*
X41101Y1066133D01*
X41054Y1066125D01*
X40997Y1066091D01*
X40937Y1066066D01*
X40902Y1066035D01*
X40861Y1066010D01*
X40820Y1065959D01*
X40771Y1065915D01*
X40749Y1065873D01*
X40720Y1065836D01*
X40699Y1065774D01*
X40668Y1065715D01*
X40660Y1065661D01*
X40648Y1065624D01*
X40648Y1065621D01*
X40649Y1065584D01*
X40641Y1065530D01*
X40641Y1062990D01*
X40652Y1062925D01*
X40654Y1062859D01*
X40672Y1062816D01*
X40680Y1062769D01*
X40714Y1062712D01*
X40739Y1062652D01*
X40770Y1062617D01*
X40795Y1062576D01*
X40846Y1062535D01*
X40890Y1062486D01*
X40932Y1062464D01*
X40969Y1062435D01*
X41031Y1062414D01*
X41090Y1062383D01*
X41144Y1062375D01*
X41181Y1062363D01*
X41221Y1062364D01*
X41275Y1062356D01*
X45085Y1062356D01*
X45150Y1062367D01*
G37*
G36*
X489650Y1024267D02*
X489650Y1024267D01*
X489716Y1024269D01*
X489759Y1024287D01*
X489806Y1024295D01*
X489863Y1024329D01*
X489923Y1024354D01*
X489958Y1024385D01*
X489999Y1024410D01*
X490041Y1024461D01*
X490089Y1024505D01*
X490111Y1024547D01*
X490140Y1024584D01*
X490161Y1024646D01*
X490192Y1024705D01*
X490200Y1024759D01*
X490212Y1024796D01*
X490211Y1024836D01*
X490219Y1024890D01*
X490219Y1027430D01*
X490208Y1027495D01*
X490206Y1027561D01*
X490188Y1027604D01*
X490180Y1027651D01*
X490146Y1027708D01*
X490121Y1027768D01*
X490090Y1027803D01*
X490065Y1027844D01*
X490014Y1027886D01*
X489970Y1027934D01*
X489928Y1027956D01*
X489891Y1027985D01*
X489829Y1028006D01*
X489770Y1028037D01*
X489716Y1028045D01*
X489679Y1028057D01*
X489639Y1028056D01*
X489585Y1028064D01*
X485775Y1028064D01*
X485710Y1028053D01*
X485644Y1028051D01*
X485601Y1028033D01*
X485554Y1028025D01*
X485497Y1027991D01*
X485437Y1027966D01*
X485402Y1027935D01*
X485361Y1027910D01*
X485320Y1027859D01*
X485271Y1027815D01*
X485249Y1027773D01*
X485220Y1027736D01*
X485199Y1027674D01*
X485168Y1027615D01*
X485160Y1027561D01*
X485148Y1027524D01*
X485148Y1027521D01*
X485149Y1027484D01*
X485141Y1027430D01*
X485141Y1024890D01*
X485152Y1024825D01*
X485154Y1024759D01*
X485172Y1024716D01*
X485180Y1024669D01*
X485214Y1024612D01*
X485239Y1024552D01*
X485270Y1024517D01*
X485295Y1024476D01*
X485346Y1024435D01*
X485390Y1024386D01*
X485432Y1024364D01*
X485469Y1024335D01*
X485531Y1024314D01*
X485590Y1024283D01*
X485644Y1024275D01*
X485681Y1024263D01*
X485721Y1024264D01*
X485775Y1024256D01*
X489585Y1024256D01*
X489650Y1024267D01*
G37*
G36*
X1261810Y1024267D02*
X1261810Y1024267D01*
X1261876Y1024269D01*
X1261919Y1024287D01*
X1261966Y1024295D01*
X1262023Y1024329D01*
X1262083Y1024354D01*
X1262118Y1024385D01*
X1262159Y1024410D01*
X1262201Y1024461D01*
X1262249Y1024505D01*
X1262271Y1024547D01*
X1262300Y1024584D01*
X1262321Y1024646D01*
X1262352Y1024705D01*
X1262360Y1024759D01*
X1262372Y1024796D01*
X1262371Y1024836D01*
X1262379Y1024890D01*
X1262379Y1027430D01*
X1262368Y1027495D01*
X1262366Y1027561D01*
X1262348Y1027604D01*
X1262340Y1027651D01*
X1262306Y1027708D01*
X1262281Y1027768D01*
X1262250Y1027803D01*
X1262225Y1027844D01*
X1262174Y1027886D01*
X1262130Y1027934D01*
X1262088Y1027956D01*
X1262051Y1027985D01*
X1261989Y1028006D01*
X1261930Y1028037D01*
X1261876Y1028045D01*
X1261839Y1028057D01*
X1261799Y1028056D01*
X1261745Y1028064D01*
X1257935Y1028064D01*
X1257870Y1028053D01*
X1257804Y1028051D01*
X1257761Y1028033D01*
X1257714Y1028025D01*
X1257657Y1027991D01*
X1257597Y1027966D01*
X1257562Y1027935D01*
X1257521Y1027910D01*
X1257480Y1027859D01*
X1257431Y1027815D01*
X1257409Y1027773D01*
X1257380Y1027736D01*
X1257359Y1027674D01*
X1257328Y1027615D01*
X1257320Y1027561D01*
X1257308Y1027524D01*
X1257308Y1027521D01*
X1257309Y1027484D01*
X1257301Y1027430D01*
X1257301Y1024890D01*
X1257312Y1024825D01*
X1257314Y1024759D01*
X1257332Y1024716D01*
X1257340Y1024669D01*
X1257374Y1024612D01*
X1257399Y1024552D01*
X1257430Y1024517D01*
X1257455Y1024476D01*
X1257506Y1024435D01*
X1257550Y1024386D01*
X1257592Y1024364D01*
X1257629Y1024335D01*
X1257691Y1024314D01*
X1257750Y1024283D01*
X1257804Y1024275D01*
X1257841Y1024263D01*
X1257881Y1024264D01*
X1257935Y1024256D01*
X1261745Y1024256D01*
X1261810Y1024267D01*
G37*
G36*
X103570Y1024267D02*
X103570Y1024267D01*
X103636Y1024269D01*
X103679Y1024287D01*
X103726Y1024295D01*
X103783Y1024329D01*
X103843Y1024354D01*
X103878Y1024385D01*
X103919Y1024410D01*
X103961Y1024461D01*
X104009Y1024505D01*
X104031Y1024547D01*
X104060Y1024584D01*
X104081Y1024646D01*
X104112Y1024705D01*
X104120Y1024759D01*
X104132Y1024796D01*
X104131Y1024836D01*
X104139Y1024890D01*
X104139Y1027430D01*
X104128Y1027495D01*
X104126Y1027561D01*
X104108Y1027604D01*
X104100Y1027651D01*
X104066Y1027708D01*
X104041Y1027768D01*
X104010Y1027803D01*
X103985Y1027844D01*
X103934Y1027886D01*
X103890Y1027934D01*
X103848Y1027956D01*
X103811Y1027985D01*
X103749Y1028006D01*
X103690Y1028037D01*
X103636Y1028045D01*
X103599Y1028057D01*
X103559Y1028056D01*
X103505Y1028064D01*
X99695Y1028064D01*
X99630Y1028053D01*
X99564Y1028051D01*
X99521Y1028033D01*
X99474Y1028025D01*
X99417Y1027991D01*
X99357Y1027966D01*
X99322Y1027935D01*
X99281Y1027910D01*
X99240Y1027859D01*
X99191Y1027815D01*
X99169Y1027773D01*
X99140Y1027736D01*
X99119Y1027674D01*
X99088Y1027615D01*
X99080Y1027561D01*
X99068Y1027524D01*
X99068Y1027521D01*
X99069Y1027484D01*
X99061Y1027430D01*
X99061Y1024890D01*
X99072Y1024825D01*
X99074Y1024759D01*
X99092Y1024716D01*
X99100Y1024669D01*
X99134Y1024612D01*
X99159Y1024552D01*
X99190Y1024517D01*
X99215Y1024476D01*
X99266Y1024435D01*
X99310Y1024386D01*
X99352Y1024364D01*
X99389Y1024335D01*
X99451Y1024314D01*
X99510Y1024283D01*
X99564Y1024275D01*
X99601Y1024263D01*
X99641Y1024264D01*
X99695Y1024256D01*
X103505Y1024256D01*
X103570Y1024267D01*
G37*
G36*
X875730Y1024267D02*
X875730Y1024267D01*
X875796Y1024269D01*
X875839Y1024287D01*
X875886Y1024295D01*
X875943Y1024329D01*
X876003Y1024354D01*
X876038Y1024385D01*
X876079Y1024410D01*
X876121Y1024461D01*
X876169Y1024505D01*
X876191Y1024547D01*
X876220Y1024584D01*
X876241Y1024646D01*
X876272Y1024705D01*
X876280Y1024759D01*
X876292Y1024796D01*
X876291Y1024836D01*
X876299Y1024890D01*
X876299Y1027430D01*
X876288Y1027495D01*
X876286Y1027561D01*
X876268Y1027604D01*
X876260Y1027651D01*
X876226Y1027708D01*
X876201Y1027768D01*
X876170Y1027803D01*
X876145Y1027844D01*
X876094Y1027886D01*
X876050Y1027934D01*
X876008Y1027956D01*
X875971Y1027985D01*
X875909Y1028006D01*
X875850Y1028037D01*
X875796Y1028045D01*
X875759Y1028057D01*
X875719Y1028056D01*
X875665Y1028064D01*
X871855Y1028064D01*
X871790Y1028053D01*
X871724Y1028051D01*
X871681Y1028033D01*
X871634Y1028025D01*
X871577Y1027991D01*
X871517Y1027966D01*
X871482Y1027935D01*
X871441Y1027910D01*
X871400Y1027859D01*
X871351Y1027815D01*
X871329Y1027773D01*
X871300Y1027736D01*
X871279Y1027674D01*
X871248Y1027615D01*
X871240Y1027561D01*
X871228Y1027524D01*
X871228Y1027521D01*
X871229Y1027484D01*
X871221Y1027430D01*
X871221Y1024890D01*
X871232Y1024825D01*
X871234Y1024759D01*
X871252Y1024716D01*
X871260Y1024669D01*
X871294Y1024612D01*
X871319Y1024552D01*
X871350Y1024517D01*
X871375Y1024476D01*
X871426Y1024435D01*
X871470Y1024386D01*
X871512Y1024364D01*
X871549Y1024335D01*
X871611Y1024314D01*
X871670Y1024283D01*
X871724Y1024275D01*
X871761Y1024263D01*
X871801Y1024264D01*
X871855Y1024256D01*
X875665Y1024256D01*
X875730Y1024267D01*
G37*
G36*
X1053530Y986167D02*
X1053530Y986167D01*
X1053596Y986169D01*
X1053639Y986187D01*
X1053686Y986195D01*
X1053743Y986229D01*
X1053803Y986254D01*
X1053838Y986285D01*
X1053879Y986310D01*
X1053921Y986361D01*
X1053969Y986405D01*
X1053991Y986447D01*
X1054020Y986484D01*
X1054041Y986546D01*
X1054072Y986605D01*
X1054080Y986659D01*
X1054092Y986696D01*
X1054091Y986736D01*
X1054099Y986790D01*
X1054099Y989330D01*
X1054088Y989395D01*
X1054086Y989461D01*
X1054068Y989504D01*
X1054060Y989551D01*
X1054026Y989608D01*
X1054001Y989668D01*
X1053970Y989703D01*
X1053945Y989744D01*
X1053894Y989786D01*
X1053850Y989834D01*
X1053808Y989856D01*
X1053771Y989885D01*
X1053709Y989906D01*
X1053650Y989937D01*
X1053596Y989945D01*
X1053559Y989957D01*
X1053519Y989956D01*
X1053465Y989964D01*
X1049655Y989964D01*
X1049590Y989953D01*
X1049524Y989951D01*
X1049481Y989933D01*
X1049434Y989925D01*
X1049377Y989891D01*
X1049317Y989866D01*
X1049282Y989835D01*
X1049241Y989810D01*
X1049200Y989759D01*
X1049151Y989715D01*
X1049129Y989673D01*
X1049100Y989636D01*
X1049079Y989574D01*
X1049048Y989515D01*
X1049040Y989461D01*
X1049028Y989424D01*
X1049028Y989421D01*
X1049029Y989384D01*
X1049021Y989330D01*
X1049021Y986790D01*
X1049032Y986725D01*
X1049034Y986659D01*
X1049052Y986616D01*
X1049060Y986569D01*
X1049094Y986512D01*
X1049119Y986452D01*
X1049150Y986417D01*
X1049175Y986376D01*
X1049226Y986335D01*
X1049270Y986286D01*
X1049312Y986264D01*
X1049349Y986235D01*
X1049411Y986214D01*
X1049470Y986183D01*
X1049524Y986175D01*
X1049561Y986163D01*
X1049601Y986164D01*
X1049655Y986156D01*
X1053465Y986156D01*
X1053530Y986167D01*
G37*
G36*
X1439610Y986167D02*
X1439610Y986167D01*
X1439676Y986169D01*
X1439719Y986187D01*
X1439766Y986195D01*
X1439823Y986229D01*
X1439883Y986254D01*
X1439918Y986285D01*
X1439959Y986310D01*
X1440001Y986361D01*
X1440049Y986405D01*
X1440071Y986447D01*
X1440100Y986484D01*
X1440121Y986546D01*
X1440152Y986605D01*
X1440160Y986659D01*
X1440172Y986696D01*
X1440171Y986736D01*
X1440179Y986790D01*
X1440179Y989330D01*
X1440168Y989395D01*
X1440166Y989461D01*
X1440148Y989504D01*
X1440140Y989551D01*
X1440106Y989608D01*
X1440081Y989668D01*
X1440050Y989703D01*
X1440025Y989744D01*
X1439974Y989786D01*
X1439930Y989834D01*
X1439888Y989856D01*
X1439851Y989885D01*
X1439789Y989906D01*
X1439730Y989937D01*
X1439676Y989945D01*
X1439639Y989957D01*
X1439599Y989956D01*
X1439545Y989964D01*
X1435735Y989964D01*
X1435670Y989953D01*
X1435604Y989951D01*
X1435561Y989933D01*
X1435514Y989925D01*
X1435457Y989891D01*
X1435397Y989866D01*
X1435362Y989835D01*
X1435321Y989810D01*
X1435280Y989759D01*
X1435231Y989715D01*
X1435209Y989673D01*
X1435180Y989636D01*
X1435159Y989574D01*
X1435128Y989515D01*
X1435120Y989461D01*
X1435108Y989424D01*
X1435108Y989421D01*
X1435109Y989384D01*
X1435101Y989330D01*
X1435101Y986790D01*
X1435112Y986725D01*
X1435114Y986659D01*
X1435132Y986616D01*
X1435140Y986569D01*
X1435174Y986512D01*
X1435199Y986452D01*
X1435230Y986417D01*
X1435255Y986376D01*
X1435306Y986335D01*
X1435350Y986286D01*
X1435392Y986264D01*
X1435429Y986235D01*
X1435491Y986214D01*
X1435550Y986183D01*
X1435604Y986175D01*
X1435641Y986163D01*
X1435681Y986164D01*
X1435735Y986156D01*
X1439545Y986156D01*
X1439610Y986167D01*
G37*
G36*
X667450Y986167D02*
X667450Y986167D01*
X667516Y986169D01*
X667559Y986187D01*
X667606Y986195D01*
X667663Y986229D01*
X667723Y986254D01*
X667758Y986285D01*
X667799Y986310D01*
X667841Y986361D01*
X667889Y986405D01*
X667911Y986447D01*
X667940Y986484D01*
X667961Y986546D01*
X667992Y986605D01*
X668000Y986659D01*
X668012Y986696D01*
X668011Y986736D01*
X668019Y986790D01*
X668019Y989330D01*
X668008Y989395D01*
X668006Y989461D01*
X667988Y989504D01*
X667980Y989551D01*
X667946Y989608D01*
X667921Y989668D01*
X667890Y989703D01*
X667865Y989744D01*
X667814Y989786D01*
X667770Y989834D01*
X667728Y989856D01*
X667691Y989885D01*
X667629Y989906D01*
X667570Y989937D01*
X667516Y989945D01*
X667479Y989957D01*
X667439Y989956D01*
X667385Y989964D01*
X663575Y989964D01*
X663510Y989953D01*
X663444Y989951D01*
X663401Y989933D01*
X663354Y989925D01*
X663297Y989891D01*
X663237Y989866D01*
X663202Y989835D01*
X663161Y989810D01*
X663120Y989759D01*
X663071Y989715D01*
X663049Y989673D01*
X663020Y989636D01*
X662999Y989574D01*
X662968Y989515D01*
X662960Y989461D01*
X662948Y989424D01*
X662948Y989421D01*
X662949Y989384D01*
X662941Y989330D01*
X662941Y986790D01*
X662952Y986725D01*
X662954Y986659D01*
X662972Y986616D01*
X662980Y986569D01*
X663014Y986512D01*
X663039Y986452D01*
X663070Y986417D01*
X663095Y986376D01*
X663146Y986335D01*
X663190Y986286D01*
X663232Y986264D01*
X663269Y986235D01*
X663331Y986214D01*
X663390Y986183D01*
X663444Y986175D01*
X663481Y986163D01*
X663521Y986164D01*
X663575Y986156D01*
X667385Y986156D01*
X667450Y986167D01*
G37*
G36*
X281370Y986167D02*
X281370Y986167D01*
X281436Y986169D01*
X281479Y986187D01*
X281526Y986195D01*
X281583Y986229D01*
X281643Y986254D01*
X281678Y986285D01*
X281719Y986310D01*
X281761Y986361D01*
X281809Y986405D01*
X281831Y986447D01*
X281860Y986484D01*
X281881Y986546D01*
X281912Y986605D01*
X281920Y986659D01*
X281932Y986696D01*
X281931Y986736D01*
X281939Y986790D01*
X281939Y989330D01*
X281928Y989395D01*
X281926Y989461D01*
X281908Y989504D01*
X281900Y989551D01*
X281866Y989608D01*
X281841Y989668D01*
X281810Y989703D01*
X281785Y989744D01*
X281734Y989786D01*
X281690Y989834D01*
X281648Y989856D01*
X281611Y989885D01*
X281549Y989906D01*
X281490Y989937D01*
X281436Y989945D01*
X281399Y989957D01*
X281359Y989956D01*
X281305Y989964D01*
X277495Y989964D01*
X277430Y989953D01*
X277364Y989951D01*
X277321Y989933D01*
X277274Y989925D01*
X277217Y989891D01*
X277157Y989866D01*
X277122Y989835D01*
X277081Y989810D01*
X277040Y989759D01*
X276991Y989715D01*
X276969Y989673D01*
X276940Y989636D01*
X276919Y989574D01*
X276888Y989515D01*
X276880Y989461D01*
X276868Y989424D01*
X276868Y989421D01*
X276869Y989384D01*
X276861Y989330D01*
X276861Y986790D01*
X276872Y986725D01*
X276874Y986659D01*
X276892Y986616D01*
X276900Y986569D01*
X276934Y986512D01*
X276959Y986452D01*
X276990Y986417D01*
X277015Y986376D01*
X277066Y986335D01*
X277110Y986286D01*
X277152Y986264D01*
X277189Y986235D01*
X277251Y986214D01*
X277310Y986183D01*
X277364Y986175D01*
X277401Y986163D01*
X277441Y986164D01*
X277495Y986156D01*
X281305Y986156D01*
X281370Y986167D01*
G37*
G36*
X1439610Y960767D02*
X1439610Y960767D01*
X1439676Y960769D01*
X1439719Y960787D01*
X1439766Y960795D01*
X1439823Y960829D01*
X1439883Y960854D01*
X1439918Y960885D01*
X1439959Y960910D01*
X1440001Y960961D01*
X1440049Y961005D01*
X1440071Y961047D01*
X1440100Y961084D01*
X1440121Y961146D01*
X1440152Y961205D01*
X1440160Y961259D01*
X1440172Y961296D01*
X1440171Y961336D01*
X1440179Y961390D01*
X1440179Y963930D01*
X1440168Y963995D01*
X1440166Y964061D01*
X1440148Y964104D01*
X1440140Y964151D01*
X1440106Y964208D01*
X1440081Y964268D01*
X1440050Y964303D01*
X1440025Y964344D01*
X1439974Y964386D01*
X1439930Y964434D01*
X1439888Y964456D01*
X1439851Y964485D01*
X1439789Y964506D01*
X1439730Y964537D01*
X1439676Y964545D01*
X1439639Y964557D01*
X1439599Y964556D01*
X1439545Y964564D01*
X1435735Y964564D01*
X1435670Y964553D01*
X1435604Y964551D01*
X1435561Y964533D01*
X1435514Y964525D01*
X1435457Y964491D01*
X1435397Y964466D01*
X1435362Y964435D01*
X1435321Y964410D01*
X1435280Y964359D01*
X1435231Y964315D01*
X1435209Y964273D01*
X1435180Y964236D01*
X1435159Y964174D01*
X1435128Y964115D01*
X1435120Y964061D01*
X1435108Y964024D01*
X1435108Y964021D01*
X1435109Y963984D01*
X1435101Y963930D01*
X1435101Y961390D01*
X1435112Y961325D01*
X1435114Y961259D01*
X1435132Y961216D01*
X1435140Y961169D01*
X1435174Y961112D01*
X1435199Y961052D01*
X1435230Y961017D01*
X1435255Y960976D01*
X1435306Y960935D01*
X1435350Y960886D01*
X1435392Y960864D01*
X1435429Y960835D01*
X1435491Y960814D01*
X1435550Y960783D01*
X1435604Y960775D01*
X1435641Y960763D01*
X1435681Y960764D01*
X1435735Y960756D01*
X1439545Y960756D01*
X1439610Y960767D01*
G37*
G36*
X667450Y960767D02*
X667450Y960767D01*
X667516Y960769D01*
X667559Y960787D01*
X667606Y960795D01*
X667663Y960829D01*
X667723Y960854D01*
X667758Y960885D01*
X667799Y960910D01*
X667841Y960961D01*
X667889Y961005D01*
X667911Y961047D01*
X667940Y961084D01*
X667961Y961146D01*
X667992Y961205D01*
X668000Y961259D01*
X668012Y961296D01*
X668011Y961336D01*
X668019Y961390D01*
X668019Y963930D01*
X668008Y963995D01*
X668006Y964061D01*
X667988Y964104D01*
X667980Y964151D01*
X667946Y964208D01*
X667921Y964268D01*
X667890Y964303D01*
X667865Y964344D01*
X667814Y964386D01*
X667770Y964434D01*
X667728Y964456D01*
X667691Y964485D01*
X667629Y964506D01*
X667570Y964537D01*
X667516Y964545D01*
X667479Y964557D01*
X667439Y964556D01*
X667385Y964564D01*
X663575Y964564D01*
X663510Y964553D01*
X663444Y964551D01*
X663401Y964533D01*
X663354Y964525D01*
X663297Y964491D01*
X663237Y964466D01*
X663202Y964435D01*
X663161Y964410D01*
X663120Y964359D01*
X663071Y964315D01*
X663049Y964273D01*
X663020Y964236D01*
X662999Y964174D01*
X662968Y964115D01*
X662960Y964061D01*
X662948Y964024D01*
X662948Y964021D01*
X662949Y963984D01*
X662941Y963930D01*
X662941Y961390D01*
X662952Y961325D01*
X662954Y961259D01*
X662972Y961216D01*
X662980Y961169D01*
X663014Y961112D01*
X663039Y961052D01*
X663070Y961017D01*
X663095Y960976D01*
X663146Y960935D01*
X663190Y960886D01*
X663232Y960864D01*
X663269Y960835D01*
X663331Y960814D01*
X663390Y960783D01*
X663444Y960775D01*
X663481Y960763D01*
X663521Y960764D01*
X663575Y960756D01*
X667385Y960756D01*
X667450Y960767D01*
G37*
G36*
X281370Y960767D02*
X281370Y960767D01*
X281436Y960769D01*
X281479Y960787D01*
X281526Y960795D01*
X281583Y960829D01*
X281643Y960854D01*
X281678Y960885D01*
X281719Y960910D01*
X281761Y960961D01*
X281809Y961005D01*
X281831Y961047D01*
X281860Y961084D01*
X281881Y961146D01*
X281912Y961205D01*
X281920Y961259D01*
X281932Y961296D01*
X281931Y961336D01*
X281939Y961390D01*
X281939Y963930D01*
X281928Y963995D01*
X281926Y964061D01*
X281908Y964104D01*
X281900Y964151D01*
X281866Y964208D01*
X281841Y964268D01*
X281810Y964303D01*
X281785Y964344D01*
X281734Y964386D01*
X281690Y964434D01*
X281648Y964456D01*
X281611Y964485D01*
X281549Y964506D01*
X281490Y964537D01*
X281436Y964545D01*
X281399Y964557D01*
X281359Y964556D01*
X281305Y964564D01*
X277495Y964564D01*
X277430Y964553D01*
X277364Y964551D01*
X277321Y964533D01*
X277274Y964525D01*
X277217Y964491D01*
X277157Y964466D01*
X277122Y964435D01*
X277081Y964410D01*
X277040Y964359D01*
X276991Y964315D01*
X276969Y964273D01*
X276940Y964236D01*
X276919Y964174D01*
X276888Y964115D01*
X276880Y964061D01*
X276868Y964024D01*
X276868Y964021D01*
X276869Y963984D01*
X276861Y963930D01*
X276861Y961390D01*
X276872Y961325D01*
X276874Y961259D01*
X276892Y961216D01*
X276900Y961169D01*
X276934Y961112D01*
X276959Y961052D01*
X276990Y961017D01*
X277015Y960976D01*
X277066Y960935D01*
X277110Y960886D01*
X277152Y960864D01*
X277189Y960835D01*
X277251Y960814D01*
X277310Y960783D01*
X277364Y960775D01*
X277401Y960763D01*
X277441Y960764D01*
X277495Y960756D01*
X281305Y960756D01*
X281370Y960767D01*
G37*
G36*
X1053530Y960767D02*
X1053530Y960767D01*
X1053596Y960769D01*
X1053639Y960787D01*
X1053686Y960795D01*
X1053743Y960829D01*
X1053803Y960854D01*
X1053838Y960885D01*
X1053879Y960910D01*
X1053921Y960961D01*
X1053969Y961005D01*
X1053991Y961047D01*
X1054020Y961084D01*
X1054041Y961146D01*
X1054072Y961205D01*
X1054080Y961259D01*
X1054092Y961296D01*
X1054091Y961336D01*
X1054099Y961390D01*
X1054099Y963930D01*
X1054088Y963995D01*
X1054086Y964061D01*
X1054068Y964104D01*
X1054060Y964151D01*
X1054026Y964208D01*
X1054001Y964268D01*
X1053970Y964303D01*
X1053945Y964344D01*
X1053894Y964386D01*
X1053850Y964434D01*
X1053808Y964456D01*
X1053771Y964485D01*
X1053709Y964506D01*
X1053650Y964537D01*
X1053596Y964545D01*
X1053559Y964557D01*
X1053519Y964556D01*
X1053465Y964564D01*
X1049655Y964564D01*
X1049590Y964553D01*
X1049524Y964551D01*
X1049481Y964533D01*
X1049434Y964525D01*
X1049377Y964491D01*
X1049317Y964466D01*
X1049282Y964435D01*
X1049241Y964410D01*
X1049200Y964359D01*
X1049151Y964315D01*
X1049129Y964273D01*
X1049100Y964236D01*
X1049079Y964174D01*
X1049048Y964115D01*
X1049040Y964061D01*
X1049028Y964024D01*
X1049028Y964021D01*
X1049029Y963984D01*
X1049021Y963930D01*
X1049021Y961390D01*
X1049032Y961325D01*
X1049034Y961259D01*
X1049052Y961216D01*
X1049060Y961169D01*
X1049094Y961112D01*
X1049119Y961052D01*
X1049150Y961017D01*
X1049175Y960976D01*
X1049226Y960935D01*
X1049270Y960886D01*
X1049312Y960864D01*
X1049349Y960835D01*
X1049411Y960814D01*
X1049470Y960783D01*
X1049524Y960775D01*
X1049561Y960763D01*
X1049601Y960764D01*
X1049655Y960756D01*
X1053465Y960756D01*
X1053530Y960767D01*
G37*
G36*
X281370Y935367D02*
X281370Y935367D01*
X281436Y935369D01*
X281479Y935387D01*
X281526Y935395D01*
X281583Y935429D01*
X281643Y935454D01*
X281678Y935485D01*
X281719Y935510D01*
X281761Y935561D01*
X281809Y935605D01*
X281831Y935647D01*
X281860Y935684D01*
X281881Y935746D01*
X281912Y935805D01*
X281920Y935859D01*
X281932Y935896D01*
X281931Y935936D01*
X281939Y935990D01*
X281939Y938530D01*
X281928Y938595D01*
X281926Y938661D01*
X281908Y938704D01*
X281900Y938751D01*
X281866Y938808D01*
X281841Y938868D01*
X281810Y938903D01*
X281785Y938944D01*
X281734Y938986D01*
X281690Y939034D01*
X281648Y939056D01*
X281611Y939085D01*
X281549Y939106D01*
X281490Y939137D01*
X281436Y939145D01*
X281399Y939157D01*
X281359Y939156D01*
X281305Y939164D01*
X277495Y939164D01*
X277430Y939153D01*
X277364Y939151D01*
X277321Y939133D01*
X277274Y939125D01*
X277217Y939091D01*
X277157Y939066D01*
X277122Y939035D01*
X277081Y939010D01*
X277040Y938959D01*
X276991Y938915D01*
X276969Y938873D01*
X276940Y938836D01*
X276919Y938774D01*
X276888Y938715D01*
X276880Y938661D01*
X276868Y938624D01*
X276868Y938621D01*
X276869Y938584D01*
X276861Y938530D01*
X276861Y935990D01*
X276872Y935925D01*
X276874Y935859D01*
X276892Y935816D01*
X276900Y935769D01*
X276934Y935712D01*
X276959Y935652D01*
X276990Y935617D01*
X277015Y935576D01*
X277066Y935535D01*
X277110Y935486D01*
X277152Y935464D01*
X277189Y935435D01*
X277251Y935414D01*
X277310Y935383D01*
X277364Y935375D01*
X277401Y935363D01*
X277441Y935364D01*
X277495Y935356D01*
X281305Y935356D01*
X281370Y935367D01*
G37*
G36*
X1053530Y935367D02*
X1053530Y935367D01*
X1053596Y935369D01*
X1053639Y935387D01*
X1053686Y935395D01*
X1053743Y935429D01*
X1053803Y935454D01*
X1053838Y935485D01*
X1053879Y935510D01*
X1053921Y935561D01*
X1053969Y935605D01*
X1053991Y935647D01*
X1054020Y935684D01*
X1054041Y935746D01*
X1054072Y935805D01*
X1054080Y935859D01*
X1054092Y935896D01*
X1054091Y935936D01*
X1054099Y935990D01*
X1054099Y938530D01*
X1054088Y938595D01*
X1054086Y938661D01*
X1054068Y938704D01*
X1054060Y938751D01*
X1054026Y938808D01*
X1054001Y938868D01*
X1053970Y938903D01*
X1053945Y938944D01*
X1053894Y938986D01*
X1053850Y939034D01*
X1053808Y939056D01*
X1053771Y939085D01*
X1053709Y939106D01*
X1053650Y939137D01*
X1053596Y939145D01*
X1053559Y939157D01*
X1053519Y939156D01*
X1053465Y939164D01*
X1049655Y939164D01*
X1049590Y939153D01*
X1049524Y939151D01*
X1049481Y939133D01*
X1049434Y939125D01*
X1049377Y939091D01*
X1049317Y939066D01*
X1049282Y939035D01*
X1049241Y939010D01*
X1049200Y938959D01*
X1049151Y938915D01*
X1049129Y938873D01*
X1049100Y938836D01*
X1049079Y938774D01*
X1049048Y938715D01*
X1049040Y938661D01*
X1049028Y938624D01*
X1049028Y938621D01*
X1049029Y938584D01*
X1049021Y938530D01*
X1049021Y935990D01*
X1049032Y935925D01*
X1049034Y935859D01*
X1049052Y935816D01*
X1049060Y935769D01*
X1049094Y935712D01*
X1049119Y935652D01*
X1049150Y935617D01*
X1049175Y935576D01*
X1049226Y935535D01*
X1049270Y935486D01*
X1049312Y935464D01*
X1049349Y935435D01*
X1049411Y935414D01*
X1049470Y935383D01*
X1049524Y935375D01*
X1049561Y935363D01*
X1049601Y935364D01*
X1049655Y935356D01*
X1053465Y935356D01*
X1053530Y935367D01*
G37*
G36*
X1439610Y935367D02*
X1439610Y935367D01*
X1439676Y935369D01*
X1439719Y935387D01*
X1439766Y935395D01*
X1439823Y935429D01*
X1439883Y935454D01*
X1439918Y935485D01*
X1439959Y935510D01*
X1440001Y935561D01*
X1440049Y935605D01*
X1440071Y935647D01*
X1440100Y935684D01*
X1440121Y935746D01*
X1440152Y935805D01*
X1440160Y935859D01*
X1440172Y935896D01*
X1440171Y935936D01*
X1440179Y935990D01*
X1440179Y938530D01*
X1440168Y938595D01*
X1440166Y938661D01*
X1440148Y938704D01*
X1440140Y938751D01*
X1440106Y938808D01*
X1440081Y938868D01*
X1440050Y938903D01*
X1440025Y938944D01*
X1439974Y938986D01*
X1439930Y939034D01*
X1439888Y939056D01*
X1439851Y939085D01*
X1439789Y939106D01*
X1439730Y939137D01*
X1439676Y939145D01*
X1439639Y939157D01*
X1439599Y939156D01*
X1439545Y939164D01*
X1435735Y939164D01*
X1435670Y939153D01*
X1435604Y939151D01*
X1435561Y939133D01*
X1435514Y939125D01*
X1435457Y939091D01*
X1435397Y939066D01*
X1435362Y939035D01*
X1435321Y939010D01*
X1435280Y938959D01*
X1435231Y938915D01*
X1435209Y938873D01*
X1435180Y938836D01*
X1435159Y938774D01*
X1435128Y938715D01*
X1435120Y938661D01*
X1435108Y938624D01*
X1435108Y938621D01*
X1435109Y938584D01*
X1435101Y938530D01*
X1435101Y935990D01*
X1435112Y935925D01*
X1435114Y935859D01*
X1435132Y935816D01*
X1435140Y935769D01*
X1435174Y935712D01*
X1435199Y935652D01*
X1435230Y935617D01*
X1435255Y935576D01*
X1435306Y935535D01*
X1435350Y935486D01*
X1435392Y935464D01*
X1435429Y935435D01*
X1435491Y935414D01*
X1435550Y935383D01*
X1435604Y935375D01*
X1435641Y935363D01*
X1435681Y935364D01*
X1435735Y935356D01*
X1439545Y935356D01*
X1439610Y935367D01*
G37*
G36*
X667450Y935367D02*
X667450Y935367D01*
X667516Y935369D01*
X667559Y935387D01*
X667606Y935395D01*
X667663Y935429D01*
X667723Y935454D01*
X667758Y935485D01*
X667799Y935510D01*
X667841Y935561D01*
X667889Y935605D01*
X667911Y935647D01*
X667940Y935684D01*
X667961Y935746D01*
X667992Y935805D01*
X668000Y935859D01*
X668012Y935896D01*
X668011Y935936D01*
X668019Y935990D01*
X668019Y938530D01*
X668008Y938595D01*
X668006Y938661D01*
X667988Y938704D01*
X667980Y938751D01*
X667946Y938808D01*
X667921Y938868D01*
X667890Y938903D01*
X667865Y938944D01*
X667814Y938986D01*
X667770Y939034D01*
X667728Y939056D01*
X667691Y939085D01*
X667629Y939106D01*
X667570Y939137D01*
X667516Y939145D01*
X667479Y939157D01*
X667439Y939156D01*
X667385Y939164D01*
X663575Y939164D01*
X663510Y939153D01*
X663444Y939151D01*
X663401Y939133D01*
X663354Y939125D01*
X663297Y939091D01*
X663237Y939066D01*
X663202Y939035D01*
X663161Y939010D01*
X663120Y938959D01*
X663071Y938915D01*
X663049Y938873D01*
X663020Y938836D01*
X662999Y938774D01*
X662968Y938715D01*
X662960Y938661D01*
X662948Y938624D01*
X662948Y938621D01*
X662949Y938584D01*
X662941Y938530D01*
X662941Y935990D01*
X662952Y935925D01*
X662954Y935859D01*
X662972Y935816D01*
X662980Y935769D01*
X663014Y935712D01*
X663039Y935652D01*
X663070Y935617D01*
X663095Y935576D01*
X663146Y935535D01*
X663190Y935486D01*
X663232Y935464D01*
X663269Y935435D01*
X663331Y935414D01*
X663390Y935383D01*
X663444Y935375D01*
X663481Y935363D01*
X663521Y935364D01*
X663575Y935356D01*
X667385Y935356D01*
X667450Y935367D01*
G37*
G36*
X52770Y846467D02*
X52770Y846467D01*
X52836Y846469D01*
X52879Y846487D01*
X52926Y846495D01*
X52983Y846529D01*
X53043Y846554D01*
X53078Y846585D01*
X53119Y846610D01*
X53161Y846661D01*
X53209Y846705D01*
X53231Y846747D01*
X53260Y846784D01*
X53281Y846846D01*
X53312Y846905D01*
X53320Y846959D01*
X53332Y846996D01*
X53331Y847036D01*
X53339Y847090D01*
X53339Y849630D01*
X53328Y849695D01*
X53326Y849761D01*
X53308Y849804D01*
X53300Y849851D01*
X53266Y849908D01*
X53241Y849968D01*
X53210Y850003D01*
X53185Y850044D01*
X53134Y850086D01*
X53090Y850134D01*
X53048Y850156D01*
X53011Y850185D01*
X52949Y850206D01*
X52890Y850237D01*
X52836Y850245D01*
X52799Y850257D01*
X52759Y850256D01*
X52705Y850264D01*
X48895Y850264D01*
X48830Y850253D01*
X48764Y850251D01*
X48721Y850233D01*
X48674Y850225D01*
X48617Y850191D01*
X48557Y850166D01*
X48522Y850135D01*
X48481Y850110D01*
X48440Y850059D01*
X48391Y850015D01*
X48369Y849973D01*
X48340Y849936D01*
X48319Y849874D01*
X48288Y849815D01*
X48280Y849761D01*
X48268Y849724D01*
X48268Y849721D01*
X48269Y849684D01*
X48261Y849630D01*
X48261Y847090D01*
X48272Y847025D01*
X48274Y846959D01*
X48292Y846916D01*
X48300Y846869D01*
X48334Y846812D01*
X48359Y846752D01*
X48390Y846717D01*
X48415Y846676D01*
X48466Y846635D01*
X48510Y846586D01*
X48552Y846564D01*
X48589Y846535D01*
X48651Y846514D01*
X48710Y846483D01*
X48764Y846475D01*
X48801Y846463D01*
X48841Y846464D01*
X48895Y846456D01*
X52705Y846456D01*
X52770Y846467D01*
G37*
G36*
X824930Y846467D02*
X824930Y846467D01*
X824996Y846469D01*
X825039Y846487D01*
X825086Y846495D01*
X825143Y846529D01*
X825203Y846554D01*
X825238Y846585D01*
X825279Y846610D01*
X825321Y846661D01*
X825369Y846705D01*
X825391Y846747D01*
X825420Y846784D01*
X825441Y846846D01*
X825472Y846905D01*
X825480Y846959D01*
X825492Y846996D01*
X825491Y847036D01*
X825499Y847090D01*
X825499Y849630D01*
X825488Y849695D01*
X825486Y849761D01*
X825468Y849804D01*
X825460Y849851D01*
X825426Y849908D01*
X825401Y849968D01*
X825370Y850003D01*
X825345Y850044D01*
X825294Y850086D01*
X825250Y850134D01*
X825208Y850156D01*
X825171Y850185D01*
X825109Y850206D01*
X825050Y850237D01*
X824996Y850245D01*
X824959Y850257D01*
X824919Y850256D01*
X824865Y850264D01*
X821055Y850264D01*
X820990Y850253D01*
X820924Y850251D01*
X820881Y850233D01*
X820834Y850225D01*
X820777Y850191D01*
X820717Y850166D01*
X820682Y850135D01*
X820641Y850110D01*
X820600Y850059D01*
X820551Y850015D01*
X820529Y849973D01*
X820500Y849936D01*
X820479Y849874D01*
X820448Y849815D01*
X820440Y849761D01*
X820428Y849724D01*
X820428Y849721D01*
X820429Y849684D01*
X820421Y849630D01*
X820421Y847090D01*
X820432Y847025D01*
X820434Y846959D01*
X820452Y846916D01*
X820460Y846869D01*
X820494Y846812D01*
X820519Y846752D01*
X820550Y846717D01*
X820575Y846676D01*
X820626Y846635D01*
X820670Y846586D01*
X820712Y846564D01*
X820749Y846535D01*
X820811Y846514D01*
X820870Y846483D01*
X820924Y846475D01*
X820961Y846463D01*
X821001Y846464D01*
X821055Y846456D01*
X824865Y846456D01*
X824930Y846467D01*
G37*
G36*
X1211010Y846467D02*
X1211010Y846467D01*
X1211076Y846469D01*
X1211119Y846487D01*
X1211166Y846495D01*
X1211223Y846529D01*
X1211283Y846554D01*
X1211318Y846585D01*
X1211359Y846610D01*
X1211401Y846661D01*
X1211449Y846705D01*
X1211471Y846747D01*
X1211500Y846784D01*
X1211521Y846846D01*
X1211552Y846905D01*
X1211560Y846959D01*
X1211572Y846996D01*
X1211571Y847036D01*
X1211579Y847090D01*
X1211579Y849630D01*
X1211568Y849695D01*
X1211566Y849761D01*
X1211548Y849804D01*
X1211540Y849851D01*
X1211506Y849908D01*
X1211481Y849968D01*
X1211450Y850003D01*
X1211425Y850044D01*
X1211374Y850086D01*
X1211330Y850134D01*
X1211288Y850156D01*
X1211251Y850185D01*
X1211189Y850206D01*
X1211130Y850237D01*
X1211076Y850245D01*
X1211039Y850257D01*
X1210999Y850256D01*
X1210945Y850264D01*
X1207135Y850264D01*
X1207070Y850253D01*
X1207004Y850251D01*
X1206961Y850233D01*
X1206914Y850225D01*
X1206857Y850191D01*
X1206797Y850166D01*
X1206762Y850135D01*
X1206721Y850110D01*
X1206680Y850059D01*
X1206631Y850015D01*
X1206609Y849973D01*
X1206580Y849936D01*
X1206559Y849874D01*
X1206528Y849815D01*
X1206520Y849761D01*
X1206508Y849724D01*
X1206508Y849721D01*
X1206509Y849684D01*
X1206501Y849630D01*
X1206501Y847090D01*
X1206512Y847025D01*
X1206514Y846959D01*
X1206532Y846916D01*
X1206540Y846869D01*
X1206574Y846812D01*
X1206599Y846752D01*
X1206630Y846717D01*
X1206655Y846676D01*
X1206706Y846635D01*
X1206750Y846586D01*
X1206792Y846564D01*
X1206829Y846535D01*
X1206891Y846514D01*
X1206950Y846483D01*
X1207004Y846475D01*
X1207041Y846463D01*
X1207081Y846464D01*
X1207135Y846456D01*
X1210945Y846456D01*
X1211010Y846467D01*
G37*
G36*
X438850Y846467D02*
X438850Y846467D01*
X438916Y846469D01*
X438959Y846487D01*
X439006Y846495D01*
X439063Y846529D01*
X439123Y846554D01*
X439158Y846585D01*
X439199Y846610D01*
X439241Y846661D01*
X439289Y846705D01*
X439311Y846747D01*
X439340Y846784D01*
X439361Y846846D01*
X439392Y846905D01*
X439400Y846959D01*
X439412Y846996D01*
X439411Y847036D01*
X439419Y847090D01*
X439419Y849630D01*
X439408Y849695D01*
X439406Y849761D01*
X439388Y849804D01*
X439380Y849851D01*
X439346Y849908D01*
X439321Y849968D01*
X439290Y850003D01*
X439265Y850044D01*
X439214Y850086D01*
X439170Y850134D01*
X439128Y850156D01*
X439091Y850185D01*
X439029Y850206D01*
X438970Y850237D01*
X438916Y850245D01*
X438879Y850257D01*
X438839Y850256D01*
X438785Y850264D01*
X434975Y850264D01*
X434910Y850253D01*
X434844Y850251D01*
X434801Y850233D01*
X434754Y850225D01*
X434697Y850191D01*
X434637Y850166D01*
X434602Y850135D01*
X434561Y850110D01*
X434520Y850059D01*
X434471Y850015D01*
X434449Y849973D01*
X434420Y849936D01*
X434399Y849874D01*
X434368Y849815D01*
X434360Y849761D01*
X434348Y849724D01*
X434348Y849721D01*
X434349Y849684D01*
X434341Y849630D01*
X434341Y847090D01*
X434352Y847025D01*
X434354Y846959D01*
X434372Y846916D01*
X434380Y846869D01*
X434414Y846812D01*
X434439Y846752D01*
X434470Y846717D01*
X434495Y846676D01*
X434546Y846635D01*
X434590Y846586D01*
X434632Y846564D01*
X434669Y846535D01*
X434731Y846514D01*
X434790Y846483D01*
X434844Y846475D01*
X434881Y846463D01*
X434921Y846464D01*
X434975Y846456D01*
X438785Y846456D01*
X438850Y846467D01*
G37*
G36*
X34990Y676287D02*
X34990Y676287D01*
X35056Y676289D01*
X35099Y676307D01*
X35146Y676315D01*
X35203Y676349D01*
X35263Y676374D01*
X35298Y676405D01*
X35339Y676430D01*
X35381Y676481D01*
X35429Y676525D01*
X35451Y676567D01*
X35480Y676604D01*
X35501Y676666D01*
X35532Y676725D01*
X35540Y676779D01*
X35552Y676816D01*
X35551Y676856D01*
X35559Y676910D01*
X35559Y679450D01*
X35548Y679515D01*
X35546Y679581D01*
X35528Y679624D01*
X35520Y679671D01*
X35486Y679728D01*
X35461Y679788D01*
X35430Y679823D01*
X35405Y679864D01*
X35354Y679906D01*
X35310Y679954D01*
X35268Y679976D01*
X35231Y680005D01*
X35169Y680026D01*
X35110Y680057D01*
X35056Y680065D01*
X35019Y680077D01*
X34979Y680076D01*
X34925Y680084D01*
X31115Y680084D01*
X31050Y680073D01*
X30984Y680071D01*
X30941Y680053D01*
X30894Y680045D01*
X30837Y680011D01*
X30777Y679986D01*
X30742Y679955D01*
X30701Y679930D01*
X30660Y679879D01*
X30611Y679835D01*
X30589Y679793D01*
X30560Y679756D01*
X30539Y679694D01*
X30508Y679635D01*
X30500Y679581D01*
X30488Y679544D01*
X30488Y679541D01*
X30489Y679504D01*
X30481Y679450D01*
X30481Y676910D01*
X30492Y676845D01*
X30494Y676779D01*
X30512Y676736D01*
X30520Y676689D01*
X30554Y676632D01*
X30579Y676572D01*
X30610Y676537D01*
X30635Y676496D01*
X30686Y676455D01*
X30730Y676406D01*
X30772Y676384D01*
X30809Y676355D01*
X30871Y676334D01*
X30930Y676303D01*
X30984Y676295D01*
X31021Y676283D01*
X31061Y676284D01*
X31115Y676276D01*
X34925Y676276D01*
X34990Y676287D01*
G37*
G36*
X1193230Y676287D02*
X1193230Y676287D01*
X1193296Y676289D01*
X1193339Y676307D01*
X1193386Y676315D01*
X1193443Y676349D01*
X1193503Y676374D01*
X1193538Y676405D01*
X1193579Y676430D01*
X1193621Y676481D01*
X1193669Y676525D01*
X1193691Y676567D01*
X1193720Y676604D01*
X1193741Y676666D01*
X1193772Y676725D01*
X1193780Y676779D01*
X1193792Y676816D01*
X1193791Y676856D01*
X1193799Y676910D01*
X1193799Y679450D01*
X1193788Y679515D01*
X1193786Y679581D01*
X1193768Y679624D01*
X1193760Y679671D01*
X1193726Y679728D01*
X1193701Y679788D01*
X1193670Y679823D01*
X1193645Y679864D01*
X1193594Y679906D01*
X1193550Y679954D01*
X1193508Y679976D01*
X1193471Y680005D01*
X1193409Y680026D01*
X1193350Y680057D01*
X1193296Y680065D01*
X1193259Y680077D01*
X1193219Y680076D01*
X1193165Y680084D01*
X1189355Y680084D01*
X1189290Y680073D01*
X1189224Y680071D01*
X1189181Y680053D01*
X1189134Y680045D01*
X1189077Y680011D01*
X1189017Y679986D01*
X1188982Y679955D01*
X1188941Y679930D01*
X1188900Y679879D01*
X1188851Y679835D01*
X1188829Y679793D01*
X1188800Y679756D01*
X1188779Y679694D01*
X1188748Y679635D01*
X1188740Y679581D01*
X1188728Y679544D01*
X1188728Y679541D01*
X1188729Y679504D01*
X1188721Y679450D01*
X1188721Y676910D01*
X1188732Y676845D01*
X1188734Y676779D01*
X1188752Y676736D01*
X1188760Y676689D01*
X1188794Y676632D01*
X1188819Y676572D01*
X1188850Y676537D01*
X1188875Y676496D01*
X1188926Y676455D01*
X1188970Y676406D01*
X1189012Y676384D01*
X1189049Y676355D01*
X1189111Y676334D01*
X1189170Y676303D01*
X1189224Y676295D01*
X1189261Y676283D01*
X1189301Y676284D01*
X1189355Y676276D01*
X1193165Y676276D01*
X1193230Y676287D01*
G37*
G36*
X431230Y676287D02*
X431230Y676287D01*
X431296Y676289D01*
X431339Y676307D01*
X431386Y676315D01*
X431443Y676349D01*
X431503Y676374D01*
X431538Y676405D01*
X431579Y676430D01*
X431621Y676481D01*
X431669Y676525D01*
X431691Y676567D01*
X431720Y676604D01*
X431741Y676666D01*
X431772Y676725D01*
X431780Y676779D01*
X431792Y676816D01*
X431791Y676856D01*
X431799Y676910D01*
X431799Y679450D01*
X431788Y679515D01*
X431786Y679581D01*
X431768Y679624D01*
X431760Y679671D01*
X431726Y679728D01*
X431701Y679788D01*
X431670Y679823D01*
X431645Y679864D01*
X431594Y679906D01*
X431550Y679954D01*
X431508Y679976D01*
X431471Y680005D01*
X431409Y680026D01*
X431350Y680057D01*
X431296Y680065D01*
X431259Y680077D01*
X431219Y680076D01*
X431165Y680084D01*
X427355Y680084D01*
X427290Y680073D01*
X427224Y680071D01*
X427181Y680053D01*
X427134Y680045D01*
X427077Y680011D01*
X427017Y679986D01*
X426982Y679955D01*
X426941Y679930D01*
X426900Y679879D01*
X426851Y679835D01*
X426829Y679793D01*
X426800Y679756D01*
X426779Y679694D01*
X426748Y679635D01*
X426740Y679581D01*
X426728Y679544D01*
X426728Y679541D01*
X426729Y679504D01*
X426721Y679450D01*
X426721Y676910D01*
X426732Y676845D01*
X426734Y676779D01*
X426752Y676736D01*
X426760Y676689D01*
X426794Y676632D01*
X426819Y676572D01*
X426850Y676537D01*
X426875Y676496D01*
X426926Y676455D01*
X426970Y676406D01*
X427012Y676384D01*
X427049Y676355D01*
X427111Y676334D01*
X427170Y676303D01*
X427224Y676295D01*
X427261Y676283D01*
X427301Y676284D01*
X427355Y676276D01*
X431165Y676276D01*
X431230Y676287D01*
G37*
G36*
X1203390Y676287D02*
X1203390Y676287D01*
X1203456Y676289D01*
X1203499Y676307D01*
X1203546Y676315D01*
X1203603Y676349D01*
X1203663Y676374D01*
X1203698Y676405D01*
X1203739Y676430D01*
X1203781Y676481D01*
X1203829Y676525D01*
X1203851Y676567D01*
X1203880Y676604D01*
X1203901Y676666D01*
X1203932Y676725D01*
X1203940Y676779D01*
X1203952Y676816D01*
X1203951Y676856D01*
X1203959Y676910D01*
X1203959Y679450D01*
X1203948Y679515D01*
X1203946Y679581D01*
X1203928Y679624D01*
X1203920Y679671D01*
X1203886Y679728D01*
X1203861Y679788D01*
X1203830Y679823D01*
X1203805Y679864D01*
X1203754Y679906D01*
X1203710Y679954D01*
X1203668Y679976D01*
X1203631Y680005D01*
X1203569Y680026D01*
X1203510Y680057D01*
X1203456Y680065D01*
X1203419Y680077D01*
X1203379Y680076D01*
X1203325Y680084D01*
X1199515Y680084D01*
X1199450Y680073D01*
X1199384Y680071D01*
X1199341Y680053D01*
X1199294Y680045D01*
X1199237Y680011D01*
X1199177Y679986D01*
X1199142Y679955D01*
X1199101Y679930D01*
X1199060Y679879D01*
X1199011Y679835D01*
X1198989Y679793D01*
X1198960Y679756D01*
X1198939Y679694D01*
X1198908Y679635D01*
X1198900Y679581D01*
X1198888Y679544D01*
X1198888Y679541D01*
X1198889Y679504D01*
X1198881Y679450D01*
X1198881Y676910D01*
X1198892Y676845D01*
X1198894Y676779D01*
X1198912Y676736D01*
X1198920Y676689D01*
X1198954Y676632D01*
X1198979Y676572D01*
X1199010Y676537D01*
X1199035Y676496D01*
X1199086Y676455D01*
X1199130Y676406D01*
X1199172Y676384D01*
X1199209Y676355D01*
X1199271Y676334D01*
X1199330Y676303D01*
X1199384Y676295D01*
X1199421Y676283D01*
X1199461Y676284D01*
X1199515Y676276D01*
X1203325Y676276D01*
X1203390Y676287D01*
G37*
G36*
X807150Y676287D02*
X807150Y676287D01*
X807216Y676289D01*
X807259Y676307D01*
X807306Y676315D01*
X807363Y676349D01*
X807423Y676374D01*
X807458Y676405D01*
X807499Y676430D01*
X807541Y676481D01*
X807589Y676525D01*
X807611Y676567D01*
X807640Y676604D01*
X807661Y676666D01*
X807692Y676725D01*
X807700Y676779D01*
X807712Y676816D01*
X807711Y676856D01*
X807719Y676910D01*
X807719Y679450D01*
X807708Y679515D01*
X807706Y679581D01*
X807688Y679624D01*
X807680Y679671D01*
X807646Y679728D01*
X807621Y679788D01*
X807590Y679823D01*
X807565Y679864D01*
X807514Y679906D01*
X807470Y679954D01*
X807428Y679976D01*
X807391Y680005D01*
X807329Y680026D01*
X807270Y680057D01*
X807216Y680065D01*
X807179Y680077D01*
X807139Y680076D01*
X807085Y680084D01*
X803275Y680084D01*
X803210Y680073D01*
X803144Y680071D01*
X803101Y680053D01*
X803054Y680045D01*
X802997Y680011D01*
X802937Y679986D01*
X802902Y679955D01*
X802861Y679930D01*
X802820Y679879D01*
X802771Y679835D01*
X802749Y679793D01*
X802720Y679756D01*
X802699Y679694D01*
X802668Y679635D01*
X802660Y679581D01*
X802648Y679544D01*
X802648Y679541D01*
X802649Y679504D01*
X802641Y679450D01*
X802641Y676910D01*
X802652Y676845D01*
X802654Y676779D01*
X802672Y676736D01*
X802680Y676689D01*
X802714Y676632D01*
X802739Y676572D01*
X802770Y676537D01*
X802795Y676496D01*
X802846Y676455D01*
X802890Y676406D01*
X802932Y676384D01*
X802969Y676355D01*
X803031Y676334D01*
X803090Y676303D01*
X803144Y676295D01*
X803181Y676283D01*
X803221Y676284D01*
X803275Y676276D01*
X807085Y676276D01*
X807150Y676287D01*
G37*
G36*
X817310Y676287D02*
X817310Y676287D01*
X817376Y676289D01*
X817419Y676307D01*
X817466Y676315D01*
X817523Y676349D01*
X817583Y676374D01*
X817618Y676405D01*
X817659Y676430D01*
X817701Y676481D01*
X817749Y676525D01*
X817771Y676567D01*
X817800Y676604D01*
X817821Y676666D01*
X817852Y676725D01*
X817860Y676779D01*
X817872Y676816D01*
X817871Y676856D01*
X817879Y676910D01*
X817879Y679450D01*
X817868Y679515D01*
X817866Y679581D01*
X817848Y679624D01*
X817840Y679671D01*
X817806Y679728D01*
X817781Y679788D01*
X817750Y679823D01*
X817725Y679864D01*
X817674Y679906D01*
X817630Y679954D01*
X817588Y679976D01*
X817551Y680005D01*
X817489Y680026D01*
X817430Y680057D01*
X817376Y680065D01*
X817339Y680077D01*
X817299Y680076D01*
X817245Y680084D01*
X813435Y680084D01*
X813370Y680073D01*
X813304Y680071D01*
X813261Y680053D01*
X813214Y680045D01*
X813157Y680011D01*
X813097Y679986D01*
X813062Y679955D01*
X813021Y679930D01*
X812980Y679879D01*
X812931Y679835D01*
X812909Y679793D01*
X812880Y679756D01*
X812859Y679694D01*
X812828Y679635D01*
X812820Y679581D01*
X812808Y679544D01*
X812808Y679541D01*
X812809Y679504D01*
X812801Y679450D01*
X812801Y676910D01*
X812812Y676845D01*
X812814Y676779D01*
X812832Y676736D01*
X812840Y676689D01*
X812874Y676632D01*
X812899Y676572D01*
X812930Y676537D01*
X812955Y676496D01*
X813006Y676455D01*
X813050Y676406D01*
X813092Y676384D01*
X813129Y676355D01*
X813191Y676334D01*
X813250Y676303D01*
X813304Y676295D01*
X813341Y676283D01*
X813381Y676284D01*
X813435Y676276D01*
X817245Y676276D01*
X817310Y676287D01*
G37*
G36*
X45150Y676287D02*
X45150Y676287D01*
X45216Y676289D01*
X45259Y676307D01*
X45306Y676315D01*
X45363Y676349D01*
X45423Y676374D01*
X45458Y676405D01*
X45499Y676430D01*
X45541Y676481D01*
X45589Y676525D01*
X45611Y676567D01*
X45640Y676604D01*
X45661Y676666D01*
X45692Y676725D01*
X45700Y676779D01*
X45712Y676816D01*
X45711Y676856D01*
X45719Y676910D01*
X45719Y679450D01*
X45708Y679515D01*
X45706Y679581D01*
X45688Y679624D01*
X45680Y679671D01*
X45646Y679728D01*
X45621Y679788D01*
X45590Y679823D01*
X45565Y679864D01*
X45514Y679906D01*
X45470Y679954D01*
X45428Y679976D01*
X45391Y680005D01*
X45329Y680026D01*
X45270Y680057D01*
X45216Y680065D01*
X45179Y680077D01*
X45139Y680076D01*
X45085Y680084D01*
X41275Y680084D01*
X41210Y680073D01*
X41144Y680071D01*
X41101Y680053D01*
X41054Y680045D01*
X40997Y680011D01*
X40937Y679986D01*
X40902Y679955D01*
X40861Y679930D01*
X40820Y679879D01*
X40771Y679835D01*
X40749Y679793D01*
X40720Y679756D01*
X40699Y679694D01*
X40668Y679635D01*
X40660Y679581D01*
X40648Y679544D01*
X40648Y679541D01*
X40649Y679504D01*
X40641Y679450D01*
X40641Y676910D01*
X40652Y676845D01*
X40654Y676779D01*
X40672Y676736D01*
X40680Y676689D01*
X40714Y676632D01*
X40739Y676572D01*
X40770Y676537D01*
X40795Y676496D01*
X40846Y676455D01*
X40890Y676406D01*
X40932Y676384D01*
X40969Y676355D01*
X41031Y676334D01*
X41090Y676303D01*
X41144Y676295D01*
X41181Y676283D01*
X41221Y676284D01*
X41275Y676276D01*
X45085Y676276D01*
X45150Y676287D01*
G37*
G36*
X421070Y676287D02*
X421070Y676287D01*
X421136Y676289D01*
X421179Y676307D01*
X421226Y676315D01*
X421283Y676349D01*
X421343Y676374D01*
X421378Y676405D01*
X421419Y676430D01*
X421461Y676481D01*
X421509Y676525D01*
X421531Y676567D01*
X421560Y676604D01*
X421581Y676666D01*
X421612Y676725D01*
X421620Y676779D01*
X421632Y676816D01*
X421631Y676856D01*
X421639Y676910D01*
X421639Y679450D01*
X421628Y679515D01*
X421626Y679581D01*
X421608Y679624D01*
X421600Y679671D01*
X421566Y679728D01*
X421541Y679788D01*
X421510Y679823D01*
X421485Y679864D01*
X421434Y679906D01*
X421390Y679954D01*
X421348Y679976D01*
X421311Y680005D01*
X421249Y680026D01*
X421190Y680057D01*
X421136Y680065D01*
X421099Y680077D01*
X421059Y680076D01*
X421005Y680084D01*
X417195Y680084D01*
X417130Y680073D01*
X417064Y680071D01*
X417021Y680053D01*
X416974Y680045D01*
X416917Y680011D01*
X416857Y679986D01*
X416822Y679955D01*
X416781Y679930D01*
X416740Y679879D01*
X416691Y679835D01*
X416669Y679793D01*
X416640Y679756D01*
X416619Y679694D01*
X416588Y679635D01*
X416580Y679581D01*
X416568Y679544D01*
X416568Y679541D01*
X416569Y679504D01*
X416561Y679450D01*
X416561Y676910D01*
X416572Y676845D01*
X416574Y676779D01*
X416592Y676736D01*
X416600Y676689D01*
X416634Y676632D01*
X416659Y676572D01*
X416690Y676537D01*
X416715Y676496D01*
X416766Y676455D01*
X416810Y676406D01*
X416852Y676384D01*
X416889Y676355D01*
X416951Y676334D01*
X417010Y676303D01*
X417064Y676295D01*
X417101Y676283D01*
X417141Y676284D01*
X417195Y676276D01*
X421005Y676276D01*
X421070Y676287D01*
G37*
G36*
X489650Y638187D02*
X489650Y638187D01*
X489716Y638189D01*
X489759Y638207D01*
X489806Y638215D01*
X489863Y638249D01*
X489923Y638274D01*
X489958Y638305D01*
X489999Y638330D01*
X490041Y638381D01*
X490089Y638425D01*
X490111Y638467D01*
X490140Y638504D01*
X490161Y638566D01*
X490192Y638625D01*
X490200Y638679D01*
X490212Y638716D01*
X490211Y638756D01*
X490219Y638810D01*
X490219Y641350D01*
X490208Y641415D01*
X490206Y641481D01*
X490188Y641524D01*
X490180Y641571D01*
X490146Y641628D01*
X490121Y641688D01*
X490090Y641723D01*
X490065Y641764D01*
X490014Y641806D01*
X489970Y641854D01*
X489928Y641876D01*
X489891Y641905D01*
X489829Y641926D01*
X489770Y641957D01*
X489716Y641965D01*
X489679Y641977D01*
X489639Y641976D01*
X489585Y641984D01*
X485775Y641984D01*
X485710Y641973D01*
X485644Y641971D01*
X485601Y641953D01*
X485554Y641945D01*
X485497Y641911D01*
X485437Y641886D01*
X485402Y641855D01*
X485361Y641830D01*
X485320Y641779D01*
X485271Y641735D01*
X485249Y641693D01*
X485220Y641656D01*
X485199Y641594D01*
X485168Y641535D01*
X485160Y641481D01*
X485148Y641444D01*
X485148Y641441D01*
X485149Y641404D01*
X485141Y641350D01*
X485141Y638810D01*
X485152Y638745D01*
X485154Y638679D01*
X485172Y638636D01*
X485180Y638589D01*
X485214Y638532D01*
X485239Y638472D01*
X485270Y638437D01*
X485295Y638396D01*
X485346Y638355D01*
X485390Y638306D01*
X485432Y638284D01*
X485469Y638255D01*
X485531Y638234D01*
X485590Y638203D01*
X485644Y638195D01*
X485681Y638183D01*
X485721Y638184D01*
X485775Y638176D01*
X489585Y638176D01*
X489650Y638187D01*
G37*
G36*
X875730Y638187D02*
X875730Y638187D01*
X875796Y638189D01*
X875839Y638207D01*
X875886Y638215D01*
X875943Y638249D01*
X876003Y638274D01*
X876038Y638305D01*
X876079Y638330D01*
X876121Y638381D01*
X876169Y638425D01*
X876191Y638467D01*
X876220Y638504D01*
X876241Y638566D01*
X876272Y638625D01*
X876280Y638679D01*
X876292Y638716D01*
X876291Y638756D01*
X876299Y638810D01*
X876299Y641350D01*
X876288Y641415D01*
X876286Y641481D01*
X876268Y641524D01*
X876260Y641571D01*
X876226Y641628D01*
X876201Y641688D01*
X876170Y641723D01*
X876145Y641764D01*
X876094Y641806D01*
X876050Y641854D01*
X876008Y641876D01*
X875971Y641905D01*
X875909Y641926D01*
X875850Y641957D01*
X875796Y641965D01*
X875759Y641977D01*
X875719Y641976D01*
X875665Y641984D01*
X871855Y641984D01*
X871790Y641973D01*
X871724Y641971D01*
X871681Y641953D01*
X871634Y641945D01*
X871577Y641911D01*
X871517Y641886D01*
X871482Y641855D01*
X871441Y641830D01*
X871400Y641779D01*
X871351Y641735D01*
X871329Y641693D01*
X871300Y641656D01*
X871279Y641594D01*
X871248Y641535D01*
X871240Y641481D01*
X871228Y641444D01*
X871228Y641441D01*
X871229Y641404D01*
X871221Y641350D01*
X871221Y638810D01*
X871232Y638745D01*
X871234Y638679D01*
X871252Y638636D01*
X871260Y638589D01*
X871294Y638532D01*
X871319Y638472D01*
X871350Y638437D01*
X871375Y638396D01*
X871426Y638355D01*
X871470Y638306D01*
X871512Y638284D01*
X871549Y638255D01*
X871611Y638234D01*
X871670Y638203D01*
X871724Y638195D01*
X871761Y638183D01*
X871801Y638184D01*
X871855Y638176D01*
X875665Y638176D01*
X875730Y638187D01*
G37*
G36*
X103570Y638187D02*
X103570Y638187D01*
X103636Y638189D01*
X103679Y638207D01*
X103726Y638215D01*
X103783Y638249D01*
X103843Y638274D01*
X103878Y638305D01*
X103919Y638330D01*
X103961Y638381D01*
X104009Y638425D01*
X104031Y638467D01*
X104060Y638504D01*
X104081Y638566D01*
X104112Y638625D01*
X104120Y638679D01*
X104132Y638716D01*
X104131Y638756D01*
X104139Y638810D01*
X104139Y641350D01*
X104128Y641415D01*
X104126Y641481D01*
X104108Y641524D01*
X104100Y641571D01*
X104066Y641628D01*
X104041Y641688D01*
X104010Y641723D01*
X103985Y641764D01*
X103934Y641806D01*
X103890Y641854D01*
X103848Y641876D01*
X103811Y641905D01*
X103749Y641926D01*
X103690Y641957D01*
X103636Y641965D01*
X103599Y641977D01*
X103559Y641976D01*
X103505Y641984D01*
X99695Y641984D01*
X99630Y641973D01*
X99564Y641971D01*
X99521Y641953D01*
X99474Y641945D01*
X99417Y641911D01*
X99357Y641886D01*
X99322Y641855D01*
X99281Y641830D01*
X99240Y641779D01*
X99191Y641735D01*
X99169Y641693D01*
X99140Y641656D01*
X99119Y641594D01*
X99088Y641535D01*
X99080Y641481D01*
X99068Y641444D01*
X99068Y641441D01*
X99069Y641404D01*
X99061Y641350D01*
X99061Y638810D01*
X99072Y638745D01*
X99074Y638679D01*
X99092Y638636D01*
X99100Y638589D01*
X99134Y638532D01*
X99159Y638472D01*
X99190Y638437D01*
X99215Y638396D01*
X99266Y638355D01*
X99310Y638306D01*
X99352Y638284D01*
X99389Y638255D01*
X99451Y638234D01*
X99510Y638203D01*
X99564Y638195D01*
X99601Y638183D01*
X99641Y638184D01*
X99695Y638176D01*
X103505Y638176D01*
X103570Y638187D01*
G37*
G36*
X1261810Y638187D02*
X1261810Y638187D01*
X1261876Y638189D01*
X1261919Y638207D01*
X1261966Y638215D01*
X1262023Y638249D01*
X1262083Y638274D01*
X1262118Y638305D01*
X1262159Y638330D01*
X1262201Y638381D01*
X1262249Y638425D01*
X1262271Y638467D01*
X1262300Y638504D01*
X1262321Y638566D01*
X1262352Y638625D01*
X1262360Y638679D01*
X1262372Y638716D01*
X1262371Y638756D01*
X1262379Y638810D01*
X1262379Y641350D01*
X1262368Y641415D01*
X1262366Y641481D01*
X1262348Y641524D01*
X1262340Y641571D01*
X1262306Y641628D01*
X1262281Y641688D01*
X1262250Y641723D01*
X1262225Y641764D01*
X1262174Y641806D01*
X1262130Y641854D01*
X1262088Y641876D01*
X1262051Y641905D01*
X1261989Y641926D01*
X1261930Y641957D01*
X1261876Y641965D01*
X1261839Y641977D01*
X1261799Y641976D01*
X1261745Y641984D01*
X1257935Y641984D01*
X1257870Y641973D01*
X1257804Y641971D01*
X1257761Y641953D01*
X1257714Y641945D01*
X1257657Y641911D01*
X1257597Y641886D01*
X1257562Y641855D01*
X1257521Y641830D01*
X1257480Y641779D01*
X1257431Y641735D01*
X1257409Y641693D01*
X1257380Y641656D01*
X1257359Y641594D01*
X1257328Y641535D01*
X1257320Y641481D01*
X1257308Y641444D01*
X1257308Y641441D01*
X1257309Y641404D01*
X1257301Y641350D01*
X1257301Y638810D01*
X1257312Y638745D01*
X1257314Y638679D01*
X1257332Y638636D01*
X1257340Y638589D01*
X1257374Y638532D01*
X1257399Y638472D01*
X1257430Y638437D01*
X1257455Y638396D01*
X1257506Y638355D01*
X1257550Y638306D01*
X1257592Y638284D01*
X1257629Y638255D01*
X1257691Y638234D01*
X1257750Y638203D01*
X1257804Y638195D01*
X1257841Y638183D01*
X1257881Y638184D01*
X1257935Y638176D01*
X1261745Y638176D01*
X1261810Y638187D01*
G37*
G36*
X667450Y600087D02*
X667450Y600087D01*
X667516Y600089D01*
X667559Y600107D01*
X667606Y600115D01*
X667663Y600149D01*
X667723Y600174D01*
X667758Y600205D01*
X667799Y600230D01*
X667841Y600281D01*
X667889Y600325D01*
X667911Y600367D01*
X667940Y600404D01*
X667961Y600466D01*
X667992Y600525D01*
X668000Y600579D01*
X668012Y600616D01*
X668011Y600656D01*
X668019Y600710D01*
X668019Y603250D01*
X668008Y603315D01*
X668006Y603381D01*
X667988Y603424D01*
X667980Y603471D01*
X667946Y603528D01*
X667921Y603588D01*
X667890Y603623D01*
X667865Y603664D01*
X667814Y603706D01*
X667770Y603754D01*
X667728Y603776D01*
X667691Y603805D01*
X667629Y603826D01*
X667570Y603857D01*
X667516Y603865D01*
X667479Y603877D01*
X667439Y603876D01*
X667385Y603884D01*
X663575Y603884D01*
X663510Y603873D01*
X663444Y603871D01*
X663401Y603853D01*
X663354Y603845D01*
X663297Y603811D01*
X663237Y603786D01*
X663202Y603755D01*
X663161Y603730D01*
X663120Y603679D01*
X663071Y603635D01*
X663049Y603593D01*
X663020Y603556D01*
X662999Y603494D01*
X662968Y603435D01*
X662960Y603381D01*
X662948Y603344D01*
X662948Y603341D01*
X662949Y603304D01*
X662941Y603250D01*
X662941Y600710D01*
X662952Y600645D01*
X662954Y600579D01*
X662972Y600536D01*
X662980Y600489D01*
X663014Y600432D01*
X663039Y600372D01*
X663070Y600337D01*
X663095Y600296D01*
X663146Y600255D01*
X663190Y600206D01*
X663232Y600184D01*
X663269Y600155D01*
X663331Y600134D01*
X663390Y600103D01*
X663444Y600095D01*
X663481Y600083D01*
X663521Y600084D01*
X663575Y600076D01*
X667385Y600076D01*
X667450Y600087D01*
G37*
G36*
X1053530Y600087D02*
X1053530Y600087D01*
X1053596Y600089D01*
X1053639Y600107D01*
X1053686Y600115D01*
X1053743Y600149D01*
X1053803Y600174D01*
X1053838Y600205D01*
X1053879Y600230D01*
X1053921Y600281D01*
X1053969Y600325D01*
X1053991Y600367D01*
X1054020Y600404D01*
X1054041Y600466D01*
X1054072Y600525D01*
X1054080Y600579D01*
X1054092Y600616D01*
X1054091Y600656D01*
X1054099Y600710D01*
X1054099Y603250D01*
X1054088Y603315D01*
X1054086Y603381D01*
X1054068Y603424D01*
X1054060Y603471D01*
X1054026Y603528D01*
X1054001Y603588D01*
X1053970Y603623D01*
X1053945Y603664D01*
X1053894Y603706D01*
X1053850Y603754D01*
X1053808Y603776D01*
X1053771Y603805D01*
X1053709Y603826D01*
X1053650Y603857D01*
X1053596Y603865D01*
X1053559Y603877D01*
X1053519Y603876D01*
X1053465Y603884D01*
X1049655Y603884D01*
X1049590Y603873D01*
X1049524Y603871D01*
X1049481Y603853D01*
X1049434Y603845D01*
X1049377Y603811D01*
X1049317Y603786D01*
X1049282Y603755D01*
X1049241Y603730D01*
X1049200Y603679D01*
X1049151Y603635D01*
X1049129Y603593D01*
X1049100Y603556D01*
X1049079Y603494D01*
X1049048Y603435D01*
X1049040Y603381D01*
X1049028Y603344D01*
X1049028Y603341D01*
X1049029Y603304D01*
X1049021Y603250D01*
X1049021Y600710D01*
X1049032Y600645D01*
X1049034Y600579D01*
X1049052Y600536D01*
X1049060Y600489D01*
X1049094Y600432D01*
X1049119Y600372D01*
X1049150Y600337D01*
X1049175Y600296D01*
X1049226Y600255D01*
X1049270Y600206D01*
X1049312Y600184D01*
X1049349Y600155D01*
X1049411Y600134D01*
X1049470Y600103D01*
X1049524Y600095D01*
X1049561Y600083D01*
X1049601Y600084D01*
X1049655Y600076D01*
X1053465Y600076D01*
X1053530Y600087D01*
G37*
G36*
X281370Y600087D02*
X281370Y600087D01*
X281436Y600089D01*
X281479Y600107D01*
X281526Y600115D01*
X281583Y600149D01*
X281643Y600174D01*
X281678Y600205D01*
X281719Y600230D01*
X281761Y600281D01*
X281809Y600325D01*
X281831Y600367D01*
X281860Y600404D01*
X281881Y600466D01*
X281912Y600525D01*
X281920Y600579D01*
X281932Y600616D01*
X281931Y600656D01*
X281939Y600710D01*
X281939Y603250D01*
X281928Y603315D01*
X281926Y603381D01*
X281908Y603424D01*
X281900Y603471D01*
X281866Y603528D01*
X281841Y603588D01*
X281810Y603623D01*
X281785Y603664D01*
X281734Y603706D01*
X281690Y603754D01*
X281648Y603776D01*
X281611Y603805D01*
X281549Y603826D01*
X281490Y603857D01*
X281436Y603865D01*
X281399Y603877D01*
X281359Y603876D01*
X281305Y603884D01*
X277495Y603884D01*
X277430Y603873D01*
X277364Y603871D01*
X277321Y603853D01*
X277274Y603845D01*
X277217Y603811D01*
X277157Y603786D01*
X277122Y603755D01*
X277081Y603730D01*
X277040Y603679D01*
X276991Y603635D01*
X276969Y603593D01*
X276940Y603556D01*
X276919Y603494D01*
X276888Y603435D01*
X276880Y603381D01*
X276868Y603344D01*
X276868Y603341D01*
X276869Y603304D01*
X276861Y603250D01*
X276861Y600710D01*
X276872Y600645D01*
X276874Y600579D01*
X276892Y600536D01*
X276900Y600489D01*
X276934Y600432D01*
X276959Y600372D01*
X276990Y600337D01*
X277015Y600296D01*
X277066Y600255D01*
X277110Y600206D01*
X277152Y600184D01*
X277189Y600155D01*
X277251Y600134D01*
X277310Y600103D01*
X277364Y600095D01*
X277401Y600083D01*
X277441Y600084D01*
X277495Y600076D01*
X281305Y600076D01*
X281370Y600087D01*
G37*
G36*
X1439610Y600087D02*
X1439610Y600087D01*
X1439676Y600089D01*
X1439719Y600107D01*
X1439766Y600115D01*
X1439823Y600149D01*
X1439883Y600174D01*
X1439918Y600205D01*
X1439959Y600230D01*
X1440001Y600281D01*
X1440049Y600325D01*
X1440071Y600367D01*
X1440100Y600404D01*
X1440121Y600466D01*
X1440152Y600525D01*
X1440160Y600579D01*
X1440172Y600616D01*
X1440171Y600656D01*
X1440179Y600710D01*
X1440179Y603250D01*
X1440168Y603315D01*
X1440166Y603381D01*
X1440148Y603424D01*
X1440140Y603471D01*
X1440106Y603528D01*
X1440081Y603588D01*
X1440050Y603623D01*
X1440025Y603664D01*
X1439974Y603706D01*
X1439930Y603754D01*
X1439888Y603776D01*
X1439851Y603805D01*
X1439789Y603826D01*
X1439730Y603857D01*
X1439676Y603865D01*
X1439639Y603877D01*
X1439599Y603876D01*
X1439545Y603884D01*
X1435735Y603884D01*
X1435670Y603873D01*
X1435604Y603871D01*
X1435561Y603853D01*
X1435514Y603845D01*
X1435457Y603811D01*
X1435397Y603786D01*
X1435362Y603755D01*
X1435321Y603730D01*
X1435280Y603679D01*
X1435231Y603635D01*
X1435209Y603593D01*
X1435180Y603556D01*
X1435159Y603494D01*
X1435128Y603435D01*
X1435120Y603381D01*
X1435108Y603344D01*
X1435108Y603341D01*
X1435109Y603304D01*
X1435101Y603250D01*
X1435101Y600710D01*
X1435112Y600645D01*
X1435114Y600579D01*
X1435132Y600536D01*
X1435140Y600489D01*
X1435174Y600432D01*
X1435199Y600372D01*
X1435230Y600337D01*
X1435255Y600296D01*
X1435306Y600255D01*
X1435350Y600206D01*
X1435392Y600184D01*
X1435429Y600155D01*
X1435491Y600134D01*
X1435550Y600103D01*
X1435604Y600095D01*
X1435641Y600083D01*
X1435681Y600084D01*
X1435735Y600076D01*
X1439545Y600076D01*
X1439610Y600087D01*
G37*
G36*
X1053530Y574687D02*
X1053530Y574687D01*
X1053596Y574689D01*
X1053639Y574707D01*
X1053686Y574715D01*
X1053743Y574749D01*
X1053803Y574774D01*
X1053838Y574805D01*
X1053879Y574830D01*
X1053921Y574881D01*
X1053969Y574925D01*
X1053991Y574967D01*
X1054020Y575004D01*
X1054041Y575066D01*
X1054072Y575125D01*
X1054080Y575179D01*
X1054092Y575216D01*
X1054091Y575256D01*
X1054099Y575310D01*
X1054099Y577850D01*
X1054088Y577915D01*
X1054086Y577981D01*
X1054068Y578024D01*
X1054060Y578071D01*
X1054026Y578128D01*
X1054001Y578188D01*
X1053970Y578223D01*
X1053945Y578264D01*
X1053894Y578306D01*
X1053850Y578354D01*
X1053808Y578376D01*
X1053771Y578405D01*
X1053709Y578426D01*
X1053650Y578457D01*
X1053596Y578465D01*
X1053559Y578477D01*
X1053519Y578476D01*
X1053465Y578484D01*
X1049655Y578484D01*
X1049590Y578473D01*
X1049524Y578471D01*
X1049481Y578453D01*
X1049434Y578445D01*
X1049377Y578411D01*
X1049317Y578386D01*
X1049282Y578355D01*
X1049241Y578330D01*
X1049200Y578279D01*
X1049151Y578235D01*
X1049129Y578193D01*
X1049100Y578156D01*
X1049079Y578094D01*
X1049048Y578035D01*
X1049040Y577981D01*
X1049028Y577944D01*
X1049028Y577941D01*
X1049029Y577904D01*
X1049021Y577850D01*
X1049021Y575310D01*
X1049032Y575245D01*
X1049034Y575179D01*
X1049052Y575136D01*
X1049060Y575089D01*
X1049094Y575032D01*
X1049119Y574972D01*
X1049150Y574937D01*
X1049175Y574896D01*
X1049226Y574855D01*
X1049270Y574806D01*
X1049312Y574784D01*
X1049349Y574755D01*
X1049411Y574734D01*
X1049470Y574703D01*
X1049524Y574695D01*
X1049561Y574683D01*
X1049601Y574684D01*
X1049655Y574676D01*
X1053465Y574676D01*
X1053530Y574687D01*
G37*
G36*
X1439610Y574687D02*
X1439610Y574687D01*
X1439676Y574689D01*
X1439719Y574707D01*
X1439766Y574715D01*
X1439823Y574749D01*
X1439883Y574774D01*
X1439918Y574805D01*
X1439959Y574830D01*
X1440001Y574881D01*
X1440049Y574925D01*
X1440071Y574967D01*
X1440100Y575004D01*
X1440121Y575066D01*
X1440152Y575125D01*
X1440160Y575179D01*
X1440172Y575216D01*
X1440171Y575256D01*
X1440179Y575310D01*
X1440179Y577850D01*
X1440168Y577915D01*
X1440166Y577981D01*
X1440148Y578024D01*
X1440140Y578071D01*
X1440106Y578128D01*
X1440081Y578188D01*
X1440050Y578223D01*
X1440025Y578264D01*
X1439974Y578306D01*
X1439930Y578354D01*
X1439888Y578376D01*
X1439851Y578405D01*
X1439789Y578426D01*
X1439730Y578457D01*
X1439676Y578465D01*
X1439639Y578477D01*
X1439599Y578476D01*
X1439545Y578484D01*
X1435735Y578484D01*
X1435670Y578473D01*
X1435604Y578471D01*
X1435561Y578453D01*
X1435514Y578445D01*
X1435457Y578411D01*
X1435397Y578386D01*
X1435362Y578355D01*
X1435321Y578330D01*
X1435280Y578279D01*
X1435231Y578235D01*
X1435209Y578193D01*
X1435180Y578156D01*
X1435159Y578094D01*
X1435128Y578035D01*
X1435120Y577981D01*
X1435108Y577944D01*
X1435108Y577941D01*
X1435109Y577904D01*
X1435101Y577850D01*
X1435101Y575310D01*
X1435112Y575245D01*
X1435114Y575179D01*
X1435132Y575136D01*
X1435140Y575089D01*
X1435174Y575032D01*
X1435199Y574972D01*
X1435230Y574937D01*
X1435255Y574896D01*
X1435306Y574855D01*
X1435350Y574806D01*
X1435392Y574784D01*
X1435429Y574755D01*
X1435491Y574734D01*
X1435550Y574703D01*
X1435604Y574695D01*
X1435641Y574683D01*
X1435681Y574684D01*
X1435735Y574676D01*
X1439545Y574676D01*
X1439610Y574687D01*
G37*
G36*
X667450Y574687D02*
X667450Y574687D01*
X667516Y574689D01*
X667559Y574707D01*
X667606Y574715D01*
X667663Y574749D01*
X667723Y574774D01*
X667758Y574805D01*
X667799Y574830D01*
X667841Y574881D01*
X667889Y574925D01*
X667911Y574967D01*
X667940Y575004D01*
X667961Y575066D01*
X667992Y575125D01*
X668000Y575179D01*
X668012Y575216D01*
X668011Y575256D01*
X668019Y575310D01*
X668019Y577850D01*
X668008Y577915D01*
X668006Y577981D01*
X667988Y578024D01*
X667980Y578071D01*
X667946Y578128D01*
X667921Y578188D01*
X667890Y578223D01*
X667865Y578264D01*
X667814Y578306D01*
X667770Y578354D01*
X667728Y578376D01*
X667691Y578405D01*
X667629Y578426D01*
X667570Y578457D01*
X667516Y578465D01*
X667479Y578477D01*
X667439Y578476D01*
X667385Y578484D01*
X663575Y578484D01*
X663510Y578473D01*
X663444Y578471D01*
X663401Y578453D01*
X663354Y578445D01*
X663297Y578411D01*
X663237Y578386D01*
X663202Y578355D01*
X663161Y578330D01*
X663120Y578279D01*
X663071Y578235D01*
X663049Y578193D01*
X663020Y578156D01*
X662999Y578094D01*
X662968Y578035D01*
X662960Y577981D01*
X662948Y577944D01*
X662948Y577941D01*
X662949Y577904D01*
X662941Y577850D01*
X662941Y575310D01*
X662952Y575245D01*
X662954Y575179D01*
X662972Y575136D01*
X662980Y575089D01*
X663014Y575032D01*
X663039Y574972D01*
X663070Y574937D01*
X663095Y574896D01*
X663146Y574855D01*
X663190Y574806D01*
X663232Y574784D01*
X663269Y574755D01*
X663331Y574734D01*
X663390Y574703D01*
X663444Y574695D01*
X663481Y574683D01*
X663521Y574684D01*
X663575Y574676D01*
X667385Y574676D01*
X667450Y574687D01*
G37*
G36*
X281370Y574687D02*
X281370Y574687D01*
X281436Y574689D01*
X281479Y574707D01*
X281526Y574715D01*
X281583Y574749D01*
X281643Y574774D01*
X281678Y574805D01*
X281719Y574830D01*
X281761Y574881D01*
X281809Y574925D01*
X281831Y574967D01*
X281860Y575004D01*
X281881Y575066D01*
X281912Y575125D01*
X281920Y575179D01*
X281932Y575216D01*
X281931Y575256D01*
X281939Y575310D01*
X281939Y577850D01*
X281928Y577915D01*
X281926Y577981D01*
X281908Y578024D01*
X281900Y578071D01*
X281866Y578128D01*
X281841Y578188D01*
X281810Y578223D01*
X281785Y578264D01*
X281734Y578306D01*
X281690Y578354D01*
X281648Y578376D01*
X281611Y578405D01*
X281549Y578426D01*
X281490Y578457D01*
X281436Y578465D01*
X281399Y578477D01*
X281359Y578476D01*
X281305Y578484D01*
X277495Y578484D01*
X277430Y578473D01*
X277364Y578471D01*
X277321Y578453D01*
X277274Y578445D01*
X277217Y578411D01*
X277157Y578386D01*
X277122Y578355D01*
X277081Y578330D01*
X277040Y578279D01*
X276991Y578235D01*
X276969Y578193D01*
X276940Y578156D01*
X276919Y578094D01*
X276888Y578035D01*
X276880Y577981D01*
X276868Y577944D01*
X276868Y577941D01*
X276869Y577904D01*
X276861Y577850D01*
X276861Y575310D01*
X276872Y575245D01*
X276874Y575179D01*
X276892Y575136D01*
X276900Y575089D01*
X276934Y575032D01*
X276959Y574972D01*
X276990Y574937D01*
X277015Y574896D01*
X277066Y574855D01*
X277110Y574806D01*
X277152Y574784D01*
X277189Y574755D01*
X277251Y574734D01*
X277310Y574703D01*
X277364Y574695D01*
X277401Y574683D01*
X277441Y574684D01*
X277495Y574676D01*
X281305Y574676D01*
X281370Y574687D01*
G37*
G36*
X667450Y549287D02*
X667450Y549287D01*
X667516Y549289D01*
X667559Y549307D01*
X667606Y549315D01*
X667663Y549349D01*
X667723Y549374D01*
X667758Y549405D01*
X667799Y549430D01*
X667841Y549481D01*
X667889Y549525D01*
X667911Y549567D01*
X667940Y549604D01*
X667961Y549666D01*
X667992Y549725D01*
X668000Y549779D01*
X668012Y549816D01*
X668011Y549856D01*
X668019Y549910D01*
X668019Y552450D01*
X668008Y552515D01*
X668006Y552581D01*
X667988Y552624D01*
X667980Y552671D01*
X667946Y552728D01*
X667921Y552788D01*
X667890Y552823D01*
X667865Y552864D01*
X667814Y552906D01*
X667770Y552954D01*
X667728Y552976D01*
X667691Y553005D01*
X667629Y553026D01*
X667570Y553057D01*
X667516Y553065D01*
X667479Y553077D01*
X667439Y553076D01*
X667385Y553084D01*
X663575Y553084D01*
X663510Y553073D01*
X663444Y553071D01*
X663401Y553053D01*
X663354Y553045D01*
X663297Y553011D01*
X663237Y552986D01*
X663202Y552955D01*
X663161Y552930D01*
X663120Y552879D01*
X663071Y552835D01*
X663049Y552793D01*
X663020Y552756D01*
X662999Y552694D01*
X662968Y552635D01*
X662960Y552581D01*
X662948Y552544D01*
X662948Y552541D01*
X662949Y552504D01*
X662941Y552450D01*
X662941Y549910D01*
X662952Y549845D01*
X662954Y549779D01*
X662972Y549736D01*
X662980Y549689D01*
X663014Y549632D01*
X663039Y549572D01*
X663070Y549537D01*
X663095Y549496D01*
X663146Y549455D01*
X663190Y549406D01*
X663232Y549384D01*
X663269Y549355D01*
X663331Y549334D01*
X663390Y549303D01*
X663444Y549295D01*
X663481Y549283D01*
X663521Y549284D01*
X663575Y549276D01*
X667385Y549276D01*
X667450Y549287D01*
G37*
G36*
X281370Y549287D02*
X281370Y549287D01*
X281436Y549289D01*
X281479Y549307D01*
X281526Y549315D01*
X281583Y549349D01*
X281643Y549374D01*
X281678Y549405D01*
X281719Y549430D01*
X281761Y549481D01*
X281809Y549525D01*
X281831Y549567D01*
X281860Y549604D01*
X281881Y549666D01*
X281912Y549725D01*
X281920Y549779D01*
X281932Y549816D01*
X281931Y549856D01*
X281939Y549910D01*
X281939Y552450D01*
X281928Y552515D01*
X281926Y552581D01*
X281908Y552624D01*
X281900Y552671D01*
X281866Y552728D01*
X281841Y552788D01*
X281810Y552823D01*
X281785Y552864D01*
X281734Y552906D01*
X281690Y552954D01*
X281648Y552976D01*
X281611Y553005D01*
X281549Y553026D01*
X281490Y553057D01*
X281436Y553065D01*
X281399Y553077D01*
X281359Y553076D01*
X281305Y553084D01*
X277495Y553084D01*
X277430Y553073D01*
X277364Y553071D01*
X277321Y553053D01*
X277274Y553045D01*
X277217Y553011D01*
X277157Y552986D01*
X277122Y552955D01*
X277081Y552930D01*
X277040Y552879D01*
X276991Y552835D01*
X276969Y552793D01*
X276940Y552756D01*
X276919Y552694D01*
X276888Y552635D01*
X276880Y552581D01*
X276868Y552544D01*
X276868Y552541D01*
X276869Y552504D01*
X276861Y552450D01*
X276861Y549910D01*
X276872Y549845D01*
X276874Y549779D01*
X276892Y549736D01*
X276900Y549689D01*
X276934Y549632D01*
X276959Y549572D01*
X276990Y549537D01*
X277015Y549496D01*
X277066Y549455D01*
X277110Y549406D01*
X277152Y549384D01*
X277189Y549355D01*
X277251Y549334D01*
X277310Y549303D01*
X277364Y549295D01*
X277401Y549283D01*
X277441Y549284D01*
X277495Y549276D01*
X281305Y549276D01*
X281370Y549287D01*
G37*
G36*
X1439610Y549287D02*
X1439610Y549287D01*
X1439676Y549289D01*
X1439719Y549307D01*
X1439766Y549315D01*
X1439823Y549349D01*
X1439883Y549374D01*
X1439918Y549405D01*
X1439959Y549430D01*
X1440001Y549481D01*
X1440049Y549525D01*
X1440071Y549567D01*
X1440100Y549604D01*
X1440121Y549666D01*
X1440152Y549725D01*
X1440160Y549779D01*
X1440172Y549816D01*
X1440171Y549856D01*
X1440179Y549910D01*
X1440179Y552450D01*
X1440168Y552515D01*
X1440166Y552581D01*
X1440148Y552624D01*
X1440140Y552671D01*
X1440106Y552728D01*
X1440081Y552788D01*
X1440050Y552823D01*
X1440025Y552864D01*
X1439974Y552906D01*
X1439930Y552954D01*
X1439888Y552976D01*
X1439851Y553005D01*
X1439789Y553026D01*
X1439730Y553057D01*
X1439676Y553065D01*
X1439639Y553077D01*
X1439599Y553076D01*
X1439545Y553084D01*
X1435735Y553084D01*
X1435670Y553073D01*
X1435604Y553071D01*
X1435561Y553053D01*
X1435514Y553045D01*
X1435457Y553011D01*
X1435397Y552986D01*
X1435362Y552955D01*
X1435321Y552930D01*
X1435280Y552879D01*
X1435231Y552835D01*
X1435209Y552793D01*
X1435180Y552756D01*
X1435159Y552694D01*
X1435128Y552635D01*
X1435120Y552581D01*
X1435108Y552544D01*
X1435108Y552541D01*
X1435109Y552504D01*
X1435101Y552450D01*
X1435101Y549910D01*
X1435112Y549845D01*
X1435114Y549779D01*
X1435132Y549736D01*
X1435140Y549689D01*
X1435174Y549632D01*
X1435199Y549572D01*
X1435230Y549537D01*
X1435255Y549496D01*
X1435306Y549455D01*
X1435350Y549406D01*
X1435392Y549384D01*
X1435429Y549355D01*
X1435491Y549334D01*
X1435550Y549303D01*
X1435604Y549295D01*
X1435641Y549283D01*
X1435681Y549284D01*
X1435735Y549276D01*
X1439545Y549276D01*
X1439610Y549287D01*
G37*
G36*
X1053530Y549287D02*
X1053530Y549287D01*
X1053596Y549289D01*
X1053639Y549307D01*
X1053686Y549315D01*
X1053743Y549349D01*
X1053803Y549374D01*
X1053838Y549405D01*
X1053879Y549430D01*
X1053921Y549481D01*
X1053969Y549525D01*
X1053991Y549567D01*
X1054020Y549604D01*
X1054041Y549666D01*
X1054072Y549725D01*
X1054080Y549779D01*
X1054092Y549816D01*
X1054091Y549856D01*
X1054099Y549910D01*
X1054099Y552450D01*
X1054088Y552515D01*
X1054086Y552581D01*
X1054068Y552624D01*
X1054060Y552671D01*
X1054026Y552728D01*
X1054001Y552788D01*
X1053970Y552823D01*
X1053945Y552864D01*
X1053894Y552906D01*
X1053850Y552954D01*
X1053808Y552976D01*
X1053771Y553005D01*
X1053709Y553026D01*
X1053650Y553057D01*
X1053596Y553065D01*
X1053559Y553077D01*
X1053519Y553076D01*
X1053465Y553084D01*
X1049655Y553084D01*
X1049590Y553073D01*
X1049524Y553071D01*
X1049481Y553053D01*
X1049434Y553045D01*
X1049377Y553011D01*
X1049317Y552986D01*
X1049282Y552955D01*
X1049241Y552930D01*
X1049200Y552879D01*
X1049151Y552835D01*
X1049129Y552793D01*
X1049100Y552756D01*
X1049079Y552694D01*
X1049048Y552635D01*
X1049040Y552581D01*
X1049028Y552544D01*
X1049028Y552541D01*
X1049029Y552504D01*
X1049021Y552450D01*
X1049021Y549910D01*
X1049032Y549845D01*
X1049034Y549779D01*
X1049052Y549736D01*
X1049060Y549689D01*
X1049094Y549632D01*
X1049119Y549572D01*
X1049150Y549537D01*
X1049175Y549496D01*
X1049226Y549455D01*
X1049270Y549406D01*
X1049312Y549384D01*
X1049349Y549355D01*
X1049411Y549334D01*
X1049470Y549303D01*
X1049524Y549295D01*
X1049561Y549283D01*
X1049601Y549284D01*
X1049655Y549276D01*
X1053465Y549276D01*
X1053530Y549287D01*
G37*
G36*
X52770Y460387D02*
X52770Y460387D01*
X52836Y460389D01*
X52879Y460407D01*
X52926Y460415D01*
X52983Y460449D01*
X53043Y460474D01*
X53078Y460505D01*
X53119Y460530D01*
X53161Y460581D01*
X53209Y460625D01*
X53231Y460667D01*
X53260Y460704D01*
X53281Y460766D01*
X53312Y460825D01*
X53320Y460879D01*
X53332Y460916D01*
X53331Y460956D01*
X53339Y461010D01*
X53339Y463550D01*
X53328Y463615D01*
X53326Y463681D01*
X53308Y463724D01*
X53300Y463771D01*
X53266Y463828D01*
X53241Y463888D01*
X53210Y463923D01*
X53185Y463964D01*
X53134Y464006D01*
X53090Y464054D01*
X53048Y464076D01*
X53011Y464105D01*
X52949Y464126D01*
X52890Y464157D01*
X52836Y464165D01*
X52799Y464177D01*
X52759Y464176D01*
X52705Y464184D01*
X48895Y464184D01*
X48830Y464173D01*
X48764Y464171D01*
X48721Y464153D01*
X48674Y464145D01*
X48617Y464111D01*
X48557Y464086D01*
X48522Y464055D01*
X48481Y464030D01*
X48440Y463979D01*
X48391Y463935D01*
X48369Y463893D01*
X48340Y463856D01*
X48319Y463794D01*
X48288Y463735D01*
X48280Y463681D01*
X48268Y463644D01*
X48268Y463641D01*
X48269Y463604D01*
X48261Y463550D01*
X48261Y461010D01*
X48272Y460945D01*
X48274Y460879D01*
X48292Y460836D01*
X48300Y460789D01*
X48334Y460732D01*
X48359Y460672D01*
X48390Y460637D01*
X48415Y460596D01*
X48466Y460555D01*
X48510Y460506D01*
X48552Y460484D01*
X48589Y460455D01*
X48651Y460434D01*
X48710Y460403D01*
X48764Y460395D01*
X48801Y460383D01*
X48841Y460384D01*
X48895Y460376D01*
X52705Y460376D01*
X52770Y460387D01*
G37*
G36*
X824930Y460387D02*
X824930Y460387D01*
X824996Y460389D01*
X825039Y460407D01*
X825086Y460415D01*
X825143Y460449D01*
X825203Y460474D01*
X825238Y460505D01*
X825279Y460530D01*
X825321Y460581D01*
X825369Y460625D01*
X825391Y460667D01*
X825420Y460704D01*
X825441Y460766D01*
X825472Y460825D01*
X825480Y460879D01*
X825492Y460916D01*
X825491Y460956D01*
X825499Y461010D01*
X825499Y463550D01*
X825488Y463615D01*
X825486Y463681D01*
X825468Y463724D01*
X825460Y463771D01*
X825426Y463828D01*
X825401Y463888D01*
X825370Y463923D01*
X825345Y463964D01*
X825294Y464006D01*
X825250Y464054D01*
X825208Y464076D01*
X825171Y464105D01*
X825109Y464126D01*
X825050Y464157D01*
X824996Y464165D01*
X824959Y464177D01*
X824919Y464176D01*
X824865Y464184D01*
X821055Y464184D01*
X820990Y464173D01*
X820924Y464171D01*
X820881Y464153D01*
X820834Y464145D01*
X820777Y464111D01*
X820717Y464086D01*
X820682Y464055D01*
X820641Y464030D01*
X820600Y463979D01*
X820551Y463935D01*
X820529Y463893D01*
X820500Y463856D01*
X820479Y463794D01*
X820448Y463735D01*
X820440Y463681D01*
X820428Y463644D01*
X820428Y463641D01*
X820429Y463604D01*
X820421Y463550D01*
X820421Y461010D01*
X820432Y460945D01*
X820434Y460879D01*
X820452Y460836D01*
X820460Y460789D01*
X820494Y460732D01*
X820519Y460672D01*
X820550Y460637D01*
X820575Y460596D01*
X820626Y460555D01*
X820670Y460506D01*
X820712Y460484D01*
X820749Y460455D01*
X820811Y460434D01*
X820870Y460403D01*
X820924Y460395D01*
X820961Y460383D01*
X821001Y460384D01*
X821055Y460376D01*
X824865Y460376D01*
X824930Y460387D01*
G37*
G36*
X438850Y460387D02*
X438850Y460387D01*
X438916Y460389D01*
X438959Y460407D01*
X439006Y460415D01*
X439063Y460449D01*
X439123Y460474D01*
X439158Y460505D01*
X439199Y460530D01*
X439241Y460581D01*
X439289Y460625D01*
X439311Y460667D01*
X439340Y460704D01*
X439361Y460766D01*
X439392Y460825D01*
X439400Y460879D01*
X439412Y460916D01*
X439411Y460956D01*
X439419Y461010D01*
X439419Y463550D01*
X439408Y463615D01*
X439406Y463681D01*
X439388Y463724D01*
X439380Y463771D01*
X439346Y463828D01*
X439321Y463888D01*
X439290Y463923D01*
X439265Y463964D01*
X439214Y464006D01*
X439170Y464054D01*
X439128Y464076D01*
X439091Y464105D01*
X439029Y464126D01*
X438970Y464157D01*
X438916Y464165D01*
X438879Y464177D01*
X438839Y464176D01*
X438785Y464184D01*
X434975Y464184D01*
X434910Y464173D01*
X434844Y464171D01*
X434801Y464153D01*
X434754Y464145D01*
X434697Y464111D01*
X434637Y464086D01*
X434602Y464055D01*
X434561Y464030D01*
X434520Y463979D01*
X434471Y463935D01*
X434449Y463893D01*
X434420Y463856D01*
X434399Y463794D01*
X434368Y463735D01*
X434360Y463681D01*
X434348Y463644D01*
X434348Y463641D01*
X434349Y463604D01*
X434341Y463550D01*
X434341Y461010D01*
X434352Y460945D01*
X434354Y460879D01*
X434372Y460836D01*
X434380Y460789D01*
X434414Y460732D01*
X434439Y460672D01*
X434470Y460637D01*
X434495Y460596D01*
X434546Y460555D01*
X434590Y460506D01*
X434632Y460484D01*
X434669Y460455D01*
X434731Y460434D01*
X434790Y460403D01*
X434844Y460395D01*
X434881Y460383D01*
X434921Y460384D01*
X434975Y460376D01*
X438785Y460376D01*
X438850Y460387D01*
G37*
G36*
X1211010Y460387D02*
X1211010Y460387D01*
X1211076Y460389D01*
X1211119Y460407D01*
X1211166Y460415D01*
X1211223Y460449D01*
X1211283Y460474D01*
X1211318Y460505D01*
X1211359Y460530D01*
X1211401Y460581D01*
X1211449Y460625D01*
X1211471Y460667D01*
X1211500Y460704D01*
X1211521Y460766D01*
X1211552Y460825D01*
X1211560Y460879D01*
X1211572Y460916D01*
X1211571Y460956D01*
X1211579Y461010D01*
X1211579Y463550D01*
X1211568Y463615D01*
X1211566Y463681D01*
X1211548Y463724D01*
X1211540Y463771D01*
X1211506Y463828D01*
X1211481Y463888D01*
X1211450Y463923D01*
X1211425Y463964D01*
X1211374Y464006D01*
X1211330Y464054D01*
X1211288Y464076D01*
X1211251Y464105D01*
X1211189Y464126D01*
X1211130Y464157D01*
X1211076Y464165D01*
X1211039Y464177D01*
X1210999Y464176D01*
X1210945Y464184D01*
X1207135Y464184D01*
X1207070Y464173D01*
X1207004Y464171D01*
X1206961Y464153D01*
X1206914Y464145D01*
X1206857Y464111D01*
X1206797Y464086D01*
X1206762Y464055D01*
X1206721Y464030D01*
X1206680Y463979D01*
X1206631Y463935D01*
X1206609Y463893D01*
X1206580Y463856D01*
X1206559Y463794D01*
X1206528Y463735D01*
X1206520Y463681D01*
X1206508Y463644D01*
X1206508Y463641D01*
X1206509Y463604D01*
X1206501Y463550D01*
X1206501Y461010D01*
X1206512Y460945D01*
X1206514Y460879D01*
X1206532Y460836D01*
X1206540Y460789D01*
X1206574Y460732D01*
X1206599Y460672D01*
X1206630Y460637D01*
X1206655Y460596D01*
X1206706Y460555D01*
X1206750Y460506D01*
X1206792Y460484D01*
X1206829Y460455D01*
X1206891Y460434D01*
X1206950Y460403D01*
X1207004Y460395D01*
X1207041Y460383D01*
X1207081Y460384D01*
X1207135Y460376D01*
X1210945Y460376D01*
X1211010Y460387D01*
G37*
G36*
X1203390Y290207D02*
X1203390Y290207D01*
X1203456Y290209D01*
X1203499Y290227D01*
X1203546Y290235D01*
X1203603Y290269D01*
X1203663Y290294D01*
X1203698Y290325D01*
X1203739Y290350D01*
X1203781Y290401D01*
X1203829Y290445D01*
X1203851Y290487D01*
X1203880Y290524D01*
X1203901Y290586D01*
X1203932Y290645D01*
X1203940Y290699D01*
X1203952Y290736D01*
X1203951Y290776D01*
X1203959Y290830D01*
X1203959Y293370D01*
X1203948Y293435D01*
X1203946Y293501D01*
X1203928Y293544D01*
X1203920Y293591D01*
X1203886Y293648D01*
X1203861Y293708D01*
X1203830Y293743D01*
X1203805Y293784D01*
X1203754Y293826D01*
X1203710Y293874D01*
X1203668Y293896D01*
X1203631Y293925D01*
X1203569Y293946D01*
X1203510Y293977D01*
X1203456Y293985D01*
X1203419Y293997D01*
X1203379Y293996D01*
X1203325Y294004D01*
X1199515Y294004D01*
X1199450Y293993D01*
X1199384Y293991D01*
X1199341Y293973D01*
X1199294Y293965D01*
X1199237Y293931D01*
X1199177Y293906D01*
X1199142Y293875D01*
X1199101Y293850D01*
X1199060Y293799D01*
X1199011Y293755D01*
X1198989Y293713D01*
X1198960Y293676D01*
X1198939Y293614D01*
X1198908Y293555D01*
X1198900Y293501D01*
X1198888Y293464D01*
X1198888Y293461D01*
X1198889Y293424D01*
X1198881Y293370D01*
X1198881Y290830D01*
X1198892Y290765D01*
X1198894Y290699D01*
X1198912Y290656D01*
X1198920Y290609D01*
X1198954Y290552D01*
X1198979Y290492D01*
X1199010Y290457D01*
X1199035Y290416D01*
X1199086Y290375D01*
X1199130Y290326D01*
X1199172Y290304D01*
X1199209Y290275D01*
X1199271Y290254D01*
X1199330Y290223D01*
X1199384Y290215D01*
X1199421Y290203D01*
X1199461Y290204D01*
X1199515Y290196D01*
X1203325Y290196D01*
X1203390Y290207D01*
G37*
G36*
X431230Y290207D02*
X431230Y290207D01*
X431296Y290209D01*
X431339Y290227D01*
X431386Y290235D01*
X431443Y290269D01*
X431503Y290294D01*
X431538Y290325D01*
X431579Y290350D01*
X431621Y290401D01*
X431669Y290445D01*
X431691Y290487D01*
X431720Y290524D01*
X431741Y290586D01*
X431772Y290645D01*
X431780Y290699D01*
X431792Y290736D01*
X431791Y290776D01*
X431799Y290830D01*
X431799Y293370D01*
X431788Y293435D01*
X431786Y293501D01*
X431768Y293544D01*
X431760Y293591D01*
X431726Y293648D01*
X431701Y293708D01*
X431670Y293743D01*
X431645Y293784D01*
X431594Y293826D01*
X431550Y293874D01*
X431508Y293896D01*
X431471Y293925D01*
X431409Y293946D01*
X431350Y293977D01*
X431296Y293985D01*
X431259Y293997D01*
X431219Y293996D01*
X431165Y294004D01*
X427355Y294004D01*
X427290Y293993D01*
X427224Y293991D01*
X427181Y293973D01*
X427134Y293965D01*
X427077Y293931D01*
X427017Y293906D01*
X426982Y293875D01*
X426941Y293850D01*
X426900Y293799D01*
X426851Y293755D01*
X426829Y293713D01*
X426800Y293676D01*
X426779Y293614D01*
X426748Y293555D01*
X426740Y293501D01*
X426728Y293464D01*
X426728Y293461D01*
X426729Y293424D01*
X426721Y293370D01*
X426721Y290830D01*
X426732Y290765D01*
X426734Y290699D01*
X426752Y290656D01*
X426760Y290609D01*
X426794Y290552D01*
X426819Y290492D01*
X426850Y290457D01*
X426875Y290416D01*
X426926Y290375D01*
X426970Y290326D01*
X427012Y290304D01*
X427049Y290275D01*
X427111Y290254D01*
X427170Y290223D01*
X427224Y290215D01*
X427261Y290203D01*
X427301Y290204D01*
X427355Y290196D01*
X431165Y290196D01*
X431230Y290207D01*
G37*
G36*
X817310Y290207D02*
X817310Y290207D01*
X817376Y290209D01*
X817419Y290227D01*
X817466Y290235D01*
X817523Y290269D01*
X817583Y290294D01*
X817618Y290325D01*
X817659Y290350D01*
X817701Y290401D01*
X817749Y290445D01*
X817771Y290487D01*
X817800Y290524D01*
X817821Y290586D01*
X817852Y290645D01*
X817860Y290699D01*
X817872Y290736D01*
X817871Y290776D01*
X817879Y290830D01*
X817879Y293370D01*
X817868Y293435D01*
X817866Y293501D01*
X817848Y293544D01*
X817840Y293591D01*
X817806Y293648D01*
X817781Y293708D01*
X817750Y293743D01*
X817725Y293784D01*
X817674Y293826D01*
X817630Y293874D01*
X817588Y293896D01*
X817551Y293925D01*
X817489Y293946D01*
X817430Y293977D01*
X817376Y293985D01*
X817339Y293997D01*
X817299Y293996D01*
X817245Y294004D01*
X813435Y294004D01*
X813370Y293993D01*
X813304Y293991D01*
X813261Y293973D01*
X813214Y293965D01*
X813157Y293931D01*
X813097Y293906D01*
X813062Y293875D01*
X813021Y293850D01*
X812980Y293799D01*
X812931Y293755D01*
X812909Y293713D01*
X812880Y293676D01*
X812859Y293614D01*
X812828Y293555D01*
X812820Y293501D01*
X812808Y293464D01*
X812808Y293461D01*
X812809Y293424D01*
X812801Y293370D01*
X812801Y290830D01*
X812812Y290765D01*
X812814Y290699D01*
X812832Y290656D01*
X812840Y290609D01*
X812874Y290552D01*
X812899Y290492D01*
X812930Y290457D01*
X812955Y290416D01*
X813006Y290375D01*
X813050Y290326D01*
X813092Y290304D01*
X813129Y290275D01*
X813191Y290254D01*
X813250Y290223D01*
X813304Y290215D01*
X813341Y290203D01*
X813381Y290204D01*
X813435Y290196D01*
X817245Y290196D01*
X817310Y290207D01*
G37*
G36*
X45150Y290207D02*
X45150Y290207D01*
X45216Y290209D01*
X45259Y290227D01*
X45306Y290235D01*
X45363Y290269D01*
X45423Y290294D01*
X45458Y290325D01*
X45499Y290350D01*
X45541Y290401D01*
X45589Y290445D01*
X45611Y290487D01*
X45640Y290524D01*
X45661Y290586D01*
X45692Y290645D01*
X45700Y290699D01*
X45712Y290736D01*
X45711Y290776D01*
X45719Y290830D01*
X45719Y293370D01*
X45708Y293435D01*
X45706Y293501D01*
X45688Y293544D01*
X45680Y293591D01*
X45646Y293648D01*
X45621Y293708D01*
X45590Y293743D01*
X45565Y293784D01*
X45514Y293826D01*
X45470Y293874D01*
X45428Y293896D01*
X45391Y293925D01*
X45329Y293946D01*
X45270Y293977D01*
X45216Y293985D01*
X45179Y293997D01*
X45139Y293996D01*
X45085Y294004D01*
X41275Y294004D01*
X41210Y293993D01*
X41144Y293991D01*
X41101Y293973D01*
X41054Y293965D01*
X40997Y293931D01*
X40937Y293906D01*
X40902Y293875D01*
X40861Y293850D01*
X40820Y293799D01*
X40771Y293755D01*
X40749Y293713D01*
X40720Y293676D01*
X40699Y293614D01*
X40668Y293555D01*
X40660Y293501D01*
X40648Y293464D01*
X40648Y293461D01*
X40649Y293424D01*
X40641Y293370D01*
X40641Y290830D01*
X40652Y290765D01*
X40654Y290699D01*
X40672Y290656D01*
X40680Y290609D01*
X40714Y290552D01*
X40739Y290492D01*
X40770Y290457D01*
X40795Y290416D01*
X40846Y290375D01*
X40890Y290326D01*
X40932Y290304D01*
X40969Y290275D01*
X41031Y290254D01*
X41090Y290223D01*
X41144Y290215D01*
X41181Y290203D01*
X41221Y290204D01*
X41275Y290196D01*
X45085Y290196D01*
X45150Y290207D01*
G37*
G36*
X1193230Y290207D02*
X1193230Y290207D01*
X1193296Y290209D01*
X1193339Y290227D01*
X1193386Y290235D01*
X1193443Y290269D01*
X1193503Y290294D01*
X1193538Y290325D01*
X1193579Y290350D01*
X1193621Y290401D01*
X1193669Y290445D01*
X1193691Y290487D01*
X1193720Y290524D01*
X1193741Y290586D01*
X1193772Y290645D01*
X1193780Y290699D01*
X1193792Y290736D01*
X1193791Y290776D01*
X1193799Y290830D01*
X1193799Y293370D01*
X1193788Y293435D01*
X1193786Y293501D01*
X1193768Y293544D01*
X1193760Y293591D01*
X1193726Y293648D01*
X1193701Y293708D01*
X1193670Y293743D01*
X1193645Y293784D01*
X1193594Y293826D01*
X1193550Y293874D01*
X1193508Y293896D01*
X1193471Y293925D01*
X1193409Y293946D01*
X1193350Y293977D01*
X1193296Y293985D01*
X1193259Y293997D01*
X1193219Y293996D01*
X1193165Y294004D01*
X1189355Y294004D01*
X1189290Y293993D01*
X1189224Y293991D01*
X1189181Y293973D01*
X1189134Y293965D01*
X1189077Y293931D01*
X1189017Y293906D01*
X1188982Y293875D01*
X1188941Y293850D01*
X1188900Y293799D01*
X1188851Y293755D01*
X1188829Y293713D01*
X1188800Y293676D01*
X1188779Y293614D01*
X1188748Y293555D01*
X1188740Y293501D01*
X1188728Y293464D01*
X1188728Y293461D01*
X1188729Y293424D01*
X1188721Y293370D01*
X1188721Y290830D01*
X1188732Y290765D01*
X1188734Y290699D01*
X1188752Y290656D01*
X1188760Y290609D01*
X1188794Y290552D01*
X1188819Y290492D01*
X1188850Y290457D01*
X1188875Y290416D01*
X1188926Y290375D01*
X1188970Y290326D01*
X1189012Y290304D01*
X1189049Y290275D01*
X1189111Y290254D01*
X1189170Y290223D01*
X1189224Y290215D01*
X1189261Y290203D01*
X1189301Y290204D01*
X1189355Y290196D01*
X1193165Y290196D01*
X1193230Y290207D01*
G37*
G36*
X34990Y290207D02*
X34990Y290207D01*
X35056Y290209D01*
X35099Y290227D01*
X35146Y290235D01*
X35203Y290269D01*
X35263Y290294D01*
X35298Y290325D01*
X35339Y290350D01*
X35381Y290401D01*
X35429Y290445D01*
X35451Y290487D01*
X35480Y290524D01*
X35501Y290586D01*
X35532Y290645D01*
X35540Y290699D01*
X35552Y290736D01*
X35551Y290776D01*
X35559Y290830D01*
X35559Y293370D01*
X35548Y293435D01*
X35546Y293501D01*
X35528Y293544D01*
X35520Y293591D01*
X35486Y293648D01*
X35461Y293708D01*
X35430Y293743D01*
X35405Y293784D01*
X35354Y293826D01*
X35310Y293874D01*
X35268Y293896D01*
X35231Y293925D01*
X35169Y293946D01*
X35110Y293977D01*
X35056Y293985D01*
X35019Y293997D01*
X34979Y293996D01*
X34925Y294004D01*
X31115Y294004D01*
X31050Y293993D01*
X30984Y293991D01*
X30941Y293973D01*
X30894Y293965D01*
X30837Y293931D01*
X30777Y293906D01*
X30742Y293875D01*
X30701Y293850D01*
X30660Y293799D01*
X30611Y293755D01*
X30589Y293713D01*
X30560Y293676D01*
X30539Y293614D01*
X30508Y293555D01*
X30500Y293501D01*
X30488Y293464D01*
X30488Y293461D01*
X30489Y293424D01*
X30481Y293370D01*
X30481Y290830D01*
X30492Y290765D01*
X30494Y290699D01*
X30512Y290656D01*
X30520Y290609D01*
X30554Y290552D01*
X30579Y290492D01*
X30610Y290457D01*
X30635Y290416D01*
X30686Y290375D01*
X30730Y290326D01*
X30772Y290304D01*
X30809Y290275D01*
X30871Y290254D01*
X30930Y290223D01*
X30984Y290215D01*
X31021Y290203D01*
X31061Y290204D01*
X31115Y290196D01*
X34925Y290196D01*
X34990Y290207D01*
G37*
G36*
X807150Y290207D02*
X807150Y290207D01*
X807216Y290209D01*
X807259Y290227D01*
X807306Y290235D01*
X807363Y290269D01*
X807423Y290294D01*
X807458Y290325D01*
X807499Y290350D01*
X807541Y290401D01*
X807589Y290445D01*
X807611Y290487D01*
X807640Y290524D01*
X807661Y290586D01*
X807692Y290645D01*
X807700Y290699D01*
X807712Y290736D01*
X807711Y290776D01*
X807719Y290830D01*
X807719Y293370D01*
X807708Y293435D01*
X807706Y293501D01*
X807688Y293544D01*
X807680Y293591D01*
X807646Y293648D01*
X807621Y293708D01*
X807590Y293743D01*
X807565Y293784D01*
X807514Y293826D01*
X807470Y293874D01*
X807428Y293896D01*
X807391Y293925D01*
X807329Y293946D01*
X807270Y293977D01*
X807216Y293985D01*
X807179Y293997D01*
X807139Y293996D01*
X807085Y294004D01*
X803275Y294004D01*
X803210Y293993D01*
X803144Y293991D01*
X803101Y293973D01*
X803054Y293965D01*
X802997Y293931D01*
X802937Y293906D01*
X802902Y293875D01*
X802861Y293850D01*
X802820Y293799D01*
X802771Y293755D01*
X802749Y293713D01*
X802720Y293676D01*
X802699Y293614D01*
X802668Y293555D01*
X802660Y293501D01*
X802648Y293464D01*
X802648Y293461D01*
X802649Y293424D01*
X802641Y293370D01*
X802641Y290830D01*
X802652Y290765D01*
X802654Y290699D01*
X802672Y290656D01*
X802680Y290609D01*
X802714Y290552D01*
X802739Y290492D01*
X802770Y290457D01*
X802795Y290416D01*
X802846Y290375D01*
X802890Y290326D01*
X802932Y290304D01*
X802969Y290275D01*
X803031Y290254D01*
X803090Y290223D01*
X803144Y290215D01*
X803181Y290203D01*
X803221Y290204D01*
X803275Y290196D01*
X807085Y290196D01*
X807150Y290207D01*
G37*
G36*
X421070Y290207D02*
X421070Y290207D01*
X421136Y290209D01*
X421179Y290227D01*
X421226Y290235D01*
X421283Y290269D01*
X421343Y290294D01*
X421378Y290325D01*
X421419Y290350D01*
X421461Y290401D01*
X421509Y290445D01*
X421531Y290487D01*
X421560Y290524D01*
X421581Y290586D01*
X421612Y290645D01*
X421620Y290699D01*
X421632Y290736D01*
X421631Y290776D01*
X421639Y290830D01*
X421639Y293370D01*
X421628Y293435D01*
X421626Y293501D01*
X421608Y293544D01*
X421600Y293591D01*
X421566Y293648D01*
X421541Y293708D01*
X421510Y293743D01*
X421485Y293784D01*
X421434Y293826D01*
X421390Y293874D01*
X421348Y293896D01*
X421311Y293925D01*
X421249Y293946D01*
X421190Y293977D01*
X421136Y293985D01*
X421099Y293997D01*
X421059Y293996D01*
X421005Y294004D01*
X417195Y294004D01*
X417130Y293993D01*
X417064Y293991D01*
X417021Y293973D01*
X416974Y293965D01*
X416917Y293931D01*
X416857Y293906D01*
X416822Y293875D01*
X416781Y293850D01*
X416740Y293799D01*
X416691Y293755D01*
X416669Y293713D01*
X416640Y293676D01*
X416619Y293614D01*
X416588Y293555D01*
X416580Y293501D01*
X416568Y293464D01*
X416568Y293461D01*
X416569Y293424D01*
X416561Y293370D01*
X416561Y290830D01*
X416572Y290765D01*
X416574Y290699D01*
X416592Y290656D01*
X416600Y290609D01*
X416634Y290552D01*
X416659Y290492D01*
X416690Y290457D01*
X416715Y290416D01*
X416766Y290375D01*
X416810Y290326D01*
X416852Y290304D01*
X416889Y290275D01*
X416951Y290254D01*
X417010Y290223D01*
X417064Y290215D01*
X417101Y290203D01*
X417141Y290204D01*
X417195Y290196D01*
X421005Y290196D01*
X421070Y290207D01*
G37*
G36*
X421070Y1448447D02*
X421070Y1448447D01*
X421136Y1448449D01*
X421179Y1448467D01*
X421226Y1448475D01*
X421283Y1448509D01*
X421343Y1448534D01*
X421378Y1448565D01*
X421419Y1448590D01*
X421461Y1448641D01*
X421509Y1448685D01*
X421531Y1448727D01*
X421560Y1448764D01*
X421581Y1448826D01*
X421612Y1448885D01*
X421620Y1448939D01*
X421632Y1448976D01*
X421631Y1449016D01*
X421639Y1449070D01*
X421639Y1451610D01*
X421628Y1451675D01*
X421626Y1451741D01*
X421608Y1451784D01*
X421600Y1451831D01*
X421566Y1451888D01*
X421541Y1451948D01*
X421510Y1451983D01*
X421485Y1452024D01*
X421434Y1452066D01*
X421390Y1452114D01*
X421348Y1452136D01*
X421311Y1452165D01*
X421249Y1452186D01*
X421190Y1452217D01*
X421136Y1452225D01*
X421099Y1452237D01*
X421059Y1452236D01*
X421005Y1452244D01*
X417195Y1452244D01*
X417130Y1452233D01*
X417064Y1452231D01*
X417021Y1452213D01*
X416974Y1452205D01*
X416917Y1452171D01*
X416857Y1452146D01*
X416822Y1452115D01*
X416781Y1452090D01*
X416740Y1452039D01*
X416691Y1451995D01*
X416669Y1451953D01*
X416640Y1451916D01*
X416619Y1451854D01*
X416588Y1451795D01*
X416580Y1451741D01*
X416568Y1451704D01*
X416568Y1451701D01*
X416569Y1451664D01*
X416561Y1451610D01*
X416561Y1449070D01*
X416572Y1449005D01*
X416574Y1448939D01*
X416592Y1448896D01*
X416600Y1448849D01*
X416634Y1448792D01*
X416659Y1448732D01*
X416690Y1448697D01*
X416715Y1448656D01*
X416766Y1448615D01*
X416810Y1448566D01*
X416852Y1448544D01*
X416889Y1448515D01*
X416951Y1448494D01*
X417010Y1448463D01*
X417064Y1448455D01*
X417101Y1448443D01*
X417141Y1448444D01*
X417195Y1448436D01*
X421005Y1448436D01*
X421070Y1448447D01*
G37*
G36*
X45150Y1448447D02*
X45150Y1448447D01*
X45216Y1448449D01*
X45259Y1448467D01*
X45306Y1448475D01*
X45363Y1448509D01*
X45423Y1448534D01*
X45458Y1448565D01*
X45499Y1448590D01*
X45541Y1448641D01*
X45589Y1448685D01*
X45611Y1448727D01*
X45640Y1448764D01*
X45661Y1448826D01*
X45692Y1448885D01*
X45700Y1448939D01*
X45712Y1448976D01*
X45711Y1449016D01*
X45719Y1449070D01*
X45719Y1451610D01*
X45708Y1451675D01*
X45706Y1451741D01*
X45688Y1451784D01*
X45680Y1451831D01*
X45646Y1451888D01*
X45621Y1451948D01*
X45590Y1451983D01*
X45565Y1452024D01*
X45514Y1452066D01*
X45470Y1452114D01*
X45428Y1452136D01*
X45391Y1452165D01*
X45329Y1452186D01*
X45270Y1452217D01*
X45216Y1452225D01*
X45179Y1452237D01*
X45139Y1452236D01*
X45085Y1452244D01*
X41275Y1452244D01*
X41210Y1452233D01*
X41144Y1452231D01*
X41101Y1452213D01*
X41054Y1452205D01*
X40997Y1452171D01*
X40937Y1452146D01*
X40902Y1452115D01*
X40861Y1452090D01*
X40820Y1452039D01*
X40771Y1451995D01*
X40749Y1451953D01*
X40720Y1451916D01*
X40699Y1451854D01*
X40668Y1451795D01*
X40660Y1451741D01*
X40648Y1451704D01*
X40648Y1451701D01*
X40649Y1451664D01*
X40641Y1451610D01*
X40641Y1449070D01*
X40652Y1449005D01*
X40654Y1448939D01*
X40672Y1448896D01*
X40680Y1448849D01*
X40714Y1448792D01*
X40739Y1448732D01*
X40770Y1448697D01*
X40795Y1448656D01*
X40846Y1448615D01*
X40890Y1448566D01*
X40932Y1448544D01*
X40969Y1448515D01*
X41031Y1448494D01*
X41090Y1448463D01*
X41144Y1448455D01*
X41181Y1448443D01*
X41221Y1448444D01*
X41275Y1448436D01*
X45085Y1448436D01*
X45150Y1448447D01*
G37*
G36*
X34990Y1448447D02*
X34990Y1448447D01*
X35056Y1448449D01*
X35099Y1448467D01*
X35146Y1448475D01*
X35203Y1448509D01*
X35263Y1448534D01*
X35298Y1448565D01*
X35339Y1448590D01*
X35381Y1448641D01*
X35429Y1448685D01*
X35451Y1448727D01*
X35480Y1448764D01*
X35501Y1448826D01*
X35532Y1448885D01*
X35540Y1448939D01*
X35552Y1448976D01*
X35551Y1449016D01*
X35559Y1449070D01*
X35559Y1451610D01*
X35548Y1451675D01*
X35546Y1451741D01*
X35528Y1451784D01*
X35520Y1451831D01*
X35486Y1451888D01*
X35461Y1451948D01*
X35430Y1451983D01*
X35405Y1452024D01*
X35354Y1452066D01*
X35310Y1452114D01*
X35268Y1452136D01*
X35231Y1452165D01*
X35169Y1452186D01*
X35110Y1452217D01*
X35056Y1452225D01*
X35019Y1452237D01*
X34979Y1452236D01*
X34925Y1452244D01*
X31115Y1452244D01*
X31050Y1452233D01*
X30984Y1452231D01*
X30941Y1452213D01*
X30894Y1452205D01*
X30837Y1452171D01*
X30777Y1452146D01*
X30742Y1452115D01*
X30701Y1452090D01*
X30660Y1452039D01*
X30611Y1451995D01*
X30589Y1451953D01*
X30560Y1451916D01*
X30539Y1451854D01*
X30508Y1451795D01*
X30500Y1451741D01*
X30488Y1451704D01*
X30488Y1451701D01*
X30489Y1451664D01*
X30481Y1451610D01*
X30481Y1449070D01*
X30492Y1449005D01*
X30494Y1448939D01*
X30512Y1448896D01*
X30520Y1448849D01*
X30554Y1448792D01*
X30579Y1448732D01*
X30610Y1448697D01*
X30635Y1448656D01*
X30686Y1448615D01*
X30730Y1448566D01*
X30772Y1448544D01*
X30809Y1448515D01*
X30871Y1448494D01*
X30930Y1448463D01*
X30984Y1448455D01*
X31021Y1448443D01*
X31061Y1448444D01*
X31115Y1448436D01*
X34925Y1448436D01*
X34990Y1448447D01*
G37*
G36*
X431230Y1448447D02*
X431230Y1448447D01*
X431296Y1448449D01*
X431339Y1448467D01*
X431386Y1448475D01*
X431443Y1448509D01*
X431503Y1448534D01*
X431538Y1448565D01*
X431579Y1448590D01*
X431621Y1448641D01*
X431669Y1448685D01*
X431691Y1448727D01*
X431720Y1448764D01*
X431741Y1448826D01*
X431772Y1448885D01*
X431780Y1448939D01*
X431792Y1448976D01*
X431791Y1449016D01*
X431799Y1449070D01*
X431799Y1451610D01*
X431788Y1451675D01*
X431786Y1451741D01*
X431768Y1451784D01*
X431760Y1451831D01*
X431726Y1451888D01*
X431701Y1451948D01*
X431670Y1451983D01*
X431645Y1452024D01*
X431594Y1452066D01*
X431550Y1452114D01*
X431508Y1452136D01*
X431471Y1452165D01*
X431409Y1452186D01*
X431350Y1452217D01*
X431296Y1452225D01*
X431259Y1452237D01*
X431219Y1452236D01*
X431165Y1452244D01*
X427355Y1452244D01*
X427290Y1452233D01*
X427224Y1452231D01*
X427181Y1452213D01*
X427134Y1452205D01*
X427077Y1452171D01*
X427017Y1452146D01*
X426982Y1452115D01*
X426941Y1452090D01*
X426900Y1452039D01*
X426851Y1451995D01*
X426829Y1451953D01*
X426800Y1451916D01*
X426779Y1451854D01*
X426748Y1451795D01*
X426740Y1451741D01*
X426728Y1451704D01*
X426728Y1451701D01*
X426729Y1451664D01*
X426721Y1451610D01*
X426721Y1449070D01*
X426732Y1449005D01*
X426734Y1448939D01*
X426752Y1448896D01*
X426760Y1448849D01*
X426794Y1448792D01*
X426819Y1448732D01*
X426850Y1448697D01*
X426875Y1448656D01*
X426926Y1448615D01*
X426970Y1448566D01*
X427012Y1448544D01*
X427049Y1448515D01*
X427111Y1448494D01*
X427170Y1448463D01*
X427224Y1448455D01*
X427261Y1448443D01*
X427301Y1448444D01*
X427355Y1448436D01*
X431165Y1448436D01*
X431230Y1448447D01*
G37*
G36*
X1053530Y214007D02*
X1053530Y214007D01*
X1053596Y214009D01*
X1053639Y214027D01*
X1053686Y214035D01*
X1053743Y214069D01*
X1053803Y214094D01*
X1053838Y214125D01*
X1053879Y214150D01*
X1053921Y214201D01*
X1053969Y214245D01*
X1053991Y214287D01*
X1054020Y214324D01*
X1054041Y214386D01*
X1054072Y214445D01*
X1054080Y214499D01*
X1054092Y214536D01*
X1054091Y214576D01*
X1054099Y214630D01*
X1054099Y217170D01*
X1054088Y217235D01*
X1054086Y217301D01*
X1054068Y217344D01*
X1054060Y217391D01*
X1054026Y217448D01*
X1054001Y217508D01*
X1053970Y217543D01*
X1053945Y217584D01*
X1053894Y217626D01*
X1053850Y217674D01*
X1053808Y217696D01*
X1053771Y217725D01*
X1053709Y217746D01*
X1053650Y217777D01*
X1053596Y217785D01*
X1053559Y217797D01*
X1053519Y217796D01*
X1053465Y217804D01*
X1049655Y217804D01*
X1049590Y217793D01*
X1049524Y217791D01*
X1049481Y217773D01*
X1049434Y217765D01*
X1049377Y217731D01*
X1049317Y217706D01*
X1049282Y217675D01*
X1049241Y217650D01*
X1049200Y217599D01*
X1049151Y217555D01*
X1049129Y217513D01*
X1049100Y217476D01*
X1049079Y217414D01*
X1049048Y217355D01*
X1049040Y217301D01*
X1049028Y217264D01*
X1049028Y217261D01*
X1049029Y217224D01*
X1049021Y217170D01*
X1049021Y214630D01*
X1049032Y214565D01*
X1049034Y214499D01*
X1049052Y214456D01*
X1049060Y214409D01*
X1049094Y214352D01*
X1049119Y214292D01*
X1049150Y214257D01*
X1049175Y214216D01*
X1049226Y214175D01*
X1049270Y214126D01*
X1049312Y214104D01*
X1049349Y214075D01*
X1049411Y214054D01*
X1049470Y214023D01*
X1049524Y214015D01*
X1049561Y214003D01*
X1049601Y214004D01*
X1049655Y213996D01*
X1053465Y213996D01*
X1053530Y214007D01*
G37*
G36*
X667450Y214007D02*
X667450Y214007D01*
X667516Y214009D01*
X667559Y214027D01*
X667606Y214035D01*
X667663Y214069D01*
X667723Y214094D01*
X667758Y214125D01*
X667799Y214150D01*
X667841Y214201D01*
X667889Y214245D01*
X667911Y214287D01*
X667940Y214324D01*
X667961Y214386D01*
X667992Y214445D01*
X668000Y214499D01*
X668012Y214536D01*
X668011Y214576D01*
X668019Y214630D01*
X668019Y217170D01*
X668008Y217235D01*
X668006Y217301D01*
X667988Y217344D01*
X667980Y217391D01*
X667946Y217448D01*
X667921Y217508D01*
X667890Y217543D01*
X667865Y217584D01*
X667814Y217626D01*
X667770Y217674D01*
X667728Y217696D01*
X667691Y217725D01*
X667629Y217746D01*
X667570Y217777D01*
X667516Y217785D01*
X667479Y217797D01*
X667439Y217796D01*
X667385Y217804D01*
X663575Y217804D01*
X663510Y217793D01*
X663444Y217791D01*
X663401Y217773D01*
X663354Y217765D01*
X663297Y217731D01*
X663237Y217706D01*
X663202Y217675D01*
X663161Y217650D01*
X663120Y217599D01*
X663071Y217555D01*
X663049Y217513D01*
X663020Y217476D01*
X662999Y217414D01*
X662968Y217355D01*
X662960Y217301D01*
X662948Y217264D01*
X662948Y217261D01*
X662949Y217224D01*
X662941Y217170D01*
X662941Y214630D01*
X662952Y214565D01*
X662954Y214499D01*
X662972Y214456D01*
X662980Y214409D01*
X663014Y214352D01*
X663039Y214292D01*
X663070Y214257D01*
X663095Y214216D01*
X663146Y214175D01*
X663190Y214126D01*
X663232Y214104D01*
X663269Y214075D01*
X663331Y214054D01*
X663390Y214023D01*
X663444Y214015D01*
X663481Y214003D01*
X663521Y214004D01*
X663575Y213996D01*
X667385Y213996D01*
X667450Y214007D01*
G37*
G36*
X281370Y214007D02*
X281370Y214007D01*
X281436Y214009D01*
X281479Y214027D01*
X281526Y214035D01*
X281583Y214069D01*
X281643Y214094D01*
X281678Y214125D01*
X281719Y214150D01*
X281761Y214201D01*
X281809Y214245D01*
X281831Y214287D01*
X281860Y214324D01*
X281881Y214386D01*
X281912Y214445D01*
X281920Y214499D01*
X281932Y214536D01*
X281931Y214576D01*
X281939Y214630D01*
X281939Y217170D01*
X281928Y217235D01*
X281926Y217301D01*
X281908Y217344D01*
X281900Y217391D01*
X281866Y217448D01*
X281841Y217508D01*
X281810Y217543D01*
X281785Y217584D01*
X281734Y217626D01*
X281690Y217674D01*
X281648Y217696D01*
X281611Y217725D01*
X281549Y217746D01*
X281490Y217777D01*
X281436Y217785D01*
X281399Y217797D01*
X281359Y217796D01*
X281305Y217804D01*
X277495Y217804D01*
X277430Y217793D01*
X277364Y217791D01*
X277321Y217773D01*
X277274Y217765D01*
X277217Y217731D01*
X277157Y217706D01*
X277122Y217675D01*
X277081Y217650D01*
X277040Y217599D01*
X276991Y217555D01*
X276969Y217513D01*
X276940Y217476D01*
X276919Y217414D01*
X276888Y217355D01*
X276880Y217301D01*
X276868Y217264D01*
X276868Y217261D01*
X276869Y217224D01*
X276861Y217170D01*
X276861Y214630D01*
X276872Y214565D01*
X276874Y214499D01*
X276892Y214456D01*
X276900Y214409D01*
X276934Y214352D01*
X276959Y214292D01*
X276990Y214257D01*
X277015Y214216D01*
X277066Y214175D01*
X277110Y214126D01*
X277152Y214104D01*
X277189Y214075D01*
X277251Y214054D01*
X277310Y214023D01*
X277364Y214015D01*
X277401Y214003D01*
X277441Y214004D01*
X277495Y213996D01*
X281305Y213996D01*
X281370Y214007D01*
G37*
G36*
X1439610Y214007D02*
X1439610Y214007D01*
X1439676Y214009D01*
X1439719Y214027D01*
X1439766Y214035D01*
X1439823Y214069D01*
X1439883Y214094D01*
X1439918Y214125D01*
X1439959Y214150D01*
X1440001Y214201D01*
X1440049Y214245D01*
X1440071Y214287D01*
X1440100Y214324D01*
X1440121Y214386D01*
X1440152Y214445D01*
X1440160Y214499D01*
X1440172Y214536D01*
X1440171Y214576D01*
X1440179Y214630D01*
X1440179Y217170D01*
X1440168Y217235D01*
X1440166Y217301D01*
X1440148Y217344D01*
X1440140Y217391D01*
X1440106Y217448D01*
X1440081Y217508D01*
X1440050Y217543D01*
X1440025Y217584D01*
X1439974Y217626D01*
X1439930Y217674D01*
X1439888Y217696D01*
X1439851Y217725D01*
X1439789Y217746D01*
X1439730Y217777D01*
X1439676Y217785D01*
X1439639Y217797D01*
X1439599Y217796D01*
X1439545Y217804D01*
X1435735Y217804D01*
X1435670Y217793D01*
X1435604Y217791D01*
X1435561Y217773D01*
X1435514Y217765D01*
X1435457Y217731D01*
X1435397Y217706D01*
X1435362Y217675D01*
X1435321Y217650D01*
X1435280Y217599D01*
X1435231Y217555D01*
X1435209Y217513D01*
X1435180Y217476D01*
X1435159Y217414D01*
X1435128Y217355D01*
X1435120Y217301D01*
X1435108Y217264D01*
X1435108Y217261D01*
X1435109Y217224D01*
X1435101Y217170D01*
X1435101Y214630D01*
X1435112Y214565D01*
X1435114Y214499D01*
X1435132Y214456D01*
X1435140Y214409D01*
X1435174Y214352D01*
X1435199Y214292D01*
X1435230Y214257D01*
X1435255Y214216D01*
X1435306Y214175D01*
X1435350Y214126D01*
X1435392Y214104D01*
X1435429Y214075D01*
X1435491Y214054D01*
X1435550Y214023D01*
X1435604Y214015D01*
X1435641Y214003D01*
X1435681Y214004D01*
X1435735Y213996D01*
X1439545Y213996D01*
X1439610Y214007D01*
G37*
G36*
X1439610Y188607D02*
X1439610Y188607D01*
X1439676Y188609D01*
X1439719Y188627D01*
X1439766Y188635D01*
X1439823Y188669D01*
X1439883Y188694D01*
X1439918Y188725D01*
X1439959Y188750D01*
X1440001Y188801D01*
X1440049Y188845D01*
X1440071Y188887D01*
X1440100Y188924D01*
X1440121Y188986D01*
X1440152Y189045D01*
X1440160Y189099D01*
X1440172Y189136D01*
X1440171Y189176D01*
X1440179Y189230D01*
X1440179Y191770D01*
X1440168Y191835D01*
X1440166Y191901D01*
X1440148Y191944D01*
X1440140Y191991D01*
X1440106Y192048D01*
X1440081Y192108D01*
X1440050Y192143D01*
X1440025Y192184D01*
X1439974Y192226D01*
X1439930Y192274D01*
X1439888Y192296D01*
X1439851Y192325D01*
X1439789Y192346D01*
X1439730Y192377D01*
X1439676Y192385D01*
X1439639Y192397D01*
X1439599Y192396D01*
X1439545Y192404D01*
X1435735Y192404D01*
X1435670Y192393D01*
X1435604Y192391D01*
X1435561Y192373D01*
X1435514Y192365D01*
X1435457Y192331D01*
X1435397Y192306D01*
X1435362Y192275D01*
X1435321Y192250D01*
X1435280Y192199D01*
X1435231Y192155D01*
X1435209Y192113D01*
X1435180Y192076D01*
X1435159Y192014D01*
X1435128Y191955D01*
X1435120Y191901D01*
X1435108Y191864D01*
X1435108Y191861D01*
X1435109Y191824D01*
X1435101Y191770D01*
X1435101Y189230D01*
X1435112Y189165D01*
X1435114Y189099D01*
X1435132Y189056D01*
X1435140Y189009D01*
X1435174Y188952D01*
X1435199Y188892D01*
X1435230Y188857D01*
X1435255Y188816D01*
X1435306Y188775D01*
X1435350Y188726D01*
X1435392Y188704D01*
X1435429Y188675D01*
X1435491Y188654D01*
X1435550Y188623D01*
X1435604Y188615D01*
X1435641Y188603D01*
X1435681Y188604D01*
X1435735Y188596D01*
X1439545Y188596D01*
X1439610Y188607D01*
G37*
G36*
X1053530Y188607D02*
X1053530Y188607D01*
X1053596Y188609D01*
X1053639Y188627D01*
X1053686Y188635D01*
X1053743Y188669D01*
X1053803Y188694D01*
X1053838Y188725D01*
X1053879Y188750D01*
X1053921Y188801D01*
X1053969Y188845D01*
X1053991Y188887D01*
X1054020Y188924D01*
X1054041Y188986D01*
X1054072Y189045D01*
X1054080Y189099D01*
X1054092Y189136D01*
X1054091Y189176D01*
X1054099Y189230D01*
X1054099Y191770D01*
X1054088Y191835D01*
X1054086Y191901D01*
X1054068Y191944D01*
X1054060Y191991D01*
X1054026Y192048D01*
X1054001Y192108D01*
X1053970Y192143D01*
X1053945Y192184D01*
X1053894Y192226D01*
X1053850Y192274D01*
X1053808Y192296D01*
X1053771Y192325D01*
X1053709Y192346D01*
X1053650Y192377D01*
X1053596Y192385D01*
X1053559Y192397D01*
X1053519Y192396D01*
X1053465Y192404D01*
X1049655Y192404D01*
X1049590Y192393D01*
X1049524Y192391D01*
X1049481Y192373D01*
X1049434Y192365D01*
X1049377Y192331D01*
X1049317Y192306D01*
X1049282Y192275D01*
X1049241Y192250D01*
X1049200Y192199D01*
X1049151Y192155D01*
X1049129Y192113D01*
X1049100Y192076D01*
X1049079Y192014D01*
X1049048Y191955D01*
X1049040Y191901D01*
X1049028Y191864D01*
X1049028Y191861D01*
X1049029Y191824D01*
X1049021Y191770D01*
X1049021Y189230D01*
X1049032Y189165D01*
X1049034Y189099D01*
X1049052Y189056D01*
X1049060Y189009D01*
X1049094Y188952D01*
X1049119Y188892D01*
X1049150Y188857D01*
X1049175Y188816D01*
X1049226Y188775D01*
X1049270Y188726D01*
X1049312Y188704D01*
X1049349Y188675D01*
X1049411Y188654D01*
X1049470Y188623D01*
X1049524Y188615D01*
X1049561Y188603D01*
X1049601Y188604D01*
X1049655Y188596D01*
X1053465Y188596D01*
X1053530Y188607D01*
G37*
G36*
X667450Y188607D02*
X667450Y188607D01*
X667516Y188609D01*
X667559Y188627D01*
X667606Y188635D01*
X667663Y188669D01*
X667723Y188694D01*
X667758Y188725D01*
X667799Y188750D01*
X667841Y188801D01*
X667889Y188845D01*
X667911Y188887D01*
X667940Y188924D01*
X667961Y188986D01*
X667992Y189045D01*
X668000Y189099D01*
X668012Y189136D01*
X668011Y189176D01*
X668019Y189230D01*
X668019Y191770D01*
X668008Y191835D01*
X668006Y191901D01*
X667988Y191944D01*
X667980Y191991D01*
X667946Y192048D01*
X667921Y192108D01*
X667890Y192143D01*
X667865Y192184D01*
X667814Y192226D01*
X667770Y192274D01*
X667728Y192296D01*
X667691Y192325D01*
X667629Y192346D01*
X667570Y192377D01*
X667516Y192385D01*
X667479Y192397D01*
X667439Y192396D01*
X667385Y192404D01*
X663575Y192404D01*
X663510Y192393D01*
X663444Y192391D01*
X663401Y192373D01*
X663354Y192365D01*
X663297Y192331D01*
X663237Y192306D01*
X663202Y192275D01*
X663161Y192250D01*
X663120Y192199D01*
X663071Y192155D01*
X663049Y192113D01*
X663020Y192076D01*
X662999Y192014D01*
X662968Y191955D01*
X662960Y191901D01*
X662948Y191864D01*
X662948Y191861D01*
X662949Y191824D01*
X662941Y191770D01*
X662941Y189230D01*
X662952Y189165D01*
X662954Y189099D01*
X662972Y189056D01*
X662980Y189009D01*
X663014Y188952D01*
X663039Y188892D01*
X663070Y188857D01*
X663095Y188816D01*
X663146Y188775D01*
X663190Y188726D01*
X663232Y188704D01*
X663269Y188675D01*
X663331Y188654D01*
X663390Y188623D01*
X663444Y188615D01*
X663481Y188603D01*
X663521Y188604D01*
X663575Y188596D01*
X667385Y188596D01*
X667450Y188607D01*
G37*
G36*
X281370Y188607D02*
X281370Y188607D01*
X281436Y188609D01*
X281479Y188627D01*
X281526Y188635D01*
X281583Y188669D01*
X281643Y188694D01*
X281678Y188725D01*
X281719Y188750D01*
X281761Y188801D01*
X281809Y188845D01*
X281831Y188887D01*
X281860Y188924D01*
X281881Y188986D01*
X281912Y189045D01*
X281920Y189099D01*
X281932Y189136D01*
X281931Y189176D01*
X281939Y189230D01*
X281939Y191770D01*
X281928Y191835D01*
X281926Y191901D01*
X281908Y191944D01*
X281900Y191991D01*
X281866Y192048D01*
X281841Y192108D01*
X281810Y192143D01*
X281785Y192184D01*
X281734Y192226D01*
X281690Y192274D01*
X281648Y192296D01*
X281611Y192325D01*
X281549Y192346D01*
X281490Y192377D01*
X281436Y192385D01*
X281399Y192397D01*
X281359Y192396D01*
X281305Y192404D01*
X277495Y192404D01*
X277430Y192393D01*
X277364Y192391D01*
X277321Y192373D01*
X277274Y192365D01*
X277217Y192331D01*
X277157Y192306D01*
X277122Y192275D01*
X277081Y192250D01*
X277040Y192199D01*
X276991Y192155D01*
X276969Y192113D01*
X276940Y192076D01*
X276919Y192014D01*
X276888Y191955D01*
X276880Y191901D01*
X276868Y191864D01*
X276868Y191861D01*
X276869Y191824D01*
X276861Y191770D01*
X276861Y189230D01*
X276872Y189165D01*
X276874Y189099D01*
X276892Y189056D01*
X276900Y189009D01*
X276934Y188952D01*
X276959Y188892D01*
X276990Y188857D01*
X277015Y188816D01*
X277066Y188775D01*
X277110Y188726D01*
X277152Y188704D01*
X277189Y188675D01*
X277251Y188654D01*
X277310Y188623D01*
X277364Y188615D01*
X277401Y188603D01*
X277441Y188604D01*
X277495Y188596D01*
X281305Y188596D01*
X281370Y188607D01*
G37*
G36*
X667450Y163207D02*
X667450Y163207D01*
X667516Y163209D01*
X667559Y163227D01*
X667606Y163235D01*
X667663Y163269D01*
X667723Y163294D01*
X667758Y163325D01*
X667799Y163350D01*
X667841Y163401D01*
X667889Y163445D01*
X667911Y163487D01*
X667940Y163524D01*
X667961Y163586D01*
X667992Y163645D01*
X668000Y163699D01*
X668012Y163736D01*
X668011Y163776D01*
X668019Y163830D01*
X668019Y166370D01*
X668008Y166435D01*
X668006Y166501D01*
X667988Y166544D01*
X667980Y166591D01*
X667946Y166648D01*
X667921Y166708D01*
X667890Y166743D01*
X667865Y166784D01*
X667814Y166826D01*
X667770Y166874D01*
X667728Y166896D01*
X667691Y166925D01*
X667629Y166946D01*
X667570Y166977D01*
X667516Y166985D01*
X667479Y166997D01*
X667439Y166996D01*
X667385Y167004D01*
X663575Y167004D01*
X663510Y166993D01*
X663444Y166991D01*
X663401Y166973D01*
X663354Y166965D01*
X663297Y166931D01*
X663237Y166906D01*
X663202Y166875D01*
X663161Y166850D01*
X663120Y166799D01*
X663071Y166755D01*
X663049Y166713D01*
X663020Y166676D01*
X662999Y166614D01*
X662968Y166555D01*
X662960Y166501D01*
X662948Y166464D01*
X662948Y166461D01*
X662949Y166424D01*
X662941Y166370D01*
X662941Y163830D01*
X662952Y163765D01*
X662954Y163699D01*
X662972Y163656D01*
X662980Y163609D01*
X663014Y163552D01*
X663039Y163492D01*
X663070Y163457D01*
X663095Y163416D01*
X663146Y163375D01*
X663190Y163326D01*
X663232Y163304D01*
X663269Y163275D01*
X663331Y163254D01*
X663390Y163223D01*
X663444Y163215D01*
X663481Y163203D01*
X663521Y163204D01*
X663575Y163196D01*
X667385Y163196D01*
X667450Y163207D01*
G37*
G36*
X1439610Y163207D02*
X1439610Y163207D01*
X1439676Y163209D01*
X1439719Y163227D01*
X1439766Y163235D01*
X1439823Y163269D01*
X1439883Y163294D01*
X1439918Y163325D01*
X1439959Y163350D01*
X1440001Y163401D01*
X1440049Y163445D01*
X1440071Y163487D01*
X1440100Y163524D01*
X1440121Y163586D01*
X1440152Y163645D01*
X1440160Y163699D01*
X1440172Y163736D01*
X1440171Y163776D01*
X1440179Y163830D01*
X1440179Y166370D01*
X1440168Y166435D01*
X1440166Y166501D01*
X1440148Y166544D01*
X1440140Y166591D01*
X1440106Y166648D01*
X1440081Y166708D01*
X1440050Y166743D01*
X1440025Y166784D01*
X1439974Y166826D01*
X1439930Y166874D01*
X1439888Y166896D01*
X1439851Y166925D01*
X1439789Y166946D01*
X1439730Y166977D01*
X1439676Y166985D01*
X1439639Y166997D01*
X1439599Y166996D01*
X1439545Y167004D01*
X1435735Y167004D01*
X1435670Y166993D01*
X1435604Y166991D01*
X1435561Y166973D01*
X1435514Y166965D01*
X1435457Y166931D01*
X1435397Y166906D01*
X1435362Y166875D01*
X1435321Y166850D01*
X1435280Y166799D01*
X1435231Y166755D01*
X1435209Y166713D01*
X1435180Y166676D01*
X1435159Y166614D01*
X1435128Y166555D01*
X1435120Y166501D01*
X1435108Y166464D01*
X1435108Y166461D01*
X1435109Y166424D01*
X1435101Y166370D01*
X1435101Y163830D01*
X1435112Y163765D01*
X1435114Y163699D01*
X1435132Y163656D01*
X1435140Y163609D01*
X1435174Y163552D01*
X1435199Y163492D01*
X1435230Y163457D01*
X1435255Y163416D01*
X1435306Y163375D01*
X1435350Y163326D01*
X1435392Y163304D01*
X1435429Y163275D01*
X1435491Y163254D01*
X1435550Y163223D01*
X1435604Y163215D01*
X1435641Y163203D01*
X1435681Y163204D01*
X1435735Y163196D01*
X1439545Y163196D01*
X1439610Y163207D01*
G37*
G36*
X1053530Y163207D02*
X1053530Y163207D01*
X1053596Y163209D01*
X1053639Y163227D01*
X1053686Y163235D01*
X1053743Y163269D01*
X1053803Y163294D01*
X1053838Y163325D01*
X1053879Y163350D01*
X1053921Y163401D01*
X1053969Y163445D01*
X1053991Y163487D01*
X1054020Y163524D01*
X1054041Y163586D01*
X1054072Y163645D01*
X1054080Y163699D01*
X1054092Y163736D01*
X1054091Y163776D01*
X1054099Y163830D01*
X1054099Y166370D01*
X1054088Y166435D01*
X1054086Y166501D01*
X1054068Y166544D01*
X1054060Y166591D01*
X1054026Y166648D01*
X1054001Y166708D01*
X1053970Y166743D01*
X1053945Y166784D01*
X1053894Y166826D01*
X1053850Y166874D01*
X1053808Y166896D01*
X1053771Y166925D01*
X1053709Y166946D01*
X1053650Y166977D01*
X1053596Y166985D01*
X1053559Y166997D01*
X1053519Y166996D01*
X1053465Y167004D01*
X1049655Y167004D01*
X1049590Y166993D01*
X1049524Y166991D01*
X1049481Y166973D01*
X1049434Y166965D01*
X1049377Y166931D01*
X1049317Y166906D01*
X1049282Y166875D01*
X1049241Y166850D01*
X1049200Y166799D01*
X1049151Y166755D01*
X1049129Y166713D01*
X1049100Y166676D01*
X1049079Y166614D01*
X1049048Y166555D01*
X1049040Y166501D01*
X1049028Y166464D01*
X1049028Y166461D01*
X1049029Y166424D01*
X1049021Y166370D01*
X1049021Y163830D01*
X1049032Y163765D01*
X1049034Y163699D01*
X1049052Y163656D01*
X1049060Y163609D01*
X1049094Y163552D01*
X1049119Y163492D01*
X1049150Y163457D01*
X1049175Y163416D01*
X1049226Y163375D01*
X1049270Y163326D01*
X1049312Y163304D01*
X1049349Y163275D01*
X1049411Y163254D01*
X1049470Y163223D01*
X1049524Y163215D01*
X1049561Y163203D01*
X1049601Y163204D01*
X1049655Y163196D01*
X1053465Y163196D01*
X1053530Y163207D01*
G37*
G36*
X281370Y163207D02*
X281370Y163207D01*
X281436Y163209D01*
X281479Y163227D01*
X281526Y163235D01*
X281583Y163269D01*
X281643Y163294D01*
X281678Y163325D01*
X281719Y163350D01*
X281761Y163401D01*
X281809Y163445D01*
X281831Y163487D01*
X281860Y163524D01*
X281881Y163586D01*
X281912Y163645D01*
X281920Y163699D01*
X281932Y163736D01*
X281931Y163776D01*
X281939Y163830D01*
X281939Y166370D01*
X281928Y166435D01*
X281926Y166501D01*
X281908Y166544D01*
X281900Y166591D01*
X281866Y166648D01*
X281841Y166708D01*
X281810Y166743D01*
X281785Y166784D01*
X281734Y166826D01*
X281690Y166874D01*
X281648Y166896D01*
X281611Y166925D01*
X281549Y166946D01*
X281490Y166977D01*
X281436Y166985D01*
X281399Y166997D01*
X281359Y166996D01*
X281305Y167004D01*
X277495Y167004D01*
X277430Y166993D01*
X277364Y166991D01*
X277321Y166973D01*
X277274Y166965D01*
X277217Y166931D01*
X277157Y166906D01*
X277122Y166875D01*
X277081Y166850D01*
X277040Y166799D01*
X276991Y166755D01*
X276969Y166713D01*
X276940Y166676D01*
X276919Y166614D01*
X276888Y166555D01*
X276880Y166501D01*
X276868Y166464D01*
X276868Y166461D01*
X276869Y166424D01*
X276861Y166370D01*
X276861Y163830D01*
X276872Y163765D01*
X276874Y163699D01*
X276892Y163656D01*
X276900Y163609D01*
X276934Y163552D01*
X276959Y163492D01*
X276990Y163457D01*
X277015Y163416D01*
X277066Y163375D01*
X277110Y163326D01*
X277152Y163304D01*
X277189Y163275D01*
X277251Y163254D01*
X277310Y163223D01*
X277364Y163215D01*
X277401Y163203D01*
X277441Y163204D01*
X277495Y163196D01*
X281305Y163196D01*
X281370Y163207D01*
G37*
G36*
X1211010Y74307D02*
X1211010Y74307D01*
X1211076Y74309D01*
X1211119Y74327D01*
X1211166Y74335D01*
X1211223Y74369D01*
X1211283Y74394D01*
X1211318Y74425D01*
X1211359Y74450D01*
X1211401Y74501D01*
X1211449Y74545D01*
X1211471Y74587D01*
X1211500Y74624D01*
X1211521Y74686D01*
X1211552Y74745D01*
X1211560Y74799D01*
X1211572Y74836D01*
X1211571Y74876D01*
X1211579Y74930D01*
X1211579Y77470D01*
X1211568Y77535D01*
X1211566Y77601D01*
X1211548Y77644D01*
X1211540Y77691D01*
X1211506Y77748D01*
X1211481Y77808D01*
X1211450Y77843D01*
X1211425Y77884D01*
X1211374Y77926D01*
X1211330Y77974D01*
X1211288Y77996D01*
X1211251Y78025D01*
X1211189Y78046D01*
X1211130Y78077D01*
X1211076Y78085D01*
X1211039Y78097D01*
X1210999Y78096D01*
X1210945Y78104D01*
X1207135Y78104D01*
X1207070Y78093D01*
X1207004Y78091D01*
X1206961Y78073D01*
X1206914Y78065D01*
X1206857Y78031D01*
X1206797Y78006D01*
X1206762Y77975D01*
X1206721Y77950D01*
X1206680Y77899D01*
X1206631Y77855D01*
X1206609Y77813D01*
X1206580Y77776D01*
X1206559Y77714D01*
X1206528Y77655D01*
X1206520Y77601D01*
X1206508Y77564D01*
X1206508Y77561D01*
X1206509Y77524D01*
X1206501Y77470D01*
X1206501Y74930D01*
X1206512Y74865D01*
X1206514Y74799D01*
X1206532Y74756D01*
X1206540Y74709D01*
X1206574Y74652D01*
X1206599Y74592D01*
X1206630Y74557D01*
X1206655Y74516D01*
X1206706Y74475D01*
X1206750Y74426D01*
X1206792Y74404D01*
X1206829Y74375D01*
X1206891Y74354D01*
X1206950Y74323D01*
X1207004Y74315D01*
X1207041Y74303D01*
X1207081Y74304D01*
X1207135Y74296D01*
X1210945Y74296D01*
X1211010Y74307D01*
G37*
G36*
X824930Y74307D02*
X824930Y74307D01*
X824996Y74309D01*
X825039Y74327D01*
X825086Y74335D01*
X825143Y74369D01*
X825203Y74394D01*
X825238Y74425D01*
X825279Y74450D01*
X825321Y74501D01*
X825369Y74545D01*
X825391Y74587D01*
X825420Y74624D01*
X825441Y74686D01*
X825472Y74745D01*
X825480Y74799D01*
X825492Y74836D01*
X825491Y74876D01*
X825499Y74930D01*
X825499Y77470D01*
X825488Y77535D01*
X825486Y77601D01*
X825468Y77644D01*
X825460Y77691D01*
X825426Y77748D01*
X825401Y77808D01*
X825370Y77843D01*
X825345Y77884D01*
X825294Y77926D01*
X825250Y77974D01*
X825208Y77996D01*
X825171Y78025D01*
X825109Y78046D01*
X825050Y78077D01*
X824996Y78085D01*
X824959Y78097D01*
X824919Y78096D01*
X824865Y78104D01*
X821055Y78104D01*
X820990Y78093D01*
X820924Y78091D01*
X820881Y78073D01*
X820834Y78065D01*
X820777Y78031D01*
X820717Y78006D01*
X820682Y77975D01*
X820641Y77950D01*
X820600Y77899D01*
X820551Y77855D01*
X820529Y77813D01*
X820500Y77776D01*
X820479Y77714D01*
X820448Y77655D01*
X820440Y77601D01*
X820428Y77564D01*
X820428Y77561D01*
X820429Y77524D01*
X820421Y77470D01*
X820421Y74930D01*
X820432Y74865D01*
X820434Y74799D01*
X820452Y74756D01*
X820460Y74709D01*
X820494Y74652D01*
X820519Y74592D01*
X820550Y74557D01*
X820575Y74516D01*
X820626Y74475D01*
X820670Y74426D01*
X820712Y74404D01*
X820749Y74375D01*
X820811Y74354D01*
X820870Y74323D01*
X820924Y74315D01*
X820961Y74303D01*
X821001Y74304D01*
X821055Y74296D01*
X824865Y74296D01*
X824930Y74307D01*
G37*
G36*
X52770Y74307D02*
X52770Y74307D01*
X52836Y74309D01*
X52879Y74327D01*
X52926Y74335D01*
X52983Y74369D01*
X53043Y74394D01*
X53078Y74425D01*
X53119Y74450D01*
X53161Y74501D01*
X53209Y74545D01*
X53231Y74587D01*
X53260Y74624D01*
X53281Y74686D01*
X53312Y74745D01*
X53320Y74799D01*
X53332Y74836D01*
X53331Y74876D01*
X53339Y74930D01*
X53339Y77470D01*
X53328Y77535D01*
X53326Y77601D01*
X53308Y77644D01*
X53300Y77691D01*
X53266Y77748D01*
X53241Y77808D01*
X53210Y77843D01*
X53185Y77884D01*
X53134Y77926D01*
X53090Y77974D01*
X53048Y77996D01*
X53011Y78025D01*
X52949Y78046D01*
X52890Y78077D01*
X52836Y78085D01*
X52799Y78097D01*
X52759Y78096D01*
X52705Y78104D01*
X48895Y78104D01*
X48830Y78093D01*
X48764Y78091D01*
X48721Y78073D01*
X48674Y78065D01*
X48617Y78031D01*
X48557Y78006D01*
X48522Y77975D01*
X48481Y77950D01*
X48440Y77899D01*
X48391Y77855D01*
X48369Y77813D01*
X48340Y77776D01*
X48319Y77714D01*
X48288Y77655D01*
X48280Y77601D01*
X48268Y77564D01*
X48268Y77561D01*
X48269Y77524D01*
X48261Y77470D01*
X48261Y74930D01*
X48272Y74865D01*
X48274Y74799D01*
X48292Y74756D01*
X48300Y74709D01*
X48334Y74652D01*
X48359Y74592D01*
X48390Y74557D01*
X48415Y74516D01*
X48466Y74475D01*
X48510Y74426D01*
X48552Y74404D01*
X48589Y74375D01*
X48651Y74354D01*
X48710Y74323D01*
X48764Y74315D01*
X48801Y74303D01*
X48841Y74304D01*
X48895Y74296D01*
X52705Y74296D01*
X52770Y74307D01*
G37*
G36*
X438850Y74307D02*
X438850Y74307D01*
X438916Y74309D01*
X438959Y74327D01*
X439006Y74335D01*
X439063Y74369D01*
X439123Y74394D01*
X439158Y74425D01*
X439199Y74450D01*
X439241Y74501D01*
X439289Y74545D01*
X439311Y74587D01*
X439340Y74624D01*
X439361Y74686D01*
X439392Y74745D01*
X439400Y74799D01*
X439412Y74836D01*
X439411Y74876D01*
X439419Y74930D01*
X439419Y77470D01*
X439408Y77535D01*
X439406Y77601D01*
X439388Y77644D01*
X439380Y77691D01*
X439346Y77748D01*
X439321Y77808D01*
X439290Y77843D01*
X439265Y77884D01*
X439214Y77926D01*
X439170Y77974D01*
X439128Y77996D01*
X439091Y78025D01*
X439029Y78046D01*
X438970Y78077D01*
X438916Y78085D01*
X438879Y78097D01*
X438839Y78096D01*
X438785Y78104D01*
X434975Y78104D01*
X434910Y78093D01*
X434844Y78091D01*
X434801Y78073D01*
X434754Y78065D01*
X434697Y78031D01*
X434637Y78006D01*
X434602Y77975D01*
X434561Y77950D01*
X434520Y77899D01*
X434471Y77855D01*
X434449Y77813D01*
X434420Y77776D01*
X434399Y77714D01*
X434368Y77655D01*
X434360Y77601D01*
X434348Y77564D01*
X434348Y77561D01*
X434349Y77524D01*
X434341Y77470D01*
X434341Y74930D01*
X434352Y74865D01*
X434354Y74799D01*
X434372Y74756D01*
X434380Y74709D01*
X434414Y74652D01*
X434439Y74592D01*
X434470Y74557D01*
X434495Y74516D01*
X434546Y74475D01*
X434590Y74426D01*
X434632Y74404D01*
X434669Y74375D01*
X434731Y74354D01*
X434790Y74323D01*
X434844Y74315D01*
X434881Y74303D01*
X434921Y74304D01*
X434975Y74296D01*
X438785Y74296D01*
X438850Y74307D01*
G37*
D10*
X25400Y25400D03*
X355600Y25400D03*
D11*
X368300Y63500D03*
X368300Y88900D03*
X368300Y114300D03*
X368300Y139700D03*
X12700Y139700D03*
D12*
X48260Y292100D03*
X38100Y292100D03*
X27940Y292100D03*
D13*
X50800Y368300D03*
X330200Y12700D03*
D10*
X355600Y355600D03*
X25400Y355600D03*
D14*
X115500Y317500D03*
X165500Y317500D03*
X215500Y317500D03*
X265500Y317500D03*
X265500Y63500D03*
X215500Y63500D03*
X165500Y63500D03*
X115500Y63500D03*
D12*
X45720Y76200D03*
X55880Y76200D03*
X274320Y165100D03*
X284480Y165100D03*
X274320Y190500D03*
X284480Y190500D03*
X274320Y215900D03*
X284480Y215900D03*
X96520Y254000D03*
X106680Y254000D03*
D10*
X411480Y25400D03*
X741680Y25400D03*
D11*
X754380Y63500D03*
X754380Y88900D03*
X754380Y114300D03*
X754380Y139700D03*
X398780Y139700D03*
D12*
X434340Y292100D03*
X424180Y292100D03*
X414020Y292100D03*
D13*
X436880Y368300D03*
X716280Y12700D03*
D10*
X741680Y355600D03*
X411480Y355600D03*
D14*
X501580Y317500D03*
X551580Y317500D03*
X601580Y317500D03*
X651580Y317500D03*
X651580Y63500D03*
X601580Y63500D03*
X551580Y63500D03*
X501580Y63500D03*
D12*
X431800Y76200D03*
X441960Y76200D03*
X660400Y165100D03*
X670560Y165100D03*
X660400Y190500D03*
X670560Y190500D03*
X660400Y215900D03*
X670560Y215900D03*
X482600Y254000D03*
X492760Y254000D03*
D10*
X797560Y25400D03*
X1127760Y25400D03*
D11*
X1140460Y63500D03*
X1140460Y88900D03*
X1140460Y114300D03*
X1140460Y139700D03*
X784860Y139700D03*
D12*
X820420Y292100D03*
X810260Y292100D03*
X800100Y292100D03*
D13*
X822960Y368300D03*
X1102360Y12700D03*
D10*
X1127760Y355600D03*
X797560Y355600D03*
D14*
X887660Y317500D03*
X937660Y317500D03*
X987660Y317500D03*
X1037660Y317500D03*
X1037660Y63500D03*
X987660Y63500D03*
X937660Y63500D03*
X887660Y63500D03*
D12*
X817880Y76200D03*
X828040Y76200D03*
X1046480Y165100D03*
X1056640Y165100D03*
X1046480Y190500D03*
X1056640Y190500D03*
X1046480Y215900D03*
X1056640Y215900D03*
X868680Y254000D03*
X878840Y254000D03*
D10*
X1183640Y25400D03*
X1513840Y25400D03*
D11*
X1526540Y63500D03*
X1526540Y88900D03*
X1526540Y114300D03*
X1526540Y139700D03*
X1170940Y139700D03*
D12*
X1206500Y292100D03*
X1196340Y292100D03*
X1186180Y292100D03*
D13*
X1209040Y368300D03*
X1488440Y12700D03*
D10*
X1513840Y355600D03*
X1183640Y355600D03*
D14*
X1273740Y317500D03*
X1323740Y317500D03*
X1373740Y317500D03*
X1423740Y317500D03*
X1423740Y63500D03*
X1373740Y63500D03*
X1323740Y63500D03*
X1273740Y63500D03*
D12*
X1203960Y76200D03*
X1214120Y76200D03*
X1432560Y165100D03*
X1442720Y165100D03*
X1432560Y190500D03*
X1442720Y190500D03*
X1432560Y215900D03*
X1442720Y215900D03*
X1254760Y254000D03*
X1264920Y254000D03*
D10*
X25400Y411480D03*
X355600Y411480D03*
D11*
X368300Y449580D03*
X368300Y474980D03*
X368300Y500380D03*
X368300Y525780D03*
X12700Y525780D03*
D12*
X48260Y678180D03*
X38100Y678180D03*
X27940Y678180D03*
D13*
X50800Y754380D03*
X330200Y398780D03*
D10*
X355600Y741680D03*
X25400Y741680D03*
D14*
X115500Y703580D03*
X165500Y703580D03*
X215500Y703580D03*
X265500Y703580D03*
X265500Y449580D03*
X215500Y449580D03*
X165500Y449580D03*
X115500Y449580D03*
D12*
X45720Y462280D03*
X55880Y462280D03*
X274320Y551180D03*
X284480Y551180D03*
X274320Y576580D03*
X284480Y576580D03*
X274320Y601980D03*
X284480Y601980D03*
X96520Y640080D03*
X106680Y640080D03*
D10*
X411480Y411480D03*
X741680Y411480D03*
D11*
X754380Y449580D03*
X754380Y474980D03*
X754380Y500380D03*
X754380Y525780D03*
X398780Y525780D03*
D12*
X434340Y678180D03*
X424180Y678180D03*
X414020Y678180D03*
D13*
X436880Y754380D03*
X716280Y398780D03*
D10*
X741680Y741680D03*
X411480Y741680D03*
D14*
X501580Y703580D03*
X551580Y703580D03*
X601580Y703580D03*
X651580Y703580D03*
X651580Y449580D03*
X601580Y449580D03*
X551580Y449580D03*
X501580Y449580D03*
D12*
X431800Y462280D03*
X441960Y462280D03*
X660400Y551180D03*
X670560Y551180D03*
X660400Y576580D03*
X670560Y576580D03*
X660400Y601980D03*
X670560Y601980D03*
X482600Y640080D03*
X492760Y640080D03*
D10*
X797560Y411480D03*
X1127760Y411480D03*
D11*
X1140460Y449580D03*
X1140460Y474980D03*
X1140460Y500380D03*
X1140460Y525780D03*
X784860Y525780D03*
D12*
X820420Y678180D03*
X810260Y678180D03*
X800100Y678180D03*
D13*
X822960Y754380D03*
X1102360Y398780D03*
D10*
X1127760Y741680D03*
X797560Y741680D03*
D14*
X887660Y703580D03*
X937660Y703580D03*
X987660Y703580D03*
X1037660Y703580D03*
X1037660Y449580D03*
X987660Y449580D03*
X937660Y449580D03*
X887660Y449580D03*
D12*
X817880Y462280D03*
X828040Y462280D03*
X1046480Y551180D03*
X1056640Y551180D03*
X1046480Y576580D03*
X1056640Y576580D03*
X1046480Y601980D03*
X1056640Y601980D03*
X868680Y640080D03*
X878840Y640080D03*
D10*
X1183640Y411480D03*
X1513840Y411480D03*
D11*
X1526540Y449580D03*
X1526540Y474980D03*
X1526540Y500380D03*
X1526540Y525780D03*
X1170940Y525780D03*
D12*
X1206500Y678180D03*
X1196340Y678180D03*
X1186180Y678180D03*
D13*
X1209040Y754380D03*
X1488440Y398780D03*
D10*
X1513840Y741680D03*
X1183640Y741680D03*
D14*
X1273740Y703580D03*
X1323740Y703580D03*
X1373740Y703580D03*
X1423740Y703580D03*
X1423740Y449580D03*
X1373740Y449580D03*
X1323740Y449580D03*
X1273740Y449580D03*
D12*
X1203960Y462280D03*
X1214120Y462280D03*
X1432560Y551180D03*
X1442720Y551180D03*
X1432560Y576580D03*
X1442720Y576580D03*
X1432560Y601980D03*
X1442720Y601980D03*
X1254760Y640080D03*
X1264920Y640080D03*
D10*
X25400Y797560D03*
X355600Y797560D03*
D11*
X368300Y835660D03*
X368300Y861060D03*
X368300Y886460D03*
X368300Y911860D03*
X12700Y911860D03*
D12*
X48260Y1064260D03*
X38100Y1064260D03*
X27940Y1064260D03*
D13*
X50800Y1140460D03*
X330200Y784860D03*
D10*
X355600Y1127760D03*
X25400Y1127760D03*
D14*
X115500Y1089660D03*
X165500Y1089660D03*
X215500Y1089660D03*
X265500Y1089660D03*
X265500Y835660D03*
X215500Y835660D03*
X165500Y835660D03*
X115500Y835660D03*
D12*
X45720Y848360D03*
X55880Y848360D03*
X274320Y937260D03*
X284480Y937260D03*
X274320Y962660D03*
X284480Y962660D03*
X274320Y988060D03*
X284480Y988060D03*
X96520Y1026160D03*
X106680Y1026160D03*
D10*
X411480Y797560D03*
X741680Y797560D03*
D11*
X754380Y835660D03*
X754380Y861060D03*
X754380Y886460D03*
X754380Y911860D03*
X398780Y911860D03*
D12*
X434340Y1064260D03*
X424180Y1064260D03*
X414020Y1064260D03*
D13*
X436880Y1140460D03*
X716280Y784860D03*
D10*
X741680Y1127760D03*
X411480Y1127760D03*
D14*
X501580Y1089660D03*
X551580Y1089660D03*
X601580Y1089660D03*
X651580Y1089660D03*
X651580Y835660D03*
X601580Y835660D03*
X551580Y835660D03*
X501580Y835660D03*
D12*
X431800Y848360D03*
X441960Y848360D03*
X660400Y937260D03*
X670560Y937260D03*
X660400Y962660D03*
X670560Y962660D03*
X660400Y988060D03*
X670560Y988060D03*
X482600Y1026160D03*
X492760Y1026160D03*
D10*
X797560Y797560D03*
X1127760Y797560D03*
D11*
X1140460Y835660D03*
X1140460Y861060D03*
X1140460Y886460D03*
X1140460Y911860D03*
X784860Y911860D03*
D12*
X820420Y1064260D03*
X810260Y1064260D03*
X800100Y1064260D03*
D13*
X822960Y1140460D03*
X1102360Y784860D03*
D10*
X1127760Y1127760D03*
X797560Y1127760D03*
D14*
X887660Y1089660D03*
X937660Y1089660D03*
X987660Y1089660D03*
X1037660Y1089660D03*
X1037660Y835660D03*
X987660Y835660D03*
X937660Y835660D03*
X887660Y835660D03*
D12*
X817880Y848360D03*
X828040Y848360D03*
X1046480Y937260D03*
X1056640Y937260D03*
X1046480Y962660D03*
X1056640Y962660D03*
X1046480Y988060D03*
X1056640Y988060D03*
X868680Y1026160D03*
X878840Y1026160D03*
D10*
X1183640Y797560D03*
X1513840Y797560D03*
D11*
X1526540Y835660D03*
X1526540Y861060D03*
X1526540Y886460D03*
X1526540Y911860D03*
X1170940Y911860D03*
D12*
X1206500Y1064260D03*
X1196340Y1064260D03*
X1186180Y1064260D03*
D13*
X1209040Y1140460D03*
X1488440Y784860D03*
D10*
X1513840Y1127760D03*
X1183640Y1127760D03*
D14*
X1273740Y1089660D03*
X1323740Y1089660D03*
X1373740Y1089660D03*
X1423740Y1089660D03*
X1423740Y835660D03*
X1373740Y835660D03*
X1323740Y835660D03*
X1273740Y835660D03*
D12*
X1203960Y848360D03*
X1214120Y848360D03*
X1432560Y937260D03*
X1442720Y937260D03*
X1432560Y962660D03*
X1442720Y962660D03*
X1432560Y988060D03*
X1442720Y988060D03*
X1254760Y1026160D03*
X1264920Y1026160D03*
D10*
X25400Y1183640D03*
X355600Y1183640D03*
D11*
X368300Y1221740D03*
X368300Y1247140D03*
X368300Y1272540D03*
X368300Y1297940D03*
X12700Y1297940D03*
D12*
X48260Y1450340D03*
X38100Y1450340D03*
X27940Y1450340D03*
D13*
X50800Y1526540D03*
X330200Y1170940D03*
D10*
X355600Y1513840D03*
X25400Y1513840D03*
D14*
X115500Y1475740D03*
X165500Y1475740D03*
X215500Y1475740D03*
X265500Y1475740D03*
X265500Y1221740D03*
X215500Y1221740D03*
X165500Y1221740D03*
X115500Y1221740D03*
D12*
X45720Y1234440D03*
X55880Y1234440D03*
X274320Y1323340D03*
X284480Y1323340D03*
X274320Y1348740D03*
X284480Y1348740D03*
X274320Y1374140D03*
X284480Y1374140D03*
X96520Y1412240D03*
X106680Y1412240D03*
D10*
X411480Y1183640D03*
X741680Y1183640D03*
D11*
X754380Y1221740D03*
X754380Y1247140D03*
X754380Y1272540D03*
X754380Y1297940D03*
X398780Y1297940D03*
D12*
X434340Y1450340D03*
X424180Y1450340D03*
X414020Y1450340D03*
D13*
X436880Y1526540D03*
X716280Y1170940D03*
D10*
X741680Y1513840D03*
X411480Y1513840D03*
D14*
X501580Y1475740D03*
X551580Y1475740D03*
X601580Y1475740D03*
X651580Y1475740D03*
X651580Y1221740D03*
X601580Y1221740D03*
X551580Y1221740D03*
X501580Y1221740D03*
D12*
X431800Y1234440D03*
X441960Y1234440D03*
X660400Y1323340D03*
X670560Y1323340D03*
X660400Y1348740D03*
X670560Y1348740D03*
X660400Y1374140D03*
X670560Y1374140D03*
X482600Y1412240D03*
X492760Y1412240D03*
D10*
X797560Y1183640D03*
X1127760Y1183640D03*
D11*
X1140460Y1221740D03*
X1140460Y1247140D03*
X1140460Y1272540D03*
X1140460Y1297940D03*
X784860Y1297940D03*
D12*
X820420Y1450340D03*
X810260Y1450340D03*
X800100Y1450340D03*
D13*
X822960Y1526540D03*
X1102360Y1170940D03*
D10*
X1127760Y1513840D03*
X797560Y1513840D03*
D14*
X887660Y1475740D03*
X937660Y1475740D03*
X987660Y1475740D03*
X1037660Y1475740D03*
X1037660Y1221740D03*
X987660Y1221740D03*
X937660Y1221740D03*
X887660Y1221740D03*
D12*
X817880Y1234440D03*
X828040Y1234440D03*
X1046480Y1323340D03*
X1056640Y1323340D03*
X1046480Y1348740D03*
X1056640Y1348740D03*
X1046480Y1374140D03*
X1056640Y1374140D03*
X868680Y1412240D03*
X878840Y1412240D03*
D10*
X1183640Y1183640D03*
X1513840Y1183640D03*
D11*
X1526540Y1221740D03*
X1526540Y1247140D03*
X1526540Y1272540D03*
X1526540Y1297940D03*
X1170940Y1297940D03*
D12*
X1206500Y1450340D03*
X1196340Y1450340D03*
X1186180Y1450340D03*
D13*
X1209040Y1526540D03*
X1488440Y1170940D03*
D10*
X1513840Y1513840D03*
X1183640Y1513840D03*
D14*
X1273740Y1475740D03*
X1323740Y1475740D03*
X1373740Y1475740D03*
X1423740Y1475740D03*
X1423740Y1221740D03*
X1373740Y1221740D03*
X1323740Y1221740D03*
X1273740Y1221740D03*
D12*
X1203960Y1234440D03*
X1214120Y1234440D03*
X1432560Y1323340D03*
X1442720Y1323340D03*
X1432560Y1348740D03*
X1442720Y1348740D03*
X1432560Y1374140D03*
X1442720Y1374140D03*
X1254760Y1412240D03*
X1264920Y1412240D03*
D13*
X68580Y1560195D03*
X1470025Y1560195D03*
M02*
