%
M48
M72
T01C0.0150
T02C0.0400
T03C0.0591
T04C0.1300
%
T01
X5796Y6650
X8246Y8400
X8996Y9651
X9665Y9219
X10696Y9600
X10996Y10350
X13296Y11100
X13296Y11600
X14746Y10650
X14746Y9650
X14746Y8850
X12996Y8100
X16746Y9850
X17146Y9250
X21996Y6650
X24446Y8400
X25196Y9651
X25865Y9219
X26896Y9600
X27196Y10350
X29496Y11100
X29496Y11600
X30946Y10650
X30946Y9650
X30946Y8850
X29196Y8100
X32946Y9850
X33346Y9250
X38196Y6650
X40646Y8400
X42065Y9219
X41396Y9651
X43096Y9600
X43396Y10350
X45696Y11100
X45696Y11600
X47146Y10650
X47146Y9650
X47146Y8850
X45396Y8100
X49146Y9850
X49546Y9250
X54396Y6650
X56846Y8400
X57596Y9651
X58265Y9219
X59296Y9600
X59596Y10350
X61896Y11100
X61896Y11600
X63346Y10650
X63346Y9650
X63346Y8850
X61596Y8100
X65346Y9850
X65746Y9250
X56096Y10850
X55646Y10150
X55596Y9750
X54996Y13650
X53596Y13850
X54396Y21850
X56846Y23600
X57596Y24851
X58265Y24419
X59296Y24800
X59596Y25550
X61896Y26300
X61896Y26800
X63346Y25850
X63346Y24850
X63346Y24050
X61596Y23300
X65346Y25050
X65746Y24450
X56096Y26050
X55646Y25350
X55596Y24950
X54996Y28850
X53596Y29050
X49146Y25050
X49546Y24450
X47146Y24050
X47146Y24850
X47146Y25850
X45696Y26300
X45696Y26800
X43396Y25550
X43096Y24800
X42065Y24419
X41396Y24851
X40646Y23600
X39396Y24950
X39446Y25350
X39896Y26050
X38796Y28850
X37396Y29050
X32946Y25050
X33346Y24450
X30946Y24050
X30946Y24850
X30946Y25850
X29496Y26300
X29496Y26800
X27196Y25550
X26896Y24800
X25865Y24419
X25196Y24851
X24446Y23600
X23196Y24950
X23246Y25350
X23696Y26050
X22596Y28850
X21196Y29050
X16746Y25050
X17146Y24450
X14746Y24050
X14746Y24850
X14746Y25850
X13296Y26300
X13296Y26800
X10996Y25550
X10696Y24800
X9665Y24419
X8996Y24851
X8246Y23600
X6996Y24950
X7046Y25350
X7496Y26050
X6396Y28850
X4996Y29050
X12996Y23300
X5796Y21850
X4996Y13850
X6396Y13650
X7496Y10850
X7046Y10150
X6996Y9750
X21196Y13850
X22596Y13650
X23696Y10850
X23246Y10150
X23196Y9750
X21996Y21850
X29196Y23300
X38196Y21850
X45396Y23300
X38796Y13650
X37396Y13850
X39896Y10850
X39446Y10150
X39396Y9750
X38196Y37050
X40646Y38800
X42065Y39619
X41396Y40051
X43096Y40000
X43396Y40750
X45696Y41500
X45696Y42000
X47146Y41050
X47146Y40050
X47146Y39250
X45396Y38500
X49146Y40250
X49546Y39650
X54396Y37050
X56846Y38800
X57596Y40051
X58265Y39619
X59296Y40000
X59596Y40750
X61896Y41500
X61896Y42000
X63346Y41050
X63346Y40050
X63346Y39250
X61596Y38500
X65346Y40250
X65746Y39650
X56096Y41250
X55646Y40550
X55596Y40150
X54996Y44050
X53596Y44250
X54396Y52250
X56846Y54000
X57596Y55251
X58265Y54819
X59296Y55200
X59596Y55950
X61896Y56700
X61896Y57200
X63346Y56250
X63346Y55250
X63346Y54450
X61596Y53700
X65346Y55450
X65746Y54850
X56096Y56450
X55646Y55750
X55596Y55350
X54996Y59250
X53596Y59450
X49146Y55450
X49546Y54850
X47146Y54450
X47146Y55250
X47146Y56250
X45696Y56700
X45696Y57200
X43396Y55950
X43096Y55200
X42065Y54819
X41396Y55251
X40646Y54000
X39396Y55350
X39446Y55750
X39896Y56450
X38796Y59250
X37396Y59450
X32946Y55450
X33346Y54850
X30946Y54450
X30946Y55250
X30946Y56250
X29496Y56700
X29496Y57200
X27196Y55950
X26896Y55200
X25865Y54819
X25196Y55251
X24446Y54000
X23196Y55350
X23246Y55750
X23696Y56450
X22596Y59250
X21196Y59450
X16746Y55450
X17146Y54850
X14746Y54450
X14746Y55250
X14746Y56250
X13296Y56700
X13296Y57200
X10996Y55950
X10696Y55200
X9665Y54819
X8996Y55251
X8246Y54000
X6996Y55350
X7046Y55750
X7496Y56450
X6396Y59250
X4996Y59450
X12996Y53700
X5796Y52250
X4996Y44250
X6396Y44050
X7496Y41250
X7046Y40550
X6996Y40150
X8246Y38800
X8996Y40051
X9665Y39619
X10696Y40000
X10996Y40750
X13296Y41500
X13296Y42000
X14746Y41050
X14746Y40050
X14746Y39250
X12996Y38500
X16746Y40250
X17146Y39650
X21996Y37050
X24446Y38800
X25196Y40051
X25865Y39619
X26896Y40000
X27196Y40750
X29496Y41500
X29496Y42000
X30946Y41050
X30946Y40050
X30946Y39250
X29196Y38500
X32946Y40250
X33346Y39650
X37396Y44250
X38796Y44050
X39896Y41250
X39446Y40550
X39396Y40150
X38196Y52250
X45396Y53700
X29196Y53700
X21996Y52250
X21196Y44250
X22596Y44050
X23696Y41250
X23246Y40550
X23196Y40150
X5796Y37050
T02
X4996Y38750
X18996Y38750
X18996Y37750
X18996Y36750
X18996Y35750
X21196Y38750
X18996Y50950
X18996Y51950
X18996Y52950
X18996Y53950
X21196Y53950
X35196Y53950
X35196Y52950
X35196Y51950
X35196Y50950
X37396Y53950
X51396Y53950
X51396Y52950
X51396Y51950
X51396Y50950
X53596Y53950
X67596Y53950
X67596Y52950
X67596Y51950
X67596Y50950
X67596Y38750
X67596Y37750
X67596Y36750
X67596Y35750
X67596Y23550
X67596Y22550
X67596Y21550
X67596Y20550
X67596Y8350
X67596Y7350
X67596Y6350
X67596Y5350
X53596Y8350
X51396Y8350
X51396Y7350
X51396Y6350
X51396Y5350
X37396Y8350
X35196Y8350
X35196Y7350
X35196Y6350
X35196Y5350
X21196Y8350
X18996Y8350
X18996Y7350
X18996Y6350
X18996Y5350
X4996Y8350
X18996Y20550
X18996Y21550
X18996Y22550
X18996Y23550
X21196Y23550
X35196Y23550
X35196Y22550
X35196Y21550
X35196Y20550
X37396Y23550
X51396Y23550
X51396Y22550
X51396Y21550
X51396Y20550
X53596Y23550
X51396Y35750
X51396Y36750
X51396Y37750
X51396Y38750
X53596Y38750
X37396Y38750
X35196Y38750
X35196Y37750
X35196Y36750
X35196Y35750
X4996Y23550
X4996Y53950
T03
X9043Y50950
X11012Y50950
X12980Y50950
X14949Y50950
X14949Y45750
X12980Y45750
X11012Y45750
X9043Y45750
X9043Y35750
X11012Y35750
X12980Y35750
X14949Y35750
X14949Y30550
X12980Y30550
X11012Y30550
X9043Y30550
X9043Y20550
X11012Y20550
X12980Y20550
X14949Y20550
X14949Y15350
X12980Y15350
X11012Y15350
X9043Y15350
X9043Y5350
X11012Y5350
X12980Y5350
X14949Y5350
X25243Y5350
X27212Y5350
X29180Y5350
X31149Y5350
X41443Y5350
X43412Y5350
X45380Y5350
X47349Y5350
X57643Y5350
X59612Y5350
X61580Y5350
X63549Y5350
X63549Y15350
X61580Y15350
X59612Y15350
X57643Y15350
X57643Y20550
X59612Y20550
X61580Y20550
X63549Y20550
X63549Y30550
X61580Y30550
X59612Y30550
X57643Y30550
X57643Y35750
X59612Y35750
X61580Y35750
X63549Y35750
X63549Y45750
X61580Y45750
X59612Y45750
X57643Y45750
X57643Y50950
X59612Y50950
X61580Y50950
X63549Y50950
X63549Y60950
X61580Y60950
X59612Y60950
X57643Y60950
X47349Y60950
X45380Y60950
X43412Y60950
X41443Y60950
X31149Y60950
X29180Y60950
X27212Y60950
X25243Y60950
X14949Y60950
X12980Y60950
X11012Y60950
X9043Y60950
X25243Y50950
X27212Y50950
X29180Y50950
X31149Y50950
X31149Y45750
X29180Y45750
X27212Y45750
X25243Y45750
X25243Y35750
X27212Y35750
X29180Y35750
X31149Y35750
X31149Y30550
X29180Y30550
X27212Y30550
X25243Y30550
X25243Y20550
X27212Y20550
X29180Y20550
X31149Y20550
X31149Y15350
X29180Y15350
X27212Y15350
X25243Y15350
X41443Y15350
X43412Y15350
X45380Y15350
X47349Y15350
X47349Y20550
X45380Y20550
X43412Y20550
X41443Y20550
X41443Y30550
X43412Y30550
X45380Y30550
X47349Y30550
X47349Y35750
X45380Y35750
X43412Y35750
X41443Y35750
X41443Y45750
X43412Y45750
X45380Y45750
X47349Y45750
X47349Y50950
X45380Y50950
X43412Y50950
X41443Y50950
T04
X5496Y3850
X18496Y3850
X21696Y3850
X34696Y3850
X37896Y3850
X50896Y3850
X54096Y3850
X67096Y3850
X67096Y16850
X67096Y19050
X54096Y19050
X54096Y16850
X50896Y16850
X50896Y19050
X37896Y19050
X37896Y16850
X34696Y16850
X34696Y19050
X21696Y19050
X21696Y16850
X18496Y16850
X18496Y19050
X5496Y19050
X5496Y16850
X5496Y32050
X5496Y34250
X18496Y34250
X18496Y32050
X21696Y32050
X21696Y34250
X34696Y34250
X34696Y32050
X37896Y32050
X37896Y34250
X50896Y34250
X50896Y32050
X54096Y32050
X54096Y34250
X67096Y34250
X67096Y32050
X67096Y47250
X67096Y49450
X54096Y49450
X54096Y47250
X50896Y47250
X50896Y49450
X37896Y49450
X37896Y47250
X34696Y47250
X34696Y49450
X21696Y49450
X21696Y47250
X18496Y47250
X18496Y49450
X5496Y49450
X5496Y47250
X5496Y62450
X18496Y62450
X21696Y62450
X34696Y62450
X37896Y62450
X50896Y62450
X54096Y62450
X67096Y62450
M30
