M48
;GenerationSoftware,Autodesk,EAGLE,9.4.2*%
;CreationDate,2020-03-13T17:59:22Z*%
FMAT,2
ICI,OFF
METRIC,TZ,000.000
T4C0.381
T3C1.016
T2C1.500
T1C3.302
%
G90
M71
T1
X2540Y79756
X35560Y151384
X2540Y2540
X35560Y2540
X35560Y35560
X2540Y35560
X41148Y2540
X74168Y2540
X74168Y35560
X41148Y35560
X79756Y2540
X112776Y2540
X112776Y35560
X79756Y35560
X118364Y2540
X151384Y2540
X151384Y35560
X118364Y35560
X2540Y41148
X35560Y41148
X35560Y74168
X2540Y74168
X41148Y41148
X74168Y41148
X74168Y74168
X41148Y74168
X79756Y41148
X112776Y41148
X112776Y74168
X79756Y74168
X118364Y41148
X151384Y41148
X151384Y74168
X118364Y74168
X118364Y151384
X35560Y79756
X35560Y112776
X2540Y112776
X41148Y79756
X74168Y79756
X74168Y112776
X41148Y112776
X79756Y79756
X112776Y79756
X112776Y112776
X79756Y112776
X118364Y79756
X151384Y79756
X151384Y112776
X118364Y112776
X2540Y118364
X35560Y118364
X2540Y151384
X41148Y118364
X74168Y118364
X74168Y151384
X41148Y151384
X79756Y118364
X112776Y118364
X112776Y151384
X79756Y151384
X118364Y118364
X151384Y118364
X151384Y151384
T2
X127374Y122174
X16550Y147574
X21550Y147574
X26550Y147574
X26550Y122174
X21550Y122174
X11550Y31750
X16550Y31750
X21550Y31750
X26550Y31750
X26550Y6350
X21550Y6350
X16550Y6350
X11550Y6350
X16550Y122174
X11550Y122174
X50158Y147574
X55158Y147574
X60158Y147574
X50158Y31750
X55158Y31750
X60158Y31750
X65158Y31750
X65158Y6350
X60158Y6350
X55158Y6350
X50158Y6350
X65158Y147574
X65158Y122174
X60158Y122174
X55158Y122174
X50158Y122174
X88766Y31750
X93766Y31750
X98766Y31750
X103766Y31750
X103766Y6350
X98766Y6350
X93766Y6350
X88766Y6350
X88766Y147574
X93766Y147574
X98766Y147574
X103766Y147574
X103766Y122174
X127374Y31750
X132374Y31750
X137374Y31750
X142374Y31750
X142374Y6350
X137374Y6350
X132374Y6350
X127374Y6350
X98766Y122174
X93766Y122174
X88766Y122174
X127374Y147574
X132374Y147574
X11550Y70358
X16550Y70358
X21550Y70358
X26550Y70358
X26550Y44958
X21550Y44958
X16550Y44958
X11550Y44958
X137374Y147574
X142374Y147574
X142374Y122174
X137374Y122174
X132374Y122174
X50158Y70358
X55158Y70358
X60158Y70358
X65158Y70358
X65158Y44958
X60158Y44958
X55158Y44958
X50158Y44958
X88766Y70358
X93766Y70358
X98766Y70358
X103766Y70358
X103766Y44958
X98766Y44958
X93766Y44958
X88766Y44958
X127374Y70358
X132374Y70358
X137374Y70358
X142374Y70358
X142374Y44958
X137374Y44958
X132374Y44958
X127374Y44958
X11550Y108966
X16550Y108966
X21550Y108966
X26550Y108966
X26550Y83566
X21550Y83566
X16550Y83566
X11550Y83566
X50158Y108966
X55158Y108966
X60158Y108966
X65158Y108966
X65158Y83566
X60158Y83566
X55158Y83566
X50158Y83566
X88766Y108966
X93766Y108966
X98766Y108966
X103766Y108966
X103766Y83566
X98766Y83566
X93766Y83566
X88766Y83566
X127374Y108966
X132374Y108966
X137374Y108966
X142374Y108966
X142374Y83566
X137374Y83566
X132374Y83566
X127374Y83566
X11550Y147574
T3
X36830Y6350
X36830Y8890
X36830Y11430
X36830Y13970
X1270Y13970
X75438Y6350
X75438Y8890
X75438Y11430
X75438Y13970
X39878Y13970
X114046Y6350
X114046Y8890
X114046Y11430
X114046Y13970
X78486Y13970
X152654Y6350
X152654Y8890
X152654Y11430
X152654Y13970
X117094Y13970
X36830Y44958
X36830Y47498
X36830Y50038
X36830Y52578
X1270Y52578
X75438Y44958
X75438Y47498
X75438Y50038
X75438Y52578
X39878Y52578
X36830Y127254
X36830Y129794
X1270Y129794
X36830Y88646
X36830Y91186
X1270Y91186
X152654Y52578
X114046Y83566
X114046Y86106
X114046Y88646
X78486Y91186
X75438Y122174
X75438Y124714
X75438Y127254
X75438Y129794
X39878Y129794
X117094Y52578
X114046Y52578
X78486Y52578
X114046Y44958
X114046Y47498
X114046Y50038
X152654Y44958
X75438Y83566
X114046Y122174
X114046Y124714
X114046Y127254
X114046Y129794
X78486Y129794
X152654Y83566
X152654Y86106
X152654Y88646
X152654Y91186
X117094Y91186
X75438Y86106
X75438Y88646
X75438Y91186
X152654Y122174
X152654Y124714
X152654Y127254
X152654Y129794
X117094Y129794
X39878Y91186
X152654Y47498
X152654Y50038
X36830Y83566
X36830Y86106
X36830Y122174
X36830Y124714
X114046Y91186
T4
X44958Y133350
X54356Y132969
X60960Y136779
X60198Y129159
X60960Y138049
X55118Y134874
X41910Y125476
X46990Y139954
X84836Y136144
X108331Y133604
X109347Y132080
X86741Y129921
X82042Y143256
X78486Y143764
X88646Y133098
X103251Y131064
X103251Y133096
X103251Y135636
X90345Y132001
X83693Y134366
X83566Y133350
X92964Y132969
X99568Y136779
X98806Y129159
X138176Y20955
X93726Y134874
X80518Y125476
X85598Y139954
X123444Y136144
X146939Y133604
X147955Y132080
X125349Y129921
X120650Y143256
X117094Y143764
X127254Y133098
X141859Y131064
X141859Y133096
X141859Y135636
X128953Y132001
X122301Y134366
X122174Y133350
X131572Y132969
X138176Y136779
X137414Y129159
X138176Y138049
X132334Y134874
X119126Y125476
X124206Y139954
X7620Y20320
X31115Y17780
X32131Y16256
X9525Y14097
X4826Y27432
X1270Y27940
X11430Y17274
X26035Y15240
X26035Y17272
X26035Y19812
X13129Y16177
X6477Y18542
X6350Y17526
X15748Y17145
X22352Y20955
X21590Y13335
X22352Y22225
X16510Y19050
X3302Y9652
X8382Y24130
X46228Y20320
X69723Y17780
X70739Y16256
X48133Y14097
X43434Y27432
X39878Y27940
X50038Y17274
X64643Y15240
X64643Y17272
X64643Y19812
X51737Y16177
X45085Y18542
X44958Y17526
X54356Y17145
X60960Y20955
X60198Y13335
X60960Y22225
X55118Y19050
X41910Y9652
X46990Y24130
X84836Y20320
X108331Y17780
X109347Y16256
X86741Y14097
X82042Y27432
X78486Y27940
X88646Y17274
X103251Y15240
X103251Y17272
X103251Y19812
X99568Y138049
X90345Y16177
X83693Y18542
X83566Y17526
X92964Y17145
X99568Y20955
X98806Y13335
X99568Y22225
X93726Y19050
X80518Y9652
X85598Y24130
X123444Y20320
X146939Y17780
X147955Y16256
X125349Y14097
X120650Y27432
X117094Y27940
X127254Y17274
X141859Y15240
X141859Y17272
X141859Y19812
X128953Y16177
X122301Y18542
X122174Y17526
X131572Y17145
X137414Y13335
X138176Y22225
X132334Y19050
X119126Y9652
X124206Y24130
X7620Y58928
X31115Y56388
X32131Y54864
X9525Y52705
X4826Y66040
X1270Y66548
X11430Y55882
X26035Y53848
X26035Y55880
X26035Y58420
X13129Y54785
X6477Y57150
X6350Y56134
X15748Y55753
X22352Y59563
X21590Y51943
X22352Y60833
X16510Y57658
X3302Y48260
X8382Y62738
X46228Y58928
X69723Y56388
X70739Y54864
X48133Y52705
X43434Y66040
X39878Y66548
X50038Y55882
X64643Y53848
X64643Y55880
X64643Y58420
X51737Y54785
X45085Y57150
X44958Y56134
X54356Y55753
X60960Y59563
X60198Y51943
X60960Y60833
X55118Y57658
X41910Y48260
X46990Y62738
X84836Y58928
X108331Y56388
X109347Y54864
X86741Y52705
X82042Y66040
X78486Y66548
X88646Y55882
X103251Y53848
X103251Y55880
X103251Y58420
X90345Y54785
X83693Y57150
X83566Y56134
X92964Y55753
X99568Y59563
X98806Y51943
X99568Y60833
X93726Y57658
X80518Y48260
X85598Y62738
X123444Y58928
X146939Y56388
X147955Y54864
X125349Y52705
X120650Y66040
X117094Y66548
X127254Y55882
X141859Y53848
X141859Y55880
X141859Y58420
X128953Y54785
X122301Y57150
X122174Y56134
X131572Y55753
X138176Y59563
X137414Y51943
X138176Y60833
X132334Y57658
X119126Y48260
X124206Y62738
X7620Y97536
X31115Y94996
X32131Y93472
X9525Y91313
X4826Y104648
X1270Y105156
X11430Y94490
X26035Y92456
X26035Y94488
X26035Y97028
X13129Y93393
X6477Y95758
X6350Y94742
X15748Y94361
X22352Y98171
X21590Y90551
X22352Y99441
X16510Y96266
X3302Y86868
X8382Y101346
X46228Y97536
X69723Y94996
X70739Y93472
X48133Y91313
X43434Y104648
X39878Y105156
X50038Y94490
X64643Y92456
X64643Y94488
X64643Y97028
X51737Y93393
X45085Y95758
X44958Y94742
X54356Y94361
X60960Y98171
X60198Y90551
X60960Y99441
X147955Y93472
X55118Y96266
X41910Y86868
X46990Y101346
X84836Y97536
X108331Y94996
X109347Y93472
X86741Y91313
X82042Y104648
X78486Y105156
X88646Y94490
X103251Y92456
X103251Y94488
X103251Y97028
X90345Y93393
X83693Y95758
X83566Y94742
X92964Y94361
X99568Y98171
X98806Y90551
X99568Y99441
X93726Y96266
X80518Y86868
X85598Y101346
X123444Y97536
X146939Y94996
X125349Y91313
X120650Y104648
X117094Y105156
X127254Y94490
X141859Y92456
X141859Y94488
X141859Y97028
X128953Y93393
X122301Y95758
X122174Y94742
X131572Y94361
X138176Y98171
X137414Y90551
X138176Y99441
X132334Y96266
X119126Y86868
X124206Y101346
X7620Y136144
X31115Y133604
X32131Y132080
X9525Y129921
X4826Y143256
X1270Y143764
X11430Y133098
X26035Y131064
X26035Y133096
X26035Y135636
X13129Y132001
X6477Y134366
X6350Y133350
X15748Y132969
X22352Y136779
X21590Y129159
X22352Y138049
X16510Y134874
X3302Y125476
X8382Y139954
X46228Y136144
X69723Y133604
X70739Y132080
X48133Y129921
X43434Y143256
X39878Y143764
X50038Y133098
X64643Y131064
X64643Y133096
X64643Y135636
X51737Y132001
X45085Y134366
M30