G75*
%MOIN*%
%OFA0B0*%
%FSLAX25Y25*%
%IPPOS*%
%LPD*%
%AMOC8*
5,1,8,0,0,1.08239X$1,22.5*
%
%ADD10R,0.07874X0.04724*%
%ADD11R,0.05315X0.02362*%
%ADD12R,0.04331X0.03937*%
%ADD13R,0.03937X0.04331*%
%ADD14R,0.05500X0.02550*%
D10*
X0050493Y0092476D03*
X0050493Y0114524D03*
X0189430Y0114524D03*
X0212493Y0114524D03*
X0212493Y0092476D03*
X0189430Y0092476D03*
X0351430Y0092476D03*
X0374493Y0092476D03*
X0374493Y0114524D03*
X0351430Y0114524D03*
X0351430Y0244476D03*
X0374493Y0244476D03*
X0374493Y0266524D03*
X0351430Y0266524D03*
X0212493Y0266524D03*
X0189430Y0266524D03*
X0189430Y0244476D03*
X0212493Y0244476D03*
X0050493Y0244476D03*
X0050493Y0266524D03*
X0050493Y0396476D03*
X0050493Y0418524D03*
X0189430Y0418524D03*
X0212493Y0418524D03*
X0212493Y0396476D03*
X0189430Y0396476D03*
X0351430Y0396476D03*
X0374493Y0396476D03*
X0374493Y0418524D03*
X0351430Y0418524D03*
X0351430Y0548476D03*
X0374493Y0548476D03*
X0374493Y0570524D03*
X0351430Y0570524D03*
X0212493Y0570524D03*
X0189430Y0570524D03*
X0189430Y0548476D03*
X0212493Y0548476D03*
X0050493Y0548476D03*
X0050493Y0570524D03*
X0513430Y0570524D03*
X0536493Y0570524D03*
X0536493Y0548476D03*
X0513430Y0548476D03*
X0513430Y0418524D03*
X0536493Y0418524D03*
X0536493Y0396476D03*
X0513430Y0396476D03*
X0513430Y0266524D03*
X0536493Y0266524D03*
X0536493Y0244476D03*
X0513430Y0244476D03*
X0513430Y0114524D03*
X0536493Y0114524D03*
X0536493Y0092476D03*
X0513430Y0092476D03*
X0675430Y0092476D03*
X0675430Y0114524D03*
X0675430Y0244476D03*
X0675430Y0266524D03*
X0675430Y0396476D03*
X0675430Y0418524D03*
X0675430Y0548476D03*
X0675430Y0570524D03*
D11*
X0660962Y0565406D03*
X0660962Y0561469D03*
X0660962Y0557531D03*
X0660962Y0553594D03*
X0550962Y0553594D03*
X0550962Y0557531D03*
X0550962Y0561469D03*
X0550962Y0565406D03*
X0498962Y0565406D03*
X0498962Y0561469D03*
X0498962Y0557531D03*
X0498962Y0553594D03*
X0388962Y0553594D03*
X0388962Y0557531D03*
X0388962Y0561469D03*
X0388962Y0565406D03*
X0336962Y0565406D03*
X0336962Y0561469D03*
X0336962Y0557531D03*
X0336962Y0553594D03*
X0226962Y0553594D03*
X0226962Y0557531D03*
X0226962Y0561469D03*
X0226962Y0565406D03*
X0174962Y0565406D03*
X0174962Y0561469D03*
X0174962Y0557531D03*
X0174962Y0553594D03*
X0064962Y0553594D03*
X0064962Y0557531D03*
X0064962Y0561469D03*
X0064962Y0565406D03*
X0064962Y0413406D03*
X0064962Y0409469D03*
X0064962Y0405531D03*
X0064962Y0401594D03*
X0174962Y0401594D03*
X0174962Y0405531D03*
X0174962Y0409469D03*
X0174962Y0413406D03*
X0226962Y0413406D03*
X0226962Y0409469D03*
X0226962Y0405531D03*
X0226962Y0401594D03*
X0336962Y0401594D03*
X0336962Y0405531D03*
X0336962Y0409469D03*
X0336962Y0413406D03*
X0388962Y0413406D03*
X0388962Y0409469D03*
X0388962Y0405531D03*
X0388962Y0401594D03*
X0498962Y0401594D03*
X0498962Y0405531D03*
X0498962Y0409469D03*
X0498962Y0413406D03*
X0550962Y0413406D03*
X0550962Y0409469D03*
X0550962Y0405531D03*
X0550962Y0401594D03*
X0660962Y0401594D03*
X0660962Y0405531D03*
X0660962Y0409469D03*
X0660962Y0413406D03*
X0660962Y0261406D03*
X0660962Y0257469D03*
X0660962Y0253531D03*
X0660962Y0249594D03*
X0550962Y0249594D03*
X0550962Y0253531D03*
X0550962Y0257469D03*
X0550962Y0261406D03*
X0498962Y0261406D03*
X0498962Y0257469D03*
X0498962Y0253531D03*
X0498962Y0249594D03*
X0388962Y0249594D03*
X0388962Y0253531D03*
X0388962Y0257469D03*
X0388962Y0261406D03*
X0336962Y0261406D03*
X0336962Y0257469D03*
X0336962Y0253531D03*
X0336962Y0249594D03*
X0226962Y0249594D03*
X0226962Y0253531D03*
X0226962Y0257469D03*
X0226962Y0261406D03*
X0174962Y0261406D03*
X0174962Y0257469D03*
X0174962Y0253531D03*
X0174962Y0249594D03*
X0064962Y0249594D03*
X0064962Y0253531D03*
X0064962Y0257469D03*
X0064962Y0261406D03*
X0064962Y0109406D03*
X0064962Y0105469D03*
X0064962Y0101531D03*
X0064962Y0097594D03*
X0174962Y0097594D03*
X0174962Y0101531D03*
X0174962Y0105469D03*
X0174962Y0109406D03*
X0226962Y0109406D03*
X0226962Y0105469D03*
X0226962Y0101531D03*
X0226962Y0097594D03*
X0336962Y0097594D03*
X0336962Y0101531D03*
X0336962Y0105469D03*
X0336962Y0109406D03*
X0388962Y0109406D03*
X0388962Y0105469D03*
X0388962Y0101531D03*
X0388962Y0097594D03*
X0498962Y0097594D03*
X0498962Y0101531D03*
X0498962Y0105469D03*
X0498962Y0109406D03*
X0550962Y0109406D03*
X0550962Y0105469D03*
X0550962Y0101531D03*
X0550962Y0097594D03*
X0660962Y0097594D03*
X0660962Y0101531D03*
X0660962Y0105469D03*
X0660962Y0109406D03*
D12*
X0051615Y0073500D03*
X0058308Y0073500D03*
X0086615Y0088500D03*
X0093308Y0088500D03*
X0151615Y0083500D03*
X0158308Y0083500D03*
X0158308Y0093500D03*
X0151615Y0093500D03*
X0151615Y0103500D03*
X0158308Y0103500D03*
X0213615Y0073500D03*
X0220308Y0073500D03*
X0248615Y0088500D03*
X0255308Y0088500D03*
X0313615Y0083500D03*
X0320308Y0083500D03*
X0320308Y0093500D03*
X0313615Y0093500D03*
X0313615Y0103500D03*
X0320308Y0103500D03*
X0375615Y0073500D03*
X0382308Y0073500D03*
X0410615Y0088500D03*
X0417308Y0088500D03*
X0475615Y0083500D03*
X0482308Y0083500D03*
X0482308Y0093500D03*
X0475615Y0093500D03*
X0475615Y0103500D03*
X0482308Y0103500D03*
X0537615Y0073500D03*
X0544308Y0073500D03*
X0572615Y0088500D03*
X0579308Y0088500D03*
X0637615Y0083500D03*
X0644308Y0083500D03*
X0644308Y0093500D03*
X0637615Y0093500D03*
X0637615Y0103500D03*
X0644308Y0103500D03*
X0544308Y0225500D03*
X0537615Y0225500D03*
X0572615Y0240500D03*
X0579308Y0240500D03*
X0637615Y0235500D03*
X0644308Y0235500D03*
X0644308Y0245500D03*
X0637615Y0245500D03*
X0637615Y0255500D03*
X0644308Y0255500D03*
X0544308Y0377500D03*
X0537615Y0377500D03*
X0572615Y0392500D03*
X0579308Y0392500D03*
X0637615Y0387500D03*
X0644308Y0387500D03*
X0644308Y0397500D03*
X0637615Y0397500D03*
X0637615Y0407500D03*
X0644308Y0407500D03*
X0544308Y0529500D03*
X0537615Y0529500D03*
X0572615Y0544500D03*
X0579308Y0544500D03*
X0637615Y0539500D03*
X0644308Y0539500D03*
X0644308Y0549500D03*
X0637615Y0549500D03*
X0637615Y0559500D03*
X0644308Y0559500D03*
X0482308Y0559500D03*
X0475615Y0559500D03*
X0475615Y0549500D03*
X0482308Y0549500D03*
X0482308Y0539500D03*
X0475615Y0539500D03*
X0417308Y0544500D03*
X0410615Y0544500D03*
X0382308Y0529500D03*
X0375615Y0529500D03*
X0320308Y0539500D03*
X0313615Y0539500D03*
X0313615Y0549500D03*
X0320308Y0549500D03*
X0320308Y0559500D03*
X0313615Y0559500D03*
X0255308Y0544500D03*
X0248615Y0544500D03*
X0220308Y0529500D03*
X0213615Y0529500D03*
X0158308Y0539500D03*
X0151615Y0539500D03*
X0151615Y0549500D03*
X0158308Y0549500D03*
X0158308Y0559500D03*
X0151615Y0559500D03*
X0093308Y0544500D03*
X0086615Y0544500D03*
X0058308Y0529500D03*
X0051615Y0529500D03*
X0151615Y0407500D03*
X0158308Y0407500D03*
X0158308Y0397500D03*
X0151615Y0397500D03*
X0151615Y0387500D03*
X0158308Y0387500D03*
X0213615Y0377500D03*
X0220308Y0377500D03*
X0248615Y0392500D03*
X0255308Y0392500D03*
X0313615Y0387500D03*
X0320308Y0387500D03*
X0320308Y0397500D03*
X0313615Y0397500D03*
X0313615Y0407500D03*
X0320308Y0407500D03*
X0375615Y0377500D03*
X0382308Y0377500D03*
X0410615Y0392500D03*
X0417308Y0392500D03*
X0475615Y0387500D03*
X0482308Y0387500D03*
X0482308Y0397500D03*
X0475615Y0397500D03*
X0475615Y0407500D03*
X0482308Y0407500D03*
X0482308Y0255500D03*
X0475615Y0255500D03*
X0475615Y0245500D03*
X0482308Y0245500D03*
X0482308Y0235500D03*
X0475615Y0235500D03*
X0417308Y0240500D03*
X0410615Y0240500D03*
X0382308Y0225500D03*
X0375615Y0225500D03*
X0320308Y0235500D03*
X0313615Y0235500D03*
X0313615Y0245500D03*
X0320308Y0245500D03*
X0320308Y0255500D03*
X0313615Y0255500D03*
X0255308Y0240500D03*
X0248615Y0240500D03*
X0220308Y0225500D03*
X0213615Y0225500D03*
X0158308Y0235500D03*
X0151615Y0235500D03*
X0151615Y0245500D03*
X0158308Y0245500D03*
X0158308Y0255500D03*
X0151615Y0255500D03*
X0093308Y0240500D03*
X0086615Y0240500D03*
X0058308Y0225500D03*
X0051615Y0225500D03*
X0051615Y0377500D03*
X0058308Y0377500D03*
X0086615Y0392500D03*
X0093308Y0392500D03*
D13*
X0059962Y0429154D03*
X0059962Y0435846D03*
X0049962Y0435846D03*
X0049962Y0429154D03*
X0211962Y0429154D03*
X0211962Y0435846D03*
X0221962Y0435846D03*
X0221962Y0429154D03*
X0373962Y0429154D03*
X0373962Y0435846D03*
X0383962Y0435846D03*
X0383962Y0429154D03*
X0535962Y0429154D03*
X0535962Y0435846D03*
X0545962Y0435846D03*
X0545962Y0429154D03*
X0545962Y0283846D03*
X0545962Y0277154D03*
X0535962Y0277154D03*
X0535962Y0283846D03*
X0383962Y0283846D03*
X0383962Y0277154D03*
X0373962Y0277154D03*
X0373962Y0283846D03*
X0221962Y0283846D03*
X0221962Y0277154D03*
X0211962Y0277154D03*
X0211962Y0283846D03*
X0059962Y0283846D03*
X0059962Y0277154D03*
X0049962Y0277154D03*
X0049962Y0283846D03*
X0049962Y0131846D03*
X0049962Y0125154D03*
X0059962Y0125154D03*
X0059962Y0131846D03*
X0211962Y0131846D03*
X0211962Y0125154D03*
X0221962Y0125154D03*
X0221962Y0131846D03*
X0373962Y0131846D03*
X0373962Y0125154D03*
X0383962Y0125154D03*
X0383962Y0131846D03*
X0535962Y0131846D03*
X0535962Y0125154D03*
X0545962Y0125154D03*
X0545962Y0131846D03*
X0545962Y0581154D03*
X0545962Y0587846D03*
X0535962Y0587846D03*
X0535962Y0581154D03*
X0383962Y0581154D03*
X0383962Y0587846D03*
X0373962Y0587846D03*
X0373962Y0581154D03*
X0221962Y0581154D03*
X0221962Y0587846D03*
X0211962Y0587846D03*
X0211962Y0581154D03*
X0059962Y0581154D03*
X0059962Y0587846D03*
X0049962Y0587846D03*
X0049962Y0581154D03*
D14*
X0101655Y0577000D03*
X0101655Y0572000D03*
X0101655Y0567000D03*
X0101655Y0562000D03*
X0101655Y0557000D03*
X0101655Y0552000D03*
X0101655Y0547000D03*
X0101655Y0542000D03*
X0138269Y0542000D03*
X0138269Y0547000D03*
X0138269Y0552000D03*
X0138269Y0557000D03*
X0138269Y0562000D03*
X0138269Y0567000D03*
X0138269Y0572000D03*
X0138269Y0577000D03*
X0263655Y0577000D03*
X0263655Y0572000D03*
X0263655Y0567000D03*
X0263655Y0562000D03*
X0263655Y0557000D03*
X0263655Y0552000D03*
X0263655Y0547000D03*
X0263655Y0542000D03*
X0300269Y0542000D03*
X0300269Y0547000D03*
X0300269Y0552000D03*
X0300269Y0557000D03*
X0300269Y0562000D03*
X0300269Y0567000D03*
X0300269Y0572000D03*
X0300269Y0577000D03*
X0425655Y0577000D03*
X0425655Y0572000D03*
X0425655Y0567000D03*
X0425655Y0562000D03*
X0425655Y0557000D03*
X0425655Y0552000D03*
X0425655Y0547000D03*
X0425655Y0542000D03*
X0462269Y0542000D03*
X0462269Y0547000D03*
X0462269Y0552000D03*
X0462269Y0557000D03*
X0462269Y0562000D03*
X0462269Y0567000D03*
X0462269Y0572000D03*
X0462269Y0577000D03*
X0587655Y0577000D03*
X0587655Y0572000D03*
X0587655Y0567000D03*
X0587655Y0562000D03*
X0587655Y0557000D03*
X0587655Y0552000D03*
X0587655Y0547000D03*
X0587655Y0542000D03*
X0624269Y0542000D03*
X0624269Y0547000D03*
X0624269Y0552000D03*
X0624269Y0557000D03*
X0624269Y0562000D03*
X0624269Y0567000D03*
X0624269Y0572000D03*
X0624269Y0577000D03*
X0624269Y0425000D03*
X0624269Y0420000D03*
X0624269Y0415000D03*
X0624269Y0410000D03*
X0624269Y0405000D03*
X0624269Y0400000D03*
X0624269Y0395000D03*
X0624269Y0390000D03*
X0587655Y0390000D03*
X0587655Y0395000D03*
X0587655Y0400000D03*
X0587655Y0405000D03*
X0587655Y0410000D03*
X0587655Y0415000D03*
X0587655Y0420000D03*
X0587655Y0425000D03*
X0462269Y0425000D03*
X0462269Y0420000D03*
X0462269Y0415000D03*
X0462269Y0410000D03*
X0462269Y0405000D03*
X0462269Y0400000D03*
X0462269Y0395000D03*
X0462269Y0390000D03*
X0425655Y0390000D03*
X0425655Y0395000D03*
X0425655Y0400000D03*
X0425655Y0405000D03*
X0425655Y0410000D03*
X0425655Y0415000D03*
X0425655Y0420000D03*
X0425655Y0425000D03*
X0300269Y0425000D03*
X0300269Y0420000D03*
X0300269Y0415000D03*
X0300269Y0410000D03*
X0300269Y0405000D03*
X0300269Y0400000D03*
X0300269Y0395000D03*
X0300269Y0390000D03*
X0263655Y0390000D03*
X0263655Y0395000D03*
X0263655Y0400000D03*
X0263655Y0405000D03*
X0263655Y0410000D03*
X0263655Y0415000D03*
X0263655Y0420000D03*
X0263655Y0425000D03*
X0138269Y0425000D03*
X0138269Y0420000D03*
X0138269Y0415000D03*
X0138269Y0410000D03*
X0138269Y0405000D03*
X0138269Y0400000D03*
X0138269Y0395000D03*
X0138269Y0390000D03*
X0101655Y0390000D03*
X0101655Y0395000D03*
X0101655Y0400000D03*
X0101655Y0405000D03*
X0101655Y0410000D03*
X0101655Y0415000D03*
X0101655Y0420000D03*
X0101655Y0425000D03*
X0101655Y0273000D03*
X0101655Y0268000D03*
X0101655Y0263000D03*
X0101655Y0258000D03*
X0101655Y0253000D03*
X0101655Y0248000D03*
X0101655Y0243000D03*
X0101655Y0238000D03*
X0138269Y0238000D03*
X0138269Y0243000D03*
X0138269Y0248000D03*
X0138269Y0253000D03*
X0138269Y0258000D03*
X0138269Y0263000D03*
X0138269Y0268000D03*
X0138269Y0273000D03*
X0263655Y0273000D03*
X0263655Y0268000D03*
X0263655Y0263000D03*
X0263655Y0258000D03*
X0263655Y0253000D03*
X0263655Y0248000D03*
X0263655Y0243000D03*
X0263655Y0238000D03*
X0300269Y0238000D03*
X0300269Y0243000D03*
X0300269Y0248000D03*
X0300269Y0253000D03*
X0300269Y0258000D03*
X0300269Y0263000D03*
X0300269Y0268000D03*
X0300269Y0273000D03*
X0425655Y0273000D03*
X0425655Y0268000D03*
X0425655Y0263000D03*
X0425655Y0258000D03*
X0425655Y0253000D03*
X0425655Y0248000D03*
X0425655Y0243000D03*
X0425655Y0238000D03*
X0462269Y0238000D03*
X0462269Y0243000D03*
X0462269Y0248000D03*
X0462269Y0253000D03*
X0462269Y0258000D03*
X0462269Y0263000D03*
X0462269Y0268000D03*
X0462269Y0273000D03*
X0587655Y0273000D03*
X0587655Y0268000D03*
X0587655Y0263000D03*
X0587655Y0258000D03*
X0587655Y0253000D03*
X0587655Y0248000D03*
X0587655Y0243000D03*
X0587655Y0238000D03*
X0624269Y0238000D03*
X0624269Y0243000D03*
X0624269Y0248000D03*
X0624269Y0253000D03*
X0624269Y0258000D03*
X0624269Y0263000D03*
X0624269Y0268000D03*
X0624269Y0273000D03*
X0624269Y0121000D03*
X0624269Y0116000D03*
X0624269Y0111000D03*
X0624269Y0106000D03*
X0624269Y0101000D03*
X0624269Y0096000D03*
X0624269Y0091000D03*
X0624269Y0086000D03*
X0587655Y0086000D03*
X0587655Y0091000D03*
X0587655Y0096000D03*
X0587655Y0101000D03*
X0587655Y0106000D03*
X0587655Y0111000D03*
X0587655Y0116000D03*
X0587655Y0121000D03*
X0462269Y0121000D03*
X0462269Y0116000D03*
X0462269Y0111000D03*
X0462269Y0106000D03*
X0462269Y0101000D03*
X0462269Y0096000D03*
X0462269Y0091000D03*
X0462269Y0086000D03*
X0425655Y0086000D03*
X0425655Y0091000D03*
X0425655Y0096000D03*
X0425655Y0101000D03*
X0425655Y0106000D03*
X0425655Y0111000D03*
X0425655Y0116000D03*
X0425655Y0121000D03*
X0300269Y0121000D03*
X0300269Y0116000D03*
X0300269Y0111000D03*
X0300269Y0106000D03*
X0300269Y0101000D03*
X0300269Y0096000D03*
X0300269Y0091000D03*
X0300269Y0086000D03*
X0263655Y0086000D03*
X0263655Y0091000D03*
X0263655Y0096000D03*
X0263655Y0101000D03*
X0263655Y0106000D03*
X0263655Y0111000D03*
X0263655Y0116000D03*
X0263655Y0121000D03*
X0138269Y0121000D03*
X0138269Y0116000D03*
X0138269Y0111000D03*
X0138269Y0106000D03*
X0138269Y0101000D03*
X0138269Y0096000D03*
X0138269Y0091000D03*
X0138269Y0086000D03*
X0101655Y0086000D03*
X0101655Y0091000D03*
X0101655Y0096000D03*
X0101655Y0101000D03*
X0101655Y0106000D03*
X0101655Y0111000D03*
X0101655Y0116000D03*
X0101655Y0121000D03*
M02*
