G75*
%MOIN*%
%OFA0B0*%
%FSLAX25Y25*%
%IPPOS*%
%LPD*%
%AMOC8*
5,1,8,0,0,1.08239X$1,22.5*
%
%ADD10C,0.00800*%
%ADD11C,0.01000*%
%ADD12C,0.00600*%
%ADD13C,0.00000*%
D10*
X0002560Y0006000D02*
X0002560Y0106000D01*
X0122560Y0106000D01*
X0122560Y0006000D01*
X0002560Y0006000D01*
X0124560Y0006000D02*
X0124560Y0106000D01*
X0244560Y0106000D01*
X0244560Y0006000D01*
X0124560Y0006000D01*
X0246560Y0006000D02*
X0246560Y0106000D01*
X0366560Y0106000D01*
X0366560Y0006000D01*
X0246560Y0006000D01*
X0246560Y0108000D02*
X0246560Y0208000D01*
X0366560Y0208000D01*
X0366560Y0108000D01*
X0246560Y0108000D01*
X0244560Y0108000D02*
X0124560Y0108000D01*
X0124560Y0208000D01*
X0244560Y0208000D01*
X0244560Y0108000D01*
X0122560Y0108000D02*
X0002560Y0108000D01*
X0002560Y0208000D01*
X0122560Y0208000D01*
X0122560Y0108000D01*
X0122560Y0210000D02*
X0002560Y0210000D01*
X0002560Y0310000D01*
X0122560Y0310000D01*
X0122560Y0210000D01*
X0124560Y0210000D02*
X0124560Y0310000D01*
X0244560Y0310000D01*
X0244560Y0210000D01*
X0124560Y0210000D01*
X0246560Y0210000D02*
X0246560Y0310000D01*
X0366560Y0310000D01*
X0366560Y0210000D01*
X0246560Y0210000D01*
D11*
X0393560Y0209000D02*
X0002560Y0209000D01*
X0002560Y0107000D02*
X0393560Y0107000D01*
X0245560Y0006000D02*
X0245560Y0337000D01*
X0123560Y0337000D02*
X0123560Y0006000D01*
D12*
X0423860Y0109569D02*
X0424994Y0107300D01*
X0426129Y0109569D01*
X0427543Y0109001D02*
X0429812Y0109001D01*
X0431226Y0109001D02*
X0431793Y0109569D01*
X0433495Y0109569D01*
X0432928Y0108434D02*
X0431793Y0108434D01*
X0431226Y0109001D01*
X0431226Y0107300D02*
X0432928Y0107300D01*
X0433495Y0107867D01*
X0432928Y0108434D01*
X0434909Y0107867D02*
X0435477Y0107300D01*
X0437178Y0107300D01*
X0438593Y0107867D02*
X0439160Y0107300D01*
X0440294Y0107300D01*
X0440861Y0107867D01*
X0440861Y0109001D01*
X0440294Y0109569D01*
X0439160Y0109569D01*
X0438593Y0109001D01*
X0438593Y0107867D01*
X0437178Y0109569D02*
X0435477Y0109569D01*
X0434909Y0109001D01*
X0434909Y0107867D01*
X0442276Y0107300D02*
X0442276Y0109569D01*
X0443410Y0109569D02*
X0443977Y0109569D01*
X0443410Y0109569D02*
X0442276Y0108434D01*
X0445345Y0108434D02*
X0447614Y0108434D01*
X0447614Y0109001D01*
X0447046Y0109569D01*
X0445912Y0109569D01*
X0445345Y0109001D01*
X0445345Y0107867D01*
X0445912Y0107300D01*
X0447046Y0107300D01*
X0447046Y0209300D02*
X0445912Y0209300D01*
X0445345Y0209867D01*
X0445345Y0211001D01*
X0445912Y0211569D01*
X0447046Y0211569D01*
X0447614Y0211001D01*
X0447614Y0210434D01*
X0445345Y0210434D01*
X0443977Y0211569D02*
X0443410Y0211569D01*
X0442276Y0210434D01*
X0442276Y0209300D02*
X0442276Y0211569D01*
X0440861Y0211001D02*
X0440294Y0211569D01*
X0439160Y0211569D01*
X0438593Y0211001D01*
X0438593Y0209867D01*
X0439160Y0209300D01*
X0440294Y0209300D01*
X0440861Y0209867D01*
X0440861Y0211001D01*
X0437178Y0211569D02*
X0435477Y0211569D01*
X0434909Y0211001D01*
X0434909Y0209867D01*
X0435477Y0209300D01*
X0437178Y0209300D01*
X0433495Y0209867D02*
X0432928Y0210434D01*
X0431793Y0210434D01*
X0431226Y0211001D01*
X0431793Y0211569D01*
X0433495Y0211569D01*
X0433495Y0209867D02*
X0432928Y0209300D01*
X0431226Y0209300D01*
X0429812Y0211001D02*
X0427543Y0211001D01*
X0426129Y0211569D02*
X0424994Y0209300D01*
X0423860Y0211569D01*
X0269046Y0346300D02*
X0267912Y0346300D01*
X0267345Y0346867D01*
X0267345Y0348001D01*
X0267912Y0348569D01*
X0269046Y0348569D01*
X0269614Y0348001D01*
X0269614Y0347434D01*
X0267345Y0347434D01*
X0265977Y0348569D02*
X0265410Y0348569D01*
X0264276Y0347434D01*
X0264276Y0346300D02*
X0264276Y0348569D01*
X0262861Y0348001D02*
X0262294Y0348569D01*
X0261160Y0348569D01*
X0260593Y0348001D01*
X0260593Y0346867D01*
X0261160Y0346300D01*
X0262294Y0346300D01*
X0262861Y0346867D01*
X0262861Y0348001D01*
X0259178Y0348569D02*
X0257477Y0348569D01*
X0256909Y0348001D01*
X0256909Y0346867D01*
X0257477Y0346300D01*
X0259178Y0346300D01*
X0255495Y0346867D02*
X0254928Y0347434D01*
X0253793Y0347434D01*
X0253226Y0348001D01*
X0253793Y0348569D01*
X0255495Y0348569D01*
X0255495Y0346867D02*
X0254928Y0346300D01*
X0253226Y0346300D01*
X0251812Y0348001D02*
X0249543Y0348001D01*
X0248129Y0348569D02*
X0246994Y0346300D01*
X0245860Y0348569D01*
X0147614Y0348001D02*
X0147614Y0347434D01*
X0145345Y0347434D01*
X0145345Y0346867D02*
X0145345Y0348001D01*
X0145912Y0348569D01*
X0147046Y0348569D01*
X0147614Y0348001D01*
X0147046Y0346300D02*
X0145912Y0346300D01*
X0145345Y0346867D01*
X0143977Y0348569D02*
X0143410Y0348569D01*
X0142276Y0347434D01*
X0142276Y0346300D02*
X0142276Y0348569D01*
X0140861Y0348001D02*
X0140294Y0348569D01*
X0139160Y0348569D01*
X0138593Y0348001D01*
X0138593Y0346867D01*
X0139160Y0346300D01*
X0140294Y0346300D01*
X0140861Y0346867D01*
X0140861Y0348001D01*
X0137178Y0348569D02*
X0135477Y0348569D01*
X0134909Y0348001D01*
X0134909Y0346867D01*
X0135477Y0346300D01*
X0137178Y0346300D01*
X0133495Y0346867D02*
X0132928Y0347434D01*
X0131793Y0347434D01*
X0131226Y0348001D01*
X0131793Y0348569D01*
X0133495Y0348569D01*
X0133495Y0346867D02*
X0132928Y0346300D01*
X0131226Y0346300D01*
X0129812Y0348001D02*
X0127543Y0348001D01*
X0126129Y0348569D02*
X0124994Y0346300D01*
X0123860Y0348569D01*
D13*
X0128060Y0220000D02*
X0128062Y0220161D01*
X0128068Y0220321D01*
X0128078Y0220482D01*
X0128092Y0220642D01*
X0128110Y0220802D01*
X0128131Y0220961D01*
X0128157Y0221120D01*
X0128187Y0221278D01*
X0128220Y0221435D01*
X0128258Y0221592D01*
X0128299Y0221747D01*
X0128344Y0221901D01*
X0128393Y0222054D01*
X0128446Y0222206D01*
X0128502Y0222357D01*
X0128563Y0222506D01*
X0128626Y0222654D01*
X0128694Y0222800D01*
X0128765Y0222944D01*
X0128839Y0223086D01*
X0128917Y0223227D01*
X0128999Y0223365D01*
X0129084Y0223502D01*
X0129172Y0223636D01*
X0129264Y0223768D01*
X0129359Y0223898D01*
X0129457Y0224026D01*
X0129558Y0224151D01*
X0129662Y0224273D01*
X0129769Y0224393D01*
X0129879Y0224510D01*
X0129992Y0224625D01*
X0130108Y0224736D01*
X0130227Y0224845D01*
X0130348Y0224950D01*
X0130472Y0225053D01*
X0130598Y0225153D01*
X0130726Y0225249D01*
X0130857Y0225342D01*
X0130991Y0225432D01*
X0131126Y0225519D01*
X0131264Y0225602D01*
X0131403Y0225682D01*
X0131545Y0225758D01*
X0131688Y0225831D01*
X0131833Y0225900D01*
X0131980Y0225966D01*
X0132128Y0226028D01*
X0132278Y0226086D01*
X0132429Y0226141D01*
X0132582Y0226192D01*
X0132736Y0226239D01*
X0132891Y0226282D01*
X0133047Y0226321D01*
X0133203Y0226357D01*
X0133361Y0226388D01*
X0133519Y0226416D01*
X0133678Y0226440D01*
X0133838Y0226460D01*
X0133998Y0226476D01*
X0134158Y0226488D01*
X0134319Y0226496D01*
X0134480Y0226500D01*
X0134640Y0226500D01*
X0134801Y0226496D01*
X0134962Y0226488D01*
X0135122Y0226476D01*
X0135282Y0226460D01*
X0135442Y0226440D01*
X0135601Y0226416D01*
X0135759Y0226388D01*
X0135917Y0226357D01*
X0136073Y0226321D01*
X0136229Y0226282D01*
X0136384Y0226239D01*
X0136538Y0226192D01*
X0136691Y0226141D01*
X0136842Y0226086D01*
X0136992Y0226028D01*
X0137140Y0225966D01*
X0137287Y0225900D01*
X0137432Y0225831D01*
X0137575Y0225758D01*
X0137717Y0225682D01*
X0137856Y0225602D01*
X0137994Y0225519D01*
X0138129Y0225432D01*
X0138263Y0225342D01*
X0138394Y0225249D01*
X0138522Y0225153D01*
X0138648Y0225053D01*
X0138772Y0224950D01*
X0138893Y0224845D01*
X0139012Y0224736D01*
X0139128Y0224625D01*
X0139241Y0224510D01*
X0139351Y0224393D01*
X0139458Y0224273D01*
X0139562Y0224151D01*
X0139663Y0224026D01*
X0139761Y0223898D01*
X0139856Y0223768D01*
X0139948Y0223636D01*
X0140036Y0223502D01*
X0140121Y0223365D01*
X0140203Y0223227D01*
X0140281Y0223086D01*
X0140355Y0222944D01*
X0140426Y0222800D01*
X0140494Y0222654D01*
X0140557Y0222506D01*
X0140618Y0222357D01*
X0140674Y0222206D01*
X0140727Y0222054D01*
X0140776Y0221901D01*
X0140821Y0221747D01*
X0140862Y0221592D01*
X0140900Y0221435D01*
X0140933Y0221278D01*
X0140963Y0221120D01*
X0140989Y0220961D01*
X0141010Y0220802D01*
X0141028Y0220642D01*
X0141042Y0220482D01*
X0141052Y0220321D01*
X0141058Y0220161D01*
X0141060Y0220000D01*
X0141058Y0219839D01*
X0141052Y0219679D01*
X0141042Y0219518D01*
X0141028Y0219358D01*
X0141010Y0219198D01*
X0140989Y0219039D01*
X0140963Y0218880D01*
X0140933Y0218722D01*
X0140900Y0218565D01*
X0140862Y0218408D01*
X0140821Y0218253D01*
X0140776Y0218099D01*
X0140727Y0217946D01*
X0140674Y0217794D01*
X0140618Y0217643D01*
X0140557Y0217494D01*
X0140494Y0217346D01*
X0140426Y0217200D01*
X0140355Y0217056D01*
X0140281Y0216914D01*
X0140203Y0216773D01*
X0140121Y0216635D01*
X0140036Y0216498D01*
X0139948Y0216364D01*
X0139856Y0216232D01*
X0139761Y0216102D01*
X0139663Y0215974D01*
X0139562Y0215849D01*
X0139458Y0215727D01*
X0139351Y0215607D01*
X0139241Y0215490D01*
X0139128Y0215375D01*
X0139012Y0215264D01*
X0138893Y0215155D01*
X0138772Y0215050D01*
X0138648Y0214947D01*
X0138522Y0214847D01*
X0138394Y0214751D01*
X0138263Y0214658D01*
X0138129Y0214568D01*
X0137994Y0214481D01*
X0137856Y0214398D01*
X0137717Y0214318D01*
X0137575Y0214242D01*
X0137432Y0214169D01*
X0137287Y0214100D01*
X0137140Y0214034D01*
X0136992Y0213972D01*
X0136842Y0213914D01*
X0136691Y0213859D01*
X0136538Y0213808D01*
X0136384Y0213761D01*
X0136229Y0213718D01*
X0136073Y0213679D01*
X0135917Y0213643D01*
X0135759Y0213612D01*
X0135601Y0213584D01*
X0135442Y0213560D01*
X0135282Y0213540D01*
X0135122Y0213524D01*
X0134962Y0213512D01*
X0134801Y0213504D01*
X0134640Y0213500D01*
X0134480Y0213500D01*
X0134319Y0213504D01*
X0134158Y0213512D01*
X0133998Y0213524D01*
X0133838Y0213540D01*
X0133678Y0213560D01*
X0133519Y0213584D01*
X0133361Y0213612D01*
X0133203Y0213643D01*
X0133047Y0213679D01*
X0132891Y0213718D01*
X0132736Y0213761D01*
X0132582Y0213808D01*
X0132429Y0213859D01*
X0132278Y0213914D01*
X0132128Y0213972D01*
X0131980Y0214034D01*
X0131833Y0214100D01*
X0131688Y0214169D01*
X0131545Y0214242D01*
X0131403Y0214318D01*
X0131264Y0214398D01*
X0131126Y0214481D01*
X0130991Y0214568D01*
X0130857Y0214658D01*
X0130726Y0214751D01*
X0130598Y0214847D01*
X0130472Y0214947D01*
X0130348Y0215050D01*
X0130227Y0215155D01*
X0130108Y0215264D01*
X0129992Y0215375D01*
X0129879Y0215490D01*
X0129769Y0215607D01*
X0129662Y0215727D01*
X0129558Y0215849D01*
X0129457Y0215974D01*
X0129359Y0216102D01*
X0129264Y0216232D01*
X0129172Y0216364D01*
X0129084Y0216498D01*
X0128999Y0216635D01*
X0128917Y0216773D01*
X0128839Y0216914D01*
X0128765Y0217056D01*
X0128694Y0217200D01*
X0128626Y0217346D01*
X0128563Y0217494D01*
X0128502Y0217643D01*
X0128446Y0217794D01*
X0128393Y0217946D01*
X0128344Y0218099D01*
X0128299Y0218253D01*
X0128258Y0218408D01*
X0128220Y0218565D01*
X0128187Y0218722D01*
X0128157Y0218880D01*
X0128131Y0219039D01*
X0128110Y0219198D01*
X0128092Y0219358D01*
X0128078Y0219518D01*
X0128068Y0219679D01*
X0128062Y0219839D01*
X0128060Y0220000D01*
X0106060Y0220000D02*
X0106062Y0220161D01*
X0106068Y0220321D01*
X0106078Y0220482D01*
X0106092Y0220642D01*
X0106110Y0220802D01*
X0106131Y0220961D01*
X0106157Y0221120D01*
X0106187Y0221278D01*
X0106220Y0221435D01*
X0106258Y0221592D01*
X0106299Y0221747D01*
X0106344Y0221901D01*
X0106393Y0222054D01*
X0106446Y0222206D01*
X0106502Y0222357D01*
X0106563Y0222506D01*
X0106626Y0222654D01*
X0106694Y0222800D01*
X0106765Y0222944D01*
X0106839Y0223086D01*
X0106917Y0223227D01*
X0106999Y0223365D01*
X0107084Y0223502D01*
X0107172Y0223636D01*
X0107264Y0223768D01*
X0107359Y0223898D01*
X0107457Y0224026D01*
X0107558Y0224151D01*
X0107662Y0224273D01*
X0107769Y0224393D01*
X0107879Y0224510D01*
X0107992Y0224625D01*
X0108108Y0224736D01*
X0108227Y0224845D01*
X0108348Y0224950D01*
X0108472Y0225053D01*
X0108598Y0225153D01*
X0108726Y0225249D01*
X0108857Y0225342D01*
X0108991Y0225432D01*
X0109126Y0225519D01*
X0109264Y0225602D01*
X0109403Y0225682D01*
X0109545Y0225758D01*
X0109688Y0225831D01*
X0109833Y0225900D01*
X0109980Y0225966D01*
X0110128Y0226028D01*
X0110278Y0226086D01*
X0110429Y0226141D01*
X0110582Y0226192D01*
X0110736Y0226239D01*
X0110891Y0226282D01*
X0111047Y0226321D01*
X0111203Y0226357D01*
X0111361Y0226388D01*
X0111519Y0226416D01*
X0111678Y0226440D01*
X0111838Y0226460D01*
X0111998Y0226476D01*
X0112158Y0226488D01*
X0112319Y0226496D01*
X0112480Y0226500D01*
X0112640Y0226500D01*
X0112801Y0226496D01*
X0112962Y0226488D01*
X0113122Y0226476D01*
X0113282Y0226460D01*
X0113442Y0226440D01*
X0113601Y0226416D01*
X0113759Y0226388D01*
X0113917Y0226357D01*
X0114073Y0226321D01*
X0114229Y0226282D01*
X0114384Y0226239D01*
X0114538Y0226192D01*
X0114691Y0226141D01*
X0114842Y0226086D01*
X0114992Y0226028D01*
X0115140Y0225966D01*
X0115287Y0225900D01*
X0115432Y0225831D01*
X0115575Y0225758D01*
X0115717Y0225682D01*
X0115856Y0225602D01*
X0115994Y0225519D01*
X0116129Y0225432D01*
X0116263Y0225342D01*
X0116394Y0225249D01*
X0116522Y0225153D01*
X0116648Y0225053D01*
X0116772Y0224950D01*
X0116893Y0224845D01*
X0117012Y0224736D01*
X0117128Y0224625D01*
X0117241Y0224510D01*
X0117351Y0224393D01*
X0117458Y0224273D01*
X0117562Y0224151D01*
X0117663Y0224026D01*
X0117761Y0223898D01*
X0117856Y0223768D01*
X0117948Y0223636D01*
X0118036Y0223502D01*
X0118121Y0223365D01*
X0118203Y0223227D01*
X0118281Y0223086D01*
X0118355Y0222944D01*
X0118426Y0222800D01*
X0118494Y0222654D01*
X0118557Y0222506D01*
X0118618Y0222357D01*
X0118674Y0222206D01*
X0118727Y0222054D01*
X0118776Y0221901D01*
X0118821Y0221747D01*
X0118862Y0221592D01*
X0118900Y0221435D01*
X0118933Y0221278D01*
X0118963Y0221120D01*
X0118989Y0220961D01*
X0119010Y0220802D01*
X0119028Y0220642D01*
X0119042Y0220482D01*
X0119052Y0220321D01*
X0119058Y0220161D01*
X0119060Y0220000D01*
X0119058Y0219839D01*
X0119052Y0219679D01*
X0119042Y0219518D01*
X0119028Y0219358D01*
X0119010Y0219198D01*
X0118989Y0219039D01*
X0118963Y0218880D01*
X0118933Y0218722D01*
X0118900Y0218565D01*
X0118862Y0218408D01*
X0118821Y0218253D01*
X0118776Y0218099D01*
X0118727Y0217946D01*
X0118674Y0217794D01*
X0118618Y0217643D01*
X0118557Y0217494D01*
X0118494Y0217346D01*
X0118426Y0217200D01*
X0118355Y0217056D01*
X0118281Y0216914D01*
X0118203Y0216773D01*
X0118121Y0216635D01*
X0118036Y0216498D01*
X0117948Y0216364D01*
X0117856Y0216232D01*
X0117761Y0216102D01*
X0117663Y0215974D01*
X0117562Y0215849D01*
X0117458Y0215727D01*
X0117351Y0215607D01*
X0117241Y0215490D01*
X0117128Y0215375D01*
X0117012Y0215264D01*
X0116893Y0215155D01*
X0116772Y0215050D01*
X0116648Y0214947D01*
X0116522Y0214847D01*
X0116394Y0214751D01*
X0116263Y0214658D01*
X0116129Y0214568D01*
X0115994Y0214481D01*
X0115856Y0214398D01*
X0115717Y0214318D01*
X0115575Y0214242D01*
X0115432Y0214169D01*
X0115287Y0214100D01*
X0115140Y0214034D01*
X0114992Y0213972D01*
X0114842Y0213914D01*
X0114691Y0213859D01*
X0114538Y0213808D01*
X0114384Y0213761D01*
X0114229Y0213718D01*
X0114073Y0213679D01*
X0113917Y0213643D01*
X0113759Y0213612D01*
X0113601Y0213584D01*
X0113442Y0213560D01*
X0113282Y0213540D01*
X0113122Y0213524D01*
X0112962Y0213512D01*
X0112801Y0213504D01*
X0112640Y0213500D01*
X0112480Y0213500D01*
X0112319Y0213504D01*
X0112158Y0213512D01*
X0111998Y0213524D01*
X0111838Y0213540D01*
X0111678Y0213560D01*
X0111519Y0213584D01*
X0111361Y0213612D01*
X0111203Y0213643D01*
X0111047Y0213679D01*
X0110891Y0213718D01*
X0110736Y0213761D01*
X0110582Y0213808D01*
X0110429Y0213859D01*
X0110278Y0213914D01*
X0110128Y0213972D01*
X0109980Y0214034D01*
X0109833Y0214100D01*
X0109688Y0214169D01*
X0109545Y0214242D01*
X0109403Y0214318D01*
X0109264Y0214398D01*
X0109126Y0214481D01*
X0108991Y0214568D01*
X0108857Y0214658D01*
X0108726Y0214751D01*
X0108598Y0214847D01*
X0108472Y0214947D01*
X0108348Y0215050D01*
X0108227Y0215155D01*
X0108108Y0215264D01*
X0107992Y0215375D01*
X0107879Y0215490D01*
X0107769Y0215607D01*
X0107662Y0215727D01*
X0107558Y0215849D01*
X0107457Y0215974D01*
X0107359Y0216102D01*
X0107264Y0216232D01*
X0107172Y0216364D01*
X0107084Y0216498D01*
X0106999Y0216635D01*
X0106917Y0216773D01*
X0106839Y0216914D01*
X0106765Y0217056D01*
X0106694Y0217200D01*
X0106626Y0217346D01*
X0106563Y0217494D01*
X0106502Y0217643D01*
X0106446Y0217794D01*
X0106393Y0217946D01*
X0106344Y0218099D01*
X0106299Y0218253D01*
X0106258Y0218408D01*
X0106220Y0218565D01*
X0106187Y0218722D01*
X0106157Y0218880D01*
X0106131Y0219039D01*
X0106110Y0219198D01*
X0106092Y0219358D01*
X0106078Y0219518D01*
X0106068Y0219679D01*
X0106062Y0219839D01*
X0106060Y0220000D01*
X0006060Y0220000D02*
X0006062Y0220161D01*
X0006068Y0220321D01*
X0006078Y0220482D01*
X0006092Y0220642D01*
X0006110Y0220802D01*
X0006131Y0220961D01*
X0006157Y0221120D01*
X0006187Y0221278D01*
X0006220Y0221435D01*
X0006258Y0221592D01*
X0006299Y0221747D01*
X0006344Y0221901D01*
X0006393Y0222054D01*
X0006446Y0222206D01*
X0006502Y0222357D01*
X0006563Y0222506D01*
X0006626Y0222654D01*
X0006694Y0222800D01*
X0006765Y0222944D01*
X0006839Y0223086D01*
X0006917Y0223227D01*
X0006999Y0223365D01*
X0007084Y0223502D01*
X0007172Y0223636D01*
X0007264Y0223768D01*
X0007359Y0223898D01*
X0007457Y0224026D01*
X0007558Y0224151D01*
X0007662Y0224273D01*
X0007769Y0224393D01*
X0007879Y0224510D01*
X0007992Y0224625D01*
X0008108Y0224736D01*
X0008227Y0224845D01*
X0008348Y0224950D01*
X0008472Y0225053D01*
X0008598Y0225153D01*
X0008726Y0225249D01*
X0008857Y0225342D01*
X0008991Y0225432D01*
X0009126Y0225519D01*
X0009264Y0225602D01*
X0009403Y0225682D01*
X0009545Y0225758D01*
X0009688Y0225831D01*
X0009833Y0225900D01*
X0009980Y0225966D01*
X0010128Y0226028D01*
X0010278Y0226086D01*
X0010429Y0226141D01*
X0010582Y0226192D01*
X0010736Y0226239D01*
X0010891Y0226282D01*
X0011047Y0226321D01*
X0011203Y0226357D01*
X0011361Y0226388D01*
X0011519Y0226416D01*
X0011678Y0226440D01*
X0011838Y0226460D01*
X0011998Y0226476D01*
X0012158Y0226488D01*
X0012319Y0226496D01*
X0012480Y0226500D01*
X0012640Y0226500D01*
X0012801Y0226496D01*
X0012962Y0226488D01*
X0013122Y0226476D01*
X0013282Y0226460D01*
X0013442Y0226440D01*
X0013601Y0226416D01*
X0013759Y0226388D01*
X0013917Y0226357D01*
X0014073Y0226321D01*
X0014229Y0226282D01*
X0014384Y0226239D01*
X0014538Y0226192D01*
X0014691Y0226141D01*
X0014842Y0226086D01*
X0014992Y0226028D01*
X0015140Y0225966D01*
X0015287Y0225900D01*
X0015432Y0225831D01*
X0015575Y0225758D01*
X0015717Y0225682D01*
X0015856Y0225602D01*
X0015994Y0225519D01*
X0016129Y0225432D01*
X0016263Y0225342D01*
X0016394Y0225249D01*
X0016522Y0225153D01*
X0016648Y0225053D01*
X0016772Y0224950D01*
X0016893Y0224845D01*
X0017012Y0224736D01*
X0017128Y0224625D01*
X0017241Y0224510D01*
X0017351Y0224393D01*
X0017458Y0224273D01*
X0017562Y0224151D01*
X0017663Y0224026D01*
X0017761Y0223898D01*
X0017856Y0223768D01*
X0017948Y0223636D01*
X0018036Y0223502D01*
X0018121Y0223365D01*
X0018203Y0223227D01*
X0018281Y0223086D01*
X0018355Y0222944D01*
X0018426Y0222800D01*
X0018494Y0222654D01*
X0018557Y0222506D01*
X0018618Y0222357D01*
X0018674Y0222206D01*
X0018727Y0222054D01*
X0018776Y0221901D01*
X0018821Y0221747D01*
X0018862Y0221592D01*
X0018900Y0221435D01*
X0018933Y0221278D01*
X0018963Y0221120D01*
X0018989Y0220961D01*
X0019010Y0220802D01*
X0019028Y0220642D01*
X0019042Y0220482D01*
X0019052Y0220321D01*
X0019058Y0220161D01*
X0019060Y0220000D01*
X0019058Y0219839D01*
X0019052Y0219679D01*
X0019042Y0219518D01*
X0019028Y0219358D01*
X0019010Y0219198D01*
X0018989Y0219039D01*
X0018963Y0218880D01*
X0018933Y0218722D01*
X0018900Y0218565D01*
X0018862Y0218408D01*
X0018821Y0218253D01*
X0018776Y0218099D01*
X0018727Y0217946D01*
X0018674Y0217794D01*
X0018618Y0217643D01*
X0018557Y0217494D01*
X0018494Y0217346D01*
X0018426Y0217200D01*
X0018355Y0217056D01*
X0018281Y0216914D01*
X0018203Y0216773D01*
X0018121Y0216635D01*
X0018036Y0216498D01*
X0017948Y0216364D01*
X0017856Y0216232D01*
X0017761Y0216102D01*
X0017663Y0215974D01*
X0017562Y0215849D01*
X0017458Y0215727D01*
X0017351Y0215607D01*
X0017241Y0215490D01*
X0017128Y0215375D01*
X0017012Y0215264D01*
X0016893Y0215155D01*
X0016772Y0215050D01*
X0016648Y0214947D01*
X0016522Y0214847D01*
X0016394Y0214751D01*
X0016263Y0214658D01*
X0016129Y0214568D01*
X0015994Y0214481D01*
X0015856Y0214398D01*
X0015717Y0214318D01*
X0015575Y0214242D01*
X0015432Y0214169D01*
X0015287Y0214100D01*
X0015140Y0214034D01*
X0014992Y0213972D01*
X0014842Y0213914D01*
X0014691Y0213859D01*
X0014538Y0213808D01*
X0014384Y0213761D01*
X0014229Y0213718D01*
X0014073Y0213679D01*
X0013917Y0213643D01*
X0013759Y0213612D01*
X0013601Y0213584D01*
X0013442Y0213560D01*
X0013282Y0213540D01*
X0013122Y0213524D01*
X0012962Y0213512D01*
X0012801Y0213504D01*
X0012640Y0213500D01*
X0012480Y0213500D01*
X0012319Y0213504D01*
X0012158Y0213512D01*
X0011998Y0213524D01*
X0011838Y0213540D01*
X0011678Y0213560D01*
X0011519Y0213584D01*
X0011361Y0213612D01*
X0011203Y0213643D01*
X0011047Y0213679D01*
X0010891Y0213718D01*
X0010736Y0213761D01*
X0010582Y0213808D01*
X0010429Y0213859D01*
X0010278Y0213914D01*
X0010128Y0213972D01*
X0009980Y0214034D01*
X0009833Y0214100D01*
X0009688Y0214169D01*
X0009545Y0214242D01*
X0009403Y0214318D01*
X0009264Y0214398D01*
X0009126Y0214481D01*
X0008991Y0214568D01*
X0008857Y0214658D01*
X0008726Y0214751D01*
X0008598Y0214847D01*
X0008472Y0214947D01*
X0008348Y0215050D01*
X0008227Y0215155D01*
X0008108Y0215264D01*
X0007992Y0215375D01*
X0007879Y0215490D01*
X0007769Y0215607D01*
X0007662Y0215727D01*
X0007558Y0215849D01*
X0007457Y0215974D01*
X0007359Y0216102D01*
X0007264Y0216232D01*
X0007172Y0216364D01*
X0007084Y0216498D01*
X0006999Y0216635D01*
X0006917Y0216773D01*
X0006839Y0216914D01*
X0006765Y0217056D01*
X0006694Y0217200D01*
X0006626Y0217346D01*
X0006563Y0217494D01*
X0006502Y0217643D01*
X0006446Y0217794D01*
X0006393Y0217946D01*
X0006344Y0218099D01*
X0006299Y0218253D01*
X0006258Y0218408D01*
X0006220Y0218565D01*
X0006187Y0218722D01*
X0006157Y0218880D01*
X0006131Y0219039D01*
X0006110Y0219198D01*
X0006092Y0219358D01*
X0006078Y0219518D01*
X0006068Y0219679D01*
X0006062Y0219839D01*
X0006060Y0220000D01*
X0006060Y0118000D02*
X0006062Y0118161D01*
X0006068Y0118321D01*
X0006078Y0118482D01*
X0006092Y0118642D01*
X0006110Y0118802D01*
X0006131Y0118961D01*
X0006157Y0119120D01*
X0006187Y0119278D01*
X0006220Y0119435D01*
X0006258Y0119592D01*
X0006299Y0119747D01*
X0006344Y0119901D01*
X0006393Y0120054D01*
X0006446Y0120206D01*
X0006502Y0120357D01*
X0006563Y0120506D01*
X0006626Y0120654D01*
X0006694Y0120800D01*
X0006765Y0120944D01*
X0006839Y0121086D01*
X0006917Y0121227D01*
X0006999Y0121365D01*
X0007084Y0121502D01*
X0007172Y0121636D01*
X0007264Y0121768D01*
X0007359Y0121898D01*
X0007457Y0122026D01*
X0007558Y0122151D01*
X0007662Y0122273D01*
X0007769Y0122393D01*
X0007879Y0122510D01*
X0007992Y0122625D01*
X0008108Y0122736D01*
X0008227Y0122845D01*
X0008348Y0122950D01*
X0008472Y0123053D01*
X0008598Y0123153D01*
X0008726Y0123249D01*
X0008857Y0123342D01*
X0008991Y0123432D01*
X0009126Y0123519D01*
X0009264Y0123602D01*
X0009403Y0123682D01*
X0009545Y0123758D01*
X0009688Y0123831D01*
X0009833Y0123900D01*
X0009980Y0123966D01*
X0010128Y0124028D01*
X0010278Y0124086D01*
X0010429Y0124141D01*
X0010582Y0124192D01*
X0010736Y0124239D01*
X0010891Y0124282D01*
X0011047Y0124321D01*
X0011203Y0124357D01*
X0011361Y0124388D01*
X0011519Y0124416D01*
X0011678Y0124440D01*
X0011838Y0124460D01*
X0011998Y0124476D01*
X0012158Y0124488D01*
X0012319Y0124496D01*
X0012480Y0124500D01*
X0012640Y0124500D01*
X0012801Y0124496D01*
X0012962Y0124488D01*
X0013122Y0124476D01*
X0013282Y0124460D01*
X0013442Y0124440D01*
X0013601Y0124416D01*
X0013759Y0124388D01*
X0013917Y0124357D01*
X0014073Y0124321D01*
X0014229Y0124282D01*
X0014384Y0124239D01*
X0014538Y0124192D01*
X0014691Y0124141D01*
X0014842Y0124086D01*
X0014992Y0124028D01*
X0015140Y0123966D01*
X0015287Y0123900D01*
X0015432Y0123831D01*
X0015575Y0123758D01*
X0015717Y0123682D01*
X0015856Y0123602D01*
X0015994Y0123519D01*
X0016129Y0123432D01*
X0016263Y0123342D01*
X0016394Y0123249D01*
X0016522Y0123153D01*
X0016648Y0123053D01*
X0016772Y0122950D01*
X0016893Y0122845D01*
X0017012Y0122736D01*
X0017128Y0122625D01*
X0017241Y0122510D01*
X0017351Y0122393D01*
X0017458Y0122273D01*
X0017562Y0122151D01*
X0017663Y0122026D01*
X0017761Y0121898D01*
X0017856Y0121768D01*
X0017948Y0121636D01*
X0018036Y0121502D01*
X0018121Y0121365D01*
X0018203Y0121227D01*
X0018281Y0121086D01*
X0018355Y0120944D01*
X0018426Y0120800D01*
X0018494Y0120654D01*
X0018557Y0120506D01*
X0018618Y0120357D01*
X0018674Y0120206D01*
X0018727Y0120054D01*
X0018776Y0119901D01*
X0018821Y0119747D01*
X0018862Y0119592D01*
X0018900Y0119435D01*
X0018933Y0119278D01*
X0018963Y0119120D01*
X0018989Y0118961D01*
X0019010Y0118802D01*
X0019028Y0118642D01*
X0019042Y0118482D01*
X0019052Y0118321D01*
X0019058Y0118161D01*
X0019060Y0118000D01*
X0019058Y0117839D01*
X0019052Y0117679D01*
X0019042Y0117518D01*
X0019028Y0117358D01*
X0019010Y0117198D01*
X0018989Y0117039D01*
X0018963Y0116880D01*
X0018933Y0116722D01*
X0018900Y0116565D01*
X0018862Y0116408D01*
X0018821Y0116253D01*
X0018776Y0116099D01*
X0018727Y0115946D01*
X0018674Y0115794D01*
X0018618Y0115643D01*
X0018557Y0115494D01*
X0018494Y0115346D01*
X0018426Y0115200D01*
X0018355Y0115056D01*
X0018281Y0114914D01*
X0018203Y0114773D01*
X0018121Y0114635D01*
X0018036Y0114498D01*
X0017948Y0114364D01*
X0017856Y0114232D01*
X0017761Y0114102D01*
X0017663Y0113974D01*
X0017562Y0113849D01*
X0017458Y0113727D01*
X0017351Y0113607D01*
X0017241Y0113490D01*
X0017128Y0113375D01*
X0017012Y0113264D01*
X0016893Y0113155D01*
X0016772Y0113050D01*
X0016648Y0112947D01*
X0016522Y0112847D01*
X0016394Y0112751D01*
X0016263Y0112658D01*
X0016129Y0112568D01*
X0015994Y0112481D01*
X0015856Y0112398D01*
X0015717Y0112318D01*
X0015575Y0112242D01*
X0015432Y0112169D01*
X0015287Y0112100D01*
X0015140Y0112034D01*
X0014992Y0111972D01*
X0014842Y0111914D01*
X0014691Y0111859D01*
X0014538Y0111808D01*
X0014384Y0111761D01*
X0014229Y0111718D01*
X0014073Y0111679D01*
X0013917Y0111643D01*
X0013759Y0111612D01*
X0013601Y0111584D01*
X0013442Y0111560D01*
X0013282Y0111540D01*
X0013122Y0111524D01*
X0012962Y0111512D01*
X0012801Y0111504D01*
X0012640Y0111500D01*
X0012480Y0111500D01*
X0012319Y0111504D01*
X0012158Y0111512D01*
X0011998Y0111524D01*
X0011838Y0111540D01*
X0011678Y0111560D01*
X0011519Y0111584D01*
X0011361Y0111612D01*
X0011203Y0111643D01*
X0011047Y0111679D01*
X0010891Y0111718D01*
X0010736Y0111761D01*
X0010582Y0111808D01*
X0010429Y0111859D01*
X0010278Y0111914D01*
X0010128Y0111972D01*
X0009980Y0112034D01*
X0009833Y0112100D01*
X0009688Y0112169D01*
X0009545Y0112242D01*
X0009403Y0112318D01*
X0009264Y0112398D01*
X0009126Y0112481D01*
X0008991Y0112568D01*
X0008857Y0112658D01*
X0008726Y0112751D01*
X0008598Y0112847D01*
X0008472Y0112947D01*
X0008348Y0113050D01*
X0008227Y0113155D01*
X0008108Y0113264D01*
X0007992Y0113375D01*
X0007879Y0113490D01*
X0007769Y0113607D01*
X0007662Y0113727D01*
X0007558Y0113849D01*
X0007457Y0113974D01*
X0007359Y0114102D01*
X0007264Y0114232D01*
X0007172Y0114364D01*
X0007084Y0114498D01*
X0006999Y0114635D01*
X0006917Y0114773D01*
X0006839Y0114914D01*
X0006765Y0115056D01*
X0006694Y0115200D01*
X0006626Y0115346D01*
X0006563Y0115494D01*
X0006502Y0115643D01*
X0006446Y0115794D01*
X0006393Y0115946D01*
X0006344Y0116099D01*
X0006299Y0116253D01*
X0006258Y0116408D01*
X0006220Y0116565D01*
X0006187Y0116722D01*
X0006157Y0116880D01*
X0006131Y0117039D01*
X0006110Y0117198D01*
X0006092Y0117358D01*
X0006078Y0117518D01*
X0006068Y0117679D01*
X0006062Y0117839D01*
X0006060Y0118000D01*
X0106060Y0118000D02*
X0106062Y0118161D01*
X0106068Y0118321D01*
X0106078Y0118482D01*
X0106092Y0118642D01*
X0106110Y0118802D01*
X0106131Y0118961D01*
X0106157Y0119120D01*
X0106187Y0119278D01*
X0106220Y0119435D01*
X0106258Y0119592D01*
X0106299Y0119747D01*
X0106344Y0119901D01*
X0106393Y0120054D01*
X0106446Y0120206D01*
X0106502Y0120357D01*
X0106563Y0120506D01*
X0106626Y0120654D01*
X0106694Y0120800D01*
X0106765Y0120944D01*
X0106839Y0121086D01*
X0106917Y0121227D01*
X0106999Y0121365D01*
X0107084Y0121502D01*
X0107172Y0121636D01*
X0107264Y0121768D01*
X0107359Y0121898D01*
X0107457Y0122026D01*
X0107558Y0122151D01*
X0107662Y0122273D01*
X0107769Y0122393D01*
X0107879Y0122510D01*
X0107992Y0122625D01*
X0108108Y0122736D01*
X0108227Y0122845D01*
X0108348Y0122950D01*
X0108472Y0123053D01*
X0108598Y0123153D01*
X0108726Y0123249D01*
X0108857Y0123342D01*
X0108991Y0123432D01*
X0109126Y0123519D01*
X0109264Y0123602D01*
X0109403Y0123682D01*
X0109545Y0123758D01*
X0109688Y0123831D01*
X0109833Y0123900D01*
X0109980Y0123966D01*
X0110128Y0124028D01*
X0110278Y0124086D01*
X0110429Y0124141D01*
X0110582Y0124192D01*
X0110736Y0124239D01*
X0110891Y0124282D01*
X0111047Y0124321D01*
X0111203Y0124357D01*
X0111361Y0124388D01*
X0111519Y0124416D01*
X0111678Y0124440D01*
X0111838Y0124460D01*
X0111998Y0124476D01*
X0112158Y0124488D01*
X0112319Y0124496D01*
X0112480Y0124500D01*
X0112640Y0124500D01*
X0112801Y0124496D01*
X0112962Y0124488D01*
X0113122Y0124476D01*
X0113282Y0124460D01*
X0113442Y0124440D01*
X0113601Y0124416D01*
X0113759Y0124388D01*
X0113917Y0124357D01*
X0114073Y0124321D01*
X0114229Y0124282D01*
X0114384Y0124239D01*
X0114538Y0124192D01*
X0114691Y0124141D01*
X0114842Y0124086D01*
X0114992Y0124028D01*
X0115140Y0123966D01*
X0115287Y0123900D01*
X0115432Y0123831D01*
X0115575Y0123758D01*
X0115717Y0123682D01*
X0115856Y0123602D01*
X0115994Y0123519D01*
X0116129Y0123432D01*
X0116263Y0123342D01*
X0116394Y0123249D01*
X0116522Y0123153D01*
X0116648Y0123053D01*
X0116772Y0122950D01*
X0116893Y0122845D01*
X0117012Y0122736D01*
X0117128Y0122625D01*
X0117241Y0122510D01*
X0117351Y0122393D01*
X0117458Y0122273D01*
X0117562Y0122151D01*
X0117663Y0122026D01*
X0117761Y0121898D01*
X0117856Y0121768D01*
X0117948Y0121636D01*
X0118036Y0121502D01*
X0118121Y0121365D01*
X0118203Y0121227D01*
X0118281Y0121086D01*
X0118355Y0120944D01*
X0118426Y0120800D01*
X0118494Y0120654D01*
X0118557Y0120506D01*
X0118618Y0120357D01*
X0118674Y0120206D01*
X0118727Y0120054D01*
X0118776Y0119901D01*
X0118821Y0119747D01*
X0118862Y0119592D01*
X0118900Y0119435D01*
X0118933Y0119278D01*
X0118963Y0119120D01*
X0118989Y0118961D01*
X0119010Y0118802D01*
X0119028Y0118642D01*
X0119042Y0118482D01*
X0119052Y0118321D01*
X0119058Y0118161D01*
X0119060Y0118000D01*
X0119058Y0117839D01*
X0119052Y0117679D01*
X0119042Y0117518D01*
X0119028Y0117358D01*
X0119010Y0117198D01*
X0118989Y0117039D01*
X0118963Y0116880D01*
X0118933Y0116722D01*
X0118900Y0116565D01*
X0118862Y0116408D01*
X0118821Y0116253D01*
X0118776Y0116099D01*
X0118727Y0115946D01*
X0118674Y0115794D01*
X0118618Y0115643D01*
X0118557Y0115494D01*
X0118494Y0115346D01*
X0118426Y0115200D01*
X0118355Y0115056D01*
X0118281Y0114914D01*
X0118203Y0114773D01*
X0118121Y0114635D01*
X0118036Y0114498D01*
X0117948Y0114364D01*
X0117856Y0114232D01*
X0117761Y0114102D01*
X0117663Y0113974D01*
X0117562Y0113849D01*
X0117458Y0113727D01*
X0117351Y0113607D01*
X0117241Y0113490D01*
X0117128Y0113375D01*
X0117012Y0113264D01*
X0116893Y0113155D01*
X0116772Y0113050D01*
X0116648Y0112947D01*
X0116522Y0112847D01*
X0116394Y0112751D01*
X0116263Y0112658D01*
X0116129Y0112568D01*
X0115994Y0112481D01*
X0115856Y0112398D01*
X0115717Y0112318D01*
X0115575Y0112242D01*
X0115432Y0112169D01*
X0115287Y0112100D01*
X0115140Y0112034D01*
X0114992Y0111972D01*
X0114842Y0111914D01*
X0114691Y0111859D01*
X0114538Y0111808D01*
X0114384Y0111761D01*
X0114229Y0111718D01*
X0114073Y0111679D01*
X0113917Y0111643D01*
X0113759Y0111612D01*
X0113601Y0111584D01*
X0113442Y0111560D01*
X0113282Y0111540D01*
X0113122Y0111524D01*
X0112962Y0111512D01*
X0112801Y0111504D01*
X0112640Y0111500D01*
X0112480Y0111500D01*
X0112319Y0111504D01*
X0112158Y0111512D01*
X0111998Y0111524D01*
X0111838Y0111540D01*
X0111678Y0111560D01*
X0111519Y0111584D01*
X0111361Y0111612D01*
X0111203Y0111643D01*
X0111047Y0111679D01*
X0110891Y0111718D01*
X0110736Y0111761D01*
X0110582Y0111808D01*
X0110429Y0111859D01*
X0110278Y0111914D01*
X0110128Y0111972D01*
X0109980Y0112034D01*
X0109833Y0112100D01*
X0109688Y0112169D01*
X0109545Y0112242D01*
X0109403Y0112318D01*
X0109264Y0112398D01*
X0109126Y0112481D01*
X0108991Y0112568D01*
X0108857Y0112658D01*
X0108726Y0112751D01*
X0108598Y0112847D01*
X0108472Y0112947D01*
X0108348Y0113050D01*
X0108227Y0113155D01*
X0108108Y0113264D01*
X0107992Y0113375D01*
X0107879Y0113490D01*
X0107769Y0113607D01*
X0107662Y0113727D01*
X0107558Y0113849D01*
X0107457Y0113974D01*
X0107359Y0114102D01*
X0107264Y0114232D01*
X0107172Y0114364D01*
X0107084Y0114498D01*
X0106999Y0114635D01*
X0106917Y0114773D01*
X0106839Y0114914D01*
X0106765Y0115056D01*
X0106694Y0115200D01*
X0106626Y0115346D01*
X0106563Y0115494D01*
X0106502Y0115643D01*
X0106446Y0115794D01*
X0106393Y0115946D01*
X0106344Y0116099D01*
X0106299Y0116253D01*
X0106258Y0116408D01*
X0106220Y0116565D01*
X0106187Y0116722D01*
X0106157Y0116880D01*
X0106131Y0117039D01*
X0106110Y0117198D01*
X0106092Y0117358D01*
X0106078Y0117518D01*
X0106068Y0117679D01*
X0106062Y0117839D01*
X0106060Y0118000D01*
X0128060Y0118000D02*
X0128062Y0118161D01*
X0128068Y0118321D01*
X0128078Y0118482D01*
X0128092Y0118642D01*
X0128110Y0118802D01*
X0128131Y0118961D01*
X0128157Y0119120D01*
X0128187Y0119278D01*
X0128220Y0119435D01*
X0128258Y0119592D01*
X0128299Y0119747D01*
X0128344Y0119901D01*
X0128393Y0120054D01*
X0128446Y0120206D01*
X0128502Y0120357D01*
X0128563Y0120506D01*
X0128626Y0120654D01*
X0128694Y0120800D01*
X0128765Y0120944D01*
X0128839Y0121086D01*
X0128917Y0121227D01*
X0128999Y0121365D01*
X0129084Y0121502D01*
X0129172Y0121636D01*
X0129264Y0121768D01*
X0129359Y0121898D01*
X0129457Y0122026D01*
X0129558Y0122151D01*
X0129662Y0122273D01*
X0129769Y0122393D01*
X0129879Y0122510D01*
X0129992Y0122625D01*
X0130108Y0122736D01*
X0130227Y0122845D01*
X0130348Y0122950D01*
X0130472Y0123053D01*
X0130598Y0123153D01*
X0130726Y0123249D01*
X0130857Y0123342D01*
X0130991Y0123432D01*
X0131126Y0123519D01*
X0131264Y0123602D01*
X0131403Y0123682D01*
X0131545Y0123758D01*
X0131688Y0123831D01*
X0131833Y0123900D01*
X0131980Y0123966D01*
X0132128Y0124028D01*
X0132278Y0124086D01*
X0132429Y0124141D01*
X0132582Y0124192D01*
X0132736Y0124239D01*
X0132891Y0124282D01*
X0133047Y0124321D01*
X0133203Y0124357D01*
X0133361Y0124388D01*
X0133519Y0124416D01*
X0133678Y0124440D01*
X0133838Y0124460D01*
X0133998Y0124476D01*
X0134158Y0124488D01*
X0134319Y0124496D01*
X0134480Y0124500D01*
X0134640Y0124500D01*
X0134801Y0124496D01*
X0134962Y0124488D01*
X0135122Y0124476D01*
X0135282Y0124460D01*
X0135442Y0124440D01*
X0135601Y0124416D01*
X0135759Y0124388D01*
X0135917Y0124357D01*
X0136073Y0124321D01*
X0136229Y0124282D01*
X0136384Y0124239D01*
X0136538Y0124192D01*
X0136691Y0124141D01*
X0136842Y0124086D01*
X0136992Y0124028D01*
X0137140Y0123966D01*
X0137287Y0123900D01*
X0137432Y0123831D01*
X0137575Y0123758D01*
X0137717Y0123682D01*
X0137856Y0123602D01*
X0137994Y0123519D01*
X0138129Y0123432D01*
X0138263Y0123342D01*
X0138394Y0123249D01*
X0138522Y0123153D01*
X0138648Y0123053D01*
X0138772Y0122950D01*
X0138893Y0122845D01*
X0139012Y0122736D01*
X0139128Y0122625D01*
X0139241Y0122510D01*
X0139351Y0122393D01*
X0139458Y0122273D01*
X0139562Y0122151D01*
X0139663Y0122026D01*
X0139761Y0121898D01*
X0139856Y0121768D01*
X0139948Y0121636D01*
X0140036Y0121502D01*
X0140121Y0121365D01*
X0140203Y0121227D01*
X0140281Y0121086D01*
X0140355Y0120944D01*
X0140426Y0120800D01*
X0140494Y0120654D01*
X0140557Y0120506D01*
X0140618Y0120357D01*
X0140674Y0120206D01*
X0140727Y0120054D01*
X0140776Y0119901D01*
X0140821Y0119747D01*
X0140862Y0119592D01*
X0140900Y0119435D01*
X0140933Y0119278D01*
X0140963Y0119120D01*
X0140989Y0118961D01*
X0141010Y0118802D01*
X0141028Y0118642D01*
X0141042Y0118482D01*
X0141052Y0118321D01*
X0141058Y0118161D01*
X0141060Y0118000D01*
X0141058Y0117839D01*
X0141052Y0117679D01*
X0141042Y0117518D01*
X0141028Y0117358D01*
X0141010Y0117198D01*
X0140989Y0117039D01*
X0140963Y0116880D01*
X0140933Y0116722D01*
X0140900Y0116565D01*
X0140862Y0116408D01*
X0140821Y0116253D01*
X0140776Y0116099D01*
X0140727Y0115946D01*
X0140674Y0115794D01*
X0140618Y0115643D01*
X0140557Y0115494D01*
X0140494Y0115346D01*
X0140426Y0115200D01*
X0140355Y0115056D01*
X0140281Y0114914D01*
X0140203Y0114773D01*
X0140121Y0114635D01*
X0140036Y0114498D01*
X0139948Y0114364D01*
X0139856Y0114232D01*
X0139761Y0114102D01*
X0139663Y0113974D01*
X0139562Y0113849D01*
X0139458Y0113727D01*
X0139351Y0113607D01*
X0139241Y0113490D01*
X0139128Y0113375D01*
X0139012Y0113264D01*
X0138893Y0113155D01*
X0138772Y0113050D01*
X0138648Y0112947D01*
X0138522Y0112847D01*
X0138394Y0112751D01*
X0138263Y0112658D01*
X0138129Y0112568D01*
X0137994Y0112481D01*
X0137856Y0112398D01*
X0137717Y0112318D01*
X0137575Y0112242D01*
X0137432Y0112169D01*
X0137287Y0112100D01*
X0137140Y0112034D01*
X0136992Y0111972D01*
X0136842Y0111914D01*
X0136691Y0111859D01*
X0136538Y0111808D01*
X0136384Y0111761D01*
X0136229Y0111718D01*
X0136073Y0111679D01*
X0135917Y0111643D01*
X0135759Y0111612D01*
X0135601Y0111584D01*
X0135442Y0111560D01*
X0135282Y0111540D01*
X0135122Y0111524D01*
X0134962Y0111512D01*
X0134801Y0111504D01*
X0134640Y0111500D01*
X0134480Y0111500D01*
X0134319Y0111504D01*
X0134158Y0111512D01*
X0133998Y0111524D01*
X0133838Y0111540D01*
X0133678Y0111560D01*
X0133519Y0111584D01*
X0133361Y0111612D01*
X0133203Y0111643D01*
X0133047Y0111679D01*
X0132891Y0111718D01*
X0132736Y0111761D01*
X0132582Y0111808D01*
X0132429Y0111859D01*
X0132278Y0111914D01*
X0132128Y0111972D01*
X0131980Y0112034D01*
X0131833Y0112100D01*
X0131688Y0112169D01*
X0131545Y0112242D01*
X0131403Y0112318D01*
X0131264Y0112398D01*
X0131126Y0112481D01*
X0130991Y0112568D01*
X0130857Y0112658D01*
X0130726Y0112751D01*
X0130598Y0112847D01*
X0130472Y0112947D01*
X0130348Y0113050D01*
X0130227Y0113155D01*
X0130108Y0113264D01*
X0129992Y0113375D01*
X0129879Y0113490D01*
X0129769Y0113607D01*
X0129662Y0113727D01*
X0129558Y0113849D01*
X0129457Y0113974D01*
X0129359Y0114102D01*
X0129264Y0114232D01*
X0129172Y0114364D01*
X0129084Y0114498D01*
X0128999Y0114635D01*
X0128917Y0114773D01*
X0128839Y0114914D01*
X0128765Y0115056D01*
X0128694Y0115200D01*
X0128626Y0115346D01*
X0128563Y0115494D01*
X0128502Y0115643D01*
X0128446Y0115794D01*
X0128393Y0115946D01*
X0128344Y0116099D01*
X0128299Y0116253D01*
X0128258Y0116408D01*
X0128220Y0116565D01*
X0128187Y0116722D01*
X0128157Y0116880D01*
X0128131Y0117039D01*
X0128110Y0117198D01*
X0128092Y0117358D01*
X0128078Y0117518D01*
X0128068Y0117679D01*
X0128062Y0117839D01*
X0128060Y0118000D01*
X0228060Y0118000D02*
X0228062Y0118161D01*
X0228068Y0118321D01*
X0228078Y0118482D01*
X0228092Y0118642D01*
X0228110Y0118802D01*
X0228131Y0118961D01*
X0228157Y0119120D01*
X0228187Y0119278D01*
X0228220Y0119435D01*
X0228258Y0119592D01*
X0228299Y0119747D01*
X0228344Y0119901D01*
X0228393Y0120054D01*
X0228446Y0120206D01*
X0228502Y0120357D01*
X0228563Y0120506D01*
X0228626Y0120654D01*
X0228694Y0120800D01*
X0228765Y0120944D01*
X0228839Y0121086D01*
X0228917Y0121227D01*
X0228999Y0121365D01*
X0229084Y0121502D01*
X0229172Y0121636D01*
X0229264Y0121768D01*
X0229359Y0121898D01*
X0229457Y0122026D01*
X0229558Y0122151D01*
X0229662Y0122273D01*
X0229769Y0122393D01*
X0229879Y0122510D01*
X0229992Y0122625D01*
X0230108Y0122736D01*
X0230227Y0122845D01*
X0230348Y0122950D01*
X0230472Y0123053D01*
X0230598Y0123153D01*
X0230726Y0123249D01*
X0230857Y0123342D01*
X0230991Y0123432D01*
X0231126Y0123519D01*
X0231264Y0123602D01*
X0231403Y0123682D01*
X0231545Y0123758D01*
X0231688Y0123831D01*
X0231833Y0123900D01*
X0231980Y0123966D01*
X0232128Y0124028D01*
X0232278Y0124086D01*
X0232429Y0124141D01*
X0232582Y0124192D01*
X0232736Y0124239D01*
X0232891Y0124282D01*
X0233047Y0124321D01*
X0233203Y0124357D01*
X0233361Y0124388D01*
X0233519Y0124416D01*
X0233678Y0124440D01*
X0233838Y0124460D01*
X0233998Y0124476D01*
X0234158Y0124488D01*
X0234319Y0124496D01*
X0234480Y0124500D01*
X0234640Y0124500D01*
X0234801Y0124496D01*
X0234962Y0124488D01*
X0235122Y0124476D01*
X0235282Y0124460D01*
X0235442Y0124440D01*
X0235601Y0124416D01*
X0235759Y0124388D01*
X0235917Y0124357D01*
X0236073Y0124321D01*
X0236229Y0124282D01*
X0236384Y0124239D01*
X0236538Y0124192D01*
X0236691Y0124141D01*
X0236842Y0124086D01*
X0236992Y0124028D01*
X0237140Y0123966D01*
X0237287Y0123900D01*
X0237432Y0123831D01*
X0237575Y0123758D01*
X0237717Y0123682D01*
X0237856Y0123602D01*
X0237994Y0123519D01*
X0238129Y0123432D01*
X0238263Y0123342D01*
X0238394Y0123249D01*
X0238522Y0123153D01*
X0238648Y0123053D01*
X0238772Y0122950D01*
X0238893Y0122845D01*
X0239012Y0122736D01*
X0239128Y0122625D01*
X0239241Y0122510D01*
X0239351Y0122393D01*
X0239458Y0122273D01*
X0239562Y0122151D01*
X0239663Y0122026D01*
X0239761Y0121898D01*
X0239856Y0121768D01*
X0239948Y0121636D01*
X0240036Y0121502D01*
X0240121Y0121365D01*
X0240203Y0121227D01*
X0240281Y0121086D01*
X0240355Y0120944D01*
X0240426Y0120800D01*
X0240494Y0120654D01*
X0240557Y0120506D01*
X0240618Y0120357D01*
X0240674Y0120206D01*
X0240727Y0120054D01*
X0240776Y0119901D01*
X0240821Y0119747D01*
X0240862Y0119592D01*
X0240900Y0119435D01*
X0240933Y0119278D01*
X0240963Y0119120D01*
X0240989Y0118961D01*
X0241010Y0118802D01*
X0241028Y0118642D01*
X0241042Y0118482D01*
X0241052Y0118321D01*
X0241058Y0118161D01*
X0241060Y0118000D01*
X0241058Y0117839D01*
X0241052Y0117679D01*
X0241042Y0117518D01*
X0241028Y0117358D01*
X0241010Y0117198D01*
X0240989Y0117039D01*
X0240963Y0116880D01*
X0240933Y0116722D01*
X0240900Y0116565D01*
X0240862Y0116408D01*
X0240821Y0116253D01*
X0240776Y0116099D01*
X0240727Y0115946D01*
X0240674Y0115794D01*
X0240618Y0115643D01*
X0240557Y0115494D01*
X0240494Y0115346D01*
X0240426Y0115200D01*
X0240355Y0115056D01*
X0240281Y0114914D01*
X0240203Y0114773D01*
X0240121Y0114635D01*
X0240036Y0114498D01*
X0239948Y0114364D01*
X0239856Y0114232D01*
X0239761Y0114102D01*
X0239663Y0113974D01*
X0239562Y0113849D01*
X0239458Y0113727D01*
X0239351Y0113607D01*
X0239241Y0113490D01*
X0239128Y0113375D01*
X0239012Y0113264D01*
X0238893Y0113155D01*
X0238772Y0113050D01*
X0238648Y0112947D01*
X0238522Y0112847D01*
X0238394Y0112751D01*
X0238263Y0112658D01*
X0238129Y0112568D01*
X0237994Y0112481D01*
X0237856Y0112398D01*
X0237717Y0112318D01*
X0237575Y0112242D01*
X0237432Y0112169D01*
X0237287Y0112100D01*
X0237140Y0112034D01*
X0236992Y0111972D01*
X0236842Y0111914D01*
X0236691Y0111859D01*
X0236538Y0111808D01*
X0236384Y0111761D01*
X0236229Y0111718D01*
X0236073Y0111679D01*
X0235917Y0111643D01*
X0235759Y0111612D01*
X0235601Y0111584D01*
X0235442Y0111560D01*
X0235282Y0111540D01*
X0235122Y0111524D01*
X0234962Y0111512D01*
X0234801Y0111504D01*
X0234640Y0111500D01*
X0234480Y0111500D01*
X0234319Y0111504D01*
X0234158Y0111512D01*
X0233998Y0111524D01*
X0233838Y0111540D01*
X0233678Y0111560D01*
X0233519Y0111584D01*
X0233361Y0111612D01*
X0233203Y0111643D01*
X0233047Y0111679D01*
X0232891Y0111718D01*
X0232736Y0111761D01*
X0232582Y0111808D01*
X0232429Y0111859D01*
X0232278Y0111914D01*
X0232128Y0111972D01*
X0231980Y0112034D01*
X0231833Y0112100D01*
X0231688Y0112169D01*
X0231545Y0112242D01*
X0231403Y0112318D01*
X0231264Y0112398D01*
X0231126Y0112481D01*
X0230991Y0112568D01*
X0230857Y0112658D01*
X0230726Y0112751D01*
X0230598Y0112847D01*
X0230472Y0112947D01*
X0230348Y0113050D01*
X0230227Y0113155D01*
X0230108Y0113264D01*
X0229992Y0113375D01*
X0229879Y0113490D01*
X0229769Y0113607D01*
X0229662Y0113727D01*
X0229558Y0113849D01*
X0229457Y0113974D01*
X0229359Y0114102D01*
X0229264Y0114232D01*
X0229172Y0114364D01*
X0229084Y0114498D01*
X0228999Y0114635D01*
X0228917Y0114773D01*
X0228839Y0114914D01*
X0228765Y0115056D01*
X0228694Y0115200D01*
X0228626Y0115346D01*
X0228563Y0115494D01*
X0228502Y0115643D01*
X0228446Y0115794D01*
X0228393Y0115946D01*
X0228344Y0116099D01*
X0228299Y0116253D01*
X0228258Y0116408D01*
X0228220Y0116565D01*
X0228187Y0116722D01*
X0228157Y0116880D01*
X0228131Y0117039D01*
X0228110Y0117198D01*
X0228092Y0117358D01*
X0228078Y0117518D01*
X0228068Y0117679D01*
X0228062Y0117839D01*
X0228060Y0118000D01*
X0250060Y0118000D02*
X0250062Y0118161D01*
X0250068Y0118321D01*
X0250078Y0118482D01*
X0250092Y0118642D01*
X0250110Y0118802D01*
X0250131Y0118961D01*
X0250157Y0119120D01*
X0250187Y0119278D01*
X0250220Y0119435D01*
X0250258Y0119592D01*
X0250299Y0119747D01*
X0250344Y0119901D01*
X0250393Y0120054D01*
X0250446Y0120206D01*
X0250502Y0120357D01*
X0250563Y0120506D01*
X0250626Y0120654D01*
X0250694Y0120800D01*
X0250765Y0120944D01*
X0250839Y0121086D01*
X0250917Y0121227D01*
X0250999Y0121365D01*
X0251084Y0121502D01*
X0251172Y0121636D01*
X0251264Y0121768D01*
X0251359Y0121898D01*
X0251457Y0122026D01*
X0251558Y0122151D01*
X0251662Y0122273D01*
X0251769Y0122393D01*
X0251879Y0122510D01*
X0251992Y0122625D01*
X0252108Y0122736D01*
X0252227Y0122845D01*
X0252348Y0122950D01*
X0252472Y0123053D01*
X0252598Y0123153D01*
X0252726Y0123249D01*
X0252857Y0123342D01*
X0252991Y0123432D01*
X0253126Y0123519D01*
X0253264Y0123602D01*
X0253403Y0123682D01*
X0253545Y0123758D01*
X0253688Y0123831D01*
X0253833Y0123900D01*
X0253980Y0123966D01*
X0254128Y0124028D01*
X0254278Y0124086D01*
X0254429Y0124141D01*
X0254582Y0124192D01*
X0254736Y0124239D01*
X0254891Y0124282D01*
X0255047Y0124321D01*
X0255203Y0124357D01*
X0255361Y0124388D01*
X0255519Y0124416D01*
X0255678Y0124440D01*
X0255838Y0124460D01*
X0255998Y0124476D01*
X0256158Y0124488D01*
X0256319Y0124496D01*
X0256480Y0124500D01*
X0256640Y0124500D01*
X0256801Y0124496D01*
X0256962Y0124488D01*
X0257122Y0124476D01*
X0257282Y0124460D01*
X0257442Y0124440D01*
X0257601Y0124416D01*
X0257759Y0124388D01*
X0257917Y0124357D01*
X0258073Y0124321D01*
X0258229Y0124282D01*
X0258384Y0124239D01*
X0258538Y0124192D01*
X0258691Y0124141D01*
X0258842Y0124086D01*
X0258992Y0124028D01*
X0259140Y0123966D01*
X0259287Y0123900D01*
X0259432Y0123831D01*
X0259575Y0123758D01*
X0259717Y0123682D01*
X0259856Y0123602D01*
X0259994Y0123519D01*
X0260129Y0123432D01*
X0260263Y0123342D01*
X0260394Y0123249D01*
X0260522Y0123153D01*
X0260648Y0123053D01*
X0260772Y0122950D01*
X0260893Y0122845D01*
X0261012Y0122736D01*
X0261128Y0122625D01*
X0261241Y0122510D01*
X0261351Y0122393D01*
X0261458Y0122273D01*
X0261562Y0122151D01*
X0261663Y0122026D01*
X0261761Y0121898D01*
X0261856Y0121768D01*
X0261948Y0121636D01*
X0262036Y0121502D01*
X0262121Y0121365D01*
X0262203Y0121227D01*
X0262281Y0121086D01*
X0262355Y0120944D01*
X0262426Y0120800D01*
X0262494Y0120654D01*
X0262557Y0120506D01*
X0262618Y0120357D01*
X0262674Y0120206D01*
X0262727Y0120054D01*
X0262776Y0119901D01*
X0262821Y0119747D01*
X0262862Y0119592D01*
X0262900Y0119435D01*
X0262933Y0119278D01*
X0262963Y0119120D01*
X0262989Y0118961D01*
X0263010Y0118802D01*
X0263028Y0118642D01*
X0263042Y0118482D01*
X0263052Y0118321D01*
X0263058Y0118161D01*
X0263060Y0118000D01*
X0263058Y0117839D01*
X0263052Y0117679D01*
X0263042Y0117518D01*
X0263028Y0117358D01*
X0263010Y0117198D01*
X0262989Y0117039D01*
X0262963Y0116880D01*
X0262933Y0116722D01*
X0262900Y0116565D01*
X0262862Y0116408D01*
X0262821Y0116253D01*
X0262776Y0116099D01*
X0262727Y0115946D01*
X0262674Y0115794D01*
X0262618Y0115643D01*
X0262557Y0115494D01*
X0262494Y0115346D01*
X0262426Y0115200D01*
X0262355Y0115056D01*
X0262281Y0114914D01*
X0262203Y0114773D01*
X0262121Y0114635D01*
X0262036Y0114498D01*
X0261948Y0114364D01*
X0261856Y0114232D01*
X0261761Y0114102D01*
X0261663Y0113974D01*
X0261562Y0113849D01*
X0261458Y0113727D01*
X0261351Y0113607D01*
X0261241Y0113490D01*
X0261128Y0113375D01*
X0261012Y0113264D01*
X0260893Y0113155D01*
X0260772Y0113050D01*
X0260648Y0112947D01*
X0260522Y0112847D01*
X0260394Y0112751D01*
X0260263Y0112658D01*
X0260129Y0112568D01*
X0259994Y0112481D01*
X0259856Y0112398D01*
X0259717Y0112318D01*
X0259575Y0112242D01*
X0259432Y0112169D01*
X0259287Y0112100D01*
X0259140Y0112034D01*
X0258992Y0111972D01*
X0258842Y0111914D01*
X0258691Y0111859D01*
X0258538Y0111808D01*
X0258384Y0111761D01*
X0258229Y0111718D01*
X0258073Y0111679D01*
X0257917Y0111643D01*
X0257759Y0111612D01*
X0257601Y0111584D01*
X0257442Y0111560D01*
X0257282Y0111540D01*
X0257122Y0111524D01*
X0256962Y0111512D01*
X0256801Y0111504D01*
X0256640Y0111500D01*
X0256480Y0111500D01*
X0256319Y0111504D01*
X0256158Y0111512D01*
X0255998Y0111524D01*
X0255838Y0111540D01*
X0255678Y0111560D01*
X0255519Y0111584D01*
X0255361Y0111612D01*
X0255203Y0111643D01*
X0255047Y0111679D01*
X0254891Y0111718D01*
X0254736Y0111761D01*
X0254582Y0111808D01*
X0254429Y0111859D01*
X0254278Y0111914D01*
X0254128Y0111972D01*
X0253980Y0112034D01*
X0253833Y0112100D01*
X0253688Y0112169D01*
X0253545Y0112242D01*
X0253403Y0112318D01*
X0253264Y0112398D01*
X0253126Y0112481D01*
X0252991Y0112568D01*
X0252857Y0112658D01*
X0252726Y0112751D01*
X0252598Y0112847D01*
X0252472Y0112947D01*
X0252348Y0113050D01*
X0252227Y0113155D01*
X0252108Y0113264D01*
X0251992Y0113375D01*
X0251879Y0113490D01*
X0251769Y0113607D01*
X0251662Y0113727D01*
X0251558Y0113849D01*
X0251457Y0113974D01*
X0251359Y0114102D01*
X0251264Y0114232D01*
X0251172Y0114364D01*
X0251084Y0114498D01*
X0250999Y0114635D01*
X0250917Y0114773D01*
X0250839Y0114914D01*
X0250765Y0115056D01*
X0250694Y0115200D01*
X0250626Y0115346D01*
X0250563Y0115494D01*
X0250502Y0115643D01*
X0250446Y0115794D01*
X0250393Y0115946D01*
X0250344Y0116099D01*
X0250299Y0116253D01*
X0250258Y0116408D01*
X0250220Y0116565D01*
X0250187Y0116722D01*
X0250157Y0116880D01*
X0250131Y0117039D01*
X0250110Y0117198D01*
X0250092Y0117358D01*
X0250078Y0117518D01*
X0250068Y0117679D01*
X0250062Y0117839D01*
X0250060Y0118000D01*
X0350060Y0118000D02*
X0350062Y0118161D01*
X0350068Y0118321D01*
X0350078Y0118482D01*
X0350092Y0118642D01*
X0350110Y0118802D01*
X0350131Y0118961D01*
X0350157Y0119120D01*
X0350187Y0119278D01*
X0350220Y0119435D01*
X0350258Y0119592D01*
X0350299Y0119747D01*
X0350344Y0119901D01*
X0350393Y0120054D01*
X0350446Y0120206D01*
X0350502Y0120357D01*
X0350563Y0120506D01*
X0350626Y0120654D01*
X0350694Y0120800D01*
X0350765Y0120944D01*
X0350839Y0121086D01*
X0350917Y0121227D01*
X0350999Y0121365D01*
X0351084Y0121502D01*
X0351172Y0121636D01*
X0351264Y0121768D01*
X0351359Y0121898D01*
X0351457Y0122026D01*
X0351558Y0122151D01*
X0351662Y0122273D01*
X0351769Y0122393D01*
X0351879Y0122510D01*
X0351992Y0122625D01*
X0352108Y0122736D01*
X0352227Y0122845D01*
X0352348Y0122950D01*
X0352472Y0123053D01*
X0352598Y0123153D01*
X0352726Y0123249D01*
X0352857Y0123342D01*
X0352991Y0123432D01*
X0353126Y0123519D01*
X0353264Y0123602D01*
X0353403Y0123682D01*
X0353545Y0123758D01*
X0353688Y0123831D01*
X0353833Y0123900D01*
X0353980Y0123966D01*
X0354128Y0124028D01*
X0354278Y0124086D01*
X0354429Y0124141D01*
X0354582Y0124192D01*
X0354736Y0124239D01*
X0354891Y0124282D01*
X0355047Y0124321D01*
X0355203Y0124357D01*
X0355361Y0124388D01*
X0355519Y0124416D01*
X0355678Y0124440D01*
X0355838Y0124460D01*
X0355998Y0124476D01*
X0356158Y0124488D01*
X0356319Y0124496D01*
X0356480Y0124500D01*
X0356640Y0124500D01*
X0356801Y0124496D01*
X0356962Y0124488D01*
X0357122Y0124476D01*
X0357282Y0124460D01*
X0357442Y0124440D01*
X0357601Y0124416D01*
X0357759Y0124388D01*
X0357917Y0124357D01*
X0358073Y0124321D01*
X0358229Y0124282D01*
X0358384Y0124239D01*
X0358538Y0124192D01*
X0358691Y0124141D01*
X0358842Y0124086D01*
X0358992Y0124028D01*
X0359140Y0123966D01*
X0359287Y0123900D01*
X0359432Y0123831D01*
X0359575Y0123758D01*
X0359717Y0123682D01*
X0359856Y0123602D01*
X0359994Y0123519D01*
X0360129Y0123432D01*
X0360263Y0123342D01*
X0360394Y0123249D01*
X0360522Y0123153D01*
X0360648Y0123053D01*
X0360772Y0122950D01*
X0360893Y0122845D01*
X0361012Y0122736D01*
X0361128Y0122625D01*
X0361241Y0122510D01*
X0361351Y0122393D01*
X0361458Y0122273D01*
X0361562Y0122151D01*
X0361663Y0122026D01*
X0361761Y0121898D01*
X0361856Y0121768D01*
X0361948Y0121636D01*
X0362036Y0121502D01*
X0362121Y0121365D01*
X0362203Y0121227D01*
X0362281Y0121086D01*
X0362355Y0120944D01*
X0362426Y0120800D01*
X0362494Y0120654D01*
X0362557Y0120506D01*
X0362618Y0120357D01*
X0362674Y0120206D01*
X0362727Y0120054D01*
X0362776Y0119901D01*
X0362821Y0119747D01*
X0362862Y0119592D01*
X0362900Y0119435D01*
X0362933Y0119278D01*
X0362963Y0119120D01*
X0362989Y0118961D01*
X0363010Y0118802D01*
X0363028Y0118642D01*
X0363042Y0118482D01*
X0363052Y0118321D01*
X0363058Y0118161D01*
X0363060Y0118000D01*
X0363058Y0117839D01*
X0363052Y0117679D01*
X0363042Y0117518D01*
X0363028Y0117358D01*
X0363010Y0117198D01*
X0362989Y0117039D01*
X0362963Y0116880D01*
X0362933Y0116722D01*
X0362900Y0116565D01*
X0362862Y0116408D01*
X0362821Y0116253D01*
X0362776Y0116099D01*
X0362727Y0115946D01*
X0362674Y0115794D01*
X0362618Y0115643D01*
X0362557Y0115494D01*
X0362494Y0115346D01*
X0362426Y0115200D01*
X0362355Y0115056D01*
X0362281Y0114914D01*
X0362203Y0114773D01*
X0362121Y0114635D01*
X0362036Y0114498D01*
X0361948Y0114364D01*
X0361856Y0114232D01*
X0361761Y0114102D01*
X0361663Y0113974D01*
X0361562Y0113849D01*
X0361458Y0113727D01*
X0361351Y0113607D01*
X0361241Y0113490D01*
X0361128Y0113375D01*
X0361012Y0113264D01*
X0360893Y0113155D01*
X0360772Y0113050D01*
X0360648Y0112947D01*
X0360522Y0112847D01*
X0360394Y0112751D01*
X0360263Y0112658D01*
X0360129Y0112568D01*
X0359994Y0112481D01*
X0359856Y0112398D01*
X0359717Y0112318D01*
X0359575Y0112242D01*
X0359432Y0112169D01*
X0359287Y0112100D01*
X0359140Y0112034D01*
X0358992Y0111972D01*
X0358842Y0111914D01*
X0358691Y0111859D01*
X0358538Y0111808D01*
X0358384Y0111761D01*
X0358229Y0111718D01*
X0358073Y0111679D01*
X0357917Y0111643D01*
X0357759Y0111612D01*
X0357601Y0111584D01*
X0357442Y0111560D01*
X0357282Y0111540D01*
X0357122Y0111524D01*
X0356962Y0111512D01*
X0356801Y0111504D01*
X0356640Y0111500D01*
X0356480Y0111500D01*
X0356319Y0111504D01*
X0356158Y0111512D01*
X0355998Y0111524D01*
X0355838Y0111540D01*
X0355678Y0111560D01*
X0355519Y0111584D01*
X0355361Y0111612D01*
X0355203Y0111643D01*
X0355047Y0111679D01*
X0354891Y0111718D01*
X0354736Y0111761D01*
X0354582Y0111808D01*
X0354429Y0111859D01*
X0354278Y0111914D01*
X0354128Y0111972D01*
X0353980Y0112034D01*
X0353833Y0112100D01*
X0353688Y0112169D01*
X0353545Y0112242D01*
X0353403Y0112318D01*
X0353264Y0112398D01*
X0353126Y0112481D01*
X0352991Y0112568D01*
X0352857Y0112658D01*
X0352726Y0112751D01*
X0352598Y0112847D01*
X0352472Y0112947D01*
X0352348Y0113050D01*
X0352227Y0113155D01*
X0352108Y0113264D01*
X0351992Y0113375D01*
X0351879Y0113490D01*
X0351769Y0113607D01*
X0351662Y0113727D01*
X0351558Y0113849D01*
X0351457Y0113974D01*
X0351359Y0114102D01*
X0351264Y0114232D01*
X0351172Y0114364D01*
X0351084Y0114498D01*
X0350999Y0114635D01*
X0350917Y0114773D01*
X0350839Y0114914D01*
X0350765Y0115056D01*
X0350694Y0115200D01*
X0350626Y0115346D01*
X0350563Y0115494D01*
X0350502Y0115643D01*
X0350446Y0115794D01*
X0350393Y0115946D01*
X0350344Y0116099D01*
X0350299Y0116253D01*
X0350258Y0116408D01*
X0350220Y0116565D01*
X0350187Y0116722D01*
X0350157Y0116880D01*
X0350131Y0117039D01*
X0350110Y0117198D01*
X0350092Y0117358D01*
X0350078Y0117518D01*
X0350068Y0117679D01*
X0350062Y0117839D01*
X0350060Y0118000D01*
X0350060Y0016000D02*
X0350062Y0016161D01*
X0350068Y0016321D01*
X0350078Y0016482D01*
X0350092Y0016642D01*
X0350110Y0016802D01*
X0350131Y0016961D01*
X0350157Y0017120D01*
X0350187Y0017278D01*
X0350220Y0017435D01*
X0350258Y0017592D01*
X0350299Y0017747D01*
X0350344Y0017901D01*
X0350393Y0018054D01*
X0350446Y0018206D01*
X0350502Y0018357D01*
X0350563Y0018506D01*
X0350626Y0018654D01*
X0350694Y0018800D01*
X0350765Y0018944D01*
X0350839Y0019086D01*
X0350917Y0019227D01*
X0350999Y0019365D01*
X0351084Y0019502D01*
X0351172Y0019636D01*
X0351264Y0019768D01*
X0351359Y0019898D01*
X0351457Y0020026D01*
X0351558Y0020151D01*
X0351662Y0020273D01*
X0351769Y0020393D01*
X0351879Y0020510D01*
X0351992Y0020625D01*
X0352108Y0020736D01*
X0352227Y0020845D01*
X0352348Y0020950D01*
X0352472Y0021053D01*
X0352598Y0021153D01*
X0352726Y0021249D01*
X0352857Y0021342D01*
X0352991Y0021432D01*
X0353126Y0021519D01*
X0353264Y0021602D01*
X0353403Y0021682D01*
X0353545Y0021758D01*
X0353688Y0021831D01*
X0353833Y0021900D01*
X0353980Y0021966D01*
X0354128Y0022028D01*
X0354278Y0022086D01*
X0354429Y0022141D01*
X0354582Y0022192D01*
X0354736Y0022239D01*
X0354891Y0022282D01*
X0355047Y0022321D01*
X0355203Y0022357D01*
X0355361Y0022388D01*
X0355519Y0022416D01*
X0355678Y0022440D01*
X0355838Y0022460D01*
X0355998Y0022476D01*
X0356158Y0022488D01*
X0356319Y0022496D01*
X0356480Y0022500D01*
X0356640Y0022500D01*
X0356801Y0022496D01*
X0356962Y0022488D01*
X0357122Y0022476D01*
X0357282Y0022460D01*
X0357442Y0022440D01*
X0357601Y0022416D01*
X0357759Y0022388D01*
X0357917Y0022357D01*
X0358073Y0022321D01*
X0358229Y0022282D01*
X0358384Y0022239D01*
X0358538Y0022192D01*
X0358691Y0022141D01*
X0358842Y0022086D01*
X0358992Y0022028D01*
X0359140Y0021966D01*
X0359287Y0021900D01*
X0359432Y0021831D01*
X0359575Y0021758D01*
X0359717Y0021682D01*
X0359856Y0021602D01*
X0359994Y0021519D01*
X0360129Y0021432D01*
X0360263Y0021342D01*
X0360394Y0021249D01*
X0360522Y0021153D01*
X0360648Y0021053D01*
X0360772Y0020950D01*
X0360893Y0020845D01*
X0361012Y0020736D01*
X0361128Y0020625D01*
X0361241Y0020510D01*
X0361351Y0020393D01*
X0361458Y0020273D01*
X0361562Y0020151D01*
X0361663Y0020026D01*
X0361761Y0019898D01*
X0361856Y0019768D01*
X0361948Y0019636D01*
X0362036Y0019502D01*
X0362121Y0019365D01*
X0362203Y0019227D01*
X0362281Y0019086D01*
X0362355Y0018944D01*
X0362426Y0018800D01*
X0362494Y0018654D01*
X0362557Y0018506D01*
X0362618Y0018357D01*
X0362674Y0018206D01*
X0362727Y0018054D01*
X0362776Y0017901D01*
X0362821Y0017747D01*
X0362862Y0017592D01*
X0362900Y0017435D01*
X0362933Y0017278D01*
X0362963Y0017120D01*
X0362989Y0016961D01*
X0363010Y0016802D01*
X0363028Y0016642D01*
X0363042Y0016482D01*
X0363052Y0016321D01*
X0363058Y0016161D01*
X0363060Y0016000D01*
X0363058Y0015839D01*
X0363052Y0015679D01*
X0363042Y0015518D01*
X0363028Y0015358D01*
X0363010Y0015198D01*
X0362989Y0015039D01*
X0362963Y0014880D01*
X0362933Y0014722D01*
X0362900Y0014565D01*
X0362862Y0014408D01*
X0362821Y0014253D01*
X0362776Y0014099D01*
X0362727Y0013946D01*
X0362674Y0013794D01*
X0362618Y0013643D01*
X0362557Y0013494D01*
X0362494Y0013346D01*
X0362426Y0013200D01*
X0362355Y0013056D01*
X0362281Y0012914D01*
X0362203Y0012773D01*
X0362121Y0012635D01*
X0362036Y0012498D01*
X0361948Y0012364D01*
X0361856Y0012232D01*
X0361761Y0012102D01*
X0361663Y0011974D01*
X0361562Y0011849D01*
X0361458Y0011727D01*
X0361351Y0011607D01*
X0361241Y0011490D01*
X0361128Y0011375D01*
X0361012Y0011264D01*
X0360893Y0011155D01*
X0360772Y0011050D01*
X0360648Y0010947D01*
X0360522Y0010847D01*
X0360394Y0010751D01*
X0360263Y0010658D01*
X0360129Y0010568D01*
X0359994Y0010481D01*
X0359856Y0010398D01*
X0359717Y0010318D01*
X0359575Y0010242D01*
X0359432Y0010169D01*
X0359287Y0010100D01*
X0359140Y0010034D01*
X0358992Y0009972D01*
X0358842Y0009914D01*
X0358691Y0009859D01*
X0358538Y0009808D01*
X0358384Y0009761D01*
X0358229Y0009718D01*
X0358073Y0009679D01*
X0357917Y0009643D01*
X0357759Y0009612D01*
X0357601Y0009584D01*
X0357442Y0009560D01*
X0357282Y0009540D01*
X0357122Y0009524D01*
X0356962Y0009512D01*
X0356801Y0009504D01*
X0356640Y0009500D01*
X0356480Y0009500D01*
X0356319Y0009504D01*
X0356158Y0009512D01*
X0355998Y0009524D01*
X0355838Y0009540D01*
X0355678Y0009560D01*
X0355519Y0009584D01*
X0355361Y0009612D01*
X0355203Y0009643D01*
X0355047Y0009679D01*
X0354891Y0009718D01*
X0354736Y0009761D01*
X0354582Y0009808D01*
X0354429Y0009859D01*
X0354278Y0009914D01*
X0354128Y0009972D01*
X0353980Y0010034D01*
X0353833Y0010100D01*
X0353688Y0010169D01*
X0353545Y0010242D01*
X0353403Y0010318D01*
X0353264Y0010398D01*
X0353126Y0010481D01*
X0352991Y0010568D01*
X0352857Y0010658D01*
X0352726Y0010751D01*
X0352598Y0010847D01*
X0352472Y0010947D01*
X0352348Y0011050D01*
X0352227Y0011155D01*
X0352108Y0011264D01*
X0351992Y0011375D01*
X0351879Y0011490D01*
X0351769Y0011607D01*
X0351662Y0011727D01*
X0351558Y0011849D01*
X0351457Y0011974D01*
X0351359Y0012102D01*
X0351264Y0012232D01*
X0351172Y0012364D01*
X0351084Y0012498D01*
X0350999Y0012635D01*
X0350917Y0012773D01*
X0350839Y0012914D01*
X0350765Y0013056D01*
X0350694Y0013200D01*
X0350626Y0013346D01*
X0350563Y0013494D01*
X0350502Y0013643D01*
X0350446Y0013794D01*
X0350393Y0013946D01*
X0350344Y0014099D01*
X0350299Y0014253D01*
X0350258Y0014408D01*
X0350220Y0014565D01*
X0350187Y0014722D01*
X0350157Y0014880D01*
X0350131Y0015039D01*
X0350110Y0015198D01*
X0350092Y0015358D01*
X0350078Y0015518D01*
X0350068Y0015679D01*
X0350062Y0015839D01*
X0350060Y0016000D01*
X0250060Y0016000D02*
X0250062Y0016161D01*
X0250068Y0016321D01*
X0250078Y0016482D01*
X0250092Y0016642D01*
X0250110Y0016802D01*
X0250131Y0016961D01*
X0250157Y0017120D01*
X0250187Y0017278D01*
X0250220Y0017435D01*
X0250258Y0017592D01*
X0250299Y0017747D01*
X0250344Y0017901D01*
X0250393Y0018054D01*
X0250446Y0018206D01*
X0250502Y0018357D01*
X0250563Y0018506D01*
X0250626Y0018654D01*
X0250694Y0018800D01*
X0250765Y0018944D01*
X0250839Y0019086D01*
X0250917Y0019227D01*
X0250999Y0019365D01*
X0251084Y0019502D01*
X0251172Y0019636D01*
X0251264Y0019768D01*
X0251359Y0019898D01*
X0251457Y0020026D01*
X0251558Y0020151D01*
X0251662Y0020273D01*
X0251769Y0020393D01*
X0251879Y0020510D01*
X0251992Y0020625D01*
X0252108Y0020736D01*
X0252227Y0020845D01*
X0252348Y0020950D01*
X0252472Y0021053D01*
X0252598Y0021153D01*
X0252726Y0021249D01*
X0252857Y0021342D01*
X0252991Y0021432D01*
X0253126Y0021519D01*
X0253264Y0021602D01*
X0253403Y0021682D01*
X0253545Y0021758D01*
X0253688Y0021831D01*
X0253833Y0021900D01*
X0253980Y0021966D01*
X0254128Y0022028D01*
X0254278Y0022086D01*
X0254429Y0022141D01*
X0254582Y0022192D01*
X0254736Y0022239D01*
X0254891Y0022282D01*
X0255047Y0022321D01*
X0255203Y0022357D01*
X0255361Y0022388D01*
X0255519Y0022416D01*
X0255678Y0022440D01*
X0255838Y0022460D01*
X0255998Y0022476D01*
X0256158Y0022488D01*
X0256319Y0022496D01*
X0256480Y0022500D01*
X0256640Y0022500D01*
X0256801Y0022496D01*
X0256962Y0022488D01*
X0257122Y0022476D01*
X0257282Y0022460D01*
X0257442Y0022440D01*
X0257601Y0022416D01*
X0257759Y0022388D01*
X0257917Y0022357D01*
X0258073Y0022321D01*
X0258229Y0022282D01*
X0258384Y0022239D01*
X0258538Y0022192D01*
X0258691Y0022141D01*
X0258842Y0022086D01*
X0258992Y0022028D01*
X0259140Y0021966D01*
X0259287Y0021900D01*
X0259432Y0021831D01*
X0259575Y0021758D01*
X0259717Y0021682D01*
X0259856Y0021602D01*
X0259994Y0021519D01*
X0260129Y0021432D01*
X0260263Y0021342D01*
X0260394Y0021249D01*
X0260522Y0021153D01*
X0260648Y0021053D01*
X0260772Y0020950D01*
X0260893Y0020845D01*
X0261012Y0020736D01*
X0261128Y0020625D01*
X0261241Y0020510D01*
X0261351Y0020393D01*
X0261458Y0020273D01*
X0261562Y0020151D01*
X0261663Y0020026D01*
X0261761Y0019898D01*
X0261856Y0019768D01*
X0261948Y0019636D01*
X0262036Y0019502D01*
X0262121Y0019365D01*
X0262203Y0019227D01*
X0262281Y0019086D01*
X0262355Y0018944D01*
X0262426Y0018800D01*
X0262494Y0018654D01*
X0262557Y0018506D01*
X0262618Y0018357D01*
X0262674Y0018206D01*
X0262727Y0018054D01*
X0262776Y0017901D01*
X0262821Y0017747D01*
X0262862Y0017592D01*
X0262900Y0017435D01*
X0262933Y0017278D01*
X0262963Y0017120D01*
X0262989Y0016961D01*
X0263010Y0016802D01*
X0263028Y0016642D01*
X0263042Y0016482D01*
X0263052Y0016321D01*
X0263058Y0016161D01*
X0263060Y0016000D01*
X0263058Y0015839D01*
X0263052Y0015679D01*
X0263042Y0015518D01*
X0263028Y0015358D01*
X0263010Y0015198D01*
X0262989Y0015039D01*
X0262963Y0014880D01*
X0262933Y0014722D01*
X0262900Y0014565D01*
X0262862Y0014408D01*
X0262821Y0014253D01*
X0262776Y0014099D01*
X0262727Y0013946D01*
X0262674Y0013794D01*
X0262618Y0013643D01*
X0262557Y0013494D01*
X0262494Y0013346D01*
X0262426Y0013200D01*
X0262355Y0013056D01*
X0262281Y0012914D01*
X0262203Y0012773D01*
X0262121Y0012635D01*
X0262036Y0012498D01*
X0261948Y0012364D01*
X0261856Y0012232D01*
X0261761Y0012102D01*
X0261663Y0011974D01*
X0261562Y0011849D01*
X0261458Y0011727D01*
X0261351Y0011607D01*
X0261241Y0011490D01*
X0261128Y0011375D01*
X0261012Y0011264D01*
X0260893Y0011155D01*
X0260772Y0011050D01*
X0260648Y0010947D01*
X0260522Y0010847D01*
X0260394Y0010751D01*
X0260263Y0010658D01*
X0260129Y0010568D01*
X0259994Y0010481D01*
X0259856Y0010398D01*
X0259717Y0010318D01*
X0259575Y0010242D01*
X0259432Y0010169D01*
X0259287Y0010100D01*
X0259140Y0010034D01*
X0258992Y0009972D01*
X0258842Y0009914D01*
X0258691Y0009859D01*
X0258538Y0009808D01*
X0258384Y0009761D01*
X0258229Y0009718D01*
X0258073Y0009679D01*
X0257917Y0009643D01*
X0257759Y0009612D01*
X0257601Y0009584D01*
X0257442Y0009560D01*
X0257282Y0009540D01*
X0257122Y0009524D01*
X0256962Y0009512D01*
X0256801Y0009504D01*
X0256640Y0009500D01*
X0256480Y0009500D01*
X0256319Y0009504D01*
X0256158Y0009512D01*
X0255998Y0009524D01*
X0255838Y0009540D01*
X0255678Y0009560D01*
X0255519Y0009584D01*
X0255361Y0009612D01*
X0255203Y0009643D01*
X0255047Y0009679D01*
X0254891Y0009718D01*
X0254736Y0009761D01*
X0254582Y0009808D01*
X0254429Y0009859D01*
X0254278Y0009914D01*
X0254128Y0009972D01*
X0253980Y0010034D01*
X0253833Y0010100D01*
X0253688Y0010169D01*
X0253545Y0010242D01*
X0253403Y0010318D01*
X0253264Y0010398D01*
X0253126Y0010481D01*
X0252991Y0010568D01*
X0252857Y0010658D01*
X0252726Y0010751D01*
X0252598Y0010847D01*
X0252472Y0010947D01*
X0252348Y0011050D01*
X0252227Y0011155D01*
X0252108Y0011264D01*
X0251992Y0011375D01*
X0251879Y0011490D01*
X0251769Y0011607D01*
X0251662Y0011727D01*
X0251558Y0011849D01*
X0251457Y0011974D01*
X0251359Y0012102D01*
X0251264Y0012232D01*
X0251172Y0012364D01*
X0251084Y0012498D01*
X0250999Y0012635D01*
X0250917Y0012773D01*
X0250839Y0012914D01*
X0250765Y0013056D01*
X0250694Y0013200D01*
X0250626Y0013346D01*
X0250563Y0013494D01*
X0250502Y0013643D01*
X0250446Y0013794D01*
X0250393Y0013946D01*
X0250344Y0014099D01*
X0250299Y0014253D01*
X0250258Y0014408D01*
X0250220Y0014565D01*
X0250187Y0014722D01*
X0250157Y0014880D01*
X0250131Y0015039D01*
X0250110Y0015198D01*
X0250092Y0015358D01*
X0250078Y0015518D01*
X0250068Y0015679D01*
X0250062Y0015839D01*
X0250060Y0016000D01*
X0228060Y0016000D02*
X0228062Y0016161D01*
X0228068Y0016321D01*
X0228078Y0016482D01*
X0228092Y0016642D01*
X0228110Y0016802D01*
X0228131Y0016961D01*
X0228157Y0017120D01*
X0228187Y0017278D01*
X0228220Y0017435D01*
X0228258Y0017592D01*
X0228299Y0017747D01*
X0228344Y0017901D01*
X0228393Y0018054D01*
X0228446Y0018206D01*
X0228502Y0018357D01*
X0228563Y0018506D01*
X0228626Y0018654D01*
X0228694Y0018800D01*
X0228765Y0018944D01*
X0228839Y0019086D01*
X0228917Y0019227D01*
X0228999Y0019365D01*
X0229084Y0019502D01*
X0229172Y0019636D01*
X0229264Y0019768D01*
X0229359Y0019898D01*
X0229457Y0020026D01*
X0229558Y0020151D01*
X0229662Y0020273D01*
X0229769Y0020393D01*
X0229879Y0020510D01*
X0229992Y0020625D01*
X0230108Y0020736D01*
X0230227Y0020845D01*
X0230348Y0020950D01*
X0230472Y0021053D01*
X0230598Y0021153D01*
X0230726Y0021249D01*
X0230857Y0021342D01*
X0230991Y0021432D01*
X0231126Y0021519D01*
X0231264Y0021602D01*
X0231403Y0021682D01*
X0231545Y0021758D01*
X0231688Y0021831D01*
X0231833Y0021900D01*
X0231980Y0021966D01*
X0232128Y0022028D01*
X0232278Y0022086D01*
X0232429Y0022141D01*
X0232582Y0022192D01*
X0232736Y0022239D01*
X0232891Y0022282D01*
X0233047Y0022321D01*
X0233203Y0022357D01*
X0233361Y0022388D01*
X0233519Y0022416D01*
X0233678Y0022440D01*
X0233838Y0022460D01*
X0233998Y0022476D01*
X0234158Y0022488D01*
X0234319Y0022496D01*
X0234480Y0022500D01*
X0234640Y0022500D01*
X0234801Y0022496D01*
X0234962Y0022488D01*
X0235122Y0022476D01*
X0235282Y0022460D01*
X0235442Y0022440D01*
X0235601Y0022416D01*
X0235759Y0022388D01*
X0235917Y0022357D01*
X0236073Y0022321D01*
X0236229Y0022282D01*
X0236384Y0022239D01*
X0236538Y0022192D01*
X0236691Y0022141D01*
X0236842Y0022086D01*
X0236992Y0022028D01*
X0237140Y0021966D01*
X0237287Y0021900D01*
X0237432Y0021831D01*
X0237575Y0021758D01*
X0237717Y0021682D01*
X0237856Y0021602D01*
X0237994Y0021519D01*
X0238129Y0021432D01*
X0238263Y0021342D01*
X0238394Y0021249D01*
X0238522Y0021153D01*
X0238648Y0021053D01*
X0238772Y0020950D01*
X0238893Y0020845D01*
X0239012Y0020736D01*
X0239128Y0020625D01*
X0239241Y0020510D01*
X0239351Y0020393D01*
X0239458Y0020273D01*
X0239562Y0020151D01*
X0239663Y0020026D01*
X0239761Y0019898D01*
X0239856Y0019768D01*
X0239948Y0019636D01*
X0240036Y0019502D01*
X0240121Y0019365D01*
X0240203Y0019227D01*
X0240281Y0019086D01*
X0240355Y0018944D01*
X0240426Y0018800D01*
X0240494Y0018654D01*
X0240557Y0018506D01*
X0240618Y0018357D01*
X0240674Y0018206D01*
X0240727Y0018054D01*
X0240776Y0017901D01*
X0240821Y0017747D01*
X0240862Y0017592D01*
X0240900Y0017435D01*
X0240933Y0017278D01*
X0240963Y0017120D01*
X0240989Y0016961D01*
X0241010Y0016802D01*
X0241028Y0016642D01*
X0241042Y0016482D01*
X0241052Y0016321D01*
X0241058Y0016161D01*
X0241060Y0016000D01*
X0241058Y0015839D01*
X0241052Y0015679D01*
X0241042Y0015518D01*
X0241028Y0015358D01*
X0241010Y0015198D01*
X0240989Y0015039D01*
X0240963Y0014880D01*
X0240933Y0014722D01*
X0240900Y0014565D01*
X0240862Y0014408D01*
X0240821Y0014253D01*
X0240776Y0014099D01*
X0240727Y0013946D01*
X0240674Y0013794D01*
X0240618Y0013643D01*
X0240557Y0013494D01*
X0240494Y0013346D01*
X0240426Y0013200D01*
X0240355Y0013056D01*
X0240281Y0012914D01*
X0240203Y0012773D01*
X0240121Y0012635D01*
X0240036Y0012498D01*
X0239948Y0012364D01*
X0239856Y0012232D01*
X0239761Y0012102D01*
X0239663Y0011974D01*
X0239562Y0011849D01*
X0239458Y0011727D01*
X0239351Y0011607D01*
X0239241Y0011490D01*
X0239128Y0011375D01*
X0239012Y0011264D01*
X0238893Y0011155D01*
X0238772Y0011050D01*
X0238648Y0010947D01*
X0238522Y0010847D01*
X0238394Y0010751D01*
X0238263Y0010658D01*
X0238129Y0010568D01*
X0237994Y0010481D01*
X0237856Y0010398D01*
X0237717Y0010318D01*
X0237575Y0010242D01*
X0237432Y0010169D01*
X0237287Y0010100D01*
X0237140Y0010034D01*
X0236992Y0009972D01*
X0236842Y0009914D01*
X0236691Y0009859D01*
X0236538Y0009808D01*
X0236384Y0009761D01*
X0236229Y0009718D01*
X0236073Y0009679D01*
X0235917Y0009643D01*
X0235759Y0009612D01*
X0235601Y0009584D01*
X0235442Y0009560D01*
X0235282Y0009540D01*
X0235122Y0009524D01*
X0234962Y0009512D01*
X0234801Y0009504D01*
X0234640Y0009500D01*
X0234480Y0009500D01*
X0234319Y0009504D01*
X0234158Y0009512D01*
X0233998Y0009524D01*
X0233838Y0009540D01*
X0233678Y0009560D01*
X0233519Y0009584D01*
X0233361Y0009612D01*
X0233203Y0009643D01*
X0233047Y0009679D01*
X0232891Y0009718D01*
X0232736Y0009761D01*
X0232582Y0009808D01*
X0232429Y0009859D01*
X0232278Y0009914D01*
X0232128Y0009972D01*
X0231980Y0010034D01*
X0231833Y0010100D01*
X0231688Y0010169D01*
X0231545Y0010242D01*
X0231403Y0010318D01*
X0231264Y0010398D01*
X0231126Y0010481D01*
X0230991Y0010568D01*
X0230857Y0010658D01*
X0230726Y0010751D01*
X0230598Y0010847D01*
X0230472Y0010947D01*
X0230348Y0011050D01*
X0230227Y0011155D01*
X0230108Y0011264D01*
X0229992Y0011375D01*
X0229879Y0011490D01*
X0229769Y0011607D01*
X0229662Y0011727D01*
X0229558Y0011849D01*
X0229457Y0011974D01*
X0229359Y0012102D01*
X0229264Y0012232D01*
X0229172Y0012364D01*
X0229084Y0012498D01*
X0228999Y0012635D01*
X0228917Y0012773D01*
X0228839Y0012914D01*
X0228765Y0013056D01*
X0228694Y0013200D01*
X0228626Y0013346D01*
X0228563Y0013494D01*
X0228502Y0013643D01*
X0228446Y0013794D01*
X0228393Y0013946D01*
X0228344Y0014099D01*
X0228299Y0014253D01*
X0228258Y0014408D01*
X0228220Y0014565D01*
X0228187Y0014722D01*
X0228157Y0014880D01*
X0228131Y0015039D01*
X0228110Y0015198D01*
X0228092Y0015358D01*
X0228078Y0015518D01*
X0228068Y0015679D01*
X0228062Y0015839D01*
X0228060Y0016000D01*
X0128060Y0016000D02*
X0128062Y0016161D01*
X0128068Y0016321D01*
X0128078Y0016482D01*
X0128092Y0016642D01*
X0128110Y0016802D01*
X0128131Y0016961D01*
X0128157Y0017120D01*
X0128187Y0017278D01*
X0128220Y0017435D01*
X0128258Y0017592D01*
X0128299Y0017747D01*
X0128344Y0017901D01*
X0128393Y0018054D01*
X0128446Y0018206D01*
X0128502Y0018357D01*
X0128563Y0018506D01*
X0128626Y0018654D01*
X0128694Y0018800D01*
X0128765Y0018944D01*
X0128839Y0019086D01*
X0128917Y0019227D01*
X0128999Y0019365D01*
X0129084Y0019502D01*
X0129172Y0019636D01*
X0129264Y0019768D01*
X0129359Y0019898D01*
X0129457Y0020026D01*
X0129558Y0020151D01*
X0129662Y0020273D01*
X0129769Y0020393D01*
X0129879Y0020510D01*
X0129992Y0020625D01*
X0130108Y0020736D01*
X0130227Y0020845D01*
X0130348Y0020950D01*
X0130472Y0021053D01*
X0130598Y0021153D01*
X0130726Y0021249D01*
X0130857Y0021342D01*
X0130991Y0021432D01*
X0131126Y0021519D01*
X0131264Y0021602D01*
X0131403Y0021682D01*
X0131545Y0021758D01*
X0131688Y0021831D01*
X0131833Y0021900D01*
X0131980Y0021966D01*
X0132128Y0022028D01*
X0132278Y0022086D01*
X0132429Y0022141D01*
X0132582Y0022192D01*
X0132736Y0022239D01*
X0132891Y0022282D01*
X0133047Y0022321D01*
X0133203Y0022357D01*
X0133361Y0022388D01*
X0133519Y0022416D01*
X0133678Y0022440D01*
X0133838Y0022460D01*
X0133998Y0022476D01*
X0134158Y0022488D01*
X0134319Y0022496D01*
X0134480Y0022500D01*
X0134640Y0022500D01*
X0134801Y0022496D01*
X0134962Y0022488D01*
X0135122Y0022476D01*
X0135282Y0022460D01*
X0135442Y0022440D01*
X0135601Y0022416D01*
X0135759Y0022388D01*
X0135917Y0022357D01*
X0136073Y0022321D01*
X0136229Y0022282D01*
X0136384Y0022239D01*
X0136538Y0022192D01*
X0136691Y0022141D01*
X0136842Y0022086D01*
X0136992Y0022028D01*
X0137140Y0021966D01*
X0137287Y0021900D01*
X0137432Y0021831D01*
X0137575Y0021758D01*
X0137717Y0021682D01*
X0137856Y0021602D01*
X0137994Y0021519D01*
X0138129Y0021432D01*
X0138263Y0021342D01*
X0138394Y0021249D01*
X0138522Y0021153D01*
X0138648Y0021053D01*
X0138772Y0020950D01*
X0138893Y0020845D01*
X0139012Y0020736D01*
X0139128Y0020625D01*
X0139241Y0020510D01*
X0139351Y0020393D01*
X0139458Y0020273D01*
X0139562Y0020151D01*
X0139663Y0020026D01*
X0139761Y0019898D01*
X0139856Y0019768D01*
X0139948Y0019636D01*
X0140036Y0019502D01*
X0140121Y0019365D01*
X0140203Y0019227D01*
X0140281Y0019086D01*
X0140355Y0018944D01*
X0140426Y0018800D01*
X0140494Y0018654D01*
X0140557Y0018506D01*
X0140618Y0018357D01*
X0140674Y0018206D01*
X0140727Y0018054D01*
X0140776Y0017901D01*
X0140821Y0017747D01*
X0140862Y0017592D01*
X0140900Y0017435D01*
X0140933Y0017278D01*
X0140963Y0017120D01*
X0140989Y0016961D01*
X0141010Y0016802D01*
X0141028Y0016642D01*
X0141042Y0016482D01*
X0141052Y0016321D01*
X0141058Y0016161D01*
X0141060Y0016000D01*
X0141058Y0015839D01*
X0141052Y0015679D01*
X0141042Y0015518D01*
X0141028Y0015358D01*
X0141010Y0015198D01*
X0140989Y0015039D01*
X0140963Y0014880D01*
X0140933Y0014722D01*
X0140900Y0014565D01*
X0140862Y0014408D01*
X0140821Y0014253D01*
X0140776Y0014099D01*
X0140727Y0013946D01*
X0140674Y0013794D01*
X0140618Y0013643D01*
X0140557Y0013494D01*
X0140494Y0013346D01*
X0140426Y0013200D01*
X0140355Y0013056D01*
X0140281Y0012914D01*
X0140203Y0012773D01*
X0140121Y0012635D01*
X0140036Y0012498D01*
X0139948Y0012364D01*
X0139856Y0012232D01*
X0139761Y0012102D01*
X0139663Y0011974D01*
X0139562Y0011849D01*
X0139458Y0011727D01*
X0139351Y0011607D01*
X0139241Y0011490D01*
X0139128Y0011375D01*
X0139012Y0011264D01*
X0138893Y0011155D01*
X0138772Y0011050D01*
X0138648Y0010947D01*
X0138522Y0010847D01*
X0138394Y0010751D01*
X0138263Y0010658D01*
X0138129Y0010568D01*
X0137994Y0010481D01*
X0137856Y0010398D01*
X0137717Y0010318D01*
X0137575Y0010242D01*
X0137432Y0010169D01*
X0137287Y0010100D01*
X0137140Y0010034D01*
X0136992Y0009972D01*
X0136842Y0009914D01*
X0136691Y0009859D01*
X0136538Y0009808D01*
X0136384Y0009761D01*
X0136229Y0009718D01*
X0136073Y0009679D01*
X0135917Y0009643D01*
X0135759Y0009612D01*
X0135601Y0009584D01*
X0135442Y0009560D01*
X0135282Y0009540D01*
X0135122Y0009524D01*
X0134962Y0009512D01*
X0134801Y0009504D01*
X0134640Y0009500D01*
X0134480Y0009500D01*
X0134319Y0009504D01*
X0134158Y0009512D01*
X0133998Y0009524D01*
X0133838Y0009540D01*
X0133678Y0009560D01*
X0133519Y0009584D01*
X0133361Y0009612D01*
X0133203Y0009643D01*
X0133047Y0009679D01*
X0132891Y0009718D01*
X0132736Y0009761D01*
X0132582Y0009808D01*
X0132429Y0009859D01*
X0132278Y0009914D01*
X0132128Y0009972D01*
X0131980Y0010034D01*
X0131833Y0010100D01*
X0131688Y0010169D01*
X0131545Y0010242D01*
X0131403Y0010318D01*
X0131264Y0010398D01*
X0131126Y0010481D01*
X0130991Y0010568D01*
X0130857Y0010658D01*
X0130726Y0010751D01*
X0130598Y0010847D01*
X0130472Y0010947D01*
X0130348Y0011050D01*
X0130227Y0011155D01*
X0130108Y0011264D01*
X0129992Y0011375D01*
X0129879Y0011490D01*
X0129769Y0011607D01*
X0129662Y0011727D01*
X0129558Y0011849D01*
X0129457Y0011974D01*
X0129359Y0012102D01*
X0129264Y0012232D01*
X0129172Y0012364D01*
X0129084Y0012498D01*
X0128999Y0012635D01*
X0128917Y0012773D01*
X0128839Y0012914D01*
X0128765Y0013056D01*
X0128694Y0013200D01*
X0128626Y0013346D01*
X0128563Y0013494D01*
X0128502Y0013643D01*
X0128446Y0013794D01*
X0128393Y0013946D01*
X0128344Y0014099D01*
X0128299Y0014253D01*
X0128258Y0014408D01*
X0128220Y0014565D01*
X0128187Y0014722D01*
X0128157Y0014880D01*
X0128131Y0015039D01*
X0128110Y0015198D01*
X0128092Y0015358D01*
X0128078Y0015518D01*
X0128068Y0015679D01*
X0128062Y0015839D01*
X0128060Y0016000D01*
X0106060Y0016000D02*
X0106062Y0016161D01*
X0106068Y0016321D01*
X0106078Y0016482D01*
X0106092Y0016642D01*
X0106110Y0016802D01*
X0106131Y0016961D01*
X0106157Y0017120D01*
X0106187Y0017278D01*
X0106220Y0017435D01*
X0106258Y0017592D01*
X0106299Y0017747D01*
X0106344Y0017901D01*
X0106393Y0018054D01*
X0106446Y0018206D01*
X0106502Y0018357D01*
X0106563Y0018506D01*
X0106626Y0018654D01*
X0106694Y0018800D01*
X0106765Y0018944D01*
X0106839Y0019086D01*
X0106917Y0019227D01*
X0106999Y0019365D01*
X0107084Y0019502D01*
X0107172Y0019636D01*
X0107264Y0019768D01*
X0107359Y0019898D01*
X0107457Y0020026D01*
X0107558Y0020151D01*
X0107662Y0020273D01*
X0107769Y0020393D01*
X0107879Y0020510D01*
X0107992Y0020625D01*
X0108108Y0020736D01*
X0108227Y0020845D01*
X0108348Y0020950D01*
X0108472Y0021053D01*
X0108598Y0021153D01*
X0108726Y0021249D01*
X0108857Y0021342D01*
X0108991Y0021432D01*
X0109126Y0021519D01*
X0109264Y0021602D01*
X0109403Y0021682D01*
X0109545Y0021758D01*
X0109688Y0021831D01*
X0109833Y0021900D01*
X0109980Y0021966D01*
X0110128Y0022028D01*
X0110278Y0022086D01*
X0110429Y0022141D01*
X0110582Y0022192D01*
X0110736Y0022239D01*
X0110891Y0022282D01*
X0111047Y0022321D01*
X0111203Y0022357D01*
X0111361Y0022388D01*
X0111519Y0022416D01*
X0111678Y0022440D01*
X0111838Y0022460D01*
X0111998Y0022476D01*
X0112158Y0022488D01*
X0112319Y0022496D01*
X0112480Y0022500D01*
X0112640Y0022500D01*
X0112801Y0022496D01*
X0112962Y0022488D01*
X0113122Y0022476D01*
X0113282Y0022460D01*
X0113442Y0022440D01*
X0113601Y0022416D01*
X0113759Y0022388D01*
X0113917Y0022357D01*
X0114073Y0022321D01*
X0114229Y0022282D01*
X0114384Y0022239D01*
X0114538Y0022192D01*
X0114691Y0022141D01*
X0114842Y0022086D01*
X0114992Y0022028D01*
X0115140Y0021966D01*
X0115287Y0021900D01*
X0115432Y0021831D01*
X0115575Y0021758D01*
X0115717Y0021682D01*
X0115856Y0021602D01*
X0115994Y0021519D01*
X0116129Y0021432D01*
X0116263Y0021342D01*
X0116394Y0021249D01*
X0116522Y0021153D01*
X0116648Y0021053D01*
X0116772Y0020950D01*
X0116893Y0020845D01*
X0117012Y0020736D01*
X0117128Y0020625D01*
X0117241Y0020510D01*
X0117351Y0020393D01*
X0117458Y0020273D01*
X0117562Y0020151D01*
X0117663Y0020026D01*
X0117761Y0019898D01*
X0117856Y0019768D01*
X0117948Y0019636D01*
X0118036Y0019502D01*
X0118121Y0019365D01*
X0118203Y0019227D01*
X0118281Y0019086D01*
X0118355Y0018944D01*
X0118426Y0018800D01*
X0118494Y0018654D01*
X0118557Y0018506D01*
X0118618Y0018357D01*
X0118674Y0018206D01*
X0118727Y0018054D01*
X0118776Y0017901D01*
X0118821Y0017747D01*
X0118862Y0017592D01*
X0118900Y0017435D01*
X0118933Y0017278D01*
X0118963Y0017120D01*
X0118989Y0016961D01*
X0119010Y0016802D01*
X0119028Y0016642D01*
X0119042Y0016482D01*
X0119052Y0016321D01*
X0119058Y0016161D01*
X0119060Y0016000D01*
X0119058Y0015839D01*
X0119052Y0015679D01*
X0119042Y0015518D01*
X0119028Y0015358D01*
X0119010Y0015198D01*
X0118989Y0015039D01*
X0118963Y0014880D01*
X0118933Y0014722D01*
X0118900Y0014565D01*
X0118862Y0014408D01*
X0118821Y0014253D01*
X0118776Y0014099D01*
X0118727Y0013946D01*
X0118674Y0013794D01*
X0118618Y0013643D01*
X0118557Y0013494D01*
X0118494Y0013346D01*
X0118426Y0013200D01*
X0118355Y0013056D01*
X0118281Y0012914D01*
X0118203Y0012773D01*
X0118121Y0012635D01*
X0118036Y0012498D01*
X0117948Y0012364D01*
X0117856Y0012232D01*
X0117761Y0012102D01*
X0117663Y0011974D01*
X0117562Y0011849D01*
X0117458Y0011727D01*
X0117351Y0011607D01*
X0117241Y0011490D01*
X0117128Y0011375D01*
X0117012Y0011264D01*
X0116893Y0011155D01*
X0116772Y0011050D01*
X0116648Y0010947D01*
X0116522Y0010847D01*
X0116394Y0010751D01*
X0116263Y0010658D01*
X0116129Y0010568D01*
X0115994Y0010481D01*
X0115856Y0010398D01*
X0115717Y0010318D01*
X0115575Y0010242D01*
X0115432Y0010169D01*
X0115287Y0010100D01*
X0115140Y0010034D01*
X0114992Y0009972D01*
X0114842Y0009914D01*
X0114691Y0009859D01*
X0114538Y0009808D01*
X0114384Y0009761D01*
X0114229Y0009718D01*
X0114073Y0009679D01*
X0113917Y0009643D01*
X0113759Y0009612D01*
X0113601Y0009584D01*
X0113442Y0009560D01*
X0113282Y0009540D01*
X0113122Y0009524D01*
X0112962Y0009512D01*
X0112801Y0009504D01*
X0112640Y0009500D01*
X0112480Y0009500D01*
X0112319Y0009504D01*
X0112158Y0009512D01*
X0111998Y0009524D01*
X0111838Y0009540D01*
X0111678Y0009560D01*
X0111519Y0009584D01*
X0111361Y0009612D01*
X0111203Y0009643D01*
X0111047Y0009679D01*
X0110891Y0009718D01*
X0110736Y0009761D01*
X0110582Y0009808D01*
X0110429Y0009859D01*
X0110278Y0009914D01*
X0110128Y0009972D01*
X0109980Y0010034D01*
X0109833Y0010100D01*
X0109688Y0010169D01*
X0109545Y0010242D01*
X0109403Y0010318D01*
X0109264Y0010398D01*
X0109126Y0010481D01*
X0108991Y0010568D01*
X0108857Y0010658D01*
X0108726Y0010751D01*
X0108598Y0010847D01*
X0108472Y0010947D01*
X0108348Y0011050D01*
X0108227Y0011155D01*
X0108108Y0011264D01*
X0107992Y0011375D01*
X0107879Y0011490D01*
X0107769Y0011607D01*
X0107662Y0011727D01*
X0107558Y0011849D01*
X0107457Y0011974D01*
X0107359Y0012102D01*
X0107264Y0012232D01*
X0107172Y0012364D01*
X0107084Y0012498D01*
X0106999Y0012635D01*
X0106917Y0012773D01*
X0106839Y0012914D01*
X0106765Y0013056D01*
X0106694Y0013200D01*
X0106626Y0013346D01*
X0106563Y0013494D01*
X0106502Y0013643D01*
X0106446Y0013794D01*
X0106393Y0013946D01*
X0106344Y0014099D01*
X0106299Y0014253D01*
X0106258Y0014408D01*
X0106220Y0014565D01*
X0106187Y0014722D01*
X0106157Y0014880D01*
X0106131Y0015039D01*
X0106110Y0015198D01*
X0106092Y0015358D01*
X0106078Y0015518D01*
X0106068Y0015679D01*
X0106062Y0015839D01*
X0106060Y0016000D01*
X0006060Y0016000D02*
X0006062Y0016161D01*
X0006068Y0016321D01*
X0006078Y0016482D01*
X0006092Y0016642D01*
X0006110Y0016802D01*
X0006131Y0016961D01*
X0006157Y0017120D01*
X0006187Y0017278D01*
X0006220Y0017435D01*
X0006258Y0017592D01*
X0006299Y0017747D01*
X0006344Y0017901D01*
X0006393Y0018054D01*
X0006446Y0018206D01*
X0006502Y0018357D01*
X0006563Y0018506D01*
X0006626Y0018654D01*
X0006694Y0018800D01*
X0006765Y0018944D01*
X0006839Y0019086D01*
X0006917Y0019227D01*
X0006999Y0019365D01*
X0007084Y0019502D01*
X0007172Y0019636D01*
X0007264Y0019768D01*
X0007359Y0019898D01*
X0007457Y0020026D01*
X0007558Y0020151D01*
X0007662Y0020273D01*
X0007769Y0020393D01*
X0007879Y0020510D01*
X0007992Y0020625D01*
X0008108Y0020736D01*
X0008227Y0020845D01*
X0008348Y0020950D01*
X0008472Y0021053D01*
X0008598Y0021153D01*
X0008726Y0021249D01*
X0008857Y0021342D01*
X0008991Y0021432D01*
X0009126Y0021519D01*
X0009264Y0021602D01*
X0009403Y0021682D01*
X0009545Y0021758D01*
X0009688Y0021831D01*
X0009833Y0021900D01*
X0009980Y0021966D01*
X0010128Y0022028D01*
X0010278Y0022086D01*
X0010429Y0022141D01*
X0010582Y0022192D01*
X0010736Y0022239D01*
X0010891Y0022282D01*
X0011047Y0022321D01*
X0011203Y0022357D01*
X0011361Y0022388D01*
X0011519Y0022416D01*
X0011678Y0022440D01*
X0011838Y0022460D01*
X0011998Y0022476D01*
X0012158Y0022488D01*
X0012319Y0022496D01*
X0012480Y0022500D01*
X0012640Y0022500D01*
X0012801Y0022496D01*
X0012962Y0022488D01*
X0013122Y0022476D01*
X0013282Y0022460D01*
X0013442Y0022440D01*
X0013601Y0022416D01*
X0013759Y0022388D01*
X0013917Y0022357D01*
X0014073Y0022321D01*
X0014229Y0022282D01*
X0014384Y0022239D01*
X0014538Y0022192D01*
X0014691Y0022141D01*
X0014842Y0022086D01*
X0014992Y0022028D01*
X0015140Y0021966D01*
X0015287Y0021900D01*
X0015432Y0021831D01*
X0015575Y0021758D01*
X0015717Y0021682D01*
X0015856Y0021602D01*
X0015994Y0021519D01*
X0016129Y0021432D01*
X0016263Y0021342D01*
X0016394Y0021249D01*
X0016522Y0021153D01*
X0016648Y0021053D01*
X0016772Y0020950D01*
X0016893Y0020845D01*
X0017012Y0020736D01*
X0017128Y0020625D01*
X0017241Y0020510D01*
X0017351Y0020393D01*
X0017458Y0020273D01*
X0017562Y0020151D01*
X0017663Y0020026D01*
X0017761Y0019898D01*
X0017856Y0019768D01*
X0017948Y0019636D01*
X0018036Y0019502D01*
X0018121Y0019365D01*
X0018203Y0019227D01*
X0018281Y0019086D01*
X0018355Y0018944D01*
X0018426Y0018800D01*
X0018494Y0018654D01*
X0018557Y0018506D01*
X0018618Y0018357D01*
X0018674Y0018206D01*
X0018727Y0018054D01*
X0018776Y0017901D01*
X0018821Y0017747D01*
X0018862Y0017592D01*
X0018900Y0017435D01*
X0018933Y0017278D01*
X0018963Y0017120D01*
X0018989Y0016961D01*
X0019010Y0016802D01*
X0019028Y0016642D01*
X0019042Y0016482D01*
X0019052Y0016321D01*
X0019058Y0016161D01*
X0019060Y0016000D01*
X0019058Y0015839D01*
X0019052Y0015679D01*
X0019042Y0015518D01*
X0019028Y0015358D01*
X0019010Y0015198D01*
X0018989Y0015039D01*
X0018963Y0014880D01*
X0018933Y0014722D01*
X0018900Y0014565D01*
X0018862Y0014408D01*
X0018821Y0014253D01*
X0018776Y0014099D01*
X0018727Y0013946D01*
X0018674Y0013794D01*
X0018618Y0013643D01*
X0018557Y0013494D01*
X0018494Y0013346D01*
X0018426Y0013200D01*
X0018355Y0013056D01*
X0018281Y0012914D01*
X0018203Y0012773D01*
X0018121Y0012635D01*
X0018036Y0012498D01*
X0017948Y0012364D01*
X0017856Y0012232D01*
X0017761Y0012102D01*
X0017663Y0011974D01*
X0017562Y0011849D01*
X0017458Y0011727D01*
X0017351Y0011607D01*
X0017241Y0011490D01*
X0017128Y0011375D01*
X0017012Y0011264D01*
X0016893Y0011155D01*
X0016772Y0011050D01*
X0016648Y0010947D01*
X0016522Y0010847D01*
X0016394Y0010751D01*
X0016263Y0010658D01*
X0016129Y0010568D01*
X0015994Y0010481D01*
X0015856Y0010398D01*
X0015717Y0010318D01*
X0015575Y0010242D01*
X0015432Y0010169D01*
X0015287Y0010100D01*
X0015140Y0010034D01*
X0014992Y0009972D01*
X0014842Y0009914D01*
X0014691Y0009859D01*
X0014538Y0009808D01*
X0014384Y0009761D01*
X0014229Y0009718D01*
X0014073Y0009679D01*
X0013917Y0009643D01*
X0013759Y0009612D01*
X0013601Y0009584D01*
X0013442Y0009560D01*
X0013282Y0009540D01*
X0013122Y0009524D01*
X0012962Y0009512D01*
X0012801Y0009504D01*
X0012640Y0009500D01*
X0012480Y0009500D01*
X0012319Y0009504D01*
X0012158Y0009512D01*
X0011998Y0009524D01*
X0011838Y0009540D01*
X0011678Y0009560D01*
X0011519Y0009584D01*
X0011361Y0009612D01*
X0011203Y0009643D01*
X0011047Y0009679D01*
X0010891Y0009718D01*
X0010736Y0009761D01*
X0010582Y0009808D01*
X0010429Y0009859D01*
X0010278Y0009914D01*
X0010128Y0009972D01*
X0009980Y0010034D01*
X0009833Y0010100D01*
X0009688Y0010169D01*
X0009545Y0010242D01*
X0009403Y0010318D01*
X0009264Y0010398D01*
X0009126Y0010481D01*
X0008991Y0010568D01*
X0008857Y0010658D01*
X0008726Y0010751D01*
X0008598Y0010847D01*
X0008472Y0010947D01*
X0008348Y0011050D01*
X0008227Y0011155D01*
X0008108Y0011264D01*
X0007992Y0011375D01*
X0007879Y0011490D01*
X0007769Y0011607D01*
X0007662Y0011727D01*
X0007558Y0011849D01*
X0007457Y0011974D01*
X0007359Y0012102D01*
X0007264Y0012232D01*
X0007172Y0012364D01*
X0007084Y0012498D01*
X0006999Y0012635D01*
X0006917Y0012773D01*
X0006839Y0012914D01*
X0006765Y0013056D01*
X0006694Y0013200D01*
X0006626Y0013346D01*
X0006563Y0013494D01*
X0006502Y0013643D01*
X0006446Y0013794D01*
X0006393Y0013946D01*
X0006344Y0014099D01*
X0006299Y0014253D01*
X0006258Y0014408D01*
X0006220Y0014565D01*
X0006187Y0014722D01*
X0006157Y0014880D01*
X0006131Y0015039D01*
X0006110Y0015198D01*
X0006092Y0015358D01*
X0006078Y0015518D01*
X0006068Y0015679D01*
X0006062Y0015839D01*
X0006060Y0016000D01*
X0228060Y0220000D02*
X0228062Y0220161D01*
X0228068Y0220321D01*
X0228078Y0220482D01*
X0228092Y0220642D01*
X0228110Y0220802D01*
X0228131Y0220961D01*
X0228157Y0221120D01*
X0228187Y0221278D01*
X0228220Y0221435D01*
X0228258Y0221592D01*
X0228299Y0221747D01*
X0228344Y0221901D01*
X0228393Y0222054D01*
X0228446Y0222206D01*
X0228502Y0222357D01*
X0228563Y0222506D01*
X0228626Y0222654D01*
X0228694Y0222800D01*
X0228765Y0222944D01*
X0228839Y0223086D01*
X0228917Y0223227D01*
X0228999Y0223365D01*
X0229084Y0223502D01*
X0229172Y0223636D01*
X0229264Y0223768D01*
X0229359Y0223898D01*
X0229457Y0224026D01*
X0229558Y0224151D01*
X0229662Y0224273D01*
X0229769Y0224393D01*
X0229879Y0224510D01*
X0229992Y0224625D01*
X0230108Y0224736D01*
X0230227Y0224845D01*
X0230348Y0224950D01*
X0230472Y0225053D01*
X0230598Y0225153D01*
X0230726Y0225249D01*
X0230857Y0225342D01*
X0230991Y0225432D01*
X0231126Y0225519D01*
X0231264Y0225602D01*
X0231403Y0225682D01*
X0231545Y0225758D01*
X0231688Y0225831D01*
X0231833Y0225900D01*
X0231980Y0225966D01*
X0232128Y0226028D01*
X0232278Y0226086D01*
X0232429Y0226141D01*
X0232582Y0226192D01*
X0232736Y0226239D01*
X0232891Y0226282D01*
X0233047Y0226321D01*
X0233203Y0226357D01*
X0233361Y0226388D01*
X0233519Y0226416D01*
X0233678Y0226440D01*
X0233838Y0226460D01*
X0233998Y0226476D01*
X0234158Y0226488D01*
X0234319Y0226496D01*
X0234480Y0226500D01*
X0234640Y0226500D01*
X0234801Y0226496D01*
X0234962Y0226488D01*
X0235122Y0226476D01*
X0235282Y0226460D01*
X0235442Y0226440D01*
X0235601Y0226416D01*
X0235759Y0226388D01*
X0235917Y0226357D01*
X0236073Y0226321D01*
X0236229Y0226282D01*
X0236384Y0226239D01*
X0236538Y0226192D01*
X0236691Y0226141D01*
X0236842Y0226086D01*
X0236992Y0226028D01*
X0237140Y0225966D01*
X0237287Y0225900D01*
X0237432Y0225831D01*
X0237575Y0225758D01*
X0237717Y0225682D01*
X0237856Y0225602D01*
X0237994Y0225519D01*
X0238129Y0225432D01*
X0238263Y0225342D01*
X0238394Y0225249D01*
X0238522Y0225153D01*
X0238648Y0225053D01*
X0238772Y0224950D01*
X0238893Y0224845D01*
X0239012Y0224736D01*
X0239128Y0224625D01*
X0239241Y0224510D01*
X0239351Y0224393D01*
X0239458Y0224273D01*
X0239562Y0224151D01*
X0239663Y0224026D01*
X0239761Y0223898D01*
X0239856Y0223768D01*
X0239948Y0223636D01*
X0240036Y0223502D01*
X0240121Y0223365D01*
X0240203Y0223227D01*
X0240281Y0223086D01*
X0240355Y0222944D01*
X0240426Y0222800D01*
X0240494Y0222654D01*
X0240557Y0222506D01*
X0240618Y0222357D01*
X0240674Y0222206D01*
X0240727Y0222054D01*
X0240776Y0221901D01*
X0240821Y0221747D01*
X0240862Y0221592D01*
X0240900Y0221435D01*
X0240933Y0221278D01*
X0240963Y0221120D01*
X0240989Y0220961D01*
X0241010Y0220802D01*
X0241028Y0220642D01*
X0241042Y0220482D01*
X0241052Y0220321D01*
X0241058Y0220161D01*
X0241060Y0220000D01*
X0241058Y0219839D01*
X0241052Y0219679D01*
X0241042Y0219518D01*
X0241028Y0219358D01*
X0241010Y0219198D01*
X0240989Y0219039D01*
X0240963Y0218880D01*
X0240933Y0218722D01*
X0240900Y0218565D01*
X0240862Y0218408D01*
X0240821Y0218253D01*
X0240776Y0218099D01*
X0240727Y0217946D01*
X0240674Y0217794D01*
X0240618Y0217643D01*
X0240557Y0217494D01*
X0240494Y0217346D01*
X0240426Y0217200D01*
X0240355Y0217056D01*
X0240281Y0216914D01*
X0240203Y0216773D01*
X0240121Y0216635D01*
X0240036Y0216498D01*
X0239948Y0216364D01*
X0239856Y0216232D01*
X0239761Y0216102D01*
X0239663Y0215974D01*
X0239562Y0215849D01*
X0239458Y0215727D01*
X0239351Y0215607D01*
X0239241Y0215490D01*
X0239128Y0215375D01*
X0239012Y0215264D01*
X0238893Y0215155D01*
X0238772Y0215050D01*
X0238648Y0214947D01*
X0238522Y0214847D01*
X0238394Y0214751D01*
X0238263Y0214658D01*
X0238129Y0214568D01*
X0237994Y0214481D01*
X0237856Y0214398D01*
X0237717Y0214318D01*
X0237575Y0214242D01*
X0237432Y0214169D01*
X0237287Y0214100D01*
X0237140Y0214034D01*
X0236992Y0213972D01*
X0236842Y0213914D01*
X0236691Y0213859D01*
X0236538Y0213808D01*
X0236384Y0213761D01*
X0236229Y0213718D01*
X0236073Y0213679D01*
X0235917Y0213643D01*
X0235759Y0213612D01*
X0235601Y0213584D01*
X0235442Y0213560D01*
X0235282Y0213540D01*
X0235122Y0213524D01*
X0234962Y0213512D01*
X0234801Y0213504D01*
X0234640Y0213500D01*
X0234480Y0213500D01*
X0234319Y0213504D01*
X0234158Y0213512D01*
X0233998Y0213524D01*
X0233838Y0213540D01*
X0233678Y0213560D01*
X0233519Y0213584D01*
X0233361Y0213612D01*
X0233203Y0213643D01*
X0233047Y0213679D01*
X0232891Y0213718D01*
X0232736Y0213761D01*
X0232582Y0213808D01*
X0232429Y0213859D01*
X0232278Y0213914D01*
X0232128Y0213972D01*
X0231980Y0214034D01*
X0231833Y0214100D01*
X0231688Y0214169D01*
X0231545Y0214242D01*
X0231403Y0214318D01*
X0231264Y0214398D01*
X0231126Y0214481D01*
X0230991Y0214568D01*
X0230857Y0214658D01*
X0230726Y0214751D01*
X0230598Y0214847D01*
X0230472Y0214947D01*
X0230348Y0215050D01*
X0230227Y0215155D01*
X0230108Y0215264D01*
X0229992Y0215375D01*
X0229879Y0215490D01*
X0229769Y0215607D01*
X0229662Y0215727D01*
X0229558Y0215849D01*
X0229457Y0215974D01*
X0229359Y0216102D01*
X0229264Y0216232D01*
X0229172Y0216364D01*
X0229084Y0216498D01*
X0228999Y0216635D01*
X0228917Y0216773D01*
X0228839Y0216914D01*
X0228765Y0217056D01*
X0228694Y0217200D01*
X0228626Y0217346D01*
X0228563Y0217494D01*
X0228502Y0217643D01*
X0228446Y0217794D01*
X0228393Y0217946D01*
X0228344Y0218099D01*
X0228299Y0218253D01*
X0228258Y0218408D01*
X0228220Y0218565D01*
X0228187Y0218722D01*
X0228157Y0218880D01*
X0228131Y0219039D01*
X0228110Y0219198D01*
X0228092Y0219358D01*
X0228078Y0219518D01*
X0228068Y0219679D01*
X0228062Y0219839D01*
X0228060Y0220000D01*
X0250060Y0220000D02*
X0250062Y0220161D01*
X0250068Y0220321D01*
X0250078Y0220482D01*
X0250092Y0220642D01*
X0250110Y0220802D01*
X0250131Y0220961D01*
X0250157Y0221120D01*
X0250187Y0221278D01*
X0250220Y0221435D01*
X0250258Y0221592D01*
X0250299Y0221747D01*
X0250344Y0221901D01*
X0250393Y0222054D01*
X0250446Y0222206D01*
X0250502Y0222357D01*
X0250563Y0222506D01*
X0250626Y0222654D01*
X0250694Y0222800D01*
X0250765Y0222944D01*
X0250839Y0223086D01*
X0250917Y0223227D01*
X0250999Y0223365D01*
X0251084Y0223502D01*
X0251172Y0223636D01*
X0251264Y0223768D01*
X0251359Y0223898D01*
X0251457Y0224026D01*
X0251558Y0224151D01*
X0251662Y0224273D01*
X0251769Y0224393D01*
X0251879Y0224510D01*
X0251992Y0224625D01*
X0252108Y0224736D01*
X0252227Y0224845D01*
X0252348Y0224950D01*
X0252472Y0225053D01*
X0252598Y0225153D01*
X0252726Y0225249D01*
X0252857Y0225342D01*
X0252991Y0225432D01*
X0253126Y0225519D01*
X0253264Y0225602D01*
X0253403Y0225682D01*
X0253545Y0225758D01*
X0253688Y0225831D01*
X0253833Y0225900D01*
X0253980Y0225966D01*
X0254128Y0226028D01*
X0254278Y0226086D01*
X0254429Y0226141D01*
X0254582Y0226192D01*
X0254736Y0226239D01*
X0254891Y0226282D01*
X0255047Y0226321D01*
X0255203Y0226357D01*
X0255361Y0226388D01*
X0255519Y0226416D01*
X0255678Y0226440D01*
X0255838Y0226460D01*
X0255998Y0226476D01*
X0256158Y0226488D01*
X0256319Y0226496D01*
X0256480Y0226500D01*
X0256640Y0226500D01*
X0256801Y0226496D01*
X0256962Y0226488D01*
X0257122Y0226476D01*
X0257282Y0226460D01*
X0257442Y0226440D01*
X0257601Y0226416D01*
X0257759Y0226388D01*
X0257917Y0226357D01*
X0258073Y0226321D01*
X0258229Y0226282D01*
X0258384Y0226239D01*
X0258538Y0226192D01*
X0258691Y0226141D01*
X0258842Y0226086D01*
X0258992Y0226028D01*
X0259140Y0225966D01*
X0259287Y0225900D01*
X0259432Y0225831D01*
X0259575Y0225758D01*
X0259717Y0225682D01*
X0259856Y0225602D01*
X0259994Y0225519D01*
X0260129Y0225432D01*
X0260263Y0225342D01*
X0260394Y0225249D01*
X0260522Y0225153D01*
X0260648Y0225053D01*
X0260772Y0224950D01*
X0260893Y0224845D01*
X0261012Y0224736D01*
X0261128Y0224625D01*
X0261241Y0224510D01*
X0261351Y0224393D01*
X0261458Y0224273D01*
X0261562Y0224151D01*
X0261663Y0224026D01*
X0261761Y0223898D01*
X0261856Y0223768D01*
X0261948Y0223636D01*
X0262036Y0223502D01*
X0262121Y0223365D01*
X0262203Y0223227D01*
X0262281Y0223086D01*
X0262355Y0222944D01*
X0262426Y0222800D01*
X0262494Y0222654D01*
X0262557Y0222506D01*
X0262618Y0222357D01*
X0262674Y0222206D01*
X0262727Y0222054D01*
X0262776Y0221901D01*
X0262821Y0221747D01*
X0262862Y0221592D01*
X0262900Y0221435D01*
X0262933Y0221278D01*
X0262963Y0221120D01*
X0262989Y0220961D01*
X0263010Y0220802D01*
X0263028Y0220642D01*
X0263042Y0220482D01*
X0263052Y0220321D01*
X0263058Y0220161D01*
X0263060Y0220000D01*
X0263058Y0219839D01*
X0263052Y0219679D01*
X0263042Y0219518D01*
X0263028Y0219358D01*
X0263010Y0219198D01*
X0262989Y0219039D01*
X0262963Y0218880D01*
X0262933Y0218722D01*
X0262900Y0218565D01*
X0262862Y0218408D01*
X0262821Y0218253D01*
X0262776Y0218099D01*
X0262727Y0217946D01*
X0262674Y0217794D01*
X0262618Y0217643D01*
X0262557Y0217494D01*
X0262494Y0217346D01*
X0262426Y0217200D01*
X0262355Y0217056D01*
X0262281Y0216914D01*
X0262203Y0216773D01*
X0262121Y0216635D01*
X0262036Y0216498D01*
X0261948Y0216364D01*
X0261856Y0216232D01*
X0261761Y0216102D01*
X0261663Y0215974D01*
X0261562Y0215849D01*
X0261458Y0215727D01*
X0261351Y0215607D01*
X0261241Y0215490D01*
X0261128Y0215375D01*
X0261012Y0215264D01*
X0260893Y0215155D01*
X0260772Y0215050D01*
X0260648Y0214947D01*
X0260522Y0214847D01*
X0260394Y0214751D01*
X0260263Y0214658D01*
X0260129Y0214568D01*
X0259994Y0214481D01*
X0259856Y0214398D01*
X0259717Y0214318D01*
X0259575Y0214242D01*
X0259432Y0214169D01*
X0259287Y0214100D01*
X0259140Y0214034D01*
X0258992Y0213972D01*
X0258842Y0213914D01*
X0258691Y0213859D01*
X0258538Y0213808D01*
X0258384Y0213761D01*
X0258229Y0213718D01*
X0258073Y0213679D01*
X0257917Y0213643D01*
X0257759Y0213612D01*
X0257601Y0213584D01*
X0257442Y0213560D01*
X0257282Y0213540D01*
X0257122Y0213524D01*
X0256962Y0213512D01*
X0256801Y0213504D01*
X0256640Y0213500D01*
X0256480Y0213500D01*
X0256319Y0213504D01*
X0256158Y0213512D01*
X0255998Y0213524D01*
X0255838Y0213540D01*
X0255678Y0213560D01*
X0255519Y0213584D01*
X0255361Y0213612D01*
X0255203Y0213643D01*
X0255047Y0213679D01*
X0254891Y0213718D01*
X0254736Y0213761D01*
X0254582Y0213808D01*
X0254429Y0213859D01*
X0254278Y0213914D01*
X0254128Y0213972D01*
X0253980Y0214034D01*
X0253833Y0214100D01*
X0253688Y0214169D01*
X0253545Y0214242D01*
X0253403Y0214318D01*
X0253264Y0214398D01*
X0253126Y0214481D01*
X0252991Y0214568D01*
X0252857Y0214658D01*
X0252726Y0214751D01*
X0252598Y0214847D01*
X0252472Y0214947D01*
X0252348Y0215050D01*
X0252227Y0215155D01*
X0252108Y0215264D01*
X0251992Y0215375D01*
X0251879Y0215490D01*
X0251769Y0215607D01*
X0251662Y0215727D01*
X0251558Y0215849D01*
X0251457Y0215974D01*
X0251359Y0216102D01*
X0251264Y0216232D01*
X0251172Y0216364D01*
X0251084Y0216498D01*
X0250999Y0216635D01*
X0250917Y0216773D01*
X0250839Y0216914D01*
X0250765Y0217056D01*
X0250694Y0217200D01*
X0250626Y0217346D01*
X0250563Y0217494D01*
X0250502Y0217643D01*
X0250446Y0217794D01*
X0250393Y0217946D01*
X0250344Y0218099D01*
X0250299Y0218253D01*
X0250258Y0218408D01*
X0250220Y0218565D01*
X0250187Y0218722D01*
X0250157Y0218880D01*
X0250131Y0219039D01*
X0250110Y0219198D01*
X0250092Y0219358D01*
X0250078Y0219518D01*
X0250068Y0219679D01*
X0250062Y0219839D01*
X0250060Y0220000D01*
X0350060Y0220000D02*
X0350062Y0220161D01*
X0350068Y0220321D01*
X0350078Y0220482D01*
X0350092Y0220642D01*
X0350110Y0220802D01*
X0350131Y0220961D01*
X0350157Y0221120D01*
X0350187Y0221278D01*
X0350220Y0221435D01*
X0350258Y0221592D01*
X0350299Y0221747D01*
X0350344Y0221901D01*
X0350393Y0222054D01*
X0350446Y0222206D01*
X0350502Y0222357D01*
X0350563Y0222506D01*
X0350626Y0222654D01*
X0350694Y0222800D01*
X0350765Y0222944D01*
X0350839Y0223086D01*
X0350917Y0223227D01*
X0350999Y0223365D01*
X0351084Y0223502D01*
X0351172Y0223636D01*
X0351264Y0223768D01*
X0351359Y0223898D01*
X0351457Y0224026D01*
X0351558Y0224151D01*
X0351662Y0224273D01*
X0351769Y0224393D01*
X0351879Y0224510D01*
X0351992Y0224625D01*
X0352108Y0224736D01*
X0352227Y0224845D01*
X0352348Y0224950D01*
X0352472Y0225053D01*
X0352598Y0225153D01*
X0352726Y0225249D01*
X0352857Y0225342D01*
X0352991Y0225432D01*
X0353126Y0225519D01*
X0353264Y0225602D01*
X0353403Y0225682D01*
X0353545Y0225758D01*
X0353688Y0225831D01*
X0353833Y0225900D01*
X0353980Y0225966D01*
X0354128Y0226028D01*
X0354278Y0226086D01*
X0354429Y0226141D01*
X0354582Y0226192D01*
X0354736Y0226239D01*
X0354891Y0226282D01*
X0355047Y0226321D01*
X0355203Y0226357D01*
X0355361Y0226388D01*
X0355519Y0226416D01*
X0355678Y0226440D01*
X0355838Y0226460D01*
X0355998Y0226476D01*
X0356158Y0226488D01*
X0356319Y0226496D01*
X0356480Y0226500D01*
X0356640Y0226500D01*
X0356801Y0226496D01*
X0356962Y0226488D01*
X0357122Y0226476D01*
X0357282Y0226460D01*
X0357442Y0226440D01*
X0357601Y0226416D01*
X0357759Y0226388D01*
X0357917Y0226357D01*
X0358073Y0226321D01*
X0358229Y0226282D01*
X0358384Y0226239D01*
X0358538Y0226192D01*
X0358691Y0226141D01*
X0358842Y0226086D01*
X0358992Y0226028D01*
X0359140Y0225966D01*
X0359287Y0225900D01*
X0359432Y0225831D01*
X0359575Y0225758D01*
X0359717Y0225682D01*
X0359856Y0225602D01*
X0359994Y0225519D01*
X0360129Y0225432D01*
X0360263Y0225342D01*
X0360394Y0225249D01*
X0360522Y0225153D01*
X0360648Y0225053D01*
X0360772Y0224950D01*
X0360893Y0224845D01*
X0361012Y0224736D01*
X0361128Y0224625D01*
X0361241Y0224510D01*
X0361351Y0224393D01*
X0361458Y0224273D01*
X0361562Y0224151D01*
X0361663Y0224026D01*
X0361761Y0223898D01*
X0361856Y0223768D01*
X0361948Y0223636D01*
X0362036Y0223502D01*
X0362121Y0223365D01*
X0362203Y0223227D01*
X0362281Y0223086D01*
X0362355Y0222944D01*
X0362426Y0222800D01*
X0362494Y0222654D01*
X0362557Y0222506D01*
X0362618Y0222357D01*
X0362674Y0222206D01*
X0362727Y0222054D01*
X0362776Y0221901D01*
X0362821Y0221747D01*
X0362862Y0221592D01*
X0362900Y0221435D01*
X0362933Y0221278D01*
X0362963Y0221120D01*
X0362989Y0220961D01*
X0363010Y0220802D01*
X0363028Y0220642D01*
X0363042Y0220482D01*
X0363052Y0220321D01*
X0363058Y0220161D01*
X0363060Y0220000D01*
X0363058Y0219839D01*
X0363052Y0219679D01*
X0363042Y0219518D01*
X0363028Y0219358D01*
X0363010Y0219198D01*
X0362989Y0219039D01*
X0362963Y0218880D01*
X0362933Y0218722D01*
X0362900Y0218565D01*
X0362862Y0218408D01*
X0362821Y0218253D01*
X0362776Y0218099D01*
X0362727Y0217946D01*
X0362674Y0217794D01*
X0362618Y0217643D01*
X0362557Y0217494D01*
X0362494Y0217346D01*
X0362426Y0217200D01*
X0362355Y0217056D01*
X0362281Y0216914D01*
X0362203Y0216773D01*
X0362121Y0216635D01*
X0362036Y0216498D01*
X0361948Y0216364D01*
X0361856Y0216232D01*
X0361761Y0216102D01*
X0361663Y0215974D01*
X0361562Y0215849D01*
X0361458Y0215727D01*
X0361351Y0215607D01*
X0361241Y0215490D01*
X0361128Y0215375D01*
X0361012Y0215264D01*
X0360893Y0215155D01*
X0360772Y0215050D01*
X0360648Y0214947D01*
X0360522Y0214847D01*
X0360394Y0214751D01*
X0360263Y0214658D01*
X0360129Y0214568D01*
X0359994Y0214481D01*
X0359856Y0214398D01*
X0359717Y0214318D01*
X0359575Y0214242D01*
X0359432Y0214169D01*
X0359287Y0214100D01*
X0359140Y0214034D01*
X0358992Y0213972D01*
X0358842Y0213914D01*
X0358691Y0213859D01*
X0358538Y0213808D01*
X0358384Y0213761D01*
X0358229Y0213718D01*
X0358073Y0213679D01*
X0357917Y0213643D01*
X0357759Y0213612D01*
X0357601Y0213584D01*
X0357442Y0213560D01*
X0357282Y0213540D01*
X0357122Y0213524D01*
X0356962Y0213512D01*
X0356801Y0213504D01*
X0356640Y0213500D01*
X0356480Y0213500D01*
X0356319Y0213504D01*
X0356158Y0213512D01*
X0355998Y0213524D01*
X0355838Y0213540D01*
X0355678Y0213560D01*
X0355519Y0213584D01*
X0355361Y0213612D01*
X0355203Y0213643D01*
X0355047Y0213679D01*
X0354891Y0213718D01*
X0354736Y0213761D01*
X0354582Y0213808D01*
X0354429Y0213859D01*
X0354278Y0213914D01*
X0354128Y0213972D01*
X0353980Y0214034D01*
X0353833Y0214100D01*
X0353688Y0214169D01*
X0353545Y0214242D01*
X0353403Y0214318D01*
X0353264Y0214398D01*
X0353126Y0214481D01*
X0352991Y0214568D01*
X0352857Y0214658D01*
X0352726Y0214751D01*
X0352598Y0214847D01*
X0352472Y0214947D01*
X0352348Y0215050D01*
X0352227Y0215155D01*
X0352108Y0215264D01*
X0351992Y0215375D01*
X0351879Y0215490D01*
X0351769Y0215607D01*
X0351662Y0215727D01*
X0351558Y0215849D01*
X0351457Y0215974D01*
X0351359Y0216102D01*
X0351264Y0216232D01*
X0351172Y0216364D01*
X0351084Y0216498D01*
X0350999Y0216635D01*
X0350917Y0216773D01*
X0350839Y0216914D01*
X0350765Y0217056D01*
X0350694Y0217200D01*
X0350626Y0217346D01*
X0350563Y0217494D01*
X0350502Y0217643D01*
X0350446Y0217794D01*
X0350393Y0217946D01*
X0350344Y0218099D01*
X0350299Y0218253D01*
X0350258Y0218408D01*
X0350220Y0218565D01*
X0350187Y0218722D01*
X0350157Y0218880D01*
X0350131Y0219039D01*
X0350110Y0219198D01*
X0350092Y0219358D01*
X0350078Y0219518D01*
X0350068Y0219679D01*
X0350062Y0219839D01*
X0350060Y0220000D01*
M02*
