G04 EAGLE Gerber RS-274X export*
G75*
%MOMM*%
%FSLAX34Y34*%
%LPD*%
%INSoldermask Top*%
%IPPOS*%
%AMOC8*
5,1,8,0,0,1.08239X$1,22.5*%
G01*
%ADD10C,3.505200*%
%ADD11C,1.203200*%
%ADD12R,2.203200X1.403200*%
%ADD13R,1.553200X0.803200*%
%ADD14C,2.082800*%
%ADD15R,1.303200X1.203200*%
%ADD16R,1.203200X1.303200*%
%ADD17R,1.600200X0.850900*%
%ADD18C,2.453200*%
%ADD19C,0.505344*%
%ADD20C,1.270000*%
%ADD21C,1.703200*%


D10*
X25400Y25400D03*
X355600Y25400D03*
D11*
X330200Y12700D03*
X50800Y368300D03*
D12*
X14050Y218500D03*
X14050Y162500D03*
D13*
X50800Y205500D03*
X50800Y195500D03*
X50800Y185500D03*
X50800Y175500D03*
D14*
X368300Y63500D03*
X368300Y88900D03*
X368300Y114300D03*
X368300Y139700D03*
D15*
X122800Y152400D03*
X105800Y152400D03*
D12*
X366950Y162500D03*
X366950Y218500D03*
D13*
X330200Y175500D03*
X330200Y185500D03*
X330200Y195500D03*
X330200Y205500D03*
D16*
X25400Y245500D03*
X25400Y262500D03*
X12700Y245500D03*
X12700Y262500D03*
D17*
X237000Y184150D03*
X237000Y171450D03*
X237000Y158750D03*
X237000Y146050D03*
X237000Y234950D03*
X237000Y222250D03*
X237000Y209550D03*
X237000Y196850D03*
X144000Y184150D03*
X144000Y171450D03*
X144000Y158750D03*
X144000Y146050D03*
X144000Y234950D03*
X144000Y222250D03*
X144000Y209550D03*
X144000Y196850D03*
D14*
X12700Y139700D03*
D15*
X287900Y190500D03*
X270900Y190500D03*
X287900Y165100D03*
X270900Y165100D03*
X287900Y139700D03*
X270900Y139700D03*
D10*
X355600Y355600D03*
X25400Y355600D03*
D15*
X16900Y114300D03*
X33900Y114300D03*
D18*
X115500Y317500D03*
X165500Y317500D03*
X215500Y317500D03*
X265500Y317500D03*
X265500Y63500D03*
X215500Y63500D03*
X165500Y63500D03*
X115500Y63500D03*
D15*
X55000Y241300D03*
X72000Y241300D03*
D19*
X68780Y250510D02*
X68780Y257490D01*
X75760Y257490D01*
X75760Y250510D01*
X68780Y250510D01*
X68780Y255310D02*
X75760Y255310D01*
X51240Y257490D02*
X51240Y250510D01*
X51240Y257490D02*
X58220Y257490D01*
X58220Y250510D01*
X51240Y250510D01*
X51240Y255310D02*
X58220Y255310D01*
D10*
X411480Y25400D03*
X741680Y25400D03*
D11*
X716280Y12700D03*
X436880Y368300D03*
D12*
X400130Y218500D03*
X400130Y162500D03*
D13*
X436880Y205500D03*
X436880Y195500D03*
X436880Y185500D03*
X436880Y175500D03*
D14*
X754380Y63500D03*
X754380Y88900D03*
X754380Y114300D03*
X754380Y139700D03*
D15*
X508880Y152400D03*
X491880Y152400D03*
D12*
X753030Y162500D03*
X753030Y218500D03*
D13*
X716280Y175500D03*
X716280Y185500D03*
X716280Y195500D03*
X716280Y205500D03*
D16*
X411480Y245500D03*
X411480Y262500D03*
X398780Y245500D03*
X398780Y262500D03*
D17*
X623080Y184150D03*
X623080Y171450D03*
X623080Y158750D03*
X623080Y146050D03*
X623080Y234950D03*
X623080Y222250D03*
X623080Y209550D03*
X623080Y196850D03*
X530080Y184150D03*
X530080Y171450D03*
X530080Y158750D03*
X530080Y146050D03*
X530080Y234950D03*
X530080Y222250D03*
X530080Y209550D03*
X530080Y196850D03*
D14*
X398780Y139700D03*
D15*
X673980Y190500D03*
X656980Y190500D03*
X673980Y165100D03*
X656980Y165100D03*
X673980Y139700D03*
X656980Y139700D03*
D10*
X741680Y355600D03*
X411480Y355600D03*
D15*
X402980Y114300D03*
X419980Y114300D03*
D18*
X501580Y317500D03*
X551580Y317500D03*
X601580Y317500D03*
X651580Y317500D03*
X651580Y63500D03*
X601580Y63500D03*
X551580Y63500D03*
X501580Y63500D03*
D15*
X441080Y241300D03*
X458080Y241300D03*
D19*
X454860Y250510D02*
X454860Y257490D01*
X461840Y257490D01*
X461840Y250510D01*
X454860Y250510D01*
X454860Y255310D02*
X461840Y255310D01*
X437320Y257490D02*
X437320Y250510D01*
X437320Y257490D02*
X444300Y257490D01*
X444300Y250510D01*
X437320Y250510D01*
X437320Y255310D02*
X444300Y255310D01*
D10*
X797560Y25400D03*
X1127760Y25400D03*
D11*
X1102360Y12700D03*
X822960Y368300D03*
D12*
X786210Y218500D03*
X786210Y162500D03*
D13*
X822960Y205500D03*
X822960Y195500D03*
X822960Y185500D03*
X822960Y175500D03*
D14*
X1140460Y63500D03*
X1140460Y88900D03*
X1140460Y114300D03*
X1140460Y139700D03*
D15*
X894960Y152400D03*
X877960Y152400D03*
D12*
X1139110Y162500D03*
X1139110Y218500D03*
D13*
X1102360Y175500D03*
X1102360Y185500D03*
X1102360Y195500D03*
X1102360Y205500D03*
D16*
X797560Y245500D03*
X797560Y262500D03*
X784860Y245500D03*
X784860Y262500D03*
D17*
X1009160Y184150D03*
X1009160Y171450D03*
X1009160Y158750D03*
X1009160Y146050D03*
X1009160Y234950D03*
X1009160Y222250D03*
X1009160Y209550D03*
X1009160Y196850D03*
X916160Y184150D03*
X916160Y171450D03*
X916160Y158750D03*
X916160Y146050D03*
X916160Y234950D03*
X916160Y222250D03*
X916160Y209550D03*
X916160Y196850D03*
D14*
X784860Y139700D03*
D15*
X1060060Y190500D03*
X1043060Y190500D03*
X1060060Y165100D03*
X1043060Y165100D03*
X1060060Y139700D03*
X1043060Y139700D03*
D10*
X1127760Y355600D03*
X797560Y355600D03*
D15*
X789060Y114300D03*
X806060Y114300D03*
D18*
X887660Y317500D03*
X937660Y317500D03*
X987660Y317500D03*
X1037660Y317500D03*
X1037660Y63500D03*
X987660Y63500D03*
X937660Y63500D03*
X887660Y63500D03*
D15*
X827160Y241300D03*
X844160Y241300D03*
D19*
X840940Y250510D02*
X840940Y257490D01*
X847920Y257490D01*
X847920Y250510D01*
X840940Y250510D01*
X840940Y255310D02*
X847920Y255310D01*
X823400Y257490D02*
X823400Y250510D01*
X823400Y257490D02*
X830380Y257490D01*
X830380Y250510D01*
X823400Y250510D01*
X823400Y255310D02*
X830380Y255310D01*
D10*
X1183640Y25400D03*
X1513840Y25400D03*
D11*
X1488440Y12700D03*
X1209040Y368300D03*
D12*
X1172290Y218500D03*
X1172290Y162500D03*
D13*
X1209040Y205500D03*
X1209040Y195500D03*
X1209040Y185500D03*
X1209040Y175500D03*
D14*
X1526540Y63500D03*
X1526540Y88900D03*
X1526540Y114300D03*
X1526540Y139700D03*
D15*
X1281040Y152400D03*
X1264040Y152400D03*
D12*
X1525190Y162500D03*
X1525190Y218500D03*
D13*
X1488440Y175500D03*
X1488440Y185500D03*
X1488440Y195500D03*
X1488440Y205500D03*
D16*
X1183640Y245500D03*
X1183640Y262500D03*
X1170940Y245500D03*
X1170940Y262500D03*
D17*
X1395240Y184150D03*
X1395240Y171450D03*
X1395240Y158750D03*
X1395240Y146050D03*
X1395240Y234950D03*
X1395240Y222250D03*
X1395240Y209550D03*
X1395240Y196850D03*
X1302240Y184150D03*
X1302240Y171450D03*
X1302240Y158750D03*
X1302240Y146050D03*
X1302240Y234950D03*
X1302240Y222250D03*
X1302240Y209550D03*
X1302240Y196850D03*
D14*
X1170940Y139700D03*
D15*
X1446140Y190500D03*
X1429140Y190500D03*
X1446140Y165100D03*
X1429140Y165100D03*
X1446140Y139700D03*
X1429140Y139700D03*
D10*
X1513840Y355600D03*
X1183640Y355600D03*
D15*
X1175140Y114300D03*
X1192140Y114300D03*
D18*
X1273740Y317500D03*
X1323740Y317500D03*
X1373740Y317500D03*
X1423740Y317500D03*
X1423740Y63500D03*
X1373740Y63500D03*
X1323740Y63500D03*
X1273740Y63500D03*
D15*
X1213240Y241300D03*
X1230240Y241300D03*
D19*
X1227020Y250510D02*
X1227020Y257490D01*
X1234000Y257490D01*
X1234000Y250510D01*
X1227020Y250510D01*
X1227020Y255310D02*
X1234000Y255310D01*
X1209480Y257490D02*
X1209480Y250510D01*
X1209480Y257490D02*
X1216460Y257490D01*
X1216460Y250510D01*
X1209480Y250510D01*
X1209480Y255310D02*
X1216460Y255310D01*
D10*
X25400Y411480D03*
X355600Y411480D03*
D11*
X330200Y398780D03*
X50800Y754380D03*
D12*
X14050Y604580D03*
X14050Y548580D03*
D13*
X50800Y591580D03*
X50800Y581580D03*
X50800Y571580D03*
X50800Y561580D03*
D14*
X368300Y449580D03*
X368300Y474980D03*
X368300Y500380D03*
X368300Y525780D03*
D15*
X122800Y538480D03*
X105800Y538480D03*
D12*
X366950Y548580D03*
X366950Y604580D03*
D13*
X330200Y561580D03*
X330200Y571580D03*
X330200Y581580D03*
X330200Y591580D03*
D16*
X25400Y631580D03*
X25400Y648580D03*
X12700Y631580D03*
X12700Y648580D03*
D17*
X237000Y570230D03*
X237000Y557530D03*
X237000Y544830D03*
X237000Y532130D03*
X237000Y621030D03*
X237000Y608330D03*
X237000Y595630D03*
X237000Y582930D03*
X144000Y570230D03*
X144000Y557530D03*
X144000Y544830D03*
X144000Y532130D03*
X144000Y621030D03*
X144000Y608330D03*
X144000Y595630D03*
X144000Y582930D03*
D14*
X12700Y525780D03*
D15*
X287900Y576580D03*
X270900Y576580D03*
X287900Y551180D03*
X270900Y551180D03*
X287900Y525780D03*
X270900Y525780D03*
D10*
X355600Y741680D03*
X25400Y741680D03*
D15*
X16900Y500380D03*
X33900Y500380D03*
D18*
X115500Y703580D03*
X165500Y703580D03*
X215500Y703580D03*
X265500Y703580D03*
X265500Y449580D03*
X215500Y449580D03*
X165500Y449580D03*
X115500Y449580D03*
D15*
X55000Y627380D03*
X72000Y627380D03*
D19*
X68780Y636590D02*
X68780Y643570D01*
X75760Y643570D01*
X75760Y636590D01*
X68780Y636590D01*
X68780Y641390D02*
X75760Y641390D01*
X51240Y643570D02*
X51240Y636590D01*
X51240Y643570D02*
X58220Y643570D01*
X58220Y636590D01*
X51240Y636590D01*
X51240Y641390D02*
X58220Y641390D01*
D10*
X411480Y411480D03*
X741680Y411480D03*
D11*
X716280Y398780D03*
X436880Y754380D03*
D12*
X400130Y604580D03*
X400130Y548580D03*
D13*
X436880Y591580D03*
X436880Y581580D03*
X436880Y571580D03*
X436880Y561580D03*
D14*
X754380Y449580D03*
X754380Y474980D03*
X754380Y500380D03*
X754380Y525780D03*
D15*
X508880Y538480D03*
X491880Y538480D03*
D12*
X753030Y548580D03*
X753030Y604580D03*
D13*
X716280Y561580D03*
X716280Y571580D03*
X716280Y581580D03*
X716280Y591580D03*
D16*
X411480Y631580D03*
X411480Y648580D03*
X398780Y631580D03*
X398780Y648580D03*
D17*
X623080Y570230D03*
X623080Y557530D03*
X623080Y544830D03*
X623080Y532130D03*
X623080Y621030D03*
X623080Y608330D03*
X623080Y595630D03*
X623080Y582930D03*
X530080Y570230D03*
X530080Y557530D03*
X530080Y544830D03*
X530080Y532130D03*
X530080Y621030D03*
X530080Y608330D03*
X530080Y595630D03*
X530080Y582930D03*
D14*
X398780Y525780D03*
D15*
X673980Y576580D03*
X656980Y576580D03*
X673980Y551180D03*
X656980Y551180D03*
X673980Y525780D03*
X656980Y525780D03*
D10*
X741680Y741680D03*
X411480Y741680D03*
D15*
X402980Y500380D03*
X419980Y500380D03*
D18*
X501580Y703580D03*
X551580Y703580D03*
X601580Y703580D03*
X651580Y703580D03*
X651580Y449580D03*
X601580Y449580D03*
X551580Y449580D03*
X501580Y449580D03*
D15*
X441080Y627380D03*
X458080Y627380D03*
D19*
X454860Y636590D02*
X454860Y643570D01*
X461840Y643570D01*
X461840Y636590D01*
X454860Y636590D01*
X454860Y641390D02*
X461840Y641390D01*
X437320Y643570D02*
X437320Y636590D01*
X437320Y643570D02*
X444300Y643570D01*
X444300Y636590D01*
X437320Y636590D01*
X437320Y641390D02*
X444300Y641390D01*
D10*
X797560Y411480D03*
X1127760Y411480D03*
D11*
X1102360Y398780D03*
X822960Y754380D03*
D12*
X786210Y604580D03*
X786210Y548580D03*
D13*
X822960Y591580D03*
X822960Y581580D03*
X822960Y571580D03*
X822960Y561580D03*
D14*
X1140460Y449580D03*
X1140460Y474980D03*
X1140460Y500380D03*
X1140460Y525780D03*
D15*
X894960Y538480D03*
X877960Y538480D03*
D12*
X1139110Y548580D03*
X1139110Y604580D03*
D13*
X1102360Y561580D03*
X1102360Y571580D03*
X1102360Y581580D03*
X1102360Y591580D03*
D16*
X797560Y631580D03*
X797560Y648580D03*
X784860Y631580D03*
X784860Y648580D03*
D17*
X1009160Y570230D03*
X1009160Y557530D03*
X1009160Y544830D03*
X1009160Y532130D03*
X1009160Y621030D03*
X1009160Y608330D03*
X1009160Y595630D03*
X1009160Y582930D03*
X916160Y570230D03*
X916160Y557530D03*
X916160Y544830D03*
X916160Y532130D03*
X916160Y621030D03*
X916160Y608330D03*
X916160Y595630D03*
X916160Y582930D03*
D14*
X784860Y525780D03*
D15*
X1060060Y576580D03*
X1043060Y576580D03*
X1060060Y551180D03*
X1043060Y551180D03*
X1060060Y525780D03*
X1043060Y525780D03*
D10*
X1127760Y741680D03*
X797560Y741680D03*
D15*
X789060Y500380D03*
X806060Y500380D03*
D18*
X887660Y703580D03*
X937660Y703580D03*
X987660Y703580D03*
X1037660Y703580D03*
X1037660Y449580D03*
X987660Y449580D03*
X937660Y449580D03*
X887660Y449580D03*
D15*
X827160Y627380D03*
X844160Y627380D03*
D19*
X840940Y636590D02*
X840940Y643570D01*
X847920Y643570D01*
X847920Y636590D01*
X840940Y636590D01*
X840940Y641390D02*
X847920Y641390D01*
X823400Y643570D02*
X823400Y636590D01*
X823400Y643570D02*
X830380Y643570D01*
X830380Y636590D01*
X823400Y636590D01*
X823400Y641390D02*
X830380Y641390D01*
D10*
X1183640Y411480D03*
X1513840Y411480D03*
D11*
X1488440Y398780D03*
X1209040Y754380D03*
D12*
X1172290Y604580D03*
X1172290Y548580D03*
D13*
X1209040Y591580D03*
X1209040Y581580D03*
X1209040Y571580D03*
X1209040Y561580D03*
D14*
X1526540Y449580D03*
X1526540Y474980D03*
X1526540Y500380D03*
X1526540Y525780D03*
D15*
X1281040Y538480D03*
X1264040Y538480D03*
D12*
X1525190Y548580D03*
X1525190Y604580D03*
D13*
X1488440Y561580D03*
X1488440Y571580D03*
X1488440Y581580D03*
X1488440Y591580D03*
D16*
X1183640Y631580D03*
X1183640Y648580D03*
X1170940Y631580D03*
X1170940Y648580D03*
D17*
X1395240Y570230D03*
X1395240Y557530D03*
X1395240Y544830D03*
X1395240Y532130D03*
X1395240Y621030D03*
X1395240Y608330D03*
X1395240Y595630D03*
X1395240Y582930D03*
X1302240Y570230D03*
X1302240Y557530D03*
X1302240Y544830D03*
X1302240Y532130D03*
X1302240Y621030D03*
X1302240Y608330D03*
X1302240Y595630D03*
X1302240Y582930D03*
D14*
X1170940Y525780D03*
D15*
X1446140Y576580D03*
X1429140Y576580D03*
X1446140Y551180D03*
X1429140Y551180D03*
X1446140Y525780D03*
X1429140Y525780D03*
D10*
X1513840Y741680D03*
X1183640Y741680D03*
D15*
X1175140Y500380D03*
X1192140Y500380D03*
D18*
X1273740Y703580D03*
X1323740Y703580D03*
X1373740Y703580D03*
X1423740Y703580D03*
X1423740Y449580D03*
X1373740Y449580D03*
X1323740Y449580D03*
X1273740Y449580D03*
D15*
X1213240Y627380D03*
X1230240Y627380D03*
D19*
X1227020Y636590D02*
X1227020Y643570D01*
X1234000Y643570D01*
X1234000Y636590D01*
X1227020Y636590D01*
X1227020Y641390D02*
X1234000Y641390D01*
X1209480Y643570D02*
X1209480Y636590D01*
X1209480Y643570D02*
X1216460Y643570D01*
X1216460Y636590D01*
X1209480Y636590D01*
X1209480Y641390D02*
X1216460Y641390D01*
D10*
X25400Y797560D03*
X355600Y797560D03*
D11*
X330200Y784860D03*
X50800Y1140460D03*
D12*
X14050Y990660D03*
X14050Y934660D03*
D13*
X50800Y977660D03*
X50800Y967660D03*
X50800Y957660D03*
X50800Y947660D03*
D14*
X368300Y835660D03*
X368300Y861060D03*
X368300Y886460D03*
X368300Y911860D03*
D15*
X122800Y924560D03*
X105800Y924560D03*
D12*
X366950Y934660D03*
X366950Y990660D03*
D13*
X330200Y947660D03*
X330200Y957660D03*
X330200Y967660D03*
X330200Y977660D03*
D16*
X25400Y1017660D03*
X25400Y1034660D03*
X12700Y1017660D03*
X12700Y1034660D03*
D17*
X237000Y956310D03*
X237000Y943610D03*
X237000Y930910D03*
X237000Y918210D03*
X237000Y1007110D03*
X237000Y994410D03*
X237000Y981710D03*
X237000Y969010D03*
X144000Y956310D03*
X144000Y943610D03*
X144000Y930910D03*
X144000Y918210D03*
X144000Y1007110D03*
X144000Y994410D03*
X144000Y981710D03*
X144000Y969010D03*
D14*
X12700Y911860D03*
D15*
X287900Y962660D03*
X270900Y962660D03*
X287900Y937260D03*
X270900Y937260D03*
X287900Y911860D03*
X270900Y911860D03*
D10*
X355600Y1127760D03*
X25400Y1127760D03*
D15*
X16900Y886460D03*
X33900Y886460D03*
D18*
X115500Y1089660D03*
X165500Y1089660D03*
X215500Y1089660D03*
X265500Y1089660D03*
X265500Y835660D03*
X215500Y835660D03*
X165500Y835660D03*
X115500Y835660D03*
D15*
X55000Y1013460D03*
X72000Y1013460D03*
D19*
X68780Y1022670D02*
X68780Y1029650D01*
X75760Y1029650D01*
X75760Y1022670D01*
X68780Y1022670D01*
X68780Y1027470D02*
X75760Y1027470D01*
X51240Y1029650D02*
X51240Y1022670D01*
X51240Y1029650D02*
X58220Y1029650D01*
X58220Y1022670D01*
X51240Y1022670D01*
X51240Y1027470D02*
X58220Y1027470D01*
D10*
X411480Y797560D03*
X741680Y797560D03*
D11*
X716280Y784860D03*
X436880Y1140460D03*
D12*
X400130Y990660D03*
X400130Y934660D03*
D13*
X436880Y977660D03*
X436880Y967660D03*
X436880Y957660D03*
X436880Y947660D03*
D14*
X754380Y835660D03*
X754380Y861060D03*
X754380Y886460D03*
X754380Y911860D03*
D15*
X508880Y924560D03*
X491880Y924560D03*
D12*
X753030Y934660D03*
X753030Y990660D03*
D13*
X716280Y947660D03*
X716280Y957660D03*
X716280Y967660D03*
X716280Y977660D03*
D16*
X411480Y1017660D03*
X411480Y1034660D03*
X398780Y1017660D03*
X398780Y1034660D03*
D17*
X623080Y956310D03*
X623080Y943610D03*
X623080Y930910D03*
X623080Y918210D03*
X623080Y1007110D03*
X623080Y994410D03*
X623080Y981710D03*
X623080Y969010D03*
X530080Y956310D03*
X530080Y943610D03*
X530080Y930910D03*
X530080Y918210D03*
X530080Y1007110D03*
X530080Y994410D03*
X530080Y981710D03*
X530080Y969010D03*
D14*
X398780Y911860D03*
D15*
X673980Y962660D03*
X656980Y962660D03*
X673980Y937260D03*
X656980Y937260D03*
X673980Y911860D03*
X656980Y911860D03*
D10*
X741680Y1127760D03*
X411480Y1127760D03*
D15*
X402980Y886460D03*
X419980Y886460D03*
D18*
X501580Y1089660D03*
X551580Y1089660D03*
X601580Y1089660D03*
X651580Y1089660D03*
X651580Y835660D03*
X601580Y835660D03*
X551580Y835660D03*
X501580Y835660D03*
D15*
X441080Y1013460D03*
X458080Y1013460D03*
D19*
X454860Y1022670D02*
X454860Y1029650D01*
X461840Y1029650D01*
X461840Y1022670D01*
X454860Y1022670D01*
X454860Y1027470D02*
X461840Y1027470D01*
X437320Y1029650D02*
X437320Y1022670D01*
X437320Y1029650D02*
X444300Y1029650D01*
X444300Y1022670D01*
X437320Y1022670D01*
X437320Y1027470D02*
X444300Y1027470D01*
D10*
X797560Y797560D03*
X1127760Y797560D03*
D11*
X1102360Y784860D03*
X822960Y1140460D03*
D12*
X786210Y990660D03*
X786210Y934660D03*
D13*
X822960Y977660D03*
X822960Y967660D03*
X822960Y957660D03*
X822960Y947660D03*
D14*
X1140460Y835660D03*
X1140460Y861060D03*
X1140460Y886460D03*
X1140460Y911860D03*
D15*
X894960Y924560D03*
X877960Y924560D03*
D12*
X1139110Y934660D03*
X1139110Y990660D03*
D13*
X1102360Y947660D03*
X1102360Y957660D03*
X1102360Y967660D03*
X1102360Y977660D03*
D16*
X797560Y1017660D03*
X797560Y1034660D03*
X784860Y1017660D03*
X784860Y1034660D03*
D17*
X1009160Y956310D03*
X1009160Y943610D03*
X1009160Y930910D03*
X1009160Y918210D03*
X1009160Y1007110D03*
X1009160Y994410D03*
X1009160Y981710D03*
X1009160Y969010D03*
X916160Y956310D03*
X916160Y943610D03*
X916160Y930910D03*
X916160Y918210D03*
X916160Y1007110D03*
X916160Y994410D03*
X916160Y981710D03*
X916160Y969010D03*
D14*
X784860Y911860D03*
D15*
X1060060Y962660D03*
X1043060Y962660D03*
X1060060Y937260D03*
X1043060Y937260D03*
X1060060Y911860D03*
X1043060Y911860D03*
D10*
X1127760Y1127760D03*
X797560Y1127760D03*
D15*
X789060Y886460D03*
X806060Y886460D03*
D18*
X887660Y1089660D03*
X937660Y1089660D03*
X987660Y1089660D03*
X1037660Y1089660D03*
X1037660Y835660D03*
X987660Y835660D03*
X937660Y835660D03*
X887660Y835660D03*
D15*
X827160Y1013460D03*
X844160Y1013460D03*
D19*
X840940Y1022670D02*
X840940Y1029650D01*
X847920Y1029650D01*
X847920Y1022670D01*
X840940Y1022670D01*
X840940Y1027470D02*
X847920Y1027470D01*
X823400Y1029650D02*
X823400Y1022670D01*
X823400Y1029650D02*
X830380Y1029650D01*
X830380Y1022670D01*
X823400Y1022670D01*
X823400Y1027470D02*
X830380Y1027470D01*
D10*
X1183640Y797560D03*
X1513840Y797560D03*
D11*
X1488440Y784860D03*
X1209040Y1140460D03*
D12*
X1172290Y990660D03*
X1172290Y934660D03*
D13*
X1209040Y977660D03*
X1209040Y967660D03*
X1209040Y957660D03*
X1209040Y947660D03*
D14*
X1526540Y835660D03*
X1526540Y861060D03*
X1526540Y886460D03*
X1526540Y911860D03*
D15*
X1281040Y924560D03*
X1264040Y924560D03*
D12*
X1525190Y934660D03*
X1525190Y990660D03*
D13*
X1488440Y947660D03*
X1488440Y957660D03*
X1488440Y967660D03*
X1488440Y977660D03*
D16*
X1183640Y1017660D03*
X1183640Y1034660D03*
X1170940Y1017660D03*
X1170940Y1034660D03*
D17*
X1395240Y956310D03*
X1395240Y943610D03*
X1395240Y930910D03*
X1395240Y918210D03*
X1395240Y1007110D03*
X1395240Y994410D03*
X1395240Y981710D03*
X1395240Y969010D03*
X1302240Y956310D03*
X1302240Y943610D03*
X1302240Y930910D03*
X1302240Y918210D03*
X1302240Y1007110D03*
X1302240Y994410D03*
X1302240Y981710D03*
X1302240Y969010D03*
D14*
X1170940Y911860D03*
D15*
X1446140Y962660D03*
X1429140Y962660D03*
X1446140Y937260D03*
X1429140Y937260D03*
X1446140Y911860D03*
X1429140Y911860D03*
D10*
X1513840Y1127760D03*
X1183640Y1127760D03*
D15*
X1175140Y886460D03*
X1192140Y886460D03*
D18*
X1273740Y1089660D03*
X1323740Y1089660D03*
X1373740Y1089660D03*
X1423740Y1089660D03*
X1423740Y835660D03*
X1373740Y835660D03*
X1323740Y835660D03*
X1273740Y835660D03*
D15*
X1213240Y1013460D03*
X1230240Y1013460D03*
D19*
X1227020Y1022670D02*
X1227020Y1029650D01*
X1234000Y1029650D01*
X1234000Y1022670D01*
X1227020Y1022670D01*
X1227020Y1027470D02*
X1234000Y1027470D01*
X1209480Y1029650D02*
X1209480Y1022670D01*
X1209480Y1029650D02*
X1216460Y1029650D01*
X1216460Y1022670D01*
X1209480Y1022670D01*
X1209480Y1027470D02*
X1216460Y1027470D01*
D10*
X25400Y1183640D03*
X355600Y1183640D03*
D11*
X330200Y1170940D03*
X50800Y1526540D03*
D12*
X14050Y1376740D03*
X14050Y1320740D03*
D13*
X50800Y1363740D03*
X50800Y1353740D03*
X50800Y1343740D03*
X50800Y1333740D03*
D14*
X368300Y1221740D03*
X368300Y1247140D03*
X368300Y1272540D03*
X368300Y1297940D03*
D15*
X122800Y1310640D03*
X105800Y1310640D03*
D12*
X366950Y1320740D03*
X366950Y1376740D03*
D13*
X330200Y1333740D03*
X330200Y1343740D03*
X330200Y1353740D03*
X330200Y1363740D03*
D16*
X25400Y1403740D03*
X25400Y1420740D03*
X12700Y1403740D03*
X12700Y1420740D03*
D17*
X237000Y1342390D03*
X237000Y1329690D03*
X237000Y1316990D03*
X237000Y1304290D03*
X237000Y1393190D03*
X237000Y1380490D03*
X237000Y1367790D03*
X237000Y1355090D03*
X144000Y1342390D03*
X144000Y1329690D03*
X144000Y1316990D03*
X144000Y1304290D03*
X144000Y1393190D03*
X144000Y1380490D03*
X144000Y1367790D03*
X144000Y1355090D03*
D14*
X12700Y1297940D03*
D15*
X287900Y1348740D03*
X270900Y1348740D03*
X287900Y1323340D03*
X270900Y1323340D03*
X287900Y1297940D03*
X270900Y1297940D03*
D10*
X355600Y1513840D03*
X25400Y1513840D03*
D15*
X16900Y1272540D03*
X33900Y1272540D03*
D18*
X115500Y1475740D03*
X165500Y1475740D03*
X215500Y1475740D03*
X265500Y1475740D03*
X265500Y1221740D03*
X215500Y1221740D03*
X165500Y1221740D03*
X115500Y1221740D03*
D15*
X55000Y1399540D03*
X72000Y1399540D03*
D19*
X68780Y1408750D02*
X68780Y1415730D01*
X75760Y1415730D01*
X75760Y1408750D01*
X68780Y1408750D01*
X68780Y1413550D02*
X75760Y1413550D01*
X51240Y1415730D02*
X51240Y1408750D01*
X51240Y1415730D02*
X58220Y1415730D01*
X58220Y1408750D01*
X51240Y1408750D01*
X51240Y1413550D02*
X58220Y1413550D01*
D10*
X411480Y1183640D03*
X741680Y1183640D03*
D11*
X716280Y1170940D03*
X436880Y1526540D03*
D12*
X400130Y1376740D03*
X400130Y1320740D03*
D13*
X436880Y1363740D03*
X436880Y1353740D03*
X436880Y1343740D03*
X436880Y1333740D03*
D14*
X754380Y1221740D03*
X754380Y1247140D03*
X754380Y1272540D03*
X754380Y1297940D03*
D15*
X508880Y1310640D03*
X491880Y1310640D03*
D12*
X753030Y1320740D03*
X753030Y1376740D03*
D13*
X716280Y1333740D03*
X716280Y1343740D03*
X716280Y1353740D03*
X716280Y1363740D03*
D16*
X411480Y1403740D03*
X411480Y1420740D03*
X398780Y1403740D03*
X398780Y1420740D03*
D17*
X623080Y1342390D03*
X623080Y1329690D03*
X623080Y1316990D03*
X623080Y1304290D03*
X623080Y1393190D03*
X623080Y1380490D03*
X623080Y1367790D03*
X623080Y1355090D03*
X530080Y1342390D03*
X530080Y1329690D03*
X530080Y1316990D03*
X530080Y1304290D03*
X530080Y1393190D03*
X530080Y1380490D03*
X530080Y1367790D03*
X530080Y1355090D03*
D14*
X398780Y1297940D03*
D15*
X673980Y1348740D03*
X656980Y1348740D03*
X673980Y1323340D03*
X656980Y1323340D03*
X673980Y1297940D03*
X656980Y1297940D03*
D10*
X741680Y1513840D03*
X411480Y1513840D03*
D15*
X402980Y1272540D03*
X419980Y1272540D03*
D18*
X501580Y1475740D03*
X551580Y1475740D03*
X601580Y1475740D03*
X651580Y1475740D03*
X651580Y1221740D03*
X601580Y1221740D03*
X551580Y1221740D03*
X501580Y1221740D03*
D15*
X441080Y1399540D03*
X458080Y1399540D03*
D19*
X454860Y1408750D02*
X454860Y1415730D01*
X461840Y1415730D01*
X461840Y1408750D01*
X454860Y1408750D01*
X454860Y1413550D02*
X461840Y1413550D01*
X437320Y1415730D02*
X437320Y1408750D01*
X437320Y1415730D02*
X444300Y1415730D01*
X444300Y1408750D01*
X437320Y1408750D01*
X437320Y1413550D02*
X444300Y1413550D01*
D10*
X797560Y1183640D03*
X1127760Y1183640D03*
D11*
X1102360Y1170940D03*
X822960Y1526540D03*
D12*
X786210Y1376740D03*
X786210Y1320740D03*
D13*
X822960Y1363740D03*
X822960Y1353740D03*
X822960Y1343740D03*
X822960Y1333740D03*
D14*
X1140460Y1221740D03*
X1140460Y1247140D03*
X1140460Y1272540D03*
X1140460Y1297940D03*
D15*
X894960Y1310640D03*
X877960Y1310640D03*
D12*
X1139110Y1320740D03*
X1139110Y1376740D03*
D13*
X1102360Y1333740D03*
X1102360Y1343740D03*
X1102360Y1353740D03*
X1102360Y1363740D03*
D16*
X797560Y1403740D03*
X797560Y1420740D03*
X784860Y1403740D03*
X784860Y1420740D03*
D17*
X1009160Y1342390D03*
X1009160Y1329690D03*
X1009160Y1316990D03*
X1009160Y1304290D03*
X1009160Y1393190D03*
X1009160Y1380490D03*
X1009160Y1367790D03*
X1009160Y1355090D03*
X916160Y1342390D03*
X916160Y1329690D03*
X916160Y1316990D03*
X916160Y1304290D03*
X916160Y1393190D03*
X916160Y1380490D03*
X916160Y1367790D03*
X916160Y1355090D03*
D14*
X784860Y1297940D03*
D15*
X1060060Y1348740D03*
X1043060Y1348740D03*
X1060060Y1323340D03*
X1043060Y1323340D03*
X1060060Y1297940D03*
X1043060Y1297940D03*
D10*
X1127760Y1513840D03*
X797560Y1513840D03*
D15*
X789060Y1272540D03*
X806060Y1272540D03*
D18*
X887660Y1475740D03*
X937660Y1475740D03*
X987660Y1475740D03*
X1037660Y1475740D03*
X1037660Y1221740D03*
X987660Y1221740D03*
X937660Y1221740D03*
X887660Y1221740D03*
D15*
X827160Y1399540D03*
X844160Y1399540D03*
D19*
X840940Y1408750D02*
X840940Y1415730D01*
X847920Y1415730D01*
X847920Y1408750D01*
X840940Y1408750D01*
X840940Y1413550D02*
X847920Y1413550D01*
X823400Y1415730D02*
X823400Y1408750D01*
X823400Y1415730D02*
X830380Y1415730D01*
X830380Y1408750D01*
X823400Y1408750D01*
X823400Y1413550D02*
X830380Y1413550D01*
D10*
X1183640Y1183640D03*
X1513840Y1183640D03*
D11*
X1488440Y1170940D03*
X1209040Y1526540D03*
D12*
X1172290Y1376740D03*
X1172290Y1320740D03*
D13*
X1209040Y1363740D03*
X1209040Y1353740D03*
X1209040Y1343740D03*
X1209040Y1333740D03*
D14*
X1526540Y1221740D03*
X1526540Y1247140D03*
X1526540Y1272540D03*
X1526540Y1297940D03*
D15*
X1281040Y1310640D03*
X1264040Y1310640D03*
D12*
X1525190Y1320740D03*
X1525190Y1376740D03*
D13*
X1488440Y1333740D03*
X1488440Y1343740D03*
X1488440Y1353740D03*
X1488440Y1363740D03*
D16*
X1183640Y1403740D03*
X1183640Y1420740D03*
X1170940Y1403740D03*
X1170940Y1420740D03*
D17*
X1395240Y1342390D03*
X1395240Y1329690D03*
X1395240Y1316990D03*
X1395240Y1304290D03*
X1395240Y1393190D03*
X1395240Y1380490D03*
X1395240Y1367790D03*
X1395240Y1355090D03*
X1302240Y1342390D03*
X1302240Y1329690D03*
X1302240Y1316990D03*
X1302240Y1304290D03*
X1302240Y1393190D03*
X1302240Y1380490D03*
X1302240Y1367790D03*
X1302240Y1355090D03*
D14*
X1170940Y1297940D03*
D15*
X1446140Y1348740D03*
X1429140Y1348740D03*
X1446140Y1323340D03*
X1429140Y1323340D03*
X1446140Y1297940D03*
X1429140Y1297940D03*
D10*
X1513840Y1513840D03*
X1183640Y1513840D03*
D15*
X1175140Y1272540D03*
X1192140Y1272540D03*
D18*
X1273740Y1475740D03*
X1323740Y1475740D03*
X1373740Y1475740D03*
X1423740Y1475740D03*
X1423740Y1221740D03*
X1373740Y1221740D03*
X1323740Y1221740D03*
X1273740Y1221740D03*
D15*
X1213240Y1399540D03*
X1230240Y1399540D03*
D19*
X1227020Y1408750D02*
X1227020Y1415730D01*
X1234000Y1415730D01*
X1234000Y1408750D01*
X1227020Y1408750D01*
X1227020Y1413550D02*
X1234000Y1413550D01*
X1209480Y1415730D02*
X1209480Y1408750D01*
X1209480Y1415730D02*
X1216460Y1415730D01*
X1216460Y1408750D01*
X1209480Y1408750D01*
X1209480Y1413550D02*
X1216460Y1413550D01*
D11*
X68580Y1560195D03*
X1470025Y1560195D03*
D20*
X59525Y-20955D02*
X59528Y-20733D01*
X59536Y-20511D01*
X59550Y-20289D01*
X59569Y-20067D01*
X59593Y-19847D01*
X59623Y-19626D01*
X59658Y-19407D01*
X59699Y-19188D01*
X59745Y-18971D01*
X59796Y-18755D01*
X59853Y-18540D01*
X59915Y-18326D01*
X59982Y-18115D01*
X60054Y-17904D01*
X60132Y-17696D01*
X60214Y-17490D01*
X60302Y-17286D01*
X60394Y-17083D01*
X60492Y-16884D01*
X60594Y-16687D01*
X60701Y-16492D01*
X60813Y-16300D01*
X60930Y-16111D01*
X61051Y-15924D01*
X61177Y-15741D01*
X61307Y-15561D01*
X61442Y-15384D01*
X61580Y-15211D01*
X61723Y-15041D01*
X61871Y-14874D01*
X62022Y-14711D01*
X62177Y-14552D01*
X62336Y-14397D01*
X62499Y-14246D01*
X62666Y-14098D01*
X62836Y-13955D01*
X63009Y-13817D01*
X63186Y-13682D01*
X63366Y-13552D01*
X63549Y-13426D01*
X63736Y-13305D01*
X63925Y-13188D01*
X64117Y-13076D01*
X64312Y-12969D01*
X64509Y-12867D01*
X64708Y-12769D01*
X64911Y-12677D01*
X65115Y-12589D01*
X65321Y-12507D01*
X65529Y-12429D01*
X65740Y-12357D01*
X65951Y-12290D01*
X66165Y-12228D01*
X66380Y-12171D01*
X66596Y-12120D01*
X66813Y-12074D01*
X67032Y-12033D01*
X67251Y-11998D01*
X67472Y-11968D01*
X67692Y-11944D01*
X67914Y-11925D01*
X68136Y-11911D01*
X68358Y-11903D01*
X68580Y-11900D01*
X68802Y-11903D01*
X69024Y-11911D01*
X69246Y-11925D01*
X69468Y-11944D01*
X69688Y-11968D01*
X69909Y-11998D01*
X70128Y-12033D01*
X70347Y-12074D01*
X70564Y-12120D01*
X70780Y-12171D01*
X70995Y-12228D01*
X71209Y-12290D01*
X71420Y-12357D01*
X71631Y-12429D01*
X71839Y-12507D01*
X72045Y-12589D01*
X72249Y-12677D01*
X72452Y-12769D01*
X72651Y-12867D01*
X72848Y-12969D01*
X73043Y-13076D01*
X73235Y-13188D01*
X73424Y-13305D01*
X73611Y-13426D01*
X73794Y-13552D01*
X73974Y-13682D01*
X74151Y-13817D01*
X74324Y-13955D01*
X74494Y-14098D01*
X74661Y-14246D01*
X74824Y-14397D01*
X74983Y-14552D01*
X75138Y-14711D01*
X75289Y-14874D01*
X75437Y-15041D01*
X75580Y-15211D01*
X75718Y-15384D01*
X75853Y-15561D01*
X75983Y-15741D01*
X76109Y-15924D01*
X76230Y-16111D01*
X76347Y-16300D01*
X76459Y-16492D01*
X76566Y-16687D01*
X76668Y-16884D01*
X76766Y-17083D01*
X76858Y-17286D01*
X76946Y-17490D01*
X77028Y-17696D01*
X77106Y-17904D01*
X77178Y-18115D01*
X77245Y-18326D01*
X77307Y-18540D01*
X77364Y-18755D01*
X77415Y-18971D01*
X77461Y-19188D01*
X77502Y-19407D01*
X77537Y-19626D01*
X77567Y-19847D01*
X77591Y-20067D01*
X77610Y-20289D01*
X77624Y-20511D01*
X77632Y-20733D01*
X77635Y-20955D01*
X77632Y-21177D01*
X77624Y-21399D01*
X77610Y-21621D01*
X77591Y-21843D01*
X77567Y-22063D01*
X77537Y-22284D01*
X77502Y-22503D01*
X77461Y-22722D01*
X77415Y-22939D01*
X77364Y-23155D01*
X77307Y-23370D01*
X77245Y-23584D01*
X77178Y-23795D01*
X77106Y-24006D01*
X77028Y-24214D01*
X76946Y-24420D01*
X76858Y-24624D01*
X76766Y-24827D01*
X76668Y-25026D01*
X76566Y-25223D01*
X76459Y-25418D01*
X76347Y-25610D01*
X76230Y-25799D01*
X76109Y-25986D01*
X75983Y-26169D01*
X75853Y-26349D01*
X75718Y-26526D01*
X75580Y-26699D01*
X75437Y-26869D01*
X75289Y-27036D01*
X75138Y-27199D01*
X74983Y-27358D01*
X74824Y-27513D01*
X74661Y-27664D01*
X74494Y-27812D01*
X74324Y-27955D01*
X74151Y-28093D01*
X73974Y-28228D01*
X73794Y-28358D01*
X73611Y-28484D01*
X73424Y-28605D01*
X73235Y-28722D01*
X73043Y-28834D01*
X72848Y-28941D01*
X72651Y-29043D01*
X72452Y-29141D01*
X72249Y-29233D01*
X72045Y-29321D01*
X71839Y-29403D01*
X71631Y-29481D01*
X71420Y-29553D01*
X71209Y-29620D01*
X70995Y-29682D01*
X70780Y-29739D01*
X70564Y-29790D01*
X70347Y-29836D01*
X70128Y-29877D01*
X69909Y-29912D01*
X69688Y-29942D01*
X69468Y-29966D01*
X69246Y-29985D01*
X69024Y-29999D01*
X68802Y-30007D01*
X68580Y-30010D01*
X68358Y-30007D01*
X68136Y-29999D01*
X67914Y-29985D01*
X67692Y-29966D01*
X67472Y-29942D01*
X67251Y-29912D01*
X67032Y-29877D01*
X66813Y-29836D01*
X66596Y-29790D01*
X66380Y-29739D01*
X66165Y-29682D01*
X65951Y-29620D01*
X65740Y-29553D01*
X65529Y-29481D01*
X65321Y-29403D01*
X65115Y-29321D01*
X64911Y-29233D01*
X64708Y-29141D01*
X64509Y-29043D01*
X64312Y-28941D01*
X64117Y-28834D01*
X63925Y-28722D01*
X63736Y-28605D01*
X63549Y-28484D01*
X63366Y-28358D01*
X63186Y-28228D01*
X63009Y-28093D01*
X62836Y-27955D01*
X62666Y-27812D01*
X62499Y-27664D01*
X62336Y-27513D01*
X62177Y-27358D01*
X62022Y-27199D01*
X61871Y-27036D01*
X61723Y-26869D01*
X61580Y-26699D01*
X61442Y-26526D01*
X61307Y-26349D01*
X61177Y-26169D01*
X61051Y-25986D01*
X60930Y-25799D01*
X60813Y-25610D01*
X60701Y-25418D01*
X60594Y-25223D01*
X60492Y-25026D01*
X60394Y-24827D01*
X60302Y-24624D01*
X60214Y-24420D01*
X60132Y-24214D01*
X60054Y-24006D01*
X59982Y-23795D01*
X59915Y-23584D01*
X59853Y-23370D01*
X59796Y-23155D01*
X59745Y-22939D01*
X59699Y-22722D01*
X59658Y-22503D01*
X59623Y-22284D01*
X59593Y-22063D01*
X59569Y-21843D01*
X59550Y-21621D01*
X59536Y-21399D01*
X59528Y-21177D01*
X59525Y-20955D01*
D21*
X68580Y-20955D03*
M02*
