%
M48
M72
T01C0.0150
T02C0.0400
T03C0.1300
%
T01
X1756Y3600
X1756Y5100
X1256Y5600
X1756Y6600
X2256Y6970
X2862Y6100
X2756Y5009
X3756Y3600
X4756Y2600
X5756Y4100
X5906Y4450
X7256Y4150
X8756Y4600
X10256Y4600
X11056Y5750
X11006Y6400
X12956Y7300
X13956Y6600
X14456Y6970
X15062Y6100
X14956Y5009
X13956Y5100
X13456Y5600
X13956Y3600
X15956Y3600
X16956Y2600
X17956Y4100
X18106Y4450
X19456Y4150
X20956Y4600
X22456Y4600
X23256Y5750
X23206Y6400
X25156Y7300
X26156Y6600
X26656Y6970
X27262Y6100
X27156Y5009
X26156Y5100
X25656Y5600
X26156Y3600
X28156Y3600
X29156Y2600
X30156Y4100
X30306Y4450
X31656Y4150
X33156Y4600
X34656Y4600
X35456Y5750
X35406Y6400
X31656Y7100
X31656Y7600
X34156Y11800
X33106Y13050
X31656Y14350
X30306Y14650
X30156Y14300
X29156Y12800
X28156Y13800
X27156Y15209
X26156Y15300
X25656Y15800
X26156Y16800
X26656Y17170
X27262Y16300
X25156Y17500
X23206Y16600
X23256Y15950
X22456Y14800
X20956Y14800
X19456Y14350
X18106Y14650
X17956Y14300
X16956Y12800
X15956Y13800
X14956Y15209
X13956Y15300
X13456Y15800
X13956Y16800
X14456Y17170
X15062Y16300
X12956Y17500
X11006Y16600
X11056Y15950
X10256Y14800
X8756Y14800
X7256Y14350
X5906Y14650
X5756Y14300
X4756Y12800
X3756Y13800
X2756Y15209
X1756Y15300
X1256Y15800
X1756Y16800
X2256Y17170
X2862Y16300
X756Y17500
X1506Y20050
X4756Y23000
X3756Y24000
X2756Y25409
X1756Y25500
X1256Y26000
X1756Y27000
X2256Y27370
X2862Y26500
X756Y27700
X1506Y30250
X7256Y28000
X7256Y27500
X8756Y25000
X10256Y25000
X11056Y26150
X11006Y26800
X12956Y27700
X13956Y27000
X14456Y27370
X15062Y26500
X14956Y25409
X13956Y25500
X13456Y26000
X13956Y24000
X15956Y24000
X16956Y23000
X17956Y24500
X18106Y24850
X19456Y24550
X20956Y25000
X22456Y25000
X23256Y26150
X23206Y26800
X25156Y27700
X26156Y27000
X26656Y27370
X27262Y26500
X27156Y25409
X26156Y25500
X25656Y26000
X26156Y24000
X28156Y24000
X29156Y23000
X30156Y24500
X30306Y24850
X31656Y24550
X33156Y25000
X34656Y25000
X35456Y26150
X35406Y26800
X31656Y27500
X31656Y28000
X25906Y30250
X19456Y28000
X19456Y27500
X20906Y23250
X21956Y22000
X25906Y20050
X31656Y17800
X31656Y17300
X33156Y14800
X34656Y14800
X35456Y15950
X35406Y16600
X34156Y22000
X33106Y23250
X26156Y13800
X21956Y11800
X20906Y13050
X25906Y9850
X19456Y7600
X19456Y7100
X20906Y2850
X21956Y1600
X13706Y9850
X9756Y11800
X8706Y13050
X13956Y13800
X19456Y17300
X19456Y17800
X13706Y20050
X9756Y22000
X8706Y23250
X7256Y24550
X5906Y24850
X5756Y24500
X1756Y24000
X7256Y17800
X7256Y17300
X1756Y13800
X1506Y9850
X756Y7300
X7256Y7100
X7256Y7600
X8706Y2850
X9756Y1600
X33106Y2850
X34156Y1600
X13706Y30250
T02
X14956Y30500
X15956Y30500
X16956Y30500
X17956Y30500
X18956Y30500
X19956Y30500
X20956Y30500
X21956Y30500
X21956Y29500
X20956Y29500
X19956Y29500
X18956Y29500
X18956Y28500
X19956Y28500
X20956Y28500
X21956Y28500
X17956Y28500
X16956Y28500
X15956Y28500
X14956Y28500
X14956Y29500
X15956Y29500
X16956Y29500
X17956Y29500
X9756Y29500
X8756Y29500
X7756Y29500
X7756Y28500
X8756Y28500
X9756Y28500
X9756Y30500
X8756Y30500
X7756Y30500
X6756Y30500
X5756Y30500
X4756Y30500
X3756Y30500
X2756Y30500
X2756Y29500
X3756Y29500
X4756Y29500
X5756Y29500
X6756Y29500
X6756Y28500
X5756Y28500
X4756Y28500
X3756Y28500
X2756Y28500
X4256Y21500
X5256Y21500
X6256Y21500
X7256Y21500
X8256Y21500
X8756Y20300
X9756Y20300
X9756Y19300
X8756Y19300
X7756Y19300
X7756Y18300
X8756Y18300
X9756Y18300
X7756Y20300
X6756Y20300
X5756Y20300
X4756Y20300
X3756Y20300
X2756Y20300
X2756Y19300
X3756Y19300
X4756Y19300
X5756Y19300
X6756Y19300
X6756Y18300
X5756Y18300
X4756Y18300
X3756Y18300
X2756Y18300
X4256Y11300
X5256Y11300
X6256Y11300
X7256Y11300
X8256Y11300
X8756Y10100
X9756Y10100
X9756Y9100
X8756Y9100
X7756Y9100
X7756Y8100
X8756Y8100
X9756Y8100
X7756Y10100
X6756Y10100
X5756Y10100
X4756Y10100
X3756Y10100
X2756Y10100
X2756Y9100
X3756Y9100
X4756Y9100
X5756Y9100
X6756Y9100
X6756Y8100
X5756Y8100
X4756Y8100
X3756Y8100
X2756Y8100
X4256Y1100
X5256Y1100
X6256Y1100
X7256Y1100
X8256Y1100
X16456Y1100
X17456Y1100
X18456Y1100
X19456Y1100
X20456Y1100
X28656Y1100
X29656Y1100
X30656Y1100
X31656Y1100
X32656Y1100
X32156Y8100
X33156Y8100
X34156Y8100
X34156Y9100
X33156Y9100
X32156Y9100
X31156Y9100
X31156Y8100
X30156Y8100
X29156Y8100
X28156Y8100
X27156Y8100
X27156Y9100
X28156Y9100
X29156Y9100
X30156Y9100
X30156Y10100
X29156Y10100
X28156Y10100
X27156Y10100
X28656Y11300
X29656Y11300
X30656Y11300
X31656Y11300
X32656Y11300
X33156Y10100
X34156Y10100
X32156Y10100
X31156Y10100
X21956Y10100
X20956Y10100
X19956Y10100
X18956Y10100
X18956Y9100
X19956Y9100
X20956Y9100
X21956Y9100
X21956Y8100
X20956Y8100
X19956Y8100
X18956Y8100
X17956Y8100
X16956Y8100
X15956Y8100
X14956Y8100
X14956Y9100
X15956Y9100
X16956Y9100
X17956Y9100
X17956Y10100
X16956Y10100
X15956Y10100
X14956Y10100
X16456Y11300
X17456Y11300
X18456Y11300
X19456Y11300
X20456Y11300
X19956Y18300
X20956Y18300
X21956Y18300
X21956Y19300
X20956Y19300
X19956Y19300
X18956Y19300
X18956Y18300
X17956Y18300
X16956Y18300
X15956Y18300
X14956Y18300
X14956Y19300
X15956Y19300
X16956Y19300
X17956Y19300
X17956Y20300
X16956Y20300
X15956Y20300
X14956Y20300
X16456Y21500
X17456Y21500
X18456Y21500
X19456Y21500
X20456Y21500
X20956Y20300
X21956Y20300
X19956Y20300
X18956Y20300
X27156Y20300
X28156Y20300
X29156Y20300
X30156Y20300
X31156Y20300
X32156Y20300
X33156Y20300
X34156Y20300
X34156Y19300
X33156Y19300
X32156Y19300
X31156Y19300
X31156Y18300
X32156Y18300
X33156Y18300
X34156Y18300
X30156Y18300
X29156Y18300
X28156Y18300
X27156Y18300
X27156Y19300
X28156Y19300
X29156Y19300
X30156Y19300
X29656Y21500
X30656Y21500
X31656Y21500
X32656Y21500
X28656Y21500
X28156Y28500
X29156Y28500
X30156Y28500
X31156Y28500
X32156Y28500
X33156Y28500
X34156Y28500
X34156Y29500
X33156Y29500
X32156Y29500
X31156Y29500
X31156Y30500
X32156Y30500
X33156Y30500
X34156Y30500
X30156Y30500
X29156Y30500
X28156Y30500
X27156Y30500
X27156Y29500
X28156Y29500
X29156Y29500
X30156Y29500
X27156Y28500
T03
X1256Y1600
X11256Y1600
X13456Y1600
X23456Y1600
X25656Y1600
X35656Y1600
X35656Y11800
X25656Y11800
X23456Y11800
X13456Y11800
X11256Y11800
X1256Y11800
X1256Y22000
X11256Y22000
X13456Y22000
X23456Y22000
X25656Y22000
X35656Y22000
M30
