G75*
%MOIN*%
%OFA0B0*%
%FSLAX25Y25*%
%IPPOS*%
%LPD*%
%AMOC8*
5,1,8,0,0,1.08239X$1,22.5*
%
%ADD10C,0.13800*%
%ADD11C,0.08200*%
%ADD12R,0.03300X0.05800*%
%ADD13C,0.00500*%
D10*
X0012560Y0016000D03*
X0112560Y0016000D03*
X0134560Y0016000D03*
X0234560Y0016000D03*
X0256560Y0016000D03*
X0356560Y0016000D03*
X0356560Y0118000D03*
X0256560Y0118000D03*
X0234560Y0118000D03*
X0134560Y0118000D03*
X0112560Y0118000D03*
X0012560Y0118000D03*
X0012560Y0220000D03*
X0112560Y0220000D03*
X0134560Y0220000D03*
X0234560Y0220000D03*
X0256560Y0220000D03*
X0356560Y0220000D03*
D11*
X0341560Y0203000D03*
X0331560Y0203000D03*
X0321560Y0203000D03*
X0311560Y0203000D03*
X0311560Y0193000D03*
X0321560Y0193000D03*
X0331560Y0193000D03*
X0341560Y0193000D03*
X0341560Y0183000D03*
X0331560Y0183000D03*
X0321560Y0183000D03*
X0311560Y0183000D03*
X0301560Y0183000D03*
X0291560Y0183000D03*
X0281560Y0183000D03*
X0271560Y0183000D03*
X0271560Y0193000D03*
X0281560Y0193000D03*
X0291560Y0193000D03*
X0301560Y0193000D03*
X0301560Y0203000D03*
X0291560Y0203000D03*
X0281560Y0203000D03*
X0271560Y0203000D03*
X0286560Y0215000D03*
X0296560Y0215000D03*
X0306560Y0215000D03*
X0316560Y0215000D03*
X0326560Y0215000D03*
X0321560Y0285000D03*
X0331560Y0285000D03*
X0341560Y0285000D03*
X0341560Y0295000D03*
X0331560Y0295000D03*
X0321560Y0295000D03*
X0311560Y0295000D03*
X0311560Y0285000D03*
X0301560Y0285000D03*
X0291560Y0285000D03*
X0281560Y0285000D03*
X0271560Y0285000D03*
X0271560Y0295000D03*
X0281560Y0295000D03*
X0291560Y0295000D03*
X0301560Y0295000D03*
X0301560Y0305000D03*
X0291560Y0305000D03*
X0281560Y0305000D03*
X0271560Y0305000D03*
X0311560Y0305000D03*
X0321560Y0305000D03*
X0331560Y0305000D03*
X0341560Y0305000D03*
X0219560Y0305000D03*
X0209560Y0305000D03*
X0199560Y0305000D03*
X0189560Y0305000D03*
X0189560Y0295000D03*
X0199560Y0295000D03*
X0209560Y0295000D03*
X0219560Y0295000D03*
X0219560Y0285000D03*
X0209560Y0285000D03*
X0199560Y0285000D03*
X0189560Y0285000D03*
X0179560Y0285000D03*
X0169560Y0285000D03*
X0159560Y0285000D03*
X0149560Y0285000D03*
X0149560Y0295000D03*
X0159560Y0295000D03*
X0169560Y0295000D03*
X0179560Y0295000D03*
X0179560Y0305000D03*
X0169560Y0305000D03*
X0159560Y0305000D03*
X0149560Y0305000D03*
X0097560Y0305000D03*
X0087560Y0305000D03*
X0077560Y0305000D03*
X0077560Y0295000D03*
X0087560Y0295000D03*
X0097560Y0295000D03*
X0097560Y0285000D03*
X0087560Y0285000D03*
X0077560Y0285000D03*
X0067560Y0285000D03*
X0057560Y0285000D03*
X0047560Y0285000D03*
X0037560Y0285000D03*
X0027560Y0285000D03*
X0027560Y0295000D03*
X0037560Y0295000D03*
X0047560Y0295000D03*
X0057560Y0295000D03*
X0067560Y0295000D03*
X0067560Y0305000D03*
X0057560Y0305000D03*
X0047560Y0305000D03*
X0037560Y0305000D03*
X0027560Y0305000D03*
X0042560Y0215000D03*
X0052560Y0215000D03*
X0062560Y0215000D03*
X0072560Y0215000D03*
X0082560Y0215000D03*
X0087560Y0203000D03*
X0097560Y0203000D03*
X0097560Y0193000D03*
X0087560Y0193000D03*
X0077560Y0193000D03*
X0077560Y0183000D03*
X0087560Y0183000D03*
X0097560Y0183000D03*
X0077560Y0203000D03*
X0067560Y0203000D03*
X0057560Y0203000D03*
X0047560Y0203000D03*
X0037560Y0203000D03*
X0027560Y0203000D03*
X0027560Y0193000D03*
X0037560Y0193000D03*
X0047560Y0193000D03*
X0057560Y0193000D03*
X0067560Y0193000D03*
X0067560Y0183000D03*
X0057560Y0183000D03*
X0047560Y0183000D03*
X0037560Y0183000D03*
X0027560Y0183000D03*
X0042560Y0113000D03*
X0052560Y0113000D03*
X0062560Y0113000D03*
X0072560Y0113000D03*
X0082560Y0113000D03*
X0087560Y0101000D03*
X0097560Y0101000D03*
X0097560Y0091000D03*
X0087560Y0091000D03*
X0077560Y0091000D03*
X0077560Y0081000D03*
X0087560Y0081000D03*
X0097560Y0081000D03*
X0077560Y0101000D03*
X0067560Y0101000D03*
X0057560Y0101000D03*
X0047560Y0101000D03*
X0037560Y0101000D03*
X0027560Y0101000D03*
X0027560Y0091000D03*
X0037560Y0091000D03*
X0047560Y0091000D03*
X0057560Y0091000D03*
X0067560Y0091000D03*
X0067560Y0081000D03*
X0057560Y0081000D03*
X0047560Y0081000D03*
X0037560Y0081000D03*
X0027560Y0081000D03*
X0042560Y0011000D03*
X0052560Y0011000D03*
X0062560Y0011000D03*
X0072560Y0011000D03*
X0082560Y0011000D03*
X0164560Y0011000D03*
X0174560Y0011000D03*
X0184560Y0011000D03*
X0194560Y0011000D03*
X0204560Y0011000D03*
X0286560Y0011000D03*
X0296560Y0011000D03*
X0306560Y0011000D03*
X0316560Y0011000D03*
X0326560Y0011000D03*
X0321560Y0081000D03*
X0331560Y0081000D03*
X0341560Y0081000D03*
X0341560Y0091000D03*
X0331560Y0091000D03*
X0321560Y0091000D03*
X0311560Y0091000D03*
X0311560Y0081000D03*
X0301560Y0081000D03*
X0291560Y0081000D03*
X0281560Y0081000D03*
X0271560Y0081000D03*
X0271560Y0091000D03*
X0281560Y0091000D03*
X0291560Y0091000D03*
X0301560Y0091000D03*
X0301560Y0101000D03*
X0291560Y0101000D03*
X0281560Y0101000D03*
X0271560Y0101000D03*
X0286560Y0113000D03*
X0296560Y0113000D03*
X0306560Y0113000D03*
X0316560Y0113000D03*
X0326560Y0113000D03*
X0331560Y0101000D03*
X0341560Y0101000D03*
X0321560Y0101000D03*
X0311560Y0101000D03*
X0219560Y0101000D03*
X0209560Y0101000D03*
X0199560Y0101000D03*
X0189560Y0101000D03*
X0189560Y0091000D03*
X0199560Y0091000D03*
X0209560Y0091000D03*
X0219560Y0091000D03*
X0219560Y0081000D03*
X0209560Y0081000D03*
X0199560Y0081000D03*
X0189560Y0081000D03*
X0179560Y0081000D03*
X0169560Y0081000D03*
X0159560Y0081000D03*
X0149560Y0081000D03*
X0149560Y0091000D03*
X0159560Y0091000D03*
X0169560Y0091000D03*
X0179560Y0091000D03*
X0179560Y0101000D03*
X0169560Y0101000D03*
X0159560Y0101000D03*
X0149560Y0101000D03*
X0164560Y0113000D03*
X0174560Y0113000D03*
X0184560Y0113000D03*
X0194560Y0113000D03*
X0204560Y0113000D03*
X0199560Y0183000D03*
X0209560Y0183000D03*
X0219560Y0183000D03*
X0219560Y0193000D03*
X0209560Y0193000D03*
X0199560Y0193000D03*
X0189560Y0193000D03*
X0189560Y0183000D03*
X0179560Y0183000D03*
X0169560Y0183000D03*
X0159560Y0183000D03*
X0149560Y0183000D03*
X0149560Y0193000D03*
X0159560Y0193000D03*
X0169560Y0193000D03*
X0179560Y0193000D03*
X0179560Y0203000D03*
X0169560Y0203000D03*
X0159560Y0203000D03*
X0149560Y0203000D03*
X0164560Y0215000D03*
X0174560Y0215000D03*
X0184560Y0215000D03*
X0194560Y0215000D03*
X0204560Y0215000D03*
X0209560Y0203000D03*
X0219560Y0203000D03*
X0199560Y0203000D03*
X0189560Y0203000D03*
D12*
X0186560Y0235000D03*
X0182560Y0235000D03*
X0171560Y0235000D03*
X0167560Y0235000D03*
X0197560Y0235000D03*
X0201560Y0235000D03*
X0289560Y0235000D03*
X0293560Y0235000D03*
X0304560Y0235000D03*
X0308560Y0235000D03*
X0319560Y0235000D03*
X0323560Y0235000D03*
X0323560Y0133000D03*
X0319560Y0133000D03*
X0308560Y0133000D03*
X0304560Y0133000D03*
X0293560Y0133000D03*
X0289560Y0133000D03*
X0201560Y0133000D03*
X0197560Y0133000D03*
X0186560Y0133000D03*
X0182560Y0133000D03*
X0171560Y0133000D03*
X0167560Y0133000D03*
X0079560Y0133000D03*
X0075560Y0133000D03*
X0064560Y0133000D03*
X0060560Y0133000D03*
X0049560Y0133000D03*
X0045560Y0133000D03*
X0045560Y0031000D03*
X0049560Y0031000D03*
X0060560Y0031000D03*
X0064560Y0031000D03*
X0075560Y0031000D03*
X0079560Y0031000D03*
X0167560Y0031000D03*
X0171560Y0031000D03*
X0182560Y0031000D03*
X0186560Y0031000D03*
X0197560Y0031000D03*
X0201560Y0031000D03*
X0289560Y0031000D03*
X0293560Y0031000D03*
X0304560Y0031000D03*
X0308560Y0031000D03*
X0319560Y0031000D03*
X0323560Y0031000D03*
X0079560Y0235000D03*
X0075560Y0235000D03*
X0064560Y0235000D03*
X0060560Y0235000D03*
X0049560Y0235000D03*
X0045560Y0235000D03*
D13*
X0046810Y0234817D02*
X0048310Y0234817D01*
X0048310Y0234500D02*
X0048310Y0235500D01*
X0046810Y0235500D01*
X0046810Y0234500D01*
X0048310Y0234500D01*
X0048310Y0235315D02*
X0046810Y0235315D01*
X0061810Y0235315D02*
X0063310Y0235315D01*
X0063310Y0235500D02*
X0061810Y0235500D01*
X0061810Y0234500D01*
X0063310Y0234500D01*
X0063310Y0235500D01*
X0063310Y0234817D02*
X0061810Y0234817D01*
X0076810Y0234817D02*
X0078310Y0234817D01*
X0078310Y0234500D02*
X0078310Y0235500D01*
X0076810Y0235500D01*
X0076810Y0234500D01*
X0078310Y0234500D01*
X0078310Y0235315D02*
X0076810Y0235315D01*
X0168810Y0235315D02*
X0170310Y0235315D01*
X0170310Y0235500D02*
X0168810Y0235500D01*
X0168810Y0234500D01*
X0170310Y0234500D01*
X0170310Y0235500D01*
X0170310Y0234817D02*
X0168810Y0234817D01*
X0183810Y0234817D02*
X0185310Y0234817D01*
X0185310Y0234500D02*
X0185310Y0235500D01*
X0183810Y0235500D01*
X0183810Y0234500D01*
X0185310Y0234500D01*
X0185310Y0235315D02*
X0183810Y0235315D01*
X0198810Y0235315D02*
X0200310Y0235315D01*
X0200310Y0235500D02*
X0200310Y0234500D01*
X0198810Y0234500D01*
X0198810Y0235500D01*
X0200310Y0235500D01*
X0200310Y0234817D02*
X0198810Y0234817D01*
X0290810Y0234817D02*
X0292310Y0234817D01*
X0292310Y0234500D02*
X0292310Y0235500D01*
X0290810Y0235500D01*
X0290810Y0234500D01*
X0292310Y0234500D01*
X0292310Y0235315D02*
X0290810Y0235315D01*
X0305810Y0235315D02*
X0307310Y0235315D01*
X0307310Y0235500D02*
X0305810Y0235500D01*
X0305810Y0234500D01*
X0307310Y0234500D01*
X0307310Y0235500D01*
X0307310Y0234817D02*
X0305810Y0234817D01*
X0320810Y0234817D02*
X0322310Y0234817D01*
X0322310Y0234500D02*
X0322310Y0235500D01*
X0320810Y0235500D01*
X0320810Y0234500D01*
X0322310Y0234500D01*
X0322310Y0235315D02*
X0320810Y0235315D01*
X0320810Y0133500D02*
X0320810Y0132500D01*
X0322310Y0132500D01*
X0322310Y0133500D01*
X0320810Y0133500D01*
X0320810Y0133120D02*
X0322310Y0133120D01*
X0322310Y0132622D02*
X0320810Y0132622D01*
X0307310Y0132622D02*
X0305810Y0132622D01*
X0305810Y0132500D02*
X0305810Y0133500D01*
X0307310Y0133500D01*
X0307310Y0132500D01*
X0305810Y0132500D01*
X0305810Y0133120D02*
X0307310Y0133120D01*
X0292310Y0133120D02*
X0290810Y0133120D01*
X0290810Y0133500D02*
X0290810Y0132500D01*
X0292310Y0132500D01*
X0292310Y0133500D01*
X0290810Y0133500D01*
X0290810Y0132622D02*
X0292310Y0132622D01*
X0200310Y0132622D02*
X0198810Y0132622D01*
X0198810Y0132500D02*
X0200310Y0132500D01*
X0200310Y0133500D01*
X0198810Y0133500D01*
X0198810Y0132500D01*
X0198810Y0133120D02*
X0200310Y0133120D01*
X0185310Y0133120D02*
X0183810Y0133120D01*
X0183810Y0133500D02*
X0183810Y0132500D01*
X0185310Y0132500D01*
X0185310Y0133500D01*
X0183810Y0133500D01*
X0183810Y0132622D02*
X0185310Y0132622D01*
X0170310Y0132622D02*
X0168810Y0132622D01*
X0168810Y0132500D02*
X0168810Y0133500D01*
X0170310Y0133500D01*
X0170310Y0132500D01*
X0168810Y0132500D01*
X0168810Y0133120D02*
X0170310Y0133120D01*
X0078310Y0133120D02*
X0076810Y0133120D01*
X0076810Y0133500D02*
X0076810Y0132500D01*
X0078310Y0132500D01*
X0078310Y0133500D01*
X0076810Y0133500D01*
X0076810Y0132622D02*
X0078310Y0132622D01*
X0063310Y0132622D02*
X0061810Y0132622D01*
X0061810Y0132500D02*
X0061810Y0133500D01*
X0063310Y0133500D01*
X0063310Y0132500D01*
X0061810Y0132500D01*
X0061810Y0133120D02*
X0063310Y0133120D01*
X0048310Y0133120D02*
X0046810Y0133120D01*
X0046810Y0133500D02*
X0046810Y0132500D01*
X0048310Y0132500D01*
X0048310Y0133500D01*
X0046810Y0133500D01*
X0046810Y0132622D02*
X0048310Y0132622D01*
X0048310Y0031500D02*
X0046810Y0031500D01*
X0046810Y0030500D01*
X0048310Y0030500D01*
X0048310Y0031500D01*
X0048310Y0031424D02*
X0046810Y0031424D01*
X0046810Y0030926D02*
X0048310Y0030926D01*
X0061810Y0030926D02*
X0063310Y0030926D01*
X0063310Y0030500D02*
X0063310Y0031500D01*
X0061810Y0031500D01*
X0061810Y0030500D01*
X0063310Y0030500D01*
X0063310Y0031424D02*
X0061810Y0031424D01*
X0076810Y0031424D02*
X0078310Y0031424D01*
X0078310Y0031500D02*
X0078310Y0030500D01*
X0076810Y0030500D01*
X0076810Y0031500D01*
X0078310Y0031500D01*
X0078310Y0030926D02*
X0076810Y0030926D01*
X0168810Y0030926D02*
X0170310Y0030926D01*
X0170310Y0030500D02*
X0170310Y0031500D01*
X0168810Y0031500D01*
X0168810Y0030500D01*
X0170310Y0030500D01*
X0170310Y0031424D02*
X0168810Y0031424D01*
X0183810Y0031424D02*
X0185310Y0031424D01*
X0185310Y0031500D02*
X0183810Y0031500D01*
X0183810Y0030500D01*
X0185310Y0030500D01*
X0185310Y0031500D01*
X0185310Y0030926D02*
X0183810Y0030926D01*
X0198810Y0030926D02*
X0200310Y0030926D01*
X0200310Y0030500D02*
X0200310Y0031500D01*
X0198810Y0031500D01*
X0198810Y0030500D01*
X0200310Y0030500D01*
X0200310Y0031424D02*
X0198810Y0031424D01*
X0290810Y0031424D02*
X0292310Y0031424D01*
X0292310Y0031500D02*
X0290810Y0031500D01*
X0290810Y0030500D01*
X0292310Y0030500D01*
X0292310Y0031500D01*
X0292310Y0030926D02*
X0290810Y0030926D01*
X0305810Y0030926D02*
X0307310Y0030926D01*
X0307310Y0030500D02*
X0307310Y0031500D01*
X0305810Y0031500D01*
X0305810Y0030500D01*
X0307310Y0030500D01*
X0307310Y0031424D02*
X0305810Y0031424D01*
X0320810Y0031424D02*
X0322310Y0031424D01*
X0322310Y0031500D02*
X0322310Y0030500D01*
X0320810Y0030500D01*
X0320810Y0031500D01*
X0322310Y0031500D01*
X0322310Y0030926D02*
X0320810Y0030926D01*
M02*
