G75*
%MOIN*%
%OFA0B0*%
%FSLAX25Y25*%
%IPPOS*%
%LPD*%
%AMOC8*
5,1,8,0,0,1.08239X$1,22.5*
%
%ADD10C,0.13800*%
%ADD11C,0.04737*%
%ADD12R,0.08674X0.05524*%
%ADD13R,0.06115X0.03162*%
%ADD14C,0.08200*%
%ADD15R,0.05131X0.04737*%
%ADD16R,0.04737X0.05131*%
%ADD17R,0.06300X0.03350*%
%ADD18C,0.09658*%
%ADD19C,0.05000*%
%ADD20C,0.06706*%
D10*
X0054962Y0038500D03*
X0184962Y0038500D03*
X0216962Y0038500D03*
X0346962Y0038500D03*
X0378962Y0038500D03*
X0508962Y0038500D03*
X0540962Y0038500D03*
X0670962Y0038500D03*
X0670962Y0168500D03*
X0670962Y0190500D03*
X0540962Y0190500D03*
X0540962Y0168500D03*
X0508962Y0168500D03*
X0508962Y0190500D03*
X0378962Y0190500D03*
X0378962Y0168500D03*
X0346962Y0168500D03*
X0346962Y0190500D03*
X0216962Y0190500D03*
X0216962Y0168500D03*
X0184962Y0168500D03*
X0184962Y0190500D03*
X0054962Y0190500D03*
X0054962Y0168500D03*
X0054962Y0320500D03*
X0054962Y0342500D03*
X0184962Y0342500D03*
X0184962Y0320500D03*
X0216962Y0320500D03*
X0216962Y0342500D03*
X0346962Y0342500D03*
X0346962Y0320500D03*
X0378962Y0320500D03*
X0378962Y0342500D03*
X0508962Y0342500D03*
X0508962Y0320500D03*
X0540962Y0320500D03*
X0540962Y0342500D03*
X0670962Y0342500D03*
X0670962Y0320500D03*
X0670962Y0472500D03*
X0670962Y0494500D03*
X0540962Y0494500D03*
X0540962Y0472500D03*
X0508962Y0472500D03*
X0508962Y0494500D03*
X0378962Y0494500D03*
X0378962Y0472500D03*
X0346962Y0472500D03*
X0346962Y0494500D03*
X0216962Y0494500D03*
X0216962Y0472500D03*
X0184962Y0472500D03*
X0184962Y0494500D03*
X0054962Y0494500D03*
X0054962Y0472500D03*
X0054962Y0624500D03*
X0184962Y0624500D03*
X0216962Y0624500D03*
X0346962Y0624500D03*
X0378962Y0624500D03*
X0508962Y0624500D03*
X0540962Y0624500D03*
X0670962Y0624500D03*
D11*
X0643962Y0642750D03*
X0550962Y0629500D03*
X0498962Y0489500D03*
X0550962Y0477500D03*
X0660962Y0489500D03*
X0660962Y0337500D03*
X0550962Y0325500D03*
X0498962Y0337500D03*
X0388962Y0325500D03*
X0336962Y0337500D03*
X0226962Y0325500D03*
X0174962Y0337500D03*
X0064962Y0325500D03*
X0174962Y0185500D03*
X0226962Y0173500D03*
X0336962Y0185500D03*
X0388962Y0173500D03*
X0498962Y0185500D03*
X0550962Y0173500D03*
X0660962Y0185500D03*
X0660962Y0033500D03*
X0498962Y0033500D03*
X0336962Y0033500D03*
X0174962Y0033500D03*
X0064962Y0173500D03*
X0064962Y0477500D03*
X0174962Y0489500D03*
X0226962Y0477500D03*
X0336962Y0489500D03*
X0388962Y0477500D03*
X0388962Y0629500D03*
X0226962Y0629500D03*
X0081962Y0642750D03*
X0064962Y0629500D03*
D12*
X0050493Y0570524D03*
X0050493Y0548476D03*
X0189430Y0548476D03*
X0212493Y0548476D03*
X0212493Y0570524D03*
X0189430Y0570524D03*
X0351430Y0570524D03*
X0374493Y0570524D03*
X0374493Y0548476D03*
X0351430Y0548476D03*
X0351430Y0418524D03*
X0374493Y0418524D03*
X0374493Y0396476D03*
X0351430Y0396476D03*
X0212493Y0396476D03*
X0189430Y0396476D03*
X0189430Y0418524D03*
X0212493Y0418524D03*
X0050493Y0418524D03*
X0050493Y0396476D03*
X0050493Y0266524D03*
X0050493Y0244476D03*
X0189430Y0244476D03*
X0212493Y0244476D03*
X0212493Y0266524D03*
X0189430Y0266524D03*
X0351430Y0266524D03*
X0374493Y0266524D03*
X0374493Y0244476D03*
X0351430Y0244476D03*
X0351430Y0114524D03*
X0374493Y0114524D03*
X0374493Y0092476D03*
X0351430Y0092476D03*
X0212493Y0092476D03*
X0189430Y0092476D03*
X0189430Y0114524D03*
X0212493Y0114524D03*
X0050493Y0114524D03*
X0050493Y0092476D03*
X0513430Y0092476D03*
X0536493Y0092476D03*
X0536493Y0114524D03*
X0513430Y0114524D03*
X0513430Y0244476D03*
X0536493Y0244476D03*
X0536493Y0266524D03*
X0513430Y0266524D03*
X0513430Y0396476D03*
X0536493Y0396476D03*
X0536493Y0418524D03*
X0513430Y0418524D03*
X0513430Y0548476D03*
X0536493Y0548476D03*
X0536493Y0570524D03*
X0513430Y0570524D03*
X0675430Y0570524D03*
X0675430Y0548476D03*
X0675430Y0418524D03*
X0675430Y0396476D03*
X0675430Y0266524D03*
X0675430Y0244476D03*
X0675430Y0114524D03*
X0675430Y0092476D03*
D13*
X0660962Y0097594D03*
X0660962Y0101531D03*
X0660962Y0105469D03*
X0660962Y0109406D03*
X0550962Y0109406D03*
X0550962Y0105469D03*
X0550962Y0101531D03*
X0550962Y0097594D03*
X0498962Y0097594D03*
X0498962Y0101531D03*
X0498962Y0105469D03*
X0498962Y0109406D03*
X0388962Y0109406D03*
X0388962Y0105469D03*
X0388962Y0101531D03*
X0388962Y0097594D03*
X0336962Y0097594D03*
X0336962Y0101531D03*
X0336962Y0105469D03*
X0336962Y0109406D03*
X0226962Y0109406D03*
X0226962Y0105469D03*
X0226962Y0101531D03*
X0226962Y0097594D03*
X0174962Y0097594D03*
X0174962Y0101531D03*
X0174962Y0105469D03*
X0174962Y0109406D03*
X0064962Y0109406D03*
X0064962Y0105469D03*
X0064962Y0101531D03*
X0064962Y0097594D03*
X0064962Y0249594D03*
X0064962Y0253531D03*
X0064962Y0257469D03*
X0064962Y0261406D03*
X0174962Y0261406D03*
X0174962Y0257469D03*
X0174962Y0253531D03*
X0174962Y0249594D03*
X0226962Y0249594D03*
X0226962Y0253531D03*
X0226962Y0257469D03*
X0226962Y0261406D03*
X0336962Y0261406D03*
X0336962Y0257469D03*
X0336962Y0253531D03*
X0336962Y0249594D03*
X0388962Y0249594D03*
X0388962Y0253531D03*
X0388962Y0257469D03*
X0388962Y0261406D03*
X0498962Y0261406D03*
X0498962Y0257469D03*
X0498962Y0253531D03*
X0498962Y0249594D03*
X0550962Y0249594D03*
X0550962Y0253531D03*
X0550962Y0257469D03*
X0550962Y0261406D03*
X0660962Y0261406D03*
X0660962Y0257469D03*
X0660962Y0253531D03*
X0660962Y0249594D03*
X0660962Y0401594D03*
X0660962Y0405531D03*
X0660962Y0409469D03*
X0660962Y0413406D03*
X0550962Y0413406D03*
X0550962Y0409469D03*
X0550962Y0405531D03*
X0550962Y0401594D03*
X0498962Y0401594D03*
X0498962Y0405531D03*
X0498962Y0409469D03*
X0498962Y0413406D03*
X0388962Y0413406D03*
X0388962Y0409469D03*
X0388962Y0405531D03*
X0388962Y0401594D03*
X0336962Y0401594D03*
X0336962Y0405531D03*
X0336962Y0409469D03*
X0336962Y0413406D03*
X0226962Y0413406D03*
X0226962Y0409469D03*
X0226962Y0405531D03*
X0226962Y0401594D03*
X0174962Y0401594D03*
X0174962Y0405531D03*
X0174962Y0409469D03*
X0174962Y0413406D03*
X0064962Y0413406D03*
X0064962Y0409469D03*
X0064962Y0405531D03*
X0064962Y0401594D03*
X0064962Y0553594D03*
X0064962Y0557531D03*
X0064962Y0561469D03*
X0064962Y0565406D03*
X0174962Y0565406D03*
X0174962Y0561469D03*
X0174962Y0557531D03*
X0174962Y0553594D03*
X0226962Y0553594D03*
X0226962Y0557531D03*
X0226962Y0561469D03*
X0226962Y0565406D03*
X0336962Y0565406D03*
X0336962Y0561469D03*
X0336962Y0557531D03*
X0336962Y0553594D03*
X0388962Y0553594D03*
X0388962Y0557531D03*
X0388962Y0561469D03*
X0388962Y0565406D03*
X0498962Y0565406D03*
X0498962Y0561469D03*
X0498962Y0557531D03*
X0498962Y0553594D03*
X0550962Y0553594D03*
X0550962Y0557531D03*
X0550962Y0561469D03*
X0550962Y0565406D03*
X0660962Y0565406D03*
X0660962Y0561469D03*
X0660962Y0557531D03*
X0660962Y0553594D03*
D14*
X0675962Y0539500D03*
X0675962Y0529500D03*
X0675962Y0519500D03*
X0675962Y0509500D03*
X0675962Y0387500D03*
X0675962Y0377500D03*
X0675962Y0367500D03*
X0675962Y0357500D03*
X0675962Y0235500D03*
X0675962Y0225500D03*
X0675962Y0215500D03*
X0675962Y0205500D03*
X0675962Y0083500D03*
X0675962Y0073500D03*
X0675962Y0063500D03*
X0675962Y0053500D03*
X0535962Y0083500D03*
X0513962Y0083500D03*
X0513962Y0073500D03*
X0513962Y0063500D03*
X0513962Y0053500D03*
X0373962Y0083500D03*
X0351962Y0083500D03*
X0351962Y0073500D03*
X0351962Y0063500D03*
X0351962Y0053500D03*
X0211962Y0083500D03*
X0189962Y0083500D03*
X0189962Y0073500D03*
X0189962Y0063500D03*
X0189962Y0053500D03*
X0049962Y0083500D03*
X0189962Y0205500D03*
X0189962Y0215500D03*
X0189962Y0225500D03*
X0189962Y0235500D03*
X0211962Y0235500D03*
X0189962Y0357500D03*
X0189962Y0367500D03*
X0189962Y0377500D03*
X0189962Y0387500D03*
X0211962Y0387500D03*
X0189962Y0509500D03*
X0189962Y0519500D03*
X0189962Y0529500D03*
X0189962Y0539500D03*
X0211962Y0539500D03*
X0351962Y0539500D03*
X0351962Y0529500D03*
X0351962Y0519500D03*
X0351962Y0509500D03*
X0373962Y0539500D03*
X0513962Y0539500D03*
X0513962Y0529500D03*
X0513962Y0519500D03*
X0513962Y0509500D03*
X0535962Y0539500D03*
X0535962Y0387500D03*
X0513962Y0387500D03*
X0513962Y0377500D03*
X0513962Y0367500D03*
X0513962Y0357500D03*
X0373962Y0387500D03*
X0351962Y0387500D03*
X0351962Y0377500D03*
X0351962Y0367500D03*
X0351962Y0357500D03*
X0351962Y0235500D03*
X0351962Y0225500D03*
X0351962Y0215500D03*
X0351962Y0205500D03*
X0373962Y0235500D03*
X0513962Y0235500D03*
X0513962Y0225500D03*
X0513962Y0215500D03*
X0513962Y0205500D03*
X0535962Y0235500D03*
X0049962Y0235500D03*
X0049962Y0387500D03*
X0049962Y0539500D03*
D15*
X0051615Y0529500D03*
X0058308Y0529500D03*
X0086615Y0544500D03*
X0093308Y0544500D03*
X0151615Y0539500D03*
X0158308Y0539500D03*
X0158308Y0549500D03*
X0151615Y0549500D03*
X0151615Y0559500D03*
X0158308Y0559500D03*
X0213615Y0529500D03*
X0220308Y0529500D03*
X0248615Y0544500D03*
X0255308Y0544500D03*
X0313615Y0539500D03*
X0320308Y0539500D03*
X0320308Y0549500D03*
X0313615Y0549500D03*
X0313615Y0559500D03*
X0320308Y0559500D03*
X0375615Y0529500D03*
X0382308Y0529500D03*
X0410615Y0544500D03*
X0417308Y0544500D03*
X0475615Y0539500D03*
X0482308Y0539500D03*
X0482308Y0549500D03*
X0475615Y0549500D03*
X0475615Y0559500D03*
X0482308Y0559500D03*
X0537615Y0529500D03*
X0544308Y0529500D03*
X0572615Y0544500D03*
X0579308Y0544500D03*
X0637615Y0539500D03*
X0644308Y0539500D03*
X0644308Y0549500D03*
X0637615Y0549500D03*
X0637615Y0559500D03*
X0644308Y0559500D03*
X0644308Y0407500D03*
X0637615Y0407500D03*
X0637615Y0397500D03*
X0644308Y0397500D03*
X0644308Y0387500D03*
X0637615Y0387500D03*
X0579308Y0392500D03*
X0572615Y0392500D03*
X0544308Y0377500D03*
X0537615Y0377500D03*
X0482308Y0387500D03*
X0475615Y0387500D03*
X0475615Y0397500D03*
X0482308Y0397500D03*
X0482308Y0407500D03*
X0475615Y0407500D03*
X0417308Y0392500D03*
X0410615Y0392500D03*
X0382308Y0377500D03*
X0375615Y0377500D03*
X0320308Y0387500D03*
X0313615Y0387500D03*
X0313615Y0397500D03*
X0320308Y0397500D03*
X0320308Y0407500D03*
X0313615Y0407500D03*
X0255308Y0392500D03*
X0248615Y0392500D03*
X0220308Y0377500D03*
X0213615Y0377500D03*
X0158308Y0387500D03*
X0151615Y0387500D03*
X0151615Y0397500D03*
X0158308Y0397500D03*
X0158308Y0407500D03*
X0151615Y0407500D03*
X0093308Y0392500D03*
X0086615Y0392500D03*
X0058308Y0377500D03*
X0051615Y0377500D03*
X0151615Y0255500D03*
X0158308Y0255500D03*
X0158308Y0245500D03*
X0151615Y0245500D03*
X0151615Y0235500D03*
X0158308Y0235500D03*
X0213615Y0225500D03*
X0220308Y0225500D03*
X0248615Y0240500D03*
X0255308Y0240500D03*
X0313615Y0235500D03*
X0320308Y0235500D03*
X0320308Y0245500D03*
X0313615Y0245500D03*
X0313615Y0255500D03*
X0320308Y0255500D03*
X0375615Y0225500D03*
X0382308Y0225500D03*
X0410615Y0240500D03*
X0417308Y0240500D03*
X0475615Y0235500D03*
X0482308Y0235500D03*
X0482308Y0245500D03*
X0475615Y0245500D03*
X0475615Y0255500D03*
X0482308Y0255500D03*
X0537615Y0225500D03*
X0544308Y0225500D03*
X0572615Y0240500D03*
X0579308Y0240500D03*
X0637615Y0235500D03*
X0644308Y0235500D03*
X0644308Y0245500D03*
X0637615Y0245500D03*
X0637615Y0255500D03*
X0644308Y0255500D03*
X0644308Y0103500D03*
X0637615Y0103500D03*
X0637615Y0093500D03*
X0644308Y0093500D03*
X0644308Y0083500D03*
X0637615Y0083500D03*
X0579308Y0088500D03*
X0572615Y0088500D03*
X0544308Y0073500D03*
X0537615Y0073500D03*
X0482308Y0083500D03*
X0475615Y0083500D03*
X0475615Y0093500D03*
X0482308Y0093500D03*
X0482308Y0103500D03*
X0475615Y0103500D03*
X0417308Y0088500D03*
X0410615Y0088500D03*
X0382308Y0073500D03*
X0375615Y0073500D03*
X0320308Y0083500D03*
X0313615Y0083500D03*
X0313615Y0093500D03*
X0320308Y0093500D03*
X0320308Y0103500D03*
X0313615Y0103500D03*
X0255308Y0088500D03*
X0248615Y0088500D03*
X0220308Y0073500D03*
X0213615Y0073500D03*
X0158308Y0083500D03*
X0151615Y0083500D03*
X0151615Y0093500D03*
X0158308Y0093500D03*
X0158308Y0103500D03*
X0151615Y0103500D03*
X0093308Y0088500D03*
X0086615Y0088500D03*
X0058308Y0073500D03*
X0051615Y0073500D03*
X0051615Y0225500D03*
X0058308Y0225500D03*
X0086615Y0240500D03*
X0093308Y0240500D03*
D16*
X0059962Y0277154D03*
X0059962Y0283846D03*
X0049962Y0283846D03*
X0049962Y0277154D03*
X0211962Y0277154D03*
X0211962Y0283846D03*
X0221962Y0283846D03*
X0221962Y0277154D03*
X0373962Y0277154D03*
X0373962Y0283846D03*
X0383962Y0283846D03*
X0383962Y0277154D03*
X0535962Y0277154D03*
X0535962Y0283846D03*
X0545962Y0283846D03*
X0545962Y0277154D03*
X0545962Y0131846D03*
X0545962Y0125154D03*
X0535962Y0125154D03*
X0535962Y0131846D03*
X0383962Y0131846D03*
X0383962Y0125154D03*
X0373962Y0125154D03*
X0373962Y0131846D03*
X0221962Y0131846D03*
X0221962Y0125154D03*
X0211962Y0125154D03*
X0211962Y0131846D03*
X0059962Y0131846D03*
X0059962Y0125154D03*
X0049962Y0125154D03*
X0049962Y0131846D03*
X0049962Y0429154D03*
X0049962Y0435846D03*
X0059962Y0435846D03*
X0059962Y0429154D03*
X0211962Y0429154D03*
X0211962Y0435846D03*
X0221962Y0435846D03*
X0221962Y0429154D03*
X0373962Y0429154D03*
X0373962Y0435846D03*
X0383962Y0435846D03*
X0383962Y0429154D03*
X0535962Y0429154D03*
X0535962Y0435846D03*
X0545962Y0435846D03*
X0545962Y0429154D03*
X0545962Y0581154D03*
X0545962Y0587846D03*
X0535962Y0587846D03*
X0535962Y0581154D03*
X0383962Y0581154D03*
X0383962Y0587846D03*
X0373962Y0587846D03*
X0373962Y0581154D03*
X0221962Y0581154D03*
X0221962Y0587846D03*
X0211962Y0587846D03*
X0211962Y0581154D03*
X0059962Y0581154D03*
X0059962Y0587846D03*
X0049962Y0587846D03*
X0049962Y0581154D03*
D17*
X0101655Y0577000D03*
X0101655Y0572000D03*
X0101655Y0567000D03*
X0101655Y0562000D03*
X0101655Y0557000D03*
X0101655Y0552000D03*
X0101655Y0547000D03*
X0101655Y0542000D03*
X0138269Y0542000D03*
X0138269Y0547000D03*
X0138269Y0552000D03*
X0138269Y0557000D03*
X0138269Y0562000D03*
X0138269Y0567000D03*
X0138269Y0572000D03*
X0138269Y0577000D03*
X0263655Y0577000D03*
X0263655Y0572000D03*
X0263655Y0567000D03*
X0263655Y0562000D03*
X0263655Y0557000D03*
X0263655Y0552000D03*
X0263655Y0547000D03*
X0263655Y0542000D03*
X0300269Y0542000D03*
X0300269Y0547000D03*
X0300269Y0552000D03*
X0300269Y0557000D03*
X0300269Y0562000D03*
X0300269Y0567000D03*
X0300269Y0572000D03*
X0300269Y0577000D03*
X0425655Y0577000D03*
X0425655Y0572000D03*
X0425655Y0567000D03*
X0425655Y0562000D03*
X0425655Y0557000D03*
X0425655Y0552000D03*
X0425655Y0547000D03*
X0425655Y0542000D03*
X0462269Y0542000D03*
X0462269Y0547000D03*
X0462269Y0552000D03*
X0462269Y0557000D03*
X0462269Y0562000D03*
X0462269Y0567000D03*
X0462269Y0572000D03*
X0462269Y0577000D03*
X0587655Y0577000D03*
X0587655Y0572000D03*
X0587655Y0567000D03*
X0587655Y0562000D03*
X0587655Y0557000D03*
X0587655Y0552000D03*
X0587655Y0547000D03*
X0587655Y0542000D03*
X0624269Y0542000D03*
X0624269Y0547000D03*
X0624269Y0552000D03*
X0624269Y0557000D03*
X0624269Y0562000D03*
X0624269Y0567000D03*
X0624269Y0572000D03*
X0624269Y0577000D03*
X0624269Y0425000D03*
X0624269Y0420000D03*
X0624269Y0415000D03*
X0624269Y0410000D03*
X0624269Y0405000D03*
X0624269Y0400000D03*
X0624269Y0395000D03*
X0624269Y0390000D03*
X0587655Y0390000D03*
X0587655Y0395000D03*
X0587655Y0400000D03*
X0587655Y0405000D03*
X0587655Y0410000D03*
X0587655Y0415000D03*
X0587655Y0420000D03*
X0587655Y0425000D03*
X0462269Y0425000D03*
X0462269Y0420000D03*
X0462269Y0415000D03*
X0462269Y0410000D03*
X0462269Y0405000D03*
X0462269Y0400000D03*
X0462269Y0395000D03*
X0462269Y0390000D03*
X0425655Y0390000D03*
X0425655Y0395000D03*
X0425655Y0400000D03*
X0425655Y0405000D03*
X0425655Y0410000D03*
X0425655Y0415000D03*
X0425655Y0420000D03*
X0425655Y0425000D03*
X0300269Y0425000D03*
X0300269Y0420000D03*
X0300269Y0415000D03*
X0300269Y0410000D03*
X0300269Y0405000D03*
X0300269Y0400000D03*
X0300269Y0395000D03*
X0300269Y0390000D03*
X0263655Y0390000D03*
X0263655Y0395000D03*
X0263655Y0400000D03*
X0263655Y0405000D03*
X0263655Y0410000D03*
X0263655Y0415000D03*
X0263655Y0420000D03*
X0263655Y0425000D03*
X0138269Y0425000D03*
X0138269Y0420000D03*
X0138269Y0415000D03*
X0138269Y0410000D03*
X0138269Y0405000D03*
X0138269Y0400000D03*
X0138269Y0395000D03*
X0138269Y0390000D03*
X0101655Y0390000D03*
X0101655Y0395000D03*
X0101655Y0400000D03*
X0101655Y0405000D03*
X0101655Y0410000D03*
X0101655Y0415000D03*
X0101655Y0420000D03*
X0101655Y0425000D03*
X0101655Y0273000D03*
X0101655Y0268000D03*
X0101655Y0263000D03*
X0101655Y0258000D03*
X0101655Y0253000D03*
X0101655Y0248000D03*
X0101655Y0243000D03*
X0101655Y0238000D03*
X0138269Y0238000D03*
X0138269Y0243000D03*
X0138269Y0248000D03*
X0138269Y0253000D03*
X0138269Y0258000D03*
X0138269Y0263000D03*
X0138269Y0268000D03*
X0138269Y0273000D03*
X0263655Y0273000D03*
X0263655Y0268000D03*
X0263655Y0263000D03*
X0263655Y0258000D03*
X0263655Y0253000D03*
X0263655Y0248000D03*
X0263655Y0243000D03*
X0263655Y0238000D03*
X0300269Y0238000D03*
X0300269Y0243000D03*
X0300269Y0248000D03*
X0300269Y0253000D03*
X0300269Y0258000D03*
X0300269Y0263000D03*
X0300269Y0268000D03*
X0300269Y0273000D03*
X0425655Y0273000D03*
X0425655Y0268000D03*
X0425655Y0263000D03*
X0425655Y0258000D03*
X0425655Y0253000D03*
X0425655Y0248000D03*
X0425655Y0243000D03*
X0425655Y0238000D03*
X0462269Y0238000D03*
X0462269Y0243000D03*
X0462269Y0248000D03*
X0462269Y0253000D03*
X0462269Y0258000D03*
X0462269Y0263000D03*
X0462269Y0268000D03*
X0462269Y0273000D03*
X0587655Y0273000D03*
X0587655Y0268000D03*
X0587655Y0263000D03*
X0587655Y0258000D03*
X0587655Y0253000D03*
X0587655Y0248000D03*
X0587655Y0243000D03*
X0587655Y0238000D03*
X0624269Y0238000D03*
X0624269Y0243000D03*
X0624269Y0248000D03*
X0624269Y0253000D03*
X0624269Y0258000D03*
X0624269Y0263000D03*
X0624269Y0268000D03*
X0624269Y0273000D03*
X0624269Y0121000D03*
X0624269Y0116000D03*
X0624269Y0111000D03*
X0624269Y0106000D03*
X0624269Y0101000D03*
X0624269Y0096000D03*
X0624269Y0091000D03*
X0624269Y0086000D03*
X0587655Y0086000D03*
X0587655Y0091000D03*
X0587655Y0096000D03*
X0587655Y0101000D03*
X0587655Y0106000D03*
X0587655Y0111000D03*
X0587655Y0116000D03*
X0587655Y0121000D03*
X0462269Y0121000D03*
X0462269Y0116000D03*
X0462269Y0111000D03*
X0462269Y0106000D03*
X0462269Y0101000D03*
X0462269Y0096000D03*
X0462269Y0091000D03*
X0462269Y0086000D03*
X0425655Y0086000D03*
X0425655Y0091000D03*
X0425655Y0096000D03*
X0425655Y0101000D03*
X0425655Y0106000D03*
X0425655Y0111000D03*
X0425655Y0116000D03*
X0425655Y0121000D03*
X0300269Y0121000D03*
X0300269Y0116000D03*
X0300269Y0111000D03*
X0300269Y0106000D03*
X0300269Y0101000D03*
X0300269Y0096000D03*
X0300269Y0091000D03*
X0300269Y0086000D03*
X0263655Y0086000D03*
X0263655Y0091000D03*
X0263655Y0096000D03*
X0263655Y0101000D03*
X0263655Y0106000D03*
X0263655Y0111000D03*
X0263655Y0116000D03*
X0263655Y0121000D03*
X0138269Y0121000D03*
X0138269Y0116000D03*
X0138269Y0111000D03*
X0138269Y0106000D03*
X0138269Y0101000D03*
X0138269Y0096000D03*
X0138269Y0091000D03*
X0138269Y0086000D03*
X0101655Y0086000D03*
X0101655Y0091000D03*
X0101655Y0096000D03*
X0101655Y0101000D03*
X0101655Y0106000D03*
X0101655Y0111000D03*
X0101655Y0116000D03*
X0101655Y0121000D03*
D18*
X0110119Y0153500D03*
X0090434Y0153500D03*
X0129804Y0153500D03*
X0149489Y0153500D03*
X0149489Y0205500D03*
X0129804Y0205500D03*
X0110119Y0205500D03*
X0090434Y0205500D03*
X0090434Y0305500D03*
X0110119Y0305500D03*
X0129804Y0305500D03*
X0149489Y0305500D03*
X0149489Y0357500D03*
X0129804Y0357500D03*
X0110119Y0357500D03*
X0090434Y0357500D03*
X0090434Y0457500D03*
X0110119Y0457500D03*
X0129804Y0457500D03*
X0149489Y0457500D03*
X0149489Y0509500D03*
X0129804Y0509500D03*
X0110119Y0509500D03*
X0090434Y0509500D03*
X0090434Y0609500D03*
X0110119Y0609500D03*
X0129804Y0609500D03*
X0149489Y0609500D03*
X0252434Y0609500D03*
X0272119Y0609500D03*
X0291804Y0609500D03*
X0311489Y0609500D03*
X0414434Y0609500D03*
X0434119Y0609500D03*
X0453804Y0609500D03*
X0473489Y0609500D03*
X0576434Y0609500D03*
X0596119Y0609500D03*
X0615804Y0609500D03*
X0635489Y0609500D03*
X0635489Y0509500D03*
X0615804Y0509500D03*
X0596119Y0509500D03*
X0576434Y0509500D03*
X0576434Y0457500D03*
X0596119Y0457500D03*
X0615804Y0457500D03*
X0635489Y0457500D03*
X0635489Y0357500D03*
X0615804Y0357500D03*
X0596119Y0357500D03*
X0576434Y0357500D03*
X0576434Y0305500D03*
X0596119Y0305500D03*
X0615804Y0305500D03*
X0635489Y0305500D03*
X0635489Y0205500D03*
X0615804Y0205500D03*
X0596119Y0205500D03*
X0576434Y0205500D03*
X0576434Y0153500D03*
X0596119Y0153500D03*
X0615804Y0153500D03*
X0635489Y0153500D03*
X0635489Y0053500D03*
X0615804Y0053500D03*
X0596119Y0053500D03*
X0576434Y0053500D03*
X0473489Y0053500D03*
X0453804Y0053500D03*
X0434119Y0053500D03*
X0414434Y0053500D03*
X0311489Y0053500D03*
X0291804Y0053500D03*
X0272119Y0053500D03*
X0252434Y0053500D03*
X0149489Y0053500D03*
X0129804Y0053500D03*
X0110119Y0053500D03*
X0090434Y0053500D03*
X0252434Y0153500D03*
X0272119Y0153500D03*
X0291804Y0153500D03*
X0311489Y0153500D03*
X0311489Y0205500D03*
X0291804Y0205500D03*
X0272119Y0205500D03*
X0252434Y0205500D03*
X0252434Y0305500D03*
X0272119Y0305500D03*
X0291804Y0305500D03*
X0311489Y0305500D03*
X0311489Y0357500D03*
X0291804Y0357500D03*
X0272119Y0357500D03*
X0252434Y0357500D03*
X0252434Y0457500D03*
X0272119Y0457500D03*
X0291804Y0457500D03*
X0311489Y0457500D03*
X0311489Y0509500D03*
X0291804Y0509500D03*
X0272119Y0509500D03*
X0252434Y0509500D03*
X0414434Y0509500D03*
X0434119Y0509500D03*
X0453804Y0509500D03*
X0473489Y0509500D03*
X0473489Y0457500D03*
X0453804Y0457500D03*
X0434119Y0457500D03*
X0414434Y0457500D03*
X0414434Y0357500D03*
X0434119Y0357500D03*
X0453804Y0357500D03*
X0473489Y0357500D03*
X0473489Y0305500D03*
X0453804Y0305500D03*
X0434119Y0305500D03*
X0414434Y0305500D03*
X0414434Y0205500D03*
X0434119Y0205500D03*
X0453804Y0205500D03*
X0473489Y0205500D03*
X0473489Y0153500D03*
X0453804Y0153500D03*
X0434119Y0153500D03*
X0414434Y0153500D03*
D19*
X0078397Y0020250D02*
X0078399Y0020369D01*
X0078405Y0020488D01*
X0078415Y0020607D01*
X0078429Y0020725D01*
X0078447Y0020843D01*
X0078468Y0020960D01*
X0078494Y0021076D01*
X0078524Y0021192D01*
X0078557Y0021306D01*
X0078594Y0021419D01*
X0078635Y0021531D01*
X0078680Y0021642D01*
X0078728Y0021751D01*
X0078780Y0021858D01*
X0078836Y0021963D01*
X0078895Y0022067D01*
X0078957Y0022168D01*
X0079023Y0022268D01*
X0079092Y0022365D01*
X0079164Y0022459D01*
X0079240Y0022552D01*
X0079318Y0022641D01*
X0079399Y0022728D01*
X0079484Y0022813D01*
X0079571Y0022894D01*
X0079660Y0022972D01*
X0079753Y0023048D01*
X0079847Y0023120D01*
X0079944Y0023189D01*
X0080044Y0023255D01*
X0080145Y0023317D01*
X0080249Y0023376D01*
X0080354Y0023432D01*
X0080461Y0023484D01*
X0080570Y0023532D01*
X0080681Y0023577D01*
X0080793Y0023618D01*
X0080906Y0023655D01*
X0081020Y0023688D01*
X0081136Y0023718D01*
X0081252Y0023744D01*
X0081369Y0023765D01*
X0081487Y0023783D01*
X0081605Y0023797D01*
X0081724Y0023807D01*
X0081843Y0023813D01*
X0081962Y0023815D01*
X0082081Y0023813D01*
X0082200Y0023807D01*
X0082319Y0023797D01*
X0082437Y0023783D01*
X0082555Y0023765D01*
X0082672Y0023744D01*
X0082788Y0023718D01*
X0082904Y0023688D01*
X0083018Y0023655D01*
X0083131Y0023618D01*
X0083243Y0023577D01*
X0083354Y0023532D01*
X0083463Y0023484D01*
X0083570Y0023432D01*
X0083675Y0023376D01*
X0083779Y0023317D01*
X0083880Y0023255D01*
X0083980Y0023189D01*
X0084077Y0023120D01*
X0084171Y0023048D01*
X0084264Y0022972D01*
X0084353Y0022894D01*
X0084440Y0022813D01*
X0084525Y0022728D01*
X0084606Y0022641D01*
X0084684Y0022552D01*
X0084760Y0022459D01*
X0084832Y0022365D01*
X0084901Y0022268D01*
X0084967Y0022168D01*
X0085029Y0022067D01*
X0085088Y0021963D01*
X0085144Y0021858D01*
X0085196Y0021751D01*
X0085244Y0021642D01*
X0085289Y0021531D01*
X0085330Y0021419D01*
X0085367Y0021306D01*
X0085400Y0021192D01*
X0085430Y0021076D01*
X0085456Y0020960D01*
X0085477Y0020843D01*
X0085495Y0020725D01*
X0085509Y0020607D01*
X0085519Y0020488D01*
X0085525Y0020369D01*
X0085527Y0020250D01*
X0085525Y0020131D01*
X0085519Y0020012D01*
X0085509Y0019893D01*
X0085495Y0019775D01*
X0085477Y0019657D01*
X0085456Y0019540D01*
X0085430Y0019424D01*
X0085400Y0019308D01*
X0085367Y0019194D01*
X0085330Y0019081D01*
X0085289Y0018969D01*
X0085244Y0018858D01*
X0085196Y0018749D01*
X0085144Y0018642D01*
X0085088Y0018537D01*
X0085029Y0018433D01*
X0084967Y0018332D01*
X0084901Y0018232D01*
X0084832Y0018135D01*
X0084760Y0018041D01*
X0084684Y0017948D01*
X0084606Y0017859D01*
X0084525Y0017772D01*
X0084440Y0017687D01*
X0084353Y0017606D01*
X0084264Y0017528D01*
X0084171Y0017452D01*
X0084077Y0017380D01*
X0083980Y0017311D01*
X0083880Y0017245D01*
X0083779Y0017183D01*
X0083675Y0017124D01*
X0083570Y0017068D01*
X0083463Y0017016D01*
X0083354Y0016968D01*
X0083243Y0016923D01*
X0083131Y0016882D01*
X0083018Y0016845D01*
X0082904Y0016812D01*
X0082788Y0016782D01*
X0082672Y0016756D01*
X0082555Y0016735D01*
X0082437Y0016717D01*
X0082319Y0016703D01*
X0082200Y0016693D01*
X0082081Y0016687D01*
X0081962Y0016685D01*
X0081843Y0016687D01*
X0081724Y0016693D01*
X0081605Y0016703D01*
X0081487Y0016717D01*
X0081369Y0016735D01*
X0081252Y0016756D01*
X0081136Y0016782D01*
X0081020Y0016812D01*
X0080906Y0016845D01*
X0080793Y0016882D01*
X0080681Y0016923D01*
X0080570Y0016968D01*
X0080461Y0017016D01*
X0080354Y0017068D01*
X0080249Y0017124D01*
X0080145Y0017183D01*
X0080044Y0017245D01*
X0079944Y0017311D01*
X0079847Y0017380D01*
X0079753Y0017452D01*
X0079660Y0017528D01*
X0079571Y0017606D01*
X0079484Y0017687D01*
X0079399Y0017772D01*
X0079318Y0017859D01*
X0079240Y0017948D01*
X0079164Y0018041D01*
X0079092Y0018135D01*
X0079023Y0018232D01*
X0078957Y0018332D01*
X0078895Y0018433D01*
X0078836Y0018537D01*
X0078780Y0018642D01*
X0078728Y0018749D01*
X0078680Y0018858D01*
X0078635Y0018969D01*
X0078594Y0019081D01*
X0078557Y0019194D01*
X0078524Y0019308D01*
X0078494Y0019424D01*
X0078468Y0019540D01*
X0078447Y0019657D01*
X0078429Y0019775D01*
X0078415Y0019893D01*
X0078405Y0020012D01*
X0078399Y0020131D01*
X0078397Y0020250D01*
D20*
X0081962Y0020250D03*
M02*
